%TF.GenerationSoftware,Novarm,DipTrace,3.2.0.1*%
%TF.CreationDate,2018-02-19T16:07:59-08:00*%
%FSLAX26Y26*%
%MOIN*%
%TF.FileFunction,Soldermask,Top*%
%TF.Part,Single*%
%AMOUTLINE0*
4,1,4,
-0.035433,0.019685,
-0.035433,-0.019685,
0.035433,-0.019685,
0.035433,0.019685,
-0.035433,0.019685,
0*%
%AMOUTLINE1*
4,1,4,
0.026163,0.026163,
0.026205,-0.026121,
-0.026121,-0.026205,
-0.026163,0.026163,
0.026163,0.026163,
0*%
%AMOUTLINE2*
4,1,4,
-0.023622,0.015748,
-0.023622,-0.015748,
0.023622,-0.015748,
0.023622,0.015748,
-0.023622,0.015748,
0*%
%AMOUTLINE3*
4,1,4,
-0.010827,-0.023622,
0.010827,-0.023622,
0.010827,0.023622,
-0.010827,0.023622,
-0.010827,-0.023622,
0*%
%ADD26R,0.03937X0.043307*%
%ADD27R,0.043307X0.03937*%
%ADD33R,0.059055X0.059055*%
%ADD34C,0.059055*%
%ADD45C,0.074*%
%ADD49R,0.062992X0.011811*%
%ADD50R,0.011811X0.062992*%
%ADD60R,0.05937X0.05937*%
%ADD61C,0.05937*%
%ADD62R,0.07874X0.023622*%
%ADD64R,0.074803X0.059055*%
%ADD68C,0.137795*%
%ADD76C,0.056*%
%ADD78R,0.082803X0.067055*%
%ADD86R,0.027685X0.019811*%
%ADD88R,0.019811X0.027685*%
%ADD90R,0.078866X0.023748*%
%ADD92R,0.023748X0.08674*%
%ADD94R,0.145795X0.145795*%
%ADD96O,0.019811X0.041465*%
%ADD98O,0.041465X0.019811*%
%ADD106R,0.053669X0.057213*%
%ADD108R,0.053669X0.055244*%
%ADD110R,0.067055X0.053276*%
%ADD112R,0.053276X0.094614*%
%ADD114R,0.053276X0.106425*%
%ADD116R,0.039496X0.056819*%
%ADD118O,0.078866X0.051307*%
%ADD120R,0.063118X0.070992*%
%ADD122R,0.06115X0.023748*%
%ADD124C,0.067055*%
%ADD126R,0.067055X0.067055*%
%ADD128R,0.031622X0.031622*%
%ADD130R,0.067055X0.059181*%
%ADD132R,0.051307X0.04737*%
%ADD134R,0.04737X0.051307*%
%ADD136R,0.16548X0.149732*%
%ADD141OUTLINE0*%
%ADD142OUTLINE1*%
%ADD143OUTLINE2*%
%ADD144OUTLINE3*%
G75*
G01*
%LPD*%
D136*
X1444017Y2709639D3*
X1129057D3*
X814096D3*
D26*
X1797139Y1287765D3*
Y1220836D3*
X1750124Y1544158D3*
Y1611087D3*
X1497932Y1541940D3*
Y1608869D3*
D134*
X1728390Y1222142D3*
Y1289071D3*
D26*
X1815742Y1544158D3*
Y1611087D3*
D134*
X1728390Y1137765D3*
Y1070836D3*
D27*
X2050440Y1769147D3*
X1983511D3*
X1956680Y1031572D3*
X2023609D3*
D26*
X2531515Y1144013D3*
Y1210943D3*
D27*
X2228198Y1025464D3*
X2161269D3*
D26*
X2559641Y1519016D3*
Y1585945D3*
D130*
X1059571Y2315763D3*
Y2240960D3*
D27*
X2187578Y1766008D3*
X2254507D3*
D130*
X1153311Y2315763D3*
Y2240960D3*
X1240802Y2315763D3*
Y2240960D3*
X1328293Y2315763D3*
Y2240960D3*
D132*
X749631Y737540D3*
X816561D3*
X878395D3*
X945324D3*
X1135922D3*
X1202851D3*
X1264685D3*
X1331614D3*
D134*
X2206326Y2515931D3*
Y2582860D3*
D132*
X816940Y680841D3*
X750011D3*
D26*
X1400265Y677087D3*
Y744016D3*
D27*
X1331614Y681284D3*
X1264685D3*
D26*
X1877481Y2014981D3*
Y1948051D3*
D132*
X1136007Y681516D3*
X1202936D3*
X1007425D3*
X1074355D3*
D128*
X676328Y2469061D3*
X589714D3*
X676328Y2369071D3*
X589714D3*
D141*
X637740Y2569050D3*
Y2679286D3*
D68*
X494016Y494016D3*
X2994016D3*
Y2794016D3*
X494016D3*
D126*
X484631Y2472185D3*
D124*
Y2572185D3*
D122*
X554550Y2201448D3*
Y2175857D3*
Y2150267D3*
Y2124676D3*
Y2099086D3*
D120*
X545692Y2276251D3*
Y2024282D3*
D118*
X449314Y2280188D3*
Y2020345D3*
D116*
X1745425Y2821214D3*
X1788733D3*
X1832040D3*
X1875347D3*
X1918654D3*
X1961961D3*
X2005268D3*
X2048575D3*
D114*
X1578496Y2796424D3*
D112*
Y2350361D3*
D110*
X1747788Y2318865D3*
X2054087D3*
D108*
X2125347Y2357447D3*
D106*
Y2711777D3*
D112*
X2141095Y2796424D3*
D142*
X469016Y1737765D3*
D45*
X569016Y1727765D3*
X669016Y1737765D3*
X769016Y1727765D3*
X869016Y1737765D3*
X969016Y1727765D3*
X1069016Y1737765D3*
X1169016Y1727765D3*
D33*
X2844016Y687765D3*
D34*
Y787765D3*
Y887765D3*
Y987765D3*
Y1087765D3*
Y1187765D3*
Y1287765D3*
Y1387765D3*
Y1487765D3*
Y1587765D3*
Y1687765D3*
Y1787765D3*
Y1887765D3*
Y1987765D3*
Y2087765D3*
Y2187765D3*
Y2287765D3*
D124*
Y2387765D3*
Y2487765D3*
Y2587765D3*
D33*
X2944016Y687765D3*
D34*
Y787765D3*
Y887765D3*
Y987765D3*
Y1087765D3*
Y1187765D3*
Y1287765D3*
Y1387765D3*
Y1487765D3*
Y1587765D3*
Y1687765D3*
Y1787765D3*
Y1887765D3*
Y1987765D3*
Y2087765D3*
Y2187765D3*
Y2287765D3*
D124*
Y2387765D3*
Y2487765D3*
Y2587765D3*
D143*
X1772289Y1350357D3*
Y1421223D3*
X2206326Y2331575D3*
Y2402441D3*
D132*
X1338024Y2083767D3*
X1404953D3*
X825221Y1922243D3*
X892150D3*
X681486D3*
X748415D3*
X1106441D3*
X1173370D3*
X965831D3*
X1032760D3*
X2606024Y831516D3*
X2672953D3*
X2278940Y819016D3*
X2345869D3*
X1945608D3*
X2012537D3*
X1612275D3*
X1679204D3*
X1787427Y2137939D3*
X1854356D3*
X1593656D3*
X1660586D3*
X2040582Y2128562D3*
X2107511D3*
X2768523Y2709649D3*
X2835452D3*
X2768523Y2784649D3*
X2835452D3*
D26*
X1781670Y1736273D3*
Y1803202D3*
X1856670Y1737897D3*
Y1804826D3*
X1631516Y1912767D3*
Y1845838D3*
D27*
X1339693Y2144189D3*
X1406622D3*
X678891Y1834752D3*
X611962D3*
X866622D3*
X933551D3*
X993953D3*
X1060882D3*
X806222D3*
X739293D3*
X484631D3*
X551561D3*
D26*
X1969181Y2125437D3*
Y2192366D3*
D134*
X2468798Y1094391D3*
Y1027462D3*
D27*
X822096Y2003485D3*
X889025D3*
X678361D3*
X745290D3*
D132*
X904244Y2376227D3*
X971173D3*
D27*
X1100192Y2003485D3*
X1167121D3*
D134*
X2412554Y1094205D3*
Y1027276D3*
D26*
X1562767Y1912767D3*
Y1845838D3*
D27*
X962706Y2003485D3*
X1029635D3*
X2662767Y887764D3*
X2595838D3*
X2339803Y875264D3*
X2272874D3*
X2012765Y875265D3*
X1945836D3*
X1681381Y875264D3*
X1614452D3*
D26*
X1912757Y2125265D3*
Y2192194D3*
D27*
X1783327Y2194016D3*
X1850256D3*
D26*
X1719007Y2125265D3*
Y2192194D3*
D27*
X1587755Y2194016D3*
X1654684D3*
D26*
X2172331Y2122311D3*
Y2189240D3*
D27*
X2041067Y2191068D3*
X2107996D3*
D26*
X1465089Y740011D3*
Y673082D3*
Y562781D3*
Y495852D3*
D132*
X1074087Y737540D3*
X1007158D3*
D26*
X1802625Y740011D3*
Y673082D3*
Y562781D3*
Y495852D3*
X2141988Y721259D3*
Y654330D3*
X2140160Y562781D3*
Y495852D3*
X2475485Y725298D3*
Y658369D3*
Y569032D3*
Y502103D3*
X1871382Y1089778D3*
Y1022849D3*
X1815126Y1089778D3*
Y1022849D3*
D27*
X2590893Y1212765D3*
X2657822D3*
X2590894Y1119019D3*
X2657823D3*
X2584643Y1025273D3*
X2651572D3*
X2540891Y2147139D3*
X2607820D3*
X2540893Y2075267D3*
X2607822D3*
X2541129Y1997302D3*
X2608058D3*
X2538448Y2523087D3*
X2605377D3*
D26*
X2663004Y1412862D3*
Y1345933D3*
D27*
X2394016Y2522141D3*
X2460945D3*
D132*
X878845Y681516D3*
X945775D3*
D45*
X1287765Y1756516D3*
Y2012516D3*
X1465765Y1756516D3*
Y2012516D3*
X1550265Y494016D3*
Y750016D3*
X1728265Y494016D3*
Y750016D3*
X1885683Y494016D3*
Y750016D3*
X2063683Y494016D3*
Y750016D3*
X2221099Y494016D3*
Y750016D3*
X2399099Y494016D3*
Y750016D3*
X2556516Y494016D3*
Y750016D3*
X2734516Y494016D3*
Y750016D3*
D49*
X1895000Y1562765D3*
Y1543080D3*
Y1523395D3*
Y1503710D3*
Y1484025D3*
Y1464340D3*
Y1444655D3*
Y1424970D3*
Y1405285D3*
Y1385600D3*
Y1365915D3*
Y1346230D3*
Y1326545D3*
Y1306860D3*
Y1287175D3*
Y1267490D3*
Y1247805D3*
Y1228120D3*
Y1208435D3*
Y1188750D3*
D50*
X1971772Y1111978D3*
X1991457D3*
X2011142D3*
X2030827D3*
X2050512D3*
X2070197D3*
X2089882D3*
X2109567D3*
X2129252D3*
X2148937D3*
X2168622D3*
X2188307D3*
X2207992D3*
X2227677D3*
X2247362D3*
X2267047D3*
X2286733D3*
X2306418D3*
X2326103D3*
X2345788D3*
D49*
X2422559Y1188750D3*
Y1208435D3*
Y1228120D3*
Y1247805D3*
Y1267490D3*
Y1287175D3*
Y1306860D3*
Y1326545D3*
Y1346230D3*
Y1365915D3*
Y1385600D3*
Y1405285D3*
Y1424970D3*
Y1444655D3*
Y1464340D3*
Y1484025D3*
Y1503710D3*
Y1523395D3*
Y1543080D3*
Y1562765D3*
D50*
X2345788Y1639537D3*
X2326103D3*
X2306418D3*
X2286733D3*
X2267047D3*
X2247362D3*
X2227677D3*
X2207992D3*
X2188307D3*
X2168622D3*
X2148937D3*
X2129252D3*
X2109567D3*
X2089882D3*
X2070197D3*
X2050512D3*
X2030827D3*
X2011142D3*
X1991457D3*
X1971772D3*
D144*
X825267Y2525264D3*
X787865D3*
X750464D3*
Y2422894D3*
X825267D3*
D98*
X742146Y2254622D3*
Y2234937D3*
Y2215252D3*
Y2195567D3*
Y2175882D3*
Y2156197D3*
Y2136512D3*
D96*
X781516Y2097142D3*
X801201D3*
X820886D3*
X840571D3*
X860256D3*
X879941D3*
X899626D3*
D98*
X938996Y2136512D3*
Y2156197D3*
Y2175882D3*
Y2195567D3*
Y2215252D3*
Y2234937D3*
Y2254622D3*
D96*
X899626Y2293992D3*
X879941D3*
X860256D3*
X840571D3*
X820886D3*
X801201D3*
X781516D3*
D94*
X840571Y2195567D3*
D92*
X544016Y994016D3*
X571575D3*
X599134D3*
X626693D3*
X654252D3*
X681811D3*
X709370D3*
X736929D3*
X764488D3*
X792047D3*
X819607D3*
X847166D3*
X874725D3*
X902284D3*
X929843D3*
X957402D3*
X984961D3*
X1012520D3*
X1040079D3*
X1067638D3*
X1095197D3*
X1122756D3*
X1150315D3*
X1177874D3*
X1205433D3*
X1232992D3*
X1260551D3*
X1288110D3*
X1315670D3*
X1343229D3*
D90*
X640891Y550265D3*
Y524675D3*
Y499084D3*
Y473494D3*
X869238D3*
Y499084D3*
Y524675D3*
Y550265D3*
D88*
X1300265Y594016D3*
X1280580D3*
X1260895D3*
X1241210D3*
X1221525D3*
D86*
X1211683Y564488D3*
Y544803D3*
Y525118D3*
D88*
X1241210Y495591D3*
X1260895D3*
X1280580D3*
X1300265D3*
D86*
X1310108Y525118D3*
Y544803D3*
Y564488D3*
D88*
X1221525Y495591D3*
D60*
X2590891Y2722137D3*
D61*
Y2822137D3*
X2490891Y2722137D3*
Y2822137D3*
X2390891Y2722137D3*
Y2822137D3*
D60*
X2290891Y2722137D3*
D61*
Y2822137D3*
D62*
X2065891Y2003391D3*
Y1953391D3*
Y1903391D3*
Y1853391D3*
X2278490D3*
Y1903391D3*
Y1953391D3*
Y2003391D3*
D128*
X1002629Y453393D3*
X1057747D3*
Y493156D3*
X1002629D3*
Y532920D3*
X1057747D3*
Y572684D3*
X1002629D3*
D64*
X1681381Y1466041D3*
Y1682576D3*
D78*
X1555397D3*
Y1466041D3*
D76*
X1584641Y1050269D3*
Y1240269D3*
M02*
