%TF.GenerationSoftware,Novarm,DipTrace,3.2.0.1*%
%TF.CreationDate,2018-02-19T16:07:59-08:00*%
%FSLAX26Y26*%
%MOIN*%
%TF.FileFunction,Legend,Top*%
%TF.Part,Single*%
%ADD10C,0.009843*%
%ADD17C,0.006*%
%ADD18C,0.008*%
%ADD25C,0.003937*%
%ADD29C,0.009433*%
%ADD31C,0.005*%
%ADD35C,0.009994*%
%ADD47C,0.000013*%
%ADD48C,0.015768*%
%ADD51C,0.011774*%
%ADD57C,0.015697*%
%ADD63C,0.015422*%
%ADD138C,0.003088*%
%ADD139C,0.006176*%
%ADD140C,0.004632*%
G75*
G01*
%LPD*%
X1385277Y2547140D2*
D10*
X866537D1*
Y2903390D1*
X1385277D1*
Y2547140D1*
X1272836Y2434639D1*
X866537Y2547140D2*
X979057Y2434639D1*
X1272836D2*
X979057D1*
X1808951Y1254301D2*
X1785328D1*
X1824698Y1317293D2*
D25*
X1769580D1*
Y1191309D1*
X1824698D1*
Y1317293D1*
X1738312Y1577622D2*
D10*
X1761935D1*
X1722565Y1514630D2*
D25*
X1777683D1*
Y1640614D1*
X1722565D1*
Y1514630D1*
X1486120Y1575404D2*
D10*
X1509744D1*
X1470373Y1512412D2*
D25*
X1525491D1*
Y1638397D1*
X1470373D1*
Y1512412D1*
X1716578Y1255607D2*
D10*
X1740202D1*
X1700831Y1192614D2*
D25*
X1755949D1*
Y1318599D1*
X1700831D1*
Y1192614D1*
X1803930Y1577622D2*
D10*
X1827554D1*
X1788183Y1514630D2*
D25*
X1843301D1*
Y1640614D1*
X1788183D1*
Y1514630D1*
X1740202Y1104301D2*
D10*
X1716578D1*
X1755949Y1167293D2*
D25*
X1700831D1*
Y1041309D1*
X1755949D1*
Y1167293D1*
X2016975Y1757335D2*
D10*
Y1780959D1*
X2079967Y1741588D2*
D25*
X1953983D1*
Y1796706D1*
X2079967D1*
Y1741588D1*
X1990145Y1043384D2*
D10*
Y1019761D1*
X1927152Y1059131D2*
D25*
X2053137D1*
Y1004013D1*
X1927152D1*
Y1059131D1*
X2519703Y1177478D2*
D10*
X2543326D1*
X2503956Y1114486D2*
D25*
X2559074D1*
Y1240470D1*
X2503956D1*
Y1114486D1*
X2194734Y1013652D2*
D10*
Y1037275D1*
X2257726Y997904D2*
D25*
X2131742D1*
Y1053023D1*
X2257726D1*
Y997904D1*
X2547829Y1552481D2*
D10*
X2571452D1*
X2532082Y1489488D2*
D25*
X2587200D1*
Y1615473D1*
X2532082D1*
Y1489488D1*
X1079258Y2278361D2*
D10*
X1039885D1*
X1095004Y2349227D2*
D25*
X1024138D1*
Y2207495D1*
X1095004D1*
Y2349227D1*
X2221042Y1777820D2*
D10*
Y1754196D1*
X2158050Y1793567D2*
D25*
X2284034D1*
Y1738449D1*
X2158050D1*
Y1793567D1*
X1172998Y2278361D2*
D10*
X1133625D1*
X1188744Y2349227D2*
D25*
X1117878D1*
Y2207495D1*
X1188744D1*
Y2349227D1*
X1260489Y2278361D2*
D10*
X1221115D1*
X1276235Y2349227D2*
D25*
X1205369D1*
Y2207495D1*
X1276235D1*
Y2349227D1*
X1347980Y2278361D2*
D10*
X1308606D1*
X1363726Y2349227D2*
D25*
X1292860D1*
Y2207495D1*
X1363726D1*
Y2349227D1*
X783096Y749351D2*
D10*
Y725728D1*
X720104Y765099D2*
D25*
X846088D1*
Y709981D1*
X720104D1*
Y765099D1*
X911860Y749351D2*
D10*
Y725728D1*
X848868Y765099D2*
D25*
X974852D1*
Y709981D1*
X848868D1*
Y765099D1*
X1169386Y749351D2*
D10*
Y725728D1*
X1106394Y765099D2*
D25*
X1232378D1*
Y709981D1*
X1106394D1*
Y765099D1*
X1298150Y749351D2*
D10*
Y725728D1*
X1235158Y765099D2*
D25*
X1361142D1*
Y709981D1*
X1235158D1*
Y765099D1*
X2194514Y2549395D2*
D10*
X2218138D1*
X2178767Y2486403D2*
D25*
X2233885D1*
Y2612387D1*
X2178767D1*
Y2486403D1*
X783475Y669030D2*
D10*
Y692653D1*
X846467Y653282D2*
D25*
X720483D1*
Y708401D1*
X846467D1*
Y653282D1*
X1388454Y710551D2*
D10*
X1412077D1*
X1372706Y647559D2*
D25*
X1427824D1*
Y773544D1*
X1372706D1*
Y647559D1*
X1298150Y669472D2*
D10*
Y693096D1*
X1361142Y653725D2*
D25*
X1235158D1*
Y708843D1*
X1361142D1*
Y653725D1*
X1889292Y1981516D2*
D10*
X1865669D1*
X1905040Y2044508D2*
D25*
X1849922D1*
Y1918524D1*
X1905040D1*
Y2044508D1*
X1169471Y693328D2*
D10*
Y669704D1*
X1106479Y709075D2*
D25*
X1232464D1*
Y653957D1*
X1106479D1*
Y709075D1*
X1040890Y693328D2*
D10*
Y669704D1*
X977898Y709075D2*
D25*
X1103882D1*
Y653957D1*
X977898D1*
Y709075D1*
X664522Y2445439D2*
D10*
X601531D1*
X664522Y2492682D2*
X601531D1*
D29*
X701530Y2469061D3*
X664522Y2345450D2*
D10*
X601531D1*
X664522Y2392693D2*
X601531D1*
D29*
X701530Y2369071D3*
X667740Y2649167D2*
D18*
Y2599169D1*
X607740D2*
Y2649167D1*
X534631Y2622185D2*
D10*
X434631D1*
X534631Y2422185D2*
Y2622185D1*
Y2422185D2*
X434631D1*
Y2622185D1*
D35*
X587033Y2229009D3*
X392149Y2317589D2*
D31*
Y1982944D1*
X1578350Y2415787D2*
D10*
Y2730828D1*
Y2866529D2*
Y2894028D1*
X2133339D2*
Y2862345D1*
Y2667461D2*
Y2506055D1*
Y2321334D2*
Y2305791D1*
X2090180D1*
X2014803Y2329105D2*
X1786851D1*
X1704180Y2305791D2*
X1613607D1*
X1706003Y2893430D2*
X1713906Y2874301D1*
Y2760121D1*
X2080454Y2893430D2*
Y2760121D1*
X1713906D2*
G03X2080454Y2755936I190683J646859D01*
G01*
X1706003Y2893430D2*
X1578350Y2894028D1*
X2080454D2*
X2133339D1*
X1043976Y1782765D2*
D18*
X1094056D1*
X1119016Y1757765D1*
Y1707765D2*
X1094056Y1682765D1*
X919016Y1757765D2*
X944056Y1782765D1*
X994056D1*
X1019016Y1757765D1*
Y1707765D2*
X994056Y1682765D1*
X944056D1*
X919016Y1707765D1*
X1043976Y1782765D2*
X1019016Y1757765D1*
Y1707765D2*
X1043976Y1682765D1*
X1094056D2*
X1043976D1*
X743976Y1782765D2*
X794056D1*
X819016Y1757765D1*
Y1707765D2*
X794056Y1682765D1*
X819016Y1757765D2*
X844056Y1782765D1*
X894056D1*
X919016Y1757765D1*
Y1707765D2*
X894056Y1682765D1*
X844056D1*
X819016Y1707765D1*
X619016Y1757765D2*
X644056Y1782765D1*
X694056D1*
X719016Y1757765D1*
Y1707765D2*
X694056Y1682765D1*
X644056D1*
X619016Y1707765D1*
X743976Y1782765D2*
X719016Y1757765D1*
Y1707765D2*
X743976Y1682765D1*
X794056D2*
X743976D1*
X443976Y1782765D2*
X494056D1*
X519016Y1757765D1*
Y1707765D2*
X494056Y1682765D1*
X519016Y1757765D2*
X544056Y1782765D1*
X594056D1*
X619016Y1757765D1*
Y1707765D2*
X594056Y1682765D1*
X544056D1*
X519016Y1707765D1*
X419016Y1757765D2*
Y1707765D1*
X443976Y1782765D2*
X419016Y1757765D1*
Y1707765D2*
X443976Y1682765D1*
X494056D2*
X443976D1*
X1144056Y1782765D2*
X1194056D1*
X1219016Y1757765D1*
Y1707765D1*
X1194056Y1682765D1*
X1144056Y1782765D2*
X1119016Y1757765D1*
Y1707765D2*
X1144056Y1682765D1*
X1194056D2*
X1144056D1*
X2794016Y713765D2*
D10*
Y2637765D1*
Y637765D2*
Y713765D1*
X2894016Y637765D2*
X2794016D1*
X2894016D2*
Y2637765D1*
X2794016D1*
X2894016Y713765D2*
Y2637765D1*
Y637765D2*
Y713765D1*
X2994016Y637765D2*
X2894016D1*
X2994016D2*
Y2637765D1*
X2894016D1*
X1748667Y1373978D2*
D17*
Y1397603D1*
X1795911Y1373978D2*
Y1397603D1*
X2182704Y2355196D2*
Y2378821D1*
X2229948Y2355196D2*
Y2378821D1*
X1304559Y2068019D2*
D10*
Y2099515D1*
X791756Y1906495D2*
Y1937991D1*
X648021Y1906495D2*
Y1937991D1*
X1072977Y1906495D2*
Y1937991D1*
X932366Y1906495D2*
Y1937991D1*
X2572559Y815768D2*
Y847264D1*
X2245475Y803268D2*
Y834764D1*
X1912143Y803268D2*
Y834764D1*
X1578810Y803268D2*
Y834764D1*
X1753962Y2122191D2*
Y2153687D1*
X1560192Y2122191D2*
Y2153687D1*
X2007117Y2112814D2*
Y2144310D1*
X2735058Y2693901D2*
Y2725397D1*
Y2768901D2*
Y2800397D1*
X1754110Y1706746D2*
D25*
X1809229D1*
Y1832730D1*
X1754110D1*
Y1706746D1*
X1769858Y1769738D2*
D10*
X1793481D1*
X1829110Y1708369D2*
D25*
X1884229D1*
Y1834353D1*
X1829110D1*
Y1708369D1*
X1844858Y1771361D2*
D10*
X1868481D1*
X1659075Y1942294D2*
D25*
X1603957D1*
Y1816310D1*
X1659075D1*
Y1942294D1*
X1643328Y1879302D2*
D10*
X1619704D1*
X1310166Y2171748D2*
D25*
X1436150D1*
Y2116630D1*
X1310166D1*
Y2171748D1*
X1373158Y2156001D2*
D10*
Y2132377D1*
X708419Y1807193D2*
D25*
X582435D1*
Y1862311D1*
X708419D1*
Y1807193D1*
X645427Y1822940D2*
D10*
Y1846564D1*
X837095Y1862311D2*
D25*
X963079D1*
Y1807193D1*
X837095D1*
Y1862311D1*
X900087Y1846564D2*
D10*
Y1822940D1*
X964425Y1862311D2*
D25*
X1090410D1*
Y1807193D1*
X964425D1*
Y1862311D1*
X1027418Y1846564D2*
D10*
Y1822940D1*
X835750Y1807193D2*
D25*
X709765D1*
Y1862311D1*
X835750D1*
Y1807193D1*
X772757Y1822940D2*
D10*
Y1846564D1*
X455104Y1862311D2*
D25*
X581088D1*
Y1807193D1*
X455104D1*
Y1862311D1*
X518096Y1846564D2*
D10*
Y1822940D1*
X1941622Y2095910D2*
D25*
X1996740D1*
Y2221894D1*
X1941622D1*
Y2095910D1*
X1957370Y2158902D2*
D10*
X1980993D1*
X2496357Y1123919D2*
D25*
X2441239D1*
Y997935D1*
X2496357D1*
Y1123919D1*
X2480610Y1060927D2*
D10*
X2456986D1*
X792568Y2031044D2*
D25*
X918553D1*
Y1975925D1*
X792568D1*
Y2031044D1*
X855561Y2015296D2*
D10*
Y1991673D1*
X648834Y2031044D2*
D25*
X774818D1*
Y1975925D1*
X648834D1*
Y2031044D1*
X711826Y2015296D2*
D10*
Y1991673D1*
X874717Y2403786D2*
D25*
X1000701D1*
Y2348668D1*
X874717D1*
Y2403786D1*
X937709Y2388039D2*
D10*
Y2364415D1*
X1070664Y2031044D2*
D25*
X1196649D1*
Y1975925D1*
X1070664D1*
Y2031044D1*
X1133656Y2015296D2*
D10*
Y1991673D1*
X2440113Y1123733D2*
D25*
X2384995D1*
Y997748D1*
X2440113D1*
Y1123733D1*
X2424366Y1060740D2*
D10*
X2400742D1*
X1590326Y1942294D2*
D25*
X1535208D1*
Y1816310D1*
X1590326D1*
Y1942294D1*
X1574578Y1879302D2*
D10*
X1550955D1*
X933179Y2031044D2*
D25*
X1059163D1*
Y1975925D1*
X933179D1*
Y2031044D1*
X996171Y2015296D2*
D10*
Y1991673D1*
X2692294Y860205D2*
D25*
X2566310D1*
Y915323D1*
X2692294D1*
Y860205D1*
X2629302Y875952D2*
D10*
Y899576D1*
X2369331Y847705D2*
D25*
X2243347D1*
Y902823D1*
X2369331D1*
Y847705D1*
X2306339Y863452D2*
D10*
Y887076D1*
X2042293Y847706D2*
D25*
X1916309D1*
Y902824D1*
X2042293D1*
Y847706D1*
X1979301Y863454D2*
D10*
Y887077D1*
X1710908Y847705D2*
D25*
X1584924D1*
Y902823D1*
X1710908D1*
Y847705D1*
X1647916Y863452D2*
D10*
Y887076D1*
X1885198Y2095738D2*
D25*
X1940317D1*
Y2221722D1*
X1885198D1*
Y2095738D1*
X1900946Y2158730D2*
D10*
X1924569D1*
X1753799Y2221575D2*
D25*
X1879784D1*
Y2166457D1*
X1753799D1*
Y2221575D1*
X1816792Y2205828D2*
D10*
Y2182204D1*
X1691448Y2095738D2*
D25*
X1746566D1*
Y2221722D1*
X1691448D1*
Y2095738D1*
X1707195Y2158730D2*
D10*
X1730819D1*
X1558227Y2221575D2*
D25*
X1684212D1*
Y2166457D1*
X1558227D1*
Y2221575D1*
X1621219Y2205828D2*
D10*
Y2182204D1*
X2144772Y2092784D2*
D25*
X2199890D1*
Y2218768D1*
X2144772D1*
Y2092784D1*
X2160519Y2155776D2*
D10*
X2184143D1*
X2011540Y2218628D2*
D25*
X2137524D1*
Y2163509D1*
X2011540D1*
Y2218628D1*
X2074532Y2202880D2*
D10*
Y2179257D1*
X1492649Y769538D2*
D25*
X1437530D1*
Y643554D1*
X1492649D1*
Y769538D1*
X1476901Y706546D2*
D10*
X1453278D1*
X1492649Y592309D2*
D25*
X1437530D1*
Y466324D1*
X1492649D1*
Y592309D1*
X1476901Y529317D2*
D10*
X1453278D1*
X1103614Y709981D2*
D25*
X977630D1*
Y765099D1*
X1103614D1*
Y709981D1*
X1040622Y725728D2*
D10*
Y749351D1*
X1830184Y769538D2*
D25*
X1775066D1*
Y643554D1*
X1830184D1*
Y769538D1*
X1814437Y706546D2*
D10*
X1790813D1*
X1830184Y592309D2*
D25*
X1775066D1*
Y466324D1*
X1830184D1*
Y592309D1*
X1814437Y529317D2*
D10*
X1790813D1*
X2169547Y750786D2*
D25*
X2114429D1*
Y624802D1*
X2169547D1*
Y750786D1*
X2153800Y687794D2*
D10*
X2130177D1*
X2167719Y592309D2*
D25*
X2112601D1*
Y466324D1*
X2167719D1*
Y592309D1*
X2151972Y529317D2*
D10*
X2128349D1*
X2503044Y754826D2*
D25*
X2447925D1*
Y628841D1*
X2503044D1*
Y754826D1*
X2487296Y691834D2*
D10*
X2463673D1*
X2503044Y598559D2*
D25*
X2447925D1*
Y472575D1*
X2503044D1*
Y598559D1*
X2487296Y535567D2*
D10*
X2463673D1*
X1898941Y1119306D2*
D25*
X1843823D1*
Y993322D1*
X1898941D1*
Y1119306D1*
X1883194Y1056314D2*
D10*
X1859570D1*
X1842685Y1119306D2*
D25*
X1787567D1*
Y993322D1*
X1842685D1*
Y1119306D1*
X1826938Y1056314D2*
D10*
X1803314D1*
X2561365Y1240324D2*
D25*
X2687349D1*
Y1185206D1*
X2561365D1*
Y1240324D1*
X2624357Y1224577D2*
D10*
Y1200954D1*
X2561366Y1146578D2*
D25*
X2687351D1*
Y1091460D1*
X2561366D1*
Y1146578D1*
X2624359Y1130830D2*
D10*
Y1107207D1*
X2555116Y1052832D2*
D25*
X2681100D1*
Y997714D1*
X2555116D1*
Y1052832D1*
X2618108Y1037085D2*
D10*
Y1013461D1*
X2511364Y2174698D2*
D25*
X2637348D1*
Y2119580D1*
X2511364D1*
Y2174698D1*
X2574356Y2158951D2*
D10*
Y2135328D1*
X2511365Y2102826D2*
D25*
X2637349D1*
Y2047708D1*
X2511365D1*
Y2102826D1*
X2574357Y2087078D2*
D10*
Y2063455D1*
X2511601Y2024861D2*
D25*
X2637586D1*
Y1969743D1*
X2511601D1*
Y2024861D1*
X2574593Y2009114D2*
D10*
Y1985490D1*
X2508920Y2550646D2*
D25*
X2634904D1*
Y2495528D1*
X2508920D1*
Y2550646D1*
X2571912Y2534899D2*
D10*
Y2511275D1*
X2690563Y1442390D2*
D25*
X2635445D1*
Y1316406D1*
X2690563D1*
Y1442390D1*
X2674816Y1379398D2*
D10*
X2651192D1*
X2364488Y2549700D2*
D25*
X2490473D1*
Y2494582D1*
X2364488D1*
Y2549700D1*
X2427481Y2533952D2*
D10*
Y2510329D1*
X849318Y709075D2*
D25*
X975302D1*
Y653957D1*
X849318D1*
Y709075D1*
X912310Y693328D2*
D10*
Y669704D1*
X1306760Y1884516D2*
D47*
G02X1306760Y1884516I70006J0D01*
G01*
X1256763Y1969524D2*
D18*
Y1799508D1*
X1496768D2*
Y1969524D1*
X1337479Y2004504D2*
X1416758D1*
X1336294Y1764528D2*
X1416758D1*
X1569260Y622016D2*
D47*
G02X1569260Y622016I70006J0D01*
G01*
X1519263Y707024D2*
D18*
Y537008D1*
X1759268D2*
Y707024D1*
X1599979Y742004D2*
X1679258D1*
X1598794Y502028D2*
X1679258D1*
X1904677Y622016D2*
D47*
G02X1904677Y622016I70006J0D01*
G01*
X1854680Y707024D2*
D18*
Y537008D1*
X2094685D2*
Y707024D1*
X1935396Y742004D2*
X2014675D1*
X1934211Y502028D2*
X2014675D1*
X2240093Y622016D2*
D47*
G02X2240093Y622016I70006J0D01*
G01*
X2190096Y707024D2*
D18*
Y537008D1*
X2430101D2*
Y707024D1*
X2270812Y742004D2*
X2350091D1*
X2269627Y502028D2*
X2350091D1*
X2575510Y622016D2*
D47*
G02X2575510Y622016I70006J0D01*
G01*
X2525514Y707024D2*
D18*
Y537008D1*
X2765518D2*
Y707024D1*
X2606229Y742004D2*
X2685508D1*
X2605045Y502028D2*
X2685508D1*
X1942225Y1592313D2*
D10*
X2375335D1*
Y1159202D1*
X1942225D1*
Y1592313D1*
G36*
D2*
Y1552923D1*
X1981614Y1592313D1*
X1942225D1*
G37*
D48*
X1895010D3*
X845868Y2514078D2*
D47*
G02X845868Y2514078I4999J0D01*
G01*
X737869Y2457173D2*
D18*
Y2490985D1*
X837865D2*
Y2457173D1*
X798430Y2446176D2*
X777303D1*
X919337Y2294004D2*
D10*
X939001D1*
Y2274312D1*
X919337Y2097131D2*
X939001D1*
Y2116822D2*
Y2097131D1*
X742181D2*
X761871D1*
X742181Y2116822D2*
Y2097131D1*
D51*
X712697Y2254631D3*
X761871Y2294004D2*
D10*
X742181Y2274312D1*
X510425Y939579D2*
Y1033367D1*
X1376809Y933255D2*
Y1033285D1*
X401103Y804646D2*
X1452284D1*
Y1625906D1*
X401103D1*
Y804646D1*
X402154Y867472D2*
X1452179D1*
X692080Y570935D2*
Y452824D1*
X818049Y570935D2*
Y452824D1*
X692080D2*
X818049D1*
X692080Y570935D2*
X735376D1*
X774753D2*
X818049D1*
X735376D2*
G03X774753Y570935I19688J-13D01*
G01*
D57*
X1300279Y623693D3*
X2730891Y2872137D2*
D31*
Y2122137D1*
Y1872137D1*
X2150891D1*
Y2122137D1*
Y2872137D1*
X2265905D1*
X2315901D1*
X2365897D1*
X2415893D1*
X2465889D1*
X2515885D1*
X2565881D1*
X2615877D1*
X2730891D1*
Y2122137D2*
X2150891D1*
X2615877Y2872137D2*
X2640875Y2847137D1*
Y2797137D1*
X2615877Y2772137D1*
X2640875Y2747137D1*
Y2697137D1*
X2615877Y2672137D1*
X2565881D1*
X2540883Y2697137D1*
X2515885Y2672137D1*
X2465889D1*
X2440891Y2697137D1*
X2415893Y2672137D1*
X2365897D1*
X2340899Y2697137D1*
X2315901Y2672137D1*
X2265905D1*
X2240907Y2697137D1*
Y2747137D1*
X2265905Y2772137D1*
X2240907Y2797137D1*
Y2847137D1*
X2265905Y2872137D1*
X2315901D2*
X2340899Y2847137D1*
X2365897Y2872137D1*
X2415893D2*
X2440891Y2847137D1*
X2465889Y2872137D1*
X2515885D2*
X2540883Y2847137D1*
X2565881Y2872137D1*
X2121002Y2026818D2*
D10*
Y1829964D1*
X2223379Y2026818D2*
Y1829964D1*
X2121002D2*
X2223379D1*
X2152496Y2026818D2*
X2121002D1*
X2191885D2*
X2223379D1*
X2152496D2*
G03X2191885Y2026818I19694J9D01*
G01*
X982944Y590965D2*
D25*
X1077432D1*
Y436332D1*
X982944D1*
Y590965D1*
D63*
X1711615Y1415260D3*
X1685401Y1731868D2*
D10*
Y1745568D1*
X1551436Y1731868D2*
Y1745568D1*
X1685401D2*
X1551436D1*
X1685401Y1515395D2*
Y1633222D1*
X1551436Y1515395D2*
Y1633222D1*
Y1403049D2*
Y1416750D1*
X1685401Y1403049D2*
Y1416750D1*
Y1403049D2*
X1551436D1*
X1677515Y1005605D2*
Y1284934D1*
X1491767Y1005605D2*
Y1284934D1*
Y1005605D2*
G03X1677515Y1005605I92874J8216D01*
G01*
Y1284934D2*
G03X1491767Y1284934I-92874J-8216D01*
G01*
X1340705Y531755D2*
D18*
X1371983Y531801D1*
X1340705Y531755D2*
X1353205Y544255D1*
X1340705Y531755D2*
X1353205Y519256D1*
X1356330Y563004D2*
Y597380D1*
X1343828Y581755D1*
X1356330Y597380D2*
X1368830Y581755D1*
X1340802Y484908D2*
G02X1340802Y484908I15627J0D01*
G01*
X1353305Y484909D2*
G02X1353305Y484909I3125J0D01*
G01*
X1083838Y2417108D2*
D138*
Y2397012D1*
X1092460D1*
X1095334Y2397985D1*
X1096285Y2398936D1*
X1097235Y2400837D1*
Y2403711D1*
X1096285Y2405634D1*
X1095334Y2406585D1*
X1092460Y2407536D1*
X1095334Y2408508D1*
X1096285Y2409459D1*
X1097235Y2411360D1*
Y2413284D1*
X1096285Y2415185D1*
X1095334Y2416158D1*
X1092460Y2417108D1*
X1083838D1*
Y2407536D2*
X1092460D1*
X1118732Y2397012D2*
X1111060Y2417108D1*
X1103411Y2397012D1*
X1106285Y2403711D2*
X1115858D1*
X1131606Y2417108D2*
Y2397012D1*
X1124908Y2417108D2*
X1138305D1*
X1144481Y2413262D2*
X1146404Y2414234D1*
X1149278Y2417086D1*
Y2397012D1*
X1841376Y1250213D2*
X1839475Y1249262D1*
X1837551Y1247339D1*
X1836601Y1245437D1*
Y1241613D1*
X1837551Y1239689D1*
X1839475Y1237788D1*
X1841376Y1236815D1*
X1844250Y1235865D1*
X1849047D1*
X1851899Y1236815D1*
X1853823Y1237788D1*
X1855724Y1239689D1*
X1856697Y1241613D1*
Y1245437D1*
X1855724Y1247339D1*
X1853823Y1249262D1*
X1851899Y1250213D1*
X1840448Y1256388D2*
X1839475Y1258312D1*
X1836623Y1261186D1*
X1856697D1*
X1746577Y1669369D2*
X1745626Y1671270D1*
X1743703Y1673193D1*
X1741801Y1674144D1*
X1737977D1*
X1736053Y1673193D1*
X1734152Y1671270D1*
X1733179Y1669369D1*
X1732229Y1666495D1*
Y1661697D1*
X1733179Y1658845D1*
X1734152Y1656922D1*
X1736053Y1655021D1*
X1737977Y1654048D1*
X1741801D1*
X1743703Y1655021D1*
X1745626Y1656922D1*
X1746577Y1658845D1*
X1753725Y1669346D2*
Y1670297D1*
X1754676Y1672220D1*
X1755626Y1673171D1*
X1757550Y1674122D1*
X1761374D1*
X1763276Y1673171D1*
X1764226Y1672220D1*
X1765199Y1670297D1*
Y1668396D1*
X1764226Y1666472D1*
X1762325Y1663620D1*
X1752752Y1654048D1*
X1766150D1*
X1491260Y1664027D2*
X1490310Y1665929D1*
X1488386Y1667852D1*
X1486485Y1668803D1*
X1482660D1*
X1480737Y1667852D1*
X1478836Y1665929D1*
X1477863Y1664027D1*
X1476912Y1661153D1*
Y1656356D1*
X1477863Y1653504D1*
X1478836Y1651581D1*
X1480737Y1649679D1*
X1482660Y1648707D1*
X1486485D1*
X1488386Y1649679D1*
X1490310Y1651581D1*
X1491260Y1653504D1*
X1499360Y1668780D2*
X1509861D1*
X1504135Y1661131D1*
X1507009D1*
X1508910Y1660181D1*
X1509861Y1659230D1*
X1510833Y1656356D1*
Y1654455D1*
X1509861Y1651581D1*
X1507959Y1649657D1*
X1505085Y1648707D1*
X1502211D1*
X1499360Y1649657D1*
X1498409Y1650630D1*
X1497436Y1652531D1*
X1716496Y1348876D2*
X1715546Y1350778D1*
X1713622Y1352701D1*
X1711721Y1353652D1*
X1707896D1*
X1705973Y1352701D1*
X1704072Y1350778D1*
X1703099Y1348876D1*
X1702148Y1346002D1*
Y1341205D1*
X1703099Y1338353D1*
X1704072Y1336430D1*
X1705973Y1334528D1*
X1707896Y1333556D1*
X1711721D1*
X1713622Y1334528D1*
X1715546Y1336430D1*
X1716496Y1338353D1*
X1732245Y1333556D2*
Y1353630D1*
X1722672Y1340254D1*
X1737020D1*
X1812195Y1669386D2*
X1811244Y1671287D1*
X1809321Y1673210D1*
X1807420Y1674161D1*
X1803595D1*
X1801671Y1673210D1*
X1799770Y1671287D1*
X1798797Y1669386D1*
X1797847Y1666512D1*
Y1661714D1*
X1798797Y1658862D1*
X1799770Y1656939D1*
X1801671Y1655038D1*
X1803595Y1654065D1*
X1807420D1*
X1809321Y1655038D1*
X1811244Y1656939D1*
X1812195Y1658862D1*
X1829844Y1674139D2*
X1820294D1*
X1819343Y1665539D1*
X1820294Y1666489D1*
X1823168Y1667462D1*
X1826020D1*
X1828894Y1666489D1*
X1830817Y1664588D1*
X1831768Y1661714D1*
Y1659813D1*
X1830817Y1656939D1*
X1828894Y1655016D1*
X1826020Y1654065D1*
X1823168D1*
X1820294Y1655016D1*
X1819343Y1655988D1*
X1818371Y1657890D1*
X1723709Y1025715D2*
X1722758Y1027616D1*
X1720835Y1029540D1*
X1718933Y1030490D1*
X1715109D1*
X1713185Y1029540D1*
X1711284Y1027616D1*
X1710311Y1025715D1*
X1709361Y1022841D1*
Y1018044D1*
X1710311Y1015192D1*
X1711284Y1013268D1*
X1713185Y1011367D1*
X1715109Y1010394D1*
X1718933D1*
X1720835Y1011367D1*
X1722758Y1013268D1*
X1723709Y1015192D1*
X1741358Y1027616D2*
X1740408Y1029518D1*
X1737534Y1030468D1*
X1735632D1*
X1732758Y1029518D1*
X1730835Y1026644D1*
X1729884Y1021868D1*
Y1017093D1*
X1730835Y1013268D1*
X1732758Y1011345D1*
X1735632Y1010394D1*
X1736583D1*
X1739435Y1011345D1*
X1741358Y1013268D1*
X1742309Y1016142D1*
Y1017093D1*
X1741358Y1019967D1*
X1739435Y1021868D1*
X1736583Y1022819D1*
X1735632D1*
X1732758Y1021868D1*
X1730835Y1019967D1*
X1729884Y1017093D1*
X2014380Y1821212D2*
X2013429Y1823114D1*
X2011506Y1825037D1*
X2009605Y1825988D1*
X2005780D1*
X2003857Y1825037D1*
X2001955Y1823114D1*
X2000983Y1821212D1*
X2000032Y1818338D1*
Y1813541D1*
X2000983Y1810689D1*
X2001955Y1808766D1*
X2003857Y1806864D1*
X2005780Y1805892D1*
X2009605D1*
X2011506Y1806864D1*
X2013429Y1808766D1*
X2014380Y1810689D1*
X2024380Y1805892D2*
X2033953Y1825966D1*
X2020556D1*
X2078176Y1033643D2*
X2077225Y1035544D1*
X2075302Y1037467D1*
X2073400Y1038418D1*
X2069576D1*
X2067652Y1037467D1*
X2065751Y1035544D1*
X2064778Y1033643D1*
X2063828Y1030769D1*
Y1025971D1*
X2064778Y1023119D1*
X2065751Y1021196D1*
X2067652Y1019295D1*
X2069576Y1018322D1*
X2073400D1*
X2075302Y1019295D1*
X2077225Y1021196D1*
X2078176Y1023119D1*
X2089127Y1038396D2*
X2086275Y1037445D1*
X2085302Y1035544D1*
Y1033621D1*
X2086275Y1031719D1*
X2088176Y1030747D1*
X2092001Y1029796D1*
X2094875Y1028845D1*
X2096776Y1026922D1*
X2097727Y1025021D1*
Y1022147D1*
X2096776Y1020245D1*
X2095825Y1019273D1*
X2092951Y1018322D1*
X2089127D1*
X2086275Y1019273D1*
X2085302Y1020245D1*
X2084351Y1022147D1*
Y1025021D1*
X2085302Y1026922D1*
X2087225Y1028845D1*
X2090077Y1029796D1*
X2093902Y1030747D1*
X2095825Y1031719D1*
X2096776Y1033621D1*
Y1035544D1*
X2095825Y1037445D1*
X2092951Y1038396D1*
X2089127D1*
X2529395Y1268101D2*
X2528444Y1270002D1*
X2526521Y1271925D1*
X2524619Y1272876D1*
X2520795D1*
X2518871Y1271925D1*
X2516970Y1270002D1*
X2515997Y1268101D1*
X2515047Y1265227D1*
Y1260429D1*
X2515997Y1257577D1*
X2516970Y1255654D1*
X2518871Y1253753D1*
X2520795Y1252780D1*
X2524619D1*
X2526521Y1253753D1*
X2528444Y1255654D1*
X2529395Y1257577D1*
X2548017Y1266177D2*
X2547044Y1263303D1*
X2545143Y1261380D1*
X2542269Y1260429D1*
X2541318D1*
X2538444Y1261380D1*
X2536543Y1263303D1*
X2535570Y1266177D1*
Y1267128D1*
X2536543Y1270002D1*
X2538444Y1271903D1*
X2541318Y1272854D1*
X2542269D1*
X2545143Y1271903D1*
X2547044Y1270002D1*
X2548017Y1266177D1*
Y1261380D1*
X2547044Y1256605D1*
X2545143Y1253731D1*
X2542269Y1252780D1*
X2540368D1*
X2537494Y1253731D1*
X2536543Y1255654D1*
X2274143Y1030659D2*
X2273192Y1032560D1*
X2271269Y1034483D1*
X2269367Y1035434D1*
X2265543D1*
X2263619Y1034483D1*
X2261718Y1032560D1*
X2260745Y1030659D1*
X2259795Y1027785D1*
Y1022987D1*
X2260745Y1020135D1*
X2261718Y1018212D1*
X2263619Y1016311D1*
X2265543Y1015338D1*
X2269367D1*
X2271269Y1016311D1*
X2273192Y1018212D1*
X2274143Y1020135D1*
X2280318Y1031587D2*
X2282242Y1032560D1*
X2285116Y1035412D1*
Y1015338D1*
X2297039Y1035412D2*
X2294165Y1034461D1*
X2292242Y1031587D1*
X2291291Y1026812D1*
Y1023938D1*
X2292242Y1019162D1*
X2294165Y1016288D1*
X2297039Y1015338D1*
X2298941D1*
X2301815Y1016288D1*
X2303716Y1019162D1*
X2304689Y1023938D1*
Y1026812D1*
X2303716Y1031587D1*
X2301815Y1034461D1*
X2298941Y1035412D1*
X2297039D1*
X2303716Y1031587D2*
X2292242Y1019162D1*
X2556405Y1639513D2*
X2555454Y1641414D1*
X2553531Y1643338D1*
X2551629Y1644288D1*
X2547805D1*
X2545881Y1643338D1*
X2543980Y1641414D1*
X2543007Y1639513D1*
X2542057Y1636639D1*
Y1631841D1*
X2543007Y1628990D1*
X2543980Y1627066D1*
X2545881Y1625165D1*
X2547805Y1624192D1*
X2551629D1*
X2553531Y1625165D1*
X2555454Y1627066D1*
X2556405Y1628990D1*
X2562580Y1640441D2*
X2564504Y1641414D1*
X2567378Y1644266D1*
Y1624192D1*
X2573553Y1640441D2*
X2575477Y1641414D1*
X2578351Y1644266D1*
Y1624192D1*
X1051456Y2373695D2*
X1050506Y2375597D1*
X1048582Y2377520D1*
X1046681Y2378471D1*
X1042856D1*
X1040933Y2377520D1*
X1039032Y2375597D1*
X1038059Y2373695D1*
X1037108Y2370821D1*
Y2366024D1*
X1038059Y2363172D1*
X1039032Y2361249D1*
X1040933Y2359347D1*
X1042856Y2358375D1*
X1046681D1*
X1048582Y2359347D1*
X1050506Y2361249D1*
X1051456Y2363172D1*
X1057632Y2374624D2*
X1059555Y2375597D1*
X1062429Y2378448D1*
Y2358375D1*
X1069578Y2373673D2*
Y2374624D1*
X1070528Y2376547D1*
X1071479Y2377498D1*
X1073402Y2378448D1*
X1077227D1*
X1079128Y2377498D1*
X1080079Y2376547D1*
X1081052Y2374624D1*
Y2372723D1*
X1080079Y2370799D1*
X1078178Y2367947D1*
X1068605Y2358375D1*
X1082002D1*
X2212951Y1814953D2*
X2212000Y1816854D1*
X2210077Y1818777D1*
X2208176Y1819728D1*
X2204351D1*
X2202428Y1818777D1*
X2200526Y1816854D1*
X2199554Y1814953D1*
X2198603Y1812078D1*
Y1807281D1*
X2199554Y1804429D1*
X2200526Y1802506D1*
X2202428Y1800605D1*
X2204351Y1799632D1*
X2208176D1*
X2210077Y1800605D1*
X2212000Y1802506D1*
X2212951Y1804429D1*
X2219127Y1815881D2*
X2221050Y1816854D1*
X2223924Y1819706D1*
Y1799632D1*
X2232023Y1819706D2*
X2242524D1*
X2236799Y1812056D1*
X2239673D1*
X2241574Y1811106D1*
X2242524Y1810155D1*
X2243497Y1807281D1*
Y1805380D1*
X2242524Y1802506D1*
X2240623Y1800582D1*
X2237749Y1799632D1*
X2234875D1*
X2232023Y1800582D1*
X2231073Y1801555D1*
X2230100Y1803456D1*
X1141596Y2373695D2*
X1140646Y2375597D1*
X1138722Y2377520D1*
X1136821Y2378471D1*
X1132997D1*
X1131073Y2377520D1*
X1129172Y2375597D1*
X1128199Y2373695D1*
X1127248Y2370821D1*
Y2366024D1*
X1128199Y2363172D1*
X1129172Y2361249D1*
X1131073Y2359347D1*
X1132997Y2358375D1*
X1136821D1*
X1138722Y2359347D1*
X1140646Y2361249D1*
X1141596Y2363172D1*
X1147772Y2374624D2*
X1149696Y2375597D1*
X1152570Y2378448D1*
Y2358375D1*
X1168318D2*
Y2378448D1*
X1158745Y2365073D1*
X1173093D1*
X1232703Y2373741D2*
X1231752Y2375643D1*
X1229829Y2377566D1*
X1227928Y2378517D1*
X1224103D1*
X1222180Y2377566D1*
X1220278Y2375643D1*
X1219306Y2373741D1*
X1218355Y2370867D1*
Y2366070D1*
X1219306Y2363218D1*
X1220278Y2361295D1*
X1222180Y2359393D1*
X1224103Y2358421D1*
X1227928D1*
X1229829Y2359393D1*
X1231752Y2361295D1*
X1232703Y2363218D1*
X1238879Y2374670D2*
X1240802Y2375643D1*
X1243676Y2378494D1*
Y2358421D1*
X1261326Y2378494D2*
X1251775D1*
X1250825Y2369894D1*
X1251775Y2370845D1*
X1254649Y2371818D1*
X1257501D1*
X1260375Y2370845D1*
X1262299Y2368944D1*
X1263249Y2366070D1*
Y2364169D1*
X1262299Y2361295D1*
X1260375Y2359371D1*
X1257501Y2358421D1*
X1254649D1*
X1251775Y2359371D1*
X1250825Y2360344D1*
X1249852Y2362245D1*
X1320680Y2373741D2*
X1319730Y2375643D1*
X1317806Y2377566D1*
X1315905Y2378517D1*
X1312080D1*
X1310157Y2377566D1*
X1308256Y2375643D1*
X1307283Y2373741D1*
X1306332Y2370867D1*
Y2366070D1*
X1307283Y2363218D1*
X1308256Y2361295D1*
X1310157Y2359393D1*
X1312080Y2358421D1*
X1315905D1*
X1317806Y2359393D1*
X1319730Y2361295D1*
X1320680Y2363218D1*
X1326856Y2374670D2*
X1328779Y2375643D1*
X1331653Y2378494D1*
Y2358421D1*
X1349303Y2375643D2*
X1348352Y2377544D1*
X1345478Y2378494D1*
X1343577D1*
X1340703Y2377544D1*
X1338780Y2374670D1*
X1337829Y2369894D1*
Y2365119D1*
X1338780Y2361295D1*
X1340703Y2359371D1*
X1343577Y2358421D1*
X1344528D1*
X1347380Y2359371D1*
X1349303Y2361295D1*
X1350254Y2364169D1*
Y2365119D1*
X1349303Y2367993D1*
X1347380Y2369894D1*
X1344528Y2370845D1*
X1343577D1*
X1340703Y2369894D1*
X1338780Y2367993D1*
X1337829Y2365119D1*
X774997Y789613D2*
X774046Y791514D1*
X772123Y793437D1*
X770222Y794388D1*
X766397D1*
X764474Y793437D1*
X762572Y791514D1*
X761600Y789613D1*
X760649Y786739D1*
Y781941D1*
X761600Y779089D1*
X762572Y777166D1*
X764474Y775265D1*
X766397Y774292D1*
X770222D1*
X772123Y775265D1*
X774046Y777166D1*
X774997Y779089D1*
X781173Y790541D2*
X783096Y791514D1*
X785970Y794366D1*
Y774292D1*
X795970D2*
X805543Y794366D1*
X792146D1*
X903772Y789613D2*
X902821Y791514D1*
X900898Y793437D1*
X898997Y794388D1*
X895172D1*
X893248Y793437D1*
X891347Y791514D1*
X890374Y789613D1*
X889424Y786739D1*
Y781941D1*
X890374Y779089D1*
X891347Y777166D1*
X893248Y775265D1*
X895172Y774292D1*
X898997D1*
X900898Y775265D1*
X902821Y777166D1*
X903772Y779089D1*
X909948Y790541D2*
X911871Y791514D1*
X914745Y794366D1*
Y774292D1*
X925696Y794366D2*
X922844Y793415D1*
X921871Y791514D1*
Y789591D1*
X922844Y787689D1*
X924745Y786716D1*
X928570Y785766D1*
X931444Y784815D1*
X933345Y782892D1*
X934296Y780991D1*
Y778117D1*
X933345Y776215D1*
X932395Y775243D1*
X929521Y774292D1*
X925696D1*
X922844Y775243D1*
X921871Y776215D1*
X920921Y778117D1*
Y780991D1*
X921871Y782892D1*
X923795Y784815D1*
X926647Y785766D1*
X930471Y786716D1*
X932395Y787689D1*
X933345Y789591D1*
Y791514D1*
X932395Y793415D1*
X929521Y794366D1*
X925696D1*
X1161762Y789613D2*
X1160812Y791514D1*
X1158888Y793437D1*
X1156987Y794388D1*
X1153162D1*
X1151239Y793437D1*
X1149338Y791514D1*
X1148365Y789613D1*
X1147414Y786739D1*
Y781941D1*
X1148365Y779089D1*
X1149338Y777166D1*
X1151239Y775265D1*
X1153162Y774292D1*
X1156987D1*
X1158888Y775265D1*
X1160812Y777166D1*
X1161762Y779089D1*
X1167938Y790541D2*
X1169861Y791514D1*
X1172735Y794366D1*
Y774292D1*
X1191358Y787689D2*
X1190385Y784815D1*
X1188484Y782892D1*
X1185610Y781941D1*
X1184659D1*
X1181785Y782892D1*
X1179884Y784815D1*
X1178911Y787689D1*
Y788640D1*
X1179884Y791514D1*
X1181785Y793415D1*
X1184659Y794366D1*
X1185610D1*
X1188484Y793415D1*
X1190385Y791514D1*
X1191358Y787689D1*
Y782892D1*
X1190385Y778117D1*
X1188484Y775243D1*
X1185610Y774292D1*
X1183709D1*
X1180834Y775243D1*
X1179884Y777166D1*
X1285751Y789613D2*
X1284800Y791514D1*
X1282877Y793437D1*
X1280976Y794388D1*
X1277151D1*
X1275227Y793437D1*
X1273326Y791514D1*
X1272353Y789613D1*
X1271403Y786739D1*
Y781941D1*
X1272353Y779089D1*
X1273326Y777166D1*
X1275227Y775265D1*
X1277151Y774292D1*
X1280976D1*
X1282877Y775265D1*
X1284800Y777166D1*
X1285751Y779089D1*
X1292899Y789591D2*
Y790541D1*
X1293850Y792465D1*
X1294801Y793415D1*
X1296724Y794366D1*
X1300549D1*
X1302450Y793415D1*
X1303400Y792465D1*
X1304373Y790541D1*
Y788640D1*
X1303400Y786716D1*
X1301499Y783865D1*
X1291927Y774292D1*
X1305324D1*
X1317248Y794366D2*
X1314374Y793415D1*
X1312450Y790541D1*
X1311500Y785766D1*
Y782892D1*
X1312450Y778117D1*
X1314374Y775243D1*
X1317248Y774292D1*
X1319149D1*
X1322023Y775243D1*
X1323924Y778117D1*
X1324897Y782892D1*
Y785766D1*
X1323924Y790541D1*
X1322023Y793415D1*
X1319149Y794366D1*
X1317248D1*
X1323924Y790541D2*
X1312450Y778117D1*
X2154253Y2541296D2*
X2152351Y2540346D1*
X2150428Y2538422D1*
X2149477Y2536521D1*
Y2532696D1*
X2150428Y2530773D1*
X2152351Y2528872D1*
X2154253Y2527899D1*
X2157127Y2526948D1*
X2161924D1*
X2164776Y2527899D1*
X2166699Y2528872D1*
X2168601Y2530773D1*
X2169573Y2532696D1*
Y2536521D1*
X2168601Y2538422D1*
X2166699Y2540346D1*
X2164776Y2541296D1*
X2154275Y2548445D2*
X2153324D1*
X2151401Y2549395D1*
X2150450Y2550346D1*
X2149500Y2552269D1*
Y2556094D1*
X2150450Y2557995D1*
X2151401Y2558946D1*
X2153324Y2559919D1*
X2155226D1*
X2157149Y2558946D1*
X2160001Y2557045D1*
X2169573Y2547472D1*
Y2560869D1*
X2153324Y2567045D2*
X2152351Y2568968D1*
X2149500Y2571842D1*
X2169573D1*
X774201Y639174D2*
X773250Y641076D1*
X771327Y642999D1*
X769426Y643950D1*
X765601D1*
X763678Y642999D1*
X761776Y641076D1*
X760804Y639174D1*
X759853Y636300D1*
Y631503D1*
X760804Y628651D1*
X761776Y626728D1*
X763678Y624826D1*
X765601Y623854D1*
X769426D1*
X771327Y624826D1*
X773250Y626728D1*
X774201Y628651D1*
X781349Y639152D2*
Y640103D1*
X782300Y642026D1*
X783251Y642977D1*
X785174Y643927D1*
X788999D1*
X790900Y642977D1*
X791851Y642026D1*
X792823Y640103D1*
Y638202D1*
X791851Y636278D1*
X789949Y633426D1*
X780377Y623854D1*
X793774D1*
X800922Y639152D2*
Y640103D1*
X801873Y642026D1*
X802824Y642977D1*
X804747Y643927D1*
X808572D1*
X810473Y642977D1*
X811424Y642026D1*
X812396Y640103D1*
Y638202D1*
X811424Y636278D1*
X809522Y633426D1*
X799950Y623854D1*
X813347D1*
X1387318Y632878D2*
X1386367Y634779D1*
X1384444Y636702D1*
X1382542Y637653D1*
X1378718D1*
X1376794Y636702D1*
X1374893Y634779D1*
X1373920Y632878D1*
X1372970Y630004D1*
Y625206D1*
X1373920Y622354D1*
X1374893Y620431D1*
X1376794Y618530D1*
X1378718Y617557D1*
X1382542D1*
X1384444Y618530D1*
X1386367Y620431D1*
X1387318Y622354D1*
X1394466Y632856D2*
Y633806D1*
X1395417Y635730D1*
X1396367Y636680D1*
X1398291Y637631D1*
X1402115D1*
X1404017Y636680D1*
X1404967Y635730D1*
X1405940Y633806D1*
Y631905D1*
X1404967Y629982D1*
X1403066Y627130D1*
X1393493Y617557D1*
X1406891D1*
X1414990Y637631D2*
X1425491D1*
X1419765Y629982D1*
X1422639D1*
X1424540Y629031D1*
X1425491Y628080D1*
X1426464Y625206D1*
Y623305D1*
X1425491Y620431D1*
X1423590Y618508D1*
X1420716Y617557D1*
X1417842D1*
X1414990Y618508D1*
X1414039Y619480D1*
X1413066Y621382D1*
X1252420Y637984D2*
X1251469Y639885D1*
X1249546Y641809D1*
X1247645Y642759D1*
X1243820D1*
X1241897Y641809D1*
X1239995Y639885D1*
X1239023Y637984D1*
X1238072Y635110D1*
Y630313D1*
X1239023Y627461D1*
X1239995Y625537D1*
X1241897Y623636D1*
X1243820Y622663D1*
X1247645D1*
X1249546Y623636D1*
X1251469Y625537D1*
X1252420Y627461D1*
X1259568Y637962D2*
Y638913D1*
X1260519Y640836D1*
X1261470Y641787D1*
X1263393Y642737D1*
X1267218D1*
X1269119Y641787D1*
X1270070Y640836D1*
X1271042Y638913D1*
Y637011D1*
X1270070Y635088D1*
X1268168Y632236D1*
X1258596Y622663D1*
X1271993D1*
X1287741D2*
Y642737D1*
X1278169Y629362D1*
X1292517D1*
X1825408Y1969117D2*
X1823506Y1968166D1*
X1821583Y1966243D1*
X1820632Y1964342D1*
Y1960517D1*
X1821583Y1958594D1*
X1823506Y1956692D1*
X1825408Y1955720D1*
X1828282Y1954769D1*
X1833079D1*
X1835931Y1955720D1*
X1837854Y1956692D1*
X1839756Y1958594D1*
X1840728Y1960517D1*
Y1964342D1*
X1839756Y1966243D1*
X1837854Y1968166D1*
X1835931Y1969117D1*
X1825430Y1976265D2*
X1824479D1*
X1822556Y1977216D1*
X1821605Y1978167D1*
X1820654Y1980090D1*
Y1983915D1*
X1821605Y1985816D1*
X1822556Y1986767D1*
X1824479Y1987739D1*
X1826380D1*
X1828304Y1986767D1*
X1831156Y1984865D1*
X1840728Y1975293D1*
Y1988690D1*
X1820654Y2006340D2*
Y1996789D1*
X1829254Y1995838D1*
X1828304Y1996789D1*
X1827331Y1999663D1*
Y2002515D1*
X1828304Y2005389D1*
X1830205Y2007312D1*
X1833079Y2008263D1*
X1834980D1*
X1837854Y2007312D1*
X1839778Y2005389D1*
X1840728Y2002515D1*
Y1999663D1*
X1839778Y1996789D1*
X1838805Y1995838D1*
X1836904Y1994866D1*
X1157559Y639829D2*
X1156608Y641730D1*
X1154685Y643654D1*
X1152783Y644604D1*
X1148959D1*
X1147035Y643654D1*
X1145134Y641730D1*
X1144161Y639829D1*
X1143211Y636955D1*
Y632158D1*
X1144161Y629306D1*
X1145134Y627382D1*
X1147035Y625481D1*
X1148959Y624508D1*
X1152783D1*
X1154685Y625481D1*
X1156608Y627382D1*
X1157559Y629306D1*
X1164707Y639807D2*
Y640758D1*
X1165658Y642681D1*
X1166608Y643632D1*
X1168532Y644582D1*
X1172356D1*
X1174258Y643632D1*
X1175208Y642681D1*
X1176181Y640758D1*
Y638856D1*
X1175208Y636933D1*
X1173307Y634081D1*
X1163734Y624508D1*
X1177132D1*
X1194781Y641730D2*
X1193831Y643632D1*
X1190957Y644582D1*
X1189055D1*
X1186181Y643632D1*
X1184258Y640758D1*
X1183307Y635982D1*
Y631207D1*
X1184258Y627382D1*
X1186181Y625459D1*
X1189055Y624508D1*
X1190006D1*
X1192858Y625459D1*
X1194781Y627382D1*
X1195732Y630256D1*
Y631207D1*
X1194781Y634081D1*
X1192858Y635982D1*
X1190006Y636933D1*
X1189055D1*
X1186181Y635982D1*
X1184258Y634081D1*
X1183307Y631207D1*
X1028491Y639829D2*
X1027540Y641730D1*
X1025617Y643654D1*
X1023716Y644604D1*
X1019891D1*
X1017968Y643654D1*
X1016066Y641730D1*
X1015094Y639829D1*
X1014143Y636955D1*
Y632158D1*
X1015094Y629306D1*
X1016066Y627382D1*
X1017968Y625481D1*
X1019891Y624508D1*
X1023716D1*
X1025617Y625481D1*
X1027540Y627382D1*
X1028491Y629306D1*
X1035639Y639807D2*
Y640758D1*
X1036590Y642681D1*
X1037541Y643632D1*
X1039464Y644582D1*
X1043289D1*
X1045190Y643632D1*
X1046141Y642681D1*
X1047113Y640758D1*
Y638856D1*
X1046141Y636933D1*
X1044239Y634081D1*
X1034667Y624508D1*
X1048064D1*
X1058064D2*
X1067637Y644582D1*
X1054240D1*
X604890Y2521971D2*
Y2501875D1*
X611589D1*
X614463Y2502848D1*
X616386Y2504749D1*
X617337Y2506673D1*
X618287Y2509525D1*
Y2514322D1*
X617337Y2517196D1*
X616386Y2519097D1*
X614463Y2521021D1*
X611589Y2521971D1*
X604890D1*
X624463Y2518124D2*
X626386Y2519097D1*
X629260Y2521949D1*
Y2501875D1*
X600590Y2421982D2*
Y2401886D1*
X607289D1*
X610163Y2402858D1*
X612086Y2404760D1*
X613037Y2406683D1*
X613987Y2409535D1*
Y2414332D1*
X613037Y2417206D1*
X612086Y2419108D1*
X610163Y2421031D1*
X607289Y2421982D1*
X600590D1*
X621136Y2417184D2*
Y2418135D1*
X622086Y2420058D1*
X623037Y2421009D1*
X624960Y2421960D1*
X628785D1*
X630686Y2421009D1*
X631637Y2420058D1*
X632610Y2418135D1*
Y2416234D1*
X631637Y2414310D1*
X629736Y2411458D1*
X620163Y2401886D1*
X633560D1*
X638477Y2728261D2*
X626031D1*
Y2708165D1*
Y2718688D2*
X633680D1*
X644653Y2724414D2*
X646576Y2725387D1*
X649450Y2728239D1*
Y2708165D1*
X483931Y2663975D2*
Y2648676D1*
X482981Y2645802D1*
X482008Y2644851D1*
X480107Y2643879D1*
X478183D1*
X476282Y2644851D1*
X475331Y2645802D1*
X474359Y2648676D1*
Y2650577D1*
X490107Y2660128D2*
X492030Y2661101D1*
X494904Y2663952D1*
Y2643879D1*
X614125Y2156455D2*
Y2141156D1*
X613174Y2138282D1*
X612201Y2137332D1*
X610300Y2136359D1*
X608377D1*
X606475Y2137332D1*
X605525Y2138282D1*
X604552Y2141156D1*
Y2143058D1*
X621273Y2151657D2*
Y2152608D1*
X622224Y2154531D1*
X623174Y2155482D1*
X625098Y2156433D1*
X628922D1*
X630824Y2155482D1*
X631774Y2154531D1*
X632747Y2152608D1*
Y2150707D1*
X631774Y2148783D1*
X629873Y2145932D1*
X620300Y2136359D1*
X633698D1*
X494769Y2023187D2*
X493796Y2025111D1*
X490944Y2027985D1*
X511018D1*
X490944Y2039908D2*
X491895Y2037034D1*
X494769Y2035111D1*
X499544Y2034160D1*
X502418D1*
X507194Y2035111D1*
X510068Y2037034D1*
X511018Y2039908D1*
Y2041810D1*
X510068Y2044684D1*
X507194Y2046585D1*
X502418Y2047558D1*
X499544D1*
X494769Y2046585D1*
X491895Y2044684D1*
X490944Y2041810D1*
Y2039908D1*
X494769Y2046585D2*
X507194Y2035111D1*
X494769Y2053733D2*
X493796Y2055657D1*
X490944Y2058531D1*
X511018D1*
X494769Y2064706D2*
X493796Y2066630D1*
X490944Y2069504D1*
X511018D1*
X490944Y2080455D2*
X491895Y2077603D1*
X493796Y2076630D1*
X495720D1*
X497621Y2077603D1*
X498594Y2079504D1*
X499544Y2083329D1*
X500495Y2086203D1*
X502418Y2088104D1*
X504320Y2089055D1*
X507194D1*
X509095Y2088104D1*
X510068Y2087153D1*
X511018Y2084279D1*
Y2080455D1*
X510068Y2077603D1*
X509095Y2076630D1*
X507194Y2075679D1*
X504320D1*
X502418Y2076630D1*
X500495Y2078553D1*
X499544Y2081405D1*
X498594Y2085230D1*
X497621Y2087153D1*
X495720Y2088104D1*
X493796D1*
X491895Y2087153D1*
X490944Y2084279D1*
Y2080455D1*
X494769Y2095230D2*
X493796Y2097154D1*
X490944Y2100028D1*
X511018D1*
X497621Y2118650D2*
X500495Y2117677D1*
X502418Y2115776D1*
X503369Y2112902D1*
Y2111952D1*
X502418Y2109077D1*
X500495Y2107176D1*
X497621Y2106203D1*
X496670D1*
X493796Y2107176D1*
X491895Y2109077D1*
X490944Y2111952D1*
Y2112902D1*
X491895Y2115776D1*
X493796Y2117677D1*
X497621Y2118650D1*
X502418D1*
X507194Y2117677D1*
X510068Y2115776D1*
X511018Y2112902D1*
Y2111001D1*
X510068Y2108127D1*
X508144Y2107176D1*
X490944Y2126749D2*
Y2137250D1*
X498594Y2131525D1*
Y2134399D1*
X499544Y2136300D1*
X500495Y2137250D1*
X503369Y2138223D1*
X505270D1*
X508144Y2137250D1*
X510068Y2135349D1*
X511018Y2132475D1*
Y2129601D1*
X510068Y2126749D1*
X509095Y2125799D1*
X507194Y2124826D1*
X500981Y2144399D2*
Y2155453D1*
X490944Y2167377D2*
X491895Y2164503D1*
X494769Y2162579D1*
X499544Y2161629D1*
X502418D1*
X507194Y2162579D1*
X510068Y2164503D1*
X511018Y2167377D1*
Y2169278D1*
X510068Y2172152D1*
X507194Y2174053D1*
X502418Y2175026D1*
X499544D1*
X494769Y2174053D1*
X491895Y2172152D1*
X490944Y2169278D1*
Y2167377D1*
X494769Y2174053D2*
X507194Y2162579D1*
X490944Y2186950D2*
X491895Y2184076D1*
X494769Y2182152D1*
X499544Y2181202D1*
X502418D1*
X507194Y2182152D1*
X510068Y2184076D1*
X511018Y2186950D1*
Y2188851D1*
X510068Y2191725D1*
X507194Y2193626D1*
X502418Y2194599D1*
X499544D1*
X494769Y2193626D1*
X491895Y2191725D1*
X490944Y2188851D1*
Y2186950D1*
X494769Y2193626D2*
X507194Y2182152D1*
X490944Y2206523D2*
X491895Y2203649D1*
X494769Y2201725D1*
X499544Y2200775D1*
X502418D1*
X507194Y2201725D1*
X510068Y2203649D1*
X511018Y2206523D1*
Y2208424D1*
X510068Y2211298D1*
X507194Y2213199D1*
X502418Y2214172D1*
X499544D1*
X494769Y2213199D1*
X491895Y2211298D1*
X490944Y2208424D1*
Y2206523D1*
X494769Y2213199D2*
X507194Y2201725D1*
X494769Y2220348D2*
X493796Y2222271D1*
X490944Y2225145D1*
X511018D1*
X490922Y2231321D2*
X511018D1*
Y2242795D1*
X490922Y2261417D2*
Y2248970D1*
X511018D1*
X500495D2*
Y2256620D1*
X1848546Y2882697D2*
Y2867398D1*
X1847595Y2864524D1*
X1846623Y2863573D1*
X1844721Y2862601D1*
X1842798D1*
X1840897Y2863573D1*
X1839946Y2864524D1*
X1838973Y2867398D1*
Y2869299D1*
X1856645Y2882675D2*
X1867146D1*
X1861420Y2875025D1*
X1864294D1*
X1866196Y2874075D1*
X1867146Y2873124D1*
X1868119Y2870250D1*
Y2868349D1*
X1867146Y2865475D1*
X1865245Y2863551D1*
X1862371Y2862601D1*
X1859497D1*
X1856645Y2863551D1*
X1855694Y2864524D1*
X1854722Y2866425D1*
X1725658Y2269347D2*
Y2289443D1*
X1718009Y2269347D1*
X1710359Y2289443D1*
Y2269347D1*
X1731834Y2289443D2*
X1732784Y2288493D1*
X1733757Y2289443D1*
X1732784Y2290416D1*
X1731834Y2289443D1*
X1732784Y2282745D2*
Y2269347D1*
X1739933Y2282745D2*
Y2269347D1*
Y2276997D2*
X1740905Y2279871D1*
X1742807Y2281794D1*
X1744730Y2282745D1*
X1747604D1*
X1765276Y2279871D2*
X1763353Y2281794D1*
X1761429Y2282745D1*
X1758577D1*
X1756654Y2281794D1*
X1754753Y2279871D1*
X1753780Y2276997D1*
Y2275096D1*
X1754753Y2272221D1*
X1756654Y2270320D1*
X1758577Y2269347D1*
X1761429D1*
X1763353Y2270320D1*
X1765276Y2272221D1*
X1776227Y2282745D2*
X1774326Y2281794D1*
X1772402Y2279871D1*
X1771452Y2276997D1*
Y2275096D1*
X1772402Y2272221D1*
X1774326Y2270320D1*
X1776227Y2269347D1*
X1779101D1*
X1781024Y2270320D1*
X1782926Y2272221D1*
X1783898Y2275096D1*
Y2276997D1*
X1782926Y2279871D1*
X1781024Y2281794D1*
X1779101Y2282745D1*
X1776227D1*
X1822912Y2286569D2*
X1821010Y2288493D1*
X1818136Y2289443D1*
X1814312D1*
X1811438Y2288493D1*
X1809514Y2286569D1*
Y2284668D1*
X1810487Y2282745D1*
X1811438Y2281794D1*
X1813339Y2280844D1*
X1819087Y2278920D1*
X1821010Y2277970D1*
X1821961Y2276997D1*
X1822912Y2275096D1*
Y2272221D1*
X1821010Y2270320D1*
X1818136Y2269347D1*
X1814312D1*
X1811438Y2270320D1*
X1809514Y2272221D1*
X1829087Y2289443D2*
Y2269347D1*
X1835786D1*
X1838660Y2270320D1*
X1840583Y2272221D1*
X1841534Y2274145D1*
X1842485Y2276997D1*
Y2281794D1*
X1841534Y2284668D1*
X1840583Y2286569D1*
X1838660Y2288493D1*
X1835786Y2289443D1*
X1829087D1*
X1882449Y2284668D2*
X1881498Y2286569D1*
X1879575Y2288493D1*
X1877674Y2289443D1*
X1873849D1*
X1871925Y2288493D1*
X1870024Y2286569D1*
X1869051Y2284668D1*
X1868101Y2281794D1*
Y2276997D1*
X1869051Y2274145D1*
X1870024Y2272221D1*
X1871925Y2270320D1*
X1873849Y2269347D1*
X1877674D1*
X1879575Y2270320D1*
X1881498Y2272221D1*
X1882449Y2274145D1*
X1900098Y2282745D2*
Y2269347D1*
Y2279871D2*
X1898197Y2281794D1*
X1896274Y2282745D1*
X1893422D1*
X1891499Y2281794D1*
X1889597Y2279871D1*
X1888624Y2276997D1*
Y2275096D1*
X1889597Y2272221D1*
X1891499Y2270320D1*
X1893422Y2269347D1*
X1896274D1*
X1898197Y2270320D1*
X1900098Y2272221D1*
X1906274Y2282745D2*
Y2269347D1*
Y2276997D2*
X1907247Y2279871D1*
X1909148Y2281794D1*
X1911072Y2282745D1*
X1913946D1*
X1931595Y2289443D2*
Y2269347D1*
Y2279871D2*
X1929694Y2281794D1*
X1927771Y2282745D1*
X1924897D1*
X1922995Y2281794D1*
X1921072Y2279871D1*
X1920121Y2276997D1*
Y2275096D1*
X1921072Y2272221D1*
X1922995Y2270320D1*
X1924897Y2269347D1*
X1927771D1*
X1929694Y2270320D1*
X1931595Y2272221D1*
X1970609Y2286569D2*
X1968707Y2288493D1*
X1965833Y2289443D1*
X1962009D1*
X1959135Y2288493D1*
X1957211Y2286569D1*
Y2284668D1*
X1958184Y2282745D1*
X1959135Y2281794D1*
X1961036Y2280844D1*
X1966784Y2278920D1*
X1968707Y2277970D1*
X1969658Y2276997D1*
X1970609Y2275096D1*
Y2272221D1*
X1968707Y2270320D1*
X1965833Y2269347D1*
X1962009D1*
X1959135Y2270320D1*
X1957211Y2272221D1*
X1976784Y2289443D2*
Y2269347D1*
X1987735Y2282745D2*
X1985834Y2281794D1*
X1983911Y2279871D1*
X1982960Y2276997D1*
Y2275096D1*
X1983911Y2272221D1*
X1985834Y2270320D1*
X1987735Y2269347D1*
X1990609D1*
X1992533Y2270320D1*
X1994434Y2272221D1*
X1995407Y2275096D1*
Y2276997D1*
X1994434Y2279871D1*
X1992533Y2281794D1*
X1990609Y2282745D1*
X1987735D1*
X2004456Y2289443D2*
Y2273172D1*
X2005407Y2270320D1*
X2007330Y2269347D1*
X2009232D1*
X2001582Y2282745D2*
X2008281D1*
X1157291Y1818305D2*
Y1803007D1*
X1156341Y1800133D1*
X1155368Y1799182D1*
X1153467Y1798209D1*
X1151543D1*
X1149642Y1799182D1*
X1148691Y1800133D1*
X1147718Y1803007D1*
Y1804908D1*
X1173040Y1798209D2*
Y1818283D1*
X1163467Y1804908D1*
X1177815D1*
X2839016Y2667055D2*
Y2651756D1*
X2838065Y2648882D1*
X2837092Y2647931D1*
X2835191Y2646959D1*
X2833268D1*
X2831367Y2647931D1*
X2830416Y2648882D1*
X2829443Y2651756D1*
Y2653657D1*
X2856665Y2667032D2*
X2847115D1*
X2846164Y2658433D1*
X2847115Y2659383D1*
X2849989Y2660356D1*
X2852841D1*
X2855715Y2659383D1*
X2857638Y2657482D1*
X2858589Y2654608D1*
Y2652707D1*
X2857638Y2649833D1*
X2855715Y2647909D1*
X2852841Y2646959D1*
X2849989D1*
X2847115Y2647909D1*
X2846164Y2648882D1*
X2845192Y2650783D1*
X2939502Y2667055D2*
Y2651756D1*
X2938552Y2648882D1*
X2937579Y2647931D1*
X2935678Y2646959D1*
X2933754D1*
X2931853Y2647931D1*
X2930902Y2648882D1*
X2929930Y2651756D1*
Y2653657D1*
X2957152Y2664181D2*
X2956201Y2666082D1*
X2953327Y2667032D1*
X2951426D1*
X2948552Y2666082D1*
X2946629Y2663208D1*
X2945678Y2658433D1*
Y2653657D1*
X2946629Y2649833D1*
X2948552Y2647909D1*
X2951426Y2646959D1*
X2952377D1*
X2955228Y2647909D1*
X2957152Y2649833D1*
X2958102Y2652707D1*
Y2653657D1*
X2957152Y2656531D1*
X2955228Y2658433D1*
X2952377Y2659383D1*
X2951426D1*
X2948552Y2658433D1*
X2946629Y2656531D1*
X2945678Y2653657D1*
X1761065Y1466261D2*
Y1446165D1*
X1772539D1*
X1778715Y1462414D2*
X1780638Y1463387D1*
X1783512Y1466239D1*
Y1446165D1*
X2190802Y2447478D2*
Y2427382D1*
X2202276D1*
X2209425Y2442681D2*
Y2443632D1*
X2210375Y2445555D1*
X2211326Y2446506D1*
X2213249Y2447456D1*
X2217074D1*
X2218975Y2446506D1*
X2219926Y2445555D1*
X2220899Y2443632D1*
Y2441730D1*
X2219926Y2439807D1*
X2218025Y2436955D1*
X2208452Y2427382D1*
X2221849D1*
X1320711Y2047725D2*
X1329311D1*
X1332185Y2048698D1*
X1333158Y2049649D1*
X1334108Y2051550D1*
Y2053473D1*
X1333158Y2055375D1*
X1332185Y2056348D1*
X1329311Y2057298D1*
X1320711D1*
Y2037202D1*
X1327410Y2047725D2*
X1334108Y2037202D1*
X1352709Y2057298D2*
X1340284D1*
Y2037202D1*
X1352709D1*
X1340284Y2047725D2*
X1347933D1*
X1372282Y2054424D2*
X1370380Y2056348D1*
X1367506Y2057298D1*
X1363682D1*
X1360808Y2056348D1*
X1358884Y2054424D1*
Y2052523D1*
X1359857Y2050599D1*
X1360808Y2049649D1*
X1362709Y2048698D1*
X1368457Y2046775D1*
X1370380Y2045824D1*
X1371331Y2044851D1*
X1372282Y2042950D1*
Y2040076D1*
X1370380Y2038175D1*
X1367506Y2037202D1*
X1363682D1*
X1360808Y2038175D1*
X1358884Y2040076D1*
X1390882Y2057298D2*
X1378457D1*
Y2037202D1*
X1390882D1*
X1378457Y2047725D2*
X1386107D1*
X1403756Y2057298D2*
Y2037202D1*
X1397058Y2057298D2*
X1410455D1*
X803597Y1960251D2*
X812219D1*
X815071Y1961202D1*
X816043Y1962175D1*
X816994Y1964076D1*
Y1966950D1*
X816043Y1968851D1*
X815071Y1969824D1*
X812219Y1970775D1*
X803597D1*
Y1950679D1*
X828918Y1970775D2*
X826994Y1969824D1*
X825093Y1967901D1*
X824120Y1965999D1*
X823170Y1963125D1*
Y1958328D1*
X824120Y1955476D1*
X825093Y1953553D1*
X826994Y1951651D1*
X828918Y1950679D1*
X832742D1*
X834644Y1951651D1*
X836567Y1953553D1*
X837518Y1955476D1*
X838468Y1958328D1*
Y1963125D1*
X837518Y1965999D1*
X836567Y1967901D1*
X834644Y1969824D1*
X832742Y1970775D1*
X828918D1*
X844644D2*
X849441Y1950679D1*
X854217Y1970775D1*
X858992Y1950679D1*
X863789Y1970775D1*
X882390D2*
X869965D1*
Y1950679D1*
X882390D1*
X869965Y1961202D2*
X877614D1*
X888565D2*
X897165D1*
X900039Y1962175D1*
X901012Y1963125D1*
X901963Y1965026D1*
Y1966950D1*
X901012Y1968851D1*
X900039Y1969824D1*
X897165Y1970775D1*
X888565D1*
Y1950679D1*
X895264Y1961202D2*
X901963Y1950679D1*
X686395Y1970775D2*
X673948D1*
Y1950679D1*
Y1961202D2*
X681598D1*
X692571Y1970775D2*
Y1956427D1*
X693521Y1953553D1*
X695445Y1951651D1*
X698319Y1950679D1*
X700220D1*
X703094Y1951651D1*
X705017Y1953553D1*
X705968Y1956427D1*
Y1970775D1*
X725541Y1967901D2*
X723640Y1969824D1*
X720766Y1970775D1*
X716941D1*
X714067Y1969824D1*
X712144Y1967901D1*
Y1965999D1*
X713117Y1964076D1*
X714067Y1963125D1*
X715968Y1962175D1*
X721716Y1960251D1*
X723640Y1959301D1*
X724590Y1958328D1*
X725541Y1956427D1*
Y1953553D1*
X723640Y1951651D1*
X720766Y1950679D1*
X716941D1*
X714067Y1951651D1*
X712144Y1953553D1*
X744141Y1970775D2*
X731717D1*
Y1950679D1*
X744141D1*
X731717Y1961202D2*
X739366D1*
X1104641Y1970775D2*
Y1950679D1*
X1097942Y1970775D2*
X1111339D1*
X1117515D2*
X1130912Y1950679D1*
Y1970775D2*
X1117515Y1950679D1*
X1137088Y1970775D2*
Y1950679D1*
X1143787D1*
X1146661Y1951651D1*
X1148584Y1953553D1*
X1149535Y1955476D1*
X1150485Y1958328D1*
Y1963125D1*
X1149535Y1965999D1*
X1148584Y1967901D1*
X1146661Y1969824D1*
X1143787Y1970775D1*
X1137088D1*
X1162409Y1970752D2*
X1159535Y1969802D1*
X1157612Y1966928D1*
X1156661Y1962152D1*
Y1959278D1*
X1157612Y1954503D1*
X1159535Y1951629D1*
X1162409Y1950679D1*
X1164310D1*
X1167184Y1951629D1*
X1169086Y1954503D1*
X1170058Y1959278D1*
Y1962152D1*
X1169086Y1966928D1*
X1167184Y1969802D1*
X1164310Y1970752D1*
X1162409D1*
X1169086Y1966928D2*
X1157612Y1954503D1*
X966706Y1958077D2*
X975306D1*
X978180Y1959050D1*
X979153Y1960001D1*
X980103Y1961902D1*
Y1963825D1*
X979153Y1965726D1*
X978180Y1966699D1*
X975306Y1967650D1*
X966706D1*
Y1947554D1*
X973404Y1958077D2*
X980103Y1947554D1*
X986279Y1967650D2*
X999676Y1947554D1*
Y1967650D2*
X986279Y1947554D1*
X1005852Y1967650D2*
Y1947554D1*
X1012551D1*
X1015425Y1948527D1*
X1017348Y1950428D1*
X1018299Y1952351D1*
X1019249Y1955203D1*
Y1960001D1*
X1018299Y1962875D1*
X1017348Y1964776D1*
X1015425Y1966699D1*
X1012551Y1967650D1*
X1005852D1*
X1031173Y1967628D2*
X1028299Y1966677D1*
X1026376Y1963803D1*
X1025425Y1959028D1*
Y1956154D1*
X1026376Y1951378D1*
X1028299Y1948504D1*
X1031173Y1947554D1*
X1033074D1*
X1035948Y1948504D1*
X1037850Y1951378D1*
X1038822Y1956154D1*
Y1959028D1*
X1037850Y1963803D1*
X1035948Y1966677D1*
X1033074Y1967628D1*
X1031173D1*
X1037850Y1963803D2*
X1026376Y1951378D1*
X2598974Y798798D2*
Y778702D1*
X2610448D1*
X2629048Y798798D2*
X2616624D1*
Y778702D1*
X2629048D1*
X2616624Y789225D2*
X2624273D1*
X2635224Y798798D2*
Y778702D1*
X2641923D1*
X2644797Y779675D1*
X2646720Y781576D1*
X2647671Y783500D1*
X2648621Y786351D1*
Y791149D1*
X2647671Y794023D1*
X2646720Y795924D1*
X2644797Y797848D1*
X2641923Y798798D1*
X2635224D1*
X2656720Y798776D2*
X2667222D1*
X2661496Y791127D1*
X2664370D1*
X2666271Y790176D1*
X2667222Y789225D1*
X2668194Y786351D1*
Y784450D1*
X2667222Y781576D1*
X2665320Y779653D1*
X2662446Y778702D1*
X2659572D1*
X2656720Y779653D1*
X2655770Y780626D1*
X2654797Y782527D1*
X2275013Y786298D2*
Y766202D1*
X2286487D1*
X2305088Y786298D2*
X2292663D1*
Y766202D1*
X2305088D1*
X2292663Y776725D2*
X2300312D1*
X2311263Y786298D2*
Y766202D1*
X2317962D1*
X2320836Y767175D1*
X2322759Y769076D1*
X2323710Y771000D1*
X2324661Y773851D1*
Y778649D1*
X2323710Y781523D1*
X2322759Y783424D1*
X2320836Y785348D1*
X2317962Y786298D1*
X2311263D1*
X2331809Y781501D2*
Y782451D1*
X2332760Y784375D1*
X2333710Y785325D1*
X2335634Y786276D1*
X2339458D1*
X2341360Y785325D1*
X2342310Y784375D1*
X2343283Y782451D1*
Y780550D1*
X2342310Y778627D1*
X2340409Y775775D1*
X2330836Y766202D1*
X2344234D1*
X1942855Y786297D2*
Y766201D1*
X1954329D1*
X1972930Y786297D2*
X1960505D1*
Y766201D1*
X1972930D1*
X1960505Y776724D2*
X1968154D1*
X1979105Y786297D2*
Y766201D1*
X1985804D1*
X1988678Y767174D1*
X1990601Y769075D1*
X1991552Y770998D1*
X1992503Y773850D1*
Y778648D1*
X1991552Y781522D1*
X1990601Y783423D1*
X1988678Y785346D1*
X1985804Y786297D1*
X1979105D1*
X1998678Y782450D2*
X2000602Y783423D1*
X2003476Y786275D1*
Y766201D1*
X1605225Y786297D2*
Y766201D1*
X1616699D1*
X1635299Y786297D2*
X1622874D1*
Y766201D1*
X1635299D1*
X1622874Y776724D2*
X1630524D1*
X1641475Y786297D2*
Y766201D1*
X1648173D1*
X1651047Y767174D1*
X1652971Y769075D1*
X1653921Y770998D1*
X1654872Y773850D1*
Y778648D1*
X1653921Y781522D1*
X1652971Y783423D1*
X1651047Y785346D1*
X1648173Y786297D1*
X1641475D1*
X1666796Y786275D2*
X1663922Y785324D1*
X1661998Y782450D1*
X1661048Y777675D1*
Y774801D1*
X1661998Y770025D1*
X1663922Y767151D1*
X1666796Y766201D1*
X1668697D1*
X1671571Y767151D1*
X1673472Y770025D1*
X1674445Y774801D1*
Y777675D1*
X1673472Y782450D1*
X1671571Y785324D1*
X1668697Y786275D1*
X1666796D1*
X1673472Y782450D2*
X1661998Y770025D1*
X1779675Y2102347D2*
X1777774Y2104270D1*
X1774900Y2105221D1*
X1771076D1*
X1768201Y2104270D1*
X1766278Y2102347D1*
Y2100445D1*
X1767251Y2098522D1*
X1768201Y2097571D1*
X1770103Y2096621D1*
X1775851Y2094697D1*
X1777774Y2093747D1*
X1778725Y2092774D1*
X1779675Y2090873D1*
Y2087999D1*
X1777774Y2086097D1*
X1774900Y2085125D1*
X1771076D1*
X1768201Y2086097D1*
X1766278Y2087999D1*
X1785851Y2105221D2*
Y2085125D1*
X1792550D1*
X1795424Y2086097D1*
X1797347Y2087999D1*
X1798298Y2089922D1*
X1799248Y2092774D1*
Y2097571D1*
X1798298Y2100445D1*
X1797347Y2102347D1*
X1795424Y2104270D1*
X1792550Y2105221D1*
X1785851D1*
X1805424Y2081809D2*
X1823597D1*
X1844120Y2100445D2*
X1843170Y2102347D1*
X1841246Y2104270D1*
X1839345Y2105221D1*
X1835521D1*
X1833597Y2104270D1*
X1831696Y2102347D1*
X1830723Y2100445D1*
X1829773Y2097571D1*
Y2092774D1*
X1830723Y2089922D1*
X1831696Y2087999D1*
X1833597Y2086097D1*
X1835521Y2085125D1*
X1839345D1*
X1841246Y2086097D1*
X1843170Y2087999D1*
X1844120Y2089922D1*
X1850296Y2105221D2*
Y2085125D1*
X1856995D1*
X1859869Y2086097D1*
X1861792Y2087999D1*
X1862743Y2089922D1*
X1863694Y2092774D1*
Y2097571D1*
X1862743Y2100445D1*
X1861792Y2102347D1*
X1859869Y2104270D1*
X1856995Y2105221D1*
X1850296D1*
X1579656Y2102345D2*
X1577754Y2104269D1*
X1574880Y2105219D1*
X1571056D1*
X1568182Y2104269D1*
X1566258Y2102345D1*
Y2100444D1*
X1567231Y2098521D1*
X1568182Y2097570D1*
X1570083Y2096619D1*
X1575831Y2094696D1*
X1577754Y2093745D1*
X1578705Y2092773D1*
X1579656Y2090871D1*
Y2087997D1*
X1577754Y2086096D1*
X1574880Y2085123D1*
X1571056D1*
X1568182Y2086096D1*
X1566258Y2087997D1*
X1585831Y2105219D2*
Y2085123D1*
X1592530D1*
X1595404Y2086096D1*
X1597328Y2087997D1*
X1598278Y2089921D1*
X1599229Y2092773D1*
Y2097570D1*
X1598278Y2100444D1*
X1597328Y2102345D1*
X1595404Y2104269D1*
X1592530Y2105219D1*
X1585831D1*
X1605405Y2081807D2*
X1623577D1*
X1644101Y2100444D2*
X1643150Y2102345D1*
X1641227Y2104269D1*
X1639326Y2105219D1*
X1635501D1*
X1633577Y2104269D1*
X1631676Y2102345D1*
X1630703Y2100444D1*
X1629753Y2097570D1*
Y2092773D1*
X1630703Y2089921D1*
X1631676Y2087997D1*
X1633577Y2086096D1*
X1635501Y2085123D1*
X1639326D1*
X1641227Y2086096D1*
X1643150Y2087997D1*
X1644101Y2089921D1*
X1663674Y2102345D2*
X1661773Y2104269D1*
X1658899Y2105219D1*
X1655074D1*
X1652200Y2104269D1*
X1650276Y2102345D1*
Y2100444D1*
X1651249Y2098521D1*
X1652200Y2097570D1*
X1654101Y2096619D1*
X1659849Y2094696D1*
X1661773Y2093745D1*
X1662723Y2092773D1*
X1663674Y2090871D1*
Y2087997D1*
X1661773Y2086096D1*
X1658899Y2085123D1*
X1655074D1*
X1652200Y2086096D1*
X1650276Y2087997D1*
X1566258Y2110459D2*
X1669850D1*
X2021743Y2083336D2*
X2009297D1*
Y2063240D1*
Y2073764D2*
X2016946D1*
X2027919Y2083336D2*
Y2063240D1*
X2039393D1*
X2060890D2*
X2053218Y2083336D1*
X2045569Y2063240D1*
X2048443Y2069939D2*
X2058016D1*
X2080463Y2080462D2*
X2078561Y2082386D1*
X2075687Y2083336D1*
X2071863D1*
X2068989Y2082386D1*
X2067065Y2080462D1*
Y2078561D1*
X2068038Y2076638D1*
X2068989Y2075687D1*
X2070890Y2074736D1*
X2076638Y2072813D1*
X2078561Y2071862D1*
X2079512Y2070889D1*
X2080463Y2068988D1*
Y2066114D1*
X2078561Y2064213D1*
X2075687Y2063240D1*
X2071863D1*
X2068989Y2064213D1*
X2067065Y2066114D1*
X2086638Y2083336D2*
Y2063240D1*
X2100036Y2083336D2*
Y2063240D1*
X2086638Y2073764D2*
X2100036D1*
X2106211Y2059924D2*
X2124384D1*
X2144908Y2078561D2*
X2143957Y2080462D1*
X2142034Y2082386D1*
X2140132Y2083336D1*
X2136308D1*
X2134384Y2082386D1*
X2132483Y2080462D1*
X2131510Y2078561D1*
X2130560Y2075687D1*
Y2070889D1*
X2131510Y2068038D1*
X2132483Y2066114D1*
X2134384Y2064213D1*
X2136308Y2063240D1*
X2140132D1*
X2142034Y2064213D1*
X2143957Y2066114D1*
X2144908Y2068038D1*
X2164481Y2080462D2*
X2162579Y2082386D1*
X2159705Y2083336D1*
X2155881D1*
X2153007Y2082386D1*
X2151083Y2080462D1*
Y2078561D1*
X2152056Y2076638D1*
X2153007Y2075687D1*
X2154908Y2074736D1*
X2160656Y2072813D1*
X2162579Y2071862D1*
X2163530Y2070889D1*
X2164481Y2068988D1*
Y2066114D1*
X2162579Y2064213D1*
X2159705Y2063240D1*
X2155881D1*
X2153007Y2064213D1*
X2151083Y2066114D1*
X2009297Y2088576D2*
X2170656D1*
X2760023Y2748609D2*
X2768623D1*
X2771497Y2749581D1*
X2772470Y2750532D1*
X2773421Y2752433D1*
Y2754357D1*
X2772470Y2756258D1*
X2771497Y2757231D1*
X2768623Y2758181D1*
X2760023D1*
Y2738085D1*
X2766722Y2748609D2*
X2773421Y2738085D1*
X2779596Y2758181D2*
X2792994Y2738085D1*
Y2758181D2*
X2779596Y2738085D1*
X2799169Y2758181D2*
Y2738085D1*
X2805868D1*
X2808742Y2739058D1*
X2810666Y2740959D1*
X2811616Y2742883D1*
X2812567Y2745735D1*
Y2750532D1*
X2811616Y2753406D1*
X2810666Y2755307D1*
X2808742Y2757231D1*
X2805868Y2758181D1*
X2799169D1*
X2819715Y2753384D2*
Y2754335D1*
X2820666Y2756258D1*
X2821617Y2757209D1*
X2823540Y2758159D1*
X2827365D1*
X2829266Y2757209D1*
X2830216Y2756258D1*
X2831189Y2754335D1*
Y2752433D1*
X2830216Y2750510D1*
X2828315Y2747658D1*
X2818742Y2738085D1*
X2832140D1*
X2760473Y2839431D2*
Y2819335D1*
X2753774Y2839431D2*
X2767171D1*
X2773347D2*
X2786744Y2819335D1*
Y2839431D2*
X2773347Y2819335D1*
X2792920Y2839431D2*
Y2819335D1*
X2799619D1*
X2802493Y2820307D1*
X2804416Y2822209D1*
X2805367Y2824132D1*
X2806317Y2826984D1*
Y2831781D1*
X2805367Y2834655D1*
X2804416Y2836557D1*
X2802493Y2838480D1*
X2799619Y2839431D1*
X2792920D1*
X2813466Y2834633D2*
Y2835584D1*
X2814417Y2837507D1*
X2815367Y2838458D1*
X2817291Y2839409D1*
X2821115D1*
X2823016Y2838458D1*
X2823967Y2837507D1*
X2824940Y2835584D1*
Y2833683D1*
X2823967Y2831759D1*
X2822066Y2828907D1*
X2812493Y2819335D1*
X2825890D1*
X1769484Y1852446D2*
X1778084D1*
X1780958Y1853419D1*
X1781931Y1854370D1*
X1782882Y1856271D1*
Y1858194D1*
X1781931Y1860096D1*
X1780958Y1861069D1*
X1778084Y1862019D1*
X1769484D1*
Y1841923D1*
X1776183Y1852446D2*
X1782882Y1841923D1*
X1789057Y1858172D2*
X1790981Y1859145D1*
X1793855Y1861997D1*
Y1841923D1*
X1840184Y1854070D2*
X1848784D1*
X1851658Y1855043D1*
X1852631Y1855993D1*
X1853582Y1857894D1*
Y1859818D1*
X1852631Y1861719D1*
X1851658Y1862692D1*
X1848784Y1863643D1*
X1840184D1*
Y1843546D1*
X1846883Y1854070D2*
X1853582Y1843546D1*
X1860730Y1858845D2*
Y1859796D1*
X1861681Y1861719D1*
X1862631Y1862670D1*
X1864555Y1863620D1*
X1868379D1*
X1870281Y1862670D1*
X1871231Y1861719D1*
X1872204Y1859796D1*
Y1857894D1*
X1871231Y1855971D1*
X1869330Y1853119D1*
X1859757Y1843546D1*
X1873155D1*
X1615031Y1962011D2*
X1623631D1*
X1626505Y1962984D1*
X1627478Y1963934D1*
X1628428Y1965835D1*
Y1967759D1*
X1627478Y1969660D1*
X1626505Y1970633D1*
X1623631Y1971583D1*
X1615031D1*
Y1951487D1*
X1621729Y1962011D2*
X1628428Y1951487D1*
X1636527Y1971561D2*
X1647028D1*
X1641303Y1963912D1*
X1644177D1*
X1646078Y1962961D1*
X1647028Y1962011D1*
X1648001Y1959137D1*
Y1957235D1*
X1647028Y1954361D1*
X1645127Y1952438D1*
X1642253Y1951487D1*
X1639379D1*
X1636527Y1952438D1*
X1635577Y1953411D1*
X1634604Y1955312D1*
X1449937Y2144595D2*
X1458537D1*
X1461411Y2145567D1*
X1462384Y2146518D1*
X1463335Y2148419D1*
Y2150343D1*
X1462384Y2152244D1*
X1461411Y2153217D1*
X1458537Y2154167D1*
X1449937D1*
Y2134071D1*
X1456636Y2144595D2*
X1463335Y2134071D1*
X1479083D2*
Y2154145D1*
X1469510Y2140770D1*
X1483858D1*
X672687Y1878903D2*
X681287D1*
X684161Y1879876D1*
X685134Y1880827D1*
X686084Y1882728D1*
Y1884651D1*
X685134Y1886552D1*
X684161Y1887525D1*
X681287Y1888476D1*
X672687D1*
Y1868380D1*
X679386Y1878903D2*
X686084Y1868380D1*
X703734Y1888454D2*
X694183D1*
X693233Y1879854D1*
X694183Y1880804D1*
X697057Y1881777D1*
X699909D1*
X702783Y1880804D1*
X704707Y1878903D1*
X705657Y1876029D1*
Y1874128D1*
X704707Y1871254D1*
X702783Y1869330D1*
X699909Y1868380D1*
X697057D1*
X694183Y1869330D1*
X693233Y1870303D1*
X692260Y1872204D1*
X930958Y1882028D2*
X939558D1*
X942432Y1883001D1*
X943405Y1883951D1*
X944355Y1885852D1*
Y1887776D1*
X943405Y1889677D1*
X942432Y1890650D1*
X939558Y1891601D1*
X930958D1*
Y1871505D1*
X937657Y1882028D2*
X944355Y1871505D1*
X962005Y1888726D2*
X961054Y1890628D1*
X958180Y1891578D1*
X956279D1*
X953405Y1890628D1*
X951482Y1887754D1*
X950531Y1882978D1*
Y1878203D1*
X951482Y1874379D1*
X953405Y1872455D1*
X956279Y1871505D1*
X957230D1*
X960082Y1872455D1*
X962005Y1874379D1*
X962956Y1877253D1*
Y1878203D1*
X962005Y1881077D1*
X960082Y1882978D1*
X957230Y1883929D1*
X956279D1*
X953405Y1882978D1*
X951482Y1881077D1*
X950531Y1878203D1*
X1057802Y1882028D2*
X1066402D1*
X1069276Y1883001D1*
X1070249Y1883951D1*
X1071200Y1885852D1*
Y1887776D1*
X1070249Y1889677D1*
X1069276Y1890650D1*
X1066402Y1891601D1*
X1057802D1*
Y1871505D1*
X1064501Y1882028D2*
X1071200Y1871505D1*
X1081200D2*
X1090773Y1891578D1*
X1077376D1*
X800029Y1882028D2*
X808629D1*
X811503Y1883001D1*
X812475Y1883951D1*
X813426Y1885852D1*
Y1887776D1*
X812475Y1889677D1*
X811503Y1890650D1*
X808629Y1891601D1*
X800029D1*
Y1871505D1*
X806727Y1882028D2*
X813426Y1871505D1*
X824377Y1891578D2*
X821525Y1890628D1*
X820552Y1888726D1*
Y1886803D1*
X821525Y1884902D1*
X823426Y1883929D1*
X827251Y1882978D1*
X830125Y1882028D1*
X832026Y1880104D1*
X832977Y1878203D1*
Y1875329D1*
X832026Y1873428D1*
X831076Y1872455D1*
X828202Y1871505D1*
X824377D1*
X821525Y1872455D1*
X820552Y1873428D1*
X819602Y1875329D1*
Y1878203D1*
X820552Y1880104D1*
X822476Y1882028D1*
X825328Y1882978D1*
X829152Y1883929D1*
X831076Y1884902D1*
X832026Y1886803D1*
Y1888726D1*
X831076Y1890628D1*
X828202Y1891578D1*
X824377D1*
X537021Y1881529D2*
X545621D1*
X548495Y1882502D1*
X549467Y1883453D1*
X550418Y1885354D1*
Y1887277D1*
X549467Y1889178D1*
X548495Y1890151D1*
X545621Y1891102D1*
X537021D1*
Y1871006D1*
X543719Y1881529D2*
X550418Y1871006D1*
X569040Y1884403D2*
X568068Y1881529D1*
X566166Y1879606D1*
X563292Y1878655D1*
X562342D1*
X559468Y1879606D1*
X557566Y1881529D1*
X556594Y1884403D1*
Y1885354D1*
X557566Y1888228D1*
X559468Y1890129D1*
X562342Y1891080D1*
X563292D1*
X566166Y1890129D1*
X568068Y1888228D1*
X569040Y1884403D1*
Y1879606D1*
X568068Y1874830D1*
X566166Y1871956D1*
X563292Y1871006D1*
X561391D1*
X558517Y1871956D1*
X557566Y1873880D1*
X1950905Y2075485D2*
X1959505D1*
X1962379Y2076457D1*
X1963352Y2077408D1*
X1964302Y2079309D1*
Y2081233D1*
X1963352Y2083134D1*
X1962379Y2084107D1*
X1959505Y2085057D1*
X1950905D1*
Y2064961D1*
X1957604Y2075485D2*
X1964302Y2064961D1*
X1970478Y2081210D2*
X1972402Y2082183D1*
X1975276Y2085035D1*
Y2064961D1*
X1987199Y2085035D2*
X1984325Y2084084D1*
X1982402Y2081210D1*
X1981451Y2076435D1*
Y2073561D1*
X1982402Y2068786D1*
X1984325Y2065912D1*
X1987199Y2064961D1*
X1989101D1*
X1991975Y2065912D1*
X1993876Y2068786D1*
X1994849Y2073561D1*
Y2076435D1*
X1993876Y2081210D1*
X1991975Y2084084D1*
X1989101Y2085035D1*
X1987199D1*
X1993876Y2081210D2*
X1982402Y2068786D1*
X2454815Y1143137D2*
X2463415D1*
X2466289Y1144109D1*
X2467262Y1145060D1*
X2468213Y1146961D1*
Y1148885D1*
X2467262Y1150786D1*
X2466289Y1151759D1*
X2463415Y1152709D1*
X2454815D1*
Y1132613D1*
X2461514Y1143137D2*
X2468213Y1132613D1*
X2474388Y1148863D2*
X2476312Y1149835D1*
X2479186Y1152687D1*
Y1132613D1*
X2485361Y1148863D2*
X2487285Y1149835D1*
X2490159Y1152687D1*
Y1132613D1*
X871085Y2050760D2*
X879685D1*
X882559Y2051733D1*
X883532Y2052683D1*
X884482Y2054585D1*
Y2056508D1*
X883532Y2058409D1*
X882559Y2059382D1*
X879685Y2060333D1*
X871085D1*
Y2040237D1*
X877784Y2050760D2*
X884482Y2040237D1*
X890658Y2056486D2*
X892581Y2057459D1*
X895455Y2060311D1*
Y2040237D1*
X902604Y2055535D2*
Y2056486D1*
X903554Y2058409D1*
X904505Y2059360D1*
X906428Y2060311D1*
X910253D1*
X912154Y2059360D1*
X913105Y2058409D1*
X914078Y2056486D1*
Y2054585D1*
X913105Y2052661D1*
X911204Y2049809D1*
X901631Y2040237D1*
X915028D1*
X727350Y2050760D2*
X735950D1*
X738824Y2051733D1*
X739797Y2052683D1*
X740747Y2054585D1*
Y2056508D1*
X739797Y2058409D1*
X738824Y2059382D1*
X735950Y2060333D1*
X727350D1*
Y2040237D1*
X734049Y2050760D2*
X740747Y2040237D1*
X746923Y2056486D2*
X748846Y2057459D1*
X751720Y2060311D1*
Y2040237D1*
X759820Y2060311D2*
X770321D1*
X764595Y2052661D1*
X767469D1*
X769370Y2051711D1*
X770321Y2050760D1*
X771294Y2047886D1*
Y2045985D1*
X770321Y2043111D1*
X768419Y2041187D1*
X765545Y2040237D1*
X762671D1*
X759820Y2041187D1*
X758869Y2042160D1*
X757896Y2044061D1*
X915262Y2423503D2*
X923862D1*
X926736Y2424476D1*
X927709Y2425426D1*
X928659Y2427328D1*
Y2429251D1*
X927709Y2431152D1*
X926736Y2432125D1*
X923862Y2433076D1*
X915262D1*
Y2412980D1*
X921961Y2423503D2*
X928659Y2412980D1*
X934835Y2429229D2*
X936758Y2430202D1*
X939632Y2433053D1*
Y2412980D1*
X955381D2*
Y2433053D1*
X945808Y2419678D1*
X960156D1*
X1152305Y2050760D2*
X1160905D1*
X1163779Y2051733D1*
X1164752Y2052683D1*
X1165703Y2054585D1*
Y2056508D1*
X1164752Y2058409D1*
X1163779Y2059382D1*
X1160905Y2060333D1*
X1152305D1*
Y2040237D1*
X1159004Y2050760D2*
X1165703Y2040237D1*
X1171878Y2056486D2*
X1173802Y2057459D1*
X1176676Y2060311D1*
Y2040237D1*
X1194326Y2060311D2*
X1184775D1*
X1183824Y2051711D1*
X1184775Y2052661D1*
X1187649Y2053634D1*
X1190501D1*
X1193375Y2052661D1*
X1195298Y2050760D1*
X1196249Y2047886D1*
Y2045985D1*
X1195298Y2043111D1*
X1193375Y2041187D1*
X1190501Y2040237D1*
X1187649D1*
X1184775Y2041187D1*
X1183824Y2042160D1*
X1182852Y2044061D1*
X2391634Y1142957D2*
X2400234D1*
X2403108Y1143930D1*
X2404081Y1144880D1*
X2405032Y1146782D1*
Y1148705D1*
X2404081Y1150606D1*
X2403108Y1151579D1*
X2400234Y1152530D1*
X2391634D1*
Y1132434D1*
X2398333Y1142957D2*
X2405032Y1132434D1*
X2411207Y1148683D2*
X2413131Y1149656D1*
X2416005Y1152508D1*
Y1132434D1*
X2433654Y1149656D2*
X2432704Y1151557D1*
X2429830Y1152508D1*
X2427928D1*
X2425054Y1151557D1*
X2423131Y1148683D1*
X2422180Y1143908D1*
Y1139132D1*
X2423131Y1135308D1*
X2425054Y1133384D1*
X2427928Y1132434D1*
X2428879D1*
X2431731Y1133384D1*
X2433654Y1135308D1*
X2434605Y1138182D1*
Y1139132D1*
X2433654Y1142006D1*
X2431731Y1143908D1*
X2428879Y1144858D1*
X2427928D1*
X2425054Y1143908D1*
X2423131Y1142006D1*
X2422180Y1139132D1*
X1515491Y1857330D2*
Y1865930D1*
X1514518Y1868804D1*
X1513568Y1869777D1*
X1511666Y1870728D1*
X1509743D1*
X1507842Y1869777D1*
X1506869Y1868804D1*
X1505918Y1865930D1*
Y1857330D1*
X1526014D1*
X1515491Y1864029D2*
X1526014Y1870728D1*
X1509765Y1876903D2*
X1508792Y1878827D1*
X1505941Y1881701D1*
X1526014D1*
Y1891701D2*
X1505941Y1901274D1*
Y1887877D1*
X1017956Y2050760D2*
X1026556D1*
X1029430Y2051733D1*
X1030402Y2052683D1*
X1031353Y2054585D1*
Y2056508D1*
X1030402Y2058409D1*
X1029430Y2059382D1*
X1026556Y2060333D1*
X1017956D1*
Y2040237D1*
X1024654Y2050760D2*
X1031353Y2040237D1*
X1037529Y2056486D2*
X1039452Y2057459D1*
X1042326Y2060311D1*
Y2040237D1*
X1053277Y2060311D2*
X1050425Y2059360D1*
X1049452Y2057459D1*
Y2055535D1*
X1050425Y2053634D1*
X1052326Y2052661D1*
X1056151Y2051711D1*
X1059025Y2050760D1*
X1060926Y2048837D1*
X1061877Y2046935D1*
Y2044061D1*
X1060926Y2042160D1*
X1059976Y2041187D1*
X1057102Y2040237D1*
X1053277D1*
X1050425Y2041187D1*
X1049452Y2042160D1*
X1048502Y2044061D1*
Y2046935D1*
X1049452Y2048837D1*
X1051376Y2050760D1*
X1054228Y2051711D1*
X1058052Y2052661D1*
X1059976Y2053634D1*
X1060926Y2055535D1*
Y2057459D1*
X1059976Y2059360D1*
X1057102Y2060311D1*
X1053277D1*
X2514064Y885044D2*
X2522664D1*
X2525538Y886016D1*
X2526511Y886967D1*
X2527462Y888868D1*
Y890792D1*
X2526511Y892693D1*
X2525538Y893666D1*
X2522664Y894616D1*
X2514064D1*
Y874520D1*
X2520763Y885044D2*
X2527462Y874520D1*
X2533637Y890769D2*
X2535561Y891742D1*
X2538435Y894594D1*
Y874520D1*
X2557057Y887918D2*
X2556084Y885044D1*
X2554183Y883120D1*
X2551309Y882170D1*
X2550358D1*
X2547484Y883120D1*
X2545583Y885044D1*
X2544610Y887918D1*
Y888868D1*
X2545583Y891742D1*
X2547484Y893644D1*
X2550358Y894594D1*
X2551309D1*
X2554183Y893644D1*
X2556084Y891742D1*
X2557057Y887918D1*
Y883120D1*
X2556084Y878345D1*
X2554183Y875471D1*
X2551309Y874520D1*
X2549408D1*
X2546534Y875471D1*
X2545583Y877394D1*
X2180078Y872544D2*
X2188678D1*
X2191552Y873516D1*
X2192524Y874467D1*
X2193475Y876368D1*
Y878292D1*
X2192524Y880193D1*
X2191552Y881166D1*
X2188678Y882116D1*
X2180078D1*
Y862020D1*
X2186776Y872544D2*
X2193475Y862020D1*
X2200623Y877319D2*
Y878269D1*
X2201574Y880193D1*
X2202525Y881144D1*
X2204448Y882094D1*
X2208273D1*
X2210174Y881144D1*
X2211125Y880193D1*
X2212097Y878269D1*
Y876368D1*
X2211125Y874445D1*
X2209223Y871593D1*
X2199651Y862020D1*
X2213048D1*
X2224972Y882094D2*
X2222098Y881144D1*
X2220174Y878269D1*
X2219224Y873494D1*
Y870620D1*
X2220174Y865845D1*
X2222098Y862971D1*
X2224972Y862020D1*
X2226873D1*
X2229747Y862971D1*
X2231648Y865845D1*
X2232621Y870620D1*
Y873494D1*
X2231648Y878269D1*
X2229747Y881144D1*
X2226873Y882094D1*
X2224972D1*
X2231648Y878269D2*
X2220174Y865845D1*
X1857338Y872545D2*
X1865938D1*
X1868812Y873518D1*
X1869785Y874468D1*
X1870736Y876370D1*
Y878293D1*
X1869785Y880194D1*
X1868812Y881167D1*
X1865938Y882118D1*
X1857338D1*
Y862022D1*
X1864037Y872545D2*
X1870736Y862022D1*
X1877884Y877320D2*
Y878271D1*
X1878835Y880194D1*
X1879785Y881145D1*
X1881709Y882095D1*
X1885533D1*
X1887435Y881145D1*
X1888385Y880194D1*
X1889358Y878271D1*
Y876370D1*
X1888385Y874446D1*
X1886484Y871594D1*
X1876911Y862022D1*
X1890309D1*
X1896484Y878271D2*
X1898408Y879244D1*
X1901282Y882095D1*
Y862022D1*
X1521643Y878789D2*
X1530243D1*
X1533117Y879762D1*
X1534090Y880712D1*
X1535041Y882614D1*
Y884537D1*
X1534090Y886438D1*
X1533117Y887411D1*
X1530243Y888362D1*
X1521643D1*
Y868266D1*
X1528342Y878789D2*
X1535041Y868266D1*
X1542189Y883564D2*
Y884515D1*
X1543140Y886438D1*
X1544090Y887389D1*
X1546014Y888340D1*
X1549838D1*
X1551740Y887389D1*
X1552690Y886438D1*
X1553663Y884515D1*
Y882614D1*
X1552690Y880690D1*
X1550789Y877838D1*
X1541216Y868266D1*
X1554614D1*
X1561762Y883564D2*
Y884515D1*
X1562713Y886438D1*
X1563663Y887389D1*
X1565587Y888340D1*
X1569411D1*
X1571313Y887389D1*
X1572263Y886438D1*
X1573236Y884515D1*
Y882614D1*
X1572263Y880690D1*
X1570362Y877838D1*
X1560789Y868266D1*
X1574187D1*
X1887057Y2240922D2*
X1895657D1*
X1898531Y2241894D1*
X1899503Y2242845D1*
X1900454Y2244746D1*
Y2246670D1*
X1899503Y2248571D1*
X1898531Y2249544D1*
X1895657Y2250494D1*
X1887057D1*
Y2230398D1*
X1893755Y2240922D2*
X1900454Y2230398D1*
X1907602Y2245697D2*
Y2246647D1*
X1908553Y2248571D1*
X1909504Y2249521D1*
X1911427Y2250472D1*
X1915252D1*
X1917153Y2249521D1*
X1918104Y2248571D1*
X1919076Y2246647D1*
Y2244746D1*
X1918104Y2242823D1*
X1916202Y2239971D1*
X1906630Y2230398D1*
X1920027D1*
X1928126Y2250472D2*
X1938627D1*
X1932901Y2242823D1*
X1935775D1*
X1937677Y2241872D1*
X1938627Y2240922D1*
X1939600Y2238048D1*
Y2236146D1*
X1938627Y2233272D1*
X1936726Y2231349D1*
X1933852Y2230398D1*
X1930978D1*
X1928126Y2231349D1*
X1927175Y2232322D1*
X1926203Y2234223D1*
X1790045Y2241292D2*
X1798645D1*
X1801519Y2242264D1*
X1802491Y2243215D1*
X1803442Y2245116D1*
Y2247040D1*
X1802491Y2248941D1*
X1801519Y2249914D1*
X1798645Y2250864D1*
X1790045D1*
Y2230768D1*
X1796743Y2241292D2*
X1803442Y2230768D1*
X1810590Y2246067D2*
Y2247018D1*
X1811541Y2248941D1*
X1812492Y2249892D1*
X1814415Y2250842D1*
X1818240D1*
X1820141Y2249892D1*
X1821092Y2248941D1*
X1822064Y2247018D1*
Y2245116D1*
X1821092Y2243193D1*
X1819190Y2240341D1*
X1809618Y2230768D1*
X1823015D1*
X1838763D2*
Y2250842D1*
X1829191Y2237467D1*
X1843539D1*
X1696431Y2072188D2*
X1705031D1*
X1707905Y2073161D1*
X1708877Y2074111D1*
X1709828Y2076013D1*
Y2077936D1*
X1708877Y2079837D1*
X1707905Y2080810D1*
X1705031Y2081761D1*
X1696431D1*
Y2061665D1*
X1703129Y2072188D2*
X1709828Y2061665D1*
X1716976Y2076963D2*
Y2077914D1*
X1717927Y2079837D1*
X1718878Y2080788D1*
X1720801Y2081739D1*
X1724626D1*
X1726527Y2080788D1*
X1727478Y2079837D1*
X1728450Y2077914D1*
Y2076013D1*
X1727478Y2074089D1*
X1725576Y2071237D1*
X1716004Y2061665D1*
X1729401D1*
X1747051Y2081739D2*
X1737500D1*
X1736549Y2073139D1*
X1737500Y2074089D1*
X1740374Y2075062D1*
X1743226D1*
X1746100Y2074089D1*
X1748023Y2072188D1*
X1748974Y2069314D1*
Y2067413D1*
X1748023Y2064539D1*
X1746100Y2062615D1*
X1743226Y2061665D1*
X1740374D1*
X1737500Y2062615D1*
X1736549Y2063588D1*
X1735577Y2065489D1*
X1595434Y2241292D2*
X1604034D1*
X1606908Y2242264D1*
X1607881Y2243215D1*
X1608831Y2245116D1*
Y2247040D1*
X1607881Y2248941D1*
X1606908Y2249914D1*
X1604034Y2250864D1*
X1595434D1*
Y2230768D1*
X1602133Y2241292D2*
X1608831Y2230768D1*
X1615980Y2246067D2*
Y2247018D1*
X1616930Y2248941D1*
X1617881Y2249892D1*
X1619805Y2250842D1*
X1623629D1*
X1625530Y2249892D1*
X1626481Y2248941D1*
X1627454Y2247018D1*
Y2245116D1*
X1626481Y2243193D1*
X1624580Y2240341D1*
X1615007Y2230768D1*
X1628404D1*
X1646054Y2247990D2*
X1645103Y2249892D1*
X1642229Y2250842D1*
X1640328D1*
X1637454Y2249892D1*
X1635531Y2247018D1*
X1634580Y2242242D1*
Y2237467D1*
X1635531Y2233642D1*
X1637454Y2231719D1*
X1640328Y2230768D1*
X1641279D1*
X1644131Y2231719D1*
X1646054Y2233642D1*
X1647005Y2236516D1*
Y2237467D1*
X1646054Y2240341D1*
X1644131Y2242242D1*
X1641279Y2243193D1*
X1640328D1*
X1637454Y2242242D1*
X1635531Y2240341D1*
X1634580Y2237467D1*
X2221937Y2163877D2*
Y2172477D1*
X2220965Y2175351D1*
X2220014Y2176324D1*
X2218113Y2177274D1*
X2216189D1*
X2214288Y2176324D1*
X2213315Y2175351D1*
X2212365Y2172477D1*
Y2163877D1*
X2232461D1*
X2221937Y2170576D2*
X2232461Y2177274D1*
X2217162Y2184423D2*
X2216211D1*
X2214288Y2185373D1*
X2213337Y2186324D1*
X2212387Y2188247D1*
Y2192072D1*
X2213337Y2193973D1*
X2214288Y2194924D1*
X2216211Y2195897D1*
X2218113D1*
X2220036Y2194924D1*
X2222888Y2193023D1*
X2232461Y2183450D1*
Y2196847D1*
Y2206848D2*
X2212387Y2216420D1*
Y2203023D1*
X2048271Y2238344D2*
X2056871D1*
X2059745Y2239317D1*
X2060718Y2240267D1*
X2061668Y2242169D1*
Y2244092D1*
X2060718Y2245993D1*
X2059745Y2246966D1*
X2056871Y2247917D1*
X2048271D1*
Y2227821D1*
X2054970Y2238344D2*
X2061668Y2227821D1*
X2068817Y2243119D2*
Y2244070D1*
X2069768Y2245993D1*
X2070718Y2246944D1*
X2072642Y2247895D1*
X2076466D1*
X2078367Y2246944D1*
X2079318Y2245993D1*
X2080291Y2244070D1*
Y2242169D1*
X2079318Y2240245D1*
X2077417Y2237393D1*
X2067844Y2227821D1*
X2081241D1*
X2092192Y2247895D2*
X2089341Y2246944D1*
X2088368Y2245043D1*
Y2243119D1*
X2089341Y2241218D1*
X2091242Y2240245D1*
X2095066Y2239295D1*
X2097940Y2238344D1*
X2099842Y2236421D1*
X2100792Y2234519D1*
Y2231645D1*
X2099842Y2229744D1*
X2098891Y2228771D1*
X2096017Y2227821D1*
X2092192D1*
X2089341Y2228771D1*
X2088368Y2229744D1*
X2087417Y2231645D1*
Y2234519D1*
X2088368Y2236421D1*
X2090291Y2238344D1*
X2093143Y2239295D1*
X2096968Y2240245D1*
X2098891Y2241218D1*
X2099842Y2243119D1*
Y2245043D1*
X2098891Y2246944D1*
X2096017Y2247895D1*
X2092192D1*
X1441487Y787261D2*
X1450087D1*
X1452961Y788234D1*
X1453934Y789185D1*
X1454885Y791086D1*
Y793009D1*
X1453934Y794911D1*
X1452961Y795883D1*
X1450087Y796834D1*
X1441487D1*
Y776738D1*
X1448186Y787261D2*
X1454885Y776738D1*
X1462033Y792037D2*
Y792987D1*
X1462984Y794911D1*
X1463934Y795861D1*
X1465858Y796812D1*
X1469682D1*
X1471584Y795861D1*
X1472534Y794911D1*
X1473507Y792987D1*
Y791086D1*
X1472534Y789163D1*
X1470633Y786311D1*
X1461060Y776738D1*
X1474458D1*
X1493080Y790135D2*
X1492107Y787261D1*
X1490206Y785338D1*
X1487332Y784387D1*
X1486381D1*
X1483507Y785338D1*
X1481606Y787261D1*
X1480633Y790135D1*
Y791086D1*
X1481606Y793960D1*
X1483507Y795861D1*
X1486381Y796812D1*
X1487332D1*
X1490206Y795861D1*
X1492107Y793960D1*
X1493080Y790135D1*
Y785338D1*
X1492107Y780563D1*
X1490206Y777689D1*
X1487332Y776738D1*
X1485431D1*
X1482557Y777689D1*
X1481606Y779612D1*
X1437882Y613158D2*
X1446482D1*
X1449356Y614130D1*
X1450329Y615081D1*
X1451279Y616982D1*
Y618906D1*
X1450329Y620807D1*
X1449356Y621780D1*
X1446482Y622730D1*
X1437882D1*
Y602634D1*
X1444581Y613158D2*
X1451279Y602634D1*
X1459379Y622708D2*
X1469880D1*
X1464154Y615059D1*
X1467028D1*
X1468929Y614108D1*
X1469880Y613158D1*
X1470852Y610284D1*
Y608382D1*
X1469880Y605508D1*
X1467978Y603585D1*
X1465104Y602634D1*
X1462230D1*
X1459379Y603585D1*
X1458428Y604558D1*
X1457455Y606459D1*
X1482776Y622708D2*
X1479902Y621758D1*
X1477979Y618884D1*
X1477028Y614108D1*
Y611234D1*
X1477979Y606459D1*
X1479902Y603585D1*
X1482776Y602634D1*
X1484677D1*
X1487551Y603585D1*
X1489453Y606459D1*
X1490425Y611234D1*
Y614108D1*
X1489453Y618884D1*
X1487551Y621758D1*
X1484677Y622708D1*
X1482776D1*
X1489453Y618884D2*
X1477979Y606459D1*
X1018651Y784815D2*
X1027251D1*
X1030125Y785788D1*
X1031097Y786739D1*
X1032048Y788640D1*
Y790563D1*
X1031097Y792465D1*
X1030125Y793437D1*
X1027251Y794388D1*
X1018651D1*
Y774292D1*
X1025349Y784815D2*
X1032048Y774292D1*
X1040147Y794366D2*
X1050648D1*
X1044922Y786716D1*
X1047796D1*
X1049698Y785766D1*
X1050648Y784815D1*
X1051621Y781941D1*
Y780040D1*
X1050648Y777166D1*
X1048747Y775243D1*
X1045873Y774292D1*
X1042999D1*
X1040147Y775243D1*
X1039196Y776215D1*
X1038224Y778117D1*
X1057797Y790541D2*
X1059720Y791514D1*
X1062594Y794366D1*
Y774292D1*
X1775419Y790387D2*
X1784019D1*
X1786893Y791360D1*
X1787866Y792311D1*
X1788816Y794212D1*
Y796135D1*
X1787866Y798037D1*
X1786893Y799009D1*
X1784019Y799960D1*
X1775419D1*
Y779864D1*
X1782118Y790387D2*
X1788816Y779864D1*
X1796915Y799938D2*
X1807416D1*
X1801691Y792289D1*
X1804565D1*
X1806466Y791338D1*
X1807416Y790387D1*
X1808389Y787513D1*
Y785612D1*
X1807416Y782738D1*
X1805515Y780815D1*
X1802641Y779864D1*
X1799767D1*
X1796915Y780815D1*
X1795965Y781787D1*
X1794992Y783689D1*
X1815538Y795163D2*
Y796113D1*
X1816488Y798037D1*
X1817439Y798987D1*
X1819362Y799938D1*
X1823187D1*
X1825088Y798987D1*
X1826039Y798037D1*
X1827012Y796113D1*
Y794212D1*
X1826039Y792289D1*
X1824138Y789437D1*
X1814565Y779864D1*
X1827962D1*
X1775418Y613158D2*
X1784017D1*
X1786891Y614130D1*
X1787864Y615081D1*
X1788815Y616982D1*
Y618906D1*
X1787864Y620807D1*
X1786891Y621780D1*
X1784017Y622730D1*
X1775418D1*
Y602634D1*
X1782116Y613158D2*
X1788815Y602634D1*
X1796914Y622708D2*
X1807415D1*
X1801689Y615059D1*
X1804563D1*
X1806465Y614108D1*
X1807415Y613158D1*
X1808388Y610284D1*
Y608382D1*
X1807415Y605508D1*
X1805514Y603585D1*
X1802640Y602634D1*
X1799766D1*
X1796914Y603585D1*
X1795963Y604558D1*
X1794991Y606459D1*
X1816487Y622708D2*
X1826988D1*
X1821262Y615059D1*
X1824136D1*
X1826038Y614108D1*
X1826988Y613158D1*
X1827961Y610284D1*
Y608382D1*
X1826988Y605508D1*
X1825087Y603585D1*
X1822213Y602634D1*
X1819339D1*
X1816487Y603585D1*
X1815536Y604558D1*
X1814564Y606459D1*
X2114307Y774760D2*
X2122907D1*
X2125781Y775733D1*
X2126754Y776683D1*
X2127704Y778585D1*
Y780508D1*
X2126754Y782409D1*
X2125781Y783382D1*
X2122907Y784333D1*
X2114307D1*
Y764237D1*
X2121006Y774760D2*
X2127704Y764237D1*
X2135803Y784311D2*
X2146305D1*
X2140579Y776661D1*
X2143453D1*
X2145354Y775711D1*
X2146305Y774760D1*
X2147277Y771886D1*
Y769985D1*
X2146305Y767111D1*
X2144403Y765187D1*
X2141529Y764237D1*
X2138655D1*
X2135803Y765187D1*
X2134853Y766160D1*
X2133880Y768061D1*
X2163026Y764237D2*
Y784311D1*
X2153453Y770935D1*
X2167801D1*
X2112953Y610033D2*
X2121553D1*
X2124427Y611006D1*
X2125400Y611956D1*
X2126350Y613858D1*
Y615781D1*
X2125400Y617682D1*
X2124427Y618655D1*
X2121553Y619606D1*
X2112953D1*
Y599510D1*
X2119652Y610033D2*
X2126350Y599510D1*
X2134449Y619584D2*
X2144951D1*
X2139225Y611934D1*
X2142099D1*
X2144000Y610984D1*
X2144951Y610033D1*
X2145923Y607159D1*
Y605258D1*
X2144951Y602384D1*
X2143049Y600460D1*
X2140175Y599510D1*
X2137301D1*
X2134449Y600460D1*
X2133499Y601433D1*
X2132526Y603334D1*
X2163573Y619584D2*
X2154022D1*
X2153072Y610984D1*
X2154022Y611934D1*
X2156896Y612907D1*
X2159748D1*
X2162622Y611934D1*
X2164546Y610033D1*
X2165496Y607159D1*
Y605258D1*
X2164546Y602384D1*
X2162622Y600460D1*
X2159748Y599510D1*
X2156896D1*
X2154022Y600460D1*
X2153072Y601433D1*
X2152099Y603334D1*
X2448763Y775675D2*
X2457363D1*
X2460237Y776648D1*
X2461210Y777598D1*
X2462161Y779499D1*
Y781423D1*
X2461210Y783324D1*
X2460237Y784297D1*
X2457363Y785247D1*
X2448763D1*
Y765151D1*
X2455462Y775675D2*
X2462161Y765151D1*
X2470260Y785225D2*
X2480761D1*
X2475035Y777576D1*
X2477909D1*
X2479810Y776625D1*
X2480761Y775675D1*
X2481734Y772801D1*
Y770900D1*
X2480761Y768026D1*
X2478860Y766102D1*
X2475986Y765151D1*
X2473112D1*
X2470260Y766102D1*
X2469309Y767075D1*
X2468337Y768976D1*
X2499384Y782373D2*
X2498433Y784275D1*
X2495559Y785225D1*
X2493658D1*
X2490784Y784275D1*
X2488860Y781401D1*
X2487910Y776625D1*
Y771850D1*
X2488860Y768026D1*
X2490784Y766102D1*
X2493658Y765151D1*
X2494608D1*
X2497460Y766102D1*
X2499384Y768026D1*
X2500334Y770900D1*
Y771850D1*
X2499384Y774724D1*
X2497460Y776625D1*
X2494608Y777576D1*
X2493658D1*
X2490784Y776625D1*
X2488860Y774724D1*
X2487910Y771850D1*
X2448278Y619408D2*
X2456878D1*
X2459752Y620381D1*
X2460725Y621332D1*
X2461676Y623233D1*
Y625156D1*
X2460725Y627058D1*
X2459752Y628030D1*
X2456878Y628981D1*
X2448278D1*
Y608885D1*
X2454977Y619408D2*
X2461676Y608885D1*
X2469775Y628959D2*
X2480276D1*
X2474550Y621310D1*
X2477424D1*
X2479325Y620359D1*
X2480276Y619408D1*
X2481249Y616534D1*
Y614633D1*
X2480276Y611759D1*
X2478375Y609836D1*
X2475501Y608885D1*
X2472627D1*
X2469775Y609836D1*
X2468824Y610808D1*
X2467851Y612710D1*
X2491249Y608885D2*
X2500822Y628959D1*
X2487424D1*
X1851936Y1144781D2*
X1860536D1*
X1863410Y1145754D1*
X1864383Y1146704D1*
X1865334Y1148606D1*
Y1150529D1*
X1864383Y1152430D1*
X1863410Y1153403D1*
X1860536Y1154354D1*
X1851936D1*
Y1134258D1*
X1858635Y1144781D2*
X1865334Y1134258D1*
X1873433Y1154332D2*
X1883934D1*
X1878208Y1146682D1*
X1881082D1*
X1882983Y1145732D1*
X1883934Y1144781D1*
X1884907Y1141907D1*
Y1140006D1*
X1883934Y1137132D1*
X1882033Y1135208D1*
X1879159Y1134258D1*
X1876285D1*
X1873433Y1135208D1*
X1872482Y1136181D1*
X1871509Y1138082D1*
X1895858Y1154332D2*
X1893006Y1153381D1*
X1892033Y1151480D1*
Y1149556D1*
X1893006Y1147655D1*
X1894907Y1146682D1*
X1898732Y1145732D1*
X1901606Y1144781D1*
X1903507Y1142858D1*
X1904458Y1140956D1*
Y1138082D1*
X1903507Y1136181D1*
X1902556Y1135208D1*
X1899682Y1134258D1*
X1895858D1*
X1893006Y1135208D1*
X1892033Y1136181D1*
X1891083Y1138082D1*
Y1140956D1*
X1892033Y1142858D1*
X1893957Y1144781D1*
X1896808Y1145732D1*
X1900633Y1146682D1*
X1902556Y1147655D1*
X1903507Y1149556D1*
Y1151480D1*
X1902556Y1153381D1*
X1899682Y1154332D1*
X1895858D1*
X1789895Y1144781D2*
X1798495D1*
X1801369Y1145754D1*
X1802342Y1146704D1*
X1803293Y1148606D1*
Y1150529D1*
X1802342Y1152430D1*
X1801369Y1153403D1*
X1798495Y1154354D1*
X1789895D1*
Y1134258D1*
X1796594Y1144781D2*
X1803293Y1134258D1*
X1811392Y1154332D2*
X1821893D1*
X1816167Y1146682D1*
X1819041D1*
X1820942Y1145732D1*
X1821893Y1144781D1*
X1822866Y1141907D1*
Y1140006D1*
X1821893Y1137132D1*
X1819992Y1135208D1*
X1817118Y1134258D1*
X1814244D1*
X1811392Y1135208D1*
X1810441Y1136181D1*
X1809469Y1138082D1*
X1841488Y1147655D2*
X1840515Y1144781D1*
X1838614Y1142858D1*
X1835740Y1141907D1*
X1834790D1*
X1831916Y1142858D1*
X1830014Y1144781D1*
X1829042Y1147655D1*
Y1148606D1*
X1830014Y1151480D1*
X1831916Y1153381D1*
X1834790Y1154332D1*
X1835740D1*
X1838614Y1153381D1*
X1840515Y1151480D1*
X1841488Y1147655D1*
Y1142858D1*
X1840515Y1138082D1*
X1838614Y1135208D1*
X1835740Y1134258D1*
X1833839D1*
X1830965Y1135208D1*
X1830014Y1137132D1*
X2597592Y1263158D2*
X2606192D1*
X2609066Y1264130D1*
X2610039Y1265081D1*
X2610989Y1266982D1*
Y1268906D1*
X2610039Y1270807D1*
X2609066Y1271780D1*
X2606192Y1272730D1*
X2597592D1*
Y1252634D1*
X2604290Y1263158D2*
X2610989Y1252634D1*
X2626738D2*
Y1272708D1*
X2617165Y1259333D1*
X2631513D1*
X2643437Y1272708D2*
X2640563Y1271758D1*
X2638639Y1268884D1*
X2637689Y1264108D1*
Y1261234D1*
X2638639Y1256459D1*
X2640563Y1253585D1*
X2643437Y1252634D1*
X2645338D1*
X2648212Y1253585D1*
X2650113Y1256459D1*
X2651086Y1261234D1*
Y1264108D1*
X2650113Y1268884D1*
X2648212Y1271758D1*
X2645338Y1272708D1*
X2643437D1*
X2650113Y1268884D2*
X2638639Y1256459D1*
X2608142Y1166289D2*
X2616742D1*
X2619616Y1167262D1*
X2620589Y1168212D1*
X2621540Y1170114D1*
Y1172037D1*
X2620589Y1173938D1*
X2619616Y1174911D1*
X2616742Y1175862D1*
X2608142D1*
Y1155766D1*
X2614841Y1166289D2*
X2621540Y1155766D1*
X2637288D2*
Y1175840D1*
X2627715Y1162464D1*
X2642063D1*
X2648239Y1172015D2*
X2650163Y1172988D1*
X2653037Y1175840D1*
Y1155766D1*
X2597601Y1072536D2*
X2606201D1*
X2609075Y1073508D1*
X2610048Y1074459D1*
X2610998Y1076360D1*
Y1078284D1*
X2610048Y1080185D1*
X2609075Y1081158D1*
X2606201Y1082108D1*
X2597601D1*
Y1062012D1*
X2604300Y1072536D2*
X2610998Y1062012D1*
X2626747D2*
Y1082086D1*
X2617174Y1068711D1*
X2631522D1*
X2638670Y1077311D2*
Y1078262D1*
X2639621Y1080185D1*
X2640572Y1081136D1*
X2642495Y1082086D1*
X2646320D1*
X2648221Y1081136D1*
X2649172Y1080185D1*
X2650144Y1078262D1*
Y1076360D1*
X2649172Y1074437D1*
X2647270Y1071585D1*
X2637698Y1062012D1*
X2651095D1*
X2450724Y2166285D2*
X2459324D1*
X2462198Y2167258D1*
X2463171Y2168208D1*
X2464122Y2170110D1*
Y2172033D1*
X2463171Y2173934D1*
X2462198Y2174907D1*
X2459324Y2175858D1*
X2450724D1*
Y2155762D1*
X2457423Y2166285D2*
X2464122Y2155762D1*
X2479870D2*
Y2175836D1*
X2470297Y2162460D1*
X2484645D1*
X2492744Y2175836D2*
X2503246D1*
X2497520Y2168186D1*
X2500394D1*
X2502295Y2167236D1*
X2503246Y2166285D1*
X2504218Y2163411D1*
Y2161510D1*
X2503246Y2158636D1*
X2501344Y2156712D1*
X2498470Y2155762D1*
X2495596D1*
X2492744Y2156712D1*
X2491794Y2157685D1*
X2490821Y2159586D1*
X2447126Y2075664D2*
X2455726D1*
X2458600Y2076637D1*
X2459572Y2077588D1*
X2460523Y2079489D1*
Y2081412D1*
X2459572Y2083314D1*
X2458600Y2084286D1*
X2455726Y2085237D1*
X2447126D1*
Y2065141D1*
X2453824Y2075664D2*
X2460523Y2065141D1*
X2476271D2*
Y2085215D1*
X2466699Y2071840D1*
X2481047D1*
X2496795Y2065141D2*
Y2085215D1*
X2487222Y2071840D1*
X2501570D1*
X2450962Y1997700D2*
X2459562D1*
X2462436Y1998672D1*
X2463409Y1999623D1*
X2464359Y2001524D1*
Y2003448D1*
X2463409Y2005349D1*
X2462436Y2006322D1*
X2459562Y2007272D1*
X2450962D1*
Y1987176D1*
X2457661Y1997700D2*
X2464359Y1987176D1*
X2480108D2*
Y2007250D1*
X2470535Y1993875D1*
X2484883D1*
X2502533Y2007250D2*
X2492982D1*
X2492031Y1998650D1*
X2492982Y1999601D1*
X2495856Y2000574D1*
X2498708D1*
X2501582Y1999601D1*
X2503505Y1997700D1*
X2504456Y1994826D1*
Y1992924D1*
X2503505Y1990050D1*
X2501582Y1988127D1*
X2498708Y1987176D1*
X2495856D1*
X2492982Y1988127D1*
X2492031Y1989100D1*
X2491059Y1991001D1*
X2547843Y2474603D2*
X2556443D1*
X2559317Y2475575D1*
X2560290Y2476526D1*
X2561241Y2478427D1*
Y2480351D1*
X2560290Y2482252D1*
X2559317Y2483225D1*
X2556443Y2484175D1*
X2547843D1*
Y2464079D1*
X2554542Y2474603D2*
X2561241Y2464079D1*
X2576989D2*
Y2484153D1*
X2567416Y2470778D1*
X2581764D1*
X2599414Y2481301D2*
X2598463Y2483203D1*
X2595589Y2484153D1*
X2593688D1*
X2590814Y2483203D1*
X2588891Y2480329D1*
X2587940Y2475553D1*
Y2470778D1*
X2588891Y2466953D1*
X2590814Y2465030D1*
X2593688Y2464079D1*
X2594639D1*
X2597491Y2465030D1*
X2599414Y2466953D1*
X2600365Y2469827D1*
Y2470778D1*
X2599414Y2473652D1*
X2597491Y2475553D1*
X2594639Y2476504D1*
X2593688D1*
X2590814Y2475553D1*
X2588891Y2473652D1*
X2587940Y2470778D1*
X2633698Y1464739D2*
X2642298D1*
X2645172Y1465712D1*
X2646145Y1466662D1*
X2647095Y1468564D1*
Y1470487D1*
X2646145Y1472388D1*
X2645172Y1473361D1*
X2642298Y1474312D1*
X2633698D1*
Y1454216D1*
X2640397Y1464739D2*
X2647095Y1454216D1*
X2662844D2*
Y1474290D1*
X2653271Y1460914D1*
X2667619D1*
X2677619Y1454216D2*
X2687192Y1474290D1*
X2673795D1*
X2399812Y2473656D2*
X2408411D1*
X2411285Y2474629D1*
X2412258Y2475580D1*
X2413209Y2477481D1*
Y2479404D1*
X2412258Y2481306D1*
X2411285Y2482278D1*
X2408411Y2483229D1*
X2399812D1*
Y2463133D1*
X2406510Y2473656D2*
X2413209Y2463133D1*
X2428957D2*
Y2483207D1*
X2419385Y2469832D1*
X2433733D1*
X2444684Y2483207D2*
X2441832Y2482256D1*
X2440859Y2480355D1*
Y2478432D1*
X2441832Y2476530D1*
X2443733Y2475558D1*
X2447558Y2474607D1*
X2450432Y2473656D1*
X2452333Y2471733D1*
X2453283Y2469832D1*
Y2466958D1*
X2452333Y2465056D1*
X2451382Y2464084D1*
X2448508Y2463133D1*
X2444684D1*
X2441832Y2464084D1*
X2440859Y2465056D1*
X2439908Y2466958D1*
Y2469832D1*
X2440859Y2471733D1*
X2442782Y2473656D1*
X2445634Y2474607D1*
X2449459Y2475558D1*
X2451382Y2476530D1*
X2452333Y2478432D1*
Y2480355D1*
X2451382Y2482256D1*
X2448508Y2483207D1*
X2444684D1*
X886038Y635032D2*
X894638D1*
X897512Y636005D1*
X898485Y636955D1*
X899436Y638856D1*
Y640780D1*
X898485Y642681D1*
X897512Y643654D1*
X894638Y644604D1*
X886038D1*
Y624508D1*
X892737Y635032D2*
X899436Y624508D1*
X915184D2*
Y644582D1*
X905611Y631207D1*
X919959D1*
X938582Y637906D2*
X937609Y635032D1*
X935708Y633108D1*
X932834Y632158D1*
X931883D1*
X929009Y633108D1*
X927108Y635032D1*
X926135Y637906D1*
Y638856D1*
X927108Y641730D1*
X929009Y643632D1*
X931883Y644582D1*
X932834D1*
X935708Y643632D1*
X937609Y641730D1*
X938582Y637906D1*
Y633108D1*
X937609Y628333D1*
X935708Y625459D1*
X932834Y624508D1*
X930932D1*
X928058Y625459D1*
X927108Y627382D1*
X1331893Y1881733D2*
X1340493D1*
X1343367Y1882705D1*
X1344340Y1883656D1*
X1345291Y1885557D1*
Y1887481D1*
X1344340Y1889382D1*
X1343367Y1890355D1*
X1340493Y1891305D1*
X1331893D1*
Y1871209D1*
X1338592Y1881733D2*
X1345291Y1871209D1*
X1363891Y1891305D2*
X1351466D1*
Y1871209D1*
X1363891D1*
X1351466Y1881733D2*
X1359116D1*
X1383464Y1888431D2*
X1381563Y1890355D1*
X1378689Y1891305D1*
X1374864D1*
X1371990Y1890355D1*
X1370067Y1888431D1*
Y1886530D1*
X1371039Y1884607D1*
X1371990Y1883656D1*
X1373891Y1882705D1*
X1379639Y1880782D1*
X1381563Y1879831D1*
X1382513Y1878859D1*
X1383464Y1876957D1*
Y1874083D1*
X1381563Y1872182D1*
X1378689Y1871209D1*
X1374864D1*
X1371990Y1872182D1*
X1370067Y1874083D1*
X1402064Y1891305D2*
X1389640D1*
Y1871209D1*
X1402064D1*
X1389640Y1881733D2*
X1397289D1*
X1414939Y1891305D2*
Y1871209D1*
X1408240Y1891305D2*
X1421637D1*
X1622446Y466393D2*
X1620545Y468317D1*
X1617671Y469267D1*
X1613846D1*
X1610972Y468317D1*
X1609049Y466393D1*
Y464492D1*
X1610022Y462569D1*
X1610972Y461618D1*
X1612873Y460667D1*
X1618621Y458744D1*
X1620545Y457793D1*
X1621495Y456820D1*
X1622446Y454919D1*
Y452045D1*
X1620545Y450144D1*
X1617671Y449171D1*
X1613846D1*
X1610972Y450144D1*
X1609049Y452045D1*
X1628622Y469267D2*
X1633419Y449171D1*
X1638194Y469267D1*
X1642970Y449171D1*
X1647767Y469267D1*
X1659691Y469245D2*
X1656817Y468294D1*
X1654893Y465420D1*
X1653943Y460645D1*
Y457771D1*
X1654893Y452996D1*
X1656817Y450122D1*
X1659691Y449171D1*
X1661592D1*
X1664466Y450122D1*
X1666367Y452996D1*
X1667340Y457771D1*
Y460645D1*
X1666367Y465420D1*
X1664466Y468294D1*
X1661592Y469245D1*
X1659691D1*
X1666367Y465420D2*
X1654893Y452996D1*
X1961093Y462108D2*
X1959191Y464032D1*
X1956317Y464982D1*
X1952493D1*
X1949619Y464032D1*
X1947695Y462108D1*
Y460207D1*
X1948668Y458284D1*
X1949619Y457333D1*
X1951520Y456382D1*
X1957268Y454459D1*
X1959191Y453508D1*
X1960142Y452536D1*
X1961093Y450634D1*
Y447760D1*
X1959191Y445859D1*
X1956317Y444886D1*
X1952493D1*
X1949619Y445859D1*
X1947695Y447760D1*
X1967268Y464982D2*
X1972066Y444886D1*
X1976841Y464982D1*
X1981616Y444886D1*
X1986414Y464982D1*
X1992589Y461136D2*
X1994513Y462108D1*
X1997387Y464960D1*
Y444886D1*
X2297564Y459967D2*
X2295663Y461890D1*
X2292789Y462841D1*
X2288964D1*
X2286090Y461890D1*
X2284167Y459967D1*
Y458065D1*
X2285140Y456142D1*
X2286090Y455191D1*
X2287992Y454241D1*
X2293740Y452317D1*
X2295663Y451367D1*
X2296614Y450394D1*
X2297564Y448493D1*
Y445619D1*
X2295663Y443717D1*
X2292789Y442745D1*
X2288964D1*
X2286090Y443717D1*
X2284167Y445619D1*
X2303740Y462841D2*
X2308537Y442745D1*
X2313313Y462841D1*
X2318088Y442745D1*
X2322885Y462841D1*
X2330034Y458043D2*
Y458994D1*
X2330984Y460917D1*
X2331935Y461868D1*
X2333858Y462819D1*
X2337683D1*
X2339584Y461868D1*
X2340535Y460917D1*
X2341508Y458994D1*
Y457093D1*
X2340535Y455169D1*
X2338634Y452317D1*
X2329061Y442745D1*
X2342458D1*
X2635123Y461038D2*
X2633222Y462961D1*
X2630348Y463912D1*
X2626523D1*
X2623649Y462961D1*
X2621726Y461038D1*
Y459136D1*
X2622699Y457213D1*
X2623649Y456262D1*
X2625551Y455312D1*
X2631299Y453388D1*
X2633222Y452438D1*
X2634173Y451465D1*
X2635123Y449564D1*
Y446690D1*
X2633222Y444788D1*
X2630348Y443816D1*
X2626523D1*
X2623649Y444788D1*
X2621726Y446690D1*
X2641299Y463912D2*
X2646096Y443816D1*
X2650872Y463912D1*
X2655647Y443816D1*
X2660444Y463912D1*
X2668543Y463889D2*
X2679045D1*
X2673319Y456240D1*
X2676193D1*
X2678094Y455289D1*
X2679045Y454339D1*
X2680017Y451465D1*
Y449564D1*
X2679045Y446690D1*
X2677143Y444766D1*
X2674269Y443816D1*
X2671395D1*
X2668543Y444766D1*
X2667593Y445739D1*
X2666620Y447640D1*
X2146595Y1700322D2*
Y1685974D1*
X2147545Y1683100D1*
X2149469Y1681199D1*
X2152343Y1680226D1*
X2154244D1*
X2157118Y1681199D1*
X2159041Y1683100D1*
X2159992Y1685974D1*
Y1700322D1*
X2166168Y1696476D2*
X2168091Y1697448D1*
X2170965Y1700300D1*
Y1680226D1*
X2093384Y1373698D2*
Y1353602D1*
X2104858D1*
X2111034Y1363175D2*
X2119656D1*
X2122508Y1364126D1*
X2123480Y1365098D1*
X2124431Y1367000D1*
Y1369874D1*
X2123480Y1371775D1*
X2122508Y1372748D1*
X2119656Y1373698D1*
X2111034D1*
Y1353602D1*
X2144955Y1368923D2*
X2144004Y1370824D1*
X2142081Y1372748D1*
X2140179Y1373698D1*
X2136355D1*
X2134431Y1372748D1*
X2132530Y1370824D1*
X2131557Y1368923D1*
X2130607Y1366049D1*
Y1361252D1*
X2131557Y1358400D1*
X2132530Y1356476D1*
X2134431Y1354575D1*
X2136355Y1353602D1*
X2140179D1*
X2142081Y1354575D1*
X2144004Y1356476D1*
X2144955Y1358400D1*
X2160703Y1353602D2*
Y1373676D1*
X2151130Y1360301D1*
X2165478D1*
X2177402Y1373676D2*
X2174528Y1372726D1*
X2172605Y1369852D1*
X2171654Y1365076D1*
Y1362202D1*
X2172605Y1357427D1*
X2174528Y1354553D1*
X2177402Y1353602D1*
X2179303D1*
X2182177Y1354553D1*
X2184079Y1357427D1*
X2185051Y1362202D1*
Y1365076D1*
X2184079Y1369852D1*
X2182177Y1372726D1*
X2179303Y1373676D1*
X2177402D1*
X2184079Y1369852D2*
X2172605Y1357427D1*
X2195052Y1353602D2*
X2204625Y1373676D1*
X2191227D1*
X2215576D2*
X2212724Y1372726D1*
X2211751Y1370824D1*
Y1368901D1*
X2212724Y1367000D1*
X2214625Y1366027D1*
X2218450Y1365076D1*
X2221324Y1364126D1*
X2223225Y1362202D1*
X2224175Y1360301D1*
Y1357427D1*
X2223225Y1355526D1*
X2222274Y1354553D1*
X2219400Y1353602D1*
X2215576D1*
X2212724Y1354553D1*
X2211751Y1355526D1*
X2210800Y1357427D1*
Y1360301D1*
X2211751Y1362202D1*
X2213674Y1364126D1*
X2216526Y1365076D1*
X2220351Y1366027D1*
X2222274Y1367000D1*
X2223225Y1368901D1*
Y1370824D1*
X2222274Y1372726D1*
X2219400Y1373676D1*
X2215576D1*
X771570Y2578175D2*
Y2563827D1*
X772521Y2560953D1*
X774444Y2559052D1*
X777318Y2558079D1*
X779219D1*
X782094Y2559052D1*
X784017Y2560953D1*
X784968Y2563827D1*
Y2578175D1*
X792116Y2573378D2*
Y2574329D1*
X793067Y2576252D1*
X794017Y2577203D1*
X795941Y2578153D1*
X799765D1*
X801667Y2577203D1*
X802617Y2576252D1*
X803590Y2574329D1*
Y2572427D1*
X802617Y2570504D1*
X800716Y2567652D1*
X791143Y2558079D1*
X804541D1*
X764968Y2483100D2*
X775469D1*
X769743Y2475451D1*
X772617D1*
X774519Y2474500D1*
X775469Y2473550D1*
X776442Y2470676D1*
Y2468774D1*
X775469Y2465900D1*
X773568Y2463977D1*
X770694Y2463026D1*
X767820D1*
X764968Y2463977D1*
X764017Y2464950D1*
X763045Y2466851D1*
X783568Y2464950D2*
X782618Y2463977D1*
X783568Y2463026D1*
X784541Y2463977D1*
X783568Y2464950D1*
X792640Y2483100D2*
X803141D1*
X797415Y2475451D1*
X800289D1*
X802191Y2474500D1*
X803141Y2473550D1*
X804114Y2470676D1*
Y2468774D1*
X803141Y2465900D1*
X801240Y2463977D1*
X798366Y2463026D1*
X795492D1*
X792640Y2463977D1*
X791690Y2464950D1*
X790717Y2466851D1*
X810290Y2483122D2*
X817939Y2463026D1*
X825588Y2483122D1*
X814784Y2340014D2*
Y2325666D1*
X815735Y2322792D1*
X817658Y2320891D1*
X820532Y2319918D1*
X822433D1*
X825307Y2320891D1*
X827231Y2322792D1*
X828181Y2325666D1*
Y2340014D1*
X836281Y2339992D2*
X846782D1*
X841056Y2332342D1*
X843930D1*
X845831Y2331392D1*
X846782Y2330441D1*
X847754Y2327567D1*
Y2325666D1*
X846782Y2322792D1*
X844880Y2320869D1*
X842006Y2319918D1*
X839132D1*
X836281Y2320869D1*
X835330Y2321841D1*
X834357Y2323743D1*
X906608Y1323980D2*
Y1309632D1*
X907559Y1306758D1*
X909482Y1304857D1*
X912356Y1303884D1*
X914257D1*
X917131Y1304857D1*
X919055Y1306758D1*
X920005Y1309632D1*
Y1323980D1*
X935754Y1303884D2*
Y1323958D1*
X926181Y1310582D1*
X940529D1*
X738579Y609599D2*
Y595251D1*
X739530Y592377D1*
X741453Y590476D1*
X744327Y589503D1*
X746229D1*
X749103Y590476D1*
X751026Y592377D1*
X751977Y595251D1*
Y609599D1*
X769626Y609577D2*
X760076D1*
X759125Y600977D1*
X760076Y601928D1*
X762950Y602901D1*
X765802D1*
X768676Y601928D1*
X770599Y600027D1*
X771550Y597152D1*
Y595251D1*
X770599Y592377D1*
X768676Y590454D1*
X765802Y589503D1*
X762950D1*
X760076Y590454D1*
X759125Y591427D1*
X758152Y593328D1*
X664860Y436666D2*
Y416570D1*
X676334D1*
X697808D2*
Y436666D1*
X690159Y416570D1*
X682509Y436666D1*
Y416570D1*
X707808D2*
X717381Y436643D1*
X703984D1*
X735031D2*
X725480D1*
X724529Y428044D1*
X725480Y428994D1*
X728354Y429967D1*
X731206D1*
X734080Y428994D1*
X736003Y427093D1*
X736954Y424219D1*
Y422318D1*
X736003Y419444D1*
X734080Y417520D1*
X731206Y416570D1*
X728354D1*
X725480Y417520D1*
X724529Y418493D1*
X723557Y420394D1*
X743130Y436666D2*
Y416570D1*
X751752D1*
X754626Y417542D1*
X755576Y418493D1*
X756527Y420394D1*
Y423268D1*
X755576Y425192D1*
X754626Y426142D1*
X751752Y427093D1*
X754626Y428066D1*
X755576Y429016D1*
X756527Y430918D1*
Y432841D1*
X755576Y434742D1*
X754626Y435715D1*
X751752Y436666D1*
X743130D1*
Y427093D2*
X751752D1*
X762703Y436666D2*
Y416570D1*
X769401D1*
X772275Y417542D1*
X774199Y419444D1*
X775150Y421367D1*
X776100Y424219D1*
Y429016D1*
X775150Y431890D1*
X774199Y433792D1*
X772275Y435715D1*
X769401Y436666D1*
X762703D1*
X782276Y426142D2*
X790898D1*
X793750Y427093D1*
X794723Y428066D1*
X795673Y429967D1*
Y432841D1*
X794723Y434742D1*
X793750Y435715D1*
X790898Y436666D1*
X782276D1*
Y416570D1*
X803772Y417520D2*
X802800Y416570D1*
X801849Y417520D1*
X802800Y418493D1*
X803772Y417520D1*
Y415619D1*
X802800Y413696D1*
X801849Y412745D1*
X809948Y432819D2*
X811871Y433792D1*
X814745Y436643D1*
Y416570D1*
X820921Y432819D2*
X822844Y433792D1*
X825718Y436643D1*
Y416570D1*
X836669Y436643D2*
X833818Y435693D1*
X832845Y433792D1*
Y431868D1*
X833818Y429967D1*
X835719Y428994D1*
X839543Y428044D1*
X842417Y427093D1*
X844319Y425170D1*
X845269Y423268D1*
Y420394D1*
X844319Y418493D1*
X843368Y417520D1*
X840494Y416570D1*
X836669D1*
X833818Y417520D1*
X832845Y418493D1*
X831894Y420394D1*
Y423268D1*
X832845Y425170D1*
X834768Y427093D1*
X837620Y428044D1*
X841445Y428994D1*
X843368Y429967D1*
X844319Y431868D1*
Y433792D1*
X843368Y435693D1*
X840494Y436643D1*
X836669D1*
X1248012Y432713D2*
Y418365D1*
X1248963Y415491D1*
X1250886Y413590D1*
X1253760Y412617D1*
X1255661D1*
X1258535Y413590D1*
X1260459Y415491D1*
X1261409Y418365D1*
Y432713D1*
X1279059Y429839D2*
X1278108Y431741D1*
X1275234Y432691D1*
X1273333D1*
X1270459Y431741D1*
X1268536Y428867D1*
X1267585Y424091D1*
Y419316D1*
X1268536Y415491D1*
X1270459Y413568D1*
X1273333Y412617D1*
X1274284D1*
X1277136Y413568D1*
X1279059Y415491D1*
X1280010Y418365D1*
Y419316D1*
X1279059Y422190D1*
X1277136Y424091D1*
X1274284Y425042D1*
X1273333D1*
X1270459Y424091D1*
X1268536Y422190D1*
X1267585Y419316D1*
X1199827Y452619D2*
Y472715D1*
X1192177Y452619D1*
X1184528Y472715D1*
Y452619D1*
X1221301D2*
Y472715D1*
X1213652Y452619D1*
X1206002Y472715D1*
Y452619D1*
X1242797D2*
X1235126Y472715D1*
X1227477Y452619D1*
X1230351Y459318D2*
X1239923D1*
X1253748Y472693D2*
X1250896Y471743D1*
X1249924Y469841D1*
Y467918D1*
X1250896Y466017D1*
X1252798Y465044D1*
X1256622Y464093D1*
X1259496Y463143D1*
X1261398Y461219D1*
X1262348Y459318D1*
Y456444D1*
X1261398Y454543D1*
X1260447Y453570D1*
X1257573Y452619D1*
X1253748D1*
X1250896Y453570D1*
X1249924Y454543D1*
X1248973Y456444D1*
Y459318D1*
X1249924Y461219D1*
X1251847Y463143D1*
X1254699Y464093D1*
X1258524Y465044D1*
X1260447Y466017D1*
X1261398Y467918D1*
Y469841D1*
X1260447Y471743D1*
X1257573Y472693D1*
X1253748D1*
X1278097Y452619D2*
Y472693D1*
X1268524Y459318D1*
X1282872D1*
X1300522Y472693D2*
X1290971D1*
X1290020Y464093D1*
X1290971Y465044D1*
X1293845Y466017D1*
X1296697D1*
X1299571Y465044D1*
X1301494Y463143D1*
X1302445Y460269D1*
Y458367D1*
X1301494Y455493D1*
X1299571Y453570D1*
X1296697Y452619D1*
X1293845D1*
X1290971Y453570D1*
X1290020Y454543D1*
X1289048Y456444D1*
X1309593Y467918D2*
Y468869D1*
X1310544Y470792D1*
X1311495Y471743D1*
X1313418Y472693D1*
X1317243D1*
X1319144Y471743D1*
X1320095Y470792D1*
X1321067Y468869D1*
Y466967D1*
X1320095Y465044D1*
X1318193Y462192D1*
X1308621Y452619D1*
X1322018D1*
X1333942Y472715D2*
X1332040Y471787D1*
X1330117Y469864D1*
X1329166Y467940D1*
X1328194Y465066D1*
Y460291D1*
X1329166Y457417D1*
X1330117Y455516D1*
X1332040Y453592D1*
X1333942Y452642D1*
X1337766D1*
X1339690Y453592D1*
X1341591Y455516D1*
X1342542Y457417D1*
X1343514Y460291D1*
Y465066D1*
X1342542Y467940D1*
X1341591Y469864D1*
X1339690Y471787D1*
X1337766Y472715D1*
X1333942D1*
X1336816Y456466D2*
X1342542Y450718D1*
X2180682Y2857681D2*
Y2843333D1*
X2181632Y2840459D1*
X2183556Y2838557D1*
X2186430Y2837585D1*
X2188331D1*
X2191205Y2838557D1*
X2193128Y2840459D1*
X2194079Y2843333D1*
Y2857681D1*
X2204079Y2837585D2*
X2213652Y2857658D1*
X2200255D1*
X2340941Y2643397D2*
X2345738Y2623301D1*
X2350513Y2643397D1*
X2355289Y2623301D1*
X2360086Y2643397D1*
X2366262D2*
Y2623301D1*
X2384884Y2643397D2*
X2372437D1*
Y2623301D1*
Y2633824D2*
X2380087D1*
X2391060Y2643397D2*
Y2623301D1*
X2397236Y2633338D2*
X2408289D1*
X2426890Y2643397D2*
X2414465D1*
Y2623301D1*
X2426890D1*
X2414465Y2633824D2*
X2422114D1*
X2446463Y2640523D2*
X2444562Y2642446D1*
X2441688Y2643397D1*
X2437863D1*
X2434989Y2642446D1*
X2433065Y2640523D1*
Y2638621D1*
X2434038Y2636698D1*
X2434989Y2635747D1*
X2436890Y2634797D1*
X2442638Y2632873D1*
X2444562Y2631923D1*
X2445512Y2630950D1*
X2446463Y2629049D1*
Y2626175D1*
X2444562Y2624273D1*
X2441688Y2623301D1*
X2437863D1*
X2434989Y2624273D1*
X2433065Y2626175D1*
X2452638Y2632873D2*
X2461261D1*
X2464112Y2633824D1*
X2465085Y2634797D1*
X2466036Y2636698D1*
Y2639572D1*
X2465085Y2641473D1*
X2464112Y2642446D1*
X2461261Y2643397D1*
X2452638D1*
Y2623301D1*
X2472212Y2633338D2*
X2483265D1*
X2494216Y2643374D2*
X2491365Y2642424D1*
X2490392Y2640523D1*
Y2638599D1*
X2491365Y2636698D1*
X2493266Y2635725D1*
X2497090Y2634775D1*
X2499964Y2633824D1*
X2501866Y2631901D1*
X2502816Y2629999D1*
Y2627125D1*
X2501866Y2625224D1*
X2500915Y2624251D1*
X2498041Y2623301D1*
X2494216D1*
X2491365Y2624251D1*
X2490392Y2625224D1*
X2489441Y2627125D1*
Y2629999D1*
X2490392Y2631901D1*
X2492315Y2633824D1*
X2495167Y2634775D1*
X2498992Y2635725D1*
X2500915Y2636698D1*
X2501866Y2638599D1*
Y2640523D1*
X2500915Y2642424D1*
X2498041Y2643374D1*
X2494216D1*
X2509965Y2638599D2*
Y2639550D1*
X2510915Y2641473D1*
X2511866Y2642424D1*
X2513789Y2643374D1*
X2517614D1*
X2519515Y2642424D1*
X2520466Y2641473D1*
X2521439Y2639550D1*
Y2637649D1*
X2520466Y2635725D1*
X2518565Y2632873D1*
X2508992Y2623301D1*
X2522389D1*
X2540039Y2640523D2*
X2539088Y2642424D1*
X2536214Y2643374D1*
X2534313D1*
X2531439Y2642424D1*
X2529516Y2639550D1*
X2528565Y2634775D1*
Y2629999D1*
X2529516Y2626175D1*
X2531439Y2624251D1*
X2534313Y2623301D1*
X2535264D1*
X2538116Y2624251D1*
X2540039Y2626175D1*
X2540990Y2629049D1*
Y2629999D1*
X2540039Y2632873D1*
X2538116Y2634775D1*
X2535264Y2635725D1*
X2534313D1*
X2531439Y2634775D1*
X2529516Y2632873D1*
X2528565Y2629999D1*
X2558639Y2640523D2*
X2557689Y2642424D1*
X2554815Y2643374D1*
X2552913D1*
X2550039Y2642424D1*
X2548116Y2639550D1*
X2547165Y2634775D1*
Y2629999D1*
X2548116Y2626175D1*
X2550039Y2624251D1*
X2552913Y2623301D1*
X2553864D1*
X2556716Y2624251D1*
X2558639Y2626175D1*
X2559590Y2629049D1*
Y2629999D1*
X2558639Y2632873D1*
X2556716Y2634775D1*
X2553864Y2635725D1*
X2552913D1*
X2550039Y2634775D1*
X2548116Y2632873D1*
X2547165Y2629999D1*
X2155716Y2056108D2*
Y2041760D1*
X2156667Y2038886D1*
X2158590Y2036984D1*
X2161464Y2036012D1*
X2163366D1*
X2166240Y2036984D1*
X2168163Y2038886D1*
X2169114Y2041760D1*
Y2056108D1*
X2180065Y2056086D2*
X2177213Y2055135D1*
X2176240Y2053234D1*
Y2051310D1*
X2177213Y2049409D1*
X2179114Y2048436D1*
X2182939Y2047486D1*
X2185813Y2046535D1*
X2187714Y2044612D1*
X2188665Y2042710D1*
Y2039836D1*
X2187714Y2037935D1*
X2186763Y2036962D1*
X2183889Y2036012D1*
X2180065D1*
X2177213Y2036962D1*
X2176240Y2037935D1*
X2175289Y2039836D1*
Y2042710D1*
X2176240Y2044612D1*
X2178163Y2046535D1*
X2181015Y2047486D1*
X2184840Y2048436D1*
X2186763Y2049409D1*
X2187714Y2051310D1*
Y2053234D1*
X2186763Y2055135D1*
X2183889Y2056086D1*
X2180065D1*
X1017290Y426497D2*
Y412150D1*
X1018240Y409276D1*
X1020164Y407374D1*
X1023038Y406401D1*
X1024939D1*
X1027813Y407374D1*
X1029736Y409276D1*
X1030687Y412150D1*
Y426497D1*
X1049309Y419799D2*
X1048337Y416925D1*
X1046435Y415001D1*
X1043561Y414051D1*
X1042611D1*
X1039737Y415001D1*
X1037835Y416925D1*
X1036863Y419799D1*
Y420749D1*
X1037835Y423623D1*
X1039737Y425525D1*
X1042611Y426475D1*
X1043561D1*
X1046435Y425525D1*
X1048337Y423623D1*
X1049309Y419799D1*
Y415001D1*
X1048337Y410226D1*
X1046435Y407352D1*
X1043561Y406401D1*
X1041660D1*
X1038786Y407352D1*
X1037835Y409276D1*
X1108126Y445626D2*
X1088030Y437954D1*
X1108126Y430305D1*
X1101427Y433179D2*
Y442752D1*
X1098553Y451801D2*
Y460423D1*
X1097603Y463275D1*
X1096630Y464248D1*
X1094729Y465199D1*
X1091855D1*
X1089953Y464248D1*
X1088981Y463275D1*
X1088030Y460423D1*
Y451801D1*
X1108126D1*
X1088030Y471374D2*
X1108126D1*
Y478073D1*
X1107153Y480947D1*
X1105252Y482870D1*
X1103329Y483821D1*
X1100477Y484772D1*
X1095679D1*
X1092805Y483821D1*
X1090904Y482870D1*
X1088981Y480947D1*
X1088030Y478073D1*
Y471374D1*
X1090904Y504345D2*
X1088981Y502443D1*
X1088030Y499569D1*
Y495745D1*
X1088981Y492871D1*
X1090904Y490947D1*
X1092805D1*
X1094729Y491920D1*
X1095679Y492871D1*
X1096630Y494772D1*
X1098553Y500520D1*
X1099504Y502443D1*
X1100477Y503394D1*
X1102378Y504345D1*
X1105252D1*
X1107153Y502443D1*
X1108126Y499569D1*
Y495745D1*
X1107153Y492871D1*
X1105252Y490947D1*
X1098089Y510520D2*
Y521574D1*
X1094729Y540197D2*
X1097603Y539224D1*
X1099526Y537323D1*
X1100477Y534449D1*
Y533498D1*
X1099526Y530624D1*
X1097603Y528723D1*
X1094729Y527750D1*
X1093778D1*
X1090904Y528723D1*
X1089003Y530624D1*
X1088052Y533498D1*
Y534449D1*
X1089003Y537323D1*
X1090904Y539224D1*
X1094729Y540197D1*
X1099526D1*
X1104301Y539224D1*
X1107175Y537323D1*
X1108126Y534449D1*
Y532547D1*
X1107175Y529673D1*
X1105252Y528723D1*
X1094729Y558819D2*
X1097603Y557846D1*
X1099526Y555945D1*
X1100477Y553071D1*
Y552120D1*
X1099526Y549246D1*
X1097603Y547345D1*
X1094729Y546372D1*
X1093778D1*
X1090904Y547345D1*
X1089003Y549246D1*
X1088052Y552120D1*
Y553071D1*
X1089003Y555945D1*
X1090904Y557846D1*
X1094729Y558819D1*
X1099526D1*
X1104301Y557846D1*
X1107175Y555945D1*
X1108126Y553071D1*
Y551170D1*
X1107175Y548296D1*
X1105252Y547345D1*
X1090904Y576469D2*
X1089003Y575518D1*
X1088052Y572644D1*
Y570743D1*
X1089003Y567869D1*
X1091877Y565945D1*
X1096652Y564995D1*
X1101427D1*
X1105252Y565945D1*
X1107175Y567869D1*
X1108126Y570743D1*
Y571693D1*
X1107175Y574545D1*
X1105252Y576469D1*
X1102378Y577419D1*
X1101427D1*
X1098553Y576469D1*
X1096652Y574545D1*
X1095701Y571693D1*
Y570743D1*
X1096652Y567869D1*
X1098553Y565945D1*
X1101427Y564995D1*
X1088052Y589343D2*
X1089003Y586469D1*
X1091877Y584546D1*
X1096652Y583595D1*
X1099526D1*
X1104301Y584546D1*
X1107175Y586469D1*
X1108126Y589343D1*
Y591244D1*
X1107175Y594118D1*
X1104301Y596020D1*
X1099526Y596992D1*
X1096652D1*
X1091877Y596020D1*
X1089003Y594118D1*
X1088052Y591244D1*
Y589343D1*
X1091877Y596020D2*
X1104301Y584546D1*
X1605525Y1774858D2*
X1613174Y1765285D1*
Y1754762D1*
X1620823Y1774858D2*
X1613174Y1765285D1*
X1626999Y1771011D2*
X1628922Y1771984D1*
X1631796Y1774836D1*
Y1754762D1*
X1605017Y1496385D2*
Y1506886D1*
X1612666Y1501160D1*
Y1504034D1*
X1613617Y1505936D1*
X1614567Y1506886D1*
X1617441Y1507859D1*
X1619343D1*
X1622217Y1506886D1*
X1624140Y1504985D1*
X1625091Y1502111D1*
Y1499237D1*
X1624140Y1496385D1*
X1623167Y1495435D1*
X1621266Y1494462D1*
X1609792Y1515008D2*
X1608841D1*
X1606918Y1515958D1*
X1605967Y1516909D1*
X1605017Y1518832D1*
Y1522657D1*
X1605967Y1524558D1*
X1606918Y1525509D1*
X1608841Y1526481D1*
X1610743D1*
X1612666Y1525509D1*
X1615518Y1523607D1*
X1625091Y1514035D1*
Y1527432D1*
X1623167Y1534558D2*
X1624140Y1533608D1*
X1625091Y1534558D1*
X1624140Y1535531D1*
X1623167Y1534558D1*
X1625091Y1545532D2*
X1605017Y1555104D1*
Y1541707D1*
X1607869Y1572754D2*
X1605967Y1571803D1*
X1605017Y1568929D1*
Y1567028D1*
X1605967Y1564154D1*
X1608841Y1562231D1*
X1613617Y1561280D1*
X1618392D1*
X1622216Y1562231D1*
X1624140Y1564154D1*
X1625091Y1567028D1*
Y1567979D1*
X1624140Y1570830D1*
X1622216Y1572754D1*
X1619342Y1573704D1*
X1618392D1*
X1615518Y1572754D1*
X1613617Y1570830D1*
X1612666Y1567979D1*
Y1567028D1*
X1613617Y1564154D1*
X1615518Y1562231D1*
X1618392Y1561280D1*
X1605017Y1584655D2*
X1605967Y1581804D1*
X1607869Y1580831D1*
X1609792D1*
X1611693Y1581804D1*
X1612666Y1583705D1*
X1613617Y1587529D1*
X1614567Y1590403D1*
X1616491Y1592305D1*
X1618392Y1593255D1*
X1621266D1*
X1623167Y1592305D1*
X1624140Y1591354D1*
X1625090Y1588480D1*
Y1584655D1*
X1624140Y1581804D1*
X1623167Y1580831D1*
X1621266Y1579880D1*
X1618392D1*
X1616491Y1580831D1*
X1614567Y1582754D1*
X1613617Y1585606D1*
X1612666Y1589431D1*
X1611693Y1591354D1*
X1609792Y1592305D1*
X1607869D1*
X1605967Y1591354D1*
X1605017Y1588480D1*
Y1584655D1*
X1604995Y1599431D2*
X1625090D1*
X1604995Y1612828D2*
X1618392Y1599431D1*
X1613594Y1604206D2*
X1625090Y1612828D1*
X1604995Y1619004D2*
X1625090D1*
X1604995Y1632401D2*
X1625090D1*
X1614567Y1619004D2*
Y1632401D1*
X1611693Y1638577D2*
Y1649100D1*
X1625090Y1638577D1*
Y1649100D1*
X1560956Y1161744D2*
X1568605Y1152171D1*
Y1141648D1*
X1576254Y1161744D2*
X1568605Y1152171D1*
X1583403Y1156946D2*
Y1157897D1*
X1584353Y1159820D1*
X1585304Y1160771D1*
X1587227Y1161721D1*
X1591052D1*
X1592953Y1160771D1*
X1593904Y1159820D1*
X1594877Y1157897D1*
Y1155996D1*
X1593904Y1154072D1*
X1592002Y1151220D1*
X1582430Y1141648D1*
X1595827D1*
X1393895Y593801D2*
D139*
X1414942Y567006D1*
Y593801D2*
X1393895Y567006D1*
X1394582Y544288D2*
D140*
X1403171Y524192D1*
X1400319Y518455D1*
X1397434Y515569D1*
X1394582Y514144D1*
X1393123D1*
X1411793Y544288D2*
X1403171Y524192D1*
X1393123Y494282D2*
X1408908D1*
X1393123Y474186D1*
X1408908D1*
X437841Y1663701D2*
D138*
X445490Y1643605D1*
X453139Y1663701D1*
X473663Y1658926D2*
X472712Y1660827D1*
X470789Y1662750D1*
X468888Y1663701D1*
X465063D1*
X463140Y1662750D1*
X461238Y1660827D1*
X460266Y1658926D1*
X459315Y1656052D1*
Y1651254D1*
X460266Y1648402D1*
X461238Y1646479D1*
X463140Y1644578D1*
X465063Y1643605D1*
X468888D1*
X470789Y1644578D1*
X472712Y1646479D1*
X473663Y1648402D1*
X494187Y1658926D2*
X493236Y1660827D1*
X491313Y1662750D1*
X489411Y1663701D1*
X485587D1*
X483663Y1662750D1*
X481762Y1660827D1*
X480789Y1658926D1*
X479839Y1656052D1*
Y1651254D1*
X480789Y1648402D1*
X481762Y1646479D1*
X483663Y1644578D1*
X485587Y1643605D1*
X489411D1*
X491313Y1644578D1*
X493236Y1646479D1*
X494187Y1648402D1*
X544539Y1663701D2*
Y1643605D1*
X537841Y1663701D2*
X551238D1*
X571762Y1658926D2*
X570811Y1660827D1*
X568888Y1662750D1*
X566986Y1663701D1*
X563162D1*
X561238Y1662750D1*
X559337Y1660827D1*
X558364Y1658926D1*
X557414Y1656052D1*
Y1651254D1*
X558364Y1648402D1*
X559337Y1646479D1*
X561238Y1644578D1*
X563162Y1643605D1*
X566986D1*
X568888Y1644578D1*
X570811Y1646479D1*
X571762Y1648402D1*
X577937Y1663701D2*
Y1643605D1*
X591335Y1663701D2*
X577937Y1650304D1*
X582713Y1655101D2*
X591335Y1643605D1*
X639759Y1663701D2*
Y1643605D1*
X633060Y1663701D2*
X646457D1*
X652633Y1654128D2*
X661233D1*
X664107Y1655101D1*
X665080Y1656052D1*
X666030Y1657953D1*
Y1659876D1*
X665080Y1661778D1*
X664107Y1662750D1*
X661233Y1663701D1*
X652633D1*
Y1643605D1*
X659332Y1654128D2*
X666030Y1643605D1*
X685603Y1660827D2*
X683702Y1662750D1*
X680828Y1663701D1*
X677003D1*
X674129Y1662750D1*
X672206Y1660827D1*
Y1658926D1*
X673179Y1657002D1*
X674129Y1656052D1*
X676031Y1655101D1*
X681779Y1653178D1*
X683702Y1652227D1*
X684653Y1651254D1*
X685603Y1649353D1*
Y1646479D1*
X683702Y1644578D1*
X680828Y1643605D1*
X677003D1*
X674129Y1644578D1*
X672206Y1646479D1*
X698478Y1663701D2*
Y1643605D1*
X691779Y1663701D2*
X705176D1*
X746009D2*
Y1643605D1*
X739311Y1663701D2*
X752708D1*
X774182Y1643605D2*
Y1663701D1*
X766533Y1643605D1*
X758884Y1663701D1*
Y1643605D1*
X793755Y1660827D2*
X791854Y1662750D1*
X788980Y1663701D1*
X785155D1*
X782281Y1662750D1*
X780358Y1660827D1*
Y1658926D1*
X781331Y1657002D1*
X782281Y1656052D1*
X784183Y1655101D1*
X789931Y1653178D1*
X791854Y1652227D1*
X792805Y1651254D1*
X793755Y1649353D1*
Y1646479D1*
X791854Y1644578D1*
X788980Y1643605D1*
X785155D1*
X782281Y1644578D1*
X780358Y1646479D1*
X1159908Y1658926D2*
X1158957Y1660827D1*
X1157034Y1662750D1*
X1155133Y1663701D1*
X1151308D1*
X1149385Y1662750D1*
X1147483Y1660827D1*
X1146511Y1658926D1*
X1145560Y1656052D1*
Y1651254D1*
X1146511Y1648402D1*
X1147483Y1646479D1*
X1149385Y1644578D1*
X1151308Y1643605D1*
X1155133D1*
X1157034Y1644578D1*
X1158957Y1646479D1*
X1159908Y1648402D1*
Y1651254D1*
X1155133D1*
X1179481Y1663701D2*
Y1643605D1*
X1166084Y1663701D1*
Y1643605D1*
X1185657Y1663701D2*
Y1643605D1*
X1192355D1*
X1195229Y1644578D1*
X1197153Y1646479D1*
X1198103Y1648402D1*
X1199054Y1651254D1*
Y1656052D1*
X1198103Y1658926D1*
X1197153Y1660827D1*
X1195229Y1662750D1*
X1192355Y1663701D1*
X1185657D1*
X852259D2*
Y1643605D1*
X845560Y1663701D2*
X858957D1*
X865133D2*
Y1643605D1*
X871832D1*
X874706Y1644578D1*
X876629Y1646479D1*
X877580Y1648402D1*
X878530Y1651254D1*
Y1656052D1*
X877580Y1658926D1*
X876629Y1660827D1*
X874706Y1662750D1*
X871832Y1663701D1*
X865133D1*
X884706D2*
Y1643605D1*
X946009Y1663701D2*
Y1643605D1*
X939311Y1663701D2*
X952708D1*
X958884D2*
Y1643605D1*
X965582D1*
X968456Y1644578D1*
X970380Y1646479D1*
X971330Y1648402D1*
X972281Y1651254D1*
Y1656052D1*
X971330Y1658926D1*
X970380Y1660827D1*
X968456Y1662750D1*
X965582Y1663701D1*
X958884D1*
X984205D2*
X982281Y1662750D1*
X980380Y1660827D1*
X979407Y1658926D1*
X978457Y1656052D1*
Y1651254D1*
X979407Y1648402D1*
X980380Y1646479D1*
X982281Y1644578D1*
X984205Y1643605D1*
X988029D1*
X989931Y1644578D1*
X991854Y1646479D1*
X992805Y1648402D1*
X993755Y1651254D1*
Y1656052D1*
X992805Y1658926D1*
X991854Y1660827D1*
X989931Y1662750D1*
X988029Y1663701D1*
X984205D1*
X1045560Y1654128D2*
X1054160D1*
X1057034Y1655101D1*
X1058007Y1656052D1*
X1058957Y1657953D1*
Y1659876D1*
X1058007Y1661778D1*
X1057034Y1662750D1*
X1054160Y1663701D1*
X1045560D1*
Y1643605D1*
X1052259Y1654128D2*
X1058957Y1643605D1*
X1078530Y1660827D2*
X1076629Y1662750D1*
X1073755Y1663701D1*
X1069930D1*
X1067056Y1662750D1*
X1065133Y1660827D1*
Y1658926D1*
X1066106Y1657002D1*
X1067056Y1656052D1*
X1068958Y1655101D1*
X1074706Y1653178D1*
X1076629Y1652227D1*
X1077580Y1651254D1*
X1078530Y1649353D1*
Y1646479D1*
X1076629Y1644578D1*
X1073755Y1643605D1*
X1069930D1*
X1067056Y1644578D1*
X1065133Y1646479D1*
X1091405Y1663701D2*
Y1643605D1*
X1084706Y1663701D2*
X1098103D1*
X1045560Y1668941D2*
X1104279D1*
X3007800Y2605019D2*
X3015449Y2584923D1*
X3023099Y2605019D1*
X3029274D2*
Y2584923D1*
X3048847Y2605019D2*
Y2584923D1*
X3035450Y2605019D1*
Y2584923D1*
X3007800Y2200312D2*
X3016422D1*
X3019274Y2201262D1*
X3020247Y2202235D1*
X3021197Y2204136D1*
Y2207010D1*
X3020247Y2208912D1*
X3019274Y2209884D1*
X3016422Y2210835D1*
X3007800D1*
Y2190739D1*
X3028346Y2206037D2*
Y2206988D1*
X3029296Y2208912D1*
X3030247Y2209862D1*
X3032171Y2210813D1*
X3035995D1*
X3037896Y2209862D1*
X3038847Y2208912D1*
X3039820Y2206988D1*
Y2205087D1*
X3038847Y2203163D1*
X3036946Y2200312D1*
X3027373Y2190739D1*
X3040770D1*
X3047897Y2192662D2*
X3046946Y2191690D1*
X3047897Y2190739D1*
X3048870Y2191690D1*
X3047897Y2192662D1*
X3055045Y2206988D2*
X3056969Y2207961D1*
X3059843Y2210813D1*
Y2190739D1*
X3007800Y2163245D2*
X3016422D1*
X3019274Y2164195D1*
X3020247Y2165168D1*
X3021197Y2167069D1*
Y2169943D1*
X3020247Y2171845D1*
X3019274Y2172817D1*
X3016422Y2173768D1*
X3007800D1*
Y2153672D1*
X3027373Y2173768D2*
X3032171Y2153672D1*
X3036946Y2173768D1*
X3041721Y2153672D1*
X3046518Y2173768D1*
X3067993Y2153672D2*
Y2173768D1*
X3060343Y2153672D1*
X3052694Y2173768D1*
Y2153672D1*
X3075141Y2168971D2*
Y2169921D1*
X3076092Y2171845D1*
X3077043Y2172795D1*
X3078966Y2173746D1*
X3082791D1*
X3084692Y2172795D1*
X3085642Y2171845D1*
X3086615Y2169921D1*
Y2168020D1*
X3085642Y2166097D1*
X3083741Y2163245D1*
X3074168Y2153672D1*
X3087566D1*
X3007800Y2106562D2*
X3016422D1*
X3019274Y2107513D1*
X3020247Y2108486D1*
X3021197Y2110387D1*
Y2113261D1*
X3020247Y2115162D1*
X3019274Y2116135D1*
X3016422Y2117086D1*
X3007800D1*
Y2096990D1*
X3028346Y2112288D2*
Y2113239D1*
X3029296Y2115162D1*
X3030247Y2116113D1*
X3032171Y2117063D1*
X3035995D1*
X3037896Y2116113D1*
X3038847Y2115162D1*
X3039820Y2113239D1*
Y2111338D1*
X3038847Y2109414D1*
X3036946Y2106562D1*
X3027373Y2096990D1*
X3040770D1*
X3047897Y2098913D2*
X3046946Y2097940D1*
X3047897Y2096990D1*
X3048870Y2097940D1*
X3047897Y2098913D1*
X3056018Y2112288D2*
Y2113239D1*
X3056969Y2115162D1*
X3057919Y2116113D1*
X3059843Y2117063D1*
X3063667D1*
X3065569Y2116113D1*
X3066519Y2115162D1*
X3067492Y2113239D1*
Y2111338D1*
X3066519Y2109414D1*
X3064618Y2106562D1*
X3055045Y2096990D1*
X3068443D1*
X3007800Y2069495D2*
X3016422D1*
X3019274Y2070446D1*
X3020247Y2071419D1*
X3021197Y2073320D1*
Y2076194D1*
X3020247Y2078095D1*
X3019274Y2079068D1*
X3016422Y2080019D1*
X3007800D1*
Y2059923D1*
X3027373Y2080019D2*
X3032171Y2059923D1*
X3036946Y2080019D1*
X3041721Y2059923D1*
X3046518Y2080019D1*
X3067993Y2059923D2*
Y2080019D1*
X3060343Y2059923D1*
X3052694Y2080019D1*
Y2059923D1*
X3076092Y2079997D2*
X3086593D1*
X3080867Y2072347D1*
X3083741D1*
X3085642Y2071397D1*
X3086593Y2070446D1*
X3087566Y2067572D1*
Y2065671D1*
X3086593Y2062797D1*
X3084692Y2060873D1*
X3081818Y2059923D1*
X3078944D1*
X3076092Y2060873D1*
X3075141Y2061846D1*
X3074168Y2063747D1*
X3007800Y2406562D2*
X3016422D1*
X3019274Y2407513D1*
X3020247Y2408486D1*
X3021197Y2410387D1*
Y2413261D1*
X3020247Y2415162D1*
X3019274Y2416135D1*
X3016422Y2417086D1*
X3007800D1*
Y2396990D1*
X3027373Y2413239D2*
X3029296Y2414212D1*
X3032171Y2417063D1*
Y2396990D1*
X3039297Y2398913D2*
X3038346Y2397940D1*
X3039297Y2396990D1*
X3040270Y2397940D1*
X3039297Y2398913D1*
X3047418Y2412288D2*
Y2413239D1*
X3048369Y2415162D1*
X3049319Y2416113D1*
X3051243Y2417063D1*
X3055067D1*
X3056969Y2416113D1*
X3057919Y2415162D1*
X3058892Y2413239D1*
Y2411338D1*
X3057919Y2409414D1*
X3056018Y2406562D1*
X3046445Y2396990D1*
X3059843D1*
X3075591D2*
Y2417063D1*
X3066018Y2403688D1*
X3080366D1*
X3023099Y2566071D2*
X3007800Y2557449D1*
X3023099Y2548849D1*
X3040748Y2564645D2*
X3039798Y2566546D1*
X3036924Y2567497D1*
X3035022D1*
X3032148Y2566546D1*
X3030225Y2563672D1*
X3029274Y2558897D1*
Y2554121D1*
X3030225Y2550297D1*
X3032148Y2548373D1*
X3035022Y2547423D1*
X3035973D1*
X3038825Y2548373D1*
X3040748Y2550297D1*
X3041699Y2553171D1*
Y2554121D1*
X3040748Y2556995D1*
X3038825Y2558897D1*
X3035973Y2559847D1*
X3035022D1*
X3032148Y2558897D1*
X3030225Y2556995D1*
X3029274Y2554121D1*
X3047875Y2567519D2*
X3055524Y2547423D1*
X3063173Y2567519D1*
X3007800Y2523769D2*
X3015449Y2503673D1*
X3023099Y2523769D1*
X3043622Y2518994D2*
X3042672Y2520895D1*
X3040748Y2522819D1*
X3038847Y2523769D1*
X3035022D1*
X3033099Y2522819D1*
X3031198Y2520895D1*
X3030225Y2518994D1*
X3029274Y2516120D1*
Y2511323D1*
X3030225Y2508471D1*
X3031198Y2506547D1*
X3033099Y2504646D1*
X3035022Y2503673D1*
X3038847D1*
X3040748Y2504646D1*
X3042672Y2506547D1*
X3043622Y2508471D1*
X3064146Y2518994D2*
X3063195Y2520895D1*
X3061272Y2522819D1*
X3059371Y2523769D1*
X3055546D1*
X3053623Y2522819D1*
X3051721Y2520895D1*
X3050749Y2518994D1*
X3049798Y2516120D1*
Y2511323D1*
X3050749Y2508471D1*
X3051721Y2506547D1*
X3053623Y2504646D1*
X3055546Y2503673D1*
X3059371D1*
X3061272Y2504646D1*
X3063195Y2506547D1*
X3064146Y2508471D1*
X3009723Y2486247D2*
X3020225D1*
X3014499Y2478598D1*
X3017373D1*
X3019274Y2477647D1*
X3020225Y2476697D1*
X3021197Y2473823D1*
Y2471921D1*
X3020225Y2469047D1*
X3018323Y2467124D1*
X3015449Y2466173D1*
X3012575D1*
X3009723Y2467124D1*
X3008773Y2468097D1*
X3007800Y2469998D1*
X3028324Y2468097D2*
X3027373Y2467124D1*
X3028324Y2466173D1*
X3029296Y2467124D1*
X3028324Y2468097D1*
X3037396Y2486247D2*
X3047897D1*
X3042171Y2478598D1*
X3045045D1*
X3046946Y2477647D1*
X3047897Y2476697D1*
X3048870Y2473823D1*
Y2471921D1*
X3047897Y2469047D1*
X3045996Y2467124D1*
X3043121Y2466173D1*
X3040247D1*
X3037396Y2467124D1*
X3036445Y2468097D1*
X3035472Y2469998D1*
X3055045Y2486269D2*
X3062695Y2466173D1*
X3070344Y2486269D1*
X3013548Y2380019D2*
X3011647Y2379090D1*
X3009723Y2377167D1*
X3008773Y2375243D1*
X3007800Y2372369D1*
Y2367594D1*
X3008773Y2364720D1*
X3009723Y2362819D1*
X3011647Y2360895D1*
X3013548Y2359945D1*
X3017373D1*
X3019296Y2360895D1*
X3021197Y2362819D1*
X3022148Y2364720D1*
X3023121Y2367594D1*
Y2372369D1*
X3022148Y2375243D1*
X3021197Y2377167D1*
X3019296Y2379090D1*
X3017373Y2380019D1*
X3013548D1*
X3016422Y2363769D2*
X3022148Y2358021D1*
X3029296Y2380019D2*
Y2359923D1*
X3035472Y2380019D2*
Y2359923D1*
X3042171D1*
X3045045Y2360895D1*
X3046968Y2362797D1*
X3047919Y2364720D1*
X3048870Y2367572D1*
Y2372369D1*
X3047919Y2375243D1*
X3046968Y2377145D1*
X3045045Y2379068D1*
X3042171Y2380019D1*
X3035472D1*
X3055045D2*
X3068443Y2359923D1*
Y2380019D2*
X3055045Y2359923D1*
X3007800Y2306562D2*
X3016422D1*
X3019274Y2307513D1*
X3020247Y2308486D1*
X3021197Y2310387D1*
Y2313261D1*
X3020247Y2315162D1*
X3019274Y2316135D1*
X3016422Y2317086D1*
X3007800D1*
Y2296990D1*
X3028346Y2312288D2*
Y2313239D1*
X3029296Y2315162D1*
X3030247Y2316113D1*
X3032171Y2317063D1*
X3035995D1*
X3037896Y2316113D1*
X3038847Y2315162D1*
X3039820Y2313239D1*
Y2311338D1*
X3038847Y2309414D1*
X3036946Y2306562D1*
X3027373Y2296990D1*
X3040770D1*
X3047897Y2298913D2*
X3046946Y2297940D1*
X3047897Y2296990D1*
X3048870Y2297940D1*
X3047897Y2298913D1*
X3060793Y2317063D2*
X3057919Y2316113D1*
X3055996Y2313239D1*
X3055045Y2308463D1*
Y2305589D1*
X3055996Y2300814D1*
X3057919Y2297940D1*
X3060793Y2296990D1*
X3062695D1*
X3065569Y2297940D1*
X3067470Y2300814D1*
X3068443Y2305589D1*
Y2308463D1*
X3067470Y2313239D1*
X3065569Y2316113D1*
X3062695Y2317063D1*
X3060793D1*
X3067470Y2313239D2*
X3055996Y2300814D1*
X3007800Y2269495D2*
X3016422D1*
X3019274Y2270446D1*
X3020247Y2271419D1*
X3021197Y2273320D1*
Y2276194D1*
X3020247Y2278095D1*
X3019274Y2279068D1*
X3016422Y2280019D1*
X3007800D1*
Y2259923D1*
X3027373Y2280019D2*
X3032171Y2259923D1*
X3036946Y2280019D1*
X3041721Y2259923D1*
X3046518Y2280019D1*
X3067993Y2259923D2*
Y2280019D1*
X3060343Y2259923D1*
X3052694Y2280019D1*
Y2259923D1*
X3074168Y2276172D2*
X3076092Y2277145D1*
X3078966Y2279997D1*
Y2259923D1*
X3007800Y2000313D2*
X3016422D1*
X3019274Y2001264D1*
X3020247Y2002236D1*
X3021197Y2004138D1*
Y2007012D1*
X3020247Y2008913D1*
X3019274Y2009886D1*
X3016422Y2010836D1*
X3007800D1*
Y1990740D1*
X3028346Y2006039D2*
Y2006989D1*
X3029296Y2008913D1*
X3030247Y2009863D1*
X3032171Y2010814D1*
X3035995D1*
X3037896Y2009863D1*
X3038847Y2008913D1*
X3039820Y2006989D1*
Y2005088D1*
X3038847Y2003165D1*
X3036946Y2000313D1*
X3027373Y1990740D1*
X3040770D1*
X3047897Y1992664D2*
X3046946Y1991691D1*
X3047897Y1990740D1*
X3048870Y1991691D1*
X3047897Y1992664D1*
X3056969Y2010814D2*
X3067470D1*
X3061744Y2003165D1*
X3064618D1*
X3066519Y2002214D1*
X3067470Y2001264D1*
X3068443Y1998389D1*
Y1996488D1*
X3067470Y1993614D1*
X3065569Y1991691D1*
X3062695Y1990740D1*
X3059821D1*
X3056969Y1991691D1*
X3056018Y1992664D1*
X3055045Y1994565D1*
X3007800Y1963246D2*
X3016422D1*
X3019274Y1964197D1*
X3020247Y1965169D1*
X3021197Y1967071D1*
Y1969945D1*
X3020247Y1971846D1*
X3019274Y1972819D1*
X3016422Y1973769D1*
X3007800D1*
Y1953673D1*
X3027373Y1973769D2*
X3032171Y1953673D1*
X3036946Y1973769D1*
X3041721Y1953673D1*
X3046518Y1973769D1*
X3067993Y1953673D2*
Y1973769D1*
X3060343Y1953673D1*
X3052694Y1973769D1*
Y1953673D1*
X3083741D2*
Y1973747D1*
X3074168Y1960372D1*
X3088516D1*
X3007800Y1906564D2*
X3016422D1*
X3019274Y1907514D1*
X3020247Y1908487D1*
X3021197Y1910388D1*
Y1913262D1*
X3020247Y1915163D1*
X3019274Y1916136D1*
X3016422Y1917087D1*
X3007800D1*
Y1896991D1*
X3028346Y1912289D2*
Y1913240D1*
X3029296Y1915163D1*
X3030247Y1916114D1*
X3032171Y1917065D1*
X3035995D1*
X3037896Y1916114D1*
X3038847Y1915163D1*
X3039820Y1913240D1*
Y1911339D1*
X3038847Y1909415D1*
X3036946Y1906564D1*
X3027373Y1896991D1*
X3040770D1*
X3047897Y1898914D2*
X3046946Y1897941D1*
X3047897Y1896991D1*
X3048870Y1897941D1*
X3047897Y1898914D1*
X3064618Y1896991D2*
Y1917065D1*
X3055045Y1903690D1*
X3069393D1*
X3007800Y1869497D2*
X3016422D1*
X3019274Y1870447D1*
X3020247Y1871420D1*
X3021197Y1873321D1*
Y1876195D1*
X3020247Y1878097D1*
X3019274Y1879069D1*
X3016422Y1880020D1*
X3007800D1*
Y1859924D1*
X3027373Y1880020D2*
X3032171Y1859924D1*
X3036946Y1880020D1*
X3041721Y1859924D1*
X3046518Y1880020D1*
X3067993Y1859924D2*
Y1880020D1*
X3060343Y1859924D1*
X3052694Y1880020D1*
Y1859924D1*
X3085642Y1879998D2*
X3076092D1*
X3075141Y1871398D1*
X3076092Y1872349D1*
X3078966Y1873321D1*
X3081818D1*
X3084692Y1872349D1*
X3086615Y1870447D1*
X3087566Y1867573D1*
Y1865672D1*
X3086615Y1862798D1*
X3084692Y1860875D1*
X3081818Y1859924D1*
X3078966D1*
X3076092Y1860875D1*
X3075141Y1861847D1*
X3074168Y1863749D1*
X3007800Y1800313D2*
X3016422D1*
X3019274Y1801264D1*
X3020247Y1802236D1*
X3021197Y1804138D1*
Y1807012D1*
X3020247Y1808913D1*
X3019274Y1809886D1*
X3016422Y1810836D1*
X3007800D1*
Y1790740D1*
X3028346Y1806039D2*
Y1806989D1*
X3029296Y1808913D1*
X3030247Y1809863D1*
X3032171Y1810814D1*
X3035995D1*
X3037896Y1809863D1*
X3038847Y1808913D1*
X3039820Y1806989D1*
Y1805088D1*
X3038847Y1803165D1*
X3036946Y1800313D1*
X3027373Y1790740D1*
X3040770D1*
X3047897Y1792664D2*
X3046946Y1791691D1*
X3047897Y1790740D1*
X3048870Y1791691D1*
X3047897Y1792664D1*
X3066519Y1810814D2*
X3056969D1*
X3056018Y1802214D1*
X3056969Y1803165D1*
X3059843Y1804138D1*
X3062695D1*
X3065569Y1803165D1*
X3067492Y1801264D1*
X3068443Y1798389D1*
Y1796488D1*
X3067492Y1793614D1*
X3065569Y1791691D1*
X3062695Y1790740D1*
X3059843D1*
X3056969Y1791691D1*
X3056018Y1792664D1*
X3055045Y1794565D1*
X3007800Y1763246D2*
X3016422D1*
X3019274Y1764197D1*
X3020247Y1765169D1*
X3021197Y1767071D1*
Y1769945D1*
X3020247Y1771846D1*
X3019274Y1772819D1*
X3016422Y1773769D1*
X3007800D1*
Y1753673D1*
X3027373Y1773769D2*
X3032171Y1753673D1*
X3036946Y1773769D1*
X3041721Y1753673D1*
X3046518Y1773769D1*
X3067993Y1753673D2*
Y1773769D1*
X3060343Y1753673D1*
X3052694Y1773769D1*
Y1753673D1*
X3085642Y1770895D2*
X3084692Y1772797D1*
X3081818Y1773747D1*
X3079917D1*
X3077043Y1772797D1*
X3075119Y1769923D1*
X3074168Y1765147D1*
Y1760372D1*
X3075119Y1756547D1*
X3077043Y1754624D1*
X3079917Y1753673D1*
X3080867D1*
X3083719Y1754624D1*
X3085642Y1756547D1*
X3086593Y1759421D1*
Y1760372D1*
X3085642Y1763246D1*
X3083719Y1765147D1*
X3080867Y1766098D1*
X3079917D1*
X3077043Y1765147D1*
X3075119Y1763246D1*
X3074168Y1760372D1*
X3007800Y1706562D2*
X3016422D1*
X3019274Y1707513D1*
X3020247Y1708486D1*
X3021197Y1710387D1*
Y1713261D1*
X3020247Y1715162D1*
X3019274Y1716135D1*
X3016422Y1717086D1*
X3007800D1*
Y1696990D1*
X3028346Y1712288D2*
Y1713239D1*
X3029296Y1715162D1*
X3030247Y1716113D1*
X3032171Y1717063D1*
X3035995D1*
X3037896Y1716113D1*
X3038847Y1715162D1*
X3039820Y1713239D1*
Y1711338D1*
X3038847Y1709414D1*
X3036946Y1706562D1*
X3027373Y1696990D1*
X3040770D1*
X3047897Y1698913D2*
X3046946Y1697940D1*
X3047897Y1696990D1*
X3048870Y1697940D1*
X3047897Y1698913D1*
X3066519Y1714212D2*
X3065569Y1716113D1*
X3062695Y1717063D1*
X3060793D1*
X3057919Y1716113D1*
X3055996Y1713239D1*
X3055045Y1708463D1*
Y1703688D1*
X3055996Y1699864D1*
X3057919Y1697940D1*
X3060793Y1696990D1*
X3061744D1*
X3064596Y1697940D1*
X3066519Y1699864D1*
X3067470Y1702738D1*
Y1703688D1*
X3066519Y1706562D1*
X3064596Y1708463D1*
X3061744Y1709414D1*
X3060793D1*
X3057919Y1708463D1*
X3055996Y1706562D1*
X3055045Y1703688D1*
X3007800Y1669495D2*
X3016422D1*
X3019274Y1670446D1*
X3020247Y1671419D1*
X3021197Y1673320D1*
Y1676194D1*
X3020247Y1678095D1*
X3019274Y1679068D1*
X3016422Y1680019D1*
X3007800D1*
Y1659923D1*
X3041721Y1675243D2*
X3040770Y1677145D1*
X3038847Y1679068D1*
X3036946Y1680019D1*
X3033121D1*
X3031198Y1679068D1*
X3029296Y1677145D1*
X3028324Y1675243D1*
X3027373Y1672369D1*
Y1667572D1*
X3028324Y1664720D1*
X3029296Y1662797D1*
X3031198Y1660895D1*
X3033121Y1659923D1*
X3036946D1*
X3038847Y1660895D1*
X3040770Y1662797D1*
X3041721Y1664720D1*
X3063217Y1659923D2*
X3055546Y1680019D1*
X3047897Y1659923D1*
X3050771Y1666621D2*
X3060343D1*
X3069393Y1669495D2*
X3078015D1*
X3080867Y1670446D1*
X3081840Y1671419D1*
X3082791Y1673320D1*
Y1676194D1*
X3081840Y1678095D1*
X3080867Y1679068D1*
X3078015Y1680019D1*
X3069393D1*
Y1659923D1*
X3007800Y1606562D2*
X3016422D1*
X3019274Y1607513D1*
X3020247Y1608486D1*
X3021197Y1610387D1*
Y1613261D1*
X3020247Y1615162D1*
X3019274Y1616135D1*
X3016422Y1617086D1*
X3007800D1*
Y1596990D1*
X3028346Y1612288D2*
Y1613239D1*
X3029296Y1615162D1*
X3030247Y1616113D1*
X3032171Y1617063D1*
X3035995D1*
X3037896Y1616113D1*
X3038847Y1615162D1*
X3039820Y1613239D1*
Y1611338D1*
X3038847Y1609414D1*
X3036946Y1606562D1*
X3027373Y1596990D1*
X3040770D1*
X3047897Y1598913D2*
X3046946Y1597940D1*
X3047897Y1596990D1*
X3048870Y1597940D1*
X3047897Y1598913D1*
X3058870Y1596990D2*
X3068443Y1617063D1*
X3055045D1*
X3022148Y1575243D2*
X3021197Y1577145D1*
X3019274Y1579068D1*
X3017373Y1580019D1*
X3013548D1*
X3011625Y1579068D1*
X3009723Y1577145D1*
X3008751Y1575243D1*
X3007800Y1572369D1*
Y1567572D1*
X3008751Y1564720D1*
X3009723Y1562797D1*
X3011625Y1560895D1*
X3013548Y1559923D1*
X3017373D1*
X3019274Y1560895D1*
X3021197Y1562797D1*
X3022148Y1564720D1*
X3028324Y1570446D2*
X3036924D1*
X3039798Y1571419D1*
X3040770Y1572369D1*
X3041721Y1574271D1*
Y1576194D1*
X3040770Y1578095D1*
X3039798Y1579068D1*
X3036924Y1580019D1*
X3028324D1*
Y1559923D1*
X3035022Y1570446D2*
X3041721Y1559923D1*
X3047897Y1580019D2*
X3061294Y1559923D1*
Y1580019D2*
X3047897Y1559923D1*
X3068443Y1575221D2*
Y1576172D1*
X3069393Y1578095D1*
X3070344Y1579046D1*
X3072267Y1579997D1*
X3076092D1*
X3077993Y1579046D1*
X3078944Y1578095D1*
X3079917Y1576172D1*
Y1574271D1*
X3078944Y1572347D1*
X3077043Y1569495D1*
X3067470Y1559923D1*
X3080867D1*
X3007800Y1506562D2*
X3016422D1*
X3019274Y1507513D1*
X3020247Y1508486D1*
X3021197Y1510387D1*
Y1513261D1*
X3020247Y1515162D1*
X3019274Y1516135D1*
X3016422Y1517086D1*
X3007800D1*
Y1496990D1*
X3028346Y1512288D2*
Y1513239D1*
X3029296Y1515162D1*
X3030247Y1516113D1*
X3032171Y1517063D1*
X3035995D1*
X3037896Y1516113D1*
X3038847Y1515162D1*
X3039820Y1513239D1*
Y1511338D1*
X3038847Y1509414D1*
X3036946Y1506562D1*
X3027373Y1496990D1*
X3040770D1*
X3047897Y1498913D2*
X3046946Y1497940D1*
X3047897Y1496990D1*
X3048870Y1497940D1*
X3047897Y1498913D1*
X3059821Y1517063D2*
X3056969Y1516113D1*
X3055996Y1514212D1*
Y1512288D1*
X3056969Y1510387D1*
X3058870Y1509414D1*
X3062695Y1508463D1*
X3065569Y1507513D1*
X3067470Y1505589D1*
X3068420Y1503688D1*
Y1500814D1*
X3067470Y1498913D1*
X3066519Y1497940D1*
X3063645Y1496990D1*
X3059821D1*
X3056969Y1497940D1*
X3055996Y1498913D1*
X3055045Y1500814D1*
Y1503688D1*
X3055996Y1505589D1*
X3057919Y1507513D1*
X3060771Y1508463D1*
X3064596Y1509414D1*
X3066519Y1510387D1*
X3067470Y1512288D1*
Y1514212D1*
X3066519Y1516113D1*
X3063645Y1517063D1*
X3059821D1*
X3014499Y1480019D2*
Y1459923D1*
X3007800Y1480019D2*
X3021197D1*
X3027373D2*
X3040770Y1459923D1*
Y1480019D2*
X3027373Y1459923D1*
X3046946Y1480019D2*
Y1459923D1*
X3053645D1*
X3056519Y1460895D1*
X3058442Y1462797D1*
X3059393Y1464720D1*
X3060343Y1467572D1*
Y1472369D1*
X3059393Y1475243D1*
X3058442Y1477145D1*
X3056519Y1479068D1*
X3053645Y1480019D1*
X3046946D1*
X3067492Y1475221D2*
Y1476172D1*
X3068443Y1478095D1*
X3069393Y1479046D1*
X3071317Y1479997D1*
X3075141D1*
X3077043Y1479046D1*
X3077993Y1478095D1*
X3078966Y1476172D1*
Y1474271D1*
X3077993Y1472347D1*
X3076092Y1469495D1*
X3066519Y1459923D1*
X3079917D1*
X3007800Y1406562D2*
X3016422D1*
X3019274Y1407513D1*
X3020247Y1408486D1*
X3021197Y1410387D1*
Y1413261D1*
X3020247Y1415162D1*
X3019274Y1416135D1*
X3016422Y1417086D1*
X3007800D1*
Y1396990D1*
X3028346Y1412288D2*
Y1413239D1*
X3029296Y1415162D1*
X3030247Y1416113D1*
X3032171Y1417063D1*
X3035995D1*
X3037896Y1416113D1*
X3038847Y1415162D1*
X3039820Y1413239D1*
Y1411338D1*
X3038847Y1409414D1*
X3036946Y1406562D1*
X3027373Y1396990D1*
X3040770D1*
X3047897Y1398913D2*
X3046946Y1397940D1*
X3047897Y1396990D1*
X3048870Y1397940D1*
X3047897Y1398913D1*
X3067492Y1410387D2*
X3066519Y1407513D1*
X3064618Y1405589D1*
X3061744Y1404639D1*
X3060793D1*
X3057919Y1405589D1*
X3056018Y1407513D1*
X3055045Y1410387D1*
Y1411338D1*
X3056018Y1414212D1*
X3057919Y1416113D1*
X3060793Y1417063D1*
X3061744D1*
X3064618Y1416113D1*
X3066519Y1414212D1*
X3067492Y1410387D1*
Y1405589D1*
X3066519Y1400814D1*
X3064618Y1397940D1*
X3061744Y1396990D1*
X3059843D1*
X3056969Y1397940D1*
X3056018Y1399864D1*
X3007800Y1370446D2*
X3016400D1*
X3019274Y1371419D1*
X3020247Y1372369D1*
X3021197Y1374271D1*
Y1376194D1*
X3020247Y1378095D1*
X3019274Y1379068D1*
X3016400Y1380019D1*
X3007800D1*
Y1359923D1*
X3014499Y1370446D2*
X3021197Y1359923D1*
X3027373Y1380019D2*
X3040770Y1359923D1*
Y1380019D2*
X3027373Y1359923D1*
X3046946Y1380019D2*
Y1359923D1*
X3053645D1*
X3056519Y1360895D1*
X3058442Y1362797D1*
X3059393Y1364720D1*
X3060343Y1367572D1*
Y1372369D1*
X3059393Y1375243D1*
X3058442Y1377145D1*
X3056519Y1379068D1*
X3053645Y1380019D1*
X3046946D1*
X3067492Y1375221D2*
Y1376172D1*
X3068443Y1378095D1*
X3069393Y1379046D1*
X3071317Y1379997D1*
X3075141D1*
X3077043Y1379046D1*
X3077993Y1378095D1*
X3078966Y1376172D1*
Y1374271D1*
X3077993Y1372347D1*
X3076092Y1369495D1*
X3066519Y1359923D1*
X3079917D1*
X3007800Y1106562D2*
X3016422D1*
X3019274Y1107513D1*
X3020247Y1108486D1*
X3021197Y1110387D1*
Y1113261D1*
X3020247Y1115162D1*
X3019274Y1116135D1*
X3016422Y1117086D1*
X3007800D1*
Y1096990D1*
X3033121Y1117063D2*
X3030247Y1116113D1*
X3028324Y1113239D1*
X3027373Y1108463D1*
Y1105589D1*
X3028324Y1100814D1*
X3030247Y1097940D1*
X3033121Y1096990D1*
X3035022D1*
X3037896Y1097940D1*
X3039798Y1100814D1*
X3040770Y1105589D1*
Y1108463D1*
X3039798Y1113239D1*
X3037896Y1116113D1*
X3035022Y1117063D1*
X3033121D1*
X3039798Y1113239D2*
X3028324Y1100814D1*
X3047897Y1098913D2*
X3046946Y1097940D1*
X3047897Y1096990D1*
X3048870Y1097940D1*
X3047897Y1098913D1*
X3055045Y1113239D2*
X3056969Y1114212D1*
X3059843Y1117063D1*
Y1096990D1*
X3070794Y1117063D2*
X3067942Y1116113D1*
X3066969Y1114212D1*
Y1112288D1*
X3067942Y1110387D1*
X3069843Y1109414D1*
X3073668Y1108463D1*
X3076542Y1107513D1*
X3078443Y1105589D1*
X3079394Y1103688D1*
Y1100814D1*
X3078443Y1098913D1*
X3077492Y1097940D1*
X3074618Y1096990D1*
X3070794D1*
X3067942Y1097940D1*
X3066969Y1098913D1*
X3066018Y1100814D1*
Y1103688D1*
X3066969Y1105589D1*
X3068892Y1107513D1*
X3071744Y1108463D1*
X3075569Y1109414D1*
X3077492Y1110387D1*
X3078443Y1112288D1*
Y1114212D1*
X3077492Y1116113D1*
X3074618Y1117063D1*
X3070794D1*
X3023099Y1059923D2*
Y1080019D1*
X3015449Y1059923D1*
X3007800Y1080019D1*
Y1059923D1*
X3035022Y1080019D2*
X3033099Y1079068D1*
X3031198Y1077145D1*
X3030225Y1075243D1*
X3029274Y1072369D1*
Y1067572D1*
X3030225Y1064720D1*
X3031198Y1062797D1*
X3033099Y1060895D1*
X3035022Y1059923D1*
X3038847D1*
X3040748Y1060895D1*
X3042672Y1062797D1*
X3043622Y1064720D1*
X3044573Y1067572D1*
Y1072369D1*
X3043622Y1075243D1*
X3042672Y1077145D1*
X3040748Y1079068D1*
X3038847Y1080019D1*
X3035022D1*
X3064146Y1077145D2*
X3062245Y1079068D1*
X3059371Y1080019D1*
X3055546D1*
X3052672Y1079068D1*
X3050749Y1077145D1*
Y1075243D1*
X3051721Y1073320D1*
X3052672Y1072369D1*
X3054573Y1071419D1*
X3060321Y1069495D1*
X3062245Y1068545D1*
X3063195Y1067572D1*
X3064146Y1065671D1*
Y1062797D1*
X3062245Y1060895D1*
X3059371Y1059923D1*
X3055546D1*
X3052672Y1060895D1*
X3050749Y1062797D1*
X3070322Y1080019D2*
Y1059923D1*
X3082245Y1079997D2*
X3079371Y1079046D1*
X3077448Y1076172D1*
X3076497Y1071397D1*
Y1068523D1*
X3077448Y1063747D1*
X3079371Y1060873D1*
X3082245Y1059923D1*
X3084147D1*
X3087021Y1060873D1*
X3088922Y1063747D1*
X3089895Y1068523D1*
Y1071397D1*
X3088922Y1076172D1*
X3087021Y1079046D1*
X3084147Y1079997D1*
X3082245D1*
X3088922Y1076172D2*
X3077448Y1063747D1*
X3007800Y1206562D2*
X3016422D1*
X3019274Y1207513D1*
X3020247Y1208486D1*
X3021197Y1210387D1*
Y1213261D1*
X3020247Y1215162D1*
X3019274Y1216135D1*
X3016422Y1217086D1*
X3007800D1*
Y1196990D1*
X3033121Y1217063D2*
X3030247Y1216113D1*
X3028324Y1213239D1*
X3027373Y1208463D1*
Y1205589D1*
X3028324Y1200814D1*
X3030247Y1197940D1*
X3033121Y1196990D1*
X3035022D1*
X3037896Y1197940D1*
X3039798Y1200814D1*
X3040770Y1205589D1*
Y1208463D1*
X3039798Y1213239D1*
X3037896Y1216113D1*
X3035022Y1217063D1*
X3033121D1*
X3039798Y1213239D2*
X3028324Y1200814D1*
X3047897Y1198913D2*
X3046946Y1197940D1*
X3047897Y1196990D1*
X3048870Y1197940D1*
X3047897Y1198913D1*
X3055045Y1213239D2*
X3056969Y1214212D1*
X3059843Y1217063D1*
Y1196990D1*
X3069843D2*
X3079416Y1217063D1*
X3066018D1*
X3023099Y1159923D2*
Y1180019D1*
X3015449Y1159923D1*
X3007800Y1180019D1*
Y1159923D1*
X3029274Y1180019D2*
Y1159923D1*
X3048847Y1177145D2*
X3046946Y1179068D1*
X3044072Y1180019D1*
X3040247D1*
X3037373Y1179068D1*
X3035450Y1177145D1*
Y1175243D1*
X3036423Y1173320D1*
X3037373Y1172369D1*
X3039275Y1171419D1*
X3045023Y1169495D1*
X3046946Y1168545D1*
X3047897Y1167572D1*
X3048847Y1165671D1*
Y1162797D1*
X3046946Y1160895D1*
X3044072Y1159923D1*
X3040247D1*
X3037373Y1160895D1*
X3035450Y1162797D1*
X3060771Y1180019D2*
X3058848Y1179068D1*
X3056946Y1177145D1*
X3055974Y1175243D1*
X3055023Y1172369D1*
Y1167572D1*
X3055974Y1164720D1*
X3056946Y1162797D1*
X3058848Y1160895D1*
X3060771Y1159923D1*
X3064596D1*
X3066497Y1160895D1*
X3068420Y1162797D1*
X3069371Y1164720D1*
X3070322Y1167572D1*
Y1172369D1*
X3069371Y1175243D1*
X3068420Y1177145D1*
X3066497Y1179068D1*
X3064596Y1180019D1*
X3060771D1*
X3082245Y1179997D2*
X3079371Y1179046D1*
X3077448Y1176172D1*
X3076497Y1171397D1*
Y1168523D1*
X3077448Y1163747D1*
X3079371Y1160873D1*
X3082245Y1159923D1*
X3084147D1*
X3087021Y1160873D1*
X3088922Y1163747D1*
X3089895Y1168523D1*
Y1171397D1*
X3088922Y1176172D1*
X3087021Y1179046D1*
X3084147Y1179997D1*
X3082245D1*
X3088922Y1176172D2*
X3077448Y1163747D1*
X3007800Y1306562D2*
X3016422D1*
X3019274Y1307513D1*
X3020247Y1308486D1*
X3021197Y1310387D1*
Y1313261D1*
X3020247Y1315162D1*
X3019274Y1316135D1*
X3016422Y1317086D1*
X3007800D1*
Y1296990D1*
X3033121Y1317063D2*
X3030247Y1316113D1*
X3028324Y1313239D1*
X3027373Y1308463D1*
Y1305589D1*
X3028324Y1300814D1*
X3030247Y1297940D1*
X3033121Y1296990D1*
X3035022D1*
X3037896Y1297940D1*
X3039798Y1300814D1*
X3040770Y1305589D1*
Y1308463D1*
X3039798Y1313239D1*
X3037896Y1316113D1*
X3035022Y1317063D1*
X3033121D1*
X3039798Y1313239D2*
X3028324Y1300814D1*
X3047897Y1298913D2*
X3046946Y1297940D1*
X3047897Y1296990D1*
X3048870Y1297940D1*
X3047897Y1298913D1*
X3055045Y1313239D2*
X3056969Y1314212D1*
X3059843Y1317063D1*
Y1296990D1*
X3077492Y1317063D2*
X3067942D1*
X3066991Y1308463D1*
X3067942Y1309414D1*
X3070816Y1310387D1*
X3073668D1*
X3076542Y1309414D1*
X3078465Y1307513D1*
X3079416Y1304639D1*
Y1302738D1*
X3078465Y1299864D1*
X3076542Y1297940D1*
X3073668Y1296990D1*
X3070816D1*
X3067942Y1297940D1*
X3066991Y1298913D1*
X3066018Y1300814D1*
X3021197Y1277145D2*
X3019296Y1279068D1*
X3016422Y1280019D1*
X3012597D1*
X3009723Y1279068D1*
X3007800Y1277145D1*
Y1275243D1*
X3008773Y1273320D1*
X3009723Y1272369D1*
X3011625Y1271419D1*
X3017373Y1269495D1*
X3019296Y1268545D1*
X3020247Y1267572D1*
X3021197Y1265671D1*
Y1262797D1*
X3019296Y1260895D1*
X3016422Y1259923D1*
X3012597D1*
X3009723Y1260895D1*
X3007800Y1262797D1*
X3041721Y1275243D2*
X3040770Y1277145D1*
X3038847Y1279068D1*
X3036946Y1280019D1*
X3033121D1*
X3031198Y1279068D1*
X3029296Y1277145D1*
X3028324Y1275243D1*
X3027373Y1272369D1*
Y1267572D1*
X3028324Y1264720D1*
X3029296Y1262797D1*
X3031198Y1260895D1*
X3033121Y1259923D1*
X3036946D1*
X3038847Y1260895D1*
X3040770Y1262797D1*
X3041721Y1264720D1*
X3047897Y1280019D2*
Y1259923D1*
X3061294Y1280019D2*
X3047897Y1266621D1*
X3052672Y1271419D2*
X3061294Y1259923D1*
X3073218Y1279997D2*
X3070344Y1279046D1*
X3068420Y1276172D1*
X3067470Y1271397D1*
Y1268523D1*
X3068420Y1263747D1*
X3070344Y1260873D1*
X3073218Y1259923D1*
X3075119D1*
X3077993Y1260873D1*
X3079894Y1263747D1*
X3080867Y1268523D1*
Y1271397D1*
X3079894Y1276172D1*
X3077993Y1279046D1*
X3075119Y1279997D1*
X3073218D1*
X3079894Y1276172D2*
X3068420Y1263747D1*
X3007800Y1006562D2*
X3016422D1*
X3019274Y1007513D1*
X3020247Y1008486D1*
X3021197Y1010387D1*
Y1013261D1*
X3020247Y1015162D1*
X3019274Y1016135D1*
X3016422Y1017086D1*
X3007800D1*
Y996990D1*
X3033121Y1017063D2*
X3030247Y1016113D1*
X3028324Y1013239D1*
X3027373Y1008463D1*
Y1005589D1*
X3028324Y1000814D1*
X3030247Y997940D1*
X3033121Y996990D1*
X3035022D1*
X3037896Y997940D1*
X3039798Y1000814D1*
X3040770Y1005589D1*
Y1008463D1*
X3039798Y1013239D1*
X3037896Y1016113D1*
X3035022Y1017063D1*
X3033121D1*
X3039798Y1013239D2*
X3028324Y1000814D1*
X3047897Y998913D2*
X3046946Y997940D1*
X3047897Y996990D1*
X3048870Y997940D1*
X3047897Y998913D1*
X3055045Y1013239D2*
X3056969Y1014212D1*
X3059843Y1017063D1*
Y996990D1*
X3022148Y975243D2*
X3021197Y977145D1*
X3019274Y979068D1*
X3017373Y980019D1*
X3013548D1*
X3011625Y979068D1*
X3009723Y977145D1*
X3008751Y975243D1*
X3007800Y972369D1*
Y967572D1*
X3008751Y964720D1*
X3009723Y962797D1*
X3011625Y960895D1*
X3013548Y959923D1*
X3017373D1*
X3019274Y960895D1*
X3021197Y962797D1*
X3022148Y964720D1*
X3035022Y980019D2*
Y959923D1*
X3028324Y980019D2*
X3041721D1*
X3047897D2*
X3061294Y959923D1*
Y980019D2*
X3047897Y959923D1*
X3067470Y976172D2*
X3069393Y977145D1*
X3072267Y979997D1*
Y959923D1*
X3007800Y906562D2*
X3016422D1*
X3019274Y907513D1*
X3020247Y908486D1*
X3021197Y910387D1*
Y913261D1*
X3020247Y915162D1*
X3019274Y916135D1*
X3016422Y917086D1*
X3007800D1*
Y896990D1*
X3033121Y917063D2*
X3030247Y916113D1*
X3028324Y913239D1*
X3027373Y908463D1*
Y905589D1*
X3028324Y900814D1*
X3030247Y897940D1*
X3033121Y896990D1*
X3035022D1*
X3037896Y897940D1*
X3039798Y900814D1*
X3040770Y905589D1*
Y908463D1*
X3039798Y913239D1*
X3037896Y916113D1*
X3035022Y917063D1*
X3033121D1*
X3039798Y913239D2*
X3028324Y900814D1*
X3047897Y898913D2*
X3046946Y897940D1*
X3047897Y896990D1*
X3048870Y897940D1*
X3047897Y898913D1*
X3060793Y917063D2*
X3057919Y916113D1*
X3055996Y913239D1*
X3055045Y908463D1*
Y905589D1*
X3055996Y900814D1*
X3057919Y897940D1*
X3060793Y896990D1*
X3062695D1*
X3065569Y897940D1*
X3067470Y900814D1*
X3068443Y905589D1*
Y908463D1*
X3067470Y913239D1*
X3065569Y916113D1*
X3062695Y917063D1*
X3060793D1*
X3067470Y913239D2*
X3055996Y900814D1*
X3022148Y875243D2*
X3021197Y877145D1*
X3019274Y879068D1*
X3017373Y880019D1*
X3013548D1*
X3011625Y879068D1*
X3009723Y877145D1*
X3008751Y875243D1*
X3007800Y872369D1*
Y867572D1*
X3008751Y864720D1*
X3009723Y862797D1*
X3011625Y860895D1*
X3013548Y859923D1*
X3017373D1*
X3019274Y860895D1*
X3021197Y862797D1*
X3022148Y864720D1*
X3028324Y870446D2*
X3036924D1*
X3039798Y871419D1*
X3040770Y872369D1*
X3041721Y874271D1*
Y876194D1*
X3040770Y878095D1*
X3039798Y879068D1*
X3036924Y880019D1*
X3028324D1*
Y859923D1*
X3035022Y870446D2*
X3041721Y859923D1*
X3047897Y880019D2*
X3061294Y859923D1*
Y880019D2*
X3047897Y859923D1*
X3067470Y876172D2*
X3069393Y877145D1*
X3072267Y879997D1*
Y859923D1*
X3007800Y800313D2*
X3016422D1*
X3019274Y801264D1*
X3020247Y802236D1*
X3021197Y804138D1*
Y807012D1*
X3020247Y808913D1*
X3019274Y809886D1*
X3016422Y810836D1*
X3007800D1*
Y790740D1*
X3033121Y810814D2*
X3030247Y809863D1*
X3028324Y806989D1*
X3027373Y802214D1*
Y799340D1*
X3028324Y794565D1*
X3030247Y791691D1*
X3033121Y790740D1*
X3035022D1*
X3037896Y791691D1*
X3039798Y794565D1*
X3040770Y799340D1*
Y802214D1*
X3039798Y806989D1*
X3037896Y809863D1*
X3035022Y810814D1*
X3033121D1*
X3039798Y806989D2*
X3028324Y794565D1*
X3047897Y792664D2*
X3046946Y791691D1*
X3047897Y790740D1*
X3048870Y791691D1*
X3047897Y792664D1*
X3055045Y806989D2*
X3056969Y807962D1*
X3059843Y810814D1*
Y790740D1*
X3066018Y806989D2*
X3067942Y807962D1*
X3070816Y810814D1*
Y790740D1*
X3021197Y770895D2*
X3019296Y772819D1*
X3016422Y773769D1*
X3012597D1*
X3009723Y772819D1*
X3007800Y770895D1*
Y768994D1*
X3008773Y767071D1*
X3009723Y766120D1*
X3011625Y765169D1*
X3017373Y763246D1*
X3019296Y762295D1*
X3020247Y761323D1*
X3021197Y759421D1*
Y756547D1*
X3019296Y754646D1*
X3016422Y753673D1*
X3012597D1*
X3009723Y754646D1*
X3007800Y756547D1*
X3041721Y768994D2*
X3040770Y770895D1*
X3038847Y772819D1*
X3036946Y773769D1*
X3033121D1*
X3031198Y772819D1*
X3029296Y770895D1*
X3028324Y768994D1*
X3027373Y766120D1*
Y761323D1*
X3028324Y758471D1*
X3029296Y756547D1*
X3031198Y754646D1*
X3033121Y753673D1*
X3036946D1*
X3038847Y754646D1*
X3040770Y756547D1*
X3041721Y758471D1*
X3047897Y773769D2*
Y753673D1*
X3059371D1*
X3066519Y768972D2*
Y769923D1*
X3067470Y771846D1*
X3068420Y772797D1*
X3070344Y773747D1*
X3074168D1*
X3076070Y772797D1*
X3077020Y771846D1*
X3077993Y769923D1*
Y768021D1*
X3077020Y766098D1*
X3075119Y763246D1*
X3065546Y753673D1*
X3078944D1*
X2934648Y612312D2*
X2933697Y614213D1*
X2931774Y616136D1*
X2929873Y617087D1*
X2926048D1*
X2924125Y616136D1*
X2922223Y614213D1*
X2921251Y612312D1*
X2920300Y609438D1*
Y604640D1*
X2921251Y601788D1*
X2922223Y599865D1*
X2924125Y597964D1*
X2926048Y596991D1*
X2929873D1*
X2931774Y597964D1*
X2933697Y599865D1*
X2934648Y601788D1*
Y604640D1*
X2929873D1*
X2954221Y617087D2*
Y596991D1*
X2940824Y617087D1*
Y596991D1*
X2960397Y617087D2*
Y596991D1*
X2967095D1*
X2969969Y597964D1*
X2971893Y599865D1*
X2972843Y601788D1*
X2973794Y604640D1*
Y609438D1*
X2972843Y612312D1*
X2971893Y614213D1*
X2969969Y616136D1*
X2967095Y617087D1*
X2960397D1*
X2828399Y612312D2*
X2827448Y614213D1*
X2825525Y616136D1*
X2823623Y617087D1*
X2819799D1*
X2817875Y616136D1*
X2815974Y614213D1*
X2815001Y612312D1*
X2814051Y609438D1*
Y604640D1*
X2815001Y601788D1*
X2815974Y599865D1*
X2817875Y597964D1*
X2819799Y596991D1*
X2823623D1*
X2825525Y597964D1*
X2827448Y599865D1*
X2828399Y601788D1*
Y604640D1*
X2823623D1*
X2847972Y617087D2*
Y596991D1*
X2834574Y617087D1*
Y596991D1*
X2854147Y617087D2*
Y596991D1*
X2860846D1*
X2863720Y597964D1*
X2865644Y599865D1*
X2866594Y601788D1*
X2867545Y604640D1*
Y609438D1*
X2866594Y612312D1*
X2865644Y614213D1*
X2863720Y616136D1*
X2860846Y617087D1*
X2854147D1*
X2704926Y812814D2*
X2713548D1*
X2716400Y813765D1*
X2717373Y814738D1*
X2718323Y816639D1*
Y819513D1*
X2717373Y821414D1*
X2716400Y822387D1*
X2713548Y823338D1*
X2704926D1*
Y803242D1*
X2730247Y823315D2*
X2727373Y822365D1*
X2725450Y819491D1*
X2724499Y814715D1*
Y811841D1*
X2725450Y807066D1*
X2727373Y804192D1*
X2730247Y803242D1*
X2732148D1*
X2735022Y804192D1*
X2736924Y807066D1*
X2737896Y811841D1*
Y814715D1*
X2736924Y819491D1*
X2735022Y822365D1*
X2732148Y823315D1*
X2730247D1*
X2736924Y819491D2*
X2725450Y807066D1*
X2745023Y805165D2*
X2744072Y804192D1*
X2745023Y803242D1*
X2745996Y804192D1*
X2745023Y805165D1*
X2752171Y819491D2*
X2754095Y820463D1*
X2756969Y823315D1*
Y803242D1*
X2768892Y823315D2*
X2766018Y822365D1*
X2764095Y819491D1*
X2763144Y814715D1*
Y811841D1*
X2764095Y807066D1*
X2766018Y804192D1*
X2768892Y803242D1*
X2770794D1*
X2773668Y804192D1*
X2775569Y807066D1*
X2776542Y811841D1*
Y814715D1*
X2775569Y819491D1*
X2773668Y822365D1*
X2770794Y823315D1*
X2768892D1*
X2775569Y819491D2*
X2764095Y807066D1*
X2735472Y790608D2*
X2733570Y792531D1*
X2730696Y793482D1*
X2726872D1*
X2723998Y792531D1*
X2722074Y790608D1*
Y788707D1*
X2723047Y786783D1*
X2723998Y785833D1*
X2725899Y784882D1*
X2731647Y782959D1*
X2733570Y782008D1*
X2734521Y781035D1*
X2735472Y779134D1*
Y776260D1*
X2733570Y774359D1*
X2730696Y773386D1*
X2726872D1*
X2723998Y774359D1*
X2722074Y776260D1*
X2741647Y793482D2*
Y773386D1*
X2748346D1*
X2751220Y774359D1*
X2753143Y776260D1*
X2754094Y778183D1*
X2755045Y781035D1*
Y785833D1*
X2754094Y788707D1*
X2753143Y790608D1*
X2751220Y792531D1*
X2748346Y793482D1*
X2741647D1*
X2776541Y773386D2*
X2768870Y793482D1*
X2761220Y773386D1*
X2764094Y780085D2*
X2773667D1*
X2716851Y2106997D2*
X2725473D1*
X2728325Y2107947D1*
X2729298Y2108920D1*
X2730249Y2110821D1*
Y2113695D1*
X2729298Y2115597D1*
X2728325Y2116569D1*
X2725473Y2117520D1*
X2716851D1*
Y2097424D1*
X2742172Y2117498D2*
X2739298Y2116547D1*
X2737375Y2113673D1*
X2736424Y2108898D1*
Y2106024D1*
X2737375Y2101249D1*
X2739298Y2098375D1*
X2742172Y2097424D1*
X2744074D1*
X2746948Y2098375D1*
X2748849Y2101249D1*
X2749822Y2106024D1*
Y2108898D1*
X2748849Y2113673D1*
X2746948Y2116547D1*
X2744074Y2117498D1*
X2742172D1*
X2748849Y2113673D2*
X2737375Y2101249D1*
X2756948Y2099347D2*
X2755997Y2098375D1*
X2756948Y2097424D1*
X2757921Y2098375D1*
X2756948Y2099347D1*
X2776543Y2110821D2*
X2775570Y2107947D1*
X2773669Y2106024D1*
X2770795Y2105073D1*
X2769844D1*
X2766970Y2106024D1*
X2765069Y2107947D1*
X2764096Y2110821D1*
Y2111772D1*
X2765069Y2114646D1*
X2766970Y2116547D1*
X2769844Y2117498D1*
X2770795D1*
X2773669Y2116547D1*
X2775570Y2114646D1*
X2776543Y2110821D1*
Y2106024D1*
X2775570Y2101249D1*
X2773669Y2098375D1*
X2770795Y2097424D1*
X2768894D1*
X2766020Y2098375D1*
X2765069Y2100298D1*
X2718345Y2059923D2*
Y2080019D1*
X2710696Y2059923D1*
X2703047Y2080019D1*
Y2059923D1*
X2730269Y2080019D2*
X2728346Y2079068D1*
X2726444Y2077145D1*
X2725472Y2075243D1*
X2724521Y2072369D1*
Y2067572D1*
X2725472Y2064720D1*
X2726444Y2062797D1*
X2728346Y2060895D1*
X2730269Y2059923D1*
X2734094D1*
X2735995Y2060895D1*
X2737918Y2062797D1*
X2738869Y2064720D1*
X2739820Y2067572D1*
Y2072369D1*
X2738869Y2075243D1*
X2737918Y2077145D1*
X2735995Y2079068D1*
X2734094Y2080019D1*
X2730269D1*
X2759393Y2077145D2*
X2757491Y2079068D1*
X2754617Y2080019D1*
X2750793D1*
X2747919Y2079068D1*
X2745995Y2077145D1*
Y2075243D1*
X2746968Y2073320D1*
X2747919Y2072369D1*
X2749820Y2071419D1*
X2755568Y2069495D1*
X2757491Y2068545D1*
X2758442Y2067572D1*
X2759393Y2065671D1*
Y2062797D1*
X2757491Y2060895D1*
X2754617Y2059923D1*
X2750793D1*
X2747919Y2060895D1*
X2745995Y2062797D1*
X2765568Y2080019D2*
Y2059923D1*
X2771744Y2076172D2*
X2773668Y2077145D1*
X2776542Y2079997D1*
Y2059923D1*
X2697299Y2000747D2*
X2705921D1*
X2708773Y2001698D1*
X2709745Y2002671D1*
X2710696Y2004572D1*
Y2007446D1*
X2709745Y2009347D1*
X2708773Y2010320D1*
X2705921Y2011271D1*
X2697299D1*
Y1991175D1*
X2722620Y2011248D2*
X2719746Y2010298D1*
X2717822Y2007424D1*
X2716872Y2002649D1*
Y1999775D1*
X2717822Y1994999D1*
X2719746Y1992125D1*
X2722620Y1991175D1*
X2724521D1*
X2727395Y1992125D1*
X2729296Y1994999D1*
X2730269Y1999775D1*
Y2002649D1*
X2729296Y2007424D1*
X2727395Y2010298D1*
X2724521Y2011248D1*
X2722620D1*
X2729296Y2007424D2*
X2717822Y1994999D1*
X2737395Y1993098D2*
X2736445Y1992125D1*
X2737395Y1991175D1*
X2738368Y1992125D1*
X2737395Y1993098D1*
X2745517Y2006473D2*
Y2007424D1*
X2746467Y2009347D1*
X2747418Y2010298D1*
X2749341Y2011248D1*
X2753166D1*
X2755067Y2010298D1*
X2756018Y2009347D1*
X2756991Y2007424D1*
Y2005523D1*
X2756018Y2003599D1*
X2754117Y2000747D1*
X2744544Y1991175D1*
X2757941D1*
X2775591Y2008397D2*
X2774640Y2010298D1*
X2771766Y2011248D1*
X2769865D1*
X2766991Y2010298D1*
X2765068Y2007424D1*
X2764117Y2002649D1*
Y1997873D1*
X2765068Y1994049D1*
X2766991Y1992125D1*
X2769865Y1991175D1*
X2770816D1*
X2773668Y1992125D1*
X2775591Y1994049D1*
X2776542Y1996923D1*
Y1997873D1*
X2775591Y2000747D1*
X2773668Y2002649D1*
X2770816Y2003599D1*
X2769865D1*
X2766991Y2002649D1*
X2765068Y2000747D1*
X2764117Y1997873D1*
X2716873Y1953673D2*
X2709201Y1973769D1*
X2701552Y1953673D1*
X2704426Y1960372D2*
X2713999D1*
X2723048Y1973769D2*
Y1953673D1*
X2729747D1*
X2732621Y1954646D1*
X2734545Y1956547D1*
X2735495Y1958471D1*
X2736446Y1961323D1*
Y1966120D1*
X2735495Y1968994D1*
X2734545Y1970895D1*
X2732621Y1972819D1*
X2729747Y1973769D1*
X2723048D1*
X2756969Y1968994D2*
X2756019Y1970895D1*
X2754095Y1972819D1*
X2752194Y1973769D1*
X2748370D1*
X2746446Y1972819D1*
X2744545Y1970895D1*
X2743572Y1968994D1*
X2742621Y1966120D1*
Y1961323D1*
X2743572Y1958471D1*
X2744545Y1956547D1*
X2746446Y1954646D1*
X2748370Y1953673D1*
X2752194D1*
X2754095Y1954646D1*
X2756019Y1956547D1*
X2756969Y1958471D1*
X2765069Y1973747D2*
X2775570D1*
X2769844Y1966098D1*
X2772718D1*
X2774619Y1965147D1*
X2775570Y1964197D1*
X2776543Y1961323D1*
Y1959421D1*
X2775570Y1956547D1*
X2773668Y1954624D1*
X2770794Y1953673D1*
X2767920D1*
X2765069Y1954624D1*
X2764118Y1955597D1*
X2763145Y1957498D1*
X2704927Y1900747D2*
X2713549D1*
X2716401Y1901698D1*
X2717374Y1902671D1*
X2718325Y1904572D1*
Y1907446D1*
X2717374Y1909347D1*
X2716401Y1910320D1*
X2713549Y1911271D1*
X2704927D1*
Y1891175D1*
X2730248Y1911248D2*
X2727374Y1910298D1*
X2725451Y1907424D1*
X2724500Y1902649D1*
Y1899775D1*
X2725451Y1894999D1*
X2727374Y1892125D1*
X2730248Y1891175D1*
X2732150D1*
X2735024Y1892125D1*
X2736925Y1894999D1*
X2737898Y1899775D1*
Y1902649D1*
X2736925Y1907424D1*
X2735024Y1910298D1*
X2732150Y1911248D1*
X2730248D1*
X2736925Y1907424D2*
X2725451Y1894999D1*
X2745024Y1893098D2*
X2744073Y1892125D1*
X2745024Y1891175D1*
X2745997Y1892125D1*
X2745024Y1893098D1*
X2754096Y1911248D2*
X2764597D1*
X2758871Y1903599D1*
X2761745D1*
X2763646Y1902649D1*
X2764597Y1901698D1*
X2765570Y1898824D1*
Y1896923D1*
X2764597Y1894049D1*
X2762696Y1892125D1*
X2759822Y1891175D1*
X2756948D1*
X2754096Y1892125D1*
X2753145Y1893098D1*
X2752173Y1894999D1*
X2771746Y1907424D2*
X2773669Y1908397D1*
X2776543Y1911248D1*
Y1891175D1*
X2716873Y1853673D2*
X2709201Y1873769D1*
X2701552Y1853673D1*
X2704426Y1860372D2*
X2713999D1*
X2723048Y1873769D2*
Y1853673D1*
X2729747D1*
X2732621Y1854646D1*
X2734545Y1856547D1*
X2735495Y1858471D1*
X2736446Y1861323D1*
Y1866120D1*
X2735495Y1868994D1*
X2734545Y1870895D1*
X2732621Y1872819D1*
X2729747Y1873769D1*
X2723048D1*
X2756969Y1868994D2*
X2756019Y1870895D1*
X2754095Y1872819D1*
X2752194Y1873769D1*
X2748370D1*
X2746446Y1872819D1*
X2744545Y1870895D1*
X2743572Y1868994D1*
X2742621Y1866120D1*
Y1861323D1*
X2743572Y1858471D1*
X2744545Y1856547D1*
X2746446Y1854646D1*
X2748370Y1853673D1*
X2752194D1*
X2754095Y1854646D1*
X2756019Y1856547D1*
X2756969Y1858471D1*
X2774619Y1873747D2*
X2765069D1*
X2764118Y1865147D1*
X2765069Y1866098D1*
X2767943Y1867071D1*
X2770794D1*
X2773668Y1866098D1*
X2775592Y1864197D1*
X2776543Y1861323D1*
Y1859421D1*
X2775592Y1856547D1*
X2773668Y1854624D1*
X2770794Y1853673D1*
X2767943D1*
X2765069Y1854624D1*
X2764118Y1855597D1*
X2763145Y1857498D1*
X2715900Y2300312D2*
X2724522D1*
X2727374Y2301262D1*
X2728347Y2302235D1*
X2729297Y2304136D1*
Y2307010D1*
X2728347Y2308912D1*
X2727374Y2309884D1*
X2724522Y2310835D1*
X2715900D1*
Y2290739D1*
X2741221Y2310813D2*
X2738347Y2309862D1*
X2736423Y2306988D1*
X2735473Y2302213D1*
Y2299339D1*
X2736423Y2294564D1*
X2738347Y2291690D1*
X2741221Y2290739D1*
X2743122D1*
X2745996Y2291690D1*
X2747897Y2294564D1*
X2748870Y2299339D1*
Y2302213D1*
X2747897Y2306988D1*
X2745996Y2309862D1*
X2743122Y2310813D1*
X2741221D1*
X2747897Y2306988D2*
X2736423Y2294564D1*
X2755997Y2292662D2*
X2755046Y2291690D1*
X2755997Y2290739D1*
X2756969Y2291690D1*
X2755997Y2292662D1*
X2766970Y2290739D2*
X2776542Y2310813D1*
X2763145D1*
X2725473Y2270894D2*
X2723572Y2272817D1*
X2720698Y2273768D1*
X2716873D1*
X2713999Y2272817D1*
X2712076Y2270894D1*
Y2268993D1*
X2713048Y2267069D1*
X2713999Y2266119D1*
X2715900Y2265168D1*
X2721648Y2263245D1*
X2723572Y2262294D1*
X2724522Y2261321D1*
X2725473Y2259420D1*
Y2256546D1*
X2723572Y2254645D1*
X2720698Y2253672D1*
X2716873D1*
X2713999Y2254645D1*
X2712076Y2256546D1*
X2745997Y2268993D2*
X2745046Y2270894D1*
X2743123Y2272817D1*
X2741221Y2273768D1*
X2737397D1*
X2735473Y2272817D1*
X2733572Y2270894D1*
X2732599Y2268993D1*
X2731649Y2266119D1*
Y2261321D1*
X2732599Y2258469D1*
X2733572Y2256546D1*
X2735473Y2254645D1*
X2737397Y2253672D1*
X2741221D1*
X2743123Y2254645D1*
X2745046Y2256546D1*
X2745997Y2258469D1*
X2752172Y2273768D2*
Y2253672D1*
X2765570Y2273768D2*
X2752172Y2260371D1*
X2756948Y2265168D2*
X2765570Y2253672D1*
X2771745Y2269921D2*
X2773669Y2270894D1*
X2776543Y2273746D1*
Y2253672D1*
X2715921Y2206562D2*
X2724543D1*
X2727395Y2207513D1*
X2728368Y2208486D1*
X2729318Y2210387D1*
Y2213261D1*
X2728368Y2215162D1*
X2727395Y2216135D1*
X2724543Y2217086D1*
X2715921D1*
Y2196990D1*
X2741242Y2217063D2*
X2738368Y2216113D1*
X2736444Y2213239D1*
X2735494Y2208463D1*
Y2205589D1*
X2736444Y2200814D1*
X2738368Y2197940D1*
X2741242Y2196990D1*
X2743143D1*
X2746017Y2197940D1*
X2747918Y2200814D1*
X2748891Y2205589D1*
Y2208463D1*
X2747918Y2213239D1*
X2746017Y2216113D1*
X2743143Y2217063D1*
X2741242D1*
X2747918Y2213239D2*
X2736444Y2200814D1*
X2756018Y2198913D2*
X2755067Y2197940D1*
X2756018Y2196990D1*
X2756990Y2197940D1*
X2756018Y2198913D1*
X2767941Y2217063D2*
X2765089Y2216113D1*
X2764117Y2214212D1*
Y2212288D1*
X2765089Y2210387D1*
X2766991Y2209414D1*
X2770815Y2208463D1*
X2773689Y2207513D1*
X2775591Y2205589D1*
X2776541Y2203688D1*
Y2200814D1*
X2775591Y2198913D1*
X2774640Y2197940D1*
X2771766Y2196990D1*
X2767941D1*
X2765089Y2197940D1*
X2764117Y2198913D1*
X2763166Y2200814D1*
Y2203688D1*
X2764117Y2205589D1*
X2766040Y2207513D1*
X2768892Y2208463D1*
X2772717Y2209414D1*
X2774640Y2210387D1*
X2775591Y2212288D1*
Y2214212D1*
X2774640Y2216113D1*
X2771766Y2217063D1*
X2767941D1*
X2718345Y2159923D2*
Y2180019D1*
X2710696Y2159923D1*
X2703047Y2180019D1*
Y2159923D1*
X2724521Y2180019D2*
Y2159923D1*
X2744094Y2177145D2*
X2742193Y2179068D1*
X2739319Y2180019D1*
X2735494D1*
X2732620Y2179068D1*
X2730697Y2177145D1*
Y2175243D1*
X2731670Y2173320D1*
X2732620Y2172369D1*
X2734521Y2171419D1*
X2740269Y2169495D1*
X2742193Y2168545D1*
X2743144Y2167572D1*
X2744094Y2165671D1*
Y2162797D1*
X2742193Y2160895D1*
X2739319Y2159923D1*
X2735494D1*
X2732620Y2160895D1*
X2730697Y2162797D1*
X2756018Y2180019D2*
X2754094Y2179068D1*
X2752193Y2177145D1*
X2751220Y2175243D1*
X2750270Y2172369D1*
Y2167572D1*
X2751220Y2164720D1*
X2752193Y2162797D1*
X2754094Y2160895D1*
X2756018Y2159923D1*
X2759843D1*
X2761744Y2160895D1*
X2763667Y2162797D1*
X2764618Y2164720D1*
X2765568Y2167572D1*
Y2172369D1*
X2764618Y2175243D1*
X2763667Y2177145D1*
X2761744Y2179068D1*
X2759843Y2180019D1*
X2756018D1*
X2771744Y2176172D2*
X2773668Y2177145D1*
X2776542Y2179997D1*
Y2159923D1*
X2696326Y2506562D2*
X2704948D1*
X2707800Y2507513D1*
X2708773Y2508486D1*
X2709724Y2510387D1*
Y2513261D1*
X2708773Y2515162D1*
X2707800Y2516135D1*
X2704948Y2517086D1*
X2696326D1*
Y2496990D1*
X2725472D2*
Y2517063D1*
X2715899Y2503688D1*
X2730247D1*
X2737374Y2498913D2*
X2736423Y2497940D1*
X2737374Y2496990D1*
X2738346Y2497940D1*
X2737374Y2498913D1*
X2745495Y2512288D2*
Y2513239D1*
X2746445Y2515162D1*
X2747396Y2516113D1*
X2749320Y2517063D1*
X2753144D1*
X2755045Y2516113D1*
X2755996Y2515162D1*
X2756969Y2513239D1*
Y2511338D1*
X2755996Y2509414D1*
X2754095Y2506562D1*
X2744522Y2496990D1*
X2757919D1*
X2776542Y2510387D2*
X2775569Y2507513D1*
X2773668Y2505589D1*
X2770794Y2504639D1*
X2769843D1*
X2766969Y2505589D1*
X2765068Y2507513D1*
X2764095Y2510387D1*
Y2511338D1*
X2765068Y2514212D1*
X2766969Y2516113D1*
X2769843Y2517063D1*
X2770794D1*
X2773668Y2516113D1*
X2775569Y2514212D1*
X2776542Y2510387D1*
Y2505589D1*
X2775569Y2500814D1*
X2773668Y2497940D1*
X2770794Y2496990D1*
X2768893D1*
X2766019Y2497940D1*
X2765068Y2499864D1*
X2696328Y2606997D2*
X2704950D1*
X2707802Y2607947D1*
X2708774Y2608920D1*
X2709725Y2610821D1*
Y2613695D1*
X2708774Y2615597D1*
X2707802Y2616569D1*
X2704950Y2617520D1*
X2696328D1*
Y2597424D1*
X2721649Y2617498D2*
X2718775Y2616547D1*
X2716851Y2613673D1*
X2715901Y2608898D1*
Y2606024D1*
X2716851Y2601249D1*
X2718775Y2598375D1*
X2721649Y2597424D1*
X2723550D1*
X2726424Y2598375D1*
X2728325Y2601249D1*
X2729298Y2606024D1*
Y2608898D1*
X2728325Y2613673D1*
X2726424Y2616547D1*
X2723550Y2617498D1*
X2721649D1*
X2728325Y2613673D2*
X2716851Y2601249D1*
X2736424Y2599347D2*
X2735474Y2598375D1*
X2736424Y2597424D1*
X2737397Y2598375D1*
X2736424Y2599347D1*
X2744546Y2612723D2*
Y2613673D1*
X2745496Y2615597D1*
X2746447Y2616547D1*
X2748370Y2617498D1*
X2752195D1*
X2754096Y2616547D1*
X2755047Y2615597D1*
X2756019Y2613673D1*
Y2611772D1*
X2755047Y2609849D1*
X2753145Y2606997D1*
X2743573Y2597424D1*
X2756970D1*
X2764119Y2612723D2*
Y2613673D1*
X2765069Y2615597D1*
X2766020Y2616547D1*
X2767943Y2617498D1*
X2771768D1*
X2773669Y2616547D1*
X2774620Y2615597D1*
X2775593Y2613673D1*
Y2611772D1*
X2774620Y2609849D1*
X2772719Y2606997D1*
X2763146Y2597424D1*
X2776543D1*
X2710173Y2580019D2*
Y2559923D1*
X2703475Y2580019D2*
X2716872D1*
X2723048D2*
X2736445Y2559923D1*
Y2580019D2*
X2723048Y2559923D1*
X2742621Y2580019D2*
Y2559923D1*
X2749319D1*
X2752193Y2560895D1*
X2754117Y2562797D1*
X2755067Y2564720D1*
X2756018Y2567572D1*
Y2572369D1*
X2755067Y2575243D1*
X2754117Y2577145D1*
X2752193Y2579068D1*
X2749319Y2580019D1*
X2742621D1*
X2771766Y2559923D2*
Y2579997D1*
X2762194Y2566621D1*
X2776542D1*
X2704426Y2470446D2*
X2713026D1*
X2715900Y2471419D1*
X2716873Y2472369D1*
X2717823Y2474271D1*
Y2476194D1*
X2716873Y2478095D1*
X2715900Y2479068D1*
X2713026Y2480019D1*
X2704426D1*
Y2459923D1*
X2711125Y2470446D2*
X2717823Y2459923D1*
X2723999Y2480019D2*
X2737396Y2459923D1*
Y2480019D2*
X2723999Y2459923D1*
X2743572Y2480019D2*
Y2459923D1*
X2750271D1*
X2753145Y2460895D1*
X2755068Y2462797D1*
X2756019Y2464720D1*
X2756969Y2467572D1*
Y2472369D1*
X2756019Y2475243D1*
X2755068Y2477145D1*
X2753145Y2479068D1*
X2750271Y2480019D1*
X2743572D1*
X2765069Y2479997D2*
X2775570D1*
X2769844Y2472347D1*
X2772718D1*
X2774619Y2471397D1*
X2775570Y2470446D1*
X2776543Y2467572D1*
Y2465671D1*
X2775570Y2462797D1*
X2773668Y2460873D1*
X2770794Y2459923D1*
X2767920D1*
X2765069Y2460873D1*
X2764118Y2461846D1*
X2763145Y2463747D1*
X2695397Y2406562D2*
X2704019D1*
X2706871Y2407513D1*
X2707844Y2408486D1*
X2708795Y2410387D1*
Y2413261D1*
X2707844Y2415162D1*
X2706871Y2416135D1*
X2704019Y2417086D1*
X2695397D1*
Y2396990D1*
X2724543D2*
Y2417063D1*
X2714970Y2403688D1*
X2729318D1*
X2736445Y2398913D2*
X2735494Y2397940D1*
X2736445Y2396990D1*
X2737417Y2397940D1*
X2736445Y2398913D1*
X2744566Y2412288D2*
Y2413239D1*
X2745516Y2415162D1*
X2746467Y2416113D1*
X2748390Y2417063D1*
X2752215D1*
X2754116Y2416113D1*
X2755067Y2415162D1*
X2756040Y2413239D1*
Y2411338D1*
X2755067Y2409414D1*
X2753166Y2406562D1*
X2743593Y2396990D1*
X2756990D1*
X2767941Y2417063D2*
X2765089Y2416113D1*
X2764117Y2414212D1*
Y2412288D1*
X2765089Y2410387D1*
X2766991Y2409414D1*
X2770815Y2408463D1*
X2773689Y2407513D1*
X2775591Y2405589D1*
X2776541Y2403688D1*
Y2400814D1*
X2775591Y2398913D1*
X2774640Y2397940D1*
X2771766Y2396990D1*
X2767941D1*
X2765089Y2397940D1*
X2764117Y2398913D1*
X2763166Y2400814D1*
Y2403688D1*
X2764117Y2405589D1*
X2766040Y2407513D1*
X2768892Y2408463D1*
X2772717Y2409414D1*
X2774640Y2410387D1*
X2775591Y2412288D1*
Y2414212D1*
X2774640Y2416113D1*
X2771766Y2417063D1*
X2767941D1*
X2711125Y2380019D2*
Y2359923D1*
X2704426Y2380019D2*
X2717823D1*
X2723999D2*
X2737396Y2359923D1*
Y2380019D2*
X2723999Y2359923D1*
X2743572Y2380019D2*
Y2359923D1*
X2750271D1*
X2753145Y2360895D1*
X2755068Y2362797D1*
X2756019Y2364720D1*
X2756969Y2367572D1*
Y2372369D1*
X2756019Y2375243D1*
X2755068Y2377145D1*
X2753145Y2379068D1*
X2750271Y2380019D1*
X2743572D1*
X2765069Y2379997D2*
X2775570D1*
X2769844Y2372347D1*
X2772718D1*
X2774619Y2371397D1*
X2775570Y2370446D1*
X2776543Y2367572D1*
Y2365671D1*
X2775570Y2362797D1*
X2773668Y2360873D1*
X2770794Y2359923D1*
X2767920D1*
X2765069Y2360873D1*
X2764118Y2361846D1*
X2763145Y2363747D1*
X2704927Y1800747D2*
X2713549D1*
X2716401Y1801698D1*
X2717374Y1802671D1*
X2718325Y1804572D1*
Y1807446D1*
X2717374Y1809347D1*
X2716401Y1810320D1*
X2713549Y1811271D1*
X2704927D1*
Y1791175D1*
X2724500Y1807424D2*
X2726424Y1808397D1*
X2729298Y1811248D1*
Y1791175D1*
X2736424Y1793098D2*
X2735474Y1792125D1*
X2736424Y1791175D1*
X2737397Y1792125D1*
X2736424Y1793098D1*
X2745496Y1811248D2*
X2755997D1*
X2750271Y1803599D1*
X2753145D1*
X2755047Y1802649D1*
X2755997Y1801698D1*
X2756970Y1798824D1*
Y1796923D1*
X2755997Y1794049D1*
X2754096Y1792125D1*
X2751222Y1791175D1*
X2748348D1*
X2745496Y1792125D1*
X2744545Y1793098D1*
X2743573Y1794999D1*
X2768894Y1811248D2*
X2766020Y1810298D1*
X2764096Y1807424D1*
X2763146Y1802649D1*
Y1799775D1*
X2764096Y1794999D1*
X2766020Y1792125D1*
X2768894Y1791175D1*
X2770795D1*
X2773669Y1792125D1*
X2775570Y1794999D1*
X2776543Y1799775D1*
Y1802649D1*
X2775570Y1807424D1*
X2773669Y1810298D1*
X2770795Y1811248D1*
X2768894D1*
X2775570Y1807424D2*
X2764096Y1794999D1*
X2715921Y1753673D2*
X2708250Y1773769D1*
X2700601Y1753673D1*
X2703475Y1760372D2*
X2713047D1*
X2722097Y1773769D2*
Y1753673D1*
X2728796D1*
X2731670Y1754646D1*
X2733593Y1756547D1*
X2734544Y1758471D1*
X2735494Y1761323D1*
Y1766120D1*
X2734544Y1768994D1*
X2733593Y1770895D1*
X2731670Y1772819D1*
X2728796Y1773769D1*
X2722097D1*
X2756018Y1768994D2*
X2755067Y1770895D1*
X2753144Y1772819D1*
X2751243Y1773769D1*
X2747418D1*
X2745495Y1772819D1*
X2743593Y1770895D1*
X2742621Y1768994D1*
X2741670Y1766120D1*
Y1761323D1*
X2742621Y1758471D1*
X2743593Y1756547D1*
X2745495Y1754646D1*
X2747418Y1753673D1*
X2751243D1*
X2753144Y1754646D1*
X2755067Y1756547D1*
X2756018Y1758471D1*
X2771766Y1753673D2*
Y1773747D1*
X2762194Y1760372D1*
X2776542D1*
X2705876Y1700747D2*
X2714498D1*
X2717350Y1701698D1*
X2718323Y1702671D1*
X2719274Y1704572D1*
Y1707446D1*
X2718323Y1709347D1*
X2717350Y1710320D1*
X2714498Y1711271D1*
X2705876D1*
Y1691175D1*
X2725449Y1707424D2*
X2727373Y1708397D1*
X2730247Y1711248D1*
Y1691175D1*
X2737373Y1693098D2*
X2736422Y1692125D1*
X2737373Y1691175D1*
X2738346Y1692125D1*
X2737373Y1693098D1*
X2745494Y1706473D2*
Y1707424D1*
X2746445Y1709347D1*
X2747395Y1710298D1*
X2749319Y1711248D1*
X2753143D1*
X2755045Y1710298D1*
X2755995Y1709347D1*
X2756968Y1707424D1*
Y1705523D1*
X2755995Y1703599D1*
X2754094Y1700747D1*
X2744521Y1691175D1*
X2757919D1*
X2776541Y1704572D2*
X2775568Y1701698D1*
X2773667Y1699775D1*
X2770793Y1698824D1*
X2769842D1*
X2766968Y1699775D1*
X2765067Y1701698D1*
X2764094Y1704572D1*
Y1705523D1*
X2765067Y1708397D1*
X2766968Y1710298D1*
X2769842Y1711248D1*
X2770793D1*
X2773667Y1710298D1*
X2775568Y1708397D1*
X2776541Y1704572D1*
Y1699775D1*
X2775568Y1694999D1*
X2773667Y1692125D1*
X2770793Y1691175D1*
X2768892D1*
X2766018Y1692125D1*
X2765067Y1694049D1*
X2716872Y1653673D2*
Y1673769D1*
X2709222Y1653673D1*
X2701573Y1673769D1*
Y1653673D1*
X2737395Y1668994D2*
X2736445Y1670895D1*
X2734521Y1672819D1*
X2732620Y1673769D1*
X2728795D1*
X2726872Y1672819D1*
X2724971Y1670895D1*
X2723998Y1668994D1*
X2723047Y1666120D1*
Y1661323D1*
X2723998Y1658471D1*
X2724971Y1656547D1*
X2726872Y1654646D1*
X2728795Y1653673D1*
X2732620D1*
X2734521Y1654646D1*
X2736445Y1656547D1*
X2737395Y1658471D1*
X2744544Y1668972D2*
Y1669923D1*
X2745494Y1671846D1*
X2746445Y1672797D1*
X2748368Y1673747D1*
X2752193D1*
X2754094Y1672797D1*
X2755045Y1671846D1*
X2756018Y1669923D1*
Y1668021D1*
X2755045Y1666098D1*
X2753144Y1663246D1*
X2743571Y1653673D1*
X2756968D1*
X2763144Y1673769D2*
Y1653673D1*
X2771766D1*
X2774640Y1654646D1*
X2775591Y1655597D1*
X2776541Y1657498D1*
Y1660372D1*
X2775591Y1662295D1*
X2774640Y1663246D1*
X2771766Y1664197D1*
X2774640Y1665169D1*
X2775591Y1666120D1*
X2776541Y1668021D1*
Y1669945D1*
X2775591Y1671846D1*
X2774640Y1672819D1*
X2771766Y1673769D1*
X2763144D1*
Y1664197D2*
X2771766D1*
X2704948Y1600747D2*
X2713570D1*
X2716422Y1601698D1*
X2717395Y1602671D1*
X2718346Y1604572D1*
Y1607446D1*
X2717395Y1609347D1*
X2716422Y1610320D1*
X2713570Y1611271D1*
X2704948D1*
Y1591175D1*
X2724521Y1607424D2*
X2726445Y1608397D1*
X2729319Y1611248D1*
Y1591175D1*
X2736445Y1593098D2*
X2735495Y1592125D1*
X2736445Y1591175D1*
X2737418Y1592125D1*
X2736445Y1593098D1*
X2744566Y1606473D2*
Y1607424D1*
X2745517Y1609347D1*
X2746468Y1610298D1*
X2748391Y1611248D1*
X2752216D1*
X2754117Y1610298D1*
X2755068Y1609347D1*
X2756040Y1607424D1*
Y1605523D1*
X2755068Y1603599D1*
X2753166Y1600747D1*
X2743594Y1591175D1*
X2756991D1*
X2767942Y1611248D2*
X2765090Y1610298D1*
X2764117Y1608397D1*
Y1606473D1*
X2765090Y1604572D1*
X2766991Y1603599D1*
X2770816Y1602649D1*
X2773690Y1601698D1*
X2775591Y1599775D1*
X2776542Y1597873D1*
Y1594999D1*
X2775591Y1593098D1*
X2774641Y1592125D1*
X2771767Y1591175D1*
X2767942D1*
X2765090Y1592125D1*
X2764117Y1593098D1*
X2763167Y1594999D1*
Y1597873D1*
X2764117Y1599775D1*
X2766041Y1601698D1*
X2768893Y1602649D1*
X2772717Y1603599D1*
X2774641Y1604572D1*
X2775591Y1606473D1*
Y1608397D1*
X2774641Y1610298D1*
X2771767Y1611248D1*
X2767942D1*
X2714949Y1553673D2*
Y1573769D1*
X2707300Y1553673D1*
X2699650Y1573769D1*
Y1553673D1*
X2735473Y1568994D2*
X2734522Y1570895D1*
X2732599Y1572819D1*
X2730697Y1573769D1*
X2726873D1*
X2724949Y1572819D1*
X2723048Y1570895D1*
X2722075Y1568994D1*
X2721125Y1566120D1*
Y1561323D1*
X2722075Y1558471D1*
X2723048Y1556547D1*
X2724949Y1554646D1*
X2726873Y1553673D1*
X2730697D1*
X2732599Y1554646D1*
X2734522Y1556547D1*
X2735473Y1558471D1*
X2742621Y1568972D2*
Y1569923D1*
X2743572Y1571846D1*
X2744522Y1572797D1*
X2746446Y1573747D1*
X2750270D1*
X2752172Y1572797D1*
X2753122Y1571846D1*
X2754095Y1569923D1*
Y1568021D1*
X2753122Y1566098D1*
X2751221Y1563246D1*
X2741648Y1553673D1*
X2755046D1*
X2776542D2*
X2768871Y1573769D1*
X2761221Y1553673D1*
X2764096Y1560372D2*
X2773668D1*
X2704927Y1500747D2*
X2713549D1*
X2716401Y1501698D1*
X2717374Y1502671D1*
X2718325Y1504572D1*
Y1507446D1*
X2717374Y1509347D1*
X2716401Y1510320D1*
X2713549Y1511271D1*
X2704927D1*
Y1491175D1*
X2724500Y1507424D2*
X2726424Y1508397D1*
X2729298Y1511248D1*
Y1491175D1*
X2736424Y1493098D2*
X2735474Y1492125D1*
X2736424Y1491175D1*
X2737397Y1492125D1*
X2736424Y1493098D1*
X2744545Y1506473D2*
Y1507424D1*
X2745496Y1509347D1*
X2746447Y1510298D1*
X2748370Y1511248D1*
X2752195D1*
X2754096Y1510298D1*
X2755047Y1509347D1*
X2756019Y1507424D1*
Y1505523D1*
X2755047Y1503599D1*
X2753145Y1500747D1*
X2743573Y1491175D1*
X2756970D1*
X2765069Y1511248D2*
X2775570D1*
X2769844Y1503599D1*
X2772718D1*
X2774620Y1502649D1*
X2775570Y1501698D1*
X2776543Y1498824D1*
Y1496923D1*
X2775570Y1494049D1*
X2773669Y1492125D1*
X2770795Y1491175D1*
X2767921D1*
X2765069Y1492125D1*
X2764118Y1493098D1*
X2763146Y1494999D1*
X2708252Y1473769D2*
X2706350Y1472841D1*
X2704427Y1470917D1*
X2703476Y1468994D1*
X2702503Y1466120D1*
Y1461345D1*
X2703476Y1458471D1*
X2704427Y1456569D1*
X2706350Y1454646D1*
X2708252Y1453695D1*
X2712076D1*
X2714000Y1454646D1*
X2715901Y1456569D1*
X2716851Y1458471D1*
X2717824Y1461345D1*
Y1466120D1*
X2716851Y1468994D1*
X2715901Y1470917D1*
X2714000Y1472841D1*
X2712076Y1473769D1*
X2708252D1*
X2711126Y1457520D2*
X2716851Y1451772D1*
X2724000Y1463246D2*
X2732622D1*
X2735474Y1464197D1*
X2736447Y1465169D1*
X2737397Y1467071D1*
Y1469945D1*
X2736447Y1471846D1*
X2735474Y1472819D1*
X2732622Y1473769D1*
X2724000D1*
Y1453673D1*
X2743573Y1473769D2*
Y1453673D1*
X2756970Y1473769D2*
Y1453673D1*
X2743573Y1464197D2*
X2756970D1*
X2763146Y1473769D2*
Y1453673D1*
X2771768D1*
X2774642Y1454646D1*
X2775593Y1455597D1*
X2776543Y1457498D1*
Y1460372D1*
X2775593Y1462295D1*
X2774642Y1463246D1*
X2771768Y1464197D1*
X2774642Y1465169D1*
X2775593Y1466120D1*
X2776543Y1468021D1*
Y1469945D1*
X2775593Y1471846D1*
X2774642Y1472819D1*
X2771768Y1473769D1*
X2763146D1*
Y1464197D2*
X2771768D1*
X2704927Y1400747D2*
X2713549D1*
X2716401Y1401698D1*
X2717374Y1402671D1*
X2718325Y1404572D1*
Y1407446D1*
X2717374Y1409347D1*
X2716401Y1410320D1*
X2713549Y1411271D1*
X2704927D1*
Y1391175D1*
X2724500Y1407424D2*
X2726424Y1408397D1*
X2729298Y1411248D1*
Y1391175D1*
X2736424Y1393098D2*
X2735474Y1392125D1*
X2736424Y1391175D1*
X2737397Y1392125D1*
X2736424Y1393098D1*
X2744545Y1406473D2*
Y1407424D1*
X2745496Y1409347D1*
X2746447Y1410298D1*
X2748370Y1411248D1*
X2752195D1*
X2754096Y1410298D1*
X2755047Y1409347D1*
X2756019Y1407424D1*
Y1405523D1*
X2755047Y1403599D1*
X2753145Y1400747D1*
X2743573Y1391175D1*
X2756970D1*
X2764118Y1406473D2*
Y1407424D1*
X2765069Y1409347D1*
X2766020Y1410298D1*
X2767943Y1411248D1*
X2771768D1*
X2773669Y1410298D1*
X2774620Y1409347D1*
X2775592Y1407424D1*
Y1405523D1*
X2774620Y1403599D1*
X2772718Y1400747D1*
X2763146Y1391175D1*
X2776543D1*
X2716872Y1353673D2*
Y1373769D1*
X2709222Y1353673D1*
X2701573Y1373769D1*
Y1353673D1*
X2737395Y1368994D2*
X2736445Y1370895D1*
X2734521Y1372819D1*
X2732620Y1373769D1*
X2728795D1*
X2726872Y1372819D1*
X2724971Y1370895D1*
X2723998Y1368994D1*
X2723047Y1366120D1*
Y1361323D1*
X2723998Y1358471D1*
X2724971Y1356547D1*
X2726872Y1354646D1*
X2728795Y1353673D1*
X2732620D1*
X2734521Y1354646D1*
X2736445Y1356547D1*
X2737395Y1358471D1*
X2749319Y1373747D2*
X2746445Y1372797D1*
X2744522Y1369923D1*
X2743571Y1365147D1*
Y1362273D1*
X2744522Y1357498D1*
X2746445Y1354624D1*
X2749319Y1353673D1*
X2751220D1*
X2754094Y1354624D1*
X2755996Y1357498D1*
X2756968Y1362273D1*
Y1365147D1*
X2755996Y1369923D1*
X2754094Y1372797D1*
X2751220Y1373747D1*
X2749319D1*
X2755996Y1369923D2*
X2744522Y1357498D1*
X2763144Y1373769D2*
Y1353673D1*
X2771766D1*
X2774640Y1354646D1*
X2775591Y1355597D1*
X2776541Y1357498D1*
Y1360372D1*
X2775591Y1362295D1*
X2774640Y1363246D1*
X2771766Y1364197D1*
X2774640Y1365169D1*
X2775591Y1366120D1*
X2776541Y1368021D1*
Y1369945D1*
X2775591Y1371846D1*
X2774640Y1372819D1*
X2771766Y1373769D1*
X2763144D1*
Y1364197D2*
X2771766D1*
X2704927Y1300747D2*
X2713549D1*
X2716401Y1301698D1*
X2717374Y1302671D1*
X2718325Y1304572D1*
Y1307446D1*
X2717374Y1309347D1*
X2716401Y1310320D1*
X2713549Y1311271D1*
X2704927D1*
Y1291175D1*
X2724500Y1307424D2*
X2726424Y1308397D1*
X2729298Y1311248D1*
Y1291175D1*
X2736424Y1293098D2*
X2735474Y1292125D1*
X2736424Y1291175D1*
X2737397Y1292125D1*
X2736424Y1293098D1*
X2744545Y1306473D2*
Y1307424D1*
X2745496Y1309347D1*
X2746447Y1310298D1*
X2748370Y1311248D1*
X2752195D1*
X2754096Y1310298D1*
X2755047Y1309347D1*
X2756019Y1307424D1*
Y1305523D1*
X2755047Y1303599D1*
X2753145Y1300747D1*
X2743573Y1291175D1*
X2756970D1*
X2768894Y1311248D2*
X2766020Y1310298D1*
X2764096Y1307424D1*
X2763146Y1302649D1*
Y1299775D1*
X2764096Y1294999D1*
X2766020Y1292125D1*
X2768894Y1291175D1*
X2770795D1*
X2773669Y1292125D1*
X2775570Y1294999D1*
X2776543Y1299775D1*
Y1302649D1*
X2775570Y1307424D1*
X2773669Y1310298D1*
X2770795Y1311248D1*
X2768894D1*
X2775570Y1307424D2*
X2764096Y1294999D1*
X2706326Y1273769D2*
X2704425Y1272841D1*
X2702502Y1270917D1*
X2701551Y1268994D1*
X2700578Y1266120D1*
Y1261345D1*
X2701551Y1258471D1*
X2702502Y1256569D1*
X2704425Y1254646D1*
X2706326Y1253695D1*
X2710151D1*
X2712074Y1254646D1*
X2713976Y1256569D1*
X2714926Y1258471D1*
X2715899Y1261345D1*
Y1266120D1*
X2714926Y1268994D1*
X2713976Y1270917D1*
X2712074Y1272841D1*
X2710151Y1273769D1*
X2706326D1*
X2709200Y1257520D2*
X2714926Y1251772D1*
X2722075Y1263246D2*
X2730697D1*
X2733549Y1264197D1*
X2734521Y1265169D1*
X2735472Y1267071D1*
Y1269945D1*
X2734521Y1271846D1*
X2733549Y1272819D1*
X2730697Y1273769D1*
X2722075D1*
Y1253673D1*
X2741648Y1273769D2*
Y1253673D1*
X2755045Y1273769D2*
Y1253673D1*
X2741648Y1264197D2*
X2755045D1*
X2776541Y1253673D2*
X2768870Y1273769D1*
X2761221Y1253673D1*
X2764095Y1260372D2*
X2773667D1*
X2714479Y1200747D2*
X2723101D1*
X2725953Y1201698D1*
X2726925Y1202671D1*
X2727876Y1204572D1*
Y1207446D1*
X2726925Y1209347D1*
X2725953Y1210320D1*
X2723101Y1211271D1*
X2714479D1*
Y1191175D1*
X2734052Y1207424D2*
X2735975Y1208397D1*
X2738849Y1211248D1*
Y1191175D1*
X2745975Y1193098D2*
X2745025Y1192125D1*
X2745975Y1191175D1*
X2746948Y1192125D1*
X2745975Y1193098D1*
X2753124Y1207424D2*
X2755047Y1208397D1*
X2757921Y1211248D1*
Y1191175D1*
X2776544Y1204572D2*
X2775571Y1201698D1*
X2773670Y1199775D1*
X2770796Y1198824D1*
X2769845D1*
X2766971Y1199775D1*
X2765070Y1201698D1*
X2764097Y1204572D1*
Y1205523D1*
X2765070Y1208397D1*
X2766971Y1210298D1*
X2769845Y1211248D1*
X2770796D1*
X2773670Y1210298D1*
X2775571Y1208397D1*
X2776544Y1204572D1*
Y1199775D1*
X2775571Y1194999D1*
X2773670Y1192125D1*
X2770796Y1191175D1*
X2768894D1*
X2766020Y1192125D1*
X2765070Y1194049D1*
X2714949Y1153673D2*
Y1173769D1*
X2707300Y1153673D1*
X2699650Y1173769D1*
Y1153673D1*
X2735473Y1168994D2*
X2734522Y1170895D1*
X2732599Y1172819D1*
X2730697Y1173769D1*
X2726873D1*
X2724949Y1172819D1*
X2723048Y1170895D1*
X2722075Y1168994D1*
X2721125Y1166120D1*
Y1161323D1*
X2722075Y1158471D1*
X2723048Y1156547D1*
X2724949Y1154646D1*
X2726873Y1153673D1*
X2730697D1*
X2732599Y1154646D1*
X2734522Y1156547D1*
X2735473Y1158471D1*
X2747396Y1173747D2*
X2744522Y1172797D1*
X2742599Y1169923D1*
X2741648Y1165147D1*
Y1162273D1*
X2742599Y1157498D1*
X2744522Y1154624D1*
X2747396Y1153673D1*
X2749298D1*
X2752172Y1154624D1*
X2754073Y1157498D1*
X2755046Y1162273D1*
Y1165147D1*
X2754073Y1169923D1*
X2752172Y1172797D1*
X2749298Y1173747D1*
X2747396D1*
X2754073Y1169923D2*
X2742599Y1157498D1*
X2776542Y1153673D2*
X2768871Y1173769D1*
X2761221Y1153673D1*
X2764096Y1160372D2*
X2773668D1*
X2696328Y1100747D2*
X2704950D1*
X2707802Y1101698D1*
X2708774Y1102671D1*
X2709725Y1104572D1*
Y1107446D1*
X2708774Y1109347D1*
X2707802Y1110320D1*
X2704950Y1111271D1*
X2696328D1*
Y1091175D1*
X2721649Y1111248D2*
X2718775Y1110298D1*
X2716851Y1107424D1*
X2715901Y1102649D1*
Y1099775D1*
X2716851Y1094999D1*
X2718775Y1092125D1*
X2721649Y1091175D1*
X2723550D1*
X2726424Y1092125D1*
X2728325Y1094999D1*
X2729298Y1099775D1*
Y1102649D1*
X2728325Y1107424D1*
X2726424Y1110298D1*
X2723550Y1111248D1*
X2721649D1*
X2728325Y1107424D2*
X2716851Y1094999D1*
X2736424Y1093098D2*
X2735474Y1092125D1*
X2736424Y1091175D1*
X2737397Y1092125D1*
X2736424Y1093098D1*
X2745496Y1111248D2*
X2755997D1*
X2750271Y1103599D1*
X2753145D1*
X2755047Y1102649D1*
X2755997Y1101698D1*
X2756970Y1098824D1*
Y1096923D1*
X2755997Y1094049D1*
X2754096Y1092125D1*
X2751222Y1091175D1*
X2748348D1*
X2745496Y1092125D1*
X2744546Y1093098D1*
X2743573Y1094999D1*
X2768894Y1111248D2*
X2766020Y1110298D1*
X2764096Y1107424D1*
X2763146Y1102649D1*
Y1099775D1*
X2764096Y1094999D1*
X2766020Y1092125D1*
X2768894Y1091175D1*
X2770795D1*
X2773669Y1092125D1*
X2775570Y1094999D1*
X2776543Y1099775D1*
Y1102649D1*
X2775570Y1107424D1*
X2773669Y1110298D1*
X2770795Y1111248D1*
X2768894D1*
X2775570Y1107424D2*
X2764096Y1094999D1*
X2720247Y1073769D2*
X2707822D1*
Y1053673D1*
X2720247D1*
X2707822Y1064197D2*
X2715472D1*
X2726423Y1073769D2*
Y1053673D1*
X2745996Y1073769D2*
Y1053673D1*
X2732598Y1073769D1*
Y1053673D1*
X2758870Y1073769D2*
Y1053673D1*
X2752171Y1073769D2*
X2765569D1*
X2771744Y1069923D2*
X2773668Y1070895D1*
X2776542Y1073747D1*
Y1053673D1*
X2697276Y1000747D2*
X2705899D1*
X2708750Y1001698D1*
X2709723Y1002671D1*
X2710674Y1004572D1*
Y1007446D1*
X2709723Y1009347D1*
X2708750Y1010320D1*
X2705899Y1011271D1*
X2697276D1*
Y991175D1*
X2722598Y1011248D2*
X2719724Y1010298D1*
X2717800Y1007424D1*
X2716849Y1002649D1*
Y999775D1*
X2717800Y994999D1*
X2719724Y992125D1*
X2722598Y991175D1*
X2724499D1*
X2727373Y992125D1*
X2729274Y994999D1*
X2730247Y999775D1*
Y1002649D1*
X2729274Y1007424D1*
X2727373Y1010298D1*
X2724499Y1011248D1*
X2722598D1*
X2729274Y1007424D2*
X2717800Y994999D1*
X2737373Y993098D2*
X2736423Y992125D1*
X2737373Y991175D1*
X2738346Y992125D1*
X2737373Y993098D1*
X2745494Y1006473D2*
Y1007424D1*
X2746445Y1009347D1*
X2747396Y1010298D1*
X2749319Y1011248D1*
X2753144D1*
X2755045Y1010298D1*
X2755996Y1009347D1*
X2756968Y1007424D1*
Y1005523D1*
X2755996Y1003599D1*
X2754094Y1000747D1*
X2744522Y991175D1*
X2757919D1*
X2776541Y1004572D2*
X2775569Y1001698D1*
X2773667Y999775D1*
X2770793Y998824D1*
X2769843D1*
X2766969Y999775D1*
X2765067Y1001698D1*
X2764095Y1004572D1*
Y1005523D1*
X2765067Y1008397D1*
X2766969Y1010298D1*
X2769843Y1011248D1*
X2770793D1*
X2773667Y1010298D1*
X2775569Y1008397D1*
X2776541Y1004572D1*
Y999775D1*
X2775569Y994999D1*
X2773667Y992125D1*
X2770793Y991175D1*
X2768892D1*
X2766018Y992125D1*
X2765067Y994049D1*
X2649228Y973769D2*
Y953673D1*
X2655404Y964197D2*
X2664004D1*
X2666878Y965169D1*
X2667850Y966120D1*
X2668801Y968021D1*
Y969945D1*
X2667850Y971846D1*
X2666878Y972819D1*
X2664004Y973769D1*
X2655404D1*
Y953673D1*
X2662102Y964197D2*
X2668801Y953673D1*
X2674977Y950357D2*
X2693149D1*
X2699325Y973769D2*
Y953673D1*
X2706024D1*
X2708898Y954646D1*
X2710821Y956547D1*
X2711772Y958471D1*
X2712722Y961323D1*
Y966120D1*
X2711772Y968994D1*
X2710821Y970895D1*
X2708898Y972819D1*
X2706024Y973769D1*
X2699325D1*
X2734219Y953673D2*
X2726547Y973769D1*
X2718898Y953673D1*
X2721772Y960372D2*
X2731345D1*
X2747093Y973769D2*
Y953673D1*
X2740394Y973769D2*
X2753792D1*
X2775288Y953673D2*
X2767617Y973769D1*
X2759967Y953673D1*
X2762841Y960372D2*
X2772414D1*
X2649228Y979009D2*
X2781464D1*
X2705900Y900747D2*
X2714522D1*
X2717374Y901698D1*
X2718347Y902671D1*
X2719297Y904572D1*
Y907446D1*
X2718347Y909347D1*
X2717374Y910320D1*
X2714522Y911271D1*
X2705900D1*
Y891175D1*
X2731221Y911248D2*
X2728347Y910298D1*
X2726423Y907424D1*
X2725473Y902649D1*
Y899775D1*
X2726423Y894999D1*
X2728347Y892125D1*
X2731221Y891175D1*
X2733122D1*
X2735996Y892125D1*
X2737897Y894999D1*
X2738870Y899775D1*
Y902649D1*
X2737897Y907424D1*
X2735996Y910298D1*
X2733122Y911248D1*
X2731221D1*
X2737897Y907424D2*
X2726423Y894999D1*
X2745997Y893098D2*
X2745046Y892125D1*
X2745997Y891175D1*
X2746969Y892125D1*
X2745997Y893098D1*
X2753145Y907424D2*
X2755068Y908397D1*
X2757942Y911248D1*
Y891175D1*
X2775592Y908397D2*
X2774641Y910298D1*
X2771767Y911248D1*
X2769866D1*
X2766992Y910298D1*
X2765069Y907424D1*
X2764118Y902649D1*
Y897873D1*
X2765069Y894049D1*
X2766992Y892125D1*
X2769866Y891175D1*
X2770817D1*
X2773669Y892125D1*
X2775592Y894049D1*
X2776543Y896923D1*
Y897873D1*
X2775592Y900747D1*
X2773669Y902649D1*
X2770817Y903599D1*
X2769866D1*
X2766992Y902649D1*
X2765069Y900747D1*
X2764118Y897873D1*
X2713026Y864197D2*
X2721626D1*
X2724500Y865169D1*
X2725473Y866120D1*
X2726423Y868021D1*
Y869945D1*
X2725473Y871846D1*
X2724500Y872819D1*
X2721626Y873769D1*
X2713026D1*
Y853673D1*
X2719724Y864197D2*
X2726423Y853673D1*
X2732599Y873769D2*
X2745996Y853673D1*
Y873769D2*
X2732599Y853673D1*
X2752172Y873769D2*
Y853673D1*
X2758871D1*
X2761745Y854646D1*
X2763668Y856547D1*
X2764619Y858471D1*
X2765569Y861323D1*
Y866120D1*
X2764619Y868994D1*
X2763668Y870895D1*
X2761745Y872819D1*
X2758871Y873769D1*
X2752172D1*
X2771745Y869923D2*
X2773668Y870895D1*
X2776542Y873747D1*
Y853673D1*
X1693988Y974198D2*
D139*
Y934006D1*
X1716936D1*
X1729288Y953152D2*
X1746532D1*
X1752236Y955053D1*
X1754181Y956999D1*
X1756082Y960801D1*
Y966549D1*
X1754181Y970352D1*
X1752236Y972297D1*
X1746532Y974198D1*
X1729288D1*
Y934006D1*
X1797130Y964648D2*
X1795228Y968450D1*
X1791382Y972297D1*
X1787579Y974198D1*
X1779930D1*
X1776083Y972297D1*
X1772280Y968450D1*
X1770335Y964648D1*
X1768434Y958900D1*
Y949305D1*
X1770335Y943601D1*
X1772280Y939754D1*
X1776083Y935952D1*
X1779930Y934006D1*
X1787579D1*
X1791382Y935952D1*
X1795228Y939754D1*
X1797130Y943601D1*
X1828626Y934006D2*
Y974154D1*
X1809481Y947404D1*
X1838177D1*
X1862024Y974154D2*
X1856276Y972253D1*
X1852430Y966505D1*
X1850528Y956954D1*
Y951206D1*
X1852430Y941656D1*
X1856276Y935908D1*
X1862024Y934006D1*
X1865827D1*
X1871575Y935908D1*
X1875378Y941656D1*
X1877323Y951206D1*
Y956954D1*
X1875378Y966505D1*
X1871575Y972253D1*
X1865827Y974154D1*
X1862024D1*
X1875378Y966505D2*
X1852430Y941656D1*
X1897324Y934006D2*
X1916469Y974154D1*
X1889674D1*
X1938371D2*
X1932667Y972253D1*
X1930722Y968450D1*
Y964604D1*
X1932667Y960801D1*
X1936470Y958856D1*
X1944119Y956954D1*
X1949867Y955053D1*
X1953670Y951206D1*
X1955571Y947404D1*
Y941656D1*
X1953670Y937853D1*
X1951768Y935908D1*
X1946020Y934006D1*
X1938371D1*
X1932667Y935908D1*
X1930722Y937853D1*
X1928821Y941656D1*
Y947404D1*
X1930722Y951206D1*
X1934569Y955053D1*
X1940272Y956954D1*
X1947922Y958856D1*
X1951768Y960801D1*
X1953670Y964604D1*
Y968450D1*
X1951768Y972253D1*
X1946020Y974154D1*
X1938371D1*
X2033598Y968450D2*
X2029795Y972297D1*
X2024047Y974198D1*
X2016398D1*
X2010650Y972297D1*
X2006803Y968450D1*
Y964648D1*
X2008749Y960801D1*
X2010650Y958900D1*
X2014452Y956999D1*
X2025949Y953152D1*
X2029795Y951250D1*
X2031697Y949305D1*
X2033598Y945502D1*
Y939754D1*
X2029795Y935952D1*
X2024047Y934006D1*
X2016398D1*
X2010650Y935952D1*
X2006803Y939754D1*
X2065095Y974198D2*
Y943601D1*
X2063193Y937853D1*
X2061248Y935952D1*
X2057445Y934006D1*
X2053599D1*
X2049796Y935952D1*
X2047895Y937853D1*
X2045949Y943601D1*
Y947404D1*
X2104241Y968450D2*
X2100438Y972297D1*
X2094690Y974198D1*
X2087041D1*
X2081293Y972297D1*
X2077446Y968450D1*
Y964648D1*
X2079391Y960801D1*
X2081293Y958900D1*
X2085095Y956999D1*
X2096591Y953152D1*
X2100438Y951250D1*
X2102339Y949305D1*
X2104241Y945502D1*
Y939754D1*
X2100438Y935952D1*
X2094690Y934006D1*
X2087041D1*
X2081293Y935952D1*
X2077446Y939754D1*
X2116592Y974198D2*
Y945502D1*
X2118493Y939754D1*
X2122340Y935952D1*
X2128088Y934006D1*
X2131891D1*
X2137639Y935952D1*
X2141485Y939754D1*
X2143387Y945502D1*
Y974198D1*
X2223315Y964648D2*
X2221414Y968450D1*
X2217567Y972297D1*
X2213764Y974198D1*
X2206115D1*
X2202268Y972297D1*
X2198466Y968450D1*
X2196520Y964648D1*
X2194619Y958900D1*
Y949305D1*
X2196520Y943601D1*
X2198466Y939754D1*
X2202268Y935952D1*
X2206115Y934006D1*
X2213764D1*
X2217567Y935952D1*
X2221414Y939754D1*
X2223315Y943601D1*
X2235666Y960801D2*
Y934006D1*
Y953152D2*
X2241414Y958900D1*
X2245261Y960801D1*
X2250965D1*
X2254812Y958900D1*
X2256713Y953152D1*
Y934006D1*
Y953152D2*
X2262461Y958900D1*
X2266308Y960801D1*
X2272011D1*
X2275858Y958900D1*
X2277804Y953152D1*
Y934006D1*
X2290155Y960801D2*
Y920609D1*
Y955053D2*
X2294002Y958856D1*
X2297804Y960801D1*
X2303552D1*
X2307399Y958856D1*
X2311202Y955053D1*
X2313147Y949305D1*
Y945458D1*
X2311202Y939754D1*
X2307399Y935908D1*
X2303552Y934006D1*
X2297804D1*
X2294002Y935908D1*
X2290155Y939754D1*
X2350348Y974198D2*
X2325499D1*
Y934006D1*
X2350348D1*
X2325499Y955053D2*
X2340797D1*
X2401580Y974198D2*
Y934006D1*
X2418824D1*
X2424572Y935952D1*
X2426473Y937853D1*
X2428375Y941656D1*
Y947404D1*
X2426473Y951250D1*
X2424572Y953152D1*
X2418824Y955053D1*
X2424572Y956999D1*
X2426473Y958900D1*
X2428375Y962702D1*
Y966549D1*
X2426473Y970352D1*
X2424572Y972297D1*
X2418824Y974198D1*
X2401580D1*
Y955053D2*
X2418824D1*
X2452222Y974198D2*
X2448375Y972297D1*
X2444573Y968450D1*
X2442627Y964648D1*
X2440726Y958900D1*
Y949305D1*
X2442627Y943601D1*
X2444573Y939754D1*
X2448375Y935952D1*
X2452222Y934006D1*
X2459871D1*
X2463674Y935952D1*
X2467521Y939754D1*
X2469422Y943601D1*
X2471323Y949305D1*
Y958900D1*
X2469422Y964648D1*
X2467521Y968450D1*
X2463674Y972297D1*
X2459871Y974198D1*
X2452222D1*
X2514316Y934006D2*
X2498973Y974198D1*
X2483675Y934006D1*
X2489423Y947404D2*
X2508568D1*
X2526668Y955053D2*
X2543867D1*
X2549615Y956999D1*
X2551561Y958900D1*
X2553462Y962702D1*
Y966549D1*
X2551561Y970352D1*
X2549615Y972297D1*
X2543867Y974198D1*
X2526668D1*
Y934006D1*
X2540065Y955053D2*
X2553462Y934006D1*
X2565814Y974198D2*
Y934006D1*
X2579211D1*
X2584959Y935952D1*
X2588806Y939754D1*
X2590707Y943601D1*
X2592608Y949305D1*
Y958900D1*
X2590707Y964648D1*
X2588806Y968450D1*
X2584959Y972297D1*
X2579211Y974198D1*
X2565814D1*
X458832Y2396341D2*
D140*
X470306Y2366197D1*
X481780Y2396341D1*
X491043D2*
Y2366197D1*
X520403Y2396341D2*
Y2366197D1*
X500307Y2396341D1*
Y2366197D1*
M02*
