%TF.GenerationSoftware,Novarm,DipTrace,3.2.0.1*%
%TF.CreationDate,2017-11-24T17:42:07-08:00*%
%FSLAX26Y26*%
%MOIN*%
%TF.FileFunction,Soldermask,Bot*%
%TF.Part,Single*%
%AMOUTLINE6*
4,1,4,
0.026163,0.026163,
0.026205,-0.026121,
-0.026121,-0.026205,
-0.026163,0.026163,
0.026163,0.026163,
0*%
%ADD39R,0.059055X0.059055*%
%ADD40C,0.059055*%
%ADD41C,0.074*%
%ADD44C,0.052*%
%ADD52R,0.05937X0.05937*%
%ADD53C,0.05937*%
%ADD59C,0.137795*%
%ADD60C,0.033465*%
%ADD92C,0.067055*%
%ADD94R,0.067055X0.067055*%
%ADD108C,0.056*%
%ADD110R,0.055992X0.055992*%
%ADD127OUTLINE6*%
G75*
G01*
%LPD*%
D110*
X875251Y1559625D3*
D108*
Y1459625D3*
Y1359625D3*
Y1259625D3*
Y1159625D3*
X1175251D3*
Y1259625D3*
Y1359625D3*
Y1459625D3*
Y1559625D3*
D110*
X465875D3*
D108*
Y1459625D3*
Y1359625D3*
Y1259625D3*
Y1159625D3*
X765875D3*
Y1259625D3*
Y1359625D3*
Y1459625D3*
Y1559625D3*
D59*
X494000Y494000D3*
X2994000D3*
Y2794000D3*
X494000D3*
D60*
X560831Y2225054D3*
Y2075446D3*
D94*
X484615Y2472169D3*
D92*
Y2572169D3*
D127*
X469000Y1737749D3*
D41*
X569000Y1727749D3*
X669000Y1737749D3*
X769000Y1727749D3*
X869000Y1737749D3*
X969000Y1727749D3*
X1069000Y1737749D3*
X1169000Y1727749D3*
D44*
X1569000Y1369000D3*
X1669000D3*
D41*
X1287749Y1756500D3*
Y2012500D3*
X1465749Y1756500D3*
Y2012500D3*
X1550249Y469000D3*
Y725000D3*
X1728249Y469000D3*
Y725000D3*
X1885667Y469000D3*
Y725000D3*
X2063667Y469000D3*
Y725000D3*
X2221083Y469000D3*
Y725000D3*
X2399083Y469000D3*
Y725000D3*
X2556500Y469000D3*
Y725000D3*
X2734500Y469000D3*
Y725000D3*
D52*
X2590875Y2743993D3*
D53*
Y2843993D3*
X2490875Y2743993D3*
Y2843993D3*
X2390875Y2743993D3*
Y2843993D3*
D52*
X2290875Y2743993D3*
D53*
Y2843993D3*
D39*
X2844000Y687749D3*
D40*
Y787749D3*
Y887749D3*
Y987749D3*
Y1087749D3*
Y1187749D3*
Y1287749D3*
Y1387749D3*
Y1487749D3*
Y1587749D3*
Y1687749D3*
Y1787749D3*
Y1887749D3*
Y1987749D3*
Y2087749D3*
Y2187749D3*
Y2287749D3*
D92*
Y2387749D3*
Y2487749D3*
Y2587749D3*
D39*
X2944000Y687749D3*
D40*
Y787749D3*
Y887749D3*
Y987749D3*
Y1087749D3*
Y1187749D3*
Y1287749D3*
Y1387749D3*
Y1487749D3*
Y1587749D3*
Y1687749D3*
Y1787749D3*
Y1887749D3*
Y1987749D3*
Y2087749D3*
Y2187749D3*
Y2287749D3*
D92*
Y2387749D3*
Y2487749D3*
Y2587749D3*
D41*
X1306596Y481247D3*
X1206596Y491247D3*
X1106596Y481247D3*
X1006596Y491247D3*
X906596Y481247D3*
M02*
