%TF.GenerationSoftware,Novarm,DipTrace,3.2.0.1*%
%TF.CreationDate,2017-11-17T22:28:05-08:00*%
%FSLAX26Y26*%
%MOIN*%
%TF.FileFunction,Plated,1,4,PTH,Drill*%
%TF.Part,Single*%
%TA.AperFunction,ViaDrill*%
%ADD10C,0.008*%
%TA.AperFunction,ComponentDrill*%
%ADD52C,0.032008*%
%ADD53C,0.032*%
%ADD54C,0.04*%
%ADD55C,0.03937*%
%ADD56C,0.035433*%
G75*
G01*
D52*
X875251Y1572125D3*
D53*
Y1472125D3*
Y1372125D3*
Y1272125D3*
Y1172125D3*
X1175251D3*
Y1272125D3*
Y1372125D3*
Y1472125D3*
Y1572125D3*
D52*
X465875D3*
D53*
Y1472125D3*
Y1372125D3*
Y1272125D3*
Y1172125D3*
X765875D3*
Y1272125D3*
Y1372125D3*
Y1472125D3*
Y1572125D3*
D54*
X494000Y2444000D3*
Y2544000D3*
X469000Y1725249D3*
X569000Y1715249D3*
X669000Y1725249D3*
X769000Y1715249D3*
X869000Y1725249D3*
X969000Y1715249D3*
X1069000Y1725249D3*
X1169000Y1715249D3*
D53*
X1569000Y1369000D3*
X1669000D3*
D54*
X1287749Y1756500D3*
Y2012500D3*
X1465749Y1756500D3*
Y2012500D3*
X1550249Y469000D3*
Y725000D3*
X1728249Y469000D3*
Y725000D3*
X1885667Y469000D3*
Y725000D3*
X2063667Y469000D3*
Y725000D3*
X2221083Y469000D3*
Y725000D3*
X2399083Y469000D3*
Y725000D3*
X2556500Y469000D3*
Y725000D3*
X2734500Y469000D3*
Y725000D3*
D55*
X2590875Y2678375D3*
Y2778375D3*
X2490875Y2678375D3*
Y2778375D3*
X2390875Y2678375D3*
Y2778375D3*
X2290875Y2678375D3*
Y2778375D3*
D56*
X2844000Y687749D3*
Y787749D3*
Y887749D3*
Y987749D3*
Y1087749D3*
Y1187749D3*
Y1287749D3*
Y1387749D3*
Y1487749D3*
Y1587749D3*
Y1687749D3*
Y1787749D3*
Y1887749D3*
Y1987749D3*
Y2087749D3*
Y2187749D3*
Y2287749D3*
Y2387749D3*
Y2487749D3*
Y2587749D3*
X2944000Y687749D3*
Y787749D3*
Y887749D3*
Y987749D3*
Y1087749D3*
Y1187749D3*
Y1287749D3*
Y1387749D3*
Y1487749D3*
Y1587749D3*
Y1687749D3*
Y1787749D3*
Y1887749D3*
Y1987749D3*
Y2087749D3*
Y2187749D3*
Y2287749D3*
Y2387749D3*
Y2487749D3*
Y2587749D3*
D54*
X1306596Y481247D3*
X1206596Y491247D3*
X1106596Y481247D3*
X1006596Y491247D3*
X906596Y481247D3*
D10*
X1141539Y2694000D3*
X1581375Y2837756D3*
X1978209Y2687772D3*
X2096946Y2800260D3*
X1115799Y1956598D3*
X982861Y1956501D3*
X569000Y1884625D3*
X568982Y2003469D3*
X1469911Y1557411D3*
X1715736Y1700375D3*
X1984458Y1750370D3*
X2065699Y1853484D3*
X2050076Y937955D3*
X2475031Y470399D3*
X2140144Y470836D3*
X1465073D3*
X1802609D3*
X1036449Y737749D3*
X918945Y931706D3*
X1381919Y1385306D3*
X1590749Y1206677D3*
X2543774Y937955D3*
X1981333Y2487793D3*
X2175063Y2309686D3*
X2615642Y1291043D3*
X2265678Y1775367D3*
X1051764Y2448755D3*
X1044877Y2193123D3*
X1787604Y1222301D3*
X2715875Y1147125D3*
X2515875Y1278375D3*
X2162564Y1953375D3*
X2025079Y2687772D3*
X2731500Y2078375D3*
X2350045Y1694126D3*
X2497125Y1253375D3*
X2719000Y1087749D3*
X2731500Y2016034D3*
X2375042Y1656630D3*
X2477881Y1871630D3*
X1850097Y2687772D3*
X2431596Y1959529D3*
X628375Y2150251D3*
X715875Y2250251D3*
X656472Y2175841D3*
X715875Y2222125D3*
X1790875Y1322125D3*
X1590752Y1275374D3*
X850249Y1956501D3*
X715875Y2178375D3*
Y2281500D3*
X834625Y2119000D3*
X715875Y1956501D3*
X931500Y2272125D3*
X1562751Y1844000D3*
X1650251Y1275249D3*
X1831500Y1281500D3*
X2189963Y2777475D3*
X2788001Y2818992D3*
X2784945Y2725251D3*
X2700492Y2712731D3*
X1353274Y1547266D3*
X1337651Y1522269D3*
X1243911Y1519144D3*
X1122125Y1469000D3*
X1103375Y1422125D3*
X1950251Y1284625D3*
X1453375Y2544000D3*
X1275157Y850465D3*
X1128375Y672125D3*
X1522125Y1415875D3*
X1537751Y1556500D3*
X1412643Y1594136D3*
X1381396Y1566014D3*
X1406500Y2144173D3*
Y2084731D3*
X908583Y1956501D3*
X912751Y2037751D3*
X775251Y1956501D3*
Y2037749D3*
X1175249Y1956501D3*
Y2037749D3*
X1041916Y1956501D3*
Y2037751D3*
X1250249Y1397125D3*
X1115875Y1350249D3*
X1112751Y1312749D3*
X1240875Y1287751D3*
X1259625Y1240875D3*
X1331500D3*
X1362749Y1234626D3*
X1347125Y1209625D3*
X1415875Y1231500D3*
X1034625Y1137749D3*
X728375D3*
X2277071Y856500D3*
X2281500Y806500D3*
X1945822Y856500D3*
X1950251Y806500D3*
X1614571Y862749D3*
X1615875Y806500D3*
X1783311Y2194000D3*
X1778375Y2137749D3*
X2509403Y875462D3*
X2543774Y853589D3*
X2325047Y1350615D3*
X2503375Y1700249D3*
X2628375Y1715875D3*
X971455Y995181D3*
X1969000Y1412749D3*
Y1450249D3*
X2481500Y1834625D3*
X2656262Y1900354D3*
X1975249Y1206501D3*
X2134442Y1337913D3*
X2203185Y1384783D3*
X2106320Y1016072D3*
X2175063Y1269171D3*
X2206310D3*
Y1325415D3*
X2243806Y1381659D3*
X2121944Y1719123D3*
X1968835Y2125331D3*
X2315673Y1450402D3*
X2365668Y1478524D3*
X2056501Y1294000D3*
X2490875Y1765875D3*
X2659387Y1831612D3*
X2065875Y1347125D3*
X2481500Y1794000D3*
X2659387Y1869108D3*
X2503375Y1644000D3*
X2500029Y1612885D3*
Y1575388D3*
X2619000Y1497125D3*
X2509403Y1450402D3*
X2619000Y1444000D3*
X2612749Y1412749D3*
X2359419Y1403531D3*
X956500Y2240875D3*
X1781500Y1737751D3*
X2371917Y1325415D3*
X2490655Y1337913D3*
X2662512Y1344163D3*
X2197125Y1715875D3*
X2500249Y2384625D3*
X2718933Y1203375D3*
X2525249Y1315875D3*
X2731500Y2131500D3*
X2403375Y1894000D3*
X2325047Y1703500D3*
X1934463Y2687772D3*
X759625Y922125D3*
X962810Y697125D3*
X1212664Y856714D3*
X1500251Y1281499D3*
Y1022125D3*
Y969000D3*
X2362543Y994199D3*
X2034625Y2231500D3*
X1972125Y2194000D3*
X1850251D3*
X1912843D3*
X656500Y922125D3*
X887749Y694000D3*
X1144000Y784625D3*
X1290875Y997125D3*
X2337546Y1025446D3*
X1525251Y1335560D3*
X2022125Y1572125D3*
X1465875Y712749D3*
X2069000Y1544000D3*
X1800249Y715875D3*
X2119000Y1515875D3*
X2140875Y694000D3*
X2175063Y1578513D3*
X2340671Y1172306D3*
X2378167Y1141059D3*
X2475251Y694249D3*
X1972125Y1481500D3*
X1947125Y1587751D3*
X1931500Y1612749D3*
X1972125Y1569000D3*
X1969000Y1512749D3*
X830909Y2344000D3*
X1856512Y1737739D3*
X2187938Y2706480D3*
X2331297Y1387908D3*
X2500251Y2347125D3*
X2312549Y1790991D3*
X1844000Y1428375D3*
Y1378375D3*
X719000Y2094000D3*
X1109625Y2040875D3*
X975251Y2037751D3*
X872125Y2506500D3*
X1819000Y1403375D3*
X1787751Y1509625D3*
X1819000Y1365875D3*
X2142356Y2187749D3*
X2215692D3*
X2312549Y1734747D3*
X2065875Y2028097D3*
X609625Y656528D3*
X1550249Y1022125D3*
X2065699Y1006698D3*
X2044000Y1553375D3*
X1681500Y859625D3*
X2094000Y1528375D3*
X2000081Y856500D3*
X2343795Y856705D3*
X2148921Y1479668D3*
X2675249Y862749D3*
X2406289Y1147308D3*
X2359419Y1194178D3*
X2200060Y1556640D3*
X1953352Y1365899D3*
X1347125Y2084822D3*
X1718991Y2192178D3*
X1656500Y2194000D3*
X1715875Y2240875D3*
X1806500Y2675249D3*
X2225058Y1353537D3*
X2078198Y1694126D3*
M02*
