%TF.GenerationSoftware,Novarm,DipTrace,3.2.0.1*%
%TF.CreationDate,2018-06-05T21:33:42-08:00*%
%FSLAX26Y26*%
%MOIN*%
%TF.FileFunction,Copper,L1,Top*%
%TF.Part,Single*%
%AMOUTLINE0*
4,1,4,
-0.035433,0.019685,
-0.035433,-0.019685,
0.035433,-0.019685,
0.035433,0.019685,
-0.035433,0.019685,
0*%
%AMOUTLINE1*
4,1,4,
0.026163,0.026163,
0.026205,-0.026121,
-0.026121,-0.026205,
-0.026163,0.026163,
0.026163,0.026163,
0*%
%AMOUTLINE2*
4,1,4,
-0.023622,0.015748,
-0.023622,-0.015748,
0.023622,-0.015748,
0.023622,0.015748,
-0.023622,0.015748,
0*%
%AMOUTLINE3*
4,1,4,
-0.010827,-0.023622,
0.010827,-0.023622,
0.010827,0.023622,
-0.010827,0.023622,
-0.010827,-0.023622,
0*%
%TA.AperFunction,Conductor*%
%ADD15C,0.007*%
%ADD16C,0.015748*%
%ADD17C,0.006*%
%ADD18C,0.008*%
%ADD19C,0.012*%
%ADD20C,0.01*%
%ADD21C,0.011811*%
%ADD22C,0.015*%
%ADD23C,0.023622*%
%ADD24R,0.15748X0.141732*%
%ADD26R,0.03937X0.043307*%
%ADD27R,0.043307X0.03937*%
%ADD28R,0.059055X0.051181*%
%ADD30R,0.023622X0.023622*%
%TA.AperFunction,ComponentPad*%
%ADD33R,0.059055X0.059055*%
%ADD34C,0.059055*%
%ADD36R,0.05315X0.015748*%
%ADD37R,0.055118X0.062992*%
%TA.AperFunction,ComponentPad*%
%ADD38O,0.070866X0.043307*%
%ADD39R,0.031496X0.048819*%
%ADD40R,0.045276X0.098425*%
%ADD41R,0.045276X0.086614*%
%ADD42R,0.059055X0.045276*%
%ADD43R,0.045669X0.047244*%
%ADD44R,0.045669X0.049213*%
%TA.AperFunction,ComponentPad*%
%ADD45C,0.074*%
%ADD49R,0.062992X0.011811*%
%ADD50R,0.011811X0.062992*%
%ADD52O,0.033465X0.011811*%
%ADD53O,0.011811X0.033465*%
%ADD54R,0.137795X0.137795*%
%ADD55R,0.015748X0.07874*%
%ADD56R,0.070866X0.015748*%
%ADD58R,0.011811X0.019685*%
%ADD59R,0.019685X0.011811*%
%TA.AperFunction,ComponentPad*%
%ADD60R,0.05937X0.05937*%
%ADD61C,0.05937*%
%ADD62R,0.07874X0.023622*%
%ADD64R,0.074803X0.059055*%
%TA.AperFunction,ComponentPad*%
%ADD65C,0.048*%
%TA.AperFunction,ViaPad*%
%ADD66C,0.024*%
%ADD142OUTLINE0*%
%TA.AperFunction,ComponentPad*%
%ADD143OUTLINE1*%
%ADD144OUTLINE2*%
%ADD145OUTLINE3*%
%TA.AperFunction,CopperBalancing*%
%ADD146C,0.01*%
G75*
G01*
%LPD*%
X1280265Y593701D2*
D15*
Y533731D1*
X1277983Y531449D1*
X1399845Y678309D2*
Y676877D1*
X1399950Y676772D1*
X1007110Y681201D2*
X945460D1*
X1002314Y572369D2*
Y676404D1*
X1007110Y681201D1*
X938681Y2155882D2*
X971765D1*
Y2075037D1*
X959267Y2062538D1*
X803033D1*
X799908Y2065663D1*
Y2097805D1*
X800886Y2096827D1*
X970858Y2375912D2*
D3*
X800886Y2293677D2*
Y2320908D1*
X768701Y2353093D1*
Y2368717D1*
X753038Y2384379D1*
X718667D1*
X712452Y2378164D1*
Y2275016D1*
X721122D1*
X741831Y2254307D1*
X879626Y2293677D2*
Y2310988D1*
X896773Y2328135D1*
X921771D1*
X971765Y2378130D1*
Y2375005D1*
X554235Y2149952D2*
X674921D1*
Y2206273D2*
X684295Y2196899D1*
X743478D1*
X741831Y2195252D1*
X554235Y2175542D2*
X741831Y2175567D1*
X781201Y2293677D2*
Y2315596D1*
X740540Y2356257D1*
X1562452Y1846936D2*
Y1845523D1*
X2040752Y2190753D2*
D16*
Y2128732D1*
X2040267Y2128247D1*
X888710Y2003170D2*
D15*
Y1925053D1*
X891835Y1921928D1*
X741831Y2214937D2*
D17*
X820571D1*
X840256Y2195252D1*
X545377Y2275936D2*
D16*
X548502D1*
X837404Y2193774D2*
Y2196899D1*
X841903D1*
X840256Y2195252D1*
X1152996Y2240645D2*
D3*
X1240487D2*
D3*
X1327978D2*
D3*
X787550Y2524949D2*
D3*
X681171Y1921928D2*
D3*
X481192Y1834437D2*
X484316D1*
X824906Y1921928D2*
D3*
X1983196Y1768832D2*
D17*
Y1760408D1*
X2010827Y1732777D1*
Y1639222D1*
X2247047D2*
Y1758549D1*
X2254192Y1765693D1*
X1983196Y1768832D2*
D16*
D3*
X2252881Y1768819D2*
Y1767004D1*
X2254192Y1765693D1*
X2065576Y1853076D2*
D3*
X1877166Y1947736D2*
D3*
X1578181Y2350046D2*
D3*
X1747473Y2318550D2*
D3*
X2053772D2*
D3*
X2125032Y2357133D2*
D3*
X2140780Y2796109D2*
D3*
X2206011Y2584358D2*
Y2582545D1*
X1578181Y2796109D2*
Y2793941D1*
X1961646Y2820899D2*
D3*
X1128742Y2709324D2*
D3*
X2477857Y500202D2*
X2476755D1*
X2475170Y501788D1*
X1464774Y494642D2*
Y495537D1*
X1802310D2*
D3*
X2139845D2*
D3*
X512450Y887450D2*
X543701D1*
Y993701D1*
X1257591Y445436D2*
D15*
X1240895Y462131D1*
Y495276D1*
X1280265D2*
Y468110D1*
X1257591Y445436D1*
X1211368Y544488D2*
X1187908D1*
X1168372Y524952D1*
X1134248D1*
Y445436D1*
X1257591D1*
X1221210Y593701D2*
X1152755D1*
X1134248Y575194D1*
Y524952D1*
X1074040Y681201D2*
D16*
Y736957D1*
X1073772Y737225D1*
X1202536D2*
Y681286D1*
X1202621Y681201D1*
X1264138D1*
X1264370Y680969D1*
X1399950Y743701D2*
X1337776D1*
X1331299Y737225D1*
X1202621Y681201D2*
X1196826D1*
Y684326D1*
X1074879D2*
Y681201D1*
X1074040D1*
X1196742Y993900D2*
D17*
X1204919D1*
X1205118Y993701D1*
D16*
X1177559D1*
X1150000D1*
X1122441D1*
X1094882D1*
X984646D2*
X971826D1*
X957087D1*
X846851D2*
X819292D1*
X791732D1*
X736614D2*
Y993900D1*
X971826Y993701D2*
Y887452D1*
X1149950D2*
Y993701D1*
X1796824Y1220521D2*
Y1214272D1*
X1728075Y1059658D2*
Y1070521D1*
X737452Y993701D2*
Y887452D1*
X1315355Y993701D2*
X1315576D1*
Y887450D1*
X1787305Y1215752D2*
X1792055D1*
X1796824Y1220521D1*
X1331299Y737225D2*
Y846844D1*
X2422244Y1503395D2*
D17*
X2469020D1*
X2551255Y1585630D1*
X2559326D1*
X2422244Y1227805D2*
X2478347D1*
X2495524Y1210628D1*
X2531200D1*
X2207677Y1111663D2*
Y1071872D1*
X2160954Y1025149D1*
X2030512Y1111663D2*
Y1038475D1*
X2023294Y1031257D1*
X2562223Y1681328D2*
D16*
Y1588528D1*
X2559326Y1585630D1*
X2023294Y1031257D2*
Y979763D1*
X2049777Y953280D1*
X2140393D1*
X2162265Y975152D1*
Y1023837D1*
X2160954Y1025149D1*
X2023294Y1031257D2*
Y1020170D1*
X2529378Y1210628D2*
X2531200D1*
X868923Y498769D2*
Y524360D1*
Y549950D1*
Y524360D2*
X927484D1*
X640576Y440576D2*
Y473179D1*
X749696Y680526D2*
D3*
X1002314Y492841D2*
Y492840D1*
X787683Y2250181D2*
Y2247826D1*
X840256Y2195252D1*
X1059256Y2240645D2*
D3*
X887452Y2249950D2*
Y2242448D1*
X840256Y2195252D1*
X554235Y2098771D2*
Y2032826D1*
X545377Y2023967D1*
X887310Y2143841D2*
Y2148198D1*
X840256Y2195252D1*
X545377Y2020030D2*
Y2023967D1*
X787683Y2143780D2*
X788784D1*
X840256Y2195252D1*
X1894685Y1404970D2*
D18*
X1842162D1*
X1831050Y1393858D1*
X1728075Y1290883D2*
Y1288756D1*
X1497617Y1608554D2*
D16*
X1747591D1*
X1749809Y1610772D1*
X1815427D1*
X1873272D1*
X1928076Y1665576D1*
X819292Y993701D2*
Y1134916D1*
X862452Y1178076D1*
X946826D1*
X971826Y1153076D1*
Y993701D1*
X1315355D2*
X1342914D1*
X1057432Y492841D2*
D15*
Y453078D1*
X1611960Y818701D2*
D16*
Y872772D1*
X1614137Y874949D1*
X1945293Y818701D2*
Y874722D1*
X1945521Y874950D1*
X2278625Y818701D2*
Y868883D1*
X2272559Y874949D1*
X2605709Y831201D2*
Y877263D1*
X2595523Y887449D1*
X2657508Y1118704D2*
D15*
X2656201D1*
X2422244Y1286860D2*
X2506792D1*
X2509326Y1284326D1*
X2325788Y1639222D2*
Y1675457D1*
X2356407Y1706076D1*
X2162265Y1953076D2*
X2065576D1*
X2607507Y2074952D2*
X2662450D1*
Y2078076D1*
X2771824Y2187450D1*
X2843701D1*
X2002907Y2578109D2*
Y2818853D1*
X2004953Y2820899D1*
X1359225Y1721949D2*
D17*
X1365474D1*
X1165495Y1521970D1*
Y1431355D1*
X1162370Y1428230D1*
X1040508Y1084516D2*
Y994445D1*
X1039764Y993701D1*
X2651257Y1024958D2*
D15*
Y1028272D1*
X2487231Y1256420D2*
X2476477Y1267175D1*
X2422244D1*
X2345473Y1639222D2*
X2357634D1*
X2368494Y1650082D1*
X2662452Y1996987D2*
X2607743D1*
X2662452D2*
X2752915Y2087450D1*
X2843701D1*
X2278175Y2003076D2*
Y2055992D1*
X2274753Y2059414D1*
X1831050Y2721844D2*
Y2820225D1*
X1831725Y2820899D1*
X2477582Y1871331D2*
Y1912945D1*
X2387450Y2003076D1*
X2278175D1*
X653937Y993701D2*
Y864714D1*
X668701Y849950D1*
X831202D1*
X943701Y737452D1*
Y738533D1*
X626378Y993701D2*
Y848524D1*
X643701Y831201D1*
X787452D1*
X874952Y743701D1*
Y740353D1*
X878080Y737225D1*
X818701Y743701D2*
Y739680D1*
X816246Y737225D1*
Y764906D1*
X768701Y812450D1*
X631202D1*
X598819Y844834D1*
Y993701D1*
X571260D2*
Y841142D1*
X618701Y793701D1*
X721826D1*
X749952Y765575D1*
Y737860D1*
X749316Y737225D1*
X1232677Y993701D2*
Y876427D1*
X1137452Y781201D1*
X1024952D1*
X1006201Y762450D1*
Y737866D1*
X1006843Y737225D1*
X1287795Y993701D2*
Y762794D1*
X1263298Y738297D1*
X1264370Y737225D1*
X1260236Y993701D2*
Y860236D1*
X1131201Y731201D1*
Y741630D1*
X1135607Y737225D1*
X2286418Y1111663D2*
Y947865D1*
X2328082Y906201D1*
X2368702D1*
X2399740Y875163D1*
X2499730D1*
X2502855Y878288D1*
X2306103Y1111663D2*
Y959425D1*
X2340578Y924950D1*
X2374950D1*
X2402865Y897036D1*
X2479376D1*
X2488750Y906410D1*
X2515353D1*
X2543475Y878288D1*
Y853290D1*
X2422244Y1247490D2*
X2389876D1*
X2374950Y1262415D1*
Y1281202D1*
X2324748Y1331404D1*
Y1350316D1*
X1894685Y1444340D2*
X1952425D1*
X1984159Y1412607D1*
X1894685Y1464025D2*
X1896109Y1462601D1*
X1959176D1*
X1974799Y1446978D1*
X1990424D1*
X2012281Y1425121D1*
Y1384484D1*
X1991142Y1111663D2*
Y1128995D1*
X874410Y993701D2*
Y1096524D1*
X2087450Y1237450D2*
X2059158D1*
X1991142Y1169435D1*
Y1111663D1*
X2010827D2*
Y1151805D1*
X2024780Y1165757D1*
X2049777D1*
X2052902Y1168882D1*
X931145Y1090765D2*
Y995318D1*
X929528Y993701D1*
X2093523Y1022023D2*
Y1047020D1*
X2068525Y1072017D1*
Y1110306D1*
X2069882Y1111663D1*
X2090398Y1112494D2*
X2089567Y1111663D1*
Y1175962D1*
X2081023Y1184507D1*
X2121826Y1231201D2*
X2109252Y1218628D1*
Y1111663D1*
X2131019Y1109582D2*
X2128937Y1111663D1*
Y1178937D1*
X2149950Y1199950D1*
X2148622Y1111663D2*
Y1073998D1*
X2121645Y1047020D1*
Y1000150D1*
X2115395Y993900D1*
X2187992Y1111663D2*
Y1153988D1*
X2271629Y1237625D1*
Y1303243D1*
X2249756Y1325116D1*
Y1375110D1*
X2243507Y1381360D1*
X1968536Y2125032D2*
X1968776D1*
X2247047Y1111663D2*
Y1149718D1*
X2237450Y1159315D1*
Y1165576D1*
X2266732Y1111663D2*
X2265379Y1113016D1*
Y1206005D1*
X2299950Y1240576D1*
X2031029Y1262622D2*
X2034154Y1259498D1*
X1990232Y1215576D1*
X1949963D1*
X1937289Y1228251D1*
X1895131D1*
X1894685Y1227805D1*
X1974952Y1246826D2*
X1895349D1*
X1894685Y1247490D1*
X2422244Y1562450D2*
Y1569120D1*
X2496826Y1643701D1*
X2503076D1*
X2422244Y1542765D2*
X2458390D1*
X2477857Y1562232D1*
Y1593483D1*
X2496960Y1612586D1*
X2502855D1*
X2422244Y1523080D2*
X2463705D1*
X2505979Y1565355D1*
Y1581339D1*
X2422244Y1464025D2*
X2482776D1*
X2499952Y1481201D1*
X2518626D1*
X2534101Y1465726D1*
X2587601D1*
X2618701Y1496826D1*
X2422244Y1444340D2*
X2500589D1*
X2509326Y1453076D1*
X2422244Y1424655D2*
X2555906D1*
X2568701Y1437450D1*
X2422244Y1404970D2*
X2592470D1*
X2603076Y1415576D1*
X2422244Y1385285D2*
Y1384326D1*
Y1385285D2*
X2377067D1*
X2359120Y1403232D1*
X744975Y2003170D2*
Y1925053D1*
X748100Y1921928D1*
X1406307Y2143874D2*
Y2085121D1*
X1404638Y2083452D1*
X1749809Y1543843D2*
Y1534469D1*
X1681066Y1465726D1*
X1894685Y1326230D2*
X1836185D1*
X1815427Y1346988D1*
Y1368861D1*
X1799803Y1384484D1*
X1718562D1*
X1681066Y1421981D1*
Y1465726D1*
X1497617Y1541625D2*
Y1523191D1*
X1555082Y1465726D1*
X1894685Y1286860D2*
X1852163D1*
X1818551Y1253248D1*
X1668567D1*
X1634196Y1287620D1*
X1556079Y1465726D2*
X1555082D1*
X2412239Y1026961D2*
Y978288D1*
X2465575Y924952D1*
X868701Y2340576D2*
Y2325061D1*
X859277Y2315637D1*
Y2294341D1*
X859941Y2293677D1*
X962391Y2003170D2*
Y1925053D1*
X965516Y1921928D1*
X1971457Y1639222D2*
Y1684696D1*
X1962452Y1693701D1*
X1823612D1*
X1781355Y1735958D1*
X820571Y2293677D2*
X821781Y2292467D1*
Y2331260D1*
X793708Y2359334D1*
X799950Y2365576D1*
X1781355Y1735958D2*
D3*
X2422244Y1326230D2*
Y1325116D1*
X2371618D1*
X2943701Y1387450D2*
X2940575D1*
X2896826Y1343701D1*
X2664607D1*
X2662689Y1345618D1*
Y1337614D2*
Y1345618D1*
X2422244Y1345915D2*
X2472736D1*
X2481201Y1337450D1*
X2662213Y1343864D2*
Y1345142D1*
X2537226Y2521865D2*
D3*
X2207677Y1639222D2*
Y1692225D1*
X2190576Y1709326D1*
X2768208Y2709334D2*
Y2685918D1*
X2605062Y2522772D1*
X1029320Y2003170D2*
Y2170591D1*
X1006137Y2193774D1*
X937204D1*
X938681Y2195252D1*
X1783012Y2193701D2*
D16*
Y2141723D1*
X1787112Y2137624D1*
X2422244Y1306545D2*
D15*
X2487794D1*
X2496826Y1315576D1*
X2537449D1*
X2540575Y1312450D1*
X2659327Y1212450D2*
X2657507D1*
X2607505Y2146824D2*
X2662449D1*
X2324827Y1712327D2*
X2306103Y1693603D1*
Y1639222D1*
X2278175Y1953076D2*
X2343701D1*
X2403076Y1893701D1*
X1918541Y2718719D2*
Y2820697D1*
X1918339Y2820899D1*
X2662449Y2146824D2*
X2803075Y2287450D1*
X2843701D1*
X1012205Y993701D2*
D17*
Y1115763D1*
X1121750Y1453227D2*
Y1546967D1*
X1268609Y1693827D1*
X2345473Y1111663D2*
D15*
Y1026295D1*
X2362450Y1009318D1*
Y953076D1*
X640576Y524360D2*
X688042D1*
X703076Y509326D1*
X1871067Y1022534D2*
Y931960D1*
X1871826Y931201D1*
X1240895Y593701D2*
Y556446D1*
X1246736D1*
X1002314Y532605D2*
Y532604D1*
X2206011Y2402126D2*
Y2462496D1*
Y2515616D1*
Y2462496D2*
X2049777D1*
X1874795Y2637478D1*
Y2820663D1*
X1875032Y2820899D1*
X1968866Y2192051D2*
X1970516Y2193701D1*
X1849952D2*
X1849941D1*
X1912544D2*
Y2191981D1*
X1912442Y2191879D1*
X2125032Y2711462D2*
X2171639D1*
X1587440Y2193701D2*
D16*
Y2143525D1*
X1593341Y2137624D1*
X2325788Y1111663D2*
D15*
X2327873Y1113748D1*
Y1009524D1*
X2334326Y1003071D1*
Y981201D1*
X640576Y549950D2*
X712450D1*
X749950Y512450D1*
X1815427Y1022534D2*
X1814811D1*
X1211368Y564173D2*
X1165495D1*
X1057432Y572369D2*
Y572368D1*
X2050197Y1639222D2*
Y1594257D1*
X2002907Y1546967D1*
X1465463Y737677D2*
Y739007D1*
X1464774Y739696D1*
X2089567Y1639222D2*
Y1571134D1*
X2062450Y1544017D1*
Y1534326D1*
X1802928Y740802D2*
Y740314D1*
X2128937Y1639222D2*
Y1549049D1*
X2134285Y1543701D1*
X2143517Y718929D2*
Y719100D1*
X2141673Y720944D1*
X2168307Y1639222D2*
Y1584671D1*
X2174764Y1578214D1*
X2331201Y1174952D2*
X2334302D1*
X2374743Y1134511D1*
X2474952Y725201D2*
X2475170Y724983D1*
X1464774Y562466D2*
X1533540Y493701D1*
X1549950D1*
X1464774Y672767D2*
X1541709Y749701D1*
X1549950D1*
X1464774Y562466D2*
Y672767D1*
X1885368Y749701D2*
X1879244D1*
X1802310Y672767D1*
Y562466D1*
X1871075Y493701D1*
X1885368D1*
X2220784Y749701D2*
Y733125D1*
X2141673Y654015D1*
X2139845Y652187D1*
Y562466D1*
X2220784Y493701D2*
X2152019Y562466D1*
X2139845D1*
X2475170Y658054D2*
Y568717D1*
X2550185Y493701D1*
X2556201D1*
X2475170Y658054D2*
X2556201Y739086D1*
Y749701D1*
X1894685Y1483710D2*
Y1484326D1*
X551246Y1834437D2*
X562433D1*
Y1727450D1*
X568701D1*
X1894685Y1483710D2*
X1897432D1*
X1894685D2*
X1980586D1*
X1981201Y1484326D1*
X1894685Y1542765D2*
X1908390D1*
X866307Y1834437D2*
X868701D1*
Y1737450D1*
X1894685Y1542765D2*
X1936515D1*
X1946826Y1553076D1*
Y1587452D1*
X1894685Y1562450D2*
X1871826D1*
X1928076Y1618701D1*
X993638Y1834437D2*
X987389D1*
Y1727450D1*
X968701D1*
X805907Y1834437D2*
Y1765444D1*
X767914Y1727450D1*
X768701D1*
X1894685Y1523080D2*
Y1521826D1*
X1940269D1*
X1974950Y1556507D1*
Y1568700D1*
X678576Y1834437D2*
X671797D1*
Y1737450D1*
X668701D1*
X1968701Y1512450D2*
X1959327Y1503076D1*
X1895004D1*
X1894685Y1503395D1*
X1991142Y1639222D2*
Y1696261D1*
X1974952Y1712452D1*
X1881484D1*
X1856355Y1737582D1*
X840256Y2293677D2*
Y2337782D1*
X834280Y2343759D1*
Y2362507D1*
X1856057Y1737582D2*
X1856355D1*
X2422244Y1365600D2*
X2356131D1*
X2337247Y1384484D1*
X2334122D1*
X2330998Y1387609D1*
X2390576Y2521826D2*
X2392138Y2523389D1*
X2393701Y2521826D1*
X2306402Y1787651D2*
X2290576Y1771826D1*
Y1740576D1*
X2284326Y1734326D1*
X2278076D1*
X2265379Y1721629D1*
Y1640575D1*
X2266732Y1639222D1*
X2768208Y2784334D2*
X2765323D1*
X2709083Y2728093D1*
Y2681223D1*
X2609093Y2581234D1*
X2520038D1*
X2460630Y2521826D1*
X938681Y2214937D2*
X939391Y2215647D1*
X1012386D1*
X1165495Y2062538D1*
Y2003170D1*
X1166806D1*
X1099877D2*
Y1928177D1*
X1106126Y1921928D1*
X813781Y2709324D2*
D16*
X824885D1*
X940519Y2824958D1*
X1328068D1*
X1443702Y2709324D1*
X1866849Y1267175D2*
D15*
X1894685D1*
X1860600D1*
X1837299Y1243874D1*
Y1231376D1*
X1453076Y2543701D2*
Y2699950D1*
X1443702Y2709324D1*
X2590578Y1212450D2*
D16*
X2590579Y1118704D1*
Y1118701D1*
X2584328D1*
Y1024958D1*
X2065576Y1903076D2*
X2199950D1*
X2201658D1*
X2278175D1*
Y1853076D1*
X2030512Y1639222D2*
D17*
Y1749219D1*
X2050125Y1768832D1*
X2227362Y1639222D2*
Y1725593D1*
X2187263Y1765693D1*
X2422244Y1483710D2*
X2477461D1*
X2512452Y1518701D1*
X2559326D1*
X2227362Y1025670D2*
X2227883Y1025149D1*
X1971457Y1111663D2*
D19*
Y1046349D1*
X1956365Y1031257D1*
X2290576Y2821822D2*
D16*
X2334310Y2778088D1*
X2490576D1*
Y2821822D1*
X1912442Y2124950D2*
Y2040816D1*
X1886292Y2014666D1*
X1877166D1*
X1718692Y2124950D2*
X1824849Y2018793D1*
X1873038D1*
X1877166Y2014666D1*
X1727950Y749701D2*
Y493701D1*
X2734201Y749701D2*
Y493701D1*
X2398784Y749701D2*
Y493701D1*
X2063368Y749701D2*
Y493701D1*
Y749701D2*
X2065400Y751734D1*
Y818701D1*
Y915784D1*
X2027869D1*
X1956037Y987616D1*
Y1030929D1*
X1956365Y1031257D1*
X2065400Y915784D2*
X2202886D1*
X2227883Y940781D1*
Y1025149D1*
X2559326Y1518701D2*
X2578075Y1537450D1*
X2662689D1*
Y1412547D1*
X1631201Y1845523D2*
X1638113D1*
X1677320Y1806315D1*
X1777927D1*
X1781355Y1802887D1*
X1854731D1*
X1856355Y1804511D1*
X2032834D1*
X2050125Y1787219D1*
Y1768832D1*
X2187263Y1765693D2*
X2181012D1*
X2177873Y1768832D1*
X2050125D1*
X2187263Y1765693D2*
Y1821939D1*
X2199950D1*
Y1903076D1*
X2662689Y1537450D2*
Y1674603D1*
X2596595Y1740697D1*
X2437236D1*
X2355995Y1821939D1*
X2199950D1*
X2540576Y2146824D2*
Y2074952D1*
X2540578D1*
Y1997223D1*
X2540814Y1996987D1*
X2540576Y2146824D2*
Y2181502D1*
X2793449Y2434374D1*
X2890625D1*
X2943701Y2487450D1*
X1727950Y628318D2*
Y749701D1*
X1956365Y1031257D2*
X1962146D1*
Y1025007D1*
X2206011Y2331260D2*
X2215385D1*
X2249756Y2365631D1*
Y2659351D1*
X2237257Y2671849D1*
Y2768503D1*
X2290576Y2821822D1*
X2662689Y1412547D2*
X2621592Y1371450D1*
Y1325184D1*
X2646826Y1299950D1*
Y1278075D1*
X2590578Y1221827D1*
Y1212450D1*
X2531200Y1143698D2*
X2584328D1*
Y1118701D1*
X2422244Y1208120D2*
D17*
X2460532D1*
X2474950Y1193701D1*
Y1165576D1*
X2496828Y1143698D1*
X2531200D1*
X1336851Y2146402D2*
D16*
X1339378Y2143874D1*
X2227883Y1025149D2*
D17*
Y1071772D1*
X2227362Y1072293D1*
Y1111663D1*
X681496Y993701D2*
D20*
Y1071826D1*
X723668D1*
X764173D1*
Y993701D1*
Y922033D1*
X901969D1*
Y993701D1*
X1135692Y681201D2*
D16*
Y638239D1*
X1288570D1*
X1299950Y649620D1*
X1331299Y680969D1*
X1309793Y524803D2*
D17*
X1330706D1*
X1340477Y534574D1*
Y578319D1*
X1325095Y593701D1*
X1299950D1*
D21*
Y611418D1*
D16*
Y649620D1*
X1727950Y493701D2*
Y434584D1*
X2063368D1*
X2398784D1*
X2734201D1*
Y493701D1*
X2398784D2*
Y434584D1*
X2063368Y493701D2*
Y434584D1*
X1814811Y1089463D2*
X1871067D1*
D19*
X1892242D1*
X1921666Y1118887D1*
X1950453D1*
X1957677Y1111663D1*
X1971457D1*
X2012222Y818701D2*
D16*
X2065400D1*
X1678889D2*
Y798763D1*
X1727950Y749701D1*
X2345554Y818701D2*
Y802931D1*
X2398784Y749701D1*
X2672638Y831201D2*
Y811264D1*
X2734201Y749701D1*
X2107196Y2128247D2*
X2165765D1*
X2172016Y2121996D1*
X1854041Y2137624D2*
X1899769D1*
X1912442Y2124950D1*
X1660271Y2137624D2*
X1706019D1*
X1718692Y2124950D1*
X1327978Y2315448D2*
X1240487D1*
X1152996D1*
X1059256D1*
X824952Y2422579D2*
Y2421876D1*
X903929D1*
Y2375912D1*
X1059256Y2315448D2*
Y2375005D1*
X1012386Y2421876D1*
X903929D1*
X1339378Y2143874D2*
Y2155180D1*
X1384222Y2200024D1*
Y2303138D1*
X1371723Y2315637D1*
X1328167D1*
X1327978Y2315448D1*
X1384222Y2200024D2*
X1387108Y2202910D1*
X1428206D1*
X1537331Y2093785D1*
X1612323D1*
X1662318Y2143780D1*
Y2135576D1*
X1660271Y2137624D1*
X741831Y2155882D2*
D21*
X743701D1*
Y2136197D1*
X741831D1*
X1173055Y1921928D2*
D16*
Y1878183D1*
X1060567D1*
X1032445D1*
X933236D1*
X738978D1*
X611647D1*
Y1834437D1*
X1032445Y1921928D2*
Y1878183D1*
X1060567Y1834437D2*
Y1878183D1*
X933236Y1834437D2*
Y1878183D1*
X738978Y1834437D2*
Y1878183D1*
X611647D2*
D20*
Y2037260D1*
X693088Y2118701D1*
X743701D1*
Y2134327D1*
X741831Y2136197D1*
X468701Y1737450D2*
D16*
Y1740689D1*
X440571Y1768819D1*
Y1856310D1*
X462444Y1878183D1*
X611647D1*
X2835137Y2784334D2*
Y2709334D1*
X2490576Y2778088D2*
X2674711D1*
X2734080Y2837457D1*
X2782013D1*
X2835137Y2784334D1*
Y2709334D2*
Y2686406D1*
X2893439Y2628104D1*
Y2537713D1*
X2943701Y2487450D1*
X816625Y680526D2*
D22*
Y612450D1*
Y480151D1*
X824950Y471826D1*
X867570D1*
X868923Y473179D1*
X878530Y681201D2*
D16*
X817299D1*
X816625Y680526D1*
X1002314Y453078D2*
X959326D1*
Y549952D1*
X878076Y631201D1*
Y680747D1*
X878530Y681201D1*
X1002314Y453078D2*
Y450713D1*
X1028076Y424950D1*
X1093701D1*
Y596248D1*
X1135692Y638239D1*
X2201658Y1903076D2*
Y1987914D1*
X2172016Y2017555D1*
Y2121996D1*
X1339378Y2143874D2*
X1299950D1*
X1274858Y2118782D1*
Y2087536D1*
X1224864Y2037541D1*
Y1937551D1*
X1209240Y1921928D1*
X1173055D1*
X468701Y1737450D2*
Y1350042D1*
Y809326D1*
X665576Y612450D1*
X816625D1*
X1384222Y2303138D2*
X1524832Y2443748D1*
X2009156D1*
X2024780Y2428125D1*
X2131019D1*
X2165390Y2393753D1*
Y2371881D1*
X2206011Y2331260D1*
X1781355Y1802887D2*
Y1849761D1*
X1537331Y2093785D1*
X1771974Y1350042D2*
X723668D1*
X468701D1*
X2468483Y1027147D2*
X2582139D1*
X2584328Y1024958D1*
X2734201Y749701D2*
Y918826D1*
X2693701Y959326D1*
X2606201D1*
X2584326Y981201D1*
Y1024956D1*
X2584328Y1024958D1*
X723668Y1071826D2*
Y1350042D1*
X743701Y2118701D2*
D20*
Y2103076D1*
X749950Y2096827D1*
X781201D1*
X1815427Y1543843D2*
D19*
X1818551D1*
Y1425105D1*
X1771974D1*
Y1420908D1*
X1894685Y1385285D2*
D18*
X1947463D1*
X1952912Y1390734D1*
Y1415731D1*
X1943538Y1425105D1*
X1895135D1*
X1894685Y1424655D1*
X1818551Y1425105D2*
D20*
X1894685Y1424655D1*
X676013Y2368756D2*
D16*
Y2468746D1*
Y2471870D1*
X659298D1*
X637425Y2493743D1*
Y2568735D1*
X676013Y2368756D2*
D3*
X821781Y2003170D2*
D3*
X824952Y2524949D2*
Y2568735D1*
X750149D1*
Y2524949D1*
X637425Y2678971D2*
Y2640603D1*
X649924Y2628104D1*
X659298D1*
X718667Y2568735D1*
X750149D1*
X678046Y2003170D2*
D17*
D3*
X718667Y2521865D2*
X747065D1*
X750149Y2524949D1*
X484316Y2471870D2*
D23*
Y2468746D1*
X549935D1*
X589399D1*
X2943701Y2587450D2*
D16*
Y2643460D1*
X2880940Y2706221D1*
Y2834332D1*
X2846568Y2868704D1*
X740540D1*
X549935Y2678099D1*
Y2468746D1*
X554235Y2201133D2*
X628051D1*
D22*
Y2293764D1*
X589399Y2332416D1*
Y2368756D1*
X1584326Y1239954D2*
D15*
Y1243750D1*
X1609198Y1218877D1*
X1728075D1*
Y1221827D1*
X1728110D1*
X1771681Y1178256D1*
X1824801D1*
X1856047Y1209503D1*
X1893302D1*
X1894685Y1208120D1*
X1584326Y1049954D2*
Y1047145D1*
X1674631Y1137450D1*
X1728075D1*
X1843701D1*
X1894685Y1188435D1*
X2107681Y2190753D2*
Y2184400D1*
X2168511D2*
Y2185420D1*
X2172016Y2188925D1*
X2287252Y1640057D2*
X2286418Y1639222D1*
X2065576Y2003076D2*
Y2027798D1*
X2318499Y1743822D2*
X2286418Y1711740D1*
Y1639222D1*
X2059151Y1000150D2*
Y1056394D1*
X2050197Y1065348D1*
Y1111663D1*
X2069882Y1639222D2*
Y1582696D1*
X2034154Y1546967D1*
Y1515721D1*
X2040403Y1509471D1*
Y1493369D1*
Y1487278D1*
X2037450Y1484326D1*
X1681066Y874949D2*
X1678076D1*
Y868701D1*
X2037450Y1484326D2*
Y1490416D1*
X2040403Y1493369D1*
X1993533Y875163D2*
X2012450D1*
Y874950D1*
X2018700D1*
X2009326Y865576D1*
X2093523Y1527898D2*
Y1546395D1*
X2109252Y1562125D1*
Y1639222D1*
X2339488Y874949D2*
X2343701D1*
X2148622Y1639222D2*
Y1566860D1*
X2165576Y1549906D1*
Y1490910D1*
X2146642Y1471975D1*
Y1465726D1*
X2315576Y718701D2*
Y781201D1*
X2312452Y784326D1*
Y847912D1*
X2339488Y874949D1*
X2187992Y1639222D2*
X2185624D1*
X2662452Y887449D2*
X2659328D1*
X2405990Y1147037D2*
X2359326Y1193701D1*
X2206201Y1556201D2*
Y1584273D1*
X2187263Y1603211D1*
Y1638492D1*
X2187992Y1639222D1*
X2468483Y1094076D2*
X2440335D1*
X2412425D1*
X2412239Y1093890D1*
X2440335Y1094076D2*
Y1170344D1*
X2422244Y1188435D1*
X1465450Y2012201D2*
Y2009453D1*
X1562452Y1912452D1*
X1631201D1*
X1465450Y1756201D2*
Y1815450D1*
X1562452Y1912452D1*
X1894685Y1306545D2*
X1815919D1*
X1796824Y1287450D1*
Y1281201D1*
X1894685Y1365600D2*
X1971524D1*
X1337352Y2084411D2*
Y2083809D1*
X1718692Y2191879D2*
D3*
X1656201Y2193701D2*
X1654369D1*
X1788418Y2820899D2*
X1787305Y2819786D1*
Y2721844D1*
X2168307Y1111663D2*
Y1165550D1*
X2252881Y1250124D1*
Y1293869D1*
X2231008Y1315742D1*
Y1340769D1*
X2218701Y1353076D1*
D66*
X1277983Y531449D3*
X1399845Y678309D3*
X970858Y2375912D3*
X971765Y2075037D3*
X712452Y2378164D3*
X674921Y2149952D3*
Y2206273D3*
X740540Y2356257D3*
X1562452Y1846936D3*
X548502Y2275936D3*
X837404Y2193774D3*
X1152996Y2240645D3*
X1240487D3*
X1327978D3*
X787550Y2524949D3*
X681171Y1921928D3*
X481192Y1834437D3*
X824906Y1921928D3*
X681171D3*
X1983196Y1768832D3*
X2252881Y1768819D3*
X1983196Y1768832D3*
X2065576Y1853076D3*
X1877166Y1947736D3*
X2065576Y1853076D3*
X1578181Y2350046D3*
X1747473Y2318550D3*
X1578181Y2350046D3*
X2053772Y2318550D3*
X1747473D3*
X2125032Y2357133D3*
X2053772Y2318550D3*
X2140780Y2796109D3*
X2206011Y2584358D3*
X2125032Y2357133D3*
X1578181Y2793941D3*
X1961646Y2820899D3*
X1578181Y2793941D3*
Y2350046D3*
X1128742Y2709324D3*
X2477857Y500202D3*
X1464774Y494642D3*
X1802310Y495537D3*
X2139845D3*
X512450Y887450D3*
X1257591Y445436D3*
D3*
D3*
X1196826Y684326D3*
X1074879D3*
X971826Y887452D3*
X1149950D3*
X1796824Y1214272D3*
X1728075Y1059658D3*
X737452Y887452D3*
X971826D3*
X737452D3*
X1196826Y684326D3*
X1315576Y887450D3*
D3*
X1331299Y846844D3*
X1196826Y684326D3*
X2562223Y1681328D3*
X2023294Y1020170D3*
X2529378Y1210628D3*
X927484Y524360D3*
X640576Y440576D3*
X749696Y680526D3*
D3*
X1331299Y846844D3*
X1002314Y492840D3*
X2023294Y1020170D3*
X787683Y2250181D3*
X1059256Y2240645D3*
X887452Y2249950D3*
X1152996Y2240645D3*
X887310Y2143841D3*
X548502Y2275936D3*
X545377Y2020030D3*
X787683Y2143780D3*
X1831050Y1393858D3*
X1728075Y1290883D3*
X1796824Y1214272D3*
X1928076Y1665576D3*
X2656201Y1118704D3*
X2509326Y1284326D3*
X2656201Y1118704D3*
X2356407Y1706076D3*
X2162265Y1953076D3*
X2662450Y2078076D3*
X2002907Y2578109D3*
X1359225Y1721949D3*
X1162370Y1428230D3*
X1040508Y1084516D3*
X2162265Y1953076D3*
X2651257Y1028272D3*
X2487231Y1256420D3*
X2651257Y1028272D3*
X2368494Y1650082D3*
X2662452Y1996987D3*
D3*
X2274753Y2059414D3*
X1831050Y2721844D3*
X2477582Y1871331D3*
X2502855Y878288D3*
X2543475Y853290D3*
X2324748Y1350316D3*
X2496605Y1675079D3*
X2630966Y1809440D3*
X1984159Y1412607D3*
X2012281Y1384484D3*
X874410Y1096524D3*
X2087450Y1237450D3*
X2052902Y1168882D3*
X931145Y1090765D3*
X2093523Y1022023D3*
X2081023Y1184507D3*
X2121826Y1231201D3*
X2149950Y1199950D3*
X2115395Y993900D3*
X2243507Y1381360D3*
X2121645Y1718824D3*
X1968536Y2125032D3*
X2237450Y1165576D3*
X2299950Y1240576D3*
X2031029Y1262622D3*
X1974952Y1246826D3*
X2503076Y1643701D3*
X2502855Y1612586D3*
X2505979Y1581339D3*
X2618701Y1496826D3*
X2509326Y1453076D3*
X2568701Y1437450D3*
X2603076Y1415576D3*
X2359120Y1403232D3*
X1634196Y1287620D3*
X1556079Y1465726D3*
X2465575Y924952D3*
X1518583Y850166D3*
X868701Y2340576D3*
X799950Y2365576D3*
X1781355Y1735958D3*
X2371618Y1325116D3*
X2481201Y1337450D3*
X2662213Y1343864D3*
X2537226Y2521865D3*
X2190576Y1709326D3*
X2552849Y2384379D3*
X2540575Y1312450D3*
X2659327Y1212450D3*
X2662449Y2146824D3*
X2403076Y1893701D3*
X2324827Y1712327D3*
X2403076Y1893701D3*
X1918541Y2718719D3*
X1012205Y1115763D3*
X1121750Y1453227D3*
X1268609Y1693827D3*
X2362450Y953076D3*
X703076Y509326D3*
X1602949Y984526D3*
X1671898Y931201D3*
X2362450Y953076D3*
X1871826Y931201D3*
X1246736Y556446D3*
X1671898Y931201D3*
X1002314Y532604D3*
X1246736Y556446D3*
X1970516Y2193701D3*
X1849952D3*
X1912544D3*
X2171639Y2711462D3*
X1970516Y2193701D3*
X2334326Y981201D3*
X749950Y512450D3*
X1815427Y1022534D3*
X2334326Y981201D3*
X1165495Y564173D3*
X1057432Y572368D3*
X1165495Y564173D3*
X2002907Y1546967D3*
X1465463Y737677D3*
X2062450Y1534326D3*
X1802928Y740802D3*
X2134285Y1543701D3*
X2143517Y718929D3*
X2174764Y1578214D3*
X2331201Y1174952D3*
X2374743Y1134511D3*
X2474952Y725201D3*
X1981201Y1484326D3*
X1946826Y1587452D3*
X1928076Y1618701D3*
X1974950Y1568700D3*
X1968701Y1512450D3*
X834280Y2362507D3*
X1856057Y1737582D3*
X2330998Y1387609D3*
X2390576Y2521826D3*
X2552849Y2346883D3*
X2306402Y1787651D3*
X1837299Y1231376D3*
X1453076Y2543701D3*
X676013Y2368756D3*
X821781Y2003170D3*
X678046D3*
X718667Y2521865D3*
X2107681Y2184400D3*
X2168511D3*
X2065576Y2027798D3*
X2318499Y1743822D3*
X2065576Y2027798D3*
X2107681Y2184400D3*
X2059151Y1000150D3*
X1678076Y868701D3*
X2037450Y1484326D3*
X2009326Y865576D3*
X2093523Y1527898D3*
X2146642Y1465726D3*
X1931040Y1074789D3*
X2315576Y718701D3*
X2659328Y887449D3*
X2405990Y1147037D3*
X2359326Y1193701D3*
X2206201Y1556201D3*
X1796824Y1281201D3*
X1971524Y1365600D3*
X1337352Y2084411D3*
X1718692Y2191879D3*
X1656201Y2193701D3*
X1787305Y2721844D3*
X1718692Y2191879D3*
X2218701Y1353076D3*
X2077950Y1693827D3*
X1718692Y2191879D3*
X1627210Y2835110D2*
D146*
X1702965D1*
X2189809D2*
X2336109D1*
X2645042D2*
X2832105D1*
X1627210Y2825242D2*
X1702965D1*
X2189809D2*
X2334605D1*
X2646546D2*
X2720152D1*
X2816253D2*
X2841969D1*
X1627210Y2815373D2*
X1702965D1*
X2189809D2*
X2334878D1*
X2646273D2*
X2720152D1*
X2816253D2*
X2846656D1*
X1627210Y2805504D2*
X1693902D1*
X2189809D2*
X2336969D1*
X2644184D2*
X2720152D1*
X2816253D2*
X2846656D1*
X1627210Y2795635D2*
X1686969D1*
X2189809D2*
X2341109D1*
X2640042D2*
X2720152D1*
X2816253D2*
X2846656D1*
X949378Y2785767D2*
X1023609D1*
X1233890D2*
X1319196D1*
X1627210D2*
X1684566D1*
X2189809D2*
X2347925D1*
X2633226D2*
X2720152D1*
X2816253D2*
X2846656D1*
X939516Y2775898D2*
X1023609D1*
X1233890D2*
X1329078D1*
X1627210D2*
X1684488D1*
X2189809D2*
X2234488D1*
X2346664D2*
X2359156D1*
X2646664D2*
X2715016D1*
X2816253D2*
X2846656D1*
X929652Y2766029D2*
X1023609D1*
X1233890D2*
X1338570D1*
X1627210D2*
X1684488D1*
X2189809D2*
X2234488D1*
X2346664D2*
X2356714D1*
X2646664D2*
X2705152D1*
X2816253D2*
X2846656D1*
X919769Y2756160D2*
X1023609D1*
X1233890D2*
X1338570D1*
X1627210D2*
X1684488D1*
X2189809D2*
X2234488D1*
X2646664D2*
X2695269D1*
X2816253D2*
X2846656D1*
X918929Y2746292D2*
X1023609D1*
X1233890D2*
X1338570D1*
X1627210D2*
X1684488D1*
X2189809D2*
X2234488D1*
X2646664D2*
X2685641D1*
X2816253D2*
X2846656D1*
X918929Y2736423D2*
X1023609D1*
X1233890D2*
X1338570D1*
X1627210D2*
X1684488D1*
X2200492D2*
X2234488D1*
X2646664D2*
X2680406D1*
X2816253D2*
X2846656D1*
X918929Y2726554D2*
X1023609D1*
X1233890D2*
X1338570D1*
X1627210D2*
X1684488D1*
X2206860D2*
X2234488D1*
X2646664D2*
X2679176D1*
X2816253D2*
X2846656D1*
X918929Y2716685D2*
X1023609D1*
X1233890D2*
X1338570D1*
X1548852D2*
X1684488D1*
X2209672D2*
X2234488D1*
X2646664D2*
X2679176D1*
X2816253D2*
X2846656D1*
X918929Y2706816D2*
X1023609D1*
X1233890D2*
X1338570D1*
X1548852D2*
X1684488D1*
X2209750D2*
X2234488D1*
X2646664D2*
X2679176D1*
X2816253D2*
X2846656D1*
X2928402D2*
X2936364D1*
X3051038D2*
X3062692D1*
X918929Y2696948D2*
X1023609D1*
X1233890D2*
X1338570D1*
X1548852D2*
X1684488D1*
X2207113D2*
X2234488D1*
X2646664D2*
X2679176D1*
X2816253D2*
X2847984D1*
X2938265D2*
X2955777D1*
X3031625D2*
X3062692D1*
X918929Y2687079D2*
X1023609D1*
X1233890D2*
X1338570D1*
X1548852D2*
X1684488D1*
X2201000D2*
X2234488D1*
X2434320D2*
X2446832D1*
X2646664D2*
X2673062D1*
X2816253D2*
X2852730D1*
X2948129D2*
X3062692D1*
X918929Y2677210D2*
X1023609D1*
X1233890D2*
X1338570D1*
X1548852D2*
X1684488D1*
X2187660D2*
X2234488D1*
X2346664D2*
X2357261D1*
X2423890D2*
X2457261D1*
X2523890D2*
X2534488D1*
X2646664D2*
X2663200D1*
X2816253D2*
X2861890D1*
X2958012D2*
X3062692D1*
X918929Y2667341D2*
X1023609D1*
X1233890D2*
X1338570D1*
X1548852D2*
X1684488D1*
X2174261D2*
X2234488D1*
X2346664D2*
X2381441D1*
X2399710D2*
X2481441D1*
X2499710D2*
X2534488D1*
X2646664D2*
X2653336D1*
X2816253D2*
X2871753D1*
X2967874D2*
X3062692D1*
X918929Y2657473D2*
X1023609D1*
X1233890D2*
X1338570D1*
X1548852D2*
X1684488D1*
X2108637D2*
X2643453D1*
X2781625D2*
X2881637D1*
X2974886D2*
X3062692D1*
X918929Y2647604D2*
X1023609D1*
X1233890D2*
X1338570D1*
X1548852D2*
X1684488D1*
X2108637D2*
X2633589D1*
X2771761D2*
X2891500D1*
X2977718D2*
X3062692D1*
X918929Y2637735D2*
X1023609D1*
X1233890D2*
X1338570D1*
X1548852D2*
X1684488D1*
X2108637D2*
X2623726D1*
X2761898D2*
X2820601D1*
X2866801D2*
X2901364D1*
X2977973D2*
X3062692D1*
X918929Y2627866D2*
X1023609D1*
X1233890D2*
X1338570D1*
X1548852D2*
X1684488D1*
X2108637D2*
X2159918D1*
X2252093D2*
X2613864D1*
X2752034D2*
X2805504D1*
X2881898D2*
X2905504D1*
X2981898D2*
X3062692D1*
X918929Y2617998D2*
X1023609D1*
X1233890D2*
X1338570D1*
X1548852D2*
X1684488D1*
X2108637D2*
X2159918D1*
X2252093D2*
X2603981D1*
X2742152D2*
X2797046D1*
X2890356D2*
X2897062D1*
X2990356D2*
X3062692D1*
X727328Y2608129D2*
X1423180D1*
X1482973D2*
X1684488D1*
X2108637D2*
X2159918D1*
X2252093D2*
X2508453D1*
X2732289D2*
X2791813D1*
X2995589D2*
X3062692D1*
X841293Y2598260D2*
X1423180D1*
X1482973D2*
X1684488D1*
X2108637D2*
X2159918D1*
X2252093D2*
X2495192D1*
X2722425D2*
X2788844D1*
X2998558D2*
X3062692D1*
X852797Y2588391D2*
X1423180D1*
X1482973D2*
X1684488D1*
X2108637D2*
X2159918D1*
X2252093D2*
X2485328D1*
X2712542D2*
X2787789D1*
X2999613D2*
X3062692D1*
X857757Y2578523D2*
X1423180D1*
X1482973D2*
X1684488D1*
X2108637D2*
X2159918D1*
X2252093D2*
X2475465D1*
X2702680D2*
X2788512D1*
X2998890D2*
X3062692D1*
X859222Y2568654D2*
X1423180D1*
X1482973D2*
X1684488D1*
X2108637D2*
X2159918D1*
X2252093D2*
X2465582D1*
X2692816D2*
X2791089D1*
X2996313D2*
X3062692D1*
X860042Y2558785D2*
X1417848D1*
X1488305D2*
X1684488D1*
X2108637D2*
X2159918D1*
X2252093D2*
X2345641D1*
X2682953D2*
X2795856D1*
X2991546D2*
X3062692D1*
X862172Y2548916D2*
X1415034D1*
X1491117D2*
X1684488D1*
X2108637D2*
X2159918D1*
X2252093D2*
X2345641D1*
X2673070D2*
X2803550D1*
X2883852D2*
X2903550D1*
X2983852D2*
X3062692D1*
X862172Y2539047D2*
X1414977D1*
X1491196D2*
X1684488D1*
X2108637D2*
X2159918D1*
X2252093D2*
X2345641D1*
X2663206D2*
X2816734D1*
X2870668D2*
X2916734D1*
X2970668D2*
X3062692D1*
X862172Y2529179D2*
X1417613D1*
X1488538D2*
X1684488D1*
X2108637D2*
X2159918D1*
X2252093D2*
X2345641D1*
X2653344D2*
X2806988D1*
X2880414D2*
X3062692D1*
X862172Y2519310D2*
X1423726D1*
X1482425D2*
X1684488D1*
X2108637D2*
X2159918D1*
X2252093D2*
X2345641D1*
X2653109D2*
X2797965D1*
X2889437D2*
X3062692D1*
X862172Y2509441D2*
X1437066D1*
X1469086D2*
X1684488D1*
X2108637D2*
X2116870D1*
X2252093D2*
X2345641D1*
X2653109D2*
X2792360D1*
X2895042D2*
X3062692D1*
X862113Y2499572D2*
X1684488D1*
X2252093D2*
X2345641D1*
X2653109D2*
X2789137D1*
X2898265D2*
X3062692D1*
X859360Y2489704D2*
X1684488D1*
X2252093D2*
X2345641D1*
X2653109D2*
X2787828D1*
X2899574D2*
X3062692D1*
X714222Y2479835D2*
X724781D1*
X850316D2*
X1684488D1*
X2252093D2*
X2345641D1*
X2653109D2*
X2788297D1*
X2899105D2*
X3062692D1*
X714222Y2469966D2*
X729352D1*
X770941D2*
X1684488D1*
X2252093D2*
X2790621D1*
X2896781D2*
X3062692D1*
X783246Y2460097D2*
X1684918D1*
X2235902D2*
X2795074D1*
X2892328D2*
X3062692D1*
X787054Y2450229D2*
X1688453D1*
X2235902D2*
X2802301D1*
X2885101D2*
X3062692D1*
X787368Y2440360D2*
X1697574D1*
X2242445D2*
X2814429D1*
X2872973D2*
X2927945D1*
X2959457D2*
X3062692D1*
X787368Y2430491D2*
X2106969D1*
X2252680D2*
X2808570D1*
X2878832D2*
X2908570D1*
X2978832D2*
X3062692D1*
X787368Y2420622D2*
X922809D1*
X1018910D2*
X2106969D1*
X2255882D2*
X2542613D1*
X2563089D2*
X2798921D1*
X2888481D2*
X2898921D1*
X2988481D2*
X3062692D1*
X787368Y2410753D2*
X922809D1*
X1018910D2*
X1529137D1*
X1627210D2*
X2106969D1*
X2256038D2*
X2525328D1*
X2580374D2*
X2792965D1*
X2994437D2*
X3062692D1*
X813285Y2400885D2*
X922809D1*
X1018910D2*
X1529137D1*
X1627210D2*
X2075797D1*
X2256038D2*
X2518297D1*
X2587406D2*
X2789449D1*
X2997953D2*
X3062692D1*
X859496Y2391016D2*
X922809D1*
X1018910D2*
X1529137D1*
X1627210D2*
X2075797D1*
X2256038D2*
X2515034D1*
X2590649D2*
X2787886D1*
X2999516D2*
X3062692D1*
X867700Y2381147D2*
X922809D1*
X1018910D2*
X1529137D1*
X1627210D2*
X2075797D1*
X2255492D2*
X2514586D1*
X2591117D2*
X2788141D1*
X2999261D2*
X3062692D1*
X891058Y2371278D2*
X922809D1*
X1018910D2*
X1529137D1*
X1627210D2*
X2075797D1*
X2251058D2*
X2516813D1*
X2588870D2*
X2790210D1*
X2997192D2*
X3062692D1*
X900765Y2361410D2*
X913180D1*
X1018910D2*
X1529137D1*
X1627210D2*
X1691538D1*
X1803402D2*
X1997848D1*
X2235297D2*
X2517378D1*
X2588305D2*
X2794332D1*
X2993070D2*
X3062692D1*
X1018910Y2351541D2*
X1529137D1*
X1627210D2*
X1691538D1*
X1803402D2*
X1997848D1*
X2174261D2*
X2514742D1*
X2590961D2*
X2801129D1*
X2986273D2*
X3062692D1*
X1018910Y2341672D2*
X1529137D1*
X1627210D2*
X1691538D1*
X1803402D2*
X1997848D1*
X2174261D2*
X2514820D1*
X2590882D2*
X2812340D1*
X2975062D2*
X3062692D1*
X1018910Y2331803D2*
X1529137D1*
X1627210D2*
X1691538D1*
X1803402D2*
X1997848D1*
X2174261D2*
X2517633D1*
X2588070D2*
X2810309D1*
X2977093D2*
X3062692D1*
X957445Y2321935D2*
X1529137D1*
X1627210D2*
X1691538D1*
X1803402D2*
X1997848D1*
X2174261D2*
X2523981D1*
X2581702D2*
X2799957D1*
X2987445D2*
X3062692D1*
X947562Y2312066D2*
X1529137D1*
X1627210D2*
X1691538D1*
X1803402D2*
X1997848D1*
X2174261D2*
X2538200D1*
X2567504D2*
X2786929D1*
X2993813D2*
X3062692D1*
X935512Y2302197D2*
X1529137D1*
X1627210D2*
X1691538D1*
X1803402D2*
X1997848D1*
X2109692D2*
X2775953D1*
X2997621D2*
X3062692D1*
X931625Y2292328D2*
X1529137D1*
X1627210D2*
X1691538D1*
X1803402D2*
X1997848D1*
X2109692D2*
X2766089D1*
X2999418D2*
X3062692D1*
X964202Y2282460D2*
X1003336D1*
X1383910D2*
X1529137D1*
X1627210D2*
X1691538D1*
X1803402D2*
X1997848D1*
X2109692D2*
X2756206D1*
X2999398D2*
X3062692D1*
X975921Y2272591D2*
X1003336D1*
X1383910D2*
X1691538D1*
X1803402D2*
X1997848D1*
X2109692D2*
X2746344D1*
X2997582D2*
X3062692D1*
X980668Y2262722D2*
X1003336D1*
X1383910D2*
X2736481D1*
X2993753D2*
X3062692D1*
X981781Y2252853D2*
X1003336D1*
X1383910D2*
X2726597D1*
X2987368D2*
X3062692D1*
X1383910Y2242984D2*
X2716734D1*
X2976957D2*
X3062692D1*
X1383910Y2233116D2*
X1539390D1*
X2218109D2*
X2706870D1*
X2975218D2*
X3062692D1*
X1383910Y2223247D2*
X1539390D1*
X2218109D2*
X2697008D1*
X2986370D2*
X3062692D1*
X1383910Y2213378D2*
X1539390D1*
X2218109D2*
X2687125D1*
X2993129D2*
X3062692D1*
X1383910Y2203509D2*
X1539390D1*
X2218109D2*
X2677261D1*
X2997230D2*
X3062692D1*
X1383910Y2193641D2*
X1539390D1*
X2218109D2*
X2667398D1*
X2999281D2*
X3062692D1*
X1086137Y2183772D2*
X1358257D1*
X1454360D2*
X1539390D1*
X2218109D2*
X2559449D1*
X2999496D2*
X3062692D1*
X1096000Y2173903D2*
X1358257D1*
X1454360D2*
X1539390D1*
X2218109D2*
X2559449D1*
X2997933D2*
X3062692D1*
X1105864Y2164034D2*
X1358257D1*
X1454360D2*
X1539390D1*
X2218109D2*
X2559449D1*
X2994378D2*
X3062692D1*
X1115746Y2154166D2*
X1358257D1*
X1454360D2*
X1539390D1*
X2218109D2*
X2559449D1*
X2988402D2*
X3062692D1*
X712894Y2144297D2*
X728512D1*
X1125609D2*
X1358257D1*
X1454360D2*
X1545289D1*
X1641390D2*
X1739058D1*
X1835160D2*
X1922789D1*
X2088324D2*
X2125933D1*
X2218109D2*
X2559449D1*
X2978676D2*
X3062692D1*
X709945Y2134428D2*
X744957D1*
X1135473D2*
X1358257D1*
X1454360D2*
X1545289D1*
X1641390D2*
X1739058D1*
X1835160D2*
X1922789D1*
X2088324D2*
X2559449D1*
X2973168D2*
X3062692D1*
X703382Y2124559D2*
X744957D1*
X1145336D2*
X1289664D1*
X1454360D2*
X1545289D1*
X1641390D2*
X1739058D1*
X1835160D2*
X1922789D1*
X2088324D2*
X2559449D1*
X2985200D2*
X3062692D1*
X607210Y2114691D2*
X661461D1*
X688382D2*
X744957D1*
X1155218D2*
X1289664D1*
X1454360D2*
X1545289D1*
X1641390D2*
X1739058D1*
X1835160D2*
X1922789D1*
X2088324D2*
X2559449D1*
X2992406D2*
X3062692D1*
X607210Y2104822D2*
X744957D1*
X1165082D2*
X1289664D1*
X1454360D2*
X1545289D1*
X1641390D2*
X1739058D1*
X1835160D2*
X1922789D1*
X2088324D2*
X2559449D1*
X2996801D2*
X3062692D1*
X607210Y2094953D2*
X768589D1*
X1174945D2*
X1289664D1*
X1452700D2*
X1545289D1*
X1641390D2*
X1739058D1*
X1835160D2*
X1922789D1*
X2088324D2*
X2262105D1*
X2287406D2*
X2559449D1*
X2999105D2*
X3062692D1*
X607210Y2085084D2*
X768589D1*
X1184828D2*
X1289664D1*
X1452700D2*
X1922789D1*
X2088324D2*
X2246558D1*
X2302953D2*
X2559449D1*
X2999574D2*
X3062692D1*
X607210Y2075215D2*
X770016D1*
X1192465D2*
X1289664D1*
X1452700D2*
X2239860D1*
X2309652D2*
X2559449D1*
X2998246D2*
X3062692D1*
X599340Y2065347D2*
X770016D1*
X1195257D2*
X1253746D1*
X1499145D2*
X2236832D1*
X2312680D2*
X2559449D1*
X2994984D2*
X3062692D1*
X599340Y2055478D2*
X771870D1*
X1195394D2*
X1241500D1*
X1511410D2*
X2039429D1*
X2091722D2*
X2236558D1*
X2312953D2*
X2559449D1*
X2762816D2*
X2798042D1*
X2989360D2*
X3062692D1*
X599340Y2045609D2*
X629996D1*
X1214868D2*
X1233746D1*
X1519145D2*
X2031696D1*
X2099457D2*
X2239000D1*
X2310512D2*
X2559449D1*
X2752953D2*
X2807125D1*
X2980277D2*
X3062692D1*
X599340Y2035740D2*
X629996D1*
X1214868D2*
X1228668D1*
X1346234D2*
X1406656D1*
X1524242D2*
X1999801D1*
X2131352D2*
X2212398D1*
X2343949D2*
X2559449D1*
X2743070D2*
X2816520D1*
X2970882D2*
X3062692D1*
X599340Y2025872D2*
X629996D1*
X1214868D2*
X1225562D1*
X1349340D2*
X1403570D1*
X1527328D2*
X1999801D1*
X2131352D2*
X2212398D1*
X2406214D2*
X2559684D1*
X2733206D2*
X2803453D1*
X2983949D2*
X3062692D1*
X599340Y2016003D2*
X629996D1*
X1214868D2*
X1224176D1*
X1350726D2*
X1402164D1*
X1528734D2*
X1999801D1*
X2131352D2*
X2212398D1*
X2416390D2*
X2559684D1*
X2723344D2*
X2795777D1*
X2991625D2*
X3062692D1*
X599340Y2006134D2*
X629996D1*
X1214868D2*
X1224352D1*
X1350550D2*
X1402340D1*
X1528558D2*
X1999801D1*
X2131352D2*
X2212398D1*
X2426253D2*
X2559684D1*
X2713461D2*
X2791050D1*
X2996352D2*
X3062692D1*
X599340Y1996265D2*
X629996D1*
X1214868D2*
X1226129D1*
X1348773D2*
X1404117D1*
X1526781D2*
X1999801D1*
X2131352D2*
X2212398D1*
X2436137D2*
X2559684D1*
X2703597D2*
X2788492D1*
X2998910D2*
X3062692D1*
X599340Y1986397D2*
X629996D1*
X1214868D2*
X1229645D1*
X1345257D2*
X1407633D1*
X1530374D2*
X1831089D1*
X1923246D2*
X1999801D1*
X2131352D2*
X2144273D1*
X2180257D2*
X2212398D1*
X2446000D2*
X2559684D1*
X2699320D2*
X2787789D1*
X2999613D2*
X3062692D1*
X481702Y1976528D2*
X491421D1*
X599340D2*
X629996D1*
X1214868D2*
X1235250D1*
X1339652D2*
X1413257D1*
X1540238D2*
X1831089D1*
X1923246D2*
X1999801D1*
X2192406D2*
X2212398D1*
X2455864D2*
X2559684D1*
X2694750D2*
X2788864D1*
X2998538D2*
X3062692D1*
X424710Y1966659D2*
X629996D1*
X1214868D2*
X1243785D1*
X1331117D2*
X1421793D1*
X1550121D2*
X1831089D1*
X1923246D2*
X1999801D1*
X2198109D2*
X2212398D1*
X2371996D2*
X2381988D1*
X2465746D2*
X2559684D1*
X2685336D2*
X2791852D1*
X2995550D2*
X3062692D1*
X424710Y1956790D2*
X633121D1*
X1013578D2*
X1058082D1*
X1154184D2*
X1257750D1*
X1317152D2*
X1435757D1*
X1677289D2*
X1831089D1*
X1923246D2*
X1999801D1*
X2200473D2*
X2212398D1*
X2381860D2*
X2391870D1*
X2475609D2*
X2559684D1*
X2655805D2*
X2797125D1*
X2990277D2*
X3062692D1*
X424710Y1946921D2*
X633121D1*
X1013578D2*
X1058082D1*
X1154184D2*
X1486109D1*
X1677289D2*
X1831089D1*
X1923246D2*
X1999801D1*
X2200160D2*
X2212398D1*
X2391722D2*
X2401734D1*
X2485473D2*
X2805621D1*
X2981781D2*
X3062692D1*
X424710Y1937053D2*
X633121D1*
X1013578D2*
X1058082D1*
X1154184D2*
X1495973D1*
X1677289D2*
X1831089D1*
X1923246D2*
X1999801D1*
X2197054D2*
X2212398D1*
X2401586D2*
X2411597D1*
X2495336D2*
X2819117D1*
X2968285D2*
X3062692D1*
X424710Y1927184D2*
X633121D1*
X1013578D2*
X1058082D1*
X1154184D2*
X1505856D1*
X1677289D2*
X1831089D1*
X1923246D2*
X1999801D1*
X2190257D2*
X2212398D1*
X2503734D2*
X2804781D1*
X2982621D2*
X3062692D1*
X424710Y1917315D2*
X633121D1*
X1013578D2*
X1058082D1*
X1154184D2*
X1515718D1*
X1677289D2*
X1831089D1*
X1923246D2*
X1999801D1*
X2131352D2*
X2150309D1*
X2174222D2*
X2212398D1*
X2507152D2*
X2796597D1*
X2990805D2*
X3062692D1*
X424710Y1907446D2*
X633121D1*
X1013578D2*
X1058082D1*
X1154184D2*
X1515582D1*
X1677289D2*
X1831089D1*
X1923246D2*
X2347457D1*
X2507484D2*
X2791538D1*
X2995864D2*
X3062692D1*
X424710Y1897578D2*
X633121D1*
X1013578D2*
X1058082D1*
X1154184D2*
X1505700D1*
X1677289D2*
X2357320D1*
X2441273D2*
X2447684D1*
X2507484D2*
X2788706D1*
X2998696D2*
X3062692D1*
X424710Y1887709D2*
X633121D1*
X1013578D2*
X1058082D1*
X1154184D2*
X1495836D1*
X1677289D2*
X1999801D1*
X2131352D2*
X2365152D1*
X2512210D2*
X2787769D1*
X2999633D2*
X3062692D1*
X424710Y1877840D2*
X436265D1*
X599301D2*
X630524D1*
X1041684D2*
X1058082D1*
X1154184D2*
X1485973D1*
X1677289D2*
X1999801D1*
X2131352D2*
X2368200D1*
X2515414D2*
X2788629D1*
X2998773D2*
X3062692D1*
X424710Y1867971D2*
X436265D1*
X599301D2*
X630524D1*
X1041684D2*
X1476109D1*
X1677289D2*
X1999801D1*
X2131352D2*
X2374937D1*
X2431214D2*
X2439332D1*
X2515824D2*
X2791344D1*
X2996058D2*
X3062692D1*
X424710Y1858103D2*
X436265D1*
X599301D2*
X630524D1*
X1041684D2*
X1466226D1*
X1608538D2*
X1999801D1*
X2131352D2*
X2390601D1*
X2415550D2*
X2441597D1*
X2513558D2*
X2796265D1*
X2991137D2*
X3062692D1*
X424710Y1848234D2*
X436265D1*
X599301D2*
X630524D1*
X1041684D2*
X1456364D1*
X1608538D2*
X1999801D1*
X2131352D2*
X2447164D1*
X2507992D2*
X2804234D1*
X2983168D2*
X3062692D1*
X424710Y1838365D2*
X436265D1*
X599301D2*
X630524D1*
X1041684D2*
X1446500D1*
X1608538D2*
X1999801D1*
X2131352D2*
X2458921D1*
X2496253D2*
X2606265D1*
X2655668D2*
X2818042D1*
X2969360D2*
X3062692D1*
X424710Y1828496D2*
X436265D1*
X599301D2*
X630524D1*
X1041684D2*
X1438668D1*
X1608538D2*
X1999801D1*
X2131352D2*
X2597789D1*
X2664145D2*
X2806206D1*
X2981196D2*
X3062692D1*
X424710Y1818628D2*
X436265D1*
X599301D2*
X630524D1*
X1041684D2*
X1435718D1*
X1510492D2*
X1516352D1*
X1608538D2*
X1999801D1*
X2131352D2*
X2284449D1*
X2328364D2*
X2593706D1*
X2668226D2*
X2797477D1*
X2989925D2*
X3062692D1*
X424710Y1808759D2*
X436265D1*
X599301D2*
X630524D1*
X1041684D2*
X1252809D1*
X1322093D2*
X1430816D1*
X1500629D2*
X1516364D1*
X1608538D2*
X1935152D1*
X2031253D2*
X2206129D1*
X2338285D2*
X2592574D1*
X2669360D2*
X2792066D1*
X2995336D2*
X3062692D1*
X424710Y1798890D2*
X436265D1*
X599301D2*
X630524D1*
X1041684D2*
X1056793D1*
X1080609D2*
X1240933D1*
X1333969D2*
X1418941D1*
X1608538D2*
X1935152D1*
X2031253D2*
X2206129D1*
X2343070D2*
X2594078D1*
X2667856D2*
X2788981D1*
X2998421D2*
X3062692D1*
X424710Y1789021D2*
X532534D1*
X592328D2*
X632574D1*
X1017289D2*
X1032574D1*
X1104828D2*
X1157554D1*
X1179848D2*
X1233374D1*
X1341528D2*
X1411382D1*
X1519516D2*
X1935152D1*
X2031253D2*
X2206129D1*
X2344769D2*
X2598629D1*
X2663305D2*
X2787789D1*
X2999613D2*
X3062692D1*
X424710Y1779152D2*
X532534D1*
X604633D2*
X621285D1*
X1116117D2*
X1132769D1*
X1204633D2*
X1228433D1*
X1346469D2*
X1406421D1*
X1524477D2*
X1735269D1*
X1902445D2*
X1935152D1*
X2031253D2*
X2206129D1*
X2343832D2*
X2608024D1*
X2653910D2*
X2788394D1*
X2999008D2*
X3062692D1*
X424710Y1769284D2*
X521402D1*
X1216000D2*
X1225445D1*
X1349457D2*
X1403433D1*
X1527465D2*
X1735269D1*
X1902445D2*
X1935152D1*
X2031253D2*
X2206129D1*
X2346898D2*
X2790856D1*
X2996546D2*
X3062692D1*
X424710Y1759415D2*
X514117D1*
X1350765D2*
X1402125D1*
X1528773D2*
X1735269D1*
X1902445D2*
X1935152D1*
X2031253D2*
X2206129D1*
X2353500D2*
X2795465D1*
X2991937D2*
X3062692D1*
X424710Y1749546D2*
X509352D1*
X1385473D2*
X1402398D1*
X1528500D2*
X1735269D1*
X1902445D2*
X1935152D1*
X2034750D2*
X2099313D1*
X2143969D2*
X2206129D1*
X2356449D2*
X2802945D1*
X2984457D2*
X3062692D1*
X424710Y1739677D2*
X506520D1*
X1393149D2*
X1404273D1*
X1526625D2*
X1735269D1*
X2039378D2*
X2089605D1*
X2153696D2*
X2167730D1*
X2373832D2*
X2815601D1*
X2971801D2*
X3062692D1*
X424710Y1729809D2*
X505348D1*
X1396781D2*
X1407906D1*
X2040218D2*
X2066753D1*
X2386313D2*
X2807730D1*
X2979672D2*
X3062692D1*
X424710Y1719940D2*
X505757D1*
X1397562D2*
X1413668D1*
X2040218D2*
X2050172D1*
X2392152D2*
X2798414D1*
X2988988D2*
X3062692D1*
X424710Y1710071D2*
X507769D1*
X1395688D2*
X1422437D1*
X2394593D2*
X2482398D1*
X2510805D2*
X2537301D1*
X2587152D2*
X2792652D1*
X2994750D2*
X3062692D1*
X424710Y1700202D2*
X511558D1*
X1390649D2*
X1436929D1*
X2394340D2*
X2467906D1*
X2595512D2*
X2789273D1*
X2998129D2*
X3062692D1*
X424710Y1690334D2*
X517534D1*
X619868D2*
X626798D1*
X710609D2*
X717541D1*
X819868D2*
X826798D1*
X910609D2*
X917541D1*
X1019868D2*
X1026798D1*
X1110609D2*
X1117541D1*
X1380200D2*
X1491285D1*
X2391332D2*
X2461461D1*
X2599516D2*
X2787848D1*
X2999554D2*
X3062692D1*
X424710Y1680465D2*
X526637D1*
X610765D2*
X642281D1*
X695121D2*
X726637D1*
X810765D2*
X842281D1*
X895121D2*
X926637D1*
X1010765D2*
X1042281D1*
X1095121D2*
X1126637D1*
X1365160D2*
X1491285D1*
X2391293D2*
X2458589D1*
X2600609D2*
X2788218D1*
X2999184D2*
X3062692D1*
X424710Y1670596D2*
X541988D1*
X595414D2*
X741988D1*
X795414D2*
X941988D1*
X995414D2*
X1141988D1*
X1195414D2*
X1204214D1*
X1355277D2*
X1491285D1*
X2400765D2*
X2458473D1*
X2599046D2*
X2790425D1*
X2996977D2*
X3062692D1*
X424710Y1660727D2*
X1194352D1*
X1345414D2*
X1491285D1*
X2405356D2*
X2461070D1*
X2596488D2*
X2794702D1*
X2992700D2*
X3062692D1*
X424710Y1650858D2*
X1184469D1*
X1335550D2*
X1451538D1*
X2406878D2*
X2462105D1*
X2596488D2*
X2801734D1*
X2985668D2*
X3062692D1*
X424710Y1640990D2*
X1174605D1*
X1325688D2*
X1451538D1*
X2405765D2*
X2452242D1*
X2596488D2*
X2813394D1*
X2974008D2*
X3062692D1*
X424710Y1631121D2*
X1164742D1*
X1315805D2*
X1451538D1*
X2401722D2*
X2442378D1*
X2605414D2*
X2809390D1*
X2978012D2*
X3062692D1*
X424710Y1621252D2*
X1154878D1*
X1305941D2*
X1451538D1*
X2393324D2*
X2432516D1*
X2605414D2*
X2799410D1*
X2987992D2*
X3062692D1*
X424710Y1611383D2*
X1144996D1*
X1296078D2*
X1451538D1*
X2377777D2*
X2422633D1*
X2605414D2*
X2793257D1*
X2994145D2*
X3062692D1*
X424710Y1601515D2*
X1135133D1*
X1286196D2*
X1451538D1*
X2377777D2*
X2412769D1*
X2605414D2*
X2789605D1*
X2997797D2*
X3062692D1*
X424710Y1591646D2*
X1125269D1*
X1276332D2*
X1451538D1*
X2605414D2*
X2787925D1*
X2999477D2*
X3062692D1*
X424710Y1581777D2*
X1115386D1*
X1266469D2*
X1451538D1*
X2605414D2*
X2788062D1*
X2999340D2*
X3062692D1*
X424710Y1571908D2*
X1105524D1*
X1256605D2*
X1451538D1*
X1543696D2*
X1703726D1*
X2605414D2*
X2790016D1*
X2997386D2*
X3062692D1*
X424710Y1562040D2*
X1096676D1*
X1246722D2*
X1451538D1*
X1543696D2*
X1703726D1*
X2605414D2*
X2794000D1*
X2993402D2*
X3062692D1*
X424710Y1552171D2*
X1092828D1*
X1236860D2*
X1451538D1*
X1543696D2*
X1703726D1*
X2605414D2*
X2800601D1*
X2986801D2*
X3062692D1*
X424710Y1542302D2*
X1092340D1*
X1226996D2*
X1451538D1*
X1543696D2*
X1703726D1*
X2605414D2*
X2811421D1*
X2975981D2*
X3062692D1*
X424710Y1532433D2*
X1092340D1*
X1217113D2*
X1451538D1*
X1543696D2*
X1703726D1*
X2539222D2*
X2606265D1*
X2631137D2*
X2811188D1*
X2976214D2*
X3062692D1*
X424710Y1522565D2*
X1092340D1*
X1207250D2*
X1451538D1*
X1543696D2*
X1696032D1*
X2529360D2*
X2590562D1*
X2646840D2*
X2800465D1*
X2986937D2*
X3062692D1*
X424710Y1512696D2*
X1092340D1*
X1197386D2*
X1451538D1*
X2519477D2*
X2583844D1*
X2653558D2*
X2793921D1*
X2993481D2*
X3062692D1*
X424710Y1502827D2*
X1092340D1*
X1194886D2*
X1451538D1*
X2538793D2*
X2580777D1*
X2656625D2*
X2789977D1*
X2997425D2*
X3062692D1*
X424710Y1492958D2*
X1092340D1*
X1194886D2*
X1485973D1*
X2656898D2*
X2788042D1*
X2999360D2*
X3062692D1*
X424710Y1483089D2*
X1092340D1*
X1194886D2*
X1491285D1*
X2654496D2*
X2787945D1*
X2999457D2*
X3062692D1*
X424710Y1473221D2*
X1089137D1*
X1194886D2*
X1491285D1*
X2648714D2*
X2789645D1*
X2997757D2*
X3062692D1*
X424710Y1463352D2*
X1084742D1*
X1194886D2*
X1491285D1*
X2636390D2*
X2793336D1*
X2994066D2*
X3062692D1*
X424710Y1453483D2*
X1083356D1*
X1194886D2*
X1491285D1*
X2617230D2*
X2799528D1*
X2987874D2*
X3062692D1*
X424710Y1443614D2*
X1084605D1*
X1197465D2*
X1491285D1*
X2628832D2*
X2809605D1*
X2977797D2*
X3062692D1*
X424710Y1433746D2*
X1088824D1*
X1200356D2*
X1491285D1*
X2636761D2*
X2813141D1*
X2974261D2*
X3062692D1*
X424710Y1423877D2*
X1097574D1*
X1200512D2*
X1491285D1*
X2640550D2*
X2801597D1*
X2985805D2*
X3062692D1*
X424710Y1414008D2*
X1126773D1*
X1197953D2*
X1491285D1*
X2641449D2*
X2794625D1*
X2992777D2*
X3062692D1*
X424710Y1404139D2*
X1132769D1*
X1191977D2*
X1657340D1*
X2639692D2*
X2790368D1*
X2997034D2*
X3062692D1*
X424710Y1394271D2*
X1145700D1*
X1179046D2*
X1666910D1*
X2634809D2*
X2788200D1*
X2999202D2*
X3062692D1*
X424710Y1384402D2*
X1676773D1*
X2708773D2*
X2787868D1*
X2999534D2*
X3062692D1*
X424710Y1374533D2*
X1686637D1*
X2487054D2*
X2616597D1*
X2708773D2*
X2789313D1*
X2998089D2*
X3062692D1*
X424710Y1364664D2*
X1696520D1*
X2507856D2*
X2616597D1*
X2994672D2*
X3062692D1*
X424710Y1354795D2*
X1785524D1*
X2515336D2*
X2616597D1*
X2988870D2*
X3062692D1*
X424710Y1344927D2*
X1785601D1*
X2560121D2*
X2616597D1*
X2979477D2*
X3062692D1*
X424710Y1335058D2*
X1681988D1*
X1774164D2*
X1788101D1*
X2571370D2*
X2616597D1*
X2972093D2*
X3062692D1*
X424710Y1325189D2*
X1681988D1*
X2576742D2*
X2616597D1*
X2984613D2*
X3062692D1*
X424710Y1315320D2*
X1608062D1*
X1660316D2*
X1681988D1*
X2578870D2*
X2616597D1*
X2992034D2*
X3062692D1*
X424710Y1305452D2*
X1600328D1*
X1668070D2*
X1681988D1*
X2578324D2*
X2616597D1*
X2708773D2*
X2790816D1*
X2996586D2*
X3062692D1*
X424710Y1295583D2*
X1596656D1*
X1671742D2*
X1681988D1*
X2574965D2*
X2788374D1*
X2999028D2*
X3062692D1*
X424710Y1285714D2*
X1564722D1*
X2567718D2*
X2787809D1*
X2999593D2*
X3062692D1*
X424710Y1275845D2*
X1549390D1*
X2549242D2*
X2789020D1*
X2998382D2*
X3062692D1*
X424710Y1265977D2*
X1541344D1*
X2542914D2*
X2792145D1*
X2995257D2*
X3062692D1*
X424710Y1256108D2*
X1536637D1*
X2577289D2*
X2609449D1*
X2705570D2*
X2797593D1*
X2989809D2*
X3062692D1*
X424710Y1246239D2*
X1534332D1*
X2577289D2*
X2609449D1*
X2705570D2*
X2806382D1*
X2981020D2*
X3062692D1*
X424710Y1236370D2*
X1534058D1*
X2577289D2*
X2609449D1*
X2705570D2*
X2817730D1*
X2969672D2*
X3062692D1*
X424710Y1226502D2*
X1535797D1*
X2577289D2*
X2609449D1*
X2705570D2*
X2804078D1*
X2983324D2*
X3062692D1*
X424710Y1216633D2*
X1539781D1*
X2577289D2*
X2609449D1*
X2705570D2*
X2796168D1*
X2991234D2*
X3062692D1*
X424710Y1206764D2*
X844586D1*
X964692D2*
X1546734D1*
X2577289D2*
X2609449D1*
X2705570D2*
X2791285D1*
X2996117D2*
X3062692D1*
X424710Y1196895D2*
X833218D1*
X976058D2*
X1559117D1*
X2577289D2*
X2609449D1*
X2705570D2*
X2788589D1*
X2998813D2*
X3062692D1*
X424710Y1187026D2*
X823336D1*
X985941D2*
X1681988D1*
X2577289D2*
X2609449D1*
X2705570D2*
X2787769D1*
X2999633D2*
X3062692D1*
X424710Y1177158D2*
X813473D1*
X995805D2*
X1681988D1*
X2577289D2*
X2609449D1*
X2705570D2*
X2788746D1*
X2998656D2*
X3062692D1*
X424710Y1167289D2*
X803609D1*
X1002914D2*
X1681988D1*
X2577289D2*
X2791617D1*
X2995785D2*
X3062692D1*
X424710Y1157420D2*
X793785D1*
X1005824D2*
X1652730D1*
X2480141D2*
X2609449D1*
X2705570D2*
X2796714D1*
X2990688D2*
X3062692D1*
X424710Y1147551D2*
X787516D1*
X1032914D2*
X1642868D1*
X2470238D2*
X2609449D1*
X2705570D2*
X2804957D1*
X2982445D2*
X3062692D1*
X424710Y1137683D2*
X785133D1*
X1043500D2*
X1632984D1*
X2514574D2*
X2609449D1*
X2705570D2*
X2819449D1*
X2967953D2*
X3062692D1*
X424710Y1127814D2*
X785016D1*
X1048617D2*
X1623121D1*
X2514574D2*
X2609449D1*
X2705570D2*
X2805445D1*
X2981957D2*
X3062692D1*
X424710Y1117945D2*
X785016D1*
X1058285D2*
X1613257D1*
X2514574D2*
X2609449D1*
X2705570D2*
X2797008D1*
X2990394D2*
X3062692D1*
X424710Y1108076D2*
X785016D1*
X1070550D2*
X1603394D1*
X2514574D2*
X2609449D1*
X2705570D2*
X2791793D1*
X2995609D2*
X3062692D1*
X424710Y1098208D2*
X785016D1*
X1076313D2*
X1572750D1*
X2514574D2*
X2609449D1*
X2705570D2*
X2788844D1*
X2998558D2*
X3062692D1*
X424710Y1088339D2*
X785016D1*
X1078714D2*
X1552222D1*
X1667386D2*
X1681988D1*
X2514574D2*
X2609449D1*
X2705570D2*
X2787789D1*
X2999613D2*
X3062692D1*
X424710Y1078470D2*
X785016D1*
X1078421D2*
X1542984D1*
X1657524D2*
X1681988D1*
X2514574D2*
X2609449D1*
X2705570D2*
X2788512D1*
X2998890D2*
X3062692D1*
X424710Y1068601D2*
X785016D1*
X1075356D2*
X1537574D1*
X1647660D2*
X1681988D1*
X2514574D2*
X2603200D1*
X2699320D2*
X2791109D1*
X2996293D2*
X3062692D1*
X424710Y1058732D2*
X785016D1*
X1069906D2*
X1534702D1*
X1637777D2*
X1681988D1*
X2514574D2*
X2603200D1*
X2699320D2*
X2795874D1*
X2991528D2*
X3062692D1*
X424710Y1048864D2*
X509429D1*
X1377192D2*
X1533941D1*
X1634710D2*
X1681988D1*
X2225824D2*
X2256520D1*
X2514574D2*
X2603200D1*
X2699320D2*
X2803609D1*
X2983793D2*
X3062692D1*
X424710Y1038995D2*
X509429D1*
X1377192D2*
X1535152D1*
X1633500D2*
X1681988D1*
X2215961D2*
X2256520D1*
X2458324D2*
X2603200D1*
X2699320D2*
X2816832D1*
X2970570D2*
X3062692D1*
X424710Y1029126D2*
X509429D1*
X1377192D2*
X1538532D1*
X1630121D2*
X1681988D1*
X2209008D2*
X2256520D1*
X2458324D2*
X2603200D1*
X2699320D2*
X2806929D1*
X2980473D2*
X3062692D1*
X424710Y1019257D2*
X509429D1*
X1377192D2*
X1544625D1*
X1624028D2*
X1768726D1*
X2209008D2*
X2256520D1*
X2458324D2*
X2603200D1*
X2699320D2*
X2797925D1*
X2989477D2*
X3062692D1*
X424710Y1009389D2*
X509429D1*
X1377192D2*
X1555133D1*
X1631898D2*
X1768726D1*
X2209008D2*
X2256520D1*
X2458324D2*
X2603200D1*
X2699320D2*
X2792340D1*
X2995062D2*
X3062692D1*
X424710Y999520D2*
X509429D1*
X1377192D2*
X1567692D1*
X1638206D2*
X1768726D1*
X2209008D2*
X2256520D1*
X2458324D2*
X2603200D1*
X2699320D2*
X2789117D1*
X2998285D2*
X3062692D1*
X424710Y989651D2*
X509429D1*
X1377192D2*
X1564898D1*
X1641000D2*
X1768726D1*
X2209008D2*
X2256520D1*
X2458324D2*
X2603200D1*
X2699320D2*
X2787809D1*
X2999593D2*
X3062692D1*
X424710Y979782D2*
X509429D1*
X1377192D2*
X1564860D1*
X1641038D2*
X1768726D1*
X2196546D2*
X2256520D1*
X2452621D2*
X2788316D1*
X2999086D2*
X3062692D1*
X424710Y969914D2*
X509429D1*
X1377192D2*
X1567516D1*
X1638382D2*
X1841168D1*
X2196117D2*
X2256520D1*
X2462484D2*
X2790641D1*
X2996761D2*
X3062692D1*
X424710Y960045D2*
X509429D1*
X1377192D2*
X1573668D1*
X1632230D2*
X1647086D1*
X1696702D2*
X1841168D1*
X2192914D2*
X2256520D1*
X2479496D2*
X2795093D1*
X2992309D2*
X3062692D1*
X424710Y950176D2*
X509429D1*
X1377192D2*
X1587164D1*
X1618734D2*
X1638668D1*
X1705121D2*
X1838589D1*
X2185356D2*
X2256520D1*
X2494184D2*
X2802360D1*
X2985042D2*
X3062692D1*
X424710Y940307D2*
X509429D1*
X1377192D2*
X1634625D1*
X1709164D2*
X1834546D1*
X2175473D2*
X2257516D1*
X2500688D2*
X2814508D1*
X2972894D2*
X3062692D1*
X424710Y930439D2*
X509429D1*
X1377192D2*
X1633512D1*
X1710297D2*
X1833433D1*
X2165609D2*
X2262360D1*
X2532406D2*
X2547477D1*
X2710512D2*
X2808512D1*
X2978890D2*
X3062692D1*
X424710Y920570D2*
X494078D1*
X1349848D2*
X1635034D1*
X1708753D2*
X1834977D1*
X2147504D2*
X2271852D1*
X2710512D2*
X2798882D1*
X2988520D2*
X3062692D1*
X424710Y910701D2*
X482164D1*
X1349848D2*
X1566089D1*
X1729125D2*
X1839546D1*
X2060512D2*
X2224508D1*
X2710512D2*
X2792945D1*
X2994457D2*
X3062692D1*
X424710Y900832D2*
X476520D1*
X1351508D2*
X1566089D1*
X1729125D2*
X1849000D1*
X2060512D2*
X2224508D1*
X2710512D2*
X2789429D1*
X2997973D2*
X3062692D1*
X424710Y890963D2*
X474214D1*
X1353813D2*
X1566089D1*
X1729125D2*
X1897477D1*
X2060512D2*
X2224508D1*
X2710512D2*
X2787886D1*
X2999516D2*
X3062692D1*
X424710Y881095D2*
X474586D1*
X1353441D2*
X1496558D1*
X1540609D2*
X1566089D1*
X1729125D2*
X1897477D1*
X2060512D2*
X2224508D1*
X2710512D2*
X2788141D1*
X2999261D2*
X3062692D1*
X424710Y871226D2*
X477750D1*
X1360668D2*
X1486676D1*
X1550492D2*
X1566089D1*
X1729125D2*
X1897477D1*
X2060512D2*
X2224508D1*
X2710512D2*
X2790230D1*
X2997172D2*
X3062692D1*
X424710Y861357D2*
X484664D1*
X1366761D2*
X1481890D1*
X1555277D2*
X1563902D1*
X1729125D2*
X1897242D1*
X2060512D2*
X2224508D1*
X2710512D2*
X2794370D1*
X2993032D2*
X3062692D1*
X424710Y851488D2*
X501188D1*
X523714D2*
X541364D1*
X1369418D2*
X1480210D1*
X1556957D2*
X1563902D1*
X1729125D2*
X1897242D1*
X2060512D2*
X2224508D1*
X2710512D2*
X2801188D1*
X2986214D2*
X3062692D1*
X424710Y841620D2*
X541364D1*
X1369340D2*
X1481168D1*
X1556000D2*
X1563902D1*
X1729125D2*
X1897242D1*
X2060512D2*
X2224508D1*
X2387542D2*
X2494488D1*
X2653753D2*
X2812418D1*
X2974984D2*
X3062692D1*
X424710Y831751D2*
X542925D1*
X1366528D2*
X1485034D1*
X1552133D2*
X1563902D1*
X1729125D2*
X1897242D1*
X2060512D2*
X2224508D1*
X2387542D2*
X2511910D1*
X2653753D2*
X2810230D1*
X2977172D2*
X3062692D1*
X424710Y821882D2*
X548706D1*
X1365570D2*
X1493121D1*
X1544046D2*
X1563902D1*
X1660004D2*
X1897242D1*
X1993344D2*
X2230562D1*
X2342348D2*
X2522164D1*
X2653753D2*
X2799898D1*
X2987504D2*
X3062692D1*
X424710Y812013D2*
X558512D1*
X1365570D2*
X1545641D1*
X1554246D2*
X1563902D1*
X1660004D2*
X1881070D1*
X1889662D2*
X1897242D1*
X1993344D2*
X2216481D1*
X2225082D2*
X2230578D1*
X2342348D2*
X2551890D1*
X2653753D2*
X2793570D1*
X2993832D2*
X3062692D1*
X424710Y802145D2*
X568394D1*
X1365570D2*
X1515133D1*
X1660004D2*
X1850562D1*
X1993344D2*
X2185973D1*
X2342348D2*
X2521382D1*
X2653753D2*
X2789781D1*
X2997621D2*
X3062692D1*
X424710Y792276D2*
X578257D1*
X1365570D2*
X1503336D1*
X1660004D2*
X1838746D1*
X1993344D2*
X2174156D1*
X2343265D2*
X2509586D1*
X2653753D2*
X2787984D1*
X2999418D2*
X3062692D1*
X424710Y782407D2*
X588121D1*
X1660004D2*
X1756226D1*
X1993344D2*
X2166637D1*
X2345453D2*
X2502066D1*
X2610336D2*
X2788004D1*
X2999398D2*
X3062692D1*
X424710Y772538D2*
X598024D1*
X1609028D2*
X1756226D1*
X1944437D2*
X2161714D1*
X2279848D2*
X2285065D1*
X2345473D2*
X2497125D1*
X2615277D2*
X2789840D1*
X2997562D2*
X3062692D1*
X424710Y762670D2*
X701265D1*
X1611996D2*
X1756226D1*
X1947406D2*
X2095582D1*
X2345473D2*
X2429078D1*
X2618246D2*
X2793688D1*
X2993714D2*
X3062692D1*
X424710Y752801D2*
X701265D1*
X1613265D2*
X1756226D1*
X1948696D2*
X2095582D1*
X2345473D2*
X2429078D1*
X2619516D2*
X2800074D1*
X2987328D2*
X3062692D1*
X424710Y742932D2*
X701265D1*
X1612973D2*
X1756226D1*
X1948402D2*
X2095582D1*
X2345473D2*
X2429078D1*
X2619242D2*
X2810524D1*
X2976878D2*
X3062692D1*
X424710Y733063D2*
X701265D1*
X1611097D2*
X1756226D1*
X1946508D2*
X2095582D1*
X2351117D2*
X2429078D1*
X2617348D2*
X2787769D1*
X2999633D2*
X3062692D1*
X424710Y723194D2*
X701265D1*
X1607445D2*
X1756226D1*
X1942856D2*
X2095582D1*
X2353714D2*
X2429078D1*
X2613696D2*
X2787769D1*
X2999633D2*
X3062692D1*
X424710Y713326D2*
X701265D1*
X1601645D2*
X1756226D1*
X1937074D2*
X2095582D1*
X2272484D2*
X2277574D1*
X2353597D2*
X2429078D1*
X2607894D2*
X2787769D1*
X2999633D2*
X3062692D1*
X424710Y703457D2*
X701265D1*
X1592856D2*
X1756226D1*
X1928265D2*
X2095582D1*
X2263676D2*
X2280425D1*
X2350726D2*
X2429078D1*
X2599105D2*
X2787769D1*
X2999633D2*
X3062692D1*
X424710Y693588D2*
X701265D1*
X1578246D2*
X1756226D1*
X1913656D2*
X2095582D1*
X2249086D2*
X2286870D1*
X2344301D2*
X2429078D1*
X2584496D2*
X2787769D1*
X2999633D2*
X3062692D1*
X424710Y683719D2*
X701637D1*
X1122093D2*
X1154566D1*
X1312425D2*
X1353864D1*
X1517601D2*
X1756226D1*
X1855141D2*
X2095582D1*
X2213246D2*
X2301344D1*
X2329809D2*
X2429078D1*
X2542700D2*
X2787769D1*
X2999633D2*
X3062692D1*
X424710Y673851D2*
X548961D1*
X1122093D2*
X1154566D1*
X1312425D2*
X1353864D1*
X1510864D2*
X1756226D1*
X1848402D2*
X2095582D1*
X2203382D2*
X2429078D1*
X2532836D2*
X2787769D1*
X2999633D2*
X3062692D1*
X424710Y663982D2*
X548961D1*
X1122093D2*
X1154566D1*
X1312425D2*
X1353864D1*
X1510864D2*
X1756226D1*
X1848402D2*
X2095582D1*
X2193520D2*
X2429078D1*
X2522973D2*
X2787769D1*
X2999633D2*
X3062692D1*
X424710Y654113D2*
X548961D1*
X1122093D2*
X1154566D1*
X1312425D2*
X1353864D1*
X1510864D2*
X1756226D1*
X1848402D2*
X2095582D1*
X2187757D2*
X2429078D1*
X2521253D2*
X2787769D1*
X2999633D2*
X3062692D1*
X424710Y644244D2*
X548961D1*
X1122093D2*
X1154566D1*
X1312425D2*
X1353864D1*
X1510864D2*
X1756226D1*
X1848402D2*
X2095582D1*
X2187757D2*
X2429078D1*
X2521253D2*
X2787769D1*
X2999633D2*
X3062692D1*
X424710Y634376D2*
X548961D1*
X950902D2*
X972418D1*
X1032210D2*
X1353864D1*
X1510864D2*
X1756226D1*
X1848402D2*
X2095582D1*
X2187757D2*
X2429078D1*
X2521253D2*
X2787769D1*
X2999633D2*
X3062692D1*
X424710Y624507D2*
X548961D1*
X950902D2*
X972418D1*
X1032210D2*
X1188902D1*
X1312562D2*
X1434878D1*
X1494672D2*
X1772418D1*
X1832210D2*
X2095582D1*
X2187757D2*
X2429078D1*
X2521253D2*
X3062692D1*
X424710Y614638D2*
X548961D1*
X950902D2*
X972418D1*
X1032210D2*
X1131832D1*
X1312562D2*
X1434878D1*
X1494672D2*
X1772418D1*
X1832210D2*
X2095582D1*
X2187757D2*
X2429078D1*
X2521253D2*
X3062692D1*
X424710Y604769D2*
X548961D1*
X950902D2*
X964097D1*
X1095649D2*
X1121949D1*
X1312562D2*
X1418688D1*
X1510864D2*
X1756226D1*
X1848402D2*
X2093765D1*
X2185921D2*
X2429078D1*
X2521253D2*
X3062692D1*
X424710Y594900D2*
X470738D1*
X516664D2*
X548961D1*
X950902D2*
X964097D1*
X1095649D2*
X1112105D1*
X1346038D2*
X1418688D1*
X1510864D2*
X1756226D1*
X1848402D2*
X2093765D1*
X2185921D2*
X2429078D1*
X2521253D2*
X2970738D1*
X3016664D2*
X3062692D1*
X424710Y585032D2*
X443882D1*
X543520D2*
X548961D1*
X950902D2*
X964097D1*
X1095649D2*
X1106070D1*
X1346038D2*
X1418688D1*
X1510864D2*
X1756226D1*
X1848402D2*
X2093765D1*
X2185921D2*
X2429078D1*
X2521253D2*
X2943882D1*
X3043520D2*
X3062692D1*
X950902Y575163D2*
X964097D1*
X1095726D2*
X1104352D1*
X1346038D2*
X1418688D1*
X1510864D2*
X1756226D1*
X1848402D2*
X2093765D1*
X2185921D2*
X2429078D1*
X2521253D2*
X2928765D1*
X950902Y565294D2*
X964097D1*
X1095649D2*
X1104352D1*
X1346038D2*
X1418688D1*
X1510864D2*
X1756226D1*
X1848402D2*
X2093765D1*
X2191058D2*
X2429078D1*
X2521253D2*
X2917886D1*
X950902Y555425D2*
X964097D1*
X1095649D2*
X1104352D1*
X1346038D2*
X1418688D1*
X1513696D2*
X1539801D1*
X1560101D2*
X1756226D1*
X1851214D2*
X1875210D1*
X1895532D2*
X2093765D1*
X2200921D2*
X2210621D1*
X2230941D2*
X2429078D1*
X2530336D2*
X2546050D1*
X2566352D2*
X2909546D1*
X1095649Y545557D2*
X1104352D1*
X1346038D2*
X1418688D1*
X1585668D2*
X1756226D1*
X1921078D2*
X2093765D1*
X2256488D2*
X2429078D1*
X2591918D2*
X2903062D1*
X1095649Y535688D2*
X1104352D1*
X1346038D2*
X1418688D1*
X1597113D2*
X1756226D1*
X1932524D2*
X2093765D1*
X2267953D2*
X2429078D1*
X2603364D2*
X2898042D1*
X1095649Y525819D2*
X1104352D1*
X1346038D2*
X1418688D1*
X1604457D2*
X1756226D1*
X1939868D2*
X2093765D1*
X2275277D2*
X2429078D1*
X2610706D2*
X2894253D1*
X1095649Y515950D2*
X1104352D1*
X1346038D2*
X1418688D1*
X1609242D2*
X1756226D1*
X1944672D2*
X2093765D1*
X2280082D2*
X2429078D1*
X2615492D2*
X2891558D1*
X1095649Y506082D2*
X1104352D1*
X1332250D2*
X1418688D1*
X1612113D2*
X1756226D1*
X1947524D2*
X2093765D1*
X2282933D2*
X2429078D1*
X2618364D2*
X2889878D1*
X953109Y496213D2*
X964058D1*
X1095649D2*
X1104352D1*
X1332250D2*
X1418688D1*
X1613305D2*
X1756226D1*
X1948714D2*
X2093765D1*
X2284125D2*
X2429078D1*
X2619554D2*
X2889176D1*
X950902Y486344D2*
X964097D1*
X1095649D2*
X1104352D1*
X1332250D2*
X1418688D1*
X1612914D2*
X1756226D1*
X1948324D2*
X2093765D1*
X2283753D2*
X2429078D1*
X2619164D2*
X2889410D1*
X950902Y476475D2*
X964097D1*
X1095649D2*
X1104352D1*
X1332250D2*
X1418688D1*
X1610921D2*
X1756226D1*
X1946352D2*
X2093765D1*
X2281761D2*
X2429078D1*
X2617172D2*
X2890582D1*
X950902Y466607D2*
X964097D1*
X1095649D2*
X1104352D1*
X1332250D2*
X1418688D1*
X1607152D2*
X1756226D1*
X1942582D2*
X2093765D1*
X2277992D2*
X2429078D1*
X2613402D2*
X2892750D1*
X950902Y456738D2*
X964097D1*
X1095649D2*
X1104352D1*
X1307836D2*
X1418688D1*
X1601214D2*
X1756226D1*
X1936645D2*
X2093765D1*
X2272054D2*
X2429078D1*
X2607484D2*
X2895973D1*
X950902Y446869D2*
X1019214D1*
X1095649D2*
X1104352D1*
X1300902D2*
X1507710D1*
X1592192D2*
X1843121D1*
X1927601D2*
X2178550D1*
X2263012D2*
X2513961D1*
X2598441D2*
X2900348D1*
X950902Y437000D2*
X1019214D1*
X1095649D2*
X1105601D1*
X1295024D2*
X1522906D1*
X1576996D2*
X1858316D1*
X1912425D2*
X2193726D1*
X2247836D2*
X2529156D1*
X2583246D2*
X2906050D1*
X950902Y427131D2*
X1019214D1*
X1095649D2*
X1110874D1*
X1291214D2*
X2913374D1*
X1837080Y1994790D2*
X1922251D1*
Y1900683D1*
X1832080D1*
Y1994790D1*
X1837080D1*
X1535143Y2418753D2*
X1626219D1*
Y2281339D1*
X1530143D1*
Y2418753D1*
X1535143D1*
X1697545Y2366588D2*
X1802400D1*
Y2270512D1*
X1692545D1*
Y2366588D1*
X1697545D1*
X1016294Y1771248D2*
X1018218Y1774128D1*
X1021252Y1777975D1*
X1024578Y1781574D1*
X1028176Y1784899D1*
X1032024Y1787933D1*
X1034139Y1789347D1*
X1016297Y1789352D1*
X1016289Y1771332D1*
X2255033Y2406071D2*
Y2406055D1*
Y2394260D2*
Y2394244D1*
X1834166Y2148626D2*
Y2092538D1*
X1740058D1*
Y2144823D1*
X1673607Y2144826D1*
Y2148634D1*
X1640387Y2148616D1*
X1640395Y2092538D1*
X1546288D1*
Y2148613D1*
X1540386Y2148616D1*
Y2238786D1*
X1673625D1*
X1673607Y2238933D1*
X1763777D1*
Y2238795D1*
X1867360Y2238786D1*
X1867357Y2238933D1*
X1923784D1*
X1923781Y2239105D1*
X2013952D1*
Y2235843D1*
X2126937Y2235839D1*
X2126931Y2235979D1*
X2217101D1*
Y2141872D1*
X2126931D1*
Y2145680D1*
X2087332Y2145668D1*
X2087320Y2083162D1*
X2013941D1*
X2013952Y2078068D1*
X1923781D1*
Y2144807D1*
X1867357Y2144826D1*
Y2148634D1*
X1834163Y2148616D1*
X2815261Y2739243D2*
Y2664248D1*
X2787390D1*
X2652125Y2528963D1*
X2652116Y2477687D1*
X2507667D1*
X2507684Y2476740D1*
X2346647D1*
Y2566911D1*
X2464847D1*
X2501269Y2603210D1*
X2504939Y2605876D1*
X2508979Y2607935D1*
X2513292Y2609335D1*
X2517771Y2610045D1*
X2535038Y2610134D1*
X2597128D1*
X2680181Y2693193D1*
X2680272Y2730361D1*
X2680982Y2734840D1*
X2682382Y2739152D1*
X2684441Y2743193D1*
X2687107Y2746862D1*
X2699253Y2759135D1*
X2721145Y2781025D1*
X2721154Y2829419D1*
X2815261D1*
X2815242Y2739248D1*
X2186759Y658236D2*
Y606961D1*
X2184942D1*
X2184931Y570437D1*
X2202105Y553250D1*
X2206217Y554377D1*
X2211023Y555332D1*
X2215887Y555908D1*
X2220784Y556101D1*
X2225680Y555908D1*
X2230545Y555332D1*
X2235351Y554377D1*
X2240066Y553047D1*
X2244663Y551351D1*
X2249113Y549299D1*
X2253387Y546906D1*
X2257461Y544184D1*
X2261309Y541150D1*
X2264907Y537824D1*
X2268232Y534226D1*
X2271267Y530378D1*
X2273988Y526305D1*
X2276382Y522030D1*
X2278433Y517580D1*
X2280130Y512983D1*
X2281460Y508268D1*
X2282415Y503462D1*
X2282991Y498597D1*
X2283184Y493701D1*
X2282991Y488805D1*
X2282415Y483940D1*
X2281460Y479134D1*
X2280130Y474419D1*
X2278433Y469822D1*
X2276382Y465372D1*
X2273988Y461097D1*
X2271267Y457024D1*
X2268232Y453176D1*
X2264907Y449578D1*
X2261309Y446252D1*
X2257461Y443218D1*
X2253387Y440496D1*
X2249113Y438103D1*
X2244663Y436051D1*
X2240066Y434355D1*
X2235351Y433025D1*
X2230545Y432070D1*
X2225680Y431494D1*
X2220784Y431301D1*
X2215887Y431494D1*
X2211023Y432070D1*
X2206217Y433025D1*
X2201502Y434355D1*
X2196904Y436051D1*
X2192454Y438103D1*
X2188180Y440496D1*
X2184107Y443218D1*
X2180259Y446252D1*
X2177855Y448473D1*
X2094760Y448483D1*
Y609520D1*
X2096576D1*
X2096588Y767998D1*
X2161139D1*
X2163134Y773580D1*
X2165185Y778030D1*
X2167579Y782305D1*
X2170301Y786378D1*
X2173335Y790226D1*
X2176660Y793824D1*
X2180259Y797150D1*
X2184107Y800184D1*
X2188180Y802906D1*
X2192454Y805299D1*
X2196904Y807351D1*
X2201502Y809047D1*
X2206217Y810377D1*
X2211023Y811332D1*
X2215887Y811908D1*
X2220784Y812101D1*
X2225680Y811908D1*
X2231571Y811175D1*
Y829847D1*
X2225505Y829864D1*
Y920034D1*
X2273377D1*
X2264441Y929096D1*
X2261776Y932765D1*
X2259717Y936806D1*
X2258316Y941118D1*
X2257607Y945597D1*
X2257517Y962865D1*
Y1054760D1*
X2230365Y1054767D1*
X2227759Y1051790D1*
X2208008Y1032050D1*
Y980063D1*
X2195528D1*
X2195437Y972542D1*
X2194620Y967385D1*
X2193007Y962419D1*
X2190637Y957767D1*
X2187567Y953542D1*
X2178722Y944553D1*
X2162003Y927978D1*
X2157778Y924908D1*
X2153126Y922538D1*
X2148160Y920925D1*
X2143003Y920108D1*
X2130393Y920005D1*
X2059513D1*
X2059504Y829865D1*
X2020421D1*
X2015176Y828637D1*
X2009326Y828176D1*
X2003475Y828637D1*
X1998265Y829866D1*
X1992360Y829865D1*
X1992347Y773616D1*
X1943017Y773580D1*
X1944714Y768983D1*
X1946044Y764268D1*
X1946999Y759462D1*
X1947575Y754597D1*
X1947768Y749701D1*
X1947575Y744805D1*
X1946999Y739940D1*
X1946044Y735134D1*
X1944714Y730419D1*
X1943017Y725822D1*
X1940966Y721372D1*
X1938572Y717097D1*
X1935851Y713024D1*
X1932816Y709176D1*
X1929491Y705578D1*
X1925893Y702252D1*
X1922045Y699218D1*
X1917971Y696496D1*
X1913697Y694103D1*
X1909247Y692051D1*
X1904650Y690355D1*
X1899935Y689025D1*
X1895129Y688070D1*
X1890264Y687494D1*
X1885368Y687301D1*
X1880471Y687494D1*
X1875607Y688070D1*
X1870801Y689025D1*
X1866086Y690355D1*
X1862188Y691793D1*
X1847406Y676992D1*
X1847395Y625713D1*
X1831204D1*
X1831210Y609505D1*
X1847395Y609520D1*
X1847494Y558152D1*
X1856595Y549051D1*
X1861488Y551351D1*
X1866086Y553047D1*
X1870801Y554377D1*
X1875607Y555332D1*
X1880471Y555908D1*
X1885368Y556101D1*
X1890264Y555908D1*
X1895129Y555332D1*
X1899935Y554377D1*
X1904650Y553047D1*
X1909247Y551351D1*
X1913697Y549299D1*
X1917971Y546906D1*
X1922045Y544184D1*
X1925893Y541150D1*
X1929491Y537824D1*
X1932816Y534226D1*
X1935851Y530378D1*
X1938572Y526305D1*
X1940966Y522030D1*
X1943017Y517580D1*
X1944714Y512983D1*
X1946044Y508268D1*
X1946999Y503462D1*
X1947575Y498597D1*
X1947768Y493701D1*
X1947575Y488805D1*
X1946999Y483940D1*
X1946044Y479134D1*
X1944714Y474419D1*
X1943017Y469822D1*
X1940966Y465372D1*
X1938572Y461097D1*
X1935851Y457024D1*
X1932816Y453176D1*
X1929491Y449578D1*
X1925893Y446252D1*
X1922045Y443218D1*
X1917971Y440496D1*
X1913697Y438103D1*
X1909247Y436051D1*
X1904650Y434355D1*
X1899935Y433025D1*
X1895129Y432070D1*
X1890264Y431494D1*
X1885368Y431301D1*
X1880471Y431494D1*
X1875607Y432070D1*
X1870801Y433025D1*
X1866086Y434355D1*
X1861488Y436051D1*
X1857038Y438103D1*
X1852764Y440496D1*
X1848691Y443218D1*
X1844843Y446252D1*
X1842439Y448473D1*
X1757225Y448483D1*
Y609520D1*
X1773416D1*
X1773410Y625727D1*
X1757225Y625713D1*
Y786750D1*
X1835175D1*
X1837919Y790226D1*
X1841244Y793824D1*
X1844843Y797150D1*
X1848691Y800184D1*
X1852764Y802906D1*
X1857038Y805299D1*
X1861488Y807351D1*
X1866086Y809047D1*
X1870801Y810377D1*
X1875607Y811332D1*
X1880471Y811908D1*
X1885368Y812101D1*
X1890264Y811908D1*
X1895129Y811332D1*
X1898226Y810717D1*
X1898239Y863786D1*
X1898454D1*
X1898467Y904963D1*
X1896114Y902761D1*
X1891368Y899313D1*
X1886138Y896649D1*
X1880557Y894835D1*
X1874760Y893916D1*
X1868891D1*
X1863095Y894835D1*
X1857513Y896649D1*
X1852284Y899313D1*
X1847537Y902761D1*
X1843386Y906912D1*
X1839937Y911659D1*
X1837273Y916889D1*
X1835460Y922470D1*
X1834541Y928267D1*
Y934135D1*
X1835460Y939932D1*
X1837273Y945513D1*
X1839937Y950743D1*
X1842172Y953950D1*
X1842167Y975495D1*
X1769726Y975481D1*
X1769742Y1023467D1*
X1737516D1*
X1733925Y1022718D1*
X1728075Y1022257D1*
X1722225Y1022718D1*
X1718715Y1023469D1*
X1682990Y1023467D1*
Y1104948D1*
X1633429Y1055378D1*
X1633726Y1049954D1*
X1633574Y1046079D1*
X1633117Y1042226D1*
X1632361Y1038421D1*
X1631307Y1034689D1*
X1629965Y1031050D1*
X1628341Y1027528D1*
X1626446Y1024143D1*
X1624292Y1020918D1*
X1621221Y1017149D1*
X1624932Y1014784D1*
X1629395Y1010973D1*
X1633206Y1006509D1*
X1636273Y1001505D1*
X1638519Y996084D1*
X1639889Y990377D1*
X1640349Y984526D1*
X1639889Y978676D1*
X1638519Y972969D1*
X1636273Y967547D1*
X1633206Y962544D1*
X1629395Y958080D1*
X1624932Y954269D1*
X1619928Y951202D1*
X1614507Y948957D1*
X1608799Y947587D1*
X1602949Y947126D1*
X1597099Y947587D1*
X1591391Y948957D1*
X1585970Y951202D1*
X1580966Y954269D1*
X1576503Y958080D1*
X1572692Y962544D1*
X1569625Y967547D1*
X1567379Y972969D1*
X1566009Y978676D1*
X1565549Y984526D1*
X1566009Y990377D1*
X1567379Y996084D1*
X1569625Y1001505D1*
X1570236Y1002596D1*
X1565421Y1004315D1*
X1561899Y1005939D1*
X1558515Y1007834D1*
X1555289Y1009988D1*
X1552243Y1012390D1*
X1549395Y1015024D1*
X1546761Y1017872D1*
X1544360Y1020918D1*
X1542205Y1024143D1*
X1540310Y1027528D1*
X1538687Y1031050D1*
X1537344Y1034689D1*
X1536290Y1038421D1*
X1535534Y1042226D1*
X1535078Y1046079D1*
X1534925Y1049954D1*
X1535078Y1053830D1*
X1535534Y1057683D1*
X1536290Y1061487D1*
X1537344Y1065219D1*
X1538687Y1068858D1*
X1540310Y1072381D1*
X1542205Y1075765D1*
X1544360Y1078991D1*
X1546761Y1082037D1*
X1549395Y1084885D1*
X1552243Y1087519D1*
X1555289Y1089920D1*
X1558515Y1092075D1*
X1561899Y1093970D1*
X1565421Y1095593D1*
X1569061Y1096936D1*
X1572793Y1097990D1*
X1576597Y1098746D1*
X1580450Y1099202D1*
X1584326Y1099355D1*
X1588201Y1099202D1*
X1594565Y1098247D1*
X1655862Y1159427D1*
X1659532Y1162092D1*
X1663572Y1164151D1*
X1667885Y1165551D1*
X1672364Y1166261D1*
X1682971Y1166351D1*
X1682990Y1189988D1*
X1606931Y1190066D1*
X1602452Y1190776D1*
X1598130Y1192180D1*
X1592054Y1191163D1*
X1588201Y1190706D1*
X1584326Y1190554D1*
X1580450Y1190706D1*
X1576597Y1191163D1*
X1572793Y1191919D1*
X1569061Y1192973D1*
X1565421Y1194315D1*
X1561899Y1195939D1*
X1558515Y1197834D1*
X1555289Y1199988D1*
X1552243Y1202390D1*
X1549395Y1205024D1*
X1546761Y1207872D1*
X1544360Y1210918D1*
X1542205Y1214143D1*
X1540310Y1217528D1*
X1538687Y1221050D1*
X1537344Y1224689D1*
X1536290Y1228421D1*
X1535534Y1232226D1*
X1535078Y1236079D1*
X1534925Y1239954D1*
X1535078Y1243830D1*
X1535534Y1247683D1*
X1536290Y1251487D1*
X1537344Y1255219D1*
X1538687Y1258858D1*
X1540310Y1262381D1*
X1542205Y1265765D1*
X1544360Y1268991D1*
X1546761Y1272037D1*
X1549395Y1274885D1*
X1552243Y1277519D1*
X1555289Y1279920D1*
X1558515Y1282075D1*
X1561899Y1283970D1*
X1565421Y1285593D1*
X1569061Y1286936D1*
X1572793Y1287990D1*
X1576597Y1288746D1*
X1580450Y1289202D1*
X1584326Y1289355D1*
X1588201Y1289202D1*
X1592054Y1288746D1*
X1596806Y1287722D1*
X1597256Y1293470D1*
X1598626Y1299177D1*
X1600872Y1304599D1*
X1603939Y1309603D1*
X1607750Y1314066D1*
X1612213Y1317877D1*
X1617217Y1320944D1*
X1622638Y1323189D1*
X1628345Y1324559D1*
X1634196Y1325020D1*
X1640046Y1324559D1*
X1645753Y1323189D1*
X1651175Y1320944D1*
X1656179Y1317877D1*
X1660642Y1314066D1*
X1664453Y1309603D1*
X1667520Y1304599D1*
X1669765Y1299177D1*
X1671135Y1293470D1*
X1671393Y1291294D1*
X1680526Y1282160D1*
X1682990Y1286702D1*
Y1335810D1*
X1773160D1*
X1773166Y1334504D1*
X1789376D1*
X1787941Y1338058D1*
X1786882Y1342467D1*
X1786526Y1346988D1*
Y1355601D1*
X1718562Y1355584D1*
X1714041Y1355940D1*
X1709631Y1356999D1*
X1705441Y1358734D1*
X1701575Y1361104D1*
X1698126Y1364049D1*
X1659089Y1403211D1*
X1656424Y1406881D1*
X1655313Y1408868D1*
X1653868Y1410798D1*
X1618264D1*
Y1520654D1*
X1695120D1*
X1704727Y1530259D1*
X1704723Y1575285D1*
X1542688Y1575280D1*
X1542702Y1520651D1*
X1617883Y1520654D1*
Y1410798D1*
X1492280D1*
X1492219Y1487717D1*
X1485356Y1494580D1*
X1452532Y1494571D1*
Y1655608D1*
X1492278D1*
X1492280Y1699853D1*
X1484732Y1696855D1*
X1480017Y1695525D1*
X1475211Y1694570D1*
X1470347Y1693994D1*
X1465450Y1693801D1*
X1460554Y1693994D1*
X1455689Y1694570D1*
X1450883Y1695525D1*
X1446168Y1696855D1*
X1441571Y1698551D1*
X1437121Y1700603D1*
X1432847Y1702996D1*
X1428773Y1705718D1*
X1424925Y1708752D1*
X1421327Y1712078D1*
X1418002Y1715676D1*
X1414967Y1719524D1*
X1412246Y1723597D1*
X1409852Y1727872D1*
X1407801Y1732322D1*
X1406104Y1736919D1*
X1404774Y1741634D1*
X1403819Y1746440D1*
X1403243Y1751305D1*
X1403050Y1756201D1*
X1403243Y1761097D1*
X1403819Y1765962D1*
X1404774Y1770768D1*
X1406104Y1775483D1*
X1407801Y1780080D1*
X1409852Y1784530D1*
X1412246Y1788805D1*
X1414967Y1792878D1*
X1418002Y1796726D1*
X1421327Y1800324D1*
X1424925Y1803650D1*
X1428773Y1806684D1*
X1432847Y1809406D1*
X1436537Y1811473D1*
X1436639Y1817718D1*
X1437349Y1822197D1*
X1438750Y1826509D1*
X1440809Y1830550D1*
X1443474Y1834219D1*
X1455621Y1846492D1*
X1517369Y1908240D1*
X1517268Y1916765D1*
X1482009Y1952024D1*
X1475211Y1950570D1*
X1470347Y1949994D1*
X1465450Y1949801D1*
X1460554Y1949994D1*
X1455689Y1950570D1*
X1450883Y1951525D1*
X1446168Y1952855D1*
X1441571Y1954551D1*
X1437121Y1956603D1*
X1432847Y1958996D1*
X1428773Y1961718D1*
X1424925Y1964752D1*
X1421327Y1968078D1*
X1418002Y1971676D1*
X1414967Y1975524D1*
X1412246Y1979597D1*
X1409852Y1983872D1*
X1407801Y1988322D1*
X1406104Y1992919D1*
X1404774Y1997634D1*
X1403819Y2002440D1*
X1403243Y2007305D1*
X1403050Y2012201D1*
X1403243Y2017097D1*
X1403819Y2021962D1*
X1404774Y2026768D1*
X1406104Y2031483D1*
X1407801Y2036080D1*
X1408849Y2038357D1*
X1344118Y2038366D1*
X1346797Y2031483D1*
X1348126Y2026768D1*
X1349082Y2021962D1*
X1349658Y2017097D1*
X1349851Y2012201D1*
X1349658Y2007305D1*
X1349082Y2002440D1*
X1348126Y1997634D1*
X1346797Y1992919D1*
X1345100Y1988322D1*
X1343049Y1983872D1*
X1340655Y1979597D1*
X1337933Y1975524D1*
X1334899Y1971676D1*
X1331574Y1968078D1*
X1327975Y1964752D1*
X1324128Y1961718D1*
X1320054Y1958996D1*
X1315780Y1956603D1*
X1311330Y1954551D1*
X1306732Y1952855D1*
X1302017Y1951525D1*
X1297211Y1950570D1*
X1292347Y1949994D1*
X1287450Y1949801D1*
X1282554Y1949994D1*
X1277689Y1950570D1*
X1272883Y1951525D1*
X1268168Y1952855D1*
X1263571Y1954551D1*
X1259121Y1956603D1*
X1254847Y1958996D1*
X1250773Y1961718D1*
X1246925Y1964752D1*
X1243327Y1968078D1*
X1240002Y1971676D1*
X1236967Y1975524D1*
X1234246Y1979597D1*
X1231852Y1983872D1*
X1229801Y1988322D1*
X1228104Y1992919D1*
X1226774Y1997634D1*
X1225819Y2002440D1*
X1225243Y2007305D1*
X1225050Y2012201D1*
X1225243Y2017097D1*
X1225819Y2021962D1*
X1226774Y2026768D1*
X1228104Y2031483D1*
X1229801Y2036080D1*
X1231852Y2040530D1*
X1234246Y2044805D1*
X1236967Y2048878D1*
X1240002Y2052726D1*
X1243327Y2056324D1*
X1246925Y2059650D1*
X1250773Y2062684D1*
X1254847Y2065406D1*
X1259121Y2067799D1*
X1263571Y2069851D1*
X1268168Y2071547D1*
X1272883Y2072877D1*
X1277689Y2073832D1*
X1282554Y2074408D1*
X1287450Y2074601D1*
X1290645Y2074475D1*
X1290655Y2128537D1*
X1359269D1*
X1359253Y2188960D1*
X1453361D1*
Y2098789D1*
X1451701D1*
X1451692Y2073049D1*
X1455689Y2073832D1*
X1460554Y2074408D1*
X1465450Y2074601D1*
X1470347Y2074408D1*
X1475211Y2073832D1*
X1480017Y2072877D1*
X1484732Y2071547D1*
X1489330Y2069851D1*
X1493780Y2067799D1*
X1498054Y2065406D1*
X1502128Y2062684D1*
X1505975Y2059650D1*
X1509574Y2056324D1*
X1512899Y2052726D1*
X1515933Y2048878D1*
X1518655Y2044805D1*
X1521049Y2040530D1*
X1523100Y2036080D1*
X1524797Y2031483D1*
X1526126Y2026768D1*
X1527082Y2021962D1*
X1527658Y2017097D1*
X1527851Y2012201D1*
X1527658Y2007305D1*
X1527082Y2002440D1*
X1526126Y1997634D1*
X1524273Y1991500D1*
X1556278Y1959495D1*
X1676286Y1959505D1*
Y1865398D1*
X1607555D1*
X1607537Y1798469D1*
X1517366D1*
Y1826496D1*
X1499429Y1808558D1*
X1505975Y1803650D1*
X1509574Y1800324D1*
X1512899Y1796726D1*
X1515933Y1792878D1*
X1518655Y1788805D1*
X1521049Y1784530D1*
X1523100Y1780080D1*
X1524797Y1775483D1*
X1526126Y1770768D1*
X1527082Y1765962D1*
X1527658Y1761097D1*
X1527851Y1756201D1*
X1527658Y1751305D1*
X1527082Y1746440D1*
X1526126Y1741634D1*
X1524874Y1737194D1*
X1617883Y1737189D1*
Y1641818D1*
X1618264Y1642334D1*
Y1737189D1*
X1736252D1*
X1736269Y1783012D1*
X1811289D1*
X1811269Y1784635D1*
X1901440D1*
X1901484Y1741352D1*
X1936152D1*
X1936142Y1813918D1*
X2030250D1*
Y1753507D1*
X2032423Y1751222D1*
X2035042Y1747616D1*
X2037066Y1743646D1*
X2038442Y1739407D1*
X2039139Y1735005D1*
X2039227Y1717777D1*
Y1696117D1*
X2040666Y1696761D1*
X2041584Y1702558D1*
X2043398Y1708139D1*
X2046062Y1713369D1*
X2049511Y1718116D1*
X2053662Y1722267D1*
X2058408Y1725715D1*
X2063638Y1728379D1*
X2069219Y1730193D1*
X2075016Y1731112D1*
X2080885D1*
X2086062Y1730316D1*
X2087092Y1733137D1*
X2089756Y1738366D1*
X2093205Y1743113D1*
X2097356Y1747264D1*
X2102103Y1750713D1*
X2107332Y1753377D1*
X2112914Y1755191D1*
X2118710Y1756109D1*
X2124579D1*
X2130376Y1755191D1*
X2135957Y1753377D1*
X2141187Y1750713D1*
X2145933Y1747264D1*
X2150084Y1743113D1*
X2153533Y1738366D1*
X2156197Y1733137D1*
X2157983Y1727655D1*
X2160319Y1731309D1*
X2164130Y1735772D1*
X2168593Y1739583D1*
X2173597Y1742650D1*
X2179019Y1744895D1*
X2184726Y1746265D1*
X2190576Y1746726D1*
X2196427Y1746265D1*
X2202134Y1744895D1*
X2207129Y1742847D1*
X2207138Y1810778D1*
X2277002D1*
X2279956Y1814097D1*
X2284419Y1817908D1*
X2289423Y1820975D1*
X2294844Y1823221D1*
X2300551Y1824591D1*
X2306402Y1825051D1*
X2312252Y1824591D1*
X2317960Y1823221D1*
X2323381Y1820975D1*
X2328385Y1817908D1*
X2332848Y1814097D1*
X2336659Y1809634D1*
X2339726Y1804630D1*
X2341971Y1799209D1*
X2343341Y1793502D1*
X2343802Y1787651D1*
X2343341Y1781801D1*
X2341971Y1776093D1*
X2341070Y1773651D1*
X2344945Y1770268D1*
X2348756Y1765805D1*
X2351823Y1760801D1*
X2354068Y1755379D1*
X2355439Y1749672D1*
X2355899Y1743822D1*
X2355885Y1743466D1*
X2359341Y1743361D1*
X2365138Y1742442D1*
X2370719Y1740629D1*
X2375949Y1737965D1*
X2380696Y1734516D1*
X2384847Y1730365D1*
X2388295Y1725618D1*
X2390960Y1720389D1*
X2392773Y1714807D1*
X2393692Y1709011D1*
Y1703142D1*
X2392773Y1697345D1*
X2390960Y1691764D1*
X2388295Y1686534D1*
X2385933Y1683166D1*
X2390477Y1680339D1*
X2394940Y1676528D1*
X2398751Y1672065D1*
X2401818Y1667061D1*
X2404063Y1661639D1*
X2405433Y1655932D1*
X2405894Y1650082D1*
X2405433Y1644231D1*
X2404063Y1638524D1*
X2401818Y1633103D1*
X2398751Y1628099D1*
X2394940Y1623635D1*
X2390477Y1619824D1*
X2385473Y1616757D1*
X2380051Y1614512D1*
X2376786Y1613628D1*
X2376778Y1593755D1*
X2405992Y1593756D1*
X2465932Y1653677D1*
X2463281Y1658100D1*
X2461036Y1663521D1*
X2459666Y1669229D1*
X2459205Y1675079D1*
X2459666Y1680929D1*
X2461036Y1686637D1*
X2463281Y1692058D1*
X2466348Y1697062D1*
X2470159Y1701525D1*
X2474622Y1705336D1*
X2479626Y1708403D1*
X2485047Y1710649D1*
X2490755Y1712019D1*
X2496605Y1712479D1*
X2502456Y1712019D1*
X2508163Y1710649D1*
X2513584Y1708403D1*
X2518588Y1705336D1*
X2523051Y1701525D1*
X2526862Y1697062D1*
X2527723Y1695774D1*
X2530335Y1700870D1*
X2533784Y1705617D1*
X2537935Y1709768D1*
X2542681Y1713217D1*
X2547911Y1715881D1*
X2553492Y1717694D1*
X2559289Y1718613D1*
X2565158D1*
X2570954Y1717694D1*
X2576536Y1715881D1*
X2581765Y1713217D1*
X2586512Y1709768D1*
X2590663Y1705617D1*
X2594112Y1700870D1*
X2596776Y1695641D1*
X2598589Y1690059D1*
X2599508Y1684263D1*
Y1678394D1*
X2598589Y1672597D1*
X2596776Y1667016D1*
X2595496Y1664259D1*
X2595498Y1632676D1*
X2604411Y1632684D1*
Y1538576D1*
X2544352D1*
X2515887Y1510099D1*
X2520894Y1510012D1*
X2525373Y1509302D1*
X2529685Y1507902D1*
X2533726Y1505843D1*
X2537395Y1503177D1*
X2546063Y1494634D1*
X2575645Y1494626D1*
X2581487Y1500483D1*
X2582335Y1505557D1*
X2584149Y1511138D1*
X2586813Y1516368D1*
X2590261Y1521114D1*
X2594412Y1525265D1*
X2599159Y1528714D1*
X2604389Y1531378D1*
X2609970Y1533192D1*
X2615767Y1534110D1*
X2621635D1*
X2627432Y1533192D1*
X2633013Y1531378D1*
X2638243Y1528714D1*
X2642990Y1525265D1*
X2647141Y1521114D1*
X2650589Y1516368D1*
X2653253Y1511138D1*
X2655067Y1505557D1*
X2655986Y1499760D1*
Y1493891D1*
X2655067Y1488095D1*
X2653253Y1482513D1*
X2650589Y1477284D1*
X2647141Y1472537D1*
X2642990Y1468386D1*
X2638243Y1464937D1*
X2633013Y1462273D1*
X2627432Y1460460D1*
X2622376Y1459629D1*
X2614070Y1451324D1*
X2617389Y1450129D1*
X2622618Y1447465D1*
X2627365Y1444016D1*
X2631516Y1439865D1*
X2634965Y1435118D1*
X2637629Y1429889D1*
X2639442Y1424307D1*
X2640361Y1418511D1*
Y1412642D1*
X2639442Y1406845D1*
X2637629Y1401264D1*
X2634965Y1396034D1*
X2632603Y1392666D1*
X2707774Y1392672D1*
Y1372613D1*
X2790837Y1372601D1*
X2789450Y1378857D1*
X2788942Y1383141D1*
X2788773Y1387450D1*
X2788942Y1391760D1*
X2789450Y1396044D1*
X2790292Y1400273D1*
X2791462Y1404424D1*
X2792954Y1408470D1*
X2794760Y1412387D1*
X2796868Y1416150D1*
X2799264Y1419736D1*
X2801933Y1423124D1*
X2804861Y1426290D1*
X2808028Y1429218D1*
X2811415Y1431887D1*
X2815002Y1434284D1*
X2821013Y1437428D1*
X2815002Y1440617D1*
X2811415Y1443013D1*
X2808028Y1445683D1*
X2804861Y1448610D1*
X2801933Y1451777D1*
X2799264Y1455164D1*
X2796868Y1458751D1*
X2794760Y1462513D1*
X2792954Y1466431D1*
X2791462Y1470477D1*
X2790292Y1474628D1*
X2789450Y1478857D1*
X2788942Y1483141D1*
X2788773Y1487450D1*
X2788942Y1491760D1*
X2789450Y1496044D1*
X2790292Y1500273D1*
X2791462Y1504424D1*
X2792954Y1508470D1*
X2794760Y1512387D1*
X2796868Y1516150D1*
X2799264Y1519736D1*
X2801933Y1523124D1*
X2804861Y1526290D1*
X2808028Y1529218D1*
X2811415Y1531887D1*
X2815002Y1534284D1*
X2821013Y1537428D1*
X2815002Y1540617D1*
X2811415Y1543013D1*
X2808028Y1545683D1*
X2804861Y1548610D1*
X2801933Y1551777D1*
X2799264Y1555164D1*
X2796868Y1558751D1*
X2794760Y1562513D1*
X2792954Y1566431D1*
X2791462Y1570477D1*
X2790292Y1574628D1*
X2789450Y1578857D1*
X2788942Y1583141D1*
X2788773Y1587450D1*
X2788942Y1591760D1*
X2789450Y1596044D1*
X2790292Y1600273D1*
X2791462Y1604424D1*
X2792954Y1608470D1*
X2794760Y1612387D1*
X2796868Y1616150D1*
X2799264Y1619736D1*
X2801933Y1623124D1*
X2804861Y1626290D1*
X2808028Y1629218D1*
X2811415Y1631887D1*
X2815002Y1634284D1*
X2821013Y1637428D1*
X2815002Y1640617D1*
X2811415Y1643013D1*
X2808028Y1645683D1*
X2804861Y1648610D1*
X2801933Y1651777D1*
X2799264Y1655164D1*
X2796868Y1658751D1*
X2794760Y1662513D1*
X2792954Y1666431D1*
X2791462Y1670477D1*
X2790292Y1674628D1*
X2789450Y1678857D1*
X2788942Y1683141D1*
X2788773Y1687450D1*
X2788942Y1691760D1*
X2789450Y1696044D1*
X2790292Y1700273D1*
X2791462Y1704424D1*
X2792954Y1708470D1*
X2794760Y1712387D1*
X2796868Y1716150D1*
X2799264Y1719736D1*
X2801933Y1723124D1*
X2804861Y1726290D1*
X2808028Y1729218D1*
X2811415Y1731887D1*
X2815002Y1734284D1*
X2821013Y1737428D1*
X2815002Y1740617D1*
X2811415Y1743013D1*
X2808028Y1745683D1*
X2804861Y1748610D1*
X2801933Y1751777D1*
X2799264Y1755164D1*
X2796868Y1758751D1*
X2794760Y1762513D1*
X2792954Y1766431D1*
X2791462Y1770477D1*
X2790292Y1774628D1*
X2789450Y1778857D1*
X2788942Y1783141D1*
X2788773Y1787450D1*
X2788942Y1791760D1*
X2789450Y1796044D1*
X2790292Y1800273D1*
X2791462Y1804424D1*
X2792954Y1808470D1*
X2794760Y1812387D1*
X2796868Y1816150D1*
X2799264Y1819736D1*
X2801933Y1823124D1*
X2804861Y1826290D1*
X2808028Y1829218D1*
X2811415Y1831887D1*
X2815002Y1834284D1*
X2821013Y1837428D1*
X2815002Y1840617D1*
X2811415Y1843013D1*
X2808028Y1845683D1*
X2804861Y1848610D1*
X2801933Y1851777D1*
X2799264Y1855164D1*
X2796868Y1858751D1*
X2794760Y1862513D1*
X2792954Y1866431D1*
X2791462Y1870477D1*
X2790292Y1874628D1*
X2789450Y1878857D1*
X2788942Y1883141D1*
X2788773Y1887450D1*
X2788942Y1891760D1*
X2789450Y1896044D1*
X2790292Y1900273D1*
X2791462Y1904424D1*
X2792954Y1908470D1*
X2794760Y1912387D1*
X2796868Y1916150D1*
X2799264Y1919736D1*
X2801933Y1923124D1*
X2804861Y1926290D1*
X2808028Y1929218D1*
X2811415Y1931887D1*
X2815002Y1934284D1*
X2821013Y1937428D1*
X2815002Y1940617D1*
X2811415Y1943013D1*
X2808028Y1945683D1*
X2804861Y1948610D1*
X2801933Y1951777D1*
X2799264Y1955164D1*
X2796868Y1958751D1*
X2794760Y1962513D1*
X2792954Y1966431D1*
X2791462Y1970477D1*
X2790292Y1974628D1*
X2789450Y1978857D1*
X2788942Y1983141D1*
X2788773Y1987450D1*
X2788942Y1991760D1*
X2789450Y1996044D1*
X2790292Y2000273D1*
X2791462Y2004424D1*
X2792954Y2008470D1*
X2794760Y2012387D1*
X2796868Y2016150D1*
X2799264Y2019736D1*
X2801933Y2023124D1*
X2804861Y2026290D1*
X2808028Y2029218D1*
X2811415Y2031887D1*
X2815002Y2034284D1*
X2821013Y2037428D1*
X2815002Y2040617D1*
X2811415Y2043013D1*
X2808028Y2045683D1*
X2804861Y2048610D1*
X2801933Y2051777D1*
X2799264Y2055164D1*
X2797008Y2058541D1*
X2764893Y2058550D1*
X2699671Y1993335D1*
X2698818Y1988256D1*
X2697004Y1982675D1*
X2694340Y1977445D1*
X2690891Y1972698D1*
X2686740Y1968547D1*
X2681994Y1965099D1*
X2676764Y1962435D1*
X2671183Y1960621D1*
X2665386Y1959702D1*
X2659517D1*
X2654790Y1960408D1*
X2654797Y1951902D1*
X2560689D1*
Y2029851D1*
X2560453Y2029866D1*
X2560452Y2191910D1*
X2654559D1*
Y2183374D1*
X2658774Y2184021D1*
X2784306Y2309427D1*
X2787975Y2312092D1*
X2792016Y2314151D1*
X2796337Y2315554D1*
X2799264Y2319736D1*
X2801933Y2323124D1*
X2804861Y2326290D1*
X2808028Y2329218D1*
X2811415Y2331887D1*
X2815002Y2334284D1*
X2821013Y2337428D1*
X2815002Y2340617D1*
X2811415Y2343013D1*
X2808028Y2345683D1*
X2804861Y2348610D1*
X2801933Y2351777D1*
X2799264Y2355164D1*
X2796868Y2358751D1*
X2794760Y2362513D1*
X2792954Y2366431D1*
X2791462Y2370477D1*
X2790292Y2374628D1*
X2789450Y2378857D1*
X2788942Y2383141D1*
X2788773Y2387450D1*
X2788942Y2391760D1*
X2789450Y2396044D1*
X2790292Y2400273D1*
X2791462Y2404424D1*
X2792954Y2408470D1*
X2794760Y2412387D1*
X2796868Y2416150D1*
X2799264Y2419736D1*
X2801933Y2423124D1*
X2804861Y2426290D1*
X2808028Y2429218D1*
X2811415Y2431887D1*
X2815002Y2434284D1*
X2821013Y2437428D1*
X2815002Y2440617D1*
X2811415Y2443013D1*
X2808028Y2445683D1*
X2804861Y2448610D1*
X2801933Y2451777D1*
X2799264Y2455164D1*
X2796868Y2458751D1*
X2794760Y2462513D1*
X2792954Y2466431D1*
X2791462Y2470477D1*
X2790292Y2474628D1*
X2789450Y2478857D1*
X2788942Y2483141D1*
X2788773Y2487450D1*
X2788942Y2491760D1*
X2789450Y2496044D1*
X2790292Y2500273D1*
X2791462Y2504424D1*
X2792954Y2508470D1*
X2794760Y2512387D1*
X2796868Y2516150D1*
X2799264Y2519736D1*
X2801933Y2523124D1*
X2804861Y2526290D1*
X2808028Y2529218D1*
X2811415Y2531887D1*
X2815002Y2534284D1*
X2821013Y2537428D1*
X2815002Y2540617D1*
X2811415Y2543013D1*
X2808028Y2545683D1*
X2804861Y2548610D1*
X2801933Y2551777D1*
X2799264Y2555164D1*
X2796868Y2558751D1*
X2794760Y2562513D1*
X2792954Y2566431D1*
X2791462Y2570477D1*
X2790292Y2574628D1*
X2789450Y2578857D1*
X2788942Y2583141D1*
X2788773Y2587450D1*
X2788942Y2591760D1*
X2789450Y2596044D1*
X2790292Y2600273D1*
X2791462Y2604424D1*
X2792954Y2608470D1*
X2794760Y2612387D1*
X2796868Y2616150D1*
X2799264Y2619736D1*
X2801933Y2623124D1*
X2804861Y2626290D1*
X2808028Y2629218D1*
X2811415Y2631887D1*
X2815002Y2634284D1*
X2818764Y2636391D1*
X2822681Y2638197D1*
X2826727Y2639689D1*
X2830878Y2640860D1*
X2835108Y2641701D1*
X2839391Y2642209D1*
X2843701Y2642378D1*
X2848011Y2642209D1*
X2852294Y2641701D1*
X2856524Y2640860D1*
X2860675Y2639689D1*
X2864721Y2638197D1*
X2868638Y2636391D1*
X2872400Y2634284D1*
X2875987Y2631887D1*
X2879374Y2629218D1*
X2882541Y2626290D1*
X2885469Y2623124D1*
X2888138Y2619736D1*
X2890534Y2616150D1*
X2893679Y2610138D1*
X2896868Y2616150D1*
X2899264Y2619736D1*
X2901933Y2623124D1*
X2904861Y2626290D1*
X2909629Y2630479D1*
X2855638Y2684610D1*
X2852568Y2688835D1*
X2850198Y2693487D1*
X2848586Y2698453D1*
X2847768Y2703610D1*
X2847666Y2716221D1*
Y2820537D1*
X2832788Y2835428D1*
X2643971Y2835429D1*
X2644983Y2830439D1*
X2645491Y2826143D1*
X2645662Y2821822D1*
X2645491Y2817500D1*
X2644983Y2813205D1*
X2644139Y2808962D1*
X2642965Y2804799D1*
X2641469Y2800742D1*
X2639658Y2796814D1*
X2637544Y2793040D1*
X2635141Y2789444D1*
X2632463Y2786047D1*
X2629528Y2782870D1*
X2626351Y2779935D1*
X2622435Y2776910D1*
X2645662Y2776907D1*
Y2666736D1*
X2535491D1*
Y2689920D1*
X2532463Y2686047D1*
X2529528Y2682870D1*
X2526351Y2679935D1*
X2522954Y2677257D1*
X2519358Y2674855D1*
X2515584Y2672740D1*
X2511656Y2670929D1*
X2507599Y2669433D1*
X2503436Y2668259D1*
X2499193Y2667415D1*
X2494898Y2666907D1*
X2490576Y2666736D1*
X2486255Y2666907D1*
X2481960Y2667415D1*
X2477717Y2668259D1*
X2473554Y2669433D1*
X2469496Y2670929D1*
X2465568Y2672740D1*
X2461794Y2674855D1*
X2458198Y2677257D1*
X2454802Y2679935D1*
X2451625Y2682870D1*
X2448689Y2686047D1*
X2446012Y2689444D1*
X2443609Y2693040D1*
X2440597Y2698763D1*
X2437544Y2693040D1*
X2435141Y2689444D1*
X2432463Y2686047D1*
X2429528Y2682870D1*
X2426351Y2679935D1*
X2422954Y2677257D1*
X2419358Y2674855D1*
X2415584Y2672740D1*
X2411656Y2670929D1*
X2407599Y2669433D1*
X2403436Y2668259D1*
X2399193Y2667415D1*
X2394898Y2666907D1*
X2390576Y2666736D1*
X2386255Y2666907D1*
X2381960Y2667415D1*
X2377717Y2668259D1*
X2373554Y2669433D1*
X2369496Y2670929D1*
X2365568Y2672740D1*
X2361794Y2674855D1*
X2358198Y2677257D1*
X2354802Y2679935D1*
X2351625Y2682870D1*
X2348689Y2686047D1*
X2345664Y2689963D1*
X2345662Y2666736D1*
X2235491D1*
Y2776907D1*
X2345662D1*
Y2753723D1*
X2348689Y2757596D1*
X2351625Y2760773D1*
X2354802Y2763709D1*
X2358198Y2766386D1*
X2361794Y2768789D1*
X2367517Y2771801D1*
X2361794Y2774855D1*
X2358198Y2777257D1*
X2354802Y2779935D1*
X2351625Y2782870D1*
X2348689Y2786047D1*
X2346012Y2789444D1*
X2343609Y2793040D1*
X2341495Y2796814D1*
X2339684Y2800742D1*
X2338188Y2804799D1*
X2337013Y2808962D1*
X2336170Y2813205D1*
X2335662Y2817500D1*
X2335491Y2821822D1*
X2335662Y2826143D1*
X2336170Y2830439D1*
X2337229Y2835445D1*
X2188815Y2835429D1*
X2188818Y2744679D1*
X2193622Y2741719D1*
X2198086Y2737907D1*
X2201897Y2733445D1*
X2204963Y2728441D1*
X2207209Y2723019D1*
X2208579Y2717313D1*
X2209040Y2711462D1*
X2208579Y2705612D1*
X2207209Y2699904D1*
X2204963Y2694483D1*
X2201897Y2689479D1*
X2198086Y2685016D1*
X2193622Y2681205D1*
X2188618Y2678138D1*
X2183197Y2675893D1*
X2177490Y2674523D1*
X2173256Y2674125D1*
X2173267Y2661456D1*
X2107622D1*
X2107629Y2491394D1*
X2108334Y2491889D1*
X2109429Y2496454D1*
X2111227Y2500792D1*
X2113680Y2504795D1*
X2116729Y2508365D1*
X2120299Y2511415D1*
X2124303Y2513868D1*
X2128641Y2515664D1*
X2133206Y2516761D1*
X2137887Y2517129D1*
X2155431Y2517037D1*
X2160078Y2516301D1*
X2160925Y2518562D1*
Y2629599D1*
X2251096D1*
Y2468562D1*
X2234904D1*
X2234911Y2442711D1*
X2237482Y2442032D1*
X2241164Y2440505D1*
X2244563Y2438423D1*
X2247593Y2435835D1*
X2250181Y2432805D1*
X2252264Y2429406D1*
X2253790Y2425723D1*
X2254721Y2421848D1*
X2255033Y2417866D1*
X2254954Y2384385D1*
X2254331Y2380449D1*
X2253100Y2376658D1*
X2251290Y2373107D1*
X2248948Y2369882D1*
X2246129Y2367063D1*
X2242904Y2364721D1*
X2239353Y2362911D1*
X2235562Y2361680D1*
X2231626Y2361057D1*
X2214633Y2360978D1*
X2180395Y2361057D1*
X2176460Y2361680D1*
X2174532Y2362223D1*
X2173267Y2361155D1*
Y2308110D1*
X2108715D1*
X2108700Y2270512D1*
X1998844D1*
Y2366588D1*
X2076794D1*
X2076797Y2406155D1*
X2107949D1*
X2107965Y2433595D1*
X2047509Y2433685D1*
X2043030Y2434395D1*
X2040839Y2435013D1*
X2032708Y2435168D1*
X1713067Y2435260D1*
X1708429Y2435995D1*
X1703963Y2437445D1*
X1699781Y2439578D1*
X1695982Y2442336D1*
X1692662Y2445656D1*
X1689902Y2449456D1*
X1687771Y2453639D1*
X1686319Y2458104D1*
X1685586Y2462742D1*
X1685492Y2475089D1*
X1685586Y2786066D1*
X1686319Y2790702D1*
X1687771Y2795168D1*
X1689902Y2799352D1*
X1692662Y2803150D1*
X1695982Y2806470D1*
X1699781Y2809230D1*
X1701839Y2810382D1*
X1703962Y2816089D1*
Y2835445D1*
X1626236Y2835429D1*
X1626219Y2721496D1*
X1547843Y2721508D1*
Y2613058D1*
X1481963D1*
X1481977Y2567431D1*
X1484965Y2563243D1*
X1487629Y2558013D1*
X1489442Y2552432D1*
X1490361Y2546635D1*
Y2540767D1*
X1489442Y2534970D1*
X1487629Y2529389D1*
X1484965Y2524159D1*
X1481516Y2519412D1*
X1477365Y2515261D1*
X1472618Y2511813D1*
X1467389Y2509149D1*
X1461807Y2507335D1*
X1456011Y2506416D1*
X1450142D1*
X1444345Y2507335D1*
X1438764Y2509149D1*
X1433534Y2511813D1*
X1428788Y2515261D1*
X1424637Y2519412D1*
X1421188Y2524159D1*
X1418524Y2529389D1*
X1416710Y2534970D1*
X1415792Y2540767D1*
Y2546635D1*
X1416710Y2552432D1*
X1418524Y2558013D1*
X1421188Y2563243D1*
X1424176Y2567404D1*
Y2613057D1*
X1339562Y2613058D1*
Y2766398D1*
X1314288Y2791683D1*
X1232893Y2791684D1*
X1232882Y2613058D1*
X1024601D1*
Y2791671D1*
X954299Y2791684D1*
X917933Y2755316D1*
X917921Y2613058D1*
X721418D1*
X732448Y2602011D1*
X827562Y2601907D1*
X832719Y2601089D1*
X837685Y2599477D1*
X842337Y2597107D1*
X846562Y2594037D1*
X850253Y2590345D1*
X853323Y2586121D1*
X855693Y2581469D1*
X857306Y2576503D1*
X858124Y2571345D1*
X858226Y2560474D1*
X859936Y2556420D1*
X860866Y2552545D1*
X861179Y2548571D1*
X861100Y2499334D1*
X860477Y2495398D1*
X859246Y2491607D1*
X857436Y2488055D1*
X855093Y2484831D1*
X852274Y2482012D1*
X849050Y2479670D1*
X845499Y2477860D1*
X841708Y2476629D1*
X837772Y2476005D1*
X820778Y2475927D1*
X812131Y2476005D1*
X808196Y2476629D1*
X806226Y2477170D1*
X802351Y2476239D1*
X798369Y2475927D1*
X774730Y2476005D1*
X770794Y2476629D1*
X768824Y2477170D1*
X764949Y2476239D1*
X760967Y2475927D1*
X737328Y2476005D1*
X733393Y2476629D1*
X729601Y2477860D1*
X726050Y2479670D1*
X722826Y2482012D1*
X721356Y2483372D1*
X718667Y2484465D1*
X713215Y2484878D1*
X713225Y2431534D1*
X709298D1*
X709288Y2415445D1*
X713931Y2415507D1*
X714000Y2448194D1*
X714624Y2452130D1*
X715855Y2455921D1*
X717664Y2459473D1*
X720007Y2462697D1*
X722826Y2465516D1*
X726050Y2467858D1*
X729601Y2469668D1*
X733393Y2470899D1*
X737328Y2471523D1*
X754322Y2471601D1*
X762969Y2471523D1*
X766904Y2470899D1*
X770696Y2469668D1*
X774247Y2467858D1*
X777471Y2465516D1*
X780290Y2462697D1*
X782633Y2459473D1*
X784442Y2455921D1*
X785673Y2452130D1*
X786297Y2448194D1*
X786376Y2431201D1*
Y2400421D1*
X791219Y2401942D1*
X797016Y2402861D1*
X802885D1*
X808681Y2401942D1*
X814263Y2400129D1*
X819492Y2397465D1*
X820054Y2397089D1*
X825549Y2398873D1*
X831345Y2399792D1*
X837214D1*
X843011Y2398873D1*
X848592Y2397059D1*
X853822Y2394395D1*
X858568Y2390946D1*
X862719Y2386795D1*
X866168Y2382049D1*
X868299Y2377975D1*
X871635Y2377861D1*
X877432Y2376942D1*
X883013Y2375129D1*
X888243Y2372465D1*
X892990Y2369016D1*
X897141Y2364865D1*
X900589Y2360118D1*
X902260Y2357045D1*
X909801Y2357036D1*
X923805Y2371041D1*
Y2420998D1*
X1017912D1*
Y2330827D1*
X965315D1*
X940540Y2306159D1*
X936870Y2303494D1*
X932830Y2301435D1*
X930693Y2300647D1*
X930617Y2289563D1*
X934554Y2289550D1*
Y2285624D1*
X951965Y2285516D1*
X956816Y2284748D1*
X961488Y2283230D1*
X965865Y2281000D1*
X969839Y2278112D1*
X973313Y2274638D1*
X976201Y2270664D1*
X978431Y2266288D1*
X979949Y2261616D1*
X980717Y2256764D1*
Y2251851D1*
X979949Y2246999D1*
X979251Y2244553D1*
X1004328Y2244654D1*
Y2291635D1*
X1382906D1*
Y2189654D1*
X1079242D1*
X1187471Y2081307D1*
X1190137Y2077638D1*
X1192196Y2073597D1*
X1193596Y2069285D1*
X1194306Y2064806D1*
X1194395Y2048261D1*
X1213860Y2048255D1*
Y1958084D1*
X1153176D1*
X1153180Y1876843D1*
X1059072D1*
Y1958074D1*
X1012566Y1958084D1*
X1012570Y1879533D1*
X1040692Y1879523D1*
Y1793214D1*
X1044822Y1795100D1*
X1049419Y1796797D1*
X1054134Y1798126D1*
X1058940Y1799082D1*
X1063805Y1799658D1*
X1068701Y1799851D1*
X1073597Y1799658D1*
X1078462Y1799082D1*
X1083268Y1798126D1*
X1087983Y1796797D1*
X1092580Y1795100D1*
X1097030Y1793049D1*
X1101305Y1790655D1*
X1105378Y1787933D1*
X1109226Y1784899D1*
X1112824Y1781574D1*
X1116150Y1777975D1*
X1119184Y1774128D1*
X1122364Y1769236D1*
X1124578Y1771574D1*
X1128176Y1774899D1*
X1132024Y1777933D1*
X1136097Y1780655D1*
X1140372Y1783049D1*
X1144822Y1785100D1*
X1149419Y1786797D1*
X1154134Y1788126D1*
X1158940Y1789082D1*
X1163805Y1789658D1*
X1168701Y1789851D1*
X1173597Y1789658D1*
X1178462Y1789082D1*
X1183268Y1788126D1*
X1187983Y1786797D1*
X1192580Y1785100D1*
X1197030Y1783049D1*
X1201305Y1780655D1*
X1205378Y1777933D1*
X1209226Y1774899D1*
X1212824Y1771574D1*
X1216150Y1767975D1*
X1219184Y1764128D1*
X1221906Y1760054D1*
X1225093Y1754059D1*
X1225243Y1761097D1*
X1225819Y1765962D1*
X1226774Y1770768D1*
X1228104Y1775483D1*
X1229801Y1780080D1*
X1231852Y1784530D1*
X1234246Y1788805D1*
X1236967Y1792878D1*
X1240002Y1796726D1*
X1243327Y1800324D1*
X1246925Y1803650D1*
X1250773Y1806684D1*
X1254847Y1809406D1*
X1259121Y1811799D1*
X1263571Y1813851D1*
X1268168Y1815547D1*
X1272883Y1816877D1*
X1277689Y1817832D1*
X1282554Y1818408D1*
X1287450Y1818601D1*
X1292347Y1818408D1*
X1297211Y1817832D1*
X1302017Y1816877D1*
X1306732Y1815547D1*
X1311330Y1813851D1*
X1315780Y1811799D1*
X1320054Y1809406D1*
X1324128Y1806684D1*
X1327975Y1803650D1*
X1331574Y1800324D1*
X1334899Y1796726D1*
X1337933Y1792878D1*
X1340655Y1788805D1*
X1343049Y1784530D1*
X1345100Y1780080D1*
X1346797Y1775483D1*
X1348126Y1770768D1*
X1349082Y1765962D1*
X1349658Y1761097D1*
X1349774Y1758133D1*
X1353374Y1758889D1*
X1359225Y1759349D1*
X1365075Y1758889D1*
X1370782Y1757519D1*
X1376204Y1755273D1*
X1381208Y1752206D1*
X1385671Y1748395D1*
X1389482Y1743932D1*
X1392549Y1738928D1*
X1394794Y1733507D1*
X1396164Y1727799D1*
X1396625Y1721949D1*
X1396164Y1716099D1*
X1394794Y1710391D1*
X1392549Y1704970D1*
X1389482Y1699966D1*
X1385671Y1695503D1*
X1381208Y1691692D1*
X1376204Y1688625D1*
X1370782Y1686379D1*
X1369777Y1686096D1*
X1193906Y1510217D1*
X1193895Y1448357D1*
X1195694Y1445209D1*
X1197940Y1439788D1*
X1199310Y1434080D1*
X1199771Y1428230D1*
X1199310Y1422379D1*
X1197940Y1416672D1*
X1195694Y1411251D1*
X1192628Y1406247D1*
X1188816Y1401784D1*
X1184353Y1397973D1*
X1179349Y1394906D1*
X1173928Y1392660D1*
X1168221Y1391290D1*
X1162370Y1390830D1*
X1156520Y1391290D1*
X1150813Y1392660D1*
X1145391Y1394906D1*
X1140387Y1397973D1*
X1135924Y1401784D1*
X1132113Y1406247D1*
X1129046Y1411251D1*
X1126979Y1416188D1*
X1121750Y1415827D1*
X1115899Y1416288D1*
X1110192Y1417658D1*
X1104771Y1419903D1*
X1099767Y1422970D1*
X1095303Y1426781D1*
X1091492Y1431244D1*
X1088425Y1436248D1*
X1086180Y1441670D1*
X1084810Y1447377D1*
X1084349Y1453227D1*
X1084810Y1459078D1*
X1086180Y1464785D1*
X1088425Y1470206D1*
X1091492Y1475210D1*
X1093349Y1477559D1*
X1093437Y1549196D1*
X1094134Y1553597D1*
X1095511Y1557836D1*
X1097534Y1561806D1*
X1100154Y1565412D1*
X1112274Y1577656D1*
X1231324Y1696761D1*
X1232243Y1702558D1*
X1234057Y1708139D1*
X1236721Y1713369D1*
X1239097Y1716756D1*
X1236967Y1719524D1*
X1234246Y1723597D1*
X1231058Y1729592D1*
X1230908Y1722554D1*
X1230332Y1717689D1*
X1229377Y1712883D1*
X1228047Y1708168D1*
X1226351Y1703571D1*
X1224299Y1699121D1*
X1221906Y1694847D1*
X1219184Y1690773D1*
X1216150Y1686925D1*
X1212824Y1683327D1*
X1209226Y1680002D1*
X1205378Y1676967D1*
X1201305Y1674246D1*
X1197030Y1671852D1*
X1192580Y1669801D1*
X1187983Y1668104D1*
X1183268Y1666774D1*
X1178462Y1665819D1*
X1173597Y1665243D1*
X1168701Y1665050D1*
X1163805Y1665243D1*
X1158940Y1665819D1*
X1154134Y1666774D1*
X1149419Y1668104D1*
X1144822Y1669801D1*
X1140372Y1671852D1*
X1136097Y1674246D1*
X1132024Y1676967D1*
X1128176Y1680002D1*
X1124578Y1683327D1*
X1121252Y1686925D1*
X1118218Y1690773D1*
X1115038Y1695664D1*
X1112824Y1693327D1*
X1109226Y1690002D1*
X1105378Y1686967D1*
X1101305Y1684246D1*
X1097030Y1681852D1*
X1092580Y1679801D1*
X1087983Y1678104D1*
X1083268Y1676774D1*
X1078462Y1675819D1*
X1073597Y1675243D1*
X1068701Y1675050D1*
X1063805Y1675243D1*
X1058940Y1675819D1*
X1054134Y1676774D1*
X1049419Y1678104D1*
X1044822Y1679801D1*
X1040372Y1681852D1*
X1036097Y1684246D1*
X1032024Y1686967D1*
X1028176Y1690002D1*
X1024578Y1693327D1*
X1022408Y1695673D1*
X1019184Y1690773D1*
X1016150Y1686925D1*
X1012824Y1683327D1*
X1009226Y1680002D1*
X1005378Y1676967D1*
X1001305Y1674246D1*
X997030Y1671852D1*
X992580Y1669801D1*
X987983Y1668104D1*
X983268Y1666774D1*
X978462Y1665819D1*
X973597Y1665243D1*
X968701Y1665050D1*
X963805Y1665243D1*
X958940Y1665819D1*
X954134Y1666774D1*
X949419Y1668104D1*
X944822Y1669801D1*
X940372Y1671852D1*
X936097Y1674246D1*
X932024Y1676967D1*
X928176Y1680002D1*
X924578Y1683327D1*
X921252Y1686925D1*
X918218Y1690773D1*
X915038Y1695664D1*
X912824Y1693327D1*
X909226Y1690002D1*
X905378Y1686967D1*
X901305Y1684246D1*
X897030Y1681852D1*
X892580Y1679801D1*
X887983Y1678104D1*
X883268Y1676774D1*
X878462Y1675819D1*
X873597Y1675243D1*
X868701Y1675050D1*
X863805Y1675243D1*
X858940Y1675819D1*
X854134Y1676774D1*
X849419Y1678104D1*
X844822Y1679801D1*
X840372Y1681852D1*
X836097Y1684246D1*
X832024Y1686967D1*
X828176Y1690002D1*
X824578Y1693327D1*
X822408Y1695673D1*
X819184Y1690773D1*
X816150Y1686925D1*
X812824Y1683327D1*
X809226Y1680002D1*
X805378Y1676967D1*
X801305Y1674246D1*
X797030Y1671852D1*
X792580Y1669801D1*
X787983Y1668104D1*
X783268Y1666774D1*
X778462Y1665819D1*
X773597Y1665243D1*
X768701Y1665050D1*
X763805Y1665243D1*
X758940Y1665819D1*
X754134Y1666774D1*
X749419Y1668104D1*
X744822Y1669801D1*
X740372Y1671852D1*
X736097Y1674246D1*
X732024Y1676967D1*
X728176Y1680002D1*
X724578Y1683327D1*
X721252Y1686925D1*
X718218Y1690773D1*
X715038Y1695664D1*
X712824Y1693327D1*
X709226Y1690002D1*
X705378Y1686967D1*
X701305Y1684246D1*
X697030Y1681852D1*
X692580Y1679801D1*
X687983Y1678104D1*
X683268Y1676774D1*
X678462Y1675819D1*
X673597Y1675243D1*
X668701Y1675050D1*
X663805Y1675243D1*
X658940Y1675819D1*
X654134Y1676774D1*
X649419Y1678104D1*
X644822Y1679801D1*
X640372Y1681852D1*
X636097Y1684246D1*
X632024Y1686967D1*
X628176Y1690002D1*
X624578Y1693327D1*
X622408Y1695673D1*
X619184Y1690773D1*
X616150Y1686925D1*
X612824Y1683327D1*
X609226Y1680002D1*
X605378Y1676967D1*
X601305Y1674246D1*
X597030Y1671852D1*
X592580Y1669801D1*
X587983Y1668104D1*
X583268Y1666774D1*
X578462Y1665819D1*
X573597Y1665243D1*
X568701Y1665050D1*
X563805Y1665243D1*
X558940Y1665819D1*
X554134Y1666774D1*
X549419Y1668104D1*
X544822Y1669801D1*
X540372Y1671852D1*
X536097Y1674246D1*
X532024Y1676967D1*
X528176Y1680002D1*
X524578Y1683327D1*
X521252Y1686925D1*
X518218Y1690773D1*
X515496Y1694847D1*
X513103Y1699121D1*
X511051Y1703571D1*
X509355Y1708168D1*
X508025Y1712883D1*
X507070Y1717689D1*
X506494Y1722554D1*
X506301Y1727450D1*
X506494Y1732347D1*
X507070Y1737211D1*
X508025Y1742017D1*
X509355Y1746732D1*
X511051Y1751330D1*
X513103Y1755780D1*
X515496Y1760054D1*
X518218Y1764128D1*
X521252Y1767975D1*
X524578Y1771574D1*
X528176Y1774899D1*
X533536Y1778944D1*
X533533Y1789345D1*
X437263Y1789352D1*
Y1879523D1*
X598299D1*
Y1789352D1*
X591327D1*
X592580Y1785100D1*
X597030Y1783049D1*
X601305Y1780655D1*
X605378Y1777933D1*
X609226Y1774899D1*
X612824Y1771574D1*
X614994Y1769227D1*
X618218Y1774128D1*
X621252Y1777975D1*
X624578Y1781574D1*
X628176Y1784899D1*
X632024Y1787933D1*
X634139Y1789347D1*
X631523Y1789352D1*
Y1879523D1*
X634121D1*
X634117Y1958074D1*
X630992Y1958084D1*
Y2048255D1*
X776857D1*
X775267Y2050563D1*
X773208Y2054604D1*
X771807Y2058916D1*
X771097Y2063395D1*
X771008Y2076659D1*
X769966Y2081103D1*
X769580Y2086009D1*
X769554Y2100954D1*
X745958D1*
Y2144255D1*
X731004Y2144261D1*
X726107Y2144647D1*
X721330Y2145794D1*
X718981Y2146664D1*
X712167Y2146663D1*
X711288Y2141221D1*
X709474Y2135639D1*
X706810Y2130410D1*
X703361Y2125663D1*
X699210Y2121512D1*
X694463Y2118063D1*
X689234Y2115399D1*
X683652Y2113586D1*
X677856Y2112667D1*
X671987D1*
X666191Y2113586D1*
X660609Y2115399D1*
X655379Y2118063D1*
X651218Y2121051D1*
X606191D1*
X606210Y2065496D1*
X598339D1*
X598336Y1967071D1*
X492418D1*
Y1983498D1*
X487364Y1979911D1*
X484141Y1978105D1*
X480785Y1976558D1*
X477319Y1975280D1*
X473763Y1974277D1*
X470139Y1973557D1*
X466470Y1973122D1*
X457778Y1972977D1*
X435219D1*
X431528Y1973122D1*
X427858Y1973557D1*
X423693Y1974429D1*
X423701Y570009D1*
X430484Y575723D1*
X438688Y581436D1*
X447403Y586332D1*
X456550Y590364D1*
X466042Y593495D1*
X475793Y595697D1*
X485710Y596949D1*
X495702Y597238D1*
X505676Y596563D1*
X515538Y594929D1*
X525196Y592352D1*
X534561Y588856D1*
X543545Y584473D1*
X549949Y580613D1*
X549952Y674950D1*
X702628D1*
X702642Y692141D1*
X702263Y692139D1*
Y764815D1*
X618701Y764801D1*
X614180Y765156D1*
X609771Y766215D1*
X605580Y767950D1*
X601714Y770320D1*
X598260Y773272D1*
X549284Y822373D1*
X546618Y826042D1*
X544559Y830083D1*
X543159Y834395D1*
X542449Y838874D1*
X542360Y854170D1*
X529429Y854126D1*
X524008Y851881D1*
X518301Y850511D1*
X512450Y850050D1*
X506600Y850511D1*
X500893Y851881D1*
X495471Y854126D1*
X490467Y857193D1*
X486004Y861004D1*
X482193Y865467D1*
X479126Y870471D1*
X476881Y875893D1*
X475511Y881600D1*
X475050Y887450D1*
X475511Y893301D1*
X476881Y899008D1*
X479126Y904429D1*
X482193Y909433D1*
X486004Y913897D1*
X490467Y917708D1*
X495471Y920774D1*
X500893Y923020D1*
X506600Y924390D1*
X510421Y924771D1*
X510427Y1058471D1*
X659652D1*
X769889Y1058452D1*
X786017Y1058471D1*
X786120Y1137526D1*
X786937Y1142684D1*
X788550Y1147650D1*
X790920Y1152302D1*
X793990Y1156526D1*
X802835Y1165516D1*
X840841Y1203378D1*
X845066Y1206448D1*
X849718Y1208818D1*
X854684Y1210431D1*
X859841Y1211248D1*
X872452Y1211351D1*
X949436Y1211248D1*
X954593Y1210431D1*
X959559Y1208818D1*
X964211Y1206448D1*
X968436Y1203378D1*
X977425Y1194533D1*
X997128Y1174687D1*
X1000197Y1170462D1*
X1002567Y1165810D1*
X1004180Y1160844D1*
X1004998Y1155687D1*
X1005100Y1152471D1*
X1009271Y1153047D1*
X1015139D1*
X1020936Y1152129D1*
X1026517Y1150315D1*
X1031747Y1147651D1*
X1036494Y1144202D1*
X1040645Y1140051D1*
X1044093Y1135305D1*
X1046757Y1130075D1*
X1048571Y1124494D1*
X1049230Y1120895D1*
X1054820Y1119068D1*
X1060050Y1116404D1*
X1064797Y1112956D1*
X1068948Y1108805D1*
X1072397Y1104058D1*
X1075061Y1098828D1*
X1076874Y1093247D1*
X1077793Y1087450D1*
Y1081582D1*
X1076874Y1075785D1*
X1075061Y1070204D1*
X1072397Y1064974D1*
X1068908Y1060184D1*
Y1058481D1*
X1128156Y1058452D1*
X1183274D1*
X1238393D1*
X1293511D1*
X1348629D1*
X1376188Y1058471D1*
Y928931D1*
X1348864D1*
X1348900Y904429D1*
X1351146Y899008D1*
X1352516Y893301D1*
X1352977Y887450D1*
X1352516Y881600D1*
X1351778Y878134D1*
X1355588Y875284D1*
X1359739Y871133D1*
X1363188Y866386D1*
X1365852Y861156D1*
X1367666Y855575D1*
X1368584Y849778D1*
Y843910D1*
X1367666Y838113D1*
X1365852Y832532D1*
X1364572Y829774D1*
X1364574Y790769D1*
X1445036Y790755D1*
Y786751D1*
X1499748Y786750D1*
X1502502Y790226D1*
X1505827Y793824D1*
X1509425Y797150D1*
X1513273Y800184D1*
X1517347Y802906D1*
X1521621Y805299D1*
X1526071Y807351D1*
X1530668Y809047D1*
X1535383Y810377D1*
X1540189Y811332D1*
X1545054Y811908D1*
X1549950Y812101D1*
X1554847Y811908D1*
X1559711Y811332D1*
X1564904Y810268D1*
X1564906Y863786D1*
X1567074D1*
X1567083Y920034D1*
X1636219D1*
X1634958Y925351D1*
X1634498Y931201D1*
X1634958Y937051D1*
X1636328Y942759D1*
X1638574Y948180D1*
X1641641Y953184D1*
X1645452Y957647D1*
X1649915Y961458D1*
X1654919Y964525D1*
X1660340Y966771D1*
X1666047Y968141D1*
X1671898Y968601D1*
X1677748Y968141D1*
X1683456Y966771D1*
X1688877Y964525D1*
X1693881Y961458D1*
X1698344Y957647D1*
X1702155Y953184D1*
X1705222Y948180D1*
X1707467Y942759D1*
X1708837Y937051D1*
X1709298Y931201D1*
X1708837Y925351D1*
X1707576Y920030D1*
X1728120Y920034D1*
Y829864D1*
X1659023D1*
X1659013Y773616D1*
X1607600Y773580D1*
X1609297Y768983D1*
X1610626Y764268D1*
X1611582Y759462D1*
X1612158Y754597D1*
X1612351Y749701D1*
X1612158Y744805D1*
X1611582Y739940D1*
X1610626Y735134D1*
X1609297Y730419D1*
X1607600Y725822D1*
X1605549Y721372D1*
X1603155Y717097D1*
X1600433Y713024D1*
X1597399Y709176D1*
X1594074Y705578D1*
X1590475Y702252D1*
X1586628Y699218D1*
X1582554Y696496D1*
X1578280Y694103D1*
X1573830Y692051D1*
X1569232Y690355D1*
X1564517Y689025D1*
X1559711Y688070D1*
X1554847Y687494D1*
X1549950Y687301D1*
X1545054Y687494D1*
X1540189Y688070D1*
X1535383Y689025D1*
X1530668Y690355D1*
X1525289Y692411D1*
X1509870Y676992D1*
X1509860Y625713D1*
X1493668D1*
X1493675Y609505D1*
X1509860Y609520D1*
X1509958Y558152D1*
X1519778Y548334D1*
X1526071Y551351D1*
X1530668Y553047D1*
X1535383Y554377D1*
X1540189Y555332D1*
X1545054Y555908D1*
X1549950Y556101D1*
X1554847Y555908D1*
X1559711Y555332D1*
X1564517Y554377D1*
X1569232Y553047D1*
X1573830Y551351D1*
X1578280Y549299D1*
X1582554Y546906D1*
X1586628Y544184D1*
X1590475Y541150D1*
X1594074Y537824D1*
X1597399Y534226D1*
X1600433Y530378D1*
X1603155Y526305D1*
X1605549Y522030D1*
X1607600Y517580D1*
X1609297Y512983D1*
X1610626Y508268D1*
X1611582Y503462D1*
X1612158Y498597D1*
X1612351Y493701D1*
X1612158Y488805D1*
X1611582Y483940D1*
X1610626Y479134D1*
X1609297Y474419D1*
X1607600Y469822D1*
X1605549Y465372D1*
X1603155Y461097D1*
X1600433Y457024D1*
X1597399Y453176D1*
X1594074Y449578D1*
X1590475Y446252D1*
X1586628Y443218D1*
X1582554Y440496D1*
X1578280Y438103D1*
X1573830Y436051D1*
X1569232Y434355D1*
X1564517Y433025D1*
X1559711Y432070D1*
X1554847Y431494D1*
X1549950Y431301D1*
X1545054Y431494D1*
X1540189Y432070D1*
X1535383Y433025D1*
X1530668Y434355D1*
X1526071Y436051D1*
X1521621Y438103D1*
X1517347Y440496D1*
X1513273Y443218D1*
X1509425Y446252D1*
X1507021Y448473D1*
X1419689Y448483D1*
Y609520D1*
X1435881D1*
X1435874Y625727D1*
X1419689Y625713D1*
Y629717D1*
X1354865Y629718D1*
Y692121D1*
X1311420Y692139D1*
X1311424Y635883D1*
X1217316D1*
Y636099D1*
X1155567Y636116D1*
X1155482Y692159D1*
X1121078Y692139D1*
X1121093Y636116D1*
X1031230D1*
X1031214Y609588D1*
X1054498Y609652D1*
X1060366D1*
X1075221Y609580D1*
X1094643D1*
X1094717Y575302D1*
Y569433D1*
X1094643Y559580D1*
Y423706D1*
X1115205Y423701D1*
X1112272Y426667D1*
X1109607Y430336D1*
X1107547Y434377D1*
X1106147Y438689D1*
X1105437Y443168D1*
X1105348Y460436D1*
X1105437Y577462D1*
X1106147Y581941D1*
X1107547Y586253D1*
X1109607Y590294D1*
X1112272Y593963D1*
X1124419Y606236D1*
X1133986Y615677D1*
X1137655Y618343D1*
X1141696Y620402D1*
X1146008Y621802D1*
X1150487Y622512D1*
X1167755Y622601D1*
X1189923D1*
X1189904Y628944D1*
X1311571D1*
Y595487D1*
X1345036Y595479D1*
Y513183D1*
X1331267D1*
X1331256Y460033D1*
X1307995D1*
X1306966Y457051D1*
X1304907Y453011D1*
X1302242Y449341D1*
X1294803Y441778D1*
X1293957Y436705D1*
X1292143Y431124D1*
X1289479Y425894D1*
X1288020Y423710D1*
X2917393Y423701D1*
X2913124Y428652D1*
X2907227Y436725D1*
X2902137Y445327D1*
X2897900Y454381D1*
X2894555Y463801D1*
X2892134Y473499D1*
X2890659Y483386D1*
X2890145Y493369D1*
X2890596Y503355D1*
X2892007Y513251D1*
X2894365Y522965D1*
X2897650Y532406D1*
X2901828Y541486D1*
X2906864Y550122D1*
X2912709Y558231D1*
X2919307Y565739D1*
X2926600Y572576D1*
X2934517Y578679D1*
X2942986Y583990D1*
X2951928Y588458D1*
X2961259Y592045D1*
X2970891Y594714D1*
X2980736Y596442D1*
X2990704Y597214D1*
X3000697Y597021D1*
X3010626Y595865D1*
X3020398Y593757D1*
X3029920Y590717D1*
X3039105Y586773D1*
X3047868Y581961D1*
X3056125Y576328D1*
X3063698Y570015D1*
X3063701Y2717393D1*
X3056654Y2711477D1*
X3048433Y2705790D1*
X3039701Y2700923D1*
X3030542Y2696919D1*
X3021040Y2693818D1*
X3011281Y2691647D1*
X3001360Y2690428D1*
X2991368Y2690171D1*
X2981397Y2690878D1*
X2971540Y2692544D1*
X2961890Y2695151D1*
X2952537Y2698677D1*
X2943566Y2703089D1*
X2935063Y2708345D1*
X2927108Y2714397D1*
X2919772Y2721187D1*
X2914223Y2727357D1*
X2914214Y2720016D1*
X2967230Y2666988D1*
X2970620Y2663017D1*
X2973348Y2658566D1*
X2975347Y2653742D1*
X2976566Y2648664D1*
X2976975Y2643449D1*
Y2631135D1*
X2979374Y2629218D1*
X2982541Y2626290D1*
X2985469Y2623124D1*
X2988138Y2619736D1*
X2990534Y2616150D1*
X2992642Y2612387D1*
X2994448Y2608470D1*
X2995940Y2604424D1*
X2997110Y2600273D1*
X2997952Y2596044D1*
X2998460Y2591760D1*
X2998629Y2587450D1*
X2998460Y2583141D1*
X2997952Y2578857D1*
X2997110Y2574628D1*
X2995940Y2570477D1*
X2994448Y2566431D1*
X2992642Y2562513D1*
X2990534Y2558751D1*
X2988138Y2555164D1*
X2985469Y2551777D1*
X2982541Y2548610D1*
X2979374Y2545683D1*
X2975987Y2543013D1*
X2972400Y2540617D1*
X2968638Y2538509D1*
X2964721Y2536704D1*
X2960675Y2535211D1*
X2956524Y2534041D1*
X2952294Y2533200D1*
X2948011Y2532692D1*
X2943701Y2532523D1*
X2939391Y2532692D1*
X2935108Y2533200D1*
X2930878Y2534041D1*
X2926727Y2535211D1*
X2922681Y2536704D1*
X2918764Y2538509D1*
X2915002Y2540617D1*
X2911415Y2543013D1*
X2908028Y2545683D1*
X2904861Y2548610D1*
X2901933Y2551777D1*
X2899264Y2555164D1*
X2896868Y2558751D1*
X2893723Y2564763D1*
X2890534Y2558751D1*
X2888138Y2555164D1*
X2885469Y2551777D1*
X2882541Y2548610D1*
X2879374Y2545683D1*
X2875987Y2543013D1*
X2872400Y2540617D1*
X2866389Y2537473D1*
X2872400Y2534284D1*
X2875987Y2531887D1*
X2879374Y2529218D1*
X2882541Y2526290D1*
X2885469Y2523124D1*
X2888138Y2519736D1*
X2890534Y2516150D1*
X2892642Y2512387D1*
X2894448Y2508470D1*
X2895940Y2504424D1*
X2897110Y2500273D1*
X2897952Y2496044D1*
X2898460Y2491760D1*
X2898629Y2487450D1*
X2898460Y2483141D1*
X2897952Y2478857D1*
X2897110Y2474628D1*
X2895940Y2470477D1*
X2894448Y2466431D1*
X2892642Y2462513D1*
X2890534Y2458751D1*
X2888138Y2455164D1*
X2885469Y2451777D1*
X2882541Y2448610D1*
X2879374Y2445683D1*
X2875987Y2443013D1*
X2872400Y2440617D1*
X2866389Y2437473D1*
X2872400Y2434284D1*
X2875987Y2431887D1*
X2879374Y2429218D1*
X2882541Y2426290D1*
X2885469Y2423124D1*
X2888138Y2419736D1*
X2890534Y2416150D1*
X2893679Y2410138D1*
X2896868Y2416150D1*
X2899264Y2419736D1*
X2901933Y2423124D1*
X2904861Y2426290D1*
X2908028Y2429218D1*
X2911415Y2431887D1*
X2915002Y2434284D1*
X2918764Y2436391D1*
X2922681Y2438197D1*
X2926727Y2439689D1*
X2930878Y2440860D1*
X2935108Y2441701D1*
X2939391Y2442209D1*
X2943701Y2442378D1*
X2948011Y2442209D1*
X2952294Y2441701D1*
X2956524Y2440860D1*
X2960675Y2439689D1*
X2964721Y2438197D1*
X2968638Y2436391D1*
X2972400Y2434284D1*
X2975987Y2431887D1*
X2979374Y2429218D1*
X2982541Y2426290D1*
X2985469Y2423124D1*
X2988138Y2419736D1*
X2990534Y2416150D1*
X2992642Y2412387D1*
X2994448Y2408470D1*
X2995940Y2404424D1*
X2997110Y2400273D1*
X2997952Y2396044D1*
X2998460Y2391760D1*
X2998629Y2387450D1*
X2998460Y2383141D1*
X2997952Y2378857D1*
X2997110Y2374628D1*
X2995940Y2370477D1*
X2994448Y2366431D1*
X2992642Y2362513D1*
X2990534Y2358751D1*
X2988138Y2355164D1*
X2985469Y2351777D1*
X2982541Y2348610D1*
X2979374Y2345683D1*
X2975987Y2343013D1*
X2972400Y2340617D1*
X2966389Y2337473D1*
X2972400Y2334284D1*
X2975987Y2331887D1*
X2979374Y2329218D1*
X2982541Y2326290D1*
X2985469Y2323124D1*
X2988138Y2319736D1*
X2990534Y2316150D1*
X2992642Y2312387D1*
X2994448Y2308470D1*
X2995940Y2304424D1*
X2997110Y2300273D1*
X2997952Y2296044D1*
X2998460Y2291760D1*
X2998629Y2287450D1*
X2998460Y2283141D1*
X2997952Y2278857D1*
X2997110Y2274628D1*
X2995940Y2270477D1*
X2994448Y2266431D1*
X2992642Y2262513D1*
X2990534Y2258751D1*
X2988138Y2255164D1*
X2985469Y2251777D1*
X2982541Y2248610D1*
X2979374Y2245683D1*
X2975987Y2243013D1*
X2972400Y2240617D1*
X2966389Y2237473D1*
X2972400Y2234284D1*
X2975987Y2231887D1*
X2979374Y2229218D1*
X2982541Y2226290D1*
X2985469Y2223124D1*
X2988138Y2219736D1*
X2990534Y2216150D1*
X2992642Y2212387D1*
X2994448Y2208470D1*
X2995940Y2204424D1*
X2997110Y2200273D1*
X2997952Y2196044D1*
X2998460Y2191760D1*
X2998629Y2187450D1*
X2998460Y2183141D1*
X2997952Y2178857D1*
X2997110Y2174628D1*
X2995940Y2170477D1*
X2994448Y2166431D1*
X2992642Y2162513D1*
X2990534Y2158751D1*
X2988138Y2155164D1*
X2985469Y2151777D1*
X2982541Y2148610D1*
X2979374Y2145683D1*
X2975987Y2143013D1*
X2972400Y2140617D1*
X2966389Y2137473D1*
X2972400Y2134284D1*
X2975987Y2131887D1*
X2979374Y2129218D1*
X2982541Y2126290D1*
X2985469Y2123124D1*
X2988138Y2119736D1*
X2990534Y2116150D1*
X2992642Y2112387D1*
X2994448Y2108470D1*
X2995940Y2104424D1*
X2997110Y2100273D1*
X2997952Y2096044D1*
X2998460Y2091760D1*
X2998629Y2087450D1*
X2998460Y2083141D1*
X2997952Y2078857D1*
X2997110Y2074628D1*
X2995940Y2070477D1*
X2994448Y2066431D1*
X2992642Y2062513D1*
X2990534Y2058751D1*
X2988138Y2055164D1*
X2985469Y2051777D1*
X2982541Y2048610D1*
X2979374Y2045683D1*
X2975987Y2043013D1*
X2972400Y2040617D1*
X2966389Y2037473D1*
X2972400Y2034284D1*
X2975987Y2031887D1*
X2979374Y2029218D1*
X2982541Y2026290D1*
X2985469Y2023124D1*
X2988138Y2019736D1*
X2990534Y2016150D1*
X2992642Y2012387D1*
X2994448Y2008470D1*
X2995940Y2004424D1*
X2997110Y2000273D1*
X2997952Y1996044D1*
X2998460Y1991760D1*
X2998629Y1987450D1*
X2998460Y1983141D1*
X2997952Y1978857D1*
X2997110Y1974628D1*
X2995940Y1970477D1*
X2994448Y1966431D1*
X2992642Y1962513D1*
X2990534Y1958751D1*
X2988138Y1955164D1*
X2985469Y1951777D1*
X2982541Y1948610D1*
X2979374Y1945683D1*
X2975987Y1943013D1*
X2972400Y1940617D1*
X2966389Y1937473D1*
X2972400Y1934284D1*
X2975987Y1931887D1*
X2979374Y1929218D1*
X2982541Y1926290D1*
X2985469Y1923124D1*
X2988138Y1919736D1*
X2990534Y1916150D1*
X2992642Y1912387D1*
X2994448Y1908470D1*
X2995940Y1904424D1*
X2997110Y1900273D1*
X2997952Y1896044D1*
X2998460Y1891760D1*
X2998629Y1887450D1*
X2998460Y1883141D1*
X2997952Y1878857D1*
X2997110Y1874628D1*
X2995940Y1870477D1*
X2994448Y1866431D1*
X2992642Y1862513D1*
X2990534Y1858751D1*
X2988138Y1855164D1*
X2985469Y1851777D1*
X2982541Y1848610D1*
X2979374Y1845683D1*
X2975987Y1843013D1*
X2972400Y1840617D1*
X2966389Y1837473D1*
X2972400Y1834284D1*
X2975987Y1831887D1*
X2979374Y1829218D1*
X2982541Y1826290D1*
X2985469Y1823124D1*
X2988138Y1819736D1*
X2990534Y1816150D1*
X2992642Y1812387D1*
X2994448Y1808470D1*
X2995940Y1804424D1*
X2997110Y1800273D1*
X2997952Y1796044D1*
X2998460Y1791760D1*
X2998629Y1787450D1*
X2998460Y1783141D1*
X2997952Y1778857D1*
X2997110Y1774628D1*
X2995940Y1770477D1*
X2994448Y1766431D1*
X2992642Y1762513D1*
X2990534Y1758751D1*
X2988138Y1755164D1*
X2985469Y1751777D1*
X2982541Y1748610D1*
X2979374Y1745683D1*
X2975987Y1743013D1*
X2972400Y1740617D1*
X2966389Y1737473D1*
X2972400Y1734284D1*
X2975987Y1731887D1*
X2979374Y1729218D1*
X2982541Y1726290D1*
X2985469Y1723124D1*
X2988138Y1719736D1*
X2990534Y1716150D1*
X2992642Y1712387D1*
X2994448Y1708470D1*
X2995940Y1704424D1*
X2997110Y1700273D1*
X2997952Y1696044D1*
X2998460Y1691760D1*
X2998629Y1687450D1*
X2998460Y1683141D1*
X2997952Y1678857D1*
X2997110Y1674628D1*
X2995940Y1670477D1*
X2994448Y1666431D1*
X2992642Y1662513D1*
X2990534Y1658751D1*
X2988138Y1655164D1*
X2985469Y1651777D1*
X2982541Y1648610D1*
X2979374Y1645683D1*
X2975987Y1643013D1*
X2972400Y1640617D1*
X2966389Y1637473D1*
X2972400Y1634284D1*
X2975987Y1631887D1*
X2979374Y1629218D1*
X2982541Y1626290D1*
X2985469Y1623124D1*
X2988138Y1619736D1*
X2990534Y1616150D1*
X2992642Y1612387D1*
X2994448Y1608470D1*
X2995940Y1604424D1*
X2997110Y1600273D1*
X2997952Y1596044D1*
X2998460Y1591760D1*
X2998629Y1587450D1*
X2998460Y1583141D1*
X2997952Y1578857D1*
X2997110Y1574628D1*
X2995940Y1570477D1*
X2994448Y1566431D1*
X2992642Y1562513D1*
X2990534Y1558751D1*
X2988138Y1555164D1*
X2985469Y1551777D1*
X2982541Y1548610D1*
X2979374Y1545683D1*
X2975987Y1543013D1*
X2972400Y1540617D1*
X2966389Y1537473D1*
X2972400Y1534284D1*
X2975987Y1531887D1*
X2979374Y1529218D1*
X2982541Y1526290D1*
X2985469Y1523124D1*
X2988138Y1519736D1*
X2990534Y1516150D1*
X2992642Y1512387D1*
X2994448Y1508470D1*
X2995940Y1504424D1*
X2997110Y1500273D1*
X2997952Y1496044D1*
X2998460Y1491760D1*
X2998629Y1487450D1*
X2998460Y1483141D1*
X2997952Y1478857D1*
X2997110Y1474628D1*
X2995940Y1470477D1*
X2994448Y1466431D1*
X2992642Y1462513D1*
X2990534Y1458751D1*
X2988138Y1455164D1*
X2985469Y1451777D1*
X2982541Y1448610D1*
X2979374Y1445683D1*
X2975987Y1443013D1*
X2972400Y1440617D1*
X2966389Y1437473D1*
X2972400Y1434284D1*
X2975987Y1431887D1*
X2979374Y1429218D1*
X2982541Y1426290D1*
X2985469Y1423124D1*
X2988138Y1419736D1*
X2990534Y1416150D1*
X2992642Y1412387D1*
X2994448Y1408470D1*
X2995940Y1404424D1*
X2997110Y1400273D1*
X2997952Y1396044D1*
X2998460Y1391760D1*
X2998629Y1387450D1*
X2998460Y1383141D1*
X2997952Y1378857D1*
X2997110Y1374628D1*
X2995940Y1370477D1*
X2994448Y1366431D1*
X2992642Y1362513D1*
X2990534Y1358751D1*
X2988138Y1355164D1*
X2985469Y1351777D1*
X2982541Y1348610D1*
X2979374Y1345683D1*
X2975987Y1343013D1*
X2972400Y1340617D1*
X2966389Y1337473D1*
X2972400Y1334284D1*
X2975987Y1331887D1*
X2979374Y1329218D1*
X2982541Y1326290D1*
X2985469Y1323124D1*
X2988138Y1319736D1*
X2990534Y1316150D1*
X2992642Y1312387D1*
X2994448Y1308470D1*
X2995940Y1304424D1*
X2997110Y1300273D1*
X2997952Y1296044D1*
X2998460Y1291760D1*
X2998629Y1287450D1*
X2998460Y1283141D1*
X2997952Y1278857D1*
X2997110Y1274628D1*
X2995940Y1270477D1*
X2994448Y1266431D1*
X2992642Y1262513D1*
X2990534Y1258751D1*
X2988138Y1255164D1*
X2985469Y1251777D1*
X2982541Y1248610D1*
X2979374Y1245683D1*
X2975987Y1243013D1*
X2972400Y1240617D1*
X2966389Y1237473D1*
X2972400Y1234284D1*
X2975987Y1231887D1*
X2979374Y1229218D1*
X2982541Y1226290D1*
X2985469Y1223124D1*
X2988138Y1219736D1*
X2990534Y1216150D1*
X2992642Y1212387D1*
X2994448Y1208470D1*
X2995940Y1204424D1*
X2997110Y1200273D1*
X2997952Y1196044D1*
X2998460Y1191760D1*
X2998629Y1187450D1*
X2998460Y1183141D1*
X2997952Y1178857D1*
X2997110Y1174628D1*
X2995940Y1170477D1*
X2994448Y1166431D1*
X2992642Y1162513D1*
X2990534Y1158751D1*
X2988138Y1155164D1*
X2985469Y1151777D1*
X2982541Y1148610D1*
X2979374Y1145683D1*
X2975987Y1143013D1*
X2972400Y1140617D1*
X2966389Y1137473D1*
X2972400Y1134284D1*
X2975987Y1131887D1*
X2979374Y1129218D1*
X2982541Y1126290D1*
X2985469Y1123124D1*
X2988138Y1119736D1*
X2990534Y1116150D1*
X2992642Y1112387D1*
X2994448Y1108470D1*
X2995940Y1104424D1*
X2997110Y1100273D1*
X2997952Y1096044D1*
X2998460Y1091760D1*
X2998629Y1087450D1*
X2998460Y1083141D1*
X2997952Y1078857D1*
X2997110Y1074628D1*
X2995940Y1070477D1*
X2994448Y1066431D1*
X2992642Y1062513D1*
X2990534Y1058751D1*
X2988138Y1055164D1*
X2985469Y1051777D1*
X2982541Y1048610D1*
X2979374Y1045683D1*
X2975987Y1043013D1*
X2972400Y1040617D1*
X2966389Y1037473D1*
X2972400Y1034284D1*
X2975987Y1031887D1*
X2979374Y1029218D1*
X2982541Y1026290D1*
X2985469Y1023124D1*
X2988138Y1019736D1*
X2990534Y1016150D1*
X2992642Y1012387D1*
X2994448Y1008470D1*
X2995940Y1004424D1*
X2997110Y1000273D1*
X2997952Y996044D1*
X2998460Y991760D1*
X2998629Y987450D1*
X2998460Y983141D1*
X2997952Y978857D1*
X2997110Y974628D1*
X2995940Y970477D1*
X2994448Y966431D1*
X2992642Y962513D1*
X2990534Y958751D1*
X2988138Y955164D1*
X2985469Y951777D1*
X2982541Y948610D1*
X2979374Y945683D1*
X2975987Y943013D1*
X2972400Y940617D1*
X2966389Y937473D1*
X2972400Y934284D1*
X2975987Y931887D1*
X2979374Y929218D1*
X2982541Y926290D1*
X2985469Y923124D1*
X2988138Y919736D1*
X2990534Y916150D1*
X2992642Y912387D1*
X2994448Y908470D1*
X2995940Y904424D1*
X2997110Y900273D1*
X2997952Y896044D1*
X2998460Y891760D1*
X2998629Y887450D1*
X2998460Y883141D1*
X2997952Y878857D1*
X2997110Y874628D1*
X2995940Y870477D1*
X2994448Y866431D1*
X2992642Y862513D1*
X2990534Y858751D1*
X2988138Y855164D1*
X2985469Y851777D1*
X2982541Y848610D1*
X2979374Y845683D1*
X2975987Y843013D1*
X2972400Y840617D1*
X2966389Y837473D1*
X2972400Y834284D1*
X2975987Y831887D1*
X2979374Y829218D1*
X2982541Y826290D1*
X2985469Y823124D1*
X2988138Y819736D1*
X2990534Y816150D1*
X2992642Y812387D1*
X2994448Y808470D1*
X2995940Y804424D1*
X2997110Y800273D1*
X2997952Y796044D1*
X2998460Y791760D1*
X2998629Y787450D1*
X2998460Y783141D1*
X2997952Y778857D1*
X2997110Y774628D1*
X2995940Y770477D1*
X2994448Y766431D1*
X2992642Y762513D1*
X2990534Y758751D1*
X2988138Y755164D1*
X2985469Y751777D1*
X2982541Y748610D1*
X2979374Y745683D1*
X2975047Y742386D1*
X2998629Y742378D1*
Y632523D1*
X2788773D1*
Y742378D1*
X2812309D1*
X2808028Y745683D1*
X2804861Y748610D1*
X2801933Y751777D1*
X2799264Y755164D1*
X2796868Y758751D1*
X2794760Y762513D1*
X2792954Y766431D1*
X2791462Y770477D1*
X2790292Y774628D1*
X2789450Y778857D1*
X2788942Y783141D1*
X2788773Y787450D1*
X2788942Y791760D1*
X2789450Y796044D1*
X2790292Y800273D1*
X2791462Y804424D1*
X2792954Y808470D1*
X2794760Y812387D1*
X2796868Y816150D1*
X2799264Y819736D1*
X2801933Y823124D1*
X2804861Y826290D1*
X2808028Y829218D1*
X2811415Y831887D1*
X2815002Y834284D1*
X2821013Y837428D1*
X2815002Y840617D1*
X2811415Y843013D1*
X2808028Y845683D1*
X2804861Y848610D1*
X2801933Y851777D1*
X2799264Y855164D1*
X2796868Y858751D1*
X2794760Y862513D1*
X2792954Y866431D1*
X2791462Y870477D1*
X2790292Y874628D1*
X2789450Y878857D1*
X2788942Y883141D1*
X2788773Y887450D1*
X2788942Y891760D1*
X2789450Y896044D1*
X2790292Y900273D1*
X2791462Y904424D1*
X2792954Y908470D1*
X2794760Y912387D1*
X2796868Y916150D1*
X2799264Y919736D1*
X2801933Y923124D1*
X2804861Y926290D1*
X2808028Y929218D1*
X2811415Y931887D1*
X2815002Y934284D1*
X2821013Y937428D1*
X2815002Y940617D1*
X2811415Y943013D1*
X2808028Y945683D1*
X2804861Y948610D1*
X2801933Y951777D1*
X2799264Y955164D1*
X2796868Y958751D1*
X2794760Y962513D1*
X2792954Y966431D1*
X2791462Y970477D1*
X2790292Y974628D1*
X2789450Y978857D1*
X2788942Y983141D1*
X2788773Y987450D1*
X2788942Y991760D1*
X2789450Y996044D1*
X2790292Y1000273D1*
X2791462Y1004424D1*
X2792954Y1008470D1*
X2794760Y1012387D1*
X2796868Y1016150D1*
X2799264Y1019736D1*
X2801933Y1023124D1*
X2804861Y1026290D1*
X2808028Y1029218D1*
X2811415Y1031887D1*
X2815002Y1034284D1*
X2821013Y1037428D1*
X2815002Y1040617D1*
X2811415Y1043013D1*
X2808028Y1045683D1*
X2804861Y1048610D1*
X2801933Y1051777D1*
X2799264Y1055164D1*
X2796868Y1058751D1*
X2794760Y1062513D1*
X2792954Y1066431D1*
X2791462Y1070477D1*
X2790292Y1074628D1*
X2789450Y1078857D1*
X2788942Y1083141D1*
X2788773Y1087450D1*
X2788942Y1091760D1*
X2789450Y1096044D1*
X2790292Y1100273D1*
X2791462Y1104424D1*
X2792954Y1108470D1*
X2794760Y1112387D1*
X2796868Y1116150D1*
X2799264Y1119736D1*
X2801933Y1123124D1*
X2804861Y1126290D1*
X2808028Y1129218D1*
X2811415Y1131887D1*
X2815002Y1134284D1*
X2821013Y1137428D1*
X2815002Y1140617D1*
X2811415Y1143013D1*
X2808028Y1145683D1*
X2804861Y1148610D1*
X2801933Y1151777D1*
X2799264Y1155164D1*
X2796868Y1158751D1*
X2794760Y1162513D1*
X2792954Y1166431D1*
X2791462Y1170477D1*
X2790292Y1174628D1*
X2789450Y1178857D1*
X2788942Y1183141D1*
X2788773Y1187450D1*
X2788942Y1191760D1*
X2789450Y1196044D1*
X2790292Y1200273D1*
X2791462Y1204424D1*
X2792954Y1208470D1*
X2794760Y1212387D1*
X2796868Y1216150D1*
X2799264Y1219736D1*
X2801933Y1223124D1*
X2804861Y1226290D1*
X2808028Y1229218D1*
X2811415Y1231887D1*
X2815002Y1234284D1*
X2821013Y1237428D1*
X2815002Y1240617D1*
X2811415Y1243013D1*
X2808028Y1245683D1*
X2804861Y1248610D1*
X2801933Y1251777D1*
X2799264Y1255164D1*
X2796868Y1258751D1*
X2794760Y1262513D1*
X2792954Y1266431D1*
X2791462Y1270477D1*
X2790292Y1274628D1*
X2789450Y1278857D1*
X2788942Y1283141D1*
X2788773Y1287450D1*
X2788942Y1291760D1*
X2789450Y1296044D1*
X2790292Y1300273D1*
X2791462Y1304424D1*
X2792954Y1308470D1*
X2794760Y1312387D1*
X2796118Y1314813D1*
X2707782Y1314801D1*
X2707774Y1298565D1*
X2617604D1*
Y1381124D1*
X2614634Y1380007D1*
X2608927Y1378637D1*
X2603316Y1378185D1*
X2599217Y1376869D1*
X2594738Y1376159D1*
X2577470Y1376070D1*
X2479130D1*
X2481201Y1374851D1*
X2487051Y1374390D1*
X2492759Y1373020D1*
X2498180Y1370774D1*
X2503184Y1367708D1*
X2507647Y1363897D1*
X2511458Y1359433D1*
X2514525Y1354429D1*
X2516771Y1349008D1*
X2517906Y1344482D1*
X2526263Y1347003D1*
X2531844Y1348816D1*
X2537641Y1349735D1*
X2543509D1*
X2549306Y1348816D1*
X2554887Y1347003D1*
X2560117Y1344339D1*
X2564864Y1340890D1*
X2569015Y1336739D1*
X2572463Y1331992D1*
X2575128Y1326763D1*
X2576941Y1321181D1*
X2577860Y1315385D1*
Y1309516D1*
X2576941Y1303719D1*
X2575128Y1298138D1*
X2572463Y1292908D1*
X2569015Y1288162D1*
X2564864Y1284011D1*
X2560117Y1280562D1*
X2554887Y1277898D1*
X2549306Y1276084D1*
X2545639Y1275418D1*
X2543878Y1270013D1*
X2541214Y1264784D1*
X2537765Y1260037D1*
X2535561Y1257685D1*
X2576285Y1257681D1*
Y1163574D1*
X2486114D1*
Y1183827D1*
X2482630Y1185323D1*
X2480677Y1186418D1*
X2479141Y1184740D1*
Y1157129D1*
X2469238D1*
X2469235Y1141145D1*
X2513568Y1141130D1*
Y1047023D1*
X2457337D1*
X2457324Y979907D1*
X2451484D1*
X2469231Y962166D1*
X2474306Y961318D1*
X2479889Y959504D1*
X2485117Y956840D1*
X2489865Y953390D1*
X2494015Y949240D1*
X2497465Y944492D1*
X2500129Y939264D1*
X2501484Y935305D1*
X2517621Y935221D1*
X2522100Y934511D1*
X2526412Y933110D1*
X2530453Y931051D1*
X2534122Y928386D1*
X2546395Y916239D1*
X2548481Y914152D1*
X2548469Y932534D1*
X2709505D1*
Y842364D1*
X2652767D1*
X2652763Y786116D1*
X2606883D1*
X2609406Y782305D1*
X2611799Y778030D1*
X2613851Y773580D1*
X2615547Y768983D1*
X2616877Y764268D1*
X2617832Y759462D1*
X2618408Y754597D1*
X2618601Y749701D1*
X2618408Y744805D1*
X2617832Y739940D1*
X2616877Y735134D1*
X2615547Y730419D1*
X2613851Y725822D1*
X2611799Y721372D1*
X2609406Y717097D1*
X2606684Y713024D1*
X2603650Y709176D1*
X2600324Y705578D1*
X2596726Y702252D1*
X2592878Y699218D1*
X2588805Y696496D1*
X2584530Y694103D1*
X2580080Y692051D1*
X2575483Y690355D1*
X2570768Y689025D1*
X2565962Y688070D1*
X2561097Y687494D1*
X2556201Y687301D1*
X2551305Y687494D1*
X2546121Y688133D1*
X2520247Y662261D1*
X2520353Y564403D1*
X2533101Y551656D1*
X2536919Y553047D1*
X2541634Y554377D1*
X2546440Y555332D1*
X2551305Y555908D1*
X2556201Y556101D1*
X2561097Y555908D1*
X2565962Y555332D1*
X2570768Y554377D1*
X2575483Y553047D1*
X2580080Y551351D1*
X2584530Y549299D1*
X2588805Y546906D1*
X2592878Y544184D1*
X2596726Y541150D1*
X2600324Y537824D1*
X2603650Y534226D1*
X2606684Y530378D1*
X2609406Y526305D1*
X2611799Y522030D1*
X2613851Y517580D1*
X2615547Y512983D1*
X2616877Y508268D1*
X2617832Y503462D1*
X2618408Y498597D1*
X2618601Y493701D1*
X2618408Y488805D1*
X2617832Y483940D1*
X2616877Y479134D1*
X2615547Y474419D1*
X2613851Y469822D1*
X2611799Y465372D1*
X2609406Y461097D1*
X2606684Y457024D1*
X2603650Y453176D1*
X2600324Y449578D1*
X2596726Y446252D1*
X2592878Y443218D1*
X2588805Y440496D1*
X2584530Y438103D1*
X2580080Y436051D1*
X2575483Y434355D1*
X2570768Y433025D1*
X2565962Y432070D1*
X2561097Y431494D1*
X2556201Y431301D1*
X2551305Y431494D1*
X2546440Y432070D1*
X2541634Y433025D1*
X2536919Y434355D1*
X2532322Y436051D1*
X2527872Y438103D1*
X2523597Y440496D1*
X2519524Y443218D1*
X2515676Y446252D1*
X2512078Y449578D1*
X2507532Y454723D1*
X2430084Y454734D1*
Y772037D1*
X2497916D1*
X2500603Y778030D1*
X2502996Y782305D1*
X2505718Y786378D1*
X2508752Y790226D1*
X2512078Y793824D1*
X2515676Y797150D1*
X2519524Y800184D1*
X2523597Y802906D1*
X2527872Y805299D1*
X2532322Y807351D1*
X2536919Y809047D1*
X2541634Y810377D1*
X2546440Y811332D1*
X2551305Y811908D1*
X2556201Y812101D1*
X2558668Y812004D1*
X2558655Y819104D1*
X2555033Y817721D1*
X2549326Y816351D1*
X2543475Y815890D1*
X2537625Y816351D1*
X2531918Y817721D1*
X2526496Y819966D1*
X2521492Y823033D1*
X2517029Y826844D1*
X2513218Y831307D1*
X2510151Y836311D1*
X2508084Y841248D1*
X2502855Y840887D1*
X2497004Y841348D1*
X2491297Y842718D1*
X2485876Y844963D1*
X2483563Y846259D1*
X2397473Y846352D1*
X2392994Y847062D1*
X2388681Y848462D1*
X2386612Y849418D1*
X2386542Y829864D1*
X2341366D1*
X2341352Y794260D1*
X2343062Y790131D1*
X2344121Y785722D1*
X2344477Y781192D1*
Y742432D1*
X2347465Y738243D1*
X2350129Y733013D1*
X2351942Y727432D1*
X2352861Y721635D1*
Y715767D1*
X2351942Y709970D1*
X2350129Y704389D1*
X2347465Y699159D1*
X2344016Y694412D1*
X2339865Y690261D1*
X2335118Y686813D1*
X2329889Y684149D1*
X2324307Y682335D1*
X2318511Y681416D1*
X2312642D1*
X2306845Y682335D1*
X2301264Y684149D1*
X2296034Y686813D1*
X2291288Y690261D1*
X2287137Y694412D1*
X2283688Y699159D1*
X2281024Y704389D1*
X2279210Y709970D1*
X2278292Y715767D1*
Y721635D1*
X2279210Y727432D1*
X2280436Y731505D1*
X2282252Y735680D1*
X2285319Y740684D1*
X2286676Y742404D1*
Y771260D1*
X2285748Y773274D1*
X2278432Y773616D1*
X2280130Y768983D1*
X2281460Y764268D1*
X2282415Y759462D1*
X2282991Y754597D1*
X2283184Y749701D1*
X2282991Y744805D1*
X2282415Y739940D1*
X2281460Y735134D1*
X2279685Y729215D1*
X2278433Y725822D1*
X2276382Y721372D1*
X2273988Y717097D1*
X2271267Y713024D1*
X2268232Y709176D1*
X2264907Y705578D1*
X2261309Y702252D1*
X2257461Y699218D1*
X2253387Y696496D1*
X2249113Y694103D1*
X2244663Y692051D1*
X2240066Y690355D1*
X2235351Y689025D1*
X2230545Y688070D1*
X2225680Y687494D1*
X2220784Y687301D1*
X2216021Y687488D1*
X2186764Y658234D1*
X2615453Y1257536D2*
X2704561D1*
Y1167365D1*
X2610453D1*
Y1257536D1*
X2615453D1*
X2615454Y1163789D2*
X2704562D1*
Y1073618D1*
X2610454D1*
Y1163789D1*
X2615454D1*
X2609204Y1070044D2*
X2698311D1*
Y979873D1*
X2604204D1*
Y1070044D1*
X2609204D1*
X973431Y636116D2*
X949877D1*
X949895Y554306D1*
X953931Y550806D1*
X957742Y546343D1*
X960809Y541339D1*
X963054Y535918D1*
X964424Y530210D1*
X964885Y524360D1*
X964424Y518509D1*
X963054Y512802D1*
X960809Y507381D1*
X957742Y502377D1*
X953931Y497914D1*
X949891Y494436D1*
X949895Y423719D1*
X1020205Y423701D1*
X1020221Y455613D1*
X1005248Y455555D1*
X999379D1*
X989525Y455630D1*
X965103D1*
X965029Y489906D1*
Y495774D1*
X965103Y505630D1*
X965029Y529670D1*
Y535538D1*
X965103Y545394D1*
Y609580D1*
X973403D1*
X973414Y636100D1*
X2005806Y2040288D2*
X2030318D1*
X2032252Y2044777D1*
X2035319Y2049781D1*
X2039130Y2054244D1*
X2043593Y2058055D1*
X2048597Y2061122D1*
X2054019Y2063368D1*
X2059726Y2064738D1*
X2065576Y2065198D1*
X2071427Y2064738D1*
X2077134Y2063368D1*
X2082555Y2061122D1*
X2087559Y2058055D1*
X2092023Y2054244D1*
X2095834Y2049781D1*
X2098900Y2044777D1*
X2100801Y2040292D1*
X2130347Y2040288D1*
Y1981986D1*
X2138525Y1981977D1*
X2142723Y1984965D1*
X2147953Y1987629D1*
X2153534Y1989442D1*
X2159331Y1990361D1*
X2165200D1*
X2170996Y1989442D1*
X2176578Y1987629D1*
X2181807Y1984965D1*
X2186554Y1981516D1*
X2190705Y1977365D1*
X2194154Y1972618D1*
X2196818Y1967389D1*
X2198631Y1961807D1*
X2199550Y1956011D1*
Y1950142D1*
X2198631Y1944345D1*
X2196818Y1938764D1*
X2194154Y1933534D1*
X2190705Y1928788D1*
X2186554Y1924637D1*
X2181807Y1921188D1*
X2176578Y1918524D1*
X2170996Y1916710D1*
X2165200Y1915792D1*
X2159331D1*
X2153534Y1916710D1*
X2147953Y1918524D1*
X2142723Y1921188D1*
X2138562Y1924176D1*
X2130332D1*
X2130347Y1915865D1*
X2000806D1*
Y2040288D1*
X2005806D1*
Y1890288D2*
X2062642Y1890361D1*
X2068511D1*
X2075806Y1890288D1*
X2130347D1*
Y1815865D1*
X2068511Y1815792D1*
X2062642D1*
X2055347Y1815865D1*
X2000806D1*
Y1890288D1*
X2005806D1*
X2069137Y1815866D2*
X2065576Y1815676D1*
X2062016Y1815866D1*
Y1890286D2*
X2065576Y1890477D1*
X2069137Y1890286D1*
X1294788Y441761D2*
X1293957Y436705D1*
X1292143Y431124D1*
X1289479Y425894D1*
X1288020Y423710D1*
X1290915Y428457D1*
X1293160Y433878D1*
X1294530Y439586D1*
X1294788Y441761D1*
X1348849Y904520D2*
X1350129Y901763D1*
X1351942Y896181D1*
X1352861Y890385D1*
Y884516D1*
X1351942Y878719D1*
X1351778Y878134D1*
X1355588Y875284D1*
X1359739Y871133D1*
X1363188Y866386D1*
X1365852Y861156D1*
X1367666Y855575D1*
X1368584Y849778D1*
Y843910D1*
X1367666Y838113D1*
X1365852Y832532D1*
X1364572Y829774D1*
X2138562Y1981977D2*
X2142723Y1984965D1*
X2147953Y1987629D1*
X2153534Y1989442D1*
X2159331Y1990361D1*
X2165200D1*
X2170996Y1989442D1*
X2176578Y1987629D1*
X2181807Y1984965D1*
X2186554Y1981516D1*
X2190705Y1977365D1*
X2194154Y1972618D1*
X2196818Y1967389D1*
X2198631Y1961807D1*
X2199550Y1956011D1*
Y1950142D1*
X2198631Y1944345D1*
X2196818Y1938764D1*
X2194154Y1933534D1*
X2190705Y1928788D1*
X2186554Y1924637D1*
X2181807Y1921188D1*
X2176578Y1918524D1*
X2170996Y1916710D1*
X2165200Y1915792D1*
X2159331D1*
X2153534Y1916710D1*
X2147953Y1918524D1*
X2142723Y1921188D1*
X2138562Y1924176D1*
X2699649Y1993313D2*
X2698818Y1988256D1*
X2697004Y1982675D1*
X2694340Y1977445D1*
X2690891Y1972698D1*
X2686740Y1968547D1*
X2681994Y1965099D1*
X2676764Y1962435D1*
X2671183Y1960621D1*
X2665386Y1959702D1*
X2659517D1*
X2654790Y1960408D1*
X2668251Y1806505D2*
X2667332Y1800709D1*
X2665519Y1795128D1*
X2662855Y1789898D1*
X2659406Y1785151D1*
X2655255Y1781000D1*
X2650508Y1777551D1*
X2645278Y1774887D1*
X2639697Y1773074D1*
X2633900Y1772155D1*
X2628032D1*
X2622235Y1773074D1*
X2616654Y1774887D1*
X2611424Y1777551D1*
X2606677Y1781000D1*
X2602526Y1785151D1*
X2599078Y1789898D1*
X2596414Y1795128D1*
X2594600Y1800709D1*
X2593681Y1806505D1*
Y1812374D1*
X2594600Y1818171D1*
X2596414Y1823752D1*
X2599078Y1828982D1*
X2602526Y1833729D1*
X2606677Y1837879D1*
X2611424Y1841328D1*
X2616654Y1843992D1*
X2622235Y1845806D1*
X2628032Y1846725D1*
X2633900D1*
X2639697Y1845806D1*
X2645278Y1843992D1*
X2650508Y1841328D1*
X2655255Y1837879D1*
X2659406Y1833729D1*
X2662855Y1828982D1*
X2665519Y1823752D1*
X2667332Y1818171D1*
X2668251Y1812374D1*
Y1806505D1*
X1555868Y847231D2*
X1554949Y841435D1*
X1553135Y835853D1*
X1550471Y830624D1*
X1547023Y825877D1*
X1542872Y821726D1*
X1538125Y818277D1*
X1532895Y815613D1*
X1527314Y813799D1*
X1521517Y812881D1*
X1515649D1*
X1509852Y813799D1*
X1504271Y815613D1*
X1499041Y818277D1*
X1494294Y821726D1*
X1490143Y825877D1*
X1486694Y830624D1*
X1484030Y835853D1*
X1482217Y841435D1*
X1481298Y847231D1*
Y853100D1*
X1482217Y858897D1*
X1484030Y864478D1*
X1486694Y869708D1*
X1490143Y874454D1*
X1494294Y878605D1*
X1499041Y882054D1*
X1504271Y884718D1*
X1509852Y886532D1*
X1515649Y887450D1*
X1521517D1*
X1527314Y886532D1*
X1532895Y884718D1*
X1538125Y882054D1*
X1542872Y878605D1*
X1547023Y874454D1*
X1550471Y869708D1*
X1553135Y864478D1*
X1554949Y858897D1*
X1555868Y853100D1*
Y847231D1*
X2590134Y2381445D2*
X2589215Y2375649D1*
X2587402Y2370067D1*
X2585192Y2365649D1*
X2587402Y2361196D1*
X2589215Y2355614D1*
X2590134Y2349818D1*
Y2343949D1*
X2589215Y2338152D1*
X2587402Y2332571D1*
X2584738Y2327341D1*
X2581289Y2322595D1*
X2577138Y2318444D1*
X2572391Y2314995D1*
X2567162Y2312331D1*
X2561580Y2310517D1*
X2555784Y2309599D1*
X2549915D1*
X2544118Y2310517D1*
X2538537Y2312331D1*
X2533307Y2314995D1*
X2528561Y2318444D1*
X2524410Y2322595D1*
X2520961Y2327341D1*
X2518297Y2332571D1*
X2516483Y2338152D1*
X2515565Y2343949D1*
Y2349818D1*
X2516483Y2355614D1*
X2518297Y2361196D1*
X2520507Y2365614D1*
X2518297Y2370067D1*
X2516483Y2375649D1*
X2515565Y2381445D1*
Y2387314D1*
X2516483Y2393110D1*
X2518297Y2398692D1*
X2520961Y2403921D1*
X2524410Y2408668D1*
X2528561Y2412819D1*
X2533307Y2416268D1*
X2538537Y2418932D1*
X2544118Y2420746D1*
X2549915Y2421664D1*
X2555784D1*
X2561580Y2420746D1*
X2567162Y2418932D1*
X2572391Y2416268D1*
X2577138Y2412819D1*
X2581289Y2408668D1*
X2584738Y2403921D1*
X2587402Y2398692D1*
X2589215Y2393110D1*
X2590134Y2387314D1*
Y2381445D1*
X2521284Y1344479D2*
X2526263Y1347003D1*
X2429685Y1919970D2*
X2433334Y1915684D1*
X2436400Y1910680D1*
X2438646Y1905259D1*
X2440016Y1899551D1*
X2440477Y1893701D1*
X2440016Y1887851D1*
X2438646Y1882143D1*
X2436400Y1876722D1*
X2433334Y1871718D1*
X2429523Y1867255D1*
X2425059Y1863444D1*
X2420055Y1860377D1*
X2414634Y1858131D1*
X2408927Y1856761D1*
X2403076Y1856301D1*
X2397226Y1856761D1*
X2391519Y1858131D1*
X2386097Y1860377D1*
X2381093Y1863444D1*
X2376630Y1867255D1*
X2372819Y1871718D1*
X2369752Y1876722D1*
X2367507Y1882143D1*
X2366137Y1887851D1*
X2365879Y1890026D1*
X2340034Y1915865D1*
X2213404D1*
Y2040288D1*
X2242604D1*
X2240201Y2045101D1*
X2238387Y2050683D1*
X2237469Y2056479D1*
Y2062348D1*
X2238387Y2068145D1*
X2240201Y2073726D1*
X2242865Y2078956D1*
X2246314Y2083702D1*
X2250465Y2087853D1*
X2255211Y2091302D1*
X2260441Y2093966D1*
X2266023Y2095780D1*
X2271819Y2096698D1*
X2277688D1*
X2283484Y2095780D1*
X2289066Y2093966D1*
X2294295Y2091302D1*
X2299042Y2087853D1*
X2303193Y2083702D1*
X2306642Y2078956D1*
X2309306Y2073726D1*
X2311120Y2068145D1*
X2312038Y2062348D1*
Y2056479D1*
X2311120Y2050683D1*
X2309306Y2045101D1*
X2307074Y2040643D1*
X2308404Y2040288D1*
X2342945D1*
Y2031987D1*
X2389718Y2031887D1*
X2394197Y2031177D1*
X2398509Y2029777D1*
X2402550Y2027718D1*
X2406219Y2025053D1*
X2418492Y2012906D1*
X2499558Y1931714D1*
X2502223Y1928045D1*
X2504282Y1924004D1*
X2505683Y1919692D1*
X2506393Y1915213D1*
X2506482Y1897945D1*
Y1895074D1*
X2509470Y1890873D1*
X2512134Y1885643D1*
X2513948Y1880062D1*
X2514866Y1874265D1*
Y1868397D1*
X2513948Y1862600D1*
X2512134Y1857019D1*
X2509470Y1851789D1*
X2506021Y1847042D1*
X2501870Y1842891D1*
X2497124Y1839442D1*
X2491894Y1836778D1*
X2486313Y1834965D1*
X2480516Y1834046D1*
X2474647D1*
X2468851Y1834965D1*
X2463269Y1836778D1*
X2458040Y1839442D1*
X2453293Y1842891D1*
X2449142Y1847042D1*
X2445693Y1851789D1*
X2443029Y1857019D1*
X2441215Y1862600D1*
X2440297Y1868397D1*
Y1874265D1*
X2441215Y1880062D1*
X2443029Y1885643D1*
X2445693Y1890873D1*
X2448681Y1895034D1*
Y1900960D1*
X2375483Y1974172D1*
X2363446Y1974176D1*
X2406714Y1930933D1*
X2411807Y1930067D1*
X2417389Y1928253D1*
X2422618Y1925589D1*
X2427365Y1922141D1*
X2429345Y1920310D1*
X2425059Y1923958D1*
X2420055Y1927025D1*
X2414634Y1929271D1*
X2408927Y1930641D1*
X2406751Y1930898D1*
X2429685Y1919970D2*
X2433334Y1915684D1*
X2436400Y1910680D1*
X2438646Y1905259D1*
X2440016Y1899551D1*
X2440477Y1893701D1*
X2440016Y1887851D1*
X2438646Y1882143D1*
X2436400Y1876722D1*
X2433334Y1871718D1*
X2429523Y1867255D1*
X2425059Y1863444D1*
X2420055Y1860377D1*
X2414634Y1858131D1*
X2408927Y1856761D1*
X2403076Y1856301D1*
X2397226Y1856761D1*
X2391519Y1858131D1*
X2386097Y1860377D1*
X2381093Y1863444D1*
X2376630Y1867255D1*
X2372819Y1871718D1*
X2369752Y1876722D1*
X2367507Y1882143D1*
X2366137Y1887851D1*
X2365879Y1890026D1*
X1709183Y928267D2*
X1708264Y922470D1*
X1707576Y920030D1*
X1709183Y928267D1*
Y934135D1*
X1708264Y939932D1*
X1706450Y945513D1*
X1703786Y950743D1*
X1700337Y955490D1*
X1696187Y959641D1*
X1691440Y963089D1*
X1686210Y965753D1*
X1680629Y967567D1*
X1674832Y968486D1*
X1668963D1*
X1663167Y967567D1*
X1657586Y965753D1*
X1652356Y963089D1*
X1647609Y959641D1*
X1643458Y955490D1*
X1640009Y950743D1*
X1637345Y945513D1*
X1635532Y939932D1*
X1634613Y934135D1*
Y928267D1*
X1635532Y922470D1*
X1636219Y920030D1*
X2030352Y2040292D2*
X2032252Y2044777D1*
X2035319Y2049781D1*
X2039130Y2054244D1*
X2043593Y2058055D1*
X2048597Y2061122D1*
X2054019Y2063368D1*
X2059726Y2064738D1*
X2065576Y2065198D1*
X2071427Y2064738D1*
X2077134Y2063368D1*
X2082555Y2061122D1*
X2087559Y2058055D1*
X2092023Y2054244D1*
X2095834Y2049781D1*
X2098900Y2044777D1*
X2100801Y2040292D1*
D24*
X1443702Y2709324D3*
X1128742D3*
X813781D3*
D26*
X1796824Y1287450D3*
Y1220521D3*
X1749809Y1543843D3*
Y1610772D3*
X1497617Y1541625D3*
Y1608554D3*
X1728075Y1221827D3*
Y1288756D3*
X1815427Y1543843D3*
Y1610772D3*
X1728075Y1137450D3*
Y1070521D3*
D27*
X2050125Y1768832D3*
X1983196D3*
X1956365Y1031257D3*
X2023294D3*
D26*
X2531200Y1143698D3*
Y1210628D3*
D27*
X2227883Y1025149D3*
X2160954D3*
D26*
X2559326Y1518701D3*
Y1585630D3*
D28*
X1059256Y2315448D3*
Y2240645D3*
D27*
X2187263Y1765693D3*
X2254192D3*
D28*
X1152996Y2315448D3*
Y2240645D3*
X1240487Y2315448D3*
Y2240645D3*
X1327978Y2315448D3*
Y2240645D3*
D27*
X749316Y737225D3*
X816246D3*
X878080D3*
X945009D3*
X1135607D3*
X1202536D3*
X1264370D3*
X1331299D3*
D26*
X2206011Y2515616D3*
Y2582545D3*
D27*
X816625Y680526D3*
X749696D3*
D26*
X1399950Y676772D3*
Y743701D3*
D27*
X1331299Y680969D3*
X1264370D3*
D26*
X1877166Y2014666D3*
Y1947736D3*
D27*
X1135692Y681201D3*
X1202621D3*
X1007110D3*
X1074040D3*
D30*
X676013Y2468746D3*
X589399D3*
X676013Y2368756D3*
X589399D3*
D142*
X637425Y2568735D3*
Y2678971D3*
D33*
X484316Y2471870D3*
D34*
Y2571870D3*
D36*
X554235Y2201133D3*
Y2175542D3*
Y2149952D3*
Y2124361D3*
Y2098771D3*
D37*
X545377Y2275936D3*
Y2023967D3*
D38*
X448999Y2279873D3*
Y2020030D3*
D39*
X1745110Y2820899D3*
X1788418D3*
X1831725D3*
X1875032D3*
X1918339D3*
X1961646D3*
X2004953D3*
X2048260D3*
D40*
X1578181Y2796109D3*
D41*
Y2350046D3*
D42*
X1747473Y2318550D3*
X2053772D3*
D43*
X2125032Y2357132D3*
D44*
Y2711462D3*
D41*
X2140780Y2796109D3*
D143*
X468701Y1737450D3*
D45*
X568701Y1727450D3*
X668701Y1737450D3*
X768701Y1727450D3*
X868701Y1737450D3*
X968701Y1727450D3*
X1068701Y1737450D3*
X1168701Y1727450D3*
D33*
X2843701Y687450D3*
D34*
Y787450D3*
Y887450D3*
Y987450D3*
Y1087450D3*
Y1187450D3*
Y1287450D3*
Y1387450D3*
Y1487450D3*
Y1587450D3*
Y1687450D3*
Y1787450D3*
Y1887450D3*
Y1987450D3*
Y2087450D3*
Y2187450D3*
Y2287450D3*
Y2387450D3*
Y2487450D3*
Y2587450D3*
D33*
X2943701Y687450D3*
D34*
Y787450D3*
Y887450D3*
Y987450D3*
Y1087450D3*
Y1187450D3*
Y1287450D3*
Y1387450D3*
Y1487450D3*
Y1587450D3*
Y1687450D3*
Y1787450D3*
Y1887450D3*
Y1987450D3*
Y2087450D3*
Y2187450D3*
Y2287450D3*
Y2387450D3*
Y2487450D3*
Y2587450D3*
D144*
X1771974Y1350042D3*
Y1420908D3*
X2206011Y2331260D3*
Y2402126D3*
D27*
X1337709Y2083452D3*
X1404638D3*
X824906Y1921928D3*
X891835D3*
X681171D3*
X748100D3*
X1106126D3*
X1173055D3*
X965516D3*
X1032445D3*
X2605709Y831201D3*
X2672638D3*
X2278625Y818701D3*
X2345554D3*
X1945293D3*
X2012222D3*
X1611960D3*
X1678889D3*
X1787112Y2137624D3*
X1854041D3*
X1593341D3*
X1660271D3*
X2040267Y2128247D3*
X2107196D3*
X2768208Y2709334D3*
X2835137D3*
X2768208Y2784334D3*
X2835137D3*
D26*
X1781355Y1735958D3*
Y1802887D3*
X1856355Y1737582D3*
Y1804511D3*
X1631201Y1912452D3*
Y1845523D3*
D27*
X1339378Y2143874D3*
X1406307D3*
X678576Y1834437D3*
X611647D3*
X866307D3*
X933236D3*
X993638D3*
X1060567D3*
X805907D3*
X738978D3*
X484316D3*
X551246D3*
D26*
X1968866Y2125122D3*
Y2192051D3*
X2468483Y1094076D3*
Y1027147D3*
D27*
X821781Y2003170D3*
X888710D3*
X678046D3*
X744975D3*
X903929Y2375912D3*
X970858D3*
X1099877Y2003170D3*
X1166806D3*
D26*
X2412239Y1093890D3*
Y1026961D3*
X1562452Y1912452D3*
Y1845523D3*
D27*
X962391Y2003170D3*
X1029320D3*
X2662452Y887449D3*
X2595523D3*
X2339488Y874949D3*
X2272559D3*
X2012450Y874950D3*
X1945521D3*
X1681066Y874949D3*
X1614137D3*
D26*
X1912442Y2124950D3*
Y2191879D3*
D27*
X1783012Y2193701D3*
X1849941D3*
D26*
X1718692Y2124950D3*
Y2191879D3*
D27*
X1587440Y2193701D3*
X1654369D3*
D26*
X2172016Y2121996D3*
Y2188925D3*
D27*
X2040752Y2190753D3*
X2107681D3*
D26*
X1464774Y739696D3*
Y672767D3*
Y562466D3*
Y495537D3*
D27*
X1073772Y737225D3*
X1006843D3*
D26*
X1802310Y739696D3*
Y672767D3*
Y562466D3*
Y495537D3*
X2141673Y720944D3*
Y654015D3*
X2139845Y562466D3*
Y495537D3*
X2475170Y724983D3*
Y658054D3*
Y568717D3*
Y501788D3*
X1871067Y1089463D3*
Y1022534D3*
X1814811Y1089463D3*
Y1022534D3*
D27*
X2590578Y1212450D3*
X2657507D3*
X2590579Y1118704D3*
X2657508D3*
X2584328Y1024958D3*
X2651257D3*
X2540576Y2146824D3*
X2607505D3*
X2540578Y2074952D3*
X2607507D3*
X2540814Y1996987D3*
X2607743D3*
X2538133Y2522772D3*
X2605062D3*
D26*
X2662689Y1412547D3*
Y1345618D3*
D27*
X2393701Y2521826D3*
X2460630D3*
X878530Y681201D3*
X945460D3*
D45*
X1287450Y1756201D3*
Y2012201D3*
X1465450Y1756201D3*
Y2012201D3*
X1549950Y493701D3*
Y749701D3*
X1727950Y493701D3*
Y749701D3*
X1885368Y493701D3*
Y749701D3*
X2063368Y493701D3*
Y749701D3*
X2220784Y493701D3*
Y749701D3*
X2398784Y493701D3*
Y749701D3*
X2556201Y493701D3*
Y749701D3*
X2734201Y493701D3*
Y749701D3*
D49*
X1894685Y1562450D3*
Y1542765D3*
Y1523080D3*
Y1503395D3*
Y1483710D3*
Y1464025D3*
Y1444340D3*
Y1424655D3*
Y1404970D3*
Y1385285D3*
Y1365600D3*
Y1345915D3*
Y1326230D3*
Y1306545D3*
Y1286860D3*
Y1267175D3*
Y1247490D3*
Y1227805D3*
Y1208120D3*
Y1188435D3*
D50*
X1971457Y1111663D3*
X1991142D3*
X2010827D3*
X2030512D3*
X2050197D3*
X2069882D3*
X2089567D3*
X2109252D3*
X2128937D3*
X2148622D3*
X2168307D3*
X2187992D3*
X2207677D3*
X2227362D3*
X2247047D3*
X2266732D3*
X2286418D3*
X2306103D3*
X2325788D3*
X2345473D3*
D49*
X2422244Y1188435D3*
Y1208120D3*
Y1227805D3*
Y1247490D3*
Y1267175D3*
Y1286860D3*
Y1306545D3*
Y1326230D3*
Y1345915D3*
Y1365600D3*
Y1385285D3*
Y1404970D3*
Y1424655D3*
Y1444340D3*
Y1464025D3*
Y1483710D3*
Y1503395D3*
Y1523080D3*
Y1542765D3*
Y1562450D3*
D50*
X2345473Y1639222D3*
X2325788D3*
X2306103D3*
X2286418D3*
X2266732D3*
X2247047D3*
X2227362D3*
X2207677D3*
X2187992D3*
X2168307D3*
X2148622D3*
X2128937D3*
X2109252D3*
X2089567D3*
X2069882D3*
X2050197D3*
X2030512D3*
X2010827D3*
X1991142D3*
X1971457D3*
D145*
X824952Y2524949D3*
X787550D3*
X750149D3*
Y2422579D3*
X824952D3*
D52*
X741831Y2254307D3*
Y2234622D3*
Y2214937D3*
Y2195252D3*
Y2175567D3*
Y2155882D3*
Y2136197D3*
D53*
X781201Y2096827D3*
X800886D3*
X820571D3*
X840256D3*
X859941D3*
X879626D3*
X899311D3*
D52*
X938681Y2136197D3*
Y2155882D3*
Y2175567D3*
Y2195252D3*
Y2214937D3*
Y2234622D3*
Y2254307D3*
D53*
X899311Y2293677D3*
X879626D3*
X859941D3*
X840256D3*
X820571D3*
X800886D3*
X781201D3*
D54*
X840256Y2195252D3*
D55*
X543701Y993701D3*
X571260D3*
X598819D3*
X626378D3*
X653937D3*
X681496D3*
X709055D3*
X736614D3*
X764173D3*
X791732D3*
X819292D3*
X846851D3*
X874410D3*
X901969D3*
X929528D3*
X957087D3*
X984646D3*
X1012205D3*
X1039764D3*
X1067323D3*
X1094882D3*
X1122441D3*
X1150000D3*
X1177559D3*
X1205118D3*
X1232677D3*
X1260236D3*
X1287795D3*
X1315355D3*
X1342914D3*
D56*
X640576Y549950D3*
Y524360D3*
Y498769D3*
Y473179D3*
X868923D3*
Y498769D3*
Y524360D3*
Y549950D3*
D58*
X1299950Y593701D3*
X1280265D3*
X1260580D3*
X1240895D3*
X1221210D3*
D59*
X1211368Y564173D3*
Y544488D3*
Y524803D3*
D58*
X1240895Y495276D3*
X1260580D3*
X1280265D3*
X1299950D3*
D59*
X1309793Y524803D3*
Y544488D3*
Y564173D3*
D58*
X1221210Y495276D3*
D60*
X2590576Y2721822D3*
D61*
Y2821822D3*
X2490576Y2721822D3*
Y2821822D3*
X2390576Y2721822D3*
Y2821822D3*
D60*
X2290576Y2721822D3*
D61*
Y2821822D3*
D62*
X2065576Y2003076D3*
Y1953076D3*
Y1903076D3*
Y1853076D3*
X2278175D3*
Y1903076D3*
Y1953076D3*
Y2003076D3*
D30*
X1002314Y453078D3*
X1057432D3*
Y492841D3*
X1002314D3*
Y532605D3*
X1057432D3*
Y572369D3*
X1002314D3*
D64*
X1681066Y1465726D3*
Y1682261D3*
X1555082D3*
Y1465726D3*
D65*
X1584326Y1049954D3*
Y1239954D3*
M02*
