%TF.GenerationSoftware,Novarm,DipTrace,3.2.0.1*%
%TF.CreationDate,2018-06-05T21:33:38-08:00*%
%FSLAX26Y26*%
%MOIN*%
%TF.FileFunction,Drawing,Top*%
%TF.Part,Single*%
%ADD17C,0.006*%
%ADD18C,0.008*%
%ADD31C,0.005*%
%ADD138C,0.003088*%
G75*
G01*
%LPD*%
X607897Y2564804D2*
D31*
Y2682903D1*
X666953D1*
Y2564804D1*
X607897D1*
X677425Y2578852D2*
X597425Y2633847D1*
Y2668855D1*
G36*
X1078701Y1742450D2*
X1058701D1*
Y1722430D1*
X1078701D1*
Y1742450D1*
G37*
G36*
X978701D2*
X958701D1*
Y1722430D1*
X978701D1*
Y1742450D1*
G37*
G36*
X878701D2*
X858701D1*
Y1722430D1*
X878701D1*
Y1742450D1*
G37*
G36*
X778701D2*
X758701D1*
Y1722430D1*
X778701D1*
Y1742450D1*
G37*
G36*
X678701D2*
X658701D1*
Y1722430D1*
X678701D1*
Y1742450D1*
G37*
G36*
X578701D2*
X558701D1*
Y1722430D1*
X578701D1*
Y1742450D1*
G37*
G36*
X478701D2*
X458701D1*
Y1722430D1*
X478701D1*
Y1742450D1*
G37*
G36*
X1178701D2*
X1158701D1*
Y1722430D1*
X1178701D1*
Y1742450D1*
G37*
X1336458Y2004189D2*
D18*
X1276457D1*
X1256448Y1984191D1*
X1496453D2*
X1476444Y2004189D1*
X1416443D1*
X1256448Y1784211D2*
X1276457Y1764213D1*
X1336458D1*
X1496453Y1784211D2*
X1476444Y1764213D1*
X1416443D1*
X1496453Y1984191D2*
Y1969209D1*
Y1784211D2*
Y1799193D1*
X1256448Y1784211D2*
Y1799193D1*
Y1984191D2*
Y1969209D1*
X1326454Y1784211D2*
X1356442D1*
X1396459D2*
X1426447D1*
X1356442D2*
X1391444Y1799193D1*
X1598958Y741689D2*
X1538957D1*
X1518948Y721691D1*
X1758953D2*
X1738944Y741689D1*
X1678943D1*
X1518948Y521711D2*
X1538957Y501713D1*
X1598958D1*
X1758953Y521711D2*
X1738944Y501713D1*
X1678943D1*
X1758953Y721691D2*
Y706709D1*
Y521711D2*
Y536693D1*
X1518948Y521711D2*
Y536693D1*
Y721691D2*
Y706709D1*
X1588954Y521711D2*
X1618942D1*
X1658959D2*
X1688947D1*
X1618942D2*
X1653944Y536693D1*
X1934375Y741689D2*
X1874374D1*
X1854365Y721691D1*
X2094370D2*
X2074361Y741689D1*
X2014360D1*
X1854365Y521711D2*
X1874374Y501713D1*
X1934375D1*
X2094370Y521711D2*
X2074361Y501713D1*
X2014360D1*
X2094370Y721691D2*
Y706709D1*
Y521711D2*
Y536693D1*
X1854365Y521711D2*
Y536693D1*
Y721691D2*
Y706709D1*
X1924371Y521711D2*
X1954359D1*
X1994376D2*
X2024364D1*
X1954359D2*
X1989362Y536693D1*
X2269791Y741689D2*
X2209790D1*
X2189781Y721691D1*
X2429786D2*
X2409777Y741689D1*
X2349776D1*
X2189781Y521711D2*
X2209790Y501713D1*
X2269791D1*
X2429786Y521711D2*
X2409777Y501713D1*
X2349776D1*
X2429786Y721691D2*
Y706709D1*
Y521711D2*
Y536693D1*
X2189781Y521711D2*
Y536693D1*
Y721691D2*
Y706709D1*
X2259787Y521711D2*
X2289775D1*
X2329792D2*
X2359780D1*
X2289775D2*
X2324778Y536693D1*
X2605209Y741689D2*
X2545207D1*
X2525199Y721691D1*
X2765203D2*
X2745195Y741689D1*
X2685193D1*
X2525199Y521711D2*
X2545207Y501713D1*
X2605209D1*
X2765203Y521711D2*
X2745195Y501713D1*
X2685193D1*
X2765203Y721691D2*
Y706709D1*
Y521711D2*
Y536693D1*
X2525199Y521711D2*
Y536693D1*
Y721691D2*
Y706709D1*
X2595204Y521711D2*
X2625192D1*
X2665210D2*
X2695198D1*
X2625192D2*
X2660195Y536693D1*
G36*
X815106Y2507233D2*
X834768D1*
Y2532832D1*
X815106D1*
Y2507233D1*
G37*
G36*
X777703D2*
X797377D1*
Y2532832D1*
X777703D1*
Y2507233D1*
G37*
G36*
X740312D2*
X759973D1*
Y2532832D1*
X740312D1*
Y2507233D1*
G37*
G36*
Y2414711D2*
X759973D1*
Y2440310D1*
X740312D1*
Y2414711D1*
G37*
G36*
X815106D2*
X834768D1*
Y2440310D1*
X815106D1*
Y2414711D1*
G37*
X732432Y2505258D2*
D17*
X842672D1*
Y2442270D2*
X732432D1*
Y2505258D1*
X842672Y2442270D2*
Y2505258D1*
X918018Y2990042D2*
D138*
Y2969946D1*
X904620Y2990042D1*
Y2969946D1*
X924193Y2977595D2*
X935667D1*
Y2979519D1*
X934717Y2981442D1*
X933766Y2982393D1*
X931843Y2983344D1*
X928969D1*
X927067Y2982393D1*
X925144Y2980470D1*
X924193Y2977595D1*
Y2975694D1*
X925144Y2972820D1*
X927067Y2970919D1*
X928969Y2969946D1*
X931843D1*
X933766Y2970919D1*
X935667Y2972820D1*
X941843Y2977595D2*
X953317D1*
Y2979519D1*
X952366Y2981442D1*
X951416Y2982393D1*
X949492Y2983344D1*
X946618D1*
X944717Y2982393D1*
X942794Y2980470D1*
X941843Y2977595D1*
Y2975694D1*
X942794Y2972820D1*
X944717Y2970919D1*
X946618Y2969946D1*
X949492D1*
X951416Y2970919D1*
X953317Y2972820D1*
X970967Y2990042D2*
Y2969946D1*
Y2980470D2*
X969065Y2982393D1*
X967142Y2983344D1*
X964268D1*
X962367Y2982393D1*
X960443Y2980470D1*
X959493Y2977595D1*
Y2975694D1*
X960443Y2972820D1*
X962367Y2970919D1*
X964268Y2969946D1*
X967142D1*
X969065Y2970919D1*
X970967Y2972820D1*
X999457Y2990042D2*
Y2973771D1*
X1000407Y2970919D1*
X1002331Y2969946D1*
X1004232D1*
X996583Y2983344D2*
X1003281D1*
X1015183D2*
X1013282Y2982393D1*
X1011358Y2980470D1*
X1010408Y2977595D1*
Y2975694D1*
X1011358Y2972820D1*
X1013282Y2970919D1*
X1015183Y2969946D1*
X1018057D1*
X1019980Y2970919D1*
X1021882Y2972820D1*
X1022854Y2975694D1*
Y2977595D1*
X1021882Y2980470D1*
X1019980Y2982393D1*
X1018057Y2983344D1*
X1015183D1*
X1059966Y2980470D2*
X1058043Y2982393D1*
X1056120Y2983344D1*
X1053268D1*
X1051344Y2982393D1*
X1049443Y2980470D1*
X1048470Y2977595D1*
Y2975694D1*
X1049443Y2972820D1*
X1051344Y2970919D1*
X1053268Y2969946D1*
X1056120D1*
X1058043Y2970919D1*
X1059966Y2972820D1*
X1066142Y2990042D2*
Y2969946D1*
Y2979519D2*
X1069016Y2982393D1*
X1070940Y2983344D1*
X1073814D1*
X1075715Y2982393D1*
X1076666Y2979519D1*
Y2969946D1*
X1094315Y2983344D2*
Y2969946D1*
Y2980470D2*
X1092414Y2982393D1*
X1090491Y2983344D1*
X1087639D1*
X1085715Y2982393D1*
X1083814Y2980470D1*
X1082841Y2977595D1*
Y2975694D1*
X1083814Y2972820D1*
X1085715Y2970919D1*
X1087639Y2969946D1*
X1090491D1*
X1092414Y2970919D1*
X1094315Y2972820D1*
X1100491Y2983344D2*
Y2969946D1*
Y2979519D2*
X1103365Y2982393D1*
X1105288Y2983344D1*
X1108140D1*
X1110064Y2982393D1*
X1111014Y2979519D1*
Y2969946D1*
X1128664Y2982393D2*
Y2967072D1*
X1127713Y2964220D1*
X1126763Y2963248D1*
X1124839Y2962297D1*
X1121965D1*
X1120064Y2963248D1*
X1128664Y2979519D2*
X1126763Y2981420D1*
X1124839Y2982393D1*
X1121965D1*
X1120064Y2981420D1*
X1118141Y2979519D1*
X1117190Y2976645D1*
Y2974721D1*
X1118141Y2971870D1*
X1120064Y2969946D1*
X1121965Y2968996D1*
X1124839D1*
X1126763Y2969946D1*
X1128664Y2971870D1*
X1134840Y2977595D2*
X1146313D1*
Y2979519D1*
X1145363Y2981442D1*
X1144412Y2982393D1*
X1142489Y2983344D1*
X1139615D1*
X1137714Y2982393D1*
X1135790Y2980470D1*
X1134840Y2977595D1*
Y2975694D1*
X1135790Y2972820D1*
X1137714Y2970919D1*
X1139615Y2969946D1*
X1142489D1*
X1144412Y2970919D1*
X1146313Y2972820D1*
X1171930Y2990042D2*
Y2969946D1*
X1180552D1*
X1183426Y2970919D1*
X1184376Y2971870D1*
X1185327Y2973771D1*
Y2976645D1*
X1184376Y2978568D1*
X1183426Y2979519D1*
X1180552Y2980470D1*
X1183426Y2981442D1*
X1184376Y2982393D1*
X1185327Y2984294D1*
Y2986218D1*
X1184376Y2988119D1*
X1183426Y2989092D1*
X1180552Y2990042D1*
X1171930D1*
Y2980470D2*
X1180552D1*
X1202977Y2983344D2*
Y2969946D1*
Y2980470D2*
X1201075Y2982393D1*
X1199152Y2983344D1*
X1196300D1*
X1194377Y2982393D1*
X1192475Y2980470D1*
X1191503Y2977595D1*
Y2975694D1*
X1192475Y2972820D1*
X1194377Y2970919D1*
X1196300Y2969946D1*
X1199152D1*
X1201075Y2970919D1*
X1202977Y2972820D1*
X1212026Y2990042D2*
Y2973771D1*
X1212977Y2970919D1*
X1214900Y2969946D1*
X1216802D1*
X1209152Y2983344D2*
X1215851D1*
X1225851Y2990042D2*
Y2973771D1*
X1226802Y2970919D1*
X1228725Y2969946D1*
X1230627D1*
X1222977Y2983344D2*
X1229676D1*
X1236802Y2977595D2*
X1248276D1*
Y2979519D1*
X1247326Y2981442D1*
X1246375Y2982393D1*
X1244452Y2983344D1*
X1241578D1*
X1239676Y2982393D1*
X1237753Y2980470D1*
X1236802Y2977595D1*
Y2975694D1*
X1237753Y2972820D1*
X1239676Y2970919D1*
X1241578Y2969946D1*
X1244452D1*
X1246375Y2970919D1*
X1248276Y2972820D1*
X1254452Y2983344D2*
Y2969946D1*
Y2977595D2*
X1255425Y2980470D1*
X1257326Y2982393D1*
X1259249Y2983344D1*
X1262123D1*
X1269272D2*
X1274998Y2969946D1*
X1273096Y2966122D1*
X1271173Y2964198D1*
X1269272Y2963248D1*
X1268299D1*
X1280746Y2983344D2*
X1274998Y2969946D1*
X1306362Y2983344D2*
Y2963248D1*
Y2980470D2*
X1308285Y2982371D1*
X1310186Y2983344D1*
X1313060D1*
X1314984Y2982371D1*
X1316885Y2980470D1*
X1317858Y2977595D1*
Y2975672D1*
X1316885Y2972820D1*
X1314984Y2970897D1*
X1313060Y2969946D1*
X1310186D1*
X1308285Y2970897D1*
X1306362Y2972820D1*
X1335508Y2983344D2*
Y2969946D1*
Y2980470D2*
X1333606Y2982393D1*
X1331683Y2983344D1*
X1328831D1*
X1326908Y2982393D1*
X1325006Y2980470D1*
X1324034Y2977595D1*
Y2975694D1*
X1325006Y2972820D1*
X1326908Y2970919D1*
X1328831Y2969946D1*
X1331683D1*
X1333606Y2970919D1*
X1335508Y2972820D1*
X1344557Y2990042D2*
Y2973771D1*
X1345508Y2970919D1*
X1347431Y2969946D1*
X1349333D1*
X1341683Y2983344D2*
X1348382D1*
X1358382Y2990042D2*
Y2973771D1*
X1359333Y2970919D1*
X1361256Y2969946D1*
X1363158D1*
X1355508Y2983344D2*
X1362207D1*
X1369333Y2977595D2*
X1380807D1*
Y2979519D1*
X1379857Y2981442D1*
X1378906Y2982393D1*
X1376983Y2983344D1*
X1374109D1*
X1372207Y2982393D1*
X1370284Y2980470D1*
X1369333Y2977595D1*
Y2975694D1*
X1370284Y2972820D1*
X1372207Y2970919D1*
X1374109Y2969946D1*
X1376983D1*
X1378906Y2970919D1*
X1380807Y2972820D1*
X1386983Y2983344D2*
Y2969946D1*
Y2977595D2*
X1387956Y2980470D1*
X1389857Y2982393D1*
X1391780Y2983344D1*
X1394654D1*
X1400830D2*
Y2969946D1*
Y2979519D2*
X1403704Y2982393D1*
X1405627Y2983344D1*
X1408479D1*
X1410403Y2982393D1*
X1411353Y2979519D1*
Y2969946D1*
M02*
