%TF.GenerationSoftware,Novarm,DipTrace,3.2.0.1*%
%TF.CreationDate,2018-02-15T15:07:34-08:00*%
%FSLAX26Y26*%
%MOIN*%
%TF.FileFunction,Soldermask,Bot*%
%TF.Part,Single*%
%AMOUTLINE1*
4,1,4,
0.026163,0.026163,
0.026205,-0.026121,
-0.026121,-0.026205,
-0.026163,0.026163,
0.026163,0.026163,
0*%
%ADD33R,0.059055X0.059055*%
%ADD34C,0.059055*%
%ADD45C,0.074*%
%ADD60R,0.05937X0.05937*%
%ADD61C,0.05937*%
%ADD67C,0.137795*%
%ADD76C,0.056*%
%ADD118O,0.078866X0.051307*%
%ADD124C,0.067055*%
%ADD126R,0.067055X0.067055*%
%ADD142OUTLINE1*%
G75*
G01*
%LPD*%
D67*
X494016Y494016D3*
X2994016D3*
Y2794016D3*
X494016D3*
D126*
X484631Y2472185D3*
D124*
Y2572185D3*
D118*
X449314Y2280188D3*
Y2020345D3*
D142*
X469016Y1737765D3*
D45*
X569016Y1727765D3*
X669016Y1737765D3*
X769016Y1727765D3*
X869016Y1737765D3*
X969016Y1727765D3*
X1069016Y1737765D3*
X1169016Y1727765D3*
D33*
X2844016Y687765D3*
D34*
Y787765D3*
Y887765D3*
Y987765D3*
Y1087765D3*
Y1187765D3*
Y1287765D3*
Y1387765D3*
Y1487765D3*
Y1587765D3*
Y1687765D3*
Y1787765D3*
Y1887765D3*
Y1987765D3*
Y2087765D3*
Y2187765D3*
Y2287765D3*
D124*
Y2387765D3*
Y2487765D3*
Y2587765D3*
D33*
X2944016Y687765D3*
D34*
Y787765D3*
Y887765D3*
Y987765D3*
Y1087765D3*
Y1187765D3*
Y1287765D3*
Y1387765D3*
Y1487765D3*
Y1587765D3*
Y1687765D3*
Y1787765D3*
Y1887765D3*
Y1987765D3*
Y2087765D3*
Y2187765D3*
Y2287765D3*
D124*
Y2387765D3*
Y2487765D3*
Y2587765D3*
D45*
X1287765Y1756516D3*
Y2012516D3*
X1465765Y1756516D3*
Y2012516D3*
X1550265Y494016D3*
Y750016D3*
X1728265Y494016D3*
Y750016D3*
X1885683Y494016D3*
Y750016D3*
X2063683Y494016D3*
Y750016D3*
X2221099Y494016D3*
Y750016D3*
X2399099Y494016D3*
Y750016D3*
X2556516Y494016D3*
Y750016D3*
X2734516Y494016D3*
Y750016D3*
D60*
X2590891Y2722137D3*
D61*
Y2822137D3*
X2490891Y2722137D3*
Y2822137D3*
X2390891Y2722137D3*
Y2822137D3*
D60*
X2290891Y2722137D3*
D61*
Y2822137D3*
D76*
X1584641Y1050269D3*
Y1240269D3*
M02*
