%TF.GenerationSoftware,Novarm,DipTrace,3.2.0.1*%
%TF.CreationDate,2018-02-15T15:07:32-08:00*%
%FSLAX26Y26*%
%MOIN*%
%TF.FileFunction,Drawing,Top*%
%TF.Part,Single*%
%ADD15C,0.006*%
%ADD18C,0.008*%
%ADD31C,0.005*%
%ADD138C,0.003088*%
G75*
G01*
%LPD*%
X608212Y2565119D2*
D31*
Y2683218D1*
X667268D1*
Y2565119D1*
X608212D1*
X677740Y2579167D2*
X597740Y2634162D1*
Y2669170D1*
G36*
X1079016Y1742765D2*
X1059016D1*
Y1722745D1*
X1079016D1*
Y1742765D1*
G37*
G36*
X979016D2*
X959016D1*
Y1722745D1*
X979016D1*
Y1742765D1*
G37*
G36*
X879016D2*
X859016D1*
Y1722745D1*
X879016D1*
Y1742765D1*
G37*
G36*
X779016D2*
X759016D1*
Y1722745D1*
X779016D1*
Y1742765D1*
G37*
G36*
X679016D2*
X659016D1*
Y1722745D1*
X679016D1*
Y1742765D1*
G37*
G36*
X579016D2*
X559016D1*
Y1722745D1*
X579016D1*
Y1742765D1*
G37*
G36*
X479016D2*
X459016D1*
Y1722745D1*
X479016D1*
Y1742765D1*
G37*
G36*
X1179016D2*
X1159016D1*
Y1722745D1*
X1179016D1*
Y1742765D1*
G37*
X1336773Y2004504D2*
D18*
X1276772D1*
X1256763Y1984506D1*
X1496768D2*
X1476759Y2004504D1*
X1416758D1*
X1256763Y1784526D2*
X1276772Y1764528D1*
X1336773D1*
X1496768Y1784526D2*
X1476759Y1764528D1*
X1416758D1*
X1496768Y1984506D2*
Y1969524D1*
Y1784526D2*
Y1799508D1*
X1256763Y1784526D2*
Y1799508D1*
Y1984506D2*
Y1969524D1*
X1326769Y1784526D2*
X1356757D1*
X1396774D2*
X1426762D1*
X1356757D2*
X1391759Y1799508D1*
X1599273Y742004D2*
X1539272D1*
X1519263Y722006D1*
X1759268D2*
X1739259Y742004D1*
X1679258D1*
X1519263Y522026D2*
X1539272Y502028D1*
X1599273D1*
X1759268Y522026D2*
X1739259Y502028D1*
X1679258D1*
X1759268Y722006D2*
Y707024D1*
Y522026D2*
Y537008D1*
X1519263Y522026D2*
Y537008D1*
Y722006D2*
Y707024D1*
X1589269Y522026D2*
X1619257D1*
X1659274D2*
X1689262D1*
X1619257D2*
X1654259Y537008D1*
X1934690Y742004D2*
X1874689D1*
X1854680Y722006D1*
X2094685D2*
X2074676Y742004D1*
X2014675D1*
X1854680Y522026D2*
X1874689Y502028D1*
X1934690D1*
X2094685Y522026D2*
X2074676Y502028D1*
X2014675D1*
X2094685Y722006D2*
Y707024D1*
Y522026D2*
Y537008D1*
X1854680Y522026D2*
Y537008D1*
Y722006D2*
Y707024D1*
X1924686Y522026D2*
X1954674D1*
X1994691D2*
X2024679D1*
X1954674D2*
X1989677Y537008D1*
X2270106Y742004D2*
X2210105D1*
X2190096Y722006D1*
X2430101D2*
X2410092Y742004D1*
X2350091D1*
X2190096Y522026D2*
X2210105Y502028D1*
X2270106D1*
X2430101Y522026D2*
X2410092Y502028D1*
X2350091D1*
X2430101Y722006D2*
Y707024D1*
Y522026D2*
Y537008D1*
X2190096Y522026D2*
Y537008D1*
Y722006D2*
Y707024D1*
X2260102Y522026D2*
X2290090D1*
X2330107D2*
X2360095D1*
X2290090D2*
X2325093Y537008D1*
X2605524Y742004D2*
X2545522D1*
X2525514Y722006D1*
X2765518D2*
X2745510Y742004D1*
X2685508D1*
X2525514Y522026D2*
X2545522Y502028D1*
X2605524D1*
X2765518Y522026D2*
X2745510Y502028D1*
X2685508D1*
X2765518Y722006D2*
Y707024D1*
Y522026D2*
Y537008D1*
X2525514Y522026D2*
Y537008D1*
Y722006D2*
Y707024D1*
X2595519Y522026D2*
X2625507D1*
X2665525D2*
X2695513D1*
X2625507D2*
X2660510Y537008D1*
G36*
X815421Y2507548D2*
X835083D1*
Y2533147D1*
X815421D1*
Y2507548D1*
G37*
G36*
X778018D2*
X797692D1*
Y2533147D1*
X778018D1*
Y2507548D1*
G37*
G36*
X740627D2*
X760288D1*
Y2533147D1*
X740627D1*
Y2507548D1*
G37*
G36*
Y2415026D2*
X760288D1*
Y2440625D1*
X740627D1*
Y2415026D1*
G37*
G36*
X815421D2*
X835083D1*
Y2440625D1*
X815421D1*
Y2415026D1*
G37*
X732747Y2505573D2*
D15*
X842987D1*
Y2442585D2*
X732747D1*
Y2505573D1*
X842987Y2442585D2*
Y2505573D1*
X918333Y2990357D2*
D138*
Y2970261D1*
X904935Y2990357D1*
Y2970261D1*
X924508Y2977910D2*
X935982D1*
Y2979834D1*
X935032Y2981757D1*
X934081Y2982708D1*
X932158Y2983659D1*
X929284D1*
X927382Y2982708D1*
X925459Y2980785D1*
X924508Y2977910D1*
Y2976009D1*
X925459Y2973135D1*
X927382Y2971234D1*
X929284Y2970261D1*
X932158D1*
X934081Y2971234D1*
X935982Y2973135D1*
X942158Y2977910D2*
X953632D1*
Y2979834D1*
X952681Y2981757D1*
X951731Y2982708D1*
X949807Y2983659D1*
X946933D1*
X945032Y2982708D1*
X943109Y2980785D1*
X942158Y2977910D1*
Y2976009D1*
X943109Y2973135D1*
X945032Y2971234D1*
X946933Y2970261D1*
X949807D1*
X951731Y2971234D1*
X953632Y2973135D1*
X971282Y2990357D2*
Y2970261D1*
Y2980785D2*
X969380Y2982708D1*
X967457Y2983659D1*
X964583D1*
X962682Y2982708D1*
X960758Y2980785D1*
X959808Y2977910D1*
Y2976009D1*
X960758Y2973135D1*
X962682Y2971234D1*
X964583Y2970261D1*
X967457D1*
X969380Y2971234D1*
X971282Y2973135D1*
X999772Y2990357D2*
Y2974086D1*
X1000722Y2971234D1*
X1002646Y2970261D1*
X1004547D1*
X996898Y2983659D2*
X1003596D1*
X1015498D2*
X1013597Y2982708D1*
X1011673Y2980785D1*
X1010723Y2977910D1*
Y2976009D1*
X1011673Y2973135D1*
X1013597Y2971234D1*
X1015498Y2970261D1*
X1018372D1*
X1020295Y2971234D1*
X1022197Y2973135D1*
X1023169Y2976009D1*
Y2977910D1*
X1022197Y2980785D1*
X1020295Y2982708D1*
X1018372Y2983659D1*
X1015498D1*
X1060281Y2980785D2*
X1058358Y2982708D1*
X1056435Y2983659D1*
X1053583D1*
X1051659Y2982708D1*
X1049758Y2980785D1*
X1048785Y2977910D1*
Y2976009D1*
X1049758Y2973135D1*
X1051659Y2971234D1*
X1053583Y2970261D1*
X1056435D1*
X1058358Y2971234D1*
X1060281Y2973135D1*
X1066457Y2990357D2*
Y2970261D1*
Y2979834D2*
X1069331Y2982708D1*
X1071255Y2983659D1*
X1074129D1*
X1076030Y2982708D1*
X1076981Y2979834D1*
Y2970261D1*
X1094630Y2983659D2*
Y2970261D1*
Y2980785D2*
X1092729Y2982708D1*
X1090806Y2983659D1*
X1087954D1*
X1086030Y2982708D1*
X1084129Y2980785D1*
X1083156Y2977910D1*
Y2976009D1*
X1084129Y2973135D1*
X1086030Y2971234D1*
X1087954Y2970261D1*
X1090806D1*
X1092729Y2971234D1*
X1094630Y2973135D1*
X1100806Y2983659D2*
Y2970261D1*
Y2979834D2*
X1103680Y2982708D1*
X1105603Y2983659D1*
X1108455D1*
X1110379Y2982708D1*
X1111329Y2979834D1*
Y2970261D1*
X1128979Y2982708D2*
Y2967387D1*
X1128028Y2964535D1*
X1127078Y2963563D1*
X1125154Y2962612D1*
X1122280D1*
X1120379Y2963563D1*
X1128979Y2979834D2*
X1127078Y2981735D1*
X1125154Y2982708D1*
X1122280D1*
X1120379Y2981735D1*
X1118456Y2979834D1*
X1117505Y2976960D1*
Y2975036D1*
X1118456Y2972185D1*
X1120379Y2970261D1*
X1122280Y2969311D1*
X1125154D1*
X1127078Y2970261D1*
X1128979Y2972185D1*
X1135155Y2977910D2*
X1146628D1*
Y2979834D1*
X1145678Y2981757D1*
X1144727Y2982708D1*
X1142804Y2983659D1*
X1139930D1*
X1138029Y2982708D1*
X1136105Y2980785D1*
X1135155Y2977910D1*
Y2976009D1*
X1136105Y2973135D1*
X1138029Y2971234D1*
X1139930Y2970261D1*
X1142804D1*
X1144727Y2971234D1*
X1146628Y2973135D1*
X1172245Y2990357D2*
Y2970261D1*
X1180867D1*
X1183741Y2971234D1*
X1184691Y2972185D1*
X1185642Y2974086D1*
Y2976960D1*
X1184691Y2978883D1*
X1183741Y2979834D1*
X1180867Y2980785D1*
X1183741Y2981757D1*
X1184691Y2982708D1*
X1185642Y2984609D1*
Y2986533D1*
X1184691Y2988434D1*
X1183741Y2989407D1*
X1180867Y2990357D1*
X1172245D1*
Y2980785D2*
X1180867D1*
X1203292Y2983659D2*
Y2970261D1*
Y2980785D2*
X1201390Y2982708D1*
X1199467Y2983659D1*
X1196615D1*
X1194692Y2982708D1*
X1192790Y2980785D1*
X1191818Y2977910D1*
Y2976009D1*
X1192790Y2973135D1*
X1194692Y2971234D1*
X1196615Y2970261D1*
X1199467D1*
X1201390Y2971234D1*
X1203292Y2973135D1*
X1212341Y2990357D2*
Y2974086D1*
X1213292Y2971234D1*
X1215215Y2970261D1*
X1217117D1*
X1209467Y2983659D2*
X1216166D1*
X1226166Y2990357D2*
Y2974086D1*
X1227117Y2971234D1*
X1229040Y2970261D1*
X1230942D1*
X1223292Y2983659D2*
X1229991D1*
X1237117Y2977910D2*
X1248591D1*
Y2979834D1*
X1247641Y2981757D1*
X1246690Y2982708D1*
X1244767Y2983659D1*
X1241893D1*
X1239991Y2982708D1*
X1238068Y2980785D1*
X1237117Y2977910D1*
Y2976009D1*
X1238068Y2973135D1*
X1239991Y2971234D1*
X1241893Y2970261D1*
X1244767D1*
X1246690Y2971234D1*
X1248591Y2973135D1*
X1254767Y2983659D2*
Y2970261D1*
Y2977910D2*
X1255740Y2980785D1*
X1257641Y2982708D1*
X1259564Y2983659D1*
X1262438D1*
X1269587D2*
X1275313Y2970261D1*
X1273411Y2966437D1*
X1271488Y2964513D1*
X1269587Y2963563D1*
X1268614D1*
X1281061Y2983659D2*
X1275313Y2970261D1*
X1306677Y2983659D2*
Y2963563D1*
Y2980785D2*
X1308600Y2982686D1*
X1310501Y2983659D1*
X1313375D1*
X1315299Y2982686D1*
X1317200Y2980785D1*
X1318173Y2977910D1*
Y2975987D1*
X1317200Y2973135D1*
X1315299Y2971212D1*
X1313375Y2970261D1*
X1310501D1*
X1308600Y2971212D1*
X1306677Y2973135D1*
X1335823Y2983659D2*
Y2970261D1*
Y2980785D2*
X1333921Y2982708D1*
X1331998Y2983659D1*
X1329146D1*
X1327223Y2982708D1*
X1325321Y2980785D1*
X1324349Y2977910D1*
Y2976009D1*
X1325321Y2973135D1*
X1327223Y2971234D1*
X1329146Y2970261D1*
X1331998D1*
X1333921Y2971234D1*
X1335823Y2973135D1*
X1344872Y2990357D2*
Y2974086D1*
X1345823Y2971234D1*
X1347746Y2970261D1*
X1349648D1*
X1341998Y2983659D2*
X1348697D1*
X1358697Y2990357D2*
Y2974086D1*
X1359648Y2971234D1*
X1361571Y2970261D1*
X1363473D1*
X1355823Y2983659D2*
X1362522D1*
X1369648Y2977910D2*
X1381122D1*
Y2979834D1*
X1380172Y2981757D1*
X1379221Y2982708D1*
X1377298Y2983659D1*
X1374424D1*
X1372522Y2982708D1*
X1370599Y2980785D1*
X1369648Y2977910D1*
Y2976009D1*
X1370599Y2973135D1*
X1372522Y2971234D1*
X1374424Y2970261D1*
X1377298D1*
X1379221Y2971234D1*
X1381122Y2973135D1*
X1387298Y2983659D2*
Y2970261D1*
Y2977910D2*
X1388271Y2980785D1*
X1390172Y2982708D1*
X1392095Y2983659D1*
X1394969D1*
X1401145D2*
Y2970261D1*
Y2979834D2*
X1404019Y2982708D1*
X1405942Y2983659D1*
X1408794D1*
X1410718Y2982708D1*
X1411668Y2979834D1*
Y2970261D1*
M02*
