%TF.GenerationSoftware,Novarm,DipTrace,3.2.0.1*%
%TF.CreationDate,2018-06-28T18:28:34-08:00*%
%FSLAX26Y26*%
%MOIN*%
%TF.FileFunction,Paste,Top*%
%TF.Part,Single*%
%AMOUTLINE0*
4,1,4,
-0.035433,0.019685,
-0.035433,-0.019685,
0.035433,-0.019685,
0.035433,0.019685,
-0.035433,0.019685,
0*%
%AMOUTLINE2*
4,1,4,
-0.023622,0.015748,
-0.023622,-0.015748,
0.023622,-0.015748,
0.023622,0.015748,
-0.023622,0.015748,
0*%
%AMOUTLINE3*
4,1,4,
-0.010827,-0.023622,
0.010827,-0.023622,
0.010827,0.023622,
-0.010827,0.023622,
-0.010827,-0.023622,
0*%
%ADD26R,0.03937X0.043307*%
%ADD27R,0.043307X0.03937*%
%ADD49R,0.062992X0.011811*%
%ADD50R,0.011811X0.062992*%
%ADD62R,0.07874X0.023622*%
%ADD64R,0.074803X0.059055*%
%ADD79R,0.066803X0.051055*%
%ADD87R,0.011685X0.003811*%
%ADD89R,0.003811X0.011685*%
%ADD91R,0.062866X0.007748*%
%ADD93R,0.007748X0.07074*%
%ADD95R,0.129795X0.129795*%
%ADD97O,0.003811X0.025465*%
%ADD99O,0.025465X0.003811*%
%ADD107R,0.037669X0.041213*%
%ADD109R,0.037669X0.039244*%
%ADD111R,0.051055X0.037276*%
%ADD113R,0.037276X0.078614*%
%ADD115R,0.037276X0.090425*%
%ADD117R,0.023496X0.040819*%
%ADD121R,0.047118X0.054992*%
%ADD123R,0.04515X0.007748*%
%ADD129R,0.015622X0.015622*%
%ADD131R,0.051055X0.043181*%
%ADD133R,0.035307X0.03137*%
%ADD135R,0.03137X0.035307*%
%ADD137R,0.14948X0.133732*%
%ADD142OUTLINE0*%
%ADD144OUTLINE2*%
%ADD145OUTLINE3*%
G75*
G01*
%LPD*%
D137*
X1443702Y2709324D3*
X1128742D3*
X813781D3*
D26*
X1796824Y1287450D3*
Y1220521D3*
X1749809Y1543843D3*
Y1610772D3*
X1497617Y1541625D3*
Y1608554D3*
D135*
X1728075Y1221827D3*
Y1288756D3*
D26*
X1815427Y1543843D3*
Y1610772D3*
D135*
X1728075Y1137450D3*
Y1070521D3*
D27*
X2050125Y1768832D3*
X1983196D3*
X1956365Y1031257D3*
X2023294D3*
D26*
X2531200Y1143698D3*
Y1210628D3*
D27*
X2227883Y1025149D3*
X2160954D3*
D26*
X2559326Y1518701D3*
Y1585630D3*
D131*
X1156201Y2318701D3*
Y2243898D3*
D27*
X2187263Y1765693D3*
X2254192D3*
D131*
X1252987Y2315448D3*
Y2240645D3*
X1352978Y2315448D3*
Y2240645D3*
D133*
X749316Y737225D3*
X816246D3*
X878080D3*
X945009D3*
X1135607D3*
X1202536D3*
X1264370D3*
X1331299D3*
D135*
X2206011Y2515616D3*
Y2582545D3*
D133*
X816625Y680526D3*
X749696D3*
D26*
X1399950Y676772D3*
Y743701D3*
D27*
X1331299Y680969D3*
X1264370D3*
D26*
X1877166Y2014666D3*
Y1947736D3*
D133*
X1135692Y681201D3*
X1202621D3*
X1007110D3*
X1074040D3*
D129*
X676013Y2468746D3*
X589399D3*
X676013Y2368756D3*
X589399D3*
D142*
X637425Y2568735D3*
Y2678971D3*
D123*
X554235Y2201133D3*
Y2175542D3*
Y2149952D3*
Y2124361D3*
Y2098771D3*
D121*
X545377Y2275936D3*
Y2023967D3*
D117*
X1745110Y2820899D3*
X1788418D3*
X1831725D3*
X1875032D3*
X1918339D3*
X1961646D3*
X2004953D3*
X2048260D3*
D115*
X1578181Y2796109D3*
D113*
Y2350046D3*
D111*
X1747473Y2318550D3*
X2053772D3*
D109*
X2125032Y2357132D3*
D107*
Y2711462D3*
D113*
X2140780Y2796109D3*
D144*
X1771974Y1350042D3*
Y1420908D3*
X2206011Y2331260D3*
Y2402126D3*
D133*
X1337709Y2083452D3*
X1404638D3*
X824906Y1921928D3*
X891835D3*
X681171D3*
X748100D3*
X1106126D3*
X1173055D3*
X965516D3*
X1032445D3*
X2605709Y831201D3*
X2672638D3*
X2278625Y818701D3*
X2345554D3*
X1945293D3*
X2012222D3*
X1611960D3*
X1678889D3*
X1787112Y2137624D3*
X1854041D3*
X1593341D3*
X1660271D3*
X2040267Y2128247D3*
X2107196D3*
X2768208Y2709334D3*
X2835137D3*
X2768208Y2784334D3*
X2835137D3*
D26*
X1781355Y1735958D3*
Y1802887D3*
X1856355Y1737582D3*
Y1804511D3*
X1631201Y1912452D3*
Y1845523D3*
D27*
X1339378Y2143874D3*
X1406307D3*
X678576Y1834437D3*
X611647D3*
X866307D3*
X933236D3*
X993638D3*
X1060567D3*
X805907D3*
X738978D3*
X484316D3*
X551246D3*
D26*
X1968866Y2125122D3*
Y2192051D3*
D135*
X2468483Y1094076D3*
Y1027147D3*
D27*
X821781Y2003170D3*
X888710D3*
X678046D3*
X744975D3*
D133*
X903929Y2375912D3*
X970858D3*
D27*
X1099877Y2003170D3*
X1166806D3*
D135*
X2412239Y1093890D3*
Y1026961D3*
D26*
X1562452Y1912452D3*
Y1845523D3*
D27*
X962391Y2003170D3*
X1029320D3*
X2662452Y887449D3*
X2595523D3*
X2339488Y874949D3*
X2272559D3*
X2012450Y874950D3*
X1945521D3*
X1681066Y874949D3*
X1614137D3*
D26*
X1912442Y2124950D3*
Y2191879D3*
D27*
X1783012Y2193701D3*
X1849941D3*
D26*
X1718692Y2124950D3*
Y2191879D3*
D27*
X1587440Y2193701D3*
X1654369D3*
D26*
X2172016Y2121996D3*
Y2188925D3*
D27*
X2040752Y2190753D3*
X2107681D3*
D26*
X1464774Y739696D3*
Y672767D3*
Y562466D3*
Y495537D3*
D133*
X1073772Y737225D3*
X1006843D3*
D26*
X1802310Y739696D3*
Y672767D3*
Y562466D3*
Y495537D3*
X2141673Y720944D3*
Y654015D3*
X2139845Y562466D3*
Y495537D3*
X2475170Y724983D3*
Y658054D3*
Y568717D3*
Y501788D3*
X1871067Y1089463D3*
Y1022534D3*
X1814811Y1089463D3*
Y1022534D3*
D27*
X2590578Y1212450D3*
X2657507D3*
X2590579Y1118704D3*
X2657508D3*
X2584328Y1024958D3*
X2651257D3*
X2540576Y2146824D3*
X2607505D3*
X2540578Y2074952D3*
X2607507D3*
X2540814Y1996987D3*
X2607743D3*
X2538133Y2522772D3*
X2605062D3*
D26*
X2662689Y1412547D3*
Y1345618D3*
D27*
X2393701Y2521826D3*
X2460630D3*
D133*
X878530Y681201D3*
X945460D3*
D49*
X1894685Y1562450D3*
Y1542765D3*
Y1523080D3*
Y1503395D3*
Y1483710D3*
Y1464025D3*
Y1444340D3*
Y1424655D3*
Y1404970D3*
Y1385285D3*
Y1365600D3*
Y1345915D3*
Y1326230D3*
Y1306545D3*
Y1286860D3*
Y1267175D3*
Y1247490D3*
Y1227805D3*
Y1208120D3*
Y1188435D3*
D50*
X1971457Y1111663D3*
X1991142D3*
X2010827D3*
X2030512D3*
X2050197D3*
X2069882D3*
X2089567D3*
X2109252D3*
X2128937D3*
X2148622D3*
X2168307D3*
X2187992D3*
X2207677D3*
X2227362D3*
X2247047D3*
X2266732D3*
X2286418D3*
X2306103D3*
X2325788D3*
X2345473D3*
D49*
X2422244Y1188435D3*
Y1208120D3*
Y1227805D3*
Y1247490D3*
Y1267175D3*
Y1286860D3*
Y1306545D3*
Y1326230D3*
Y1345915D3*
Y1365600D3*
Y1385285D3*
Y1404970D3*
Y1424655D3*
Y1444340D3*
Y1464025D3*
Y1483710D3*
Y1503395D3*
Y1523080D3*
Y1542765D3*
Y1562450D3*
D50*
X2345473Y1639222D3*
X2325788D3*
X2306103D3*
X2286418D3*
X2266732D3*
X2247047D3*
X2227362D3*
X2207677D3*
X2187992D3*
X2168307D3*
X2148622D3*
X2128937D3*
X2109252D3*
X2089567D3*
X2069882D3*
X2050197D3*
X2030512D3*
X2010827D3*
X1991142D3*
X1971457D3*
D145*
X824952Y2524949D3*
X787550D3*
X750149D3*
Y2422579D3*
X824952D3*
D99*
X741831Y2254307D3*
Y2234622D3*
Y2214937D3*
Y2195252D3*
Y2175567D3*
Y2155882D3*
Y2136197D3*
D97*
X781201Y2096827D3*
X800886D3*
X820571D3*
X840256D3*
X859941D3*
X879626D3*
X899311D3*
D99*
X938681Y2136197D3*
Y2155882D3*
Y2175567D3*
Y2195252D3*
Y2214937D3*
Y2234622D3*
Y2254307D3*
D97*
X899311Y2293677D3*
X879626D3*
X859941D3*
X840256D3*
X820571D3*
X800886D3*
X781201D3*
D95*
X840256Y2195252D3*
D93*
X543701Y993701D3*
X571260D3*
X598819D3*
X626378D3*
X653937D3*
X681496D3*
X709055D3*
X736614D3*
X764173D3*
X791732D3*
X819292D3*
X846851D3*
X874410D3*
X901969D3*
X929528D3*
X957087D3*
X984646D3*
X1012205D3*
X1039764D3*
X1067323D3*
X1094882D3*
X1122441D3*
X1150000D3*
X1177559D3*
X1205118D3*
X1232677D3*
X1260236D3*
X1287795D3*
X1315355D3*
X1342914D3*
D91*
X640576Y549950D3*
Y524360D3*
Y498769D3*
Y473179D3*
X868923D3*
Y498769D3*
Y524360D3*
Y549950D3*
D89*
X1299950Y593701D3*
X1280265D3*
X1260580D3*
X1240895D3*
X1221210D3*
D87*
X1211368Y564173D3*
Y544488D3*
Y524803D3*
D89*
X1240895Y495276D3*
X1260580D3*
X1280265D3*
X1299950D3*
D87*
X1309793Y524803D3*
Y544488D3*
Y564173D3*
D89*
X1221210Y495276D3*
D62*
X2065576Y2003076D3*
Y1953076D3*
Y1903076D3*
Y1853076D3*
X2278175D3*
Y1903076D3*
Y1953076D3*
Y2003076D3*
D129*
X1002314Y453078D3*
X1057432D3*
Y492841D3*
X1002314D3*
Y532605D3*
X1057432D3*
Y572369D3*
X1002314D3*
D64*
X1681066Y1465726D3*
Y1682261D3*
D79*
X1555082D3*
Y1465726D3*
D135*
X1062451Y2310630D3*
Y2243701D3*
M02*
