%TF.GenerationSoftware,Novarm,DipTrace,3.2.0.1*%
%TF.CreationDate,2018-06-25T19:00:36-08:00*%
%FSLAX26Y26*%
%MOIN*%
%TF.FileFunction,Legend,Top*%
%TF.Part,Single*%
%ADD10C,0.009843*%
%ADD31C,0.003088*%
G75*
G01*
%LPD*%
X1035520Y913758D2*
D10*
X539457D1*
Y716905D1*
X1035520D1*
Y913758D1*
G36*
X1014437Y901247D2*
X995686D1*
Y882510D1*
X1014437D1*
Y901247D1*
G37*
X933231Y913758D2*
D10*
X633213D1*
Y876255D1*
X933231D1*
Y913758D1*
X393199Y507201D2*
X1193199D1*
X393199Y407201D2*
Y507201D1*
Y407201D2*
X1193199D1*
Y507201D1*
X775303Y825818D2*
D31*
Y811470D1*
X776254Y808596D1*
X778177Y806695D1*
X781051Y805722D1*
X782952D1*
X785826Y806695D1*
X787750Y808596D1*
X788700Y811470D1*
Y825818D1*
X794876Y821971D2*
X796799Y822944D1*
X799673Y825796D1*
Y805722D1*
X592499Y473990D2*
Y458691D1*
X591549Y455817D1*
X590576Y454867D1*
X588675Y453894D1*
X586751D1*
X584850Y454867D1*
X583899Y455817D1*
X582927Y458691D1*
Y460593D1*
X598675Y470143D2*
X600598Y471116D1*
X603472Y473968D1*
Y453894D1*
X1167487Y528383D2*
X1159838Y548479D1*
X1152189Y528383D1*
X1131665Y533159D2*
X1132616Y531257D1*
X1134539Y529334D1*
X1136441Y528383D1*
X1140265D1*
X1142189Y529334D1*
X1144090Y531257D1*
X1145063Y533159D1*
X1146013Y536033D1*
Y540830D1*
X1145063Y543682D1*
X1144090Y545605D1*
X1142189Y547507D1*
X1140265Y548479D1*
X1136441D1*
X1134539Y547507D1*
X1132616Y545605D1*
X1131665Y543682D1*
X1111142Y533159D2*
X1112092Y531257D1*
X1114016Y529334D1*
X1115917Y528383D1*
X1119742D1*
X1121665Y529334D1*
X1123566Y531257D1*
X1124539Y533159D1*
X1125490Y536033D1*
Y540830D1*
X1124539Y543682D1*
X1123566Y545605D1*
X1121665Y547506D1*
X1119742Y548479D1*
X1115917D1*
X1114016Y547506D1*
X1112092Y545605D1*
X1111142Y543682D1*
X447839Y528383D2*
X447840Y548479D1*
X461237Y528383D1*
Y548479D1*
X427316Y533159D2*
X428266Y531257D1*
X430190Y529334D1*
X432091Y528383D1*
X435916D1*
X437839Y529334D1*
X439740Y531257D1*
X440713Y533159D1*
X441664Y536033D1*
Y540830D1*
X440713Y543682D1*
X439740Y545605D1*
X437839Y547507D1*
X435916Y548479D1*
X432091D1*
X430190Y547507D1*
X428267Y545605D1*
X427316Y543682D1*
X567038Y528382D2*
Y548478D1*
X573737Y528382D2*
X560339D1*
X539816Y533157D2*
X540766Y531256D1*
X542690Y529333D1*
X544591Y528382D1*
X548416D1*
X550339Y529333D1*
X552240Y531256D1*
X553213Y533157D1*
X554164Y536031D1*
Y540829D1*
X553213Y543681D1*
X552240Y545604D1*
X550339Y547505D1*
X548416Y548478D1*
X544591D1*
X542690Y547505D1*
X540767Y545604D1*
X539816Y543681D1*
X533640Y528382D2*
Y548478D1*
X520243Y528382D2*
X533640Y541779D1*
X528865Y536982D2*
X520243Y548478D1*
X647839Y528382D2*
X647840Y548478D1*
X661237Y528382D1*
Y548478D1*
X627316Y533157D2*
X628266Y531256D1*
X630190Y529333D1*
X632091Y528382D1*
X635916D1*
X637839Y529333D1*
X639740Y531256D1*
X640713Y533157D1*
X641664Y536031D1*
Y540829D1*
X640713Y543681D1*
X639740Y545604D1*
X637839Y547505D1*
X635916Y548478D1*
X632091D1*
X630190Y547505D1*
X628267Y545604D1*
X627316Y543681D1*
X860787Y528382D2*
X860788Y548478D1*
X867486Y528382D2*
X854089D1*
X847913D2*
Y548478D1*
X841215D1*
X838341Y547505D1*
X836417Y545604D1*
X835467Y543681D1*
X834516Y540829D1*
Y536031D1*
X835466Y533157D1*
X836417Y531256D1*
X838340Y529333D1*
X841214Y528382D1*
X847913D1*
X822592D2*
X824516Y529333D1*
X826417Y531256D1*
X827390Y533157D1*
X828340Y536031D1*
Y540829D1*
X827390Y543681D1*
X826417Y545604D1*
X824516Y547505D1*
X822592Y548478D1*
X818768D1*
X816866Y547505D1*
X814943Y545604D1*
X813992Y543681D1*
X813042Y540829D1*
Y536031D1*
X813992Y533157D1*
X814943Y531256D1*
X816866Y529333D1*
X818767Y528382D1*
X822592D1*
X767038Y528383D2*
Y548479D1*
X773737Y528383D2*
X760339D1*
X738865Y548479D2*
Y528383D1*
X746515Y548479D1*
X754164Y528383D1*
Y548479D1*
X719292Y531257D2*
X721193Y529334D1*
X724067Y528383D1*
X727892D1*
X730766Y529334D1*
X732690Y531257D1*
Y533159D1*
X731717Y535082D1*
X730766Y536033D1*
X728865Y536983D1*
X723117Y538907D1*
X721194Y539857D1*
X720243Y540830D1*
X719292Y542731D1*
Y545605D1*
X721194Y547506D1*
X724068Y548479D1*
X727892D1*
X730766Y547506D1*
X732690Y545605D1*
X954537Y528383D2*
Y548479D1*
X961235Y528383D2*
X947838D1*
X941662D2*
X941663Y548479D1*
X934964D1*
X932090Y547507D1*
X930166Y545605D1*
X929216Y543682D1*
X928265Y540830D1*
Y536033D1*
X929216Y533159D1*
X930166Y531257D1*
X932090Y529334D1*
X934964Y528383D1*
X941662D1*
X922089D2*
X922090Y548479D1*
X1057919Y533157D2*
X1058870Y531256D1*
X1060793Y529333D1*
X1062694Y528382D1*
X1066519D1*
X1068442Y529333D1*
X1070344Y531256D1*
X1071316Y533157D1*
X1072267Y536031D1*
Y540829D1*
X1071316Y543681D1*
X1070344Y545604D1*
X1068442Y547505D1*
X1066519Y548478D1*
X1062694D1*
X1060793Y547505D1*
X1058870Y545604D1*
X1057919Y543681D1*
Y540829D1*
X1062694D1*
X1038346Y528382D2*
Y548478D1*
X1051743Y528382D1*
Y548478D1*
X1032170Y528382D2*
Y548478D1*
X1025472D1*
X1022598Y547505D1*
X1020674Y545604D1*
X1019724Y543681D1*
X1018773Y540829D1*
Y536031D1*
X1019724Y533157D1*
X1020674Y531256D1*
X1022598Y529333D1*
X1025472Y528382D1*
X1032170D1*
M02*
