%TF.GenerationSoftware,Novarm,DipTrace,3.2.0.1*%
%TF.CreationDate,2017-11-16T22:50:53-08:00*%
%FSLAX26Y26*%
%MOIN*%
%TF.FileFunction,Copper,L3,Inr*%
%TF.Part,Single*%
%AMOUTLINE6*
4,1,4,
0.026163,0.026163,
0.026205,-0.026121,
-0.026121,-0.026205,
-0.026163,0.026163,
0.026163,0.026163,
0*%
%TA.AperFunction,Conductor*%
%ADD18C,0.006*%
%TA.AperFunction,ComponentPad*%
%ADD24R,0.047992X0.047992*%
%ADD25C,0.048*%
%ADD30C,0.074*%
%ADD33C,0.052*%
%ADD41R,0.05937X0.05937*%
%ADD42C,0.05937*%
%ADD47R,0.059055X0.059055*%
%ADD48C,0.059055*%
%TA.AperFunction,ViaPad*%
%ADD49C,0.015*%
%TA.AperFunction,ComponentPad*%
%ADD106OUTLINE6*%
G75*
G01*
%LPD*%
X719000Y2197125D2*
D18*
X703375D1*
X687749Y2212751D1*
Y2259623D1*
X703375Y2275249D1*
X719000D1*
X2350251Y1306500D2*
X2348688Y1304937D1*
X2369000Y1284625D1*
X2447126D1*
X2475251Y1312749D1*
Y1672125D1*
X2503375Y1700249D1*
X2628375Y1715875D2*
Y2372125D1*
X2844000Y2587749D1*
X971455Y995181D2*
X1092819D1*
X1165875Y922125D1*
Y531967D1*
X1206596Y491247D1*
X1975249Y1415875D2*
X1934625Y1456500D1*
X1500251D1*
X1290875Y1247125D1*
Y1162751D1*
X1123306Y995181D1*
X1092819D1*
X1972125Y1456500D2*
X2212751D1*
X2390875Y1634625D1*
Y1744000D1*
X2481500Y1834625D1*
X2656500Y1890875D2*
X2747126D1*
X2844000Y1987749D1*
X1991441Y1227810D2*
X2078375Y1140875D1*
Y1103375D1*
X2128375Y1053375D1*
X2647125D1*
X2700251Y1000249D1*
X2831500D1*
X2844000Y987749D1*
X2128375Y1337751D2*
X2131500Y1334626D1*
X2100249Y1303375D1*
Y1119000D1*
X2147125Y1072125D1*
X2681501D1*
X2700251Y1053375D1*
X2809626D1*
X2844000Y1087749D1*
X2212749Y1337749D2*
X2122125Y1247125D1*
Y1128374D1*
X2150249Y1100249D1*
X2593999D1*
X2609625Y1115875D1*
X2772126D1*
X2844000Y1187749D1*
X2265875Y1294000D2*
X2231500D1*
X2212749Y1275249D1*
Y1184625D1*
X2275249Y1122125D1*
X2547125D1*
X2590875Y1165875D1*
X2672125D1*
X2687749Y1181500D1*
X2756501D1*
X2787751Y1212749D1*
Y1231500D1*
X2844000Y1287749D1*
X2237749Y1269000D2*
Y1190875D1*
X2281500Y1147125D1*
X2531500D1*
X2572125Y1187749D1*
X2653374D1*
X2844000Y1378375D1*
Y1387749D1*
X2259625Y1247125D2*
X2281500Y1225249D1*
X2315875D1*
X2334625Y1206500D1*
X2447126D1*
X2462751Y1190875D1*
X2528375D1*
X2553375Y1215875D1*
X2650249D1*
X2772125Y1337751D1*
Y1415874D1*
X2844000Y1487749D1*
X2150251Y1181500D2*
Y1244000D1*
X2294000Y1387749D1*
X2431500D1*
X2453375Y1409625D1*
Y1684625D1*
X2503375Y1734625D1*
X2290875Y1247125D2*
X2319000D1*
X2331500Y1234625D1*
X2459626D1*
X2478375Y1215875D1*
X2519001D1*
X2540875Y1237749D1*
X2634625D1*
X2744000Y1347125D1*
Y1487749D1*
X2844000Y1587749D1*
X2272125Y1269000D2*
X2328375D1*
X2337751Y1259625D1*
X2465875D1*
X2487751Y1237749D1*
X2509625D1*
X2531500Y1259625D1*
X2631500D1*
X2722125Y1350249D1*
Y1565874D1*
X2844000Y1687749D1*
X2062749Y1312751D2*
X2064314Y1311186D1*
X2162751Y1409625D1*
X2237749D1*
X2431500Y1603375D1*
Y1709626D1*
X2487749Y1765875D1*
X2490875D1*
X2659625Y1819000D2*
X2690875Y1787749D1*
X2844000D1*
X2062751Y1347125D2*
X2150251Y1434625D1*
X2225249D1*
X2412749Y1622125D1*
Y1725249D1*
X2481500Y1794000D1*
X2659625Y1856500D2*
X2812751D1*
X2844000Y1887749D1*
X2589488Y1344000D2*
Y2583239D1*
X2647125Y2640875D1*
Y2722126D1*
X2590875Y2778375D1*
X2197125Y1715875D2*
Y1813052D1*
X2462751Y2078678D1*
Y2356500D1*
X2490875Y2384625D1*
X2500249D1*
X2403375Y1894000D2*
X2325249Y1815874D1*
Y1703374D1*
X2331500Y997125D2*
X2309626Y975251D1*
X1500249D1*
X1247126D1*
X1222125Y950249D1*
X1500249Y1281500D2*
Y1022125D1*
X2331500Y997125D2*
X2597157D1*
X2794252Y800030D1*
Y775028D1*
X2825505Y743774D1*
X2906764D1*
X2944000Y781010D1*
Y787749D1*
X1290875Y997125D2*
X1522125D1*
X2293999D1*
X2325249Y1028375D1*
X1522125Y1335560D2*
Y997125D1*
X2844000Y787749D2*
Y781535D1*
X2600482Y1025054D1*
X2328571D1*
X2325249Y1028375D1*
X1969000Y1484625D2*
X1887751D1*
X1790875Y1581500D1*
X1453375D1*
X1350251Y1478375D1*
X1250249D1*
X1222125Y1506500D1*
X681500D1*
X565875Y1622125D1*
Y1712125D1*
X569000Y1715249D1*
X1947125Y1587751D2*
X1906500D1*
X1853375Y1640875D1*
X953374D1*
X869000Y1725249D1*
X1931500Y1612749D2*
X1884625Y1659625D1*
X1024625D1*
X969000Y1715249D1*
X1975249Y1578374D2*
X1956500Y1559625D1*
X1906500D1*
X1844000Y1622125D1*
X862125D1*
X769000Y1715249D1*
X1975249Y1522125D2*
X1956500Y1503375D1*
X1906500D1*
X1809625Y1600251D1*
X1287752D1*
X1212751Y1525249D1*
X728377D1*
X665875Y1587751D1*
Y1722125D1*
X669000Y1725249D1*
X2528375Y1359625D2*
Y2434625D1*
X2290875Y2672125D1*
Y2678375D1*
X2300249Y1731500D2*
Y1869000D1*
X2497125Y2065875D1*
Y2343999D1*
X2500251Y2347125D1*
X609625Y656528D2*
Y584625D1*
X644000Y550249D1*
X1031501D1*
X1106596Y475155D1*
Y481247D1*
X1550249Y1022125D2*
X2075251D1*
D49*
X1141539Y2694000D3*
X1581375Y2837756D3*
X1978209Y2687772D3*
X2096946Y2800260D3*
X1115799Y1956598D3*
X982861Y1956501D3*
X569000Y1884625D3*
D3*
X568982Y2003469D3*
X1469911Y1557411D3*
X1715736Y1700375D3*
X1469911Y1557411D3*
X1984458Y1750370D3*
X1715736Y1700375D3*
X2065699Y1853484D3*
X2267178Y1762751D3*
X2073274Y937955D3*
X2475031Y470399D3*
X2140144Y470836D3*
X1465073D3*
X1802609D3*
X1036449Y737749D3*
X918945Y931706D3*
X1381919Y1385306D3*
X1469911Y1557411D3*
X1590749Y1206677D3*
X1381919Y1385306D3*
X2543774Y937955D3*
X1981333Y2487793D3*
X2175063Y2309686D3*
X2615642Y1291043D3*
X1051764Y2448755D3*
X1044877Y2193123D3*
X2500251Y1287749D3*
X2715875Y1147125D3*
X2162564Y1953375D3*
X2025079Y2687772D3*
X2731500Y2078375D3*
X2346920Y1693795D3*
X2497125Y1259625D3*
X2719000Y1087749D3*
X2731500Y2016034D3*
X2369000Y1650249D3*
X2477881Y1871630D3*
X1850097Y2687772D3*
X2431596Y1959529D3*
X628375Y2150251D3*
X715875Y2250251D3*
X650249Y2175840D3*
X715875Y2222125D3*
X1790875Y1322125D3*
X1590752Y1275374D3*
X850249Y1956501D3*
X719000Y2197125D3*
Y2275249D3*
X831500Y2122125D3*
X715875Y1956501D3*
X931500Y2272125D3*
X1562751Y1844000D3*
X1650251Y1275249D3*
X1831500Y1281500D3*
X2189963Y2777475D3*
X2788001Y2818992D3*
X2784945Y2725251D3*
X2700492Y2712731D3*
X1365875Y1534625D3*
X1344000Y1512749D3*
X1259625Y1522125D3*
X1122125Y1469000D3*
X1119076Y1418845D3*
X1950251Y1284625D3*
X1453375Y2544000D3*
X1128375Y672125D3*
X1265875Y844000D3*
X1522125Y1415875D3*
X1537751Y1556500D3*
X1412751Y1578375D3*
X1391761Y1556500D3*
X1406500Y2144173D3*
Y2084731D3*
X908583Y1956501D3*
X912751Y2037751D3*
X775251Y1956501D3*
Y2037749D3*
X1175249Y1956501D3*
Y2037749D3*
X1041916Y1956501D3*
Y2037751D3*
X1247125Y1400251D3*
X1119076Y1343837D3*
Y1312584D3*
X1240875Y1284625D3*
X1259625Y1240875D3*
X1337751Y1244000D3*
X1362749Y1234626D3*
X1347125Y1209625D3*
X744000Y1134625D3*
X1034625D3*
X1412751Y1231500D3*
X2608320Y862749D3*
X2615875Y806500D3*
X2277071Y856500D3*
X2281500Y806500D3*
X1945822Y856500D3*
X1950251Y806500D3*
X1614571Y862749D3*
X1615875Y806500D3*
X1783311Y2194000D3*
X1778375Y2137749D3*
X2306501Y1197125D3*
X2325249Y1172125D3*
X2350251Y1306500D3*
X2503375Y1700249D3*
X2628375Y1715875D3*
X971455Y995181D3*
X1975249Y1415875D3*
X1972125Y1456500D3*
X2481500Y1834625D3*
X2656500Y1890875D3*
X1991441Y1227810D3*
X2128375Y1337751D3*
X2212749Y1337749D3*
X2265875Y1294000D3*
X2237749Y1269000D3*
X2259625Y1247125D3*
X2150251Y1181500D3*
X2503375Y1734625D3*
X2190875Y1215875D3*
X1969000Y2075249D3*
X2290875Y1247125D3*
X2272125Y1269000D3*
X2062749Y1312751D3*
X2490875Y1765875D3*
X2659625Y1819000D3*
X2062751Y1347125D3*
X2481500Y1794000D3*
X2659625Y1856500D3*
X2503375Y1644000D3*
Y1612751D3*
X2497125Y1575249D3*
X2619000Y1497125D3*
X2506500Y1447125D3*
X2619000Y1444000D3*
X2612751Y1412749D3*
X2559626Y1384625D3*
X956500Y2250251D3*
X1781500Y1737751D3*
X2372125Y1326529D3*
X2662988Y1344000D3*
X2589488D3*
X2509625Y1337749D3*
X2197125Y1715875D3*
X2500249Y2384625D3*
X2498688Y1314312D3*
X2718933Y1203375D3*
X2498688Y1314312D3*
X2718933Y1203375D3*
X2731500Y2131500D3*
X2403375Y1894000D3*
X2325249Y1703374D3*
X2403375Y1894000D3*
X1934463Y2687772D3*
X759625Y922125D3*
X962810Y697125D3*
X1222125Y844000D3*
X2331500Y997125D3*
X1222125Y950249D3*
X1500249Y1281500D3*
Y1022125D3*
Y975251D3*
X2331500Y997125D3*
X2034625Y2231500D3*
X1972125Y2194000D3*
X1850251D3*
X1912843D3*
X656500Y922125D3*
X887749Y694000D3*
X1144000Y784625D3*
X1290875Y997125D3*
X2325249Y1028375D3*
X1522125Y1335560D3*
X2022125Y1572125D3*
X1465875Y712749D3*
X2069000Y1544000D3*
X1800249Y715875D3*
X2119000Y1515875D3*
X2140875Y694000D3*
X1969000Y1484625D3*
X1947125Y1587751D3*
X1931500Y1612749D3*
X1975249Y1578374D3*
Y1522125D3*
X830909Y2344000D3*
X1856500Y1737751D3*
X2187938Y2706480D3*
X2528375Y1359625D3*
D3*
X2300249Y1731500D3*
X2500251Y2347125D3*
X1847125Y1428375D3*
Y1384625D3*
X719000Y2094000D3*
X1109625Y2040875D3*
X975251Y2037751D3*
X872125Y2506500D3*
X1825249Y1394000D3*
X1787751Y1509625D3*
X1825249Y1359626D3*
Y1394000D3*
X2142356Y2187749D3*
X2215692D3*
X2065875Y2028097D3*
X2287749Y1700251D3*
X2065875Y2028097D3*
X2142356Y2187749D3*
X609625Y656528D3*
X1550249Y1022125D3*
X2075251D3*
X2044000Y1553375D3*
X1681500Y859625D3*
X2094000Y1528375D3*
X2012751Y856500D3*
X2228375Y1372125D3*
X2344000Y856500D3*
X1953352Y1365899D3*
X1347125Y2084822D3*
X1718991Y2192178D3*
X1656500Y2194000D3*
X1715875Y2240875D3*
X1806500Y2675249D3*
X2175249Y1184625D3*
X1718991Y2192178D3*
D24*
X875251Y1572125D3*
D25*
Y1472125D3*
Y1372125D3*
Y1272125D3*
Y1172125D3*
X1175251D3*
Y1272125D3*
Y1372125D3*
Y1472125D3*
Y1572125D3*
D24*
X465875D3*
D25*
Y1472125D3*
Y1372125D3*
Y1272125D3*
Y1172125D3*
X765875D3*
Y1272125D3*
Y1372125D3*
Y1472125D3*
Y1572125D3*
D30*
X494000Y2444000D3*
Y2544000D3*
D106*
X469000Y1725249D3*
D30*
X569000Y1715249D3*
X669000Y1725249D3*
X769000Y1715249D3*
X869000Y1725249D3*
X969000Y1715249D3*
X1069000Y1725249D3*
X1169000Y1715249D3*
D33*
X1569000Y1369000D3*
X1669000D3*
D30*
X1287749Y1756500D3*
Y2012500D3*
X1465749Y1756500D3*
Y2012500D3*
X1550249Y469000D3*
Y725000D3*
X1728249Y469000D3*
Y725000D3*
X1885667Y469000D3*
Y725000D3*
X2063667Y469000D3*
Y725000D3*
X2221083Y469000D3*
Y725000D3*
X2399083Y469000D3*
Y725000D3*
X2556500Y469000D3*
Y725000D3*
X2734500Y469000D3*
Y725000D3*
D41*
X2590875Y2678375D3*
D42*
Y2778375D3*
X2490875Y2678375D3*
Y2778375D3*
X2390875Y2678375D3*
Y2778375D3*
D41*
X2290875Y2678375D3*
D42*
Y2778375D3*
D47*
X2844000Y687749D3*
D48*
Y787749D3*
Y887749D3*
Y987749D3*
Y1087749D3*
Y1187749D3*
Y1287749D3*
Y1387749D3*
Y1487749D3*
Y1587749D3*
Y1687749D3*
Y1787749D3*
Y1887749D3*
Y1987749D3*
Y2087749D3*
Y2187749D3*
Y2287749D3*
Y2387749D3*
Y2487749D3*
Y2587749D3*
D47*
X2944000Y687749D3*
D48*
Y787749D3*
Y887749D3*
Y987749D3*
Y1087749D3*
Y1187749D3*
Y1287749D3*
Y1387749D3*
Y1487749D3*
Y1587749D3*
Y1687749D3*
Y1787749D3*
Y1887749D3*
Y1987749D3*
Y2087749D3*
Y2187749D3*
Y2287749D3*
Y2387749D3*
Y2487749D3*
Y2587749D3*
D30*
X1306596Y481247D3*
X1206596Y491247D3*
X1106596Y481247D3*
X1006596Y491247D3*
X906596Y481247D3*
M02*
