%TF.GenerationSoftware,Novarm,DipTrace,3.2.0.1*%
%TF.CreationDate,2017-11-16T22:50:53-08:00*%
%FSLAX26Y26*%
%MOIN*%
%TF.FileFunction,Copper,L2,Inr*%
%TF.Part,Single*%
%AMOUTLINE6*
4,1,4,
0.026163,0.026163,
0.026205,-0.026121,
-0.026121,-0.026205,
-0.026163,0.026163,
0.026163,0.026163,
0*%
%TA.AperFunction,Conductor*%
%ADD14C,0.015748*%
%ADD18C,0.006*%
%TA.AperFunction,ComponentPad*%
%ADD24R,0.047992X0.047992*%
%ADD25C,0.048*%
%ADD30C,0.074*%
%ADD33C,0.052*%
%ADD41R,0.05937X0.05937*%
%ADD42C,0.05937*%
%ADD47R,0.059055X0.059055*%
%ADD48C,0.059055*%
%TA.AperFunction,ViaPad*%
%ADD49C,0.015*%
%TA.AperFunction,ComponentPad*%
%ADD106OUTLINE6*%
G75*
G01*
%LPD*%
X2500251Y1287749D2*
D18*
X2575251D1*
X2715875Y1147125D1*
X2762751D1*
X2790875Y1175249D1*
Y1203375D1*
X2822125Y1234625D1*
X2897125D1*
X2944000Y1187749D1*
X2162564Y1953375D2*
X2225156D1*
X2346920Y1831612D1*
Y2306562D1*
X2140692Y2512790D1*
X2012580D1*
X1896967Y2628403D1*
Y2697146D1*
X1915715Y2715894D1*
X1996957D1*
X2025079Y2687772D1*
X2731500Y2078375D2*
X2631180D1*
X2384416Y1831612D1*
X2346920D1*
Y1693795D2*
Y1831612D1*
X2497125Y1259625D2*
X2544000D1*
X2715875Y1087749D1*
X2719000D1*
X2762749D1*
X2809625Y1134625D1*
X2897125D1*
X2944000Y1087749D1*
X2731500Y2016034D2*
X2622285D1*
X2477881Y1871630D1*
X2369000Y1762749D1*
Y1650249D1*
X2431596Y1959529D2*
Y2346873D1*
X2175063Y2603406D1*
X2140692D1*
X2106320Y2637777D1*
Y2703395D1*
X2065699Y2744016D1*
X1878219D1*
X1850097Y2715894D1*
Y2687772D1*
X628375Y2150251D2*
Y2200251D1*
X678375Y2250251D1*
X715875D1*
X650249Y2175840D2*
Y2197123D1*
X675251Y2222125D1*
X715875D1*
X1790875Y1322125D2*
X1769000D1*
X1684625Y1406500D1*
X1606500D1*
X1569000Y1369000D1*
X1590752Y1275374D2*
X1565875Y1300251D1*
Y1365875D1*
X1569000Y1369000D1*
X850249Y1956501D2*
Y2103375D1*
X856500Y2109626D1*
Y2137749D1*
X797125Y2197125D1*
X719000D1*
X831500Y2122125D2*
X790874D1*
X744000Y2075251D1*
Y2015875D1*
X715875Y1987751D1*
Y1956501D1*
X931500Y2272125D2*
X1400251D1*
X1562751Y2109625D1*
Y1844000D1*
X1669000Y1369000D2*
Y1293999D1*
X1650251Y1275249D1*
X1831500Y1281500D2*
X1756500D1*
X1669000Y1369000D1*
X2189963Y2777475D2*
Y2802265D1*
X2212941Y2825243D1*
X2781751D1*
X2788001Y2818992D1*
X2784945Y2725251D2*
X2713012D1*
X2700492Y2712731D1*
X1365875Y1534625D2*
X1312749D1*
X1206500Y1428375D1*
Y1403374D1*
X1175251Y1372125D1*
X1344000Y1512749D2*
X1322125D1*
X1225251Y1415875D1*
Y1350251D1*
X1194000Y1319000D1*
X1156745D1*
X1009870Y1172125D1*
X875251D1*
X1259625Y1522125D2*
Y1506500D1*
X1165875Y1412751D1*
X1144235D1*
X1003609Y1272125D1*
X875251D1*
X1122125Y1469000D2*
X878375D1*
X875251Y1472125D1*
X1119076Y1418845D2*
X921971D1*
X875251Y1372125D1*
X1950251Y1284625D2*
X1997125Y1331499D1*
Y1722845D1*
G03X1986310Y1725466I-7556J-7555D01*
G01*
D3*
G02X1975496Y1728085I-3259J10176D01*
G01*
X1962060Y1741521D1*
G02X1959440Y1752336I7555J7556D01*
G01*
D3*
G03X1956820Y1763150I-10176J3259D01*
G01*
X1925970Y1794000D1*
X1700249D1*
X1659625Y1834625D1*
Y2106500D1*
X1453375Y2312749D1*
Y2544000D1*
X1128375Y672125D2*
X1240875D1*
X1265875Y697125D1*
Y844000D1*
X1522125Y1415875D2*
X1537751Y1431501D1*
Y1556500D1*
X1412751Y1578375D2*
X1175251D1*
Y1572125D1*
X1391761Y1556500D2*
X1259626D1*
X1175251Y1472125D1*
X1406500Y2144173D2*
Y2084731D1*
X908583Y1956501D2*
Y2033583D1*
X912751Y2037751D1*
X775251Y1956501D2*
Y2037749D1*
X1175249Y1956501D2*
Y2037749D1*
X1041916Y1956501D2*
Y2037751D1*
X1247125Y1400251D2*
Y1347125D1*
X1172125Y1272125D1*
X1175251D1*
X1119076Y1343837D2*
X1022364Y1247125D1*
X906500D1*
X890875Y1231500D1*
X853374D1*
X837749Y1247125D1*
Y1500251D1*
X765875Y1572125D1*
X1119076Y1312584D2*
X1016117Y1209625D1*
X844000D1*
X819000Y1234625D1*
Y1419000D1*
X765875Y1472125D1*
Y1372125D2*
X775249D1*
X800249Y1347125D1*
Y1219000D1*
X834625Y1184625D1*
Y1153375D1*
X853375Y1134625D1*
X894000D1*
X912751Y1153375D1*
X1015875D1*
X1090875Y1228375D1*
X1184626D1*
X1240875Y1284625D1*
X1259625Y1240875D2*
Y1203374D1*
X1169000Y1112749D1*
X525251D1*
X465875Y1172125D1*
X1337751Y1244000D2*
X1303375Y1209625D1*
Y1203374D1*
X1187751Y1087749D1*
X484626D1*
X419000Y1153375D1*
Y1225249D1*
X465875Y1272125D1*
X1362749Y1234626D2*
X1390875Y1206500D1*
X1419000D1*
X1447125Y1234625D1*
Y1587751D1*
X1409625Y1625251D1*
X737751D1*
X584625Y1472125D1*
X465875D1*
Y1372125D2*
X459625D1*
X422125Y1409625D1*
Y1500249D1*
X447125Y1525249D1*
X572123D1*
X700249Y1653375D1*
X1409625D1*
X1478375Y1584625D1*
G03X1486188Y1575125I9681J-1D01*
G01*
D3*
G02X1494000Y1565625I-1869J-9499D01*
G01*
Y1547249D1*
G02X1486188Y1537749I-9681J-1D01*
G01*
D3*
G03X1478375Y1528249I1866J-9497D01*
G01*
Y1231500D1*
X1428375Y1181500D1*
X1375249D1*
X1347125Y1209625D1*
X765875Y1272125D2*
X762751D1*
X728375Y1237749D1*
Y1150249D1*
X744000Y1134625D1*
X1034625D2*
X1044000D1*
X1119000Y1209625D1*
X1194000D1*
X1250251Y1265875D1*
X1378375D1*
X1412751Y1231500D1*
X2608320Y862749D2*
Y814055D1*
X2615875Y806500D1*
X2277071Y856500D2*
Y810929D1*
X2281500Y806500D1*
X1945822Y856500D2*
Y810929D1*
X1950251Y806500D1*
X1614571Y862749D2*
Y807804D1*
X1615875Y806500D1*
X1783311Y2194000D2*
Y2142685D1*
X1778375Y2137749D1*
X2306501Y1197125D2*
X2308063Y1195563D1*
X2300249Y1187749D1*
Y1097126D1*
X2459625Y937751D1*
X2509277D1*
G03X2518777Y947251I1J9499D01*
G01*
Y950328D1*
G02X2528277Y959828I9499J1D01*
G01*
X2559272D1*
G02X2568772Y950328I1J-9499D01*
G01*
Y947251D1*
G03X2578272Y937751I9499J-1D01*
G01*
X2893999D1*
X2944000Y887749D1*
X2325249Y1172125D2*
Y1103377D1*
X2390875Y1037751D1*
X2893999D1*
X2944000Y987749D1*
X2503375Y1700249D2*
X2612749D1*
X2628375Y1715875D1*
X2481500Y1834625D2*
X2600249D1*
X2656500Y1890875D1*
X2503375Y1734625D2*
X2606500D1*
X2690875Y1819000D1*
Y1922125D1*
X2756500Y1987749D1*
Y2175573D1*
X2818677Y2237751D1*
X2856500D1*
X2900249Y2281500D1*
Y2343999D1*
X2944000Y2387749D1*
X2190875Y1215875D2*
Y1665875D1*
X1969000Y1887751D1*
Y2075249D1*
X2490875Y1765875D2*
X2603375D1*
X2656500Y1819000D1*
X2659625D1*
X2481500Y1794000D2*
X2597125D1*
X2659625Y1856500D1*
X2503375Y1644000D2*
X2653374D1*
X2662749Y1653375D1*
Y1759625D1*
X2719000Y1815875D1*
Y1906499D1*
X2775251Y1962749D1*
Y2094000D1*
X2819000Y2137749D1*
X2856499D1*
X2897125Y2178375D1*
Y2240874D1*
X2944000Y2287749D1*
X2503375Y1612751D2*
X2669000D1*
X2687749Y1631500D1*
Y1740874D1*
X2740875Y1794000D1*
Y1894000D1*
X2794000Y1947125D1*
Y2012749D1*
X2819000Y2037749D1*
X2856499D1*
X2894000Y2075251D1*
Y2137749D1*
X2944000Y2187749D1*
X2497125Y1575249D2*
X2672123D1*
X2709625Y1612751D1*
Y1725249D1*
X2765875Y1781500D1*
Y1881501D1*
X2825249Y1940875D1*
X2856501D1*
X2890875Y1975249D1*
Y2034625D1*
X2944000Y2087749D1*
X2619000Y1497125D2*
X2644000D1*
X2737751Y1590875D1*
Y1703375D1*
X2794000Y1759625D1*
Y1809626D1*
X2825249Y1840875D1*
X2862751D1*
X2894000Y1872125D1*
Y1937749D1*
X2944000Y1987749D1*
X2506500Y1447125D2*
X2528375Y1469000D1*
X2650251D1*
X2765875Y1584625D1*
Y1687749D1*
X2812751Y1734625D1*
X2856499D1*
X2897125Y1775251D1*
Y1840874D1*
X2944000Y1887749D1*
X2619000Y1444000D2*
X2662751D1*
X2794000Y1575249D1*
Y1606500D1*
X2825249Y1637749D1*
X2856499D1*
X2897125Y1678375D1*
Y1740874D1*
X2944000Y1787749D1*
X2612751Y1412749D2*
X2694000D1*
X2819000Y1537749D1*
X2853375D1*
X2890875Y1575249D1*
Y1634625D1*
X2944000Y1687749D1*
X2559626Y1384625D2*
X2772125D1*
X2822125Y1434625D1*
X2859625D1*
X2894000Y1469000D1*
Y1537749D1*
X2944000Y1587749D1*
X956500Y2250251D2*
X1375249D1*
X1522125Y2103375D1*
Y1819000D1*
X1603374Y1737751D1*
X1781500D1*
X2372125Y1326529D2*
Y1256499D1*
X2337751Y1222125D1*
X2293999D1*
X2275249Y1203375D1*
Y1019001D1*
X2403375Y890875D1*
X2840874D1*
X2844000Y887749D1*
X2662988Y1344000D2*
X2589488D1*
X2509625Y1337749D2*
X2583238D1*
X2589488Y1344000D1*
X2500249Y2384625D2*
X2740875D1*
X2844000Y2487749D1*
X2498688Y1314312D2*
X2497125Y1315875D1*
X2718933Y1203375D2*
X2797125Y1281567D1*
Y1309625D1*
X2815875Y1328375D1*
X2903374D1*
X2944000Y1287749D1*
X2498688Y1314312D2*
Y1312916D1*
X2596894D1*
X2609392Y1325415D1*
X2646888D1*
X2662512Y1309791D1*
X2684385D1*
X2715631Y1278545D1*
Y1206677D1*
X2718933Y1203375D1*
X2731500Y2131500D2*
X2640875D1*
X2403375Y1894000D1*
Y2309475D1*
X2156315Y2556535D1*
X2015705D1*
X1934463Y2637777D1*
Y2687772D1*
X759625Y922125D2*
X962810Y718940D1*
Y697125D1*
X1078375D1*
X1115875Y734625D1*
Y794001D1*
X1134625Y812751D1*
X1222125D1*
Y844000D1*
Y950249D2*
Y844000D1*
X1500249Y1022125D2*
Y975251D1*
X2034625Y2231500D2*
Y2222125D1*
X2006500Y2194000D1*
X1972125D1*
X1912843D1*
X1850251D1*
X656500Y922125D2*
X653377D1*
X887749Y687752D1*
Y694000D1*
X925249Y656500D1*
X1081500D1*
X1144000Y719000D1*
Y784625D1*
X1234625D1*
X1244000Y794000D1*
Y950249D1*
X1290875Y997125D1*
X2022125Y1572125D2*
Y1325249D1*
X1934625Y1237749D1*
X1844000D1*
X1462749Y856500D1*
Y715875D1*
X1465875Y712749D1*
X2069000Y1544000D2*
Y1381500D1*
X2087749Y1362749D1*
Y1281500D1*
X1903375Y1097125D1*
X1872125D1*
X1800249Y1025249D1*
Y715875D1*
X2119000Y1515875D2*
Y1397125D1*
X2150249Y1365875D1*
Y1309623D1*
X2128375Y1287749D1*
Y1187749D1*
X2115875Y1175249D1*
Y784625D1*
X2140875Y759625D1*
Y694000D1*
X830909Y2344000D2*
X1381500D1*
X1600249Y2125251D1*
Y1812751D1*
X1647125Y1765875D1*
X1828375D1*
X1856500Y1737751D1*
X2290875Y2678375D2*
X2216043D1*
X2187938Y2706480D1*
X2528375Y1359625D2*
X2572125D1*
X2578375Y1365875D1*
X2797125D1*
X2815875Y1347125D1*
X2872125D1*
X2897125Y1372125D1*
Y1440874D1*
X2944000Y1487749D1*
X2500251Y2347125D2*
X2803375D1*
X2844000Y2387749D1*
X1847125Y1428375D2*
Y1384625D1*
X975251Y2037751D2*
D14*
Y2084625D1*
X787751Y2272125D1*
Y2422126D1*
X872125Y2506500D1*
X1825249Y1394000D2*
D18*
Y1503375D1*
X1819000Y1509625D1*
X1787751D1*
X1825249Y1359626D2*
Y1394000D1*
X2142356Y2187749D2*
X2215692D1*
X2065875Y2028097D2*
Y1897125D1*
X2134625Y1828375D1*
X2212671D1*
X2237556Y1803490D1*
Y1750444D1*
X2287749Y1700251D1*
X2065875Y2028097D2*
Y2111269D1*
X2142356Y2187749D1*
X1106596Y481247D2*
X1094000Y468651D1*
Y484625D1*
X1297125Y687749D1*
Y925249D1*
X1394000Y1022125D1*
X1465875D1*
X1487751Y1044000D1*
X1512751D1*
X1534625Y1022125D1*
X1550249D1*
X2044000Y1553375D2*
Y1525249D1*
X2040875Y1522125D1*
Y1315875D1*
X1940875Y1215875D1*
X1872125D1*
X1681500Y1025249D1*
Y859625D1*
X2094000Y1528375D2*
Y1390874D1*
X2106500Y1378374D1*
Y1200249D1*
X2012751Y1106500D1*
Y856500D1*
X2228375Y1372125D2*
X2237749Y1362751D1*
Y1331500D1*
X2212749Y1306500D1*
Y1234625D1*
X2244000Y1203375D1*
Y956500D1*
X2344000Y856500D1*
X1069000Y1725249D2*
Y1744000D1*
X1137749Y1812749D1*
X1409500D1*
X1465749Y1756500D1*
X1953352Y1365899D2*
X1865899D1*
X1850251Y1350251D1*
Y1306499D1*
X1859625Y1297125D1*
Y1275249D1*
X1844000Y1259625D1*
X1681500D1*
X1665875Y1244000D1*
X1575249D1*
X1497125Y1322125D1*
Y1515749D1*
G02X1504937Y1525249I9679J3D01*
G01*
D3*
G03X1512749Y1534749I-1869J9499D01*
G01*
Y1584500D1*
G03X1504937Y1594000I-9681J1D01*
G01*
D3*
G02X1497125Y1603500I1869J9499D01*
G01*
Y1706500D1*
X1522125Y1731500D1*
Y1778375D1*
X1347125Y1953375D1*
Y2084822D1*
X1718991Y2192178D2*
X1658322D1*
X1656500Y2194000D1*
X1715875Y2240875D2*
Y2272126D1*
X1806500Y2362751D1*
Y2675249D1*
X2175249Y1184625D2*
Y1197126D1*
X2169000Y1203375D1*
Y1628375D1*
X1718991Y2078385D1*
Y2192178D1*
D49*
X1141539Y2694000D3*
X1581375Y2837756D3*
X1978209Y2687772D3*
X2096946Y2800260D3*
X1115799Y1956598D3*
X982861Y1956501D3*
X569000Y1884625D3*
D3*
X568982Y2003469D3*
X1469911Y1557411D3*
X1715736Y1700375D3*
X1469911Y1557411D3*
X1984458Y1750370D3*
X1715736Y1700375D3*
X2065699Y1853484D3*
X2267178Y1762751D3*
X2073274Y937955D3*
X2475031Y470399D3*
X2140144Y470836D3*
X1465073D3*
X1802609D3*
X1036449Y737749D3*
X918945Y931706D3*
X1381919Y1385306D3*
X1469911Y1557411D3*
X1590749Y1206677D3*
X1381919Y1385306D3*
X2543774Y937955D3*
X1981333Y2487793D3*
X2175063Y2309686D3*
X2615642Y1291043D3*
X1051764Y2448755D3*
X1044877Y2193123D3*
X2500251Y1287749D3*
X2715875Y1147125D3*
X2162564Y1953375D3*
X2025079Y2687772D3*
X2731500Y2078375D3*
X2346920Y1693795D3*
X2497125Y1259625D3*
X2719000Y1087749D3*
X2731500Y2016034D3*
X2369000Y1650249D3*
X2477881Y1871630D3*
X1850097Y2687772D3*
X2431596Y1959529D3*
X628375Y2150251D3*
X715875Y2250251D3*
X650249Y2175840D3*
X715875Y2222125D3*
X1790875Y1322125D3*
X1590752Y1275374D3*
X850249Y1956501D3*
X719000Y2197125D3*
Y2275249D3*
X831500Y2122125D3*
X715875Y1956501D3*
X931500Y2272125D3*
X1562751Y1844000D3*
X1650251Y1275249D3*
X1831500Y1281500D3*
X2189963Y2777475D3*
X2788001Y2818992D3*
X2784945Y2725251D3*
X2700492Y2712731D3*
X1365875Y1534625D3*
X1344000Y1512749D3*
X1259625Y1522125D3*
X1122125Y1469000D3*
X1119076Y1418845D3*
X1950251Y1284625D3*
X1453375Y2544000D3*
X1128375Y672125D3*
X1265875Y844000D3*
X1522125Y1415875D3*
X1537751Y1556500D3*
X1412751Y1578375D3*
X1391761Y1556500D3*
X1406500Y2144173D3*
Y2084731D3*
X908583Y1956501D3*
X912751Y2037751D3*
X775251Y1956501D3*
Y2037749D3*
X1175249Y1956501D3*
Y2037749D3*
X1041916Y1956501D3*
Y2037751D3*
X1247125Y1400251D3*
X1119076Y1343837D3*
Y1312584D3*
X1240875Y1284625D3*
X1259625Y1240875D3*
X1337751Y1244000D3*
X1362749Y1234626D3*
X1347125Y1209625D3*
X744000Y1134625D3*
X1034625D3*
X1412751Y1231500D3*
X2608320Y862749D3*
X2615875Y806500D3*
X2277071Y856500D3*
X2281500Y806500D3*
X1945822Y856500D3*
X1950251Y806500D3*
X1614571Y862749D3*
X1615875Y806500D3*
X1783311Y2194000D3*
X1778375Y2137749D3*
X2306501Y1197125D3*
X2325249Y1172125D3*
X2350251Y1306500D3*
X2503375Y1700249D3*
X2628375Y1715875D3*
X971455Y995181D3*
X1975249Y1415875D3*
X1972125Y1456500D3*
X2481500Y1834625D3*
X2656500Y1890875D3*
X1991441Y1227810D3*
X2128375Y1337751D3*
X2212749Y1337749D3*
X2265875Y1294000D3*
X2237749Y1269000D3*
X2259625Y1247125D3*
X2150251Y1181500D3*
X2503375Y1734625D3*
X2190875Y1215875D3*
X1969000Y2075249D3*
X2290875Y1247125D3*
X2272125Y1269000D3*
X2062749Y1312751D3*
X2490875Y1765875D3*
X2659625Y1819000D3*
X2062751Y1347125D3*
X2481500Y1794000D3*
X2659625Y1856500D3*
X2503375Y1644000D3*
Y1612751D3*
X2497125Y1575249D3*
X2619000Y1497125D3*
X2506500Y1447125D3*
X2619000Y1444000D3*
X2612751Y1412749D3*
X2559626Y1384625D3*
X956500Y2250251D3*
X1781500Y1737751D3*
X2372125Y1326529D3*
X2662988Y1344000D3*
X2589488D3*
X2509625Y1337749D3*
X2197125Y1715875D3*
X2500249Y2384625D3*
X2498688Y1314312D3*
X2718933Y1203375D3*
X2498688Y1314312D3*
X2718933Y1203375D3*
X2731500Y2131500D3*
X2403375Y1894000D3*
X2325249Y1703374D3*
X2403375Y1894000D3*
X1934463Y2687772D3*
X759625Y922125D3*
X962810Y697125D3*
X1222125Y844000D3*
X2331500Y997125D3*
X1222125Y950249D3*
X1500249Y1281500D3*
Y1022125D3*
Y975251D3*
X2331500Y997125D3*
X2034625Y2231500D3*
X1972125Y2194000D3*
X1850251D3*
X1912843D3*
X656500Y922125D3*
X887749Y694000D3*
X1144000Y784625D3*
X1290875Y997125D3*
X2325249Y1028375D3*
X1522125Y1335560D3*
X2022125Y1572125D3*
X1465875Y712749D3*
X2069000Y1544000D3*
X1800249Y715875D3*
X2119000Y1515875D3*
X2140875Y694000D3*
X1969000Y1484625D3*
X1947125Y1587751D3*
X1931500Y1612749D3*
X1975249Y1578374D3*
Y1522125D3*
X830909Y2344000D3*
X1856500Y1737751D3*
X2187938Y2706480D3*
X2528375Y1359625D3*
D3*
X2300249Y1731500D3*
X2500251Y2347125D3*
X1847125Y1428375D3*
Y1384625D3*
X719000Y2094000D3*
X1109625Y2040875D3*
X975251Y2037751D3*
X872125Y2506500D3*
X1825249Y1394000D3*
X1787751Y1509625D3*
X1825249Y1359626D3*
Y1394000D3*
X2142356Y2187749D3*
X2215692D3*
X2065875Y2028097D3*
X2287749Y1700251D3*
X2065875Y2028097D3*
X2142356Y2187749D3*
X609625Y656528D3*
X1550249Y1022125D3*
X2075251D3*
X2044000Y1553375D3*
X1681500Y859625D3*
X2094000Y1528375D3*
X2012751Y856500D3*
X2228375Y1372125D3*
X2344000Y856500D3*
X1953352Y1365899D3*
X1347125Y2084822D3*
X1718991Y2192178D3*
X1656500Y2194000D3*
X1715875Y2240875D3*
X1806500Y2675249D3*
X2175249Y1184625D3*
X1718991Y2192178D3*
D24*
X875251Y1572125D3*
D25*
Y1472125D3*
Y1372125D3*
Y1272125D3*
Y1172125D3*
X1175251D3*
Y1272125D3*
Y1372125D3*
Y1472125D3*
Y1572125D3*
D24*
X465875D3*
D25*
Y1472125D3*
Y1372125D3*
Y1272125D3*
Y1172125D3*
X765875D3*
Y1272125D3*
Y1372125D3*
Y1472125D3*
Y1572125D3*
D30*
X494000Y2444000D3*
Y2544000D3*
D106*
X469000Y1725249D3*
D30*
X569000Y1715249D3*
X669000Y1725249D3*
X769000Y1715249D3*
X869000Y1725249D3*
X969000Y1715249D3*
X1069000Y1725249D3*
X1169000Y1715249D3*
D33*
X1569000Y1369000D3*
X1669000D3*
D30*
X1287749Y1756500D3*
Y2012500D3*
X1465749Y1756500D3*
Y2012500D3*
X1550249Y469000D3*
Y725000D3*
X1728249Y469000D3*
Y725000D3*
X1885667Y469000D3*
Y725000D3*
X2063667Y469000D3*
Y725000D3*
X2221083Y469000D3*
Y725000D3*
X2399083Y469000D3*
Y725000D3*
X2556500Y469000D3*
Y725000D3*
X2734500Y469000D3*
Y725000D3*
D41*
X2590875Y2678375D3*
D42*
Y2778375D3*
X2490875Y2678375D3*
Y2778375D3*
X2390875Y2678375D3*
Y2778375D3*
D41*
X2290875Y2678375D3*
D42*
Y2778375D3*
D47*
X2844000Y687749D3*
D48*
Y787749D3*
Y887749D3*
Y987749D3*
Y1087749D3*
Y1187749D3*
Y1287749D3*
Y1387749D3*
Y1487749D3*
Y1587749D3*
Y1687749D3*
Y1787749D3*
Y1887749D3*
Y1987749D3*
Y2087749D3*
Y2187749D3*
Y2287749D3*
Y2387749D3*
Y2487749D3*
Y2587749D3*
D47*
X2944000Y687749D3*
D48*
Y787749D3*
Y887749D3*
Y987749D3*
Y1087749D3*
Y1187749D3*
Y1287749D3*
Y1387749D3*
Y1487749D3*
Y1587749D3*
Y1687749D3*
Y1787749D3*
Y1887749D3*
Y1987749D3*
Y2087749D3*
Y2187749D3*
Y2287749D3*
Y2387749D3*
Y2487749D3*
Y2587749D3*
D30*
X1306596Y481247D3*
X1206596Y491247D3*
X1106596Y481247D3*
X1006596Y491247D3*
X906596Y481247D3*
M02*
