%TF.GenerationSoftware,Novarm,DipTrace,3.2.0.1*%
%TF.CreationDate,2017-11-16T22:50:51-08:00*%
%FSLAX26Y26*%
%MOIN*%
%TF.FileFunction,Soldermask,Top*%
%TF.Part,Single*%
%AMOUTLINE0*
4,1,4,
-0.049213,-0.023622,
0.049213,-0.023622,
0.049213,0.023622,
-0.049213,0.023622,
-0.049213,-0.023622,
0*%
%AMOUTLINE1*
4,1,4,
-0.012402,-0.016339,
0.012402,-0.016339,
0.012402,0.016339,
-0.012402,0.016339,
-0.012402,-0.016339,
0*%
%AMOUTLINE2*
4,1,4,
-0.035433,0.019685,
-0.035433,-0.019685,
0.035433,-0.019685,
0.035433,0.019685,
-0.035433,0.019685,
0*%
%AMOUTLINE3*
4,1,4,
-0.028543,0.007874,
-0.028543,-0.007874,
0.028543,-0.007874,
0.028543,0.007874,
-0.028543,0.007874,
0*%
%AMOUTLINE4*
4,1,4,
-0.029528,0.035433,
-0.029528,-0.035433,
0.029528,-0.035433,
0.029528,0.035433,
-0.029528,0.035433,
0*%
%AMOUTLINE5*
4,1,4,
-0.029528,0.049213,
-0.029528,-0.049213,
0.029528,-0.049213,
0.029528,0.049213,
-0.029528,0.049213,
0*%
%AMOUTLINE6*
4,1,4,
0.026163,0.026163,
0.026205,-0.026121,
-0.026121,-0.026205,
-0.026163,0.026163,
0.026163,0.026163,
0*%
%AMOUTLINE7*
4,1,4,
-0.023622,0.015748,
-0.023622,-0.015748,
0.023622,-0.015748,
0.023622,0.015748,
-0.023622,0.015748,
0*%
%AMOUTLINE8*
4,1,4,
0.023622,-0.015748,
0.023622,0.015748,
-0.023622,0.015748,
-0.023622,-0.015748,
0.023622,-0.015748,
0*%
%AMOUTLINE9*
4,1,4,
-0.015748,0.015748,
-0.015748,-0.015748,
0.015748,-0.015748,
0.015748,0.015748,
-0.015748,0.015748,
0*%
%AMOUTLINE10*
4,1,4,
0.015748,0.029528,
-0.015748,0.029528,
-0.015748,-0.029528,
0.015748,-0.029528,
0.015748,0.029528,
0*%
%AMOUTLINE11*
4,1,4,
0.035433,0.027559,
-0.035433,0.027559,
-0.035433,-0.027559,
0.035433,-0.027559,
0.035433,0.027559,
0*%
%AMOUTLINE12*
4,1,4,
0.027559,0.037402,
-0.027559,0.037402,
-0.027559,-0.037402,
0.027559,-0.037402,
0.027559,0.037402,
0*%
%AMOUTLINE13*
4,1,4,
0.00689,-0.01378,
0.00689,0.01378,
-0.00689,0.01378,
-0.00689,-0.01378,
0.00689,-0.01378,
0*%
%AMOUTLINE14*
4,1,4,
0.01378,0.00689,
-0.01378,0.00689,
-0.01378,-0.00689,
0.01378,-0.00689,
0.01378,0.00689,
0*%
%AMOUTLINE15*
4,1,4,
-0.00689,0.01378,
-0.00689,-0.01378,
0.00689,-0.01378,
0.00689,0.01378,
-0.00689,0.01378,
0*%
%AMOUTLINE16*
4,1,4,
-0.01378,-0.00689,
0.01378,-0.00689,
0.01378,0.00689,
-0.01378,0.00689,
-0.01378,-0.00689,
0*%
%AMOUTLINE17*
4,1,4,
0.019685,-0.019685,
0.019685,0.019685,
-0.019685,0.019685,
-0.019685,-0.019685,
0.019685,-0.019685,
0*%
%AMOUTLINE18*
4,1,4,
-0.010827,-0.023622,
0.010827,-0.023622,
0.010827,0.023622,
-0.010827,0.023622,
-0.010827,-0.023622,
0*%
%AMOUTLINE19*
4,1,4,
0.021654,0.015748,
-0.021654,0.015748,
-0.021654,-0.015748,
0.021654,-0.015748,
0.021654,0.015748,
0*%
%AMOUTLINE20*
4,1,4,
0.021654,0.019685,
-0.021654,0.019685,
-0.021654,-0.019685,
0.021654,-0.019685,
0.021654,0.019685,
0*%
%AMOUTLINE21*
4,1,4,
0.035433,-0.015748,
0.035433,0.015748,
-0.035433,0.015748,
-0.035433,-0.015748,
0.035433,-0.015748,
0*%
%AMOUTLINE22*
4,1,4,
-0.009843,0.005906,
-0.009843,-0.005906,
0.009843,-0.005906,
0.009843,0.005906,
-0.009843,0.005906,
0*%
%ADD21R,0.043307X0.03937*%
%ADD22R,0.03937X0.043307*%
%ADD30C,0.074*%
%ADD33C,0.052*%
%ADD35R,0.062992X0.011811*%
%ADD36R,0.011811X0.062992*%
%ADD37R,0.07874X0.023622*%
%ADD41R,0.05937X0.05937*%
%ADD42C,0.05937*%
%ADD47R,0.059055X0.059055*%
%ADD48C,0.059055*%
%ADD50C,0.137795*%
%ADD51C,0.033465*%
%ADD59C,0.067055*%
%ADD63R,0.135953X0.135953*%
%ADD65O,0.041465X0.019811*%
%ADD67O,0.019811X0.041465*%
%ADD73R,0.027685X0.019811*%
%ADD75R,0.019811X0.027685*%
%ADD87C,0.056*%
%ADD89R,0.055992X0.055992*%
%ADD93R,0.051307X0.04737*%
%ADD95R,0.16548X0.149732*%
%ADD100OUTLINE0*%
%ADD101OUTLINE1*%
%ADD102OUTLINE2*%
%ADD103OUTLINE3*%
%ADD104OUTLINE4*%
%ADD105OUTLINE5*%
%ADD106OUTLINE6*%
%ADD107OUTLINE7*%
%ADD108OUTLINE8*%
%ADD109OUTLINE9*%
%ADD110OUTLINE10*%
%ADD111OUTLINE11*%
%ADD112OUTLINE12*%
%ADD113OUTLINE13*%
%ADD114OUTLINE14*%
%ADD115OUTLINE15*%
%ADD116OUTLINE16*%
%ADD117OUTLINE17*%
%ADD118OUTLINE18*%
%ADD119OUTLINE19*%
%ADD120OUTLINE20*%
%ADD121OUTLINE21*%
%ADD122OUTLINE22*%
G75*
G01*
%LPD*%
D95*
X1456500Y2694000D3*
X1141539D3*
X826579D3*
D21*
X2050424Y1750382D3*
X1983495D3*
X1956664Y1025306D3*
X2023593D3*
D22*
X2547125Y1209625D3*
Y1276554D3*
D21*
X2247125Y1019000D3*
X2180196D3*
D22*
X2559625Y1519000D3*
Y1585929D3*
X1787749Y1281500D3*
Y1214571D3*
X1722125Y1465871D3*
Y1532801D3*
X1647003Y1275156D3*
Y1208227D3*
X1590752Y1275156D3*
Y1208227D3*
D100*
X1031470Y2322129D3*
Y2192207D3*
X1193987Y2322129D3*
Y2192207D3*
D21*
X2200249Y1762751D3*
X2267178D3*
D22*
X1319000Y2284625D3*
Y2217696D3*
X1877465Y2014965D3*
Y1948035D3*
D21*
X1037752Y800249D3*
X1104681D3*
X1103378Y737749D3*
X1036449D3*
D22*
X587749Y944000D3*
Y1010929D3*
X589982Y796243D3*
Y729314D3*
X2175437Y2375448D3*
Y2308518D3*
D21*
X1469000Y1615875D3*
X1535929D3*
D101*
X590875Y2487751D3*
X681427D3*
X590875Y2390875D3*
X681427D3*
D89*
X875251Y1572125D3*
D87*
Y1472125D3*
Y1372125D3*
Y1272125D3*
Y1172125D3*
X1175251D3*
Y1272125D3*
Y1372125D3*
Y1472125D3*
Y1572125D3*
D89*
X465875D3*
D87*
Y1472125D3*
Y1372125D3*
Y1272125D3*
Y1172125D3*
X765875D3*
Y1272125D3*
Y1372125D3*
Y1472125D3*
Y1572125D3*
D102*
X637751Y2575251D3*
Y2685487D3*
D50*
X494000Y494000D3*
X2994000D3*
Y2794000D3*
X494000D3*
G36*
X507681Y2334658D2*
X440820D1*
Y2255851D1*
X507681D1*
Y2334658D1*
G37*
G36*
Y2044594D2*
X440820D1*
Y1965787D1*
X507681D1*
Y2044594D1*
G37*
G36*
Y2203405D2*
X440845D1*
Y2097040D1*
X507681D1*
Y2203405D1*
G37*
D103*
X581500Y2150251D3*
Y2175841D3*
Y2099070D3*
Y2124659D3*
D104*
X474217Y2295329D3*
Y2005172D3*
D105*
Y2150251D3*
D103*
X581500Y2201430D3*
D51*
X560831Y2225054D3*
Y2075446D3*
D30*
X494000Y2444000D3*
Y2544000D3*
D106*
X469000Y1725249D3*
D30*
X569000Y1715249D3*
X669000Y1725249D3*
X769000Y1715249D3*
X869000Y1725249D3*
X969000Y1715249D3*
X1069000Y1725249D3*
X1169000Y1715249D3*
D107*
X1787896Y1356591D3*
Y1427457D3*
D108*
Y1581614D3*
Y1510748D3*
D107*
X2244194Y2306690D3*
Y2377556D3*
D109*
X1407251Y2083751D3*
X1348196D3*
X908583Y1956501D3*
X849528D3*
X775251D3*
X716196D3*
X1175249D3*
X1116194D3*
X1041916D3*
X982861D3*
X2675249Y806500D3*
X2616194D3*
X2341916D3*
X2282861D3*
X2008584D3*
X1949529D3*
X1675251D3*
X1616196D3*
X1837902Y2137923D3*
X1778846D3*
X1644131D3*
X1585076D3*
X2131682Y2125421D3*
X2072627D3*
X2844000Y2725251D3*
X2784945D3*
X2844000Y2819000D3*
X2784945D3*
D110*
X1762749Y2687749D3*
X1806056Y2672001D3*
X1849364Y2687749D3*
X1892671Y2695623D3*
X1935978Y2687749D3*
X1979285Y2695623D3*
X2022592Y2687749D3*
X2065899D3*
D111*
X2034009Y2282238D3*
X1809600D3*
D112*
X1579285Y2839324D3*
X2097001Y2799954D3*
D33*
X1569000Y1369000D3*
X1669000D3*
D22*
X1781654Y1736257D3*
Y1803186D3*
X1856654Y1737881D3*
Y1804810D3*
D21*
X1339677Y2144173D3*
X1406606D3*
D22*
X1631500Y1912751D3*
Y1845822D3*
X1969165Y2125421D3*
Y2192350D3*
X969000Y1812751D3*
Y1879680D3*
X869000Y1815875D3*
Y1882804D3*
X769000Y1814571D3*
Y1881500D3*
X669000Y1815875D3*
Y1882804D3*
X2544226Y1131567D3*
Y1064638D3*
X569000Y1884625D3*
Y1817696D3*
D21*
X843738Y2037751D3*
X910667D3*
X708320D3*
X775249D3*
D22*
X1562751Y1912751D3*
Y1845822D3*
D21*
X1109625Y2037751D3*
X1176554D3*
X975251D3*
X1042180D3*
X2675249Y862749D3*
X2608320D3*
X2344000Y856500D3*
X2277071D3*
X2012751D3*
X1945822D3*
X1681500Y862749D3*
X1614571D3*
D22*
X1912741Y2125249D3*
Y2192178D3*
D21*
X1783311Y2194000D3*
X1850240D3*
D22*
X1718991Y2125249D3*
Y2192178D3*
D21*
X1587739Y2194000D3*
X1654668D3*
D22*
X2206690Y2119171D3*
Y2186100D3*
D21*
X2075427Y2187928D3*
X2142356D3*
D22*
X1465073Y714995D3*
Y648066D3*
X1802609Y714995D3*
Y648066D3*
X2141972Y696243D3*
Y629314D3*
X2475469Y694031D3*
Y627102D3*
X2140144Y537765D3*
Y470836D3*
X1802609Y537765D3*
Y470836D3*
X2475469Y537765D3*
Y470836D3*
X1465073Y537765D3*
Y470836D3*
D21*
X456507Y800282D3*
X523436D3*
D22*
X962810Y762778D3*
Y695849D3*
X897175Y762778D3*
Y695849D3*
D21*
X2650249Y1203375D3*
X2717178D3*
X2650251Y1147125D3*
X2717180D3*
X2650249Y1090875D3*
X2717178D3*
X2625251Y2131500D3*
X2692180D3*
X2625252Y2075251D3*
X2692181D3*
X2625488Y2016034D3*
X2692417D3*
D22*
X920157Y930713D3*
Y997642D3*
X2702466Y2777465D3*
Y2710535D3*
X2662988Y1412846D3*
Y1345917D3*
X2189963Y2710546D3*
Y2777475D3*
D93*
X1469911Y1557411D3*
X1536840D3*
D30*
X1287749Y1756500D3*
Y2012500D3*
X1465749Y1756500D3*
Y2012500D3*
X1550249Y469000D3*
Y725000D3*
X1728249Y469000D3*
Y725000D3*
X1885667Y469000D3*
Y725000D3*
X2063667Y469000D3*
Y725000D3*
X2221083Y469000D3*
Y725000D3*
X2399083Y469000D3*
Y725000D3*
X2556500Y469000D3*
Y725000D3*
X2734500Y469000D3*
Y725000D3*
D35*
X1894984Y1562749D3*
Y1543064D3*
Y1523379D3*
Y1503694D3*
Y1484009D3*
Y1464324D3*
Y1444639D3*
Y1424954D3*
Y1405269D3*
Y1385584D3*
Y1365899D3*
Y1346214D3*
Y1326529D3*
Y1306844D3*
Y1287159D3*
Y1267474D3*
Y1247789D3*
Y1228104D3*
Y1208419D3*
Y1188734D3*
D36*
X1971756Y1111962D3*
X1991441D3*
X2011126D3*
X2030811D3*
X2050496D3*
X2070181D3*
X2089866D3*
X2109551D3*
X2129236D3*
X2148921D3*
X2168606D3*
X2188291D3*
X2207976D3*
X2227661D3*
X2247346D3*
X2267031D3*
X2286717D3*
X2306402D3*
X2326087D3*
X2345772D3*
D35*
X2422543Y1188734D3*
Y1208419D3*
Y1228104D3*
Y1247789D3*
Y1267474D3*
Y1287159D3*
Y1306844D3*
Y1326529D3*
Y1346214D3*
Y1365899D3*
Y1385584D3*
Y1405269D3*
Y1424954D3*
Y1444639D3*
Y1464324D3*
Y1484009D3*
Y1503694D3*
Y1523379D3*
Y1543064D3*
Y1562749D3*
D36*
X2345772Y1639521D3*
X2326087D3*
X2306402D3*
X2286717D3*
X2267031D3*
X2247346D3*
X2227661D3*
X2207976D3*
X2188291D3*
X2168606D3*
X2148921D3*
X2129236D3*
X2109551D3*
X2089866D3*
X2070181D3*
X2050496D3*
X2030811D3*
X2011126D3*
X1991441D3*
X1971756D3*
G36*
X864371Y2286645D2*
X848593D1*
Y2320094D1*
X864371D1*
Y2286645D1*
G37*
G36*
X838791D2*
X823013D1*
Y2320094D1*
X838791D1*
Y2286645D1*
G37*
G36*
X813194D2*
X797416D1*
Y2320094D1*
X813194D1*
Y2286645D1*
G37*
G36*
X787598D2*
X771836D1*
Y2320094D1*
X787598D1*
Y2286645D1*
G37*
G36*
X766944Y2281702D2*
X733475D1*
Y2265959D1*
X766944D1*
Y2281702D1*
G37*
G36*
Y2256124D2*
X733475D1*
Y2240364D1*
X766944D1*
Y2256124D1*
G37*
G36*
Y2230529D2*
X733475D1*
Y2214787D1*
X766944D1*
Y2230529D1*
G37*
G36*
Y2204935D2*
X733475D1*
Y2189192D1*
X766944D1*
Y2204935D1*
G37*
G36*
X771887Y2184300D2*
X787598D1*
Y2150816D1*
X771887D1*
Y2184300D1*
G37*
G36*
X797467D2*
X813194D1*
Y2150816D1*
X797467D1*
Y2184300D1*
G37*
G36*
X823064D2*
X838791D1*
Y2150816D1*
X823064D1*
Y2184300D1*
G37*
G36*
X848644D2*
X864371D1*
Y2150816D1*
X848644D1*
Y2184300D1*
G37*
G36*
X869281Y2189242D2*
X902766D1*
Y2204935D1*
X869281D1*
Y2189242D1*
G37*
G36*
Y2214837D2*
X902766D1*
Y2230529D1*
X869281D1*
Y2214837D1*
G37*
G36*
Y2240415D2*
X902766D1*
Y2256124D1*
X869281D1*
Y2240415D1*
G37*
G36*
Y2266010D2*
X902766D1*
Y2281702D1*
X869281D1*
Y2266010D1*
G37*
D113*
X856500Y2303375D3*
X830909D3*
X805319D3*
X779728D3*
D114*
X750201Y2273848D3*
Y2248257D3*
Y2222667D3*
Y2197076D3*
D115*
X779728Y2167549D3*
X805319D3*
X830909D3*
X856500D3*
D116*
X886028Y2197076D3*
Y2222667D3*
Y2248257D3*
Y2273848D3*
D117*
X818114Y2235462D3*
D118*
X834625Y2503375D3*
X797223D3*
X759822D3*
Y2401005D3*
X834625D3*
D37*
X2065875Y2003375D3*
Y1953375D3*
Y1903375D3*
Y1853375D3*
X2278474D3*
Y1903375D3*
Y1953375D3*
Y2003375D3*
D75*
X1281593Y812783D3*
X1261908D3*
X1242223D3*
X1222538D3*
X1202853D3*
D73*
X1193010Y783256D3*
Y763571D3*
Y743886D3*
D75*
X1222538Y714358D3*
X1242223D3*
X1261908D3*
X1281593D3*
D73*
X1291436Y743886D3*
Y763571D3*
Y783256D3*
D75*
X1202853Y714358D3*
D119*
X1028375Y944000D3*
D120*
X1175226Y969984D3*
D119*
X1028375Y995181D3*
D121*
X675280Y756528D3*
Y606528D3*
Y656528D3*
Y706528D3*
D122*
X728375Y947126D3*
Y966811D3*
Y986496D3*
X676407D3*
Y966811D3*
Y947126D3*
D41*
X2590875Y2678375D3*
D42*
Y2778375D3*
X2490875Y2678375D3*
Y2778375D3*
X2390875Y2678375D3*
Y2778375D3*
D41*
X2290875Y2678375D3*
D42*
Y2778375D3*
D67*
X1450816Y1481230D3*
X1431131D3*
X1411446D3*
X1391761D3*
X1372076D3*
X1352391D3*
X1332706D3*
X1313021D3*
D65*
X1285462Y1453671D3*
Y1433986D3*
Y1414301D3*
Y1394615D3*
Y1374930D3*
Y1355245D3*
Y1335560D3*
Y1315875D3*
D67*
X1313021Y1288316D3*
X1332706D3*
X1352391D3*
X1372076D3*
X1391761D3*
X1411446D3*
X1431131D3*
X1450816D3*
D65*
X1478375Y1315875D3*
Y1335560D3*
Y1355245D3*
Y1374930D3*
Y1394615D3*
Y1414301D3*
Y1433986D3*
Y1453671D3*
D63*
X1381919Y1384773D3*
D47*
X2844000Y687749D3*
D48*
Y787749D3*
Y887749D3*
Y987749D3*
Y1087749D3*
Y1187749D3*
Y1287749D3*
Y1387749D3*
Y1487749D3*
Y1587749D3*
Y1687749D3*
Y1787749D3*
Y1887749D3*
Y1987749D3*
Y2087749D3*
Y2187749D3*
Y2287749D3*
D59*
Y2387749D3*
Y2487749D3*
Y2587749D3*
D47*
X2944000Y687749D3*
D48*
Y787749D3*
Y887749D3*
Y987749D3*
Y1087749D3*
Y1187749D3*
Y1287749D3*
Y1387749D3*
Y1487749D3*
Y1587749D3*
Y1687749D3*
Y1787749D3*
Y1887749D3*
Y1987749D3*
Y2087749D3*
Y2187749D3*
Y2287749D3*
D59*
Y2387749D3*
Y2487749D3*
Y2587749D3*
D30*
X1306596Y481247D3*
X1206596Y491247D3*
X1106596Y481247D3*
X1006596Y491247D3*
X906596Y481247D3*
M02*
