%TF.GenerationSoftware,Novarm,DipTrace,3.2.0.1*%
%TF.CreationDate,2018-02-15T15:07:35-08:00*%
%FSLAX26Y26*%
%MOIN*%
%TF.FileFunction,Plated,1,4,PTH,Drill*%
%TF.Part,Single*%
%TA.AperFunction,ViaDrill*%
%ADD21C,0.011811*%
%TA.AperFunction,ComponentDrill*%
%ADD68C,0.035433*%
%ADD69C,0.019685*%
%ADD70C,0.04*%
%ADD71C,0.03937*%
%ADD72C,0.032*%
G75*
G01*
D68*
X484631Y2472185D3*
Y2572185D3*
X463093Y2280188D2*
D69*
X435534D1*
X463093Y2020345D2*
X435534D1*
D70*
X469016Y1737765D3*
X569016Y1727765D3*
X669016Y1737765D3*
X769016Y1727765D3*
X869016Y1737765D3*
X969016Y1727765D3*
X1069016Y1737765D3*
X1169016Y1727765D3*
D68*
X2844016Y687765D3*
Y787765D3*
Y887765D3*
Y987765D3*
Y1087765D3*
Y1187765D3*
Y1287765D3*
Y1387765D3*
Y1487765D3*
Y1587765D3*
Y1687765D3*
Y1787765D3*
Y1887765D3*
Y1987765D3*
Y2087765D3*
Y2187765D3*
Y2287765D3*
Y2387765D3*
Y2487765D3*
Y2587765D3*
X2944016Y687765D3*
Y787765D3*
Y887765D3*
Y987765D3*
Y1087765D3*
Y1187765D3*
Y1287765D3*
Y1387765D3*
Y1487765D3*
Y1587765D3*
Y1687765D3*
Y1787765D3*
Y1887765D3*
Y1987765D3*
Y2087765D3*
Y2187765D3*
Y2287765D3*
Y2387765D3*
Y2487765D3*
Y2587765D3*
D70*
X1287765Y1756516D3*
Y2012516D3*
X1465765Y1756516D3*
Y2012516D3*
X1550265Y494016D3*
Y750016D3*
X1728265Y494016D3*
Y750016D3*
X1885683Y494016D3*
Y750016D3*
X2063683Y494016D3*
Y750016D3*
X2221099Y494016D3*
Y750016D3*
X2399099Y494016D3*
Y750016D3*
X2556516Y494016D3*
Y750016D3*
X2734516Y494016D3*
Y750016D3*
D71*
X2590891Y2722137D3*
Y2822137D3*
X2490891Y2722137D3*
Y2822137D3*
X2390891Y2722137D3*
Y2822137D3*
X2290891Y2722137D3*
Y2822137D3*
D72*
X1584641Y1050269D3*
Y1240269D3*
D21*
X1278298Y531764D3*
X1400160Y678624D3*
X971173Y2376227D3*
X972080Y2078477D3*
X713271Y2378983D3*
X675236Y2150267D3*
Y2206588D3*
X740855Y2356572D3*
X1562767Y1847251D3*
X548817Y2276251D3*
X837719Y2194089D3*
X1153311Y2240960D3*
X1240802D3*
X1328293D3*
X787865Y2525264D3*
X681486Y1922243D3*
X481507Y1834752D3*
X825221Y1922243D3*
X1983511Y1769147D3*
X2253196Y1769134D3*
X2065891Y1853391D3*
X1877481Y1948051D3*
X1578496Y2350361D3*
X1747788Y2318865D3*
X2054087D3*
X2125347Y2357448D3*
X2141095Y2796424D3*
X2206326Y2584673D3*
X1578496Y2794256D3*
X1961961Y2821214D3*
X1129057Y2709639D3*
X2478172Y500517D3*
X1465089Y494957D3*
X1802625Y495852D3*
X2140160D3*
X515878Y994215D3*
X1257906Y445752D3*
X1202936Y681516D3*
X1075194D3*
X819607Y994016D3*
X968756D3*
X1150187D3*
X1328095D3*
X736929D3*
X1797139Y1214587D3*
X1728390Y1059973D3*
X1331614Y847159D3*
X2562538Y1681643D3*
X2023609Y1027101D3*
X2529693Y1210943D3*
X869238Y524675D3*
X639767Y473494D3*
X750011Y680841D3*
X1002629Y493155D3*
X787998Y2250496D3*
X1059571Y2240960D3*
X887767Y2250265D3*
X1153311Y2240960D3*
X887625Y2144156D3*
X545692Y2020345D3*
X787998Y2144095D3*
X1831365Y1394173D3*
X1728390Y1291198D3*
X1928391Y1665891D3*
X2656516Y1119019D3*
X2509641Y1284641D3*
X2356722Y1706391D3*
X2162580Y1953391D3*
X2662765Y2078391D3*
X2003222Y2578424D3*
X2651572Y1028587D3*
X2487546Y1256735D3*
X1040823Y1059834D3*
X2368809Y1650397D3*
X2662767Y1997302D3*
X2275068Y2059729D3*
X1831365Y2722159D3*
X2477897Y1871646D3*
X2503170Y878603D3*
X2543790Y853605D3*
X2325063Y1350631D3*
X2496920Y1675394D3*
X2631281Y1809755D3*
X1984474Y1412922D3*
X2012596Y1384799D3*
X2075089Y1231691D3*
X875215Y1097330D3*
X2053217Y1169197D3*
X931460Y1091080D3*
X2093838Y1022338D3*
X2081338Y1184822D3*
X2109461Y1228566D3*
X2146957Y1197319D3*
X2115710Y994215D3*
X2243822Y1381675D3*
X2121960Y1719139D3*
X1968851Y2125347D3*
X2240697Y1162948D3*
X2265694Y1187945D3*
X2028219Y1256688D3*
X1978225Y1247314D3*
X2503391Y1644016D3*
X2503170Y1612901D3*
X2506294Y1581654D3*
X2619016Y1497141D3*
X2509419Y1450418D3*
X2619016Y1444016D3*
X2612765Y1412765D3*
X2359435Y1403547D3*
X1634511Y1287935D3*
X1556394Y1466041D3*
X2468798Y928597D3*
X1518898Y850481D3*
X865841Y2340949D3*
X793974Y2365946D3*
X1781670Y1736273D3*
X2371933Y1325431D3*
X2481516Y1337765D3*
X2662528Y1344179D3*
X2537541Y2522180D3*
X2197141Y1715891D3*
X2553164Y2384694D3*
X2506516Y1315891D3*
X2659465Y1212943D3*
X1012520Y1087775D3*
X2662764Y2147139D3*
X2403391Y1894016D3*
X2325142Y1712642D3*
X1918856Y2719034D3*
X2362559Y959844D3*
X703391Y509641D3*
X1603264Y984841D3*
X1678256Y925473D3*
X1871986D3*
X1247051Y556761D3*
X1002629Y532919D3*
X1970831Y2194016D3*
X1850267D3*
X1912859D3*
X2171954Y2711777D3*
X2334437Y984841D3*
X750265Y512765D3*
X1815742Y1022849D3*
X1165810Y564488D3*
X1057747Y572683D3*
X2003222Y1547282D3*
X1465778Y737992D3*
X2062591Y1525410D3*
X1803243Y741117D3*
X2134458Y1537908D3*
X2143832Y719244D3*
X2175079Y1578529D3*
X2340687Y1172322D3*
X2378183Y1141075D3*
X2475267Y725516D3*
X1987599Y1484789D3*
X1947141Y1587767D3*
X1931516Y1612765D3*
X1972141Y1569016D3*
X1969016Y1512765D3*
X834595Y2362822D3*
X1856372Y1737897D3*
X2331313Y1387924D3*
X2390891Y2522141D3*
X2553164Y2347198D3*
X2306717Y1787966D3*
X1837614Y1222317D3*
X1453391Y2544016D3*
X676328Y2369071D3*
X822096Y2003485D3*
X678361D3*
X718982Y2522180D3*
X2107996Y2184715D3*
X2168826D3*
X2065891Y2028113D3*
X2318814Y1744137D3*
X2059466Y1000465D3*
X2037593Y1484789D3*
X1681381Y875478D3*
X2093838Y1528213D3*
X2012767Y875267D3*
X2344016Y875264D3*
X1931355Y1075104D3*
X2146957Y1466041D3*
X2659643Y887764D3*
X2406305Y1147324D3*
X2359435Y1194194D3*
X2200076Y1556656D3*
X1797139Y1281516D3*
X1971839Y1365915D3*
X1337667Y2084726D3*
X1719007Y2192194D3*
X1656516Y2194016D3*
X1787620Y2722159D3*
X2225074Y1353553D3*
X2078265Y1694142D3*
M02*
