%TF.GenerationSoftware,Novarm,DipTrace,3.2.0.1*%
%TF.CreationDate,2018-02-15T15:07:33-08:00*%
%FSLAX26Y26*%
%MOIN*%
%TF.FileFunction,Copper,L3,Inr*%
%TF.Part,Single*%
%AMOUTLINE1*
4,1,4,
0.026163,0.026163,
0.026205,-0.026121,
-0.026121,-0.026205,
-0.026163,0.026163,
0.026163,0.026163,
0*%
%TA.AperFunction,Conductor*%
%ADD15C,0.006*%
%TA.AperFunction,ComponentPad*%
%ADD33R,0.059055X0.059055*%
%ADD34C,0.059055*%
%ADD38O,0.070866X0.043307*%
%ADD45C,0.074*%
%ADD60R,0.05937X0.05937*%
%ADD61C,0.05937*%
%ADD65C,0.048*%
%TA.AperFunction,ViaPad*%
%ADD66C,0.021654*%
%TA.AperFunction,ComponentPad*%
%ADD142OUTLINE1*%
G75*
G01*
%LPD*%
X971173Y2376227D2*
D15*
Y2303453D1*
Y2077570D1*
X972080Y2078477D1*
X713271Y2378983D2*
Y2315414D1*
X725231Y2303453D1*
X971173D1*
X740855Y2356572D2*
Y2431565D1*
X762727Y2453437D1*
X1275173D1*
X1387662Y2340949D1*
Y1922243D1*
X1462654Y1847251D1*
X1562767D1*
X1040823Y1059834D2*
X1103317Y1122327D1*
X1843864D1*
X1918856Y1047335D1*
X1940729D1*
X1953227Y1059834D1*
X2596910D1*
X2628156Y1028587D1*
X2651572D1*
X2325063Y1350631D2*
X2312361D1*
X2296941Y1366051D1*
Y1424196D1*
X2475267Y1602521D1*
Y1653740D1*
X2496920Y1675394D1*
X2631281Y1809755D2*
Y2375030D1*
X2844016Y2587765D1*
X1984474Y1412922D2*
X2012596D1*
X2112586Y1512911D1*
X2265694D1*
X2396931Y1644147D1*
Y1734763D1*
X2443801Y1781633D1*
X2643780D1*
X2849912Y1987765D1*
X2844016D1*
X2012596Y1384799D2*
X2121960Y1494163D1*
X2271944D1*
X2415679Y1637898D1*
Y1725389D1*
X2453175Y1762885D1*
X2715647D1*
X2840528Y1887765D1*
X2844016D1*
X2075089Y1231691D2*
X2028219Y1184820D1*
X962706D1*
X875215Y1097330D1*
X2053217Y1169197D2*
X2056341Y1166072D1*
X1006452D1*
X931460Y1091080D1*
X2844016Y1087765D2*
X2728593Y972343D1*
X2643814D1*
X2584445Y1031712D1*
X2275068D1*
X2265694Y1022338D1*
X2093838D1*
X2081338Y1184822D2*
X2090713Y1175446D1*
Y1131701D1*
X2125084Y1097330D1*
X2490671D1*
X2640655Y1247314D1*
X2696899D1*
X2756448Y1187765D1*
X2844016D1*
Y1287765D2*
X2647141D1*
X2475453Y1116078D1*
X2153206D1*
X2109461Y1159823D1*
Y1228566D1*
X2146957Y1197319D2*
Y1166072D1*
X2175079Y1137950D1*
X2340687D1*
X2387557Y1184820D1*
X2453571D1*
X2584807Y1316057D1*
X2775016D1*
X2850008Y1391049D1*
X2844016D1*
Y1387765D1*
Y1487765D2*
X2837658D1*
X2846883Y1478540D1*
X2837509D1*
X2728146Y1369176D1*
X2471923D1*
X2450050Y1347303D1*
Y1331680D1*
X2281318Y1162948D1*
X2240697D1*
X2844016Y1587765D2*
Y1594410D1*
X2637530Y1387924D1*
X2446925D1*
X2403180Y1344179D1*
Y1319181D1*
X2265694Y1181696D1*
Y1187945D1*
X2844016Y1687765D2*
X2809515D1*
X2787515Y1709765D1*
X2481297D1*
X2456299Y1684768D1*
Y1616025D1*
X2278193Y1437919D1*
X2187578D1*
X2140708Y1391049D1*
X2106336D1*
X2031344Y1316057D1*
Y1259813D1*
X2028219Y1256688D1*
X2844016Y1787765D2*
X2837393D1*
X2790639Y1741012D1*
X2465673D1*
X2437551Y1712890D1*
Y1631649D1*
X2271944Y1466041D1*
X2187578D1*
X2146957Y1425420D1*
X2109461D1*
X2003222Y1319181D1*
Y1272311D1*
X1978225Y1247314D1*
X1634511Y1287935D2*
X1556394Y1366051D1*
Y1466041D1*
X2468798Y928597D2*
X2365684D1*
X2337562Y900475D1*
X1568893D1*
X1518898Y850481D1*
X2944016Y1387765D2*
X2962338D1*
X3031239Y1456667D1*
Y2634668D1*
X2993743Y2672164D1*
X2843759D1*
X2693786Y2822137D1*
X2590891D1*
X2197141Y1715891D2*
Y1813068D1*
X2462767Y2078694D1*
Y2297422D1*
X2550040Y2384694D1*
X2553164D1*
X1012520Y1087775D2*
X1065820Y1141075D1*
X1856362D1*
X1903233Y1094205D1*
X1909482Y1100454D1*
X1946978D1*
X1968851Y1078582D1*
X2521918D1*
X2656278Y1212943D1*
X2659465D1*
X2403391Y1894016D2*
X2344016Y1834641D1*
Y1731516D1*
X2325142Y1712642D1*
X2362559Y959844D2*
X2525063D1*
X2672142Y812765D1*
X2750267D1*
X2819242Y743790D1*
X2906780D1*
X2944016Y781026D1*
Y787765D1*
X703391Y509641D2*
X831754Y638003D1*
X1193932D1*
X1540771Y984841D1*
X1603264D1*
X1678256Y925473D2*
X1871986D1*
Y922348D1*
X2325063D1*
X2362559Y959844D1*
X1247051Y556761D2*
Y613006D1*
X1559519Y925473D1*
X1678256D1*
X1002629Y532919D2*
X1223209D1*
X1247051Y556761D1*
X2171954Y2711777D2*
Y2609671D1*
X1970831Y2408547D1*
Y2194016D1*
X2844016Y787765D2*
Y781551D1*
X2334437Y984841D2*
X2543815D1*
X2606516Y922141D1*
X2709641D1*
X2844016Y787765D1*
X750265Y512765D2*
X775265D1*
X872381Y609881D1*
X1165810D1*
X1206431D1*
X1547020Y950470D1*
X1612638D1*
X1643885Y981717D1*
X1815742D1*
Y1022849D1*
Y981717D2*
Y969218D1*
X1840739Y944221D1*
X1850113D1*
X1862612Y956719D1*
X1878235D1*
X1893859Y941096D1*
X2290692D1*
X2334437Y984841D1*
X1165810Y564488D2*
Y609881D1*
X1057747Y572683D2*
X1157616D1*
X1165810Y564488D1*
X1987599Y1484789D2*
X1890734D1*
X1840739Y1534784D1*
X1762622D1*
X1731376Y1566030D1*
X730751D1*
X569016Y1727765D1*
X1947141Y1587767D2*
X1906516D1*
X1853391Y1640891D1*
X965890D1*
X869016Y1737765D1*
X1931516Y1612765D2*
X1884641Y1659641D1*
X1037141D1*
X969016Y1727765D1*
X1972141Y1569016D2*
X1962765Y1559641D1*
X1884625D1*
X1831365Y1612901D1*
X883881D1*
X769016Y1727765D1*
X669016Y1737765D2*
X667500Y1736250D1*
X815847Y1587903D1*
X1740750D1*
X1775121Y1553532D1*
X1850113D1*
X1900254Y1503391D1*
X1956516D1*
X1967453Y1514328D1*
X1969016Y1512765D1*
X2944016Y1487765D2*
X2981096D1*
X3006242Y1512911D1*
Y2631544D1*
X2987494Y2650292D1*
X2362736D1*
X2290891Y2722137D1*
X2553164Y2347198D2*
X2497141Y2291175D1*
Y2065891D1*
X2306717Y1875467D1*
Y1787966D1*
X2844016Y987765D2*
X2846683D1*
X2806263Y947345D1*
X2625032D1*
X2562538Y1009839D1*
X2284443D1*
X2234448Y959844D1*
X2100087D1*
X2059466Y1000465D1*
X1971839Y1365915D2*
X1968987D1*
X1856362Y1478540D1*
X1746999D1*
X1693880Y1531659D1*
X653364D1*
X512754Y1672269D1*
Y1806630D1*
X562748Y1856625D1*
X1272049D1*
X1347041Y1931617D1*
Y2075352D1*
X1337667Y2084726D1*
D66*
X1278298Y531764D3*
X1400160Y678624D3*
X971173Y2376227D3*
X972080Y2078477D3*
X713271Y2378983D3*
X675236Y2150267D3*
Y2206588D3*
X740855Y2356572D3*
X1562767Y1847251D3*
X548817Y2276251D3*
X837719Y2194089D3*
X1153311Y2240960D3*
X1240802D3*
X1328293D3*
X787865Y2525264D3*
X681486Y1922243D3*
X481507Y1834752D3*
X825221Y1922243D3*
X681486D3*
X1983511Y1769147D3*
X2253196Y1769134D3*
X1983511Y1769147D3*
X2065891Y1853391D3*
X1877481Y1948051D3*
X2065891Y1853391D3*
X1578496Y2350361D3*
X1747788Y2318865D3*
X1578496Y2350361D3*
X2054087Y2318865D3*
X1747788D3*
X2125347Y2357448D3*
X2054087Y2318865D3*
X2141095Y2796424D3*
X2206326Y2584673D3*
X2125347Y2357448D3*
X1578496Y2794256D3*
X1961961Y2821214D3*
X1578496Y2794256D3*
Y2350361D3*
X1129057Y2709639D3*
X2478172Y500517D3*
X1465089Y494957D3*
X1802625Y495852D3*
X2140160D3*
X515878Y994215D3*
X1257906Y445752D3*
D3*
D3*
X1202936Y681516D3*
X1075194D3*
X819607Y994016D3*
X968756D3*
X1150187D3*
X1328095D3*
X736929D3*
X819607D3*
X736929D3*
X1202936Y681516D3*
X1797139Y1214587D3*
X1728390Y1059973D3*
X1328095Y994016D3*
X1331614Y847159D3*
X1202936Y681516D3*
X2562538Y1681643D3*
X2023609Y1027101D3*
X2529693Y1210943D3*
X869238Y524675D3*
X639767Y473494D3*
X750011Y680841D3*
D3*
X1331614Y847159D3*
X1002629Y493155D3*
X2023609Y1027101D3*
X787998Y2250496D3*
X1059571Y2240960D3*
X887767Y2250265D3*
X1153311Y2240960D3*
X887625Y2144156D3*
X548817Y2276251D3*
X545692Y2020345D3*
X787998Y2144095D3*
X1831365Y1394173D3*
X1728390Y1291198D3*
X1797139Y1214587D3*
X1928391Y1665891D3*
X2656516Y1119019D3*
X2509641Y1284641D3*
X2656516Y1119019D3*
X2356722Y1706391D3*
X2162580Y1953391D3*
X2662765Y2078391D3*
X2003222Y2578424D3*
X2651572Y1028587D3*
X2487546Y1256735D3*
X2651572Y1028587D3*
X1040823Y1059834D3*
X2651572Y1028587D3*
X2368809Y1650397D3*
X2662767Y1997302D3*
D3*
X2275068Y2059729D3*
X1831365Y2722159D3*
X2477897Y1871646D3*
X2503170Y878603D3*
X2543790Y853605D3*
X2325063Y1350631D3*
X2496920Y1675394D3*
X2631281Y1809755D3*
X1984474Y1412922D3*
X2012596Y1384799D3*
X2075089Y1231691D3*
X875215Y1097330D3*
X2053217Y1169197D3*
X931460Y1091080D3*
X2093838Y1022338D3*
X2081338Y1184822D3*
X2109461Y1228566D3*
X2146957Y1197319D3*
X2115710Y994215D3*
X2243822Y1381675D3*
X2121960Y1719139D3*
X1968851Y2125347D3*
X2240697Y1162948D3*
X2265694Y1187945D3*
X2028219Y1256688D3*
X1978225Y1247314D3*
X2503391Y1644016D3*
X2503170Y1612901D3*
X2506294Y1581654D3*
X2619016Y1497141D3*
X2509419Y1450418D3*
X2619016Y1444016D3*
X2612765Y1412765D3*
X2359435Y1403547D3*
X1634511Y1287935D3*
X1556394Y1466041D3*
X2468798Y928597D3*
X1518898Y850481D3*
X865841Y2340949D3*
X793974Y2365946D3*
X1781670Y1736273D3*
X2371933Y1325431D3*
X2481516Y1337765D3*
X2662528Y1344179D3*
X2537541Y2522180D3*
X2197141Y1715891D3*
X2553164Y2384694D3*
X2506516Y1315891D3*
X2659465Y1212943D3*
X1012520Y1087775D3*
X2659465Y1212943D3*
X2662764Y2147139D3*
X2403391Y1894016D3*
X2325142Y1712642D3*
X2403391Y1894016D3*
X1918856Y2719034D3*
X2362559Y959844D3*
X703391Y509641D3*
X1603264Y984841D3*
X1678256Y925473D3*
X2362559Y959844D3*
X1871986Y925473D3*
X1247051Y556761D3*
X1678256Y925473D3*
X1002629Y532919D3*
X1247051Y556761D3*
X1970831Y2194016D3*
X1850267D3*
X1912859D3*
X2171954Y2711777D3*
X1970831Y2194016D3*
X2334437Y984841D3*
X750265Y512765D3*
X1815742Y1022849D3*
X2334437Y984841D3*
X1165810Y564488D3*
X1057747Y572683D3*
X1165810Y564488D3*
X2003222Y1547282D3*
X1465778Y737992D3*
X2062591Y1525410D3*
X1803243Y741117D3*
X2134458Y1537908D3*
X2143832Y719244D3*
X2175079Y1578529D3*
X2340687Y1172322D3*
X2378183Y1141075D3*
X2475267Y725516D3*
X1987599Y1484789D3*
X1947141Y1587767D3*
X1931516Y1612765D3*
X1972141Y1569016D3*
X1969016Y1512765D3*
X834595Y2362822D3*
X1856372Y1737897D3*
X2331313Y1387924D3*
X2390891Y2522141D3*
X2553164Y2347198D3*
X2306717Y1787966D3*
X1837614Y1222317D3*
X1453391Y2544016D3*
X676328Y2369071D3*
X822096Y2003485D3*
X678361D3*
X718982Y2522180D3*
X2107996Y2184715D3*
X2168826D3*
X2065891Y2028113D3*
X2318814Y1744137D3*
X2065891Y2028113D3*
X2107996Y2184715D3*
X2059466Y1000465D3*
X2037593Y1484789D3*
X1681381Y875478D3*
X2093838Y1528213D3*
X2012767Y875267D3*
X2344016Y875264D3*
X1931355Y1075104D3*
X2146957Y1466041D3*
X2659643Y887764D3*
X2406305Y1147324D3*
X2359435Y1194194D3*
X2200076Y1556656D3*
X1797139Y1281516D3*
X1971839Y1365915D3*
X1337667Y2084726D3*
X1719007Y2192194D3*
X1656516Y2194016D3*
X1787620Y2722159D3*
X1719007Y2192194D3*
X2225074Y1353553D3*
X2078265Y1694142D3*
X1719007Y2192194D3*
D33*
X484631Y2472185D3*
D34*
Y2572185D3*
D38*
X449314Y2280188D3*
Y2020345D3*
D142*
X469016Y1737765D3*
D45*
X569016Y1727765D3*
X669016Y1737765D3*
X769016Y1727765D3*
X869016Y1737765D3*
X969016Y1727765D3*
X1069016Y1737765D3*
X1169016Y1727765D3*
D33*
X2844016Y687765D3*
D34*
Y787765D3*
Y887765D3*
Y987765D3*
Y1087765D3*
Y1187765D3*
Y1287765D3*
Y1387765D3*
Y1487765D3*
Y1587765D3*
Y1687765D3*
Y1787765D3*
Y1887765D3*
Y1987765D3*
Y2087765D3*
Y2187765D3*
Y2287765D3*
Y2387765D3*
Y2487765D3*
Y2587765D3*
D33*
X2944016Y687765D3*
D34*
Y787765D3*
Y887765D3*
Y987765D3*
Y1087765D3*
Y1187765D3*
Y1287765D3*
Y1387765D3*
Y1487765D3*
Y1587765D3*
Y1687765D3*
Y1787765D3*
Y1887765D3*
Y1987765D3*
Y2087765D3*
Y2187765D3*
Y2287765D3*
Y2387765D3*
Y2487765D3*
Y2587765D3*
D45*
X1287765Y1756516D3*
Y2012516D3*
X1465765Y1756516D3*
Y2012516D3*
X1550265Y494016D3*
Y750016D3*
X1728265Y494016D3*
Y750016D3*
X1885683Y494016D3*
Y750016D3*
X2063683Y494016D3*
Y750016D3*
X2221099Y494016D3*
Y750016D3*
X2399099Y494016D3*
Y750016D3*
X2556516Y494016D3*
Y750016D3*
X2734516Y494016D3*
Y750016D3*
D60*
X2590891Y2722137D3*
D61*
Y2822137D3*
X2490891Y2722137D3*
Y2822137D3*
X2390891Y2722137D3*
Y2822137D3*
D60*
X2290891Y2722137D3*
D61*
Y2822137D3*
D65*
X1584641Y1050269D3*
Y1240269D3*
M02*
