%TF.GenerationSoftware,Novarm,DipTrace,3.2.0.1*%
%TF.CreationDate,2018-02-15T15:07:33-08:00*%
%FSLAX26Y26*%
%MOIN*%
%TF.FileFunction,Copper,L1,Top*%
%TF.Part,Single*%
%AMOUTLINE0*
4,1,4,
-0.035433,0.019685,
-0.035433,-0.019685,
0.035433,-0.019685,
0.035433,0.019685,
-0.035433,0.019685,
0*%
%AMOUTLINE1*
4,1,4,
0.026163,0.026163,
0.026205,-0.026121,
-0.026121,-0.026205,
-0.026163,0.026163,
0.026163,0.026163,
0*%
%AMOUTLINE2*
4,1,4,
-0.023622,0.015748,
-0.023622,-0.015748,
0.023622,-0.015748,
0.023622,0.015748,
-0.023622,0.015748,
0*%
%AMOUTLINE3*
4,1,4,
-0.010827,-0.023622,
0.010827,-0.023622,
0.010827,0.023622,
-0.010827,0.023622,
-0.010827,-0.023622,
0*%
%TA.AperFunction,Conductor*%
%ADD15C,0.006*%
%ADD16C,0.015748*%
%ADD17C,0.005984*%
%ADD18C,0.008*%
%ADD19C,0.012*%
%ADD20C,0.01*%
%ADD21C,0.011811*%
%ADD22C,0.015*%
%ADD23C,0.023622*%
%ADD24R,0.15748X0.141732*%
%ADD26R,0.03937X0.043307*%
%ADD27R,0.043307X0.03937*%
%ADD28R,0.059055X0.051181*%
%ADD30R,0.023622X0.023622*%
%TA.AperFunction,ComponentPad*%
%ADD33R,0.059055X0.059055*%
%ADD34C,0.059055*%
%ADD36R,0.05315X0.015748*%
%ADD37R,0.055118X0.062992*%
%TA.AperFunction,ComponentPad*%
%ADD38O,0.070866X0.043307*%
%ADD39R,0.031496X0.048819*%
%ADD40R,0.045276X0.098425*%
%ADD41R,0.045276X0.086614*%
%ADD42R,0.059055X0.045276*%
%ADD43R,0.045669X0.047244*%
%ADD44R,0.045669X0.049213*%
%TA.AperFunction,ComponentPad*%
%ADD45C,0.074*%
%ADD49R,0.062992X0.011811*%
%ADD50R,0.011811X0.062992*%
%ADD52O,0.033465X0.011811*%
%ADD53O,0.011811X0.033465*%
%ADD54R,0.137795X0.137795*%
%ADD55R,0.015748X0.07874*%
%ADD56R,0.070866X0.015748*%
%ADD58R,0.011811X0.019685*%
%ADD59R,0.019685X0.011811*%
%TA.AperFunction,ComponentPad*%
%ADD60R,0.05937X0.05937*%
%ADD61C,0.05937*%
%ADD62R,0.07874X0.023622*%
%ADD64R,0.074803X0.059055*%
%TA.AperFunction,ComponentPad*%
%ADD65C,0.048*%
%TA.AperFunction,ViaPad*%
%ADD66C,0.021654*%
%ADD141OUTLINE0*%
%TA.AperFunction,ComponentPad*%
%ADD142OUTLINE1*%
%ADD143OUTLINE2*%
%ADD144OUTLINE3*%
%TA.AperFunction,CopperBalancing*%
%ADD145C,0.01*%
G75*
G01*
%LPD*%
X1280580Y594016D2*
D15*
Y534046D1*
X1278298Y531764D1*
X1400160Y678624D2*
Y677192D1*
X1400265Y677087D1*
X1007425Y681516D2*
X945775D1*
X1002629Y572684D2*
Y676719D1*
X1007425Y681516D1*
X938996Y2156197D2*
X972080D1*
Y2078477D1*
X975205D1*
X959582Y2062853D1*
X803348D1*
X800223Y2065978D1*
Y2098120D1*
X801201Y2097142D1*
X971173Y2376227D2*
D3*
X801201Y2293992D2*
Y2321223D1*
X765852Y2356572D1*
Y2372196D1*
X753353Y2384694D1*
X718982D1*
X713271Y2378983D1*
X715857Y2381570D1*
Y2275331D1*
X721437D1*
X742146Y2254622D1*
X879941Y2293992D2*
Y2311303D1*
X897088Y2328450D1*
X922086D1*
X972080Y2378445D1*
Y2375320D1*
X554550Y2150267D2*
X675236D1*
Y2206588D2*
X684610Y2197214D1*
X743793D1*
X742146Y2195567D1*
X554550Y2175857D2*
X742121D1*
X742146Y2175882D1*
X781516Y2293992D2*
Y2315911D1*
X740855Y2356572D1*
X1562767Y1847251D2*
Y1845838D1*
X2041067Y2191068D2*
D16*
Y2129047D1*
X2040582Y2128562D1*
X889025Y2003485D2*
D15*
Y1925368D1*
X892150Y1922243D1*
X742146Y2215252D2*
X820886D1*
X840571Y2195567D1*
X545692Y2276251D2*
D16*
X548817D1*
X837719Y2194089D2*
Y2197214D1*
X842218D1*
X840571Y2195567D1*
X1153311Y2240960D2*
D3*
X1240802D2*
D3*
X1328293D2*
D3*
X787865Y2525264D2*
D3*
X681486Y1922243D2*
D3*
X481507Y1834752D2*
X484631D1*
X825221Y1922243D2*
D3*
X1983511Y1769147D2*
D15*
Y1760723D1*
X2011142Y1733092D1*
Y1639537D1*
X2247362D2*
Y1758864D1*
X2254507Y1766008D1*
X1983511Y1769147D2*
D16*
D3*
X2253196Y1769134D2*
Y1767319D1*
X2254507Y1766008D1*
X2065891Y1853391D2*
D3*
X1877481Y1948051D2*
D3*
X1578496Y2350361D2*
D3*
X1747788Y2318865D2*
D3*
X2054087D2*
D3*
X2125347Y2357448D2*
D3*
X2141095Y2796424D2*
D3*
X2206326Y2584673D2*
Y2582860D1*
X1578496Y2796424D2*
Y2794256D1*
X1961961Y2821214D2*
D3*
X1129057Y2709639D2*
D3*
X2478172Y500517D2*
X2477070D1*
X2475485Y502103D1*
X1465089Y494957D2*
Y495852D1*
X1802625D2*
D3*
X2140160D2*
D3*
X515878Y994215D2*
X544016D1*
Y994016D1*
X1257906Y445752D2*
D15*
X1241210Y462446D1*
Y495591D1*
X1280580D2*
Y468427D1*
X1257906Y445752D1*
X1211683Y544803D2*
D17*
X1188223D1*
X1168687Y525267D1*
X1134641D1*
Y445752D1*
X1257906D1*
X1221525Y594016D2*
X1153070D1*
X1134641Y575587D1*
Y525267D1*
X1074355Y681516D2*
D16*
Y737272D1*
X1074087Y737540D1*
X1202851D2*
Y681601D1*
X1202936Y681516D1*
X1264453D1*
X1264685Y681284D1*
X1400265Y744016D2*
X1338091D1*
X1331614Y737540D1*
X1075194Y681516D2*
X1074355D1*
X1343229Y994016D2*
X1328095D1*
X1315670D1*
X1197057Y994215D2*
D15*
X1205234D1*
X1205433Y994016D1*
D16*
X1177874D1*
X1150315D1*
X1122756D1*
X1095197D1*
X984961D2*
X957402D1*
X847166D2*
X819607D1*
X792047D1*
X736929D2*
Y994215D1*
X819607Y994016D2*
D3*
X968756D2*
X984961D1*
X1797139Y1220836D2*
Y1214587D1*
X1728390Y1059973D2*
Y1070836D1*
X1787620Y1216067D2*
X1792370D1*
X1797139Y1220836D1*
X1331614Y737540D2*
Y847159D1*
X2422559Y1503710D2*
D15*
X2477406D1*
X2559641Y1585945D1*
X2422559Y1228120D2*
X2478662D1*
X2495839Y1210943D1*
X2531515D1*
X2207992Y1111978D2*
Y1072187D1*
X2161269Y1025464D1*
X2030827Y1111978D2*
Y1038790D1*
X2023609Y1031572D1*
X2562538Y1681643D2*
D16*
Y1588843D1*
X2559641Y1585945D1*
X2023609Y1031572D2*
Y980078D1*
X2050092Y953595D1*
X2140708D1*
X2162580Y975467D1*
Y1024152D1*
X2161269Y1025464D1*
X2023609Y1031572D2*
Y1027101D1*
X2529693Y1210943D2*
X2531515D1*
X869238Y499084D2*
Y524675D1*
Y550265D1*
Y524675D2*
D3*
X639767Y473494D2*
X640891D1*
X750011Y680841D2*
D3*
X1002629Y493156D2*
Y493155D1*
X787998Y2250496D2*
Y2248141D1*
X840571Y2195567D1*
X1059571Y2240960D2*
D3*
X887767Y2250265D2*
Y2242763D1*
X840571Y2195567D1*
X554550Y2099086D2*
Y2033141D1*
X545692Y2024282D1*
X887625Y2144156D2*
Y2148513D1*
X840571Y2195567D1*
X545692Y2020345D2*
Y2024282D1*
X787998Y2144095D2*
X789099D1*
X840571Y2195567D1*
X1895000Y1405285D2*
D18*
X1842477D1*
X1831365Y1394173D1*
X1728390Y1291198D2*
Y1289071D1*
X1497932Y1608869D2*
D16*
X1747906D1*
X1750124Y1611087D1*
X1815742D1*
X1873587D1*
X1928391Y1665891D1*
X1057747Y493156D2*
D15*
Y453393D1*
X1612275Y819016D2*
D16*
Y873087D1*
X1614452Y875264D1*
X1945608Y819016D2*
Y875037D1*
X1945836Y875265D1*
X2278940Y819016D2*
Y869198D1*
X2272874Y875264D1*
X2606024Y831516D2*
Y877578D1*
X2595838Y887764D1*
X2657823Y1119019D2*
D15*
X2656516D1*
X2422559Y1287175D2*
X2507108D1*
X2509641Y1284641D1*
X2326103Y1639537D2*
Y1675772D1*
X2356722Y1706391D1*
X2162580Y1953391D2*
X2065891D1*
X2607822Y2075267D2*
X2662765D1*
Y2078391D1*
X2772139Y2187765D1*
X2844016D1*
X2003222Y2578424D2*
Y2819168D1*
X2005268Y2821214D1*
X2651572Y1025273D2*
Y1028587D1*
X2487546Y1256735D2*
X2476792Y1267490D1*
X2422559D1*
X1040079Y994016D2*
X1040823Y994760D1*
Y1059834D1*
X2345788Y1639537D2*
X2357949D1*
X2368809Y1650397D1*
X2662767Y1997302D2*
X2608058D1*
X2662767D2*
X2753230Y2087765D1*
X2844016D1*
X2278490Y2003391D2*
Y2056307D1*
X2275068Y2059729D1*
X1831365Y2722159D2*
Y2820540D1*
X1832040Y2821214D1*
X2477897Y1871646D2*
Y1913260D1*
X2387765Y2003391D1*
X2278490D1*
X654252Y994016D2*
Y865029D1*
X669016Y850265D1*
X831517D1*
X944016Y737767D1*
Y738848D1*
X626693Y994016D2*
Y848839D1*
X644016Y831516D1*
X787767D1*
X875267Y744016D1*
Y740668D1*
X878395Y737540D1*
X819016Y744016D2*
Y739995D1*
X816561Y737540D1*
Y765221D1*
X769016Y812765D1*
X631517D1*
X599134Y845149D1*
Y994016D1*
X571575D2*
Y841457D1*
X619016Y794016D1*
X722141D1*
X750267Y765890D1*
Y738175D1*
X749631Y737540D1*
X1232992Y994016D2*
Y876742D1*
X1137767Y781516D1*
X1025267D1*
X1006516Y762765D1*
Y738181D1*
X1007158Y737540D1*
X1288110Y994016D2*
Y763109D1*
X1263613Y738612D1*
X1264685Y737540D1*
X1260551Y994016D2*
Y860551D1*
X1131516Y731516D1*
Y741945D1*
X1135922Y737540D1*
X2286733Y1111978D2*
Y948180D1*
X2321939Y912974D1*
X2362559D1*
X2400055Y875478D1*
X2500045D1*
X2503170Y878603D1*
X2306418Y1111978D2*
Y959742D1*
X2331313Y934847D1*
X2365684D1*
X2403180Y897351D1*
X2479691D1*
X2489065Y906725D1*
X2515668D1*
X2543790Y878603D1*
Y853605D1*
X2422559Y1247805D2*
X2390191D1*
X2375265Y1262730D1*
Y1281517D1*
X2325063Y1331719D1*
Y1350631D1*
X1895000Y1444655D2*
X1952740D1*
X1984474Y1412922D1*
X1895000Y1464340D2*
X1896424Y1462916D1*
X1968851D1*
X1984474Y1447293D1*
X1996973D1*
X2012596Y1431670D1*
Y1384799D1*
X1991457Y1111978D2*
Y1129310D1*
Y1111978D2*
Y1188679D1*
X2034469Y1231691D1*
X2075089D1*
X875215Y1097330D2*
Y994507D1*
X874725Y994016D1*
X2011142Y1111978D2*
Y1152120D1*
X2025095Y1166072D1*
X2050092D1*
X2053217Y1169197D1*
X931460Y1091080D2*
Y995633D1*
X929843Y994016D1*
X2093838Y1022338D2*
Y1047335D1*
X2068840Y1072332D1*
Y1110621D1*
X2070197Y1111978D1*
X2090713Y1112809D2*
X2089882Y1111978D1*
Y1176277D1*
X2081338Y1184822D1*
X2109461Y1228566D2*
Y1112084D1*
X2109567Y1111978D1*
X2131334Y1109897D2*
X2129252Y1111978D1*
Y1179614D1*
X2146957Y1197319D1*
X2148937Y1111978D2*
Y1074313D1*
X2121960Y1047335D1*
Y1000465D1*
X2115710Y994215D1*
X2188307Y1111978D2*
Y1144929D1*
X2271944Y1228566D1*
Y1303558D1*
X2250071Y1325431D1*
Y1375425D1*
X2243822Y1381675D1*
X1968851Y2125347D2*
X1969091D1*
X2240697Y1162948D2*
Y1156698D1*
X2246946Y1150449D1*
Y1112394D1*
X2247362Y1111978D1*
X2265694Y1187945D2*
Y1113331D1*
X2267047Y1111978D1*
X2028219Y1256688D2*
X2025095Y1259813D1*
X1987599Y1222317D1*
X1943853D1*
X1937604Y1228566D1*
X1895446D1*
X1895000Y1228120D1*
X1978225Y1247314D2*
X1895491D1*
X1895000Y1247805D1*
X2422559Y1562765D2*
Y1569435D1*
X2497141Y1644016D1*
X2503391D1*
X2422559Y1543080D2*
X2458705D1*
X2478172Y1562547D1*
Y1593798D1*
X2497275Y1612901D1*
X2503170D1*
X2422559Y1523395D2*
X2464020D1*
X2506294Y1565670D1*
Y1581654D1*
X2422559Y1464340D2*
X2485845D1*
X2496771Y1475265D1*
X2525192D1*
X2534416Y1466041D1*
X2587916D1*
X2619016Y1497141D1*
X2422559Y1444655D2*
X2503656D1*
X2509419Y1450418D1*
X2422559Y1424970D2*
X2590595D1*
X2609641Y1444016D1*
X2619016D1*
X2422559Y1405285D2*
X2605285D1*
X2612765Y1412765D1*
X2422559Y1385600D2*
Y1384641D1*
Y1385600D2*
X2377382D1*
X2359435Y1403547D1*
X745290Y2003485D2*
Y1925368D1*
X748415Y1922243D1*
X1406622Y2144189D2*
Y2085436D1*
X1404953Y2083767D1*
X1750124Y1544158D2*
Y1534784D1*
X1681381Y1466041D1*
X1895000Y1326545D2*
X1836500D1*
X1815742Y1347303D1*
Y1369176D1*
X1800118Y1384799D1*
X1718877D1*
X1681381Y1422296D1*
Y1466041D1*
X1497932Y1541940D2*
Y1523506D1*
X1555397Y1466041D1*
X1895000Y1287175D2*
X1852478D1*
X1821991Y1256688D1*
X1665757D1*
X1634511Y1287935D1*
X1556394Y1466041D2*
X1555397D1*
X2412554Y1027276D2*
Y984841D1*
X2468798Y928597D1*
X865841Y2340949D2*
Y2322201D1*
X859592Y2315952D1*
Y2294656D1*
X860256Y2293992D1*
X962706Y2003485D2*
Y1925368D1*
X965831Y1922243D1*
X1971772Y1639537D2*
Y1685011D1*
X1962767Y1694016D1*
X1823927D1*
X1781670Y1736273D1*
X820886Y2293992D2*
X822096Y2292782D1*
Y2331575D1*
X790849Y2362822D1*
X793974Y2365946D1*
X1781670Y1736273D2*
D3*
X2422559Y1326545D2*
Y1325431D1*
X2371933D1*
X2944016Y1387765D2*
X2940890D1*
X2897141Y1344016D1*
X2664922D1*
X2663004Y1345933D1*
Y1337929D2*
Y1345933D1*
X2422559Y1346230D2*
X2473051D1*
X2481516Y1337765D1*
X2662528Y1344179D2*
Y1345457D1*
X2537541Y2522180D2*
D3*
X2207992Y1639537D2*
Y1705040D1*
X2197141Y1715891D1*
X2768523Y2709649D2*
Y2686233D1*
X2605377Y2523087D1*
X1029635Y2003485D2*
Y2170906D1*
X1006452Y2194089D1*
X937519D1*
X938996Y2195567D1*
X1783327Y2194016D2*
D16*
Y2142038D1*
X1787427Y2137939D1*
X2422559Y1306860D2*
D15*
X2497485D1*
X2506516Y1315891D1*
X2659465Y1212943D2*
X2657822D1*
Y1212765D1*
X1012520Y994016D2*
Y1087775D1*
X2607820Y2147139D2*
X2662764D1*
X2325142Y1712642D2*
X2306418Y1693918D1*
Y1639537D1*
X2278490Y1953391D2*
X2344016D1*
X2403391Y1894016D1*
X1918856Y2719034D2*
Y2821012D1*
X1918654Y2821214D1*
X2662764Y2147139D2*
X2803390Y2287765D1*
X2844016D1*
X2345788Y1111978D2*
Y1026610D1*
X2362559Y1009839D1*
Y959844D1*
X640891Y524675D2*
X688357D1*
X703391Y509641D1*
X1871382Y1022849D2*
Y926076D1*
X1871986Y925473D1*
X1241210Y594016D2*
Y556761D1*
X1247051D1*
X1002629Y532920D2*
Y532919D1*
X2206326Y2402441D2*
Y2462811D1*
Y2515931D1*
Y2462811D2*
X2050092D1*
X1875110Y2637793D1*
Y2820978D1*
X1875347Y2821214D1*
X1969181Y2192366D2*
X1970831Y2194016D1*
X1850267D2*
X1850256D1*
X1912859D2*
Y2192296D1*
X1912757Y2192194D1*
X2125347Y2711777D2*
X2171954D1*
X1587755Y2194016D2*
D16*
Y2143840D1*
X1593656Y2137939D1*
X2326103Y1111978D2*
D15*
X2328188Y1114063D1*
Y1009839D1*
X2334437Y1003589D1*
Y984841D1*
X640891Y550265D2*
X712765D1*
X750265Y512765D1*
X1815742Y1022849D2*
X1815126D1*
X1211683Y564488D2*
X1165810D1*
X1057747Y572684D2*
Y572683D1*
X2050512Y1639537D2*
Y1594572D1*
X2003222Y1547282D1*
X1465778Y737992D2*
Y739322D1*
X1465089Y740011D1*
X2089882Y1639537D2*
Y1571449D1*
X2065715Y1547282D1*
Y1528534D1*
X2062591Y1525410D1*
X1803243Y741117D2*
Y740629D1*
X2129252Y1639537D2*
Y1549364D1*
X2134458Y1544158D1*
Y1537908D1*
X2143832Y719244D2*
Y719415D1*
X2141988Y721259D1*
X2168622Y1639537D2*
Y1584986D1*
X2175079Y1578529D1*
X2340687Y1172322D2*
X2346936D1*
X2378183Y1141075D1*
X2475267Y725516D2*
X2475485Y725298D1*
X1465089Y562781D2*
X1533855Y494016D1*
X1550265D1*
X1465089Y673082D2*
X1542024Y750016D1*
X1550265D1*
X1465089Y562781D2*
Y673082D1*
X1885683Y750016D2*
X1879559D1*
X1802625Y673082D1*
Y562781D1*
X1871390Y494016D1*
X1885683D1*
X2221099Y750016D2*
Y733440D1*
X2141988Y654330D1*
X2140160Y652502D1*
Y562781D1*
X2221099Y494016D2*
X2152334Y562781D1*
X2140160D1*
X2475485Y658369D2*
Y569032D1*
X2550500Y494016D1*
X2556516D1*
X2475485Y658369D2*
X2556516Y739401D1*
Y750016D1*
X1895000Y1484025D2*
Y1484641D1*
X551561Y1834752D2*
X562748D1*
Y1727765D1*
X569016D1*
X1895000Y1484025D2*
X1897747D1*
X1895000D2*
X1986835D1*
X1987599Y1484789D1*
X1895000Y1543080D2*
X1908705D1*
X866622Y1834752D2*
X869016D1*
Y1737765D1*
X1895000Y1543080D2*
X1936830D1*
X1947141Y1553391D1*
Y1587767D1*
X1895000Y1562765D2*
X1881516D1*
X1931516Y1612765D1*
X993953Y1834752D2*
X987704D1*
Y1727765D1*
X969016D1*
X806222Y1834752D2*
Y1765759D1*
X768229Y1727765D1*
X769016D1*
X1895000Y1523395D2*
Y1522141D1*
X1944015D1*
X1972141Y1550267D1*
Y1569016D1*
X678891Y1834752D2*
X672112D1*
Y1737765D1*
X669016D1*
X1969016Y1512765D2*
X1959642Y1503391D1*
X1895319D1*
X1895000Y1503710D1*
X1991457Y1639537D2*
Y1696576D1*
X1975267Y1712767D1*
X1881799D1*
X1856670Y1737897D1*
X840571Y2293992D2*
Y2338097D1*
X834595Y2344074D1*
Y2362822D1*
X1856372Y1737897D2*
X1856670D1*
X2422559Y1365915D2*
X2356446D1*
X2337562Y1384799D1*
X2334437D1*
X2331313Y1387924D1*
X2390891Y2522141D2*
X2392453Y2523704D1*
X2394016Y2522141D1*
X2306717Y1787966D2*
X2290891Y1772141D1*
Y1740891D1*
X2284641Y1734641D1*
X2278391D1*
X2265694Y1721944D1*
Y1640890D1*
X2267047Y1639537D1*
X2768523Y2784649D2*
X2765638D1*
X2709398Y2728408D1*
Y2681538D1*
X2609408Y2581549D1*
X2520353D1*
X2460945Y2522141D1*
X938996Y2215252D2*
X939706Y2215962D1*
X1012701D1*
X1100192Y2128471D1*
Y2081601D1*
X1115815Y2065978D1*
X1147062D1*
X1165810Y2047230D1*
Y2003485D1*
X1167121D1*
X1100192D2*
Y1928492D1*
X1106441Y1922243D1*
X814096Y2709639D2*
D16*
X825200D1*
X940834Y2825273D1*
X1328383D1*
X1444017Y2709639D1*
X1867164Y1267490D2*
D15*
X1895000D1*
X1860915D1*
X1837614Y1244189D1*
Y1222317D1*
X1453391Y2544016D2*
Y2700265D1*
X1444017Y2709639D1*
X2590893Y1212765D2*
D16*
X2590894Y1119019D1*
Y1119016D1*
X2584643D1*
Y1025273D1*
X2065891Y1903391D2*
X2200265D1*
X2201973D1*
X2278490D1*
Y1853391D1*
X2030827Y1639537D2*
D15*
Y1749534D1*
X2050440Y1769147D1*
X2227677Y1639537D2*
Y1719729D1*
X2181398Y1766008D1*
X2187578D1*
X2422559Y1484025D2*
X2480533D1*
X2515524Y1519016D1*
X2559641D1*
X2227677Y1025985D2*
X2228198Y1025464D1*
X1971772Y1111978D2*
D19*
Y1046664D1*
X1956680Y1031572D1*
X2290891Y2822137D2*
D16*
X2334625Y2778403D1*
X2490891D1*
Y2822137D1*
X1912757Y2125265D2*
Y2041131D1*
X1886607Y2014981D1*
X1877481D1*
X1719007Y2125265D2*
X1825164Y2019108D1*
X1873353D1*
X1877481Y2014981D1*
X1728265Y750016D2*
Y494016D1*
X2734516Y750016D2*
Y494016D1*
X2399099Y750016D2*
Y494016D1*
X2063683Y750016D2*
Y494016D1*
Y750016D2*
X2065715Y752049D1*
Y819016D1*
Y916099D1*
X2028184D1*
X1956352Y987931D1*
Y1031244D1*
X1956680Y1031572D1*
X2065715Y916099D2*
X2203201D1*
X2228198Y941096D1*
Y1025464D1*
X2559641Y1519016D2*
X2578390Y1537765D1*
X2663004D1*
Y1412862D1*
X1631516Y1845838D2*
X1638428D1*
X1677635Y1806630D1*
X1778242D1*
X1781670Y1803202D1*
X1855046D1*
X1856670Y1804826D1*
X2033149D1*
X2050440Y1787534D1*
Y1769147D1*
X2187578Y1766008D2*
X2181327D1*
X2178188Y1769147D1*
X2050440D1*
X2187578Y1766008D2*
Y1822254D1*
X2200265D1*
Y1903391D1*
X2663004Y1537765D2*
Y1674918D1*
X2596910Y1741012D1*
X2437551D1*
X2356310Y1822254D1*
X2200265D1*
X2540891Y2147139D2*
Y2075267D1*
X2540893D1*
Y1997538D1*
X2541129Y1997302D1*
X2540891Y2147139D2*
Y2181817D1*
X2793764Y2434689D1*
X2890940D1*
X2944016Y2487765D1*
X1728265Y628633D2*
Y750016D1*
X1956680Y1031572D2*
X1962461D1*
Y1025322D1*
X2206326Y2331575D2*
X2215700D1*
X2250071Y2365946D1*
Y2659666D1*
X2237572Y2672164D1*
Y2768818D1*
X2290891Y2822137D1*
X2663004Y1412862D2*
X2621907Y1371765D1*
Y1325499D1*
X2647141Y1300265D1*
Y1278390D1*
X2590893Y1222142D1*
Y1212765D1*
X2531515Y1144013D2*
X2584643D1*
Y1119016D1*
X2422559Y1208435D2*
D15*
X2460847D1*
X2475265Y1194016D1*
Y1165891D1*
X2497143Y1144013D1*
X2531515D1*
X1337166Y2146717D2*
D16*
X1339693Y2144189D1*
X2228198Y1025464D2*
D15*
Y1072087D1*
X2227677Y1072608D1*
Y1111978D1*
X681811Y994016D2*
D20*
Y1072141D1*
X723983D1*
X764488D1*
Y994016D1*
Y922348D1*
X902284D1*
Y994016D1*
X1136007Y681516D2*
D16*
Y638554D1*
X1288885D1*
X1300265Y649935D1*
X1331614Y681284D1*
X1310108Y525118D2*
D15*
X1331021D1*
X1340792Y534889D1*
Y578634D1*
X1325410Y594016D1*
X1300265D1*
D21*
Y611733D1*
D16*
Y649935D1*
X1728265Y494016D2*
Y434899D1*
X2063683D1*
X2399099D1*
X2734516D1*
Y494016D1*
X2399099D2*
Y434899D1*
X2063683Y494016D2*
Y434899D1*
X1815126Y1089778D2*
X1871382D1*
D19*
X1892557D1*
X1921981Y1119202D1*
X1950768D1*
X1957992Y1111978D1*
X1971772D1*
X2012537Y819016D2*
D16*
X2065715D1*
X1679204D2*
Y799078D1*
X1728265Y750016D1*
X2345869Y819016D2*
Y803246D1*
X2399099Y750016D1*
X2672953Y831516D2*
Y811579D1*
X2734516Y750016D1*
X2107511Y2128562D2*
X2166080D1*
X2172331Y2122311D1*
X1854356Y2137939D2*
X1900084D1*
X1912757Y2125265D1*
X1660586Y2137939D2*
X1706334D1*
X1719007Y2125265D1*
X1328293Y2315763D2*
X1240802D1*
X1153311D1*
X1059571D1*
X825267Y2422894D2*
Y2422191D1*
X904244D1*
Y2376227D1*
X1059571Y2315763D2*
Y2375320D1*
X1012701Y2422191D1*
X904244D1*
X1339693Y2144189D2*
Y2155495D1*
X1384537Y2200339D1*
Y2303453D1*
X1372038Y2315952D1*
X1328482D1*
X1328293Y2315763D1*
X1384537Y2200339D2*
X1387423Y2203225D1*
X1428521D1*
X1537646Y2094100D1*
X1612638D1*
X1662633Y2144095D1*
Y2135891D1*
X1660586Y2137939D1*
X742146Y2156197D2*
D21*
X744016D1*
Y2136512D1*
X742146D1*
X1173370Y1922243D2*
D16*
Y1878498D1*
X1060882D1*
X1032760D1*
X933551D1*
X739293D1*
X611962D1*
Y1834752D1*
X1032760Y1922243D2*
Y1878498D1*
X1060882Y1834752D2*
Y1878498D1*
X933551Y1834752D2*
Y1878498D1*
X739293Y1834752D2*
Y1878498D1*
X611962D2*
D20*
Y2037575D1*
X693403Y2119016D1*
X744016D1*
Y2134642D1*
X742146Y2136512D1*
X469016Y1737765D2*
D16*
Y1741004D1*
X440886Y1769134D1*
Y1856625D1*
X462759Y1878498D1*
X611962D1*
X2835452Y2784649D2*
Y2709649D1*
X2490891Y2778403D2*
X2675026D1*
X2734395Y2837772D1*
X2782328D1*
X2835452Y2784649D1*
Y2709649D2*
Y2686721D1*
X2893754Y2628419D1*
Y2538028D1*
X2944016Y2487765D1*
X816940Y680841D2*
D22*
Y612765D1*
Y480466D1*
X825265Y472141D1*
X867885D1*
X869238Y473494D1*
X878845Y681516D2*
D16*
X817614D1*
X816940Y680841D1*
X1002629Y453393D2*
X959641D1*
Y550267D1*
X878391Y631516D1*
Y681062D1*
X878845Y681516D1*
X1002629Y453393D2*
Y451028D1*
X1028391Y425265D1*
X1094016D1*
Y596563D1*
X1136007Y638554D1*
X2201973Y1903391D2*
Y1988229D1*
X2172331Y2017870D1*
Y2122311D1*
X1339693Y2144189D2*
X1300265D1*
X1275173Y2119097D1*
Y2087851D1*
X1225179Y2037856D1*
Y1937866D1*
X1209555Y1922243D1*
X1173370D1*
X469016Y1737765D2*
Y1350357D1*
Y809641D1*
X665891Y612765D1*
X816940D1*
X1384537Y2303453D2*
X1525147Y2444063D1*
X2009471D1*
X2025095Y2428440D1*
X2131334D1*
X2165705Y2394068D1*
Y2372196D1*
X2206326Y2331575D1*
X1781670Y1803202D2*
Y1850076D1*
X1537646Y2094100D1*
X1772289Y1350357D2*
X723983D1*
X469016D1*
X2468798Y1027462D2*
X2582454D1*
X2584643Y1025273D1*
X2734516Y750016D2*
Y919141D1*
X2694016Y959641D1*
X2606516D1*
X2584641Y981516D1*
Y1025271D1*
X2584643Y1025273D1*
X723983Y1072141D2*
Y1350357D1*
X744016Y2119016D2*
D20*
Y2103391D1*
X750265Y2097142D1*
X781516D1*
X1815742Y1544158D2*
D19*
X1818866D1*
Y1425420D1*
X1772289D1*
Y1421223D1*
X1895000Y1385600D2*
D18*
X1947778D1*
X1953227Y1391049D1*
Y1416046D1*
X1943853Y1425420D1*
X1895450D1*
X1895000Y1424970D1*
X1818866Y1425420D2*
D20*
X1895000Y1424970D1*
X676328Y2369071D2*
D16*
Y2469061D1*
Y2472185D1*
X659613D1*
X637740Y2494058D1*
Y2569050D1*
X676328Y2369071D2*
D3*
X822096Y2003485D2*
D3*
X825267Y2525264D2*
Y2569050D1*
X750464D1*
Y2525264D1*
X637740Y2679286D2*
Y2640918D1*
X650239Y2628419D1*
X659613D1*
X718982Y2569050D1*
X750464D1*
X678361Y2003485D2*
D15*
D3*
X718982Y2522180D2*
X747380D1*
X750464Y2525264D1*
X484631Y2472185D2*
D23*
Y2469061D1*
X550250D1*
X589714D1*
X2944016Y2587765D2*
D16*
Y2643775D1*
X2881255Y2706536D1*
Y2834647D1*
X2846883Y2869019D1*
X740855D1*
X550250Y2678414D1*
Y2469061D1*
X554550Y2201448D2*
X628366D1*
D22*
Y2294079D1*
X589714Y2332731D1*
Y2369071D1*
X1584641Y1240269D2*
D15*
Y1244065D1*
X1609513Y1219192D1*
X1728390D1*
Y1222142D1*
X1728425D1*
X1771996Y1178571D1*
X1834490D1*
X1865736Y1209818D1*
X1893617D1*
X1895000Y1208435D1*
X1584641Y1050269D2*
Y1047460D1*
X1674946Y1137765D1*
X1728390D1*
X1844016D1*
X1895000Y1188750D1*
X2107996Y2191068D2*
Y2184715D1*
X2168826D2*
Y2185735D1*
X2172331Y2189240D1*
X2287567Y1640372D2*
X2286733Y1639537D1*
X2065891Y2003391D2*
Y2028113D1*
X2318814Y1744137D2*
X2286733Y1712055D1*
Y1639537D1*
X2059466Y1000465D2*
Y1050460D1*
X2050512Y1059414D1*
Y1111978D1*
X2070197Y1639537D2*
Y1583011D1*
X2034469Y1547282D1*
Y1516036D1*
X2040718Y1509786D1*
Y1487914D1*
X2037593Y1484789D1*
X1681381Y875478D2*
Y875264D1*
X1993848Y875478D2*
X2012765D1*
Y875265D1*
X2109567Y1639537D2*
Y1543943D1*
X2093838Y1528213D1*
X2339803Y875264D2*
X2344016D1*
X2146957Y1466041D2*
Y1472290D1*
X2159456Y1484789D1*
Y1559781D1*
X2148937Y1570299D1*
Y1639537D1*
X2188307D2*
X2185939D1*
X2662767Y887764D2*
X2659643D1*
X2406305Y1147324D2*
X2359435Y1194194D1*
X2200076Y1556656D2*
Y1591028D1*
X2187578Y1603526D1*
Y1638807D1*
X2188307Y1639537D1*
X2468798Y1094391D2*
X2440650D1*
X2412740D1*
X2412554Y1094205D1*
X2440650Y1094391D2*
Y1170659D1*
X2422559Y1188750D1*
X1465765Y2012516D2*
Y2009768D1*
X1562767Y1912767D1*
X1631516D1*
X1465765Y1756516D2*
Y1815765D1*
X1562767Y1912767D1*
X1895000Y1306860D2*
X1816234D1*
X1797139Y1287765D1*
Y1281516D1*
X1895000Y1365915D2*
X1971839D1*
X1337667Y2084726D2*
Y2084124D1*
X1719007Y2192194D2*
D3*
X1656516Y2194016D2*
X1654684D1*
X1788733Y2821214D2*
X1787620Y2820101D1*
Y2722159D1*
X2168622Y1111978D2*
Y1156491D1*
X2253196Y1241065D1*
Y1294184D1*
X2231323Y1316057D1*
Y1347303D1*
X2225074Y1353553D1*
D66*
X1278298Y531764D3*
X1400160Y678624D3*
X971173Y2376227D3*
X972080Y2078477D3*
X713271Y2378983D3*
X675236Y2150267D3*
Y2206588D3*
X740855Y2356572D3*
X1562767Y1847251D3*
X548817Y2276251D3*
X837719Y2194089D3*
X1153311Y2240960D3*
X1240802D3*
X1328293D3*
X787865Y2525264D3*
X681486Y1922243D3*
X481507Y1834752D3*
X825221Y1922243D3*
X681486D3*
X1983511Y1769147D3*
X2253196Y1769134D3*
X1983511Y1769147D3*
X2065891Y1853391D3*
X1877481Y1948051D3*
X2065891Y1853391D3*
X1578496Y2350361D3*
X1747788Y2318865D3*
X1578496Y2350361D3*
X2054087Y2318865D3*
X1747788D3*
X2125347Y2357448D3*
X2054087Y2318865D3*
X2141095Y2796424D3*
X2206326Y2584673D3*
X2125347Y2357448D3*
X1578496Y2794256D3*
X1961961Y2821214D3*
X1578496Y2794256D3*
Y2350361D3*
X1129057Y2709639D3*
X2478172Y500517D3*
X1465089Y494957D3*
X1802625Y495852D3*
X2140160D3*
X515878Y994215D3*
X1257906Y445752D3*
D3*
D3*
X1202936Y681516D3*
X1075194D3*
X819607Y994016D3*
X968756D3*
X1150187D3*
X1328095D3*
X736929D3*
X819607D3*
X736929D3*
X1202936Y681516D3*
X1797139Y1214587D3*
X1728390Y1059973D3*
X1328095Y994016D3*
X1331614Y847159D3*
X1202936Y681516D3*
X2562538Y1681643D3*
X2023609Y1027101D3*
X2529693Y1210943D3*
X869238Y524675D3*
X639767Y473494D3*
X750011Y680841D3*
D3*
X1331614Y847159D3*
X1002629Y493155D3*
X2023609Y1027101D3*
X787998Y2250496D3*
X1059571Y2240960D3*
X887767Y2250265D3*
X1153311Y2240960D3*
X887625Y2144156D3*
X548817Y2276251D3*
X545692Y2020345D3*
X787998Y2144095D3*
X1831365Y1394173D3*
X1728390Y1291198D3*
X1797139Y1214587D3*
X1928391Y1665891D3*
X2656516Y1119019D3*
X2509641Y1284641D3*
X2656516Y1119019D3*
X2356722Y1706391D3*
X2162580Y1953391D3*
X2662765Y2078391D3*
X2003222Y2578424D3*
X2651572Y1028587D3*
X2487546Y1256735D3*
X2651572Y1028587D3*
X1040823Y1059834D3*
X2651572Y1028587D3*
X2368809Y1650397D3*
X2662767Y1997302D3*
D3*
X2275068Y2059729D3*
X1831365Y2722159D3*
X2477897Y1871646D3*
X2503170Y878603D3*
X2543790Y853605D3*
X2325063Y1350631D3*
X2496920Y1675394D3*
X2631281Y1809755D3*
X1984474Y1412922D3*
X2012596Y1384799D3*
X2075089Y1231691D3*
X875215Y1097330D3*
X2053217Y1169197D3*
X931460Y1091080D3*
X2093838Y1022338D3*
X2081338Y1184822D3*
X2109461Y1228566D3*
X2146957Y1197319D3*
X2115710Y994215D3*
X2243822Y1381675D3*
X2121960Y1719139D3*
X1968851Y2125347D3*
X2240697Y1162948D3*
X2265694Y1187945D3*
X2028219Y1256688D3*
X1978225Y1247314D3*
X2503391Y1644016D3*
X2503170Y1612901D3*
X2506294Y1581654D3*
X2619016Y1497141D3*
X2509419Y1450418D3*
X2619016Y1444016D3*
X2612765Y1412765D3*
X2359435Y1403547D3*
X1634511Y1287935D3*
X1556394Y1466041D3*
X2468798Y928597D3*
X1518898Y850481D3*
X865841Y2340949D3*
X793974Y2365946D3*
X1781670Y1736273D3*
X2371933Y1325431D3*
X2481516Y1337765D3*
X2662528Y1344179D3*
X2537541Y2522180D3*
X2197141Y1715891D3*
X2553164Y2384694D3*
X2506516Y1315891D3*
X2659465Y1212943D3*
X1012520Y1087775D3*
X2659465Y1212943D3*
X2662764Y2147139D3*
X2403391Y1894016D3*
X2325142Y1712642D3*
X2403391Y1894016D3*
X1918856Y2719034D3*
X2362559Y959844D3*
X703391Y509641D3*
X1603264Y984841D3*
X1678256Y925473D3*
X2362559Y959844D3*
X1871986Y925473D3*
X1247051Y556761D3*
X1678256Y925473D3*
X1002629Y532919D3*
X1247051Y556761D3*
X1970831Y2194016D3*
X1850267D3*
X1912859D3*
X2171954Y2711777D3*
X1970831Y2194016D3*
X2334437Y984841D3*
X750265Y512765D3*
X1815742Y1022849D3*
X2334437Y984841D3*
X1165810Y564488D3*
X1057747Y572683D3*
X1165810Y564488D3*
X2003222Y1547282D3*
X1465778Y737992D3*
X2062591Y1525410D3*
X1803243Y741117D3*
X2134458Y1537908D3*
X2143832Y719244D3*
X2175079Y1578529D3*
X2340687Y1172322D3*
X2378183Y1141075D3*
X2475267Y725516D3*
X1987599Y1484789D3*
X1947141Y1587767D3*
X1931516Y1612765D3*
X1972141Y1569016D3*
X1969016Y1512765D3*
X834595Y2362822D3*
X1856372Y1737897D3*
X2331313Y1387924D3*
X2390891Y2522141D3*
X2553164Y2347198D3*
X2306717Y1787966D3*
X1837614Y1222317D3*
X1453391Y2544016D3*
X676328Y2369071D3*
X822096Y2003485D3*
X678361D3*
X718982Y2522180D3*
X2107996Y2184715D3*
X2168826D3*
X2065891Y2028113D3*
X2318814Y1744137D3*
X2065891Y2028113D3*
X2107996Y2184715D3*
X2059466Y1000465D3*
X2037593Y1484789D3*
X1681381Y875478D3*
X2093838Y1528213D3*
X2012767Y875267D3*
X2344016Y875264D3*
X1931355Y1075104D3*
X2146957Y1466041D3*
X2659643Y887764D3*
X2406305Y1147324D3*
X2359435Y1194194D3*
X2200076Y1556656D3*
X1797139Y1281516D3*
X1971839Y1365915D3*
X1337667Y2084726D3*
X1719007Y2192194D3*
X1656516Y2194016D3*
X1787620Y2722159D3*
X1719007Y2192194D3*
X2225074Y1353553D3*
X2078265Y1694142D3*
X1719007Y2192194D3*
X1627525Y2835425D2*
D145*
X1703280D1*
X2190124D2*
X2336424D1*
X2645357D2*
X2832420D1*
X1627525Y2825557D2*
X1703280D1*
X2190124D2*
X2334920D1*
X2646861D2*
X2720467D1*
X2816568D2*
X2842284D1*
X1627525Y2815688D2*
X1703280D1*
X2190124D2*
X2335193D1*
X2646588D2*
X2720467D1*
X2816568D2*
X2846971D1*
X1627525Y2805819D2*
X1694217D1*
X2190124D2*
X2337284D1*
X2644499D2*
X2720467D1*
X2816568D2*
X2846971D1*
X1627525Y2795950D2*
X1687284D1*
X2190124D2*
X2341424D1*
X2640357D2*
X2720467D1*
X2816568D2*
X2846971D1*
X949693Y2786082D2*
X1023924D1*
X1234205D2*
X1319511D1*
X1627525D2*
X1684881D1*
X2190124D2*
X2348240D1*
X2633541D2*
X2720467D1*
X2816568D2*
X2846971D1*
X939831Y2776213D2*
X1023924D1*
X1234205D2*
X1329393D1*
X1627525D2*
X1684803D1*
X2190124D2*
X2234803D1*
X2346979D2*
X2359471D1*
X2646979D2*
X2716033D1*
X2816568D2*
X2846971D1*
X929967Y2766344D2*
X1023924D1*
X1234205D2*
X1338885D1*
X1627525D2*
X1684803D1*
X2190124D2*
X2234803D1*
X2346979D2*
X2357029D1*
X2646979D2*
X2706171D1*
X2816568D2*
X2846971D1*
X920084Y2756475D2*
X1023924D1*
X1234205D2*
X1338885D1*
X1627525D2*
X1684803D1*
X2190124D2*
X2234803D1*
X2646979D2*
X2696307D1*
X2816568D2*
X2846971D1*
X919244Y2746607D2*
X1023924D1*
X1234205D2*
X1338885D1*
X1627525D2*
X1684803D1*
X2190124D2*
X2234803D1*
X2646979D2*
X2686600D1*
X2816568D2*
X2846971D1*
X919244Y2736738D2*
X1023924D1*
X1234205D2*
X1338885D1*
X1627525D2*
X1684803D1*
X2199205D2*
X2234803D1*
X2646979D2*
X2681248D1*
X2816568D2*
X2846971D1*
X919244Y2726869D2*
X1023924D1*
X1234205D2*
X1338885D1*
X1627525D2*
X1684803D1*
X2205885D2*
X2234803D1*
X2646979D2*
X2679999D1*
X2816568D2*
X2846971D1*
X919244Y2717000D2*
X1023924D1*
X1234205D2*
X1338885D1*
X1549167D2*
X1684803D1*
X2208796D2*
X2234803D1*
X2646979D2*
X2679999D1*
X2816568D2*
X2846971D1*
X919244Y2707131D2*
X1023924D1*
X1234205D2*
X1338885D1*
X1549167D2*
X1684803D1*
X2208873D2*
X2234803D1*
X2646979D2*
X2679999D1*
X2816568D2*
X2846971D1*
X2928717D2*
X2936679D1*
X3051353D2*
X3063007D1*
X919244Y2697263D2*
X1023924D1*
X1234205D2*
X1338885D1*
X1549167D2*
X1684803D1*
X2206139D2*
X2234803D1*
X2646979D2*
X2679999D1*
X2816568D2*
X2848299D1*
X2938580D2*
X2956092D1*
X3031940D2*
X3063007D1*
X919244Y2687394D2*
X1023924D1*
X1234205D2*
X1338885D1*
X1549167D2*
X1684803D1*
X2199752D2*
X2234803D1*
X2434635D2*
X2447147D1*
X2646979D2*
X2674080D1*
X2816568D2*
X2853045D1*
X2948444D2*
X3063007D1*
X919244Y2677525D2*
X1023924D1*
X1234205D2*
X1338885D1*
X1549167D2*
X1684803D1*
X2184752D2*
X2234803D1*
X2346979D2*
X2357576D1*
X2424205D2*
X2457576D1*
X2524205D2*
X2534803D1*
X2646979D2*
X2664217D1*
X2816568D2*
X2862205D1*
X2958327D2*
X3063007D1*
X919244Y2667656D2*
X1023924D1*
X1234205D2*
X1338885D1*
X1549167D2*
X1684803D1*
X2174576D2*
X2234803D1*
X2346979D2*
X2381756D1*
X2400025D2*
X2481756D1*
X2500025D2*
X2534803D1*
X2646979D2*
X2654353D1*
X2816568D2*
X2872068D1*
X2968189D2*
X3063007D1*
X919244Y2657788D2*
X1023924D1*
X1234205D2*
X1338885D1*
X1549167D2*
X1684803D1*
X2108952D2*
X2644491D1*
X2781236D2*
X2881952D1*
X2975201D2*
X3063007D1*
X919244Y2647919D2*
X1023924D1*
X1234205D2*
X1338885D1*
X1549167D2*
X1684803D1*
X2108952D2*
X2634608D1*
X2771373D2*
X2891815D1*
X2978033D2*
X3063007D1*
X919244Y2638050D2*
X1023924D1*
X1234205D2*
X1338885D1*
X1549167D2*
X1684803D1*
X2108952D2*
X2624744D1*
X2761511D2*
X2820916D1*
X2867116D2*
X2901679D1*
X2978288D2*
X3063007D1*
X919244Y2628181D2*
X1023924D1*
X1234205D2*
X1338885D1*
X1549167D2*
X1684803D1*
X2108952D2*
X2160233D1*
X2252408D2*
X2614881D1*
X2751628D2*
X2805819D1*
X2882213D2*
X2905819D1*
X2982213D2*
X3063007D1*
X919244Y2618313D2*
X1023924D1*
X1234205D2*
X1338885D1*
X1549167D2*
X1684803D1*
X2108952D2*
X2160233D1*
X2252408D2*
X2605017D1*
X2741764D2*
X2797361D1*
X2890671D2*
X2897377D1*
X2990671D2*
X3063007D1*
X727643Y2608444D2*
X1423983D1*
X1482799D2*
X1684803D1*
X2108952D2*
X2160233D1*
X2252408D2*
X2510233D1*
X2731901D2*
X2792128D1*
X2995904D2*
X3063007D1*
X841608Y2598575D2*
X1423983D1*
X1482799D2*
X1684803D1*
X2108952D2*
X2160233D1*
X2252408D2*
X2496209D1*
X2722037D2*
X2789159D1*
X2998873D2*
X3063007D1*
X853112Y2588706D2*
X1423983D1*
X1482799D2*
X1684803D1*
X2108952D2*
X2160233D1*
X2252408D2*
X2486347D1*
X2712155D2*
X2788104D1*
X2999928D2*
X3063007D1*
X858072Y2578838D2*
X1423983D1*
X1482799D2*
X1684803D1*
X2108952D2*
X2160233D1*
X2252408D2*
X2476483D1*
X2702292D2*
X2788827D1*
X2999205D2*
X3063007D1*
X859537Y2568969D2*
X1423983D1*
X1482799D2*
X1684803D1*
X2108952D2*
X2160233D1*
X2252408D2*
X2466600D1*
X2692428D2*
X2791404D1*
X2996628D2*
X3063007D1*
X860357Y2559100D2*
X1419452D1*
X1487331D2*
X1684803D1*
X2108952D2*
X2160233D1*
X2252408D2*
X2345956D1*
X2682545D2*
X2796171D1*
X2991861D2*
X3063007D1*
X862487Y2549231D2*
X1416541D1*
X1490240D2*
X1684803D1*
X2108952D2*
X2160233D1*
X2252408D2*
X2345956D1*
X2672683D2*
X2803865D1*
X2884167D2*
X2903865D1*
X2984167D2*
X3063007D1*
X862487Y2539362D2*
X1416464D1*
X1490319D2*
X1684803D1*
X2108952D2*
X2160233D1*
X2252408D2*
X2345956D1*
X2662819D2*
X2817049D1*
X2870983D2*
X2917049D1*
X2970983D2*
X3063007D1*
X862487Y2529494D2*
X1419197D1*
X1487584D2*
X1684803D1*
X2108952D2*
X2160233D1*
X2252408D2*
X2345956D1*
X2653424D2*
X2807303D1*
X2880729D2*
X3063007D1*
X862487Y2519625D2*
X1425604D1*
X1481179D2*
X1684803D1*
X2108952D2*
X2160233D1*
X2252408D2*
X2345956D1*
X2653424D2*
X2798280D1*
X2889752D2*
X3063007D1*
X862487Y2509756D2*
X1440624D1*
X1466159D2*
X1684803D1*
X2108952D2*
X2117185D1*
X2252408D2*
X2345956D1*
X2653424D2*
X2792675D1*
X2895357D2*
X3063007D1*
X862428Y2499887D2*
X1684803D1*
X2252408D2*
X2345956D1*
X2653424D2*
X2789452D1*
X2898580D2*
X3063007D1*
X859675Y2490019D2*
X1684803D1*
X2252408D2*
X2345956D1*
X2653424D2*
X2788143D1*
X2899889D2*
X3063007D1*
X714537Y2480150D2*
X725096D1*
X850631D2*
X1684803D1*
X2252408D2*
X2345956D1*
X2653424D2*
X2788612D1*
X2899420D2*
X3063007D1*
X714537Y2470281D2*
X729667D1*
X771256D2*
X1684803D1*
X2252408D2*
X2790936D1*
X2897096D2*
X3063007D1*
X783561Y2460412D2*
X1685233D1*
X2235729D2*
X2795389D1*
X2892643D2*
X3063007D1*
X787369Y2450544D2*
X1688768D1*
X2235729D2*
X2802616D1*
X2885416D2*
X3063007D1*
X787683Y2440675D2*
X1697889D1*
X2242760D2*
X2814744D1*
X2873288D2*
X2928260D1*
X2959772D2*
X3063007D1*
X787683Y2430806D2*
X2107284D1*
X2252995D2*
X2808885D1*
X2879147D2*
X2908885D1*
X2979147D2*
X3063007D1*
X787683Y2420937D2*
X923124D1*
X1019225D2*
X2107284D1*
X2256197D2*
X2799236D1*
X2888796D2*
X2899236D1*
X2988796D2*
X3063007D1*
X787683Y2411068D2*
X923124D1*
X1019225D2*
X1529452D1*
X1627525D2*
X2107284D1*
X2256353D2*
X2527323D1*
X2578991D2*
X2793280D1*
X2994752D2*
X3063007D1*
X803307Y2401200D2*
X923124D1*
X1019225D2*
X1529452D1*
X1627525D2*
X2076112D1*
X2256353D2*
X2519920D1*
X2586412D2*
X2789764D1*
X2998268D2*
X3063007D1*
X857956Y2391331D2*
X923124D1*
X1019225D2*
X1529452D1*
X1627525D2*
X2076112D1*
X2256353D2*
X2516541D1*
X2589772D2*
X2788201D1*
X2999831D2*
X3063007D1*
X866667Y2381462D2*
X923124D1*
X1019225D2*
X1529452D1*
X1627525D2*
X2076112D1*
X2255807D2*
X2516072D1*
X2590240D2*
X2788456D1*
X2999576D2*
X3063007D1*
X886159Y2371593D2*
X923124D1*
X1019225D2*
X1529452D1*
X1627525D2*
X2076112D1*
X2251373D2*
X2518397D1*
X2587936D2*
X2790525D1*
X2997507D2*
X3063007D1*
X896511Y2361725D2*
X914197D1*
X1019225D2*
X1529452D1*
X1627525D2*
X1691853D1*
X1803717D2*
X1998163D1*
X2235612D2*
X2518983D1*
X2587349D2*
X2794647D1*
X2993385D2*
X3063007D1*
X1019225Y2351856D2*
X1529452D1*
X1627525D2*
X1691853D1*
X1803717D2*
X1998163D1*
X2174576D2*
X2516229D1*
X2590084D2*
X2801444D1*
X2986588D2*
X3063007D1*
X1019225Y2341987D2*
X1529452D1*
X1627525D2*
X1691853D1*
X1803717D2*
X1998163D1*
X2174576D2*
X2516307D1*
X2590007D2*
X2812655D1*
X2975377D2*
X3063007D1*
X1019225Y2332118D2*
X1529452D1*
X1627525D2*
X1691853D1*
X1803717D2*
X1998163D1*
X2174576D2*
X2519217D1*
X2587096D2*
X2810624D1*
X2977408D2*
X3063007D1*
X957057Y2322250D2*
X1529452D1*
X1627525D2*
X1691853D1*
X1803717D2*
X1998163D1*
X2174576D2*
X2525897D1*
X2580436D2*
X2800272D1*
X2987760D2*
X3063007D1*
X947175Y2312381D2*
X1529452D1*
X1627525D2*
X1691853D1*
X1803717D2*
X1998163D1*
X2174576D2*
X2542167D1*
X2564167D2*
X2788221D1*
X2994128D2*
X3063007D1*
X934655Y2302512D2*
X1529452D1*
X1627525D2*
X1691853D1*
X1803717D2*
X1998163D1*
X2110007D2*
X2776971D1*
X2997936D2*
X3063007D1*
X931940Y2292643D2*
X1529452D1*
X1627525D2*
X1691853D1*
X1803717D2*
X1998163D1*
X2110007D2*
X2767108D1*
X2999733D2*
X3063007D1*
X964517Y2282775D2*
X1003651D1*
X1384225D2*
X1529452D1*
X1627525D2*
X1691853D1*
X1803717D2*
X1998163D1*
X2110007D2*
X2757244D1*
X2999713D2*
X3063007D1*
X976236Y2272906D2*
X1003651D1*
X1384225D2*
X1691853D1*
X1803717D2*
X1998163D1*
X2110007D2*
X2747361D1*
X2997897D2*
X3063007D1*
X980983Y2263037D2*
X1003651D1*
X1384225D2*
X2737499D1*
X2994068D2*
X3063007D1*
X982096Y2253168D2*
X1003651D1*
X1384225D2*
X2727635D1*
X2987683D2*
X3063007D1*
X1384225Y2243299D2*
X2717752D1*
X2977272D2*
X3063007D1*
X1384225Y2233431D2*
X1539705D1*
X2218424D2*
X2707889D1*
X2975533D2*
X3063007D1*
X1384225Y2223562D2*
X1539705D1*
X2218424D2*
X2698025D1*
X2986685D2*
X3063007D1*
X1384225Y2213693D2*
X1539705D1*
X2218424D2*
X2688163D1*
X2993444D2*
X3063007D1*
X1384225Y2203824D2*
X1539705D1*
X2218424D2*
X2678280D1*
X2997545D2*
X3063007D1*
X1384225Y2193956D2*
X1539705D1*
X2218424D2*
X2668416D1*
X2999596D2*
X3063007D1*
X1085748Y2184087D2*
X1358572D1*
X1454675D2*
X1539705D1*
X2218424D2*
X2559764D1*
X2999811D2*
X3063007D1*
X1095612Y2174218D2*
X1358572D1*
X1454675D2*
X1539705D1*
X2218424D2*
X2559764D1*
X2998248D2*
X3063007D1*
X1105475Y2164349D2*
X1358572D1*
X1454675D2*
X1539705D1*
X2218424D2*
X2559764D1*
X2994693D2*
X3063007D1*
X1115339Y2154481D2*
X1358572D1*
X1454675D2*
X1539705D1*
X2218424D2*
X2559764D1*
X2988717D2*
X3063007D1*
X712017Y2144612D2*
X728827D1*
X1124557D2*
X1358572D1*
X1454675D2*
X1545604D1*
X1641705D2*
X1739373D1*
X1835475D2*
X1923104D1*
X2088639D2*
X2126248D1*
X2218424D2*
X2559764D1*
X2978991D2*
X3063007D1*
X708971Y2134743D2*
X745272D1*
X1128893D2*
X1358572D1*
X1454675D2*
X1545604D1*
X1641705D2*
X1739373D1*
X1835475D2*
X1923104D1*
X2088639D2*
X2559764D1*
X2973483D2*
X3063007D1*
X702076Y2124874D2*
X745272D1*
X1129596D2*
X1289979D1*
X1454675D2*
X1545604D1*
X1641705D2*
X1739373D1*
X1835475D2*
X1923104D1*
X2088639D2*
X2559764D1*
X2985515D2*
X3063007D1*
X607525Y2115006D2*
X665936D1*
X684537D2*
X745272D1*
X1129596D2*
X1289979D1*
X1454675D2*
X1545604D1*
X1641705D2*
X1739373D1*
X1835475D2*
X1923104D1*
X2088639D2*
X2559764D1*
X2992721D2*
X3063007D1*
X607525Y2105137D2*
X745272D1*
X1129596D2*
X1289979D1*
X1454675D2*
X1545604D1*
X1641705D2*
X1739373D1*
X1835475D2*
X1923104D1*
X2088639D2*
X2559764D1*
X2997116D2*
X3063007D1*
X607525Y2095268D2*
X768904D1*
X1129596D2*
X1289979D1*
X1453015D2*
X1545604D1*
X1641705D2*
X1739373D1*
X1835475D2*
X1923104D1*
X2088639D2*
X2267049D1*
X2283092D2*
X2559764D1*
X2999420D2*
X3063007D1*
X607525Y2085399D2*
X768904D1*
X1168796D2*
X1289979D1*
X1453015D2*
X1923104D1*
X2088639D2*
X2248515D1*
X2301628D2*
X2559764D1*
X2999889D2*
X3063007D1*
X607525Y2075530D2*
X770819D1*
X1178679D2*
X1289979D1*
X1453015D2*
X2241464D1*
X2308659D2*
X2559764D1*
X2998561D2*
X3063007D1*
X599655Y2065662D2*
X770819D1*
X1188424D2*
X1254061D1*
X1499460D2*
X2238339D1*
X2311803D2*
X2559764D1*
X2995299D2*
X3063007D1*
X599655Y2055793D2*
X772713D1*
X1193893D2*
X1241815D1*
X1511725D2*
X2041521D1*
X2090260D2*
X2238065D1*
X2312076D2*
X2559764D1*
X2762428D2*
X2798357D1*
X2989675D2*
X3063007D1*
X599655Y2045924D2*
X630311D1*
X1215183D2*
X1234061D1*
X1519460D2*
X2033339D1*
X2098444D2*
X2240584D1*
X2309557D2*
X2559764D1*
X2752545D2*
X2807440D1*
X2980592D2*
X3063007D1*
X599655Y2036055D2*
X630311D1*
X1215183D2*
X1228983D1*
X1346549D2*
X1406971D1*
X1524557D2*
X2000116D1*
X2131667D2*
X2212713D1*
X2344264D2*
X2559764D1*
X2742683D2*
X2816835D1*
X2971197D2*
X3063007D1*
X599655Y2026187D2*
X630311D1*
X1215183D2*
X1225877D1*
X1349655D2*
X1403885D1*
X1527643D2*
X2000116D1*
X2131667D2*
X2212713D1*
X2405709D2*
X2559999D1*
X2732819D2*
X2803768D1*
X2984264D2*
X3063007D1*
X599655Y2016318D2*
X630311D1*
X1215183D2*
X1224491D1*
X1351041D2*
X1402479D1*
X1529049D2*
X2000116D1*
X2131667D2*
X2212713D1*
X2416003D2*
X2559999D1*
X2722936D2*
X2796092D1*
X2991940D2*
X3063007D1*
X599655Y2006449D2*
X630311D1*
X1215183D2*
X1224667D1*
X1350865D2*
X1402655D1*
X1528873D2*
X2000116D1*
X2131667D2*
X2212713D1*
X2425865D2*
X2559999D1*
X2713072D2*
X2791365D1*
X2996667D2*
X3063007D1*
X599655Y1996580D2*
X630311D1*
X1215183D2*
X1226444D1*
X1349088D2*
X1404432D1*
X1527096D2*
X2000116D1*
X2131667D2*
X2212713D1*
X2435748D2*
X2559999D1*
X2703209D2*
X2788807D1*
X2999225D2*
X3063007D1*
X599655Y1986712D2*
X630311D1*
X1215183D2*
X1229960D1*
X1345572D2*
X1407948D1*
X1529987D2*
X1831404D1*
X1923561D2*
X2000116D1*
X2131667D2*
X2147361D1*
X2177799D2*
X2212713D1*
X2445612D2*
X2559999D1*
X2698404D2*
X2788104D1*
X2999928D2*
X3063007D1*
X482017Y1976843D2*
X491736D1*
X599655D2*
X630311D1*
X1215183D2*
X1235565D1*
X1339967D2*
X1413572D1*
X1539849D2*
X1831404D1*
X1923561D2*
X2000116D1*
X2191197D2*
X2212713D1*
X2455475D2*
X2559999D1*
X2693659D2*
X2789179D1*
X2998853D2*
X3063007D1*
X425016Y1966974D2*
X630311D1*
X1215183D2*
X1244100D1*
X1331432D2*
X1422108D1*
X1549733D2*
X1831404D1*
X1923561D2*
X2000116D1*
X2197155D2*
X2212713D1*
X2371588D2*
X2383025D1*
X2465339D2*
X2559999D1*
X2683580D2*
X2792167D1*
X2995865D2*
X3063007D1*
X425016Y1957105D2*
X633436D1*
X1013893D2*
X1058397D1*
X1154499D2*
X1258065D1*
X1317467D2*
X1436072D1*
X1677604D2*
X1831404D1*
X1923561D2*
X2000116D1*
X2199616D2*
X2212713D1*
X2381471D2*
X2392889D1*
X2475221D2*
X2559999D1*
X2656120D2*
X2797440D1*
X2990592D2*
X3063007D1*
X425016Y1947236D2*
X633436D1*
X1013893D2*
X1058397D1*
X1154499D2*
X1487128D1*
X1677604D2*
X1831404D1*
X1923561D2*
X2000116D1*
X2199284D2*
X2212713D1*
X2391335D2*
X2402752D1*
X2485084D2*
X2805936D1*
X2982096D2*
X3063007D1*
X425016Y1937368D2*
X633436D1*
X1013893D2*
X1058397D1*
X1154499D2*
X1497011D1*
X1677604D2*
X1831404D1*
X1923561D2*
X2000116D1*
X2196061D2*
X2212713D1*
X2401197D2*
X2412616D1*
X2494948D2*
X2819432D1*
X2968600D2*
X3063007D1*
X425016Y1927499D2*
X633436D1*
X1013893D2*
X1058397D1*
X1154499D2*
X1506873D1*
X1677604D2*
X1831404D1*
X1923561D2*
X2000116D1*
X2188912D2*
X2212713D1*
X2503464D2*
X2805096D1*
X2982936D2*
X3063007D1*
X425016Y1917630D2*
X633436D1*
X1013893D2*
X1058397D1*
X1154499D2*
X1516679D1*
X1677604D2*
X1831404D1*
X1923561D2*
X2000116D1*
X2131667D2*
X2155799D1*
X2169361D2*
X2212713D1*
X2506960D2*
X2796912D1*
X2991120D2*
X3063007D1*
X425016Y1907761D2*
X633436D1*
X1013893D2*
X1058397D1*
X1154499D2*
X1516600D1*
X1677604D2*
X1831404D1*
X1923561D2*
X2348475D1*
X2507292D2*
X2791853D1*
X2996179D2*
X3063007D1*
X425016Y1897893D2*
X633436D1*
X1013893D2*
X1058397D1*
X1154499D2*
X1506736D1*
X1677604D2*
X2358357D1*
X2440416D2*
X2448495D1*
X2507292D2*
X2789021D1*
X2999011D2*
X3063007D1*
X425016Y1888024D2*
X633436D1*
X1013893D2*
X1058397D1*
X1154499D2*
X1496853D1*
X1677604D2*
X2000116D1*
X2131667D2*
X2366659D1*
X2511217D2*
X2788084D1*
X2999948D2*
X3063007D1*
X425016Y1878155D2*
X436580D1*
X599616D2*
X630839D1*
X1041999D2*
X1058397D1*
X1154499D2*
X1486991D1*
X1677604D2*
X2000116D1*
X2131667D2*
X2369823D1*
X2514537D2*
X2788944D1*
X2999088D2*
X3063007D1*
X425016Y1868286D2*
X436580D1*
X599616D2*
X630839D1*
X1041999D2*
X1477128D1*
X1677604D2*
X2000116D1*
X2131667D2*
X2376893D1*
X2429889D2*
X2440819D1*
X2514967D2*
X2791659D1*
X2996373D2*
X3063007D1*
X425016Y1858418D2*
X436580D1*
X599616D2*
X630839D1*
X1041999D2*
X1467244D1*
X1608853D2*
X2000116D1*
X2131667D2*
X2395683D1*
X2411100D2*
X2443163D1*
X2512624D2*
X2796580D1*
X2991452D2*
X3063007D1*
X425016Y1848549D2*
X436580D1*
X599616D2*
X630839D1*
X1041999D2*
X1457381D1*
X1608853D2*
X2000116D1*
X2131667D2*
X2448983D1*
X2506803D2*
X2804549D1*
X2983483D2*
X3063007D1*
X425016Y1838680D2*
X436580D1*
X599616D2*
X630839D1*
X1041999D2*
X1447517D1*
X1608853D2*
X2000116D1*
X2131667D2*
X2461873D1*
X2493912D2*
X2608475D1*
X2654088D2*
X2818357D1*
X2969675D2*
X3063007D1*
X425016Y1828811D2*
X436580D1*
X599616D2*
X630839D1*
X1041999D2*
X1439529D1*
X1608853D2*
X2000116D1*
X2131667D2*
X2599471D1*
X2663092D2*
X2806521D1*
X2981511D2*
X3063007D1*
X425016Y1818943D2*
X436580D1*
X599616D2*
X630839D1*
X1041999D2*
X1436541D1*
X1510104D2*
X1516680D1*
X1608853D2*
X2000116D1*
X2131667D2*
X2286932D1*
X2326511D2*
X2595233D1*
X2667331D2*
X2797792D1*
X2990240D2*
X3063007D1*
X425016Y1809074D2*
X436580D1*
X599616D2*
X630839D1*
X1041999D2*
X1253124D1*
X1322408D2*
X1431131D1*
X1500397D2*
X1516679D1*
X1608853D2*
X1935467D1*
X2031568D2*
X2206444D1*
X2337155D2*
X2594061D1*
X2668503D2*
X2792381D1*
X2995651D2*
X3063007D1*
X425016Y1799205D2*
X436580D1*
X599616D2*
X630839D1*
X1041999D2*
X1057108D1*
X1080924D2*
X1241248D1*
X1334284D2*
X1419256D1*
X1608853D2*
X1935467D1*
X2031568D2*
X2206444D1*
X2342155D2*
X2595624D1*
X2666940D2*
X2789296D1*
X2998736D2*
X3063007D1*
X425016Y1789336D2*
X533357D1*
X592155D2*
X632889D1*
X1017096D2*
X1032889D1*
X1105143D2*
X1157869D1*
X1180163D2*
X1233689D1*
X1341843D2*
X1411697D1*
X1519831D2*
X1935467D1*
X2031568D2*
X2206444D1*
X2343912D2*
X2600349D1*
X2662213D2*
X2788104D1*
X2999928D2*
X3063007D1*
X425016Y1779467D2*
X533084D1*
X604948D2*
X621600D1*
X1116432D2*
X1133084D1*
X1204948D2*
X1228748D1*
X1346784D2*
X1406736D1*
X1524792D2*
X1735584D1*
X1902760D2*
X1935467D1*
X2031568D2*
X2206444D1*
X2342936D2*
X2610408D1*
X2652155D2*
X2788709D1*
X2999323D2*
X3063007D1*
X425016Y1769599D2*
X521717D1*
X1216315D2*
X1225760D1*
X1349772D2*
X1403748D1*
X1527780D2*
X1735584D1*
X1902760D2*
X1935467D1*
X2031568D2*
X2206444D1*
X2345592D2*
X2791171D1*
X2996861D2*
X3063007D1*
X425016Y1759730D2*
X514432D1*
X1351080D2*
X1402440D1*
X1529088D2*
X1735584D1*
X1902760D2*
X1935467D1*
X2031568D2*
X2206444D1*
X2352507D2*
X2795780D1*
X2992252D2*
X3063007D1*
X425016Y1749861D2*
X509667D1*
X1350807D2*
X1402713D1*
X1528815D2*
X1735584D1*
X1902760D2*
X1935467D1*
X2035065D2*
X2101756D1*
X2142155D2*
X2183553D1*
X2355592D2*
X2803260D1*
X2984772D2*
X3063007D1*
X425016Y1739992D2*
X506835D1*
X1348932D2*
X1404588D1*
X1526940D2*
X1735584D1*
X2039693D2*
X2091347D1*
X2152584D2*
X2169100D1*
X2371256D2*
X2815916D1*
X2972116D2*
X3063007D1*
X425016Y1730124D2*
X505663D1*
X1345319D2*
X1408221D1*
X2040533D2*
X2073065D1*
X2157487D2*
X2162824D1*
X2385084D2*
X2808045D1*
X2979987D2*
X3063007D1*
X425016Y1720255D2*
X506072D1*
X1339557D2*
X1413983D1*
X2040533D2*
X2052147D1*
X2391197D2*
X2798729D1*
X2989303D2*
X3063007D1*
X425016Y1710386D2*
X508084D1*
X1229948D2*
X1244744D1*
X1330788D2*
X1422752D1*
X2393736D2*
X2486541D1*
X2507292D2*
X2539491D1*
X2585592D2*
X2792967D1*
X2995065D2*
X3063007D1*
X425016Y1700517D2*
X511873D1*
X1226159D2*
X1259236D1*
X1316296D2*
X1437244D1*
X2154029D2*
X2163339D1*
X2393464D2*
X2469823D1*
X2524029D2*
X2530624D1*
X2594460D2*
X2789588D1*
X2998444D2*
X3063007D1*
X425016Y1690649D2*
X517849D1*
X620183D2*
X627113D1*
X710924D2*
X717856D1*
X820183D2*
X827113D1*
X910924D2*
X917856D1*
X1020183D2*
X1027113D1*
X1110924D2*
X1117856D1*
X1220183D2*
X1491600D1*
X2390357D2*
X2463065D1*
X2598620D2*
X2788163D1*
X2999869D2*
X3063007D1*
X425016Y1680780D2*
X526952D1*
X611080D2*
X642596D1*
X695436D2*
X726952D1*
X811080D2*
X842596D1*
X895436D2*
X926952D1*
X1011080D2*
X1042596D1*
X1095436D2*
X1126952D1*
X1211080D2*
X1491600D1*
X2389537D2*
X2460096D1*
X2599752D2*
X2788533D1*
X2999499D2*
X3063007D1*
X425016Y1670911D2*
X542303D1*
X595729D2*
X742303D1*
X795729D2*
X942303D1*
X995729D2*
X1142303D1*
X1195729D2*
X1491600D1*
X2399675D2*
X2459979D1*
X2598131D2*
X2790740D1*
X2997292D2*
X3063007D1*
X425016Y1661042D2*
X1491600D1*
X2404440D2*
X2462655D1*
X2596803D2*
X2795017D1*
X2993015D2*
X3063007D1*
X425016Y1651173D2*
X1451853D1*
X2406021D2*
X2463143D1*
X2596803D2*
X2802049D1*
X2985983D2*
X3063007D1*
X425016Y1641305D2*
X1451853D1*
X2404869D2*
X2453260D1*
X2596803D2*
X2813709D1*
X2974323D2*
X3063007D1*
X425016Y1631436D2*
X1451853D1*
X2400671D2*
X2443397D1*
X2605729D2*
X2809705D1*
X2978327D2*
X3063007D1*
X425016Y1621567D2*
X1451853D1*
X2391744D2*
X2433533D1*
X2605729D2*
X2799725D1*
X2988307D2*
X3063007D1*
X425016Y1611698D2*
X1451853D1*
X2378092D2*
X2423651D1*
X2605729D2*
X2793572D1*
X2994460D2*
X3063007D1*
X425016Y1601830D2*
X1451853D1*
X2378092D2*
X2413788D1*
X2605729D2*
X2789920D1*
X2998112D2*
X3063007D1*
X425016Y1591961D2*
X1451853D1*
X2605729D2*
X2788240D1*
X2999792D2*
X3063007D1*
X425016Y1582092D2*
X1451853D1*
X2605729D2*
X2788377D1*
X2999655D2*
X3063007D1*
X425016Y1572223D2*
X1451853D1*
X1544011D2*
X1704041D1*
X2605729D2*
X2790331D1*
X2997701D2*
X3063007D1*
X425016Y1562355D2*
X1451853D1*
X1544011D2*
X1704041D1*
X2605729D2*
X2794315D1*
X2993717D2*
X3063007D1*
X425016Y1552486D2*
X1451853D1*
X1544011D2*
X1704041D1*
X2605729D2*
X2800916D1*
X2987116D2*
X3063007D1*
X425016Y1542617D2*
X1451853D1*
X1544011D2*
X1704041D1*
X2605729D2*
X2811736D1*
X2976296D2*
X3063007D1*
X425016Y1532748D2*
X1451853D1*
X1544011D2*
X1704041D1*
X2547604D2*
X2611347D1*
X2626685D2*
X2811503D1*
X2976529D2*
X3063007D1*
X425016Y1522880D2*
X1451853D1*
X1544011D2*
X1697049D1*
X2537740D2*
X2592517D1*
X2645515D2*
X2800780D1*
X2987252D2*
X3063007D1*
X425016Y1513011D2*
X1451853D1*
X2527877D2*
X2585448D1*
X2652584D2*
X2794236D1*
X2993796D2*
X3063007D1*
X425016Y1503142D2*
X1451853D1*
X2531628D2*
X2582284D1*
X2655748D2*
X2790292D1*
X2997740D2*
X3063007D1*
X425016Y1493273D2*
X1487011D1*
X2656041D2*
X2788357D1*
X2999675D2*
X3063007D1*
X425016Y1483404D2*
X1491600D1*
X2653541D2*
X2788260D1*
X2999772D2*
X3063007D1*
X425016Y1473536D2*
X1491600D1*
X2647507D2*
X2789960D1*
X2998072D2*
X3063007D1*
X425016Y1463667D2*
X1491600D1*
X2650456D2*
X2793651D1*
X2994381D2*
X3063007D1*
X425016Y1453798D2*
X1491600D1*
X2654889D2*
X2799843D1*
X2988189D2*
X3063007D1*
X425016Y1443929D2*
X1491600D1*
X2656236D2*
X2809920D1*
X2978112D2*
X3063007D1*
X425016Y1434061D2*
X1491600D1*
X2654849D2*
X2813456D1*
X2974576D2*
X3063007D1*
X425016Y1424192D2*
X1491600D1*
X2650339D2*
X2801912D1*
X2986120D2*
X3063007D1*
X425016Y1414323D2*
X1491600D1*
X2649967D2*
X2794940D1*
X2993092D2*
X3063007D1*
X425016Y1404454D2*
X1658280D1*
X2649029D2*
X2790683D1*
X2997349D2*
X3063007D1*
X425016Y1394586D2*
X1667928D1*
X2645104D2*
X2788515D1*
X2999517D2*
X3063007D1*
X425016Y1384717D2*
X1677792D1*
X2709088D2*
X2788183D1*
X2999849D2*
X3063007D1*
X425016Y1374848D2*
X1687675D1*
X2480456D2*
X2616912D1*
X2709088D2*
X2789628D1*
X2998404D2*
X3063007D1*
X425016Y1364979D2*
X1697537D1*
X2506432D2*
X2616912D1*
X2994987D2*
X3063007D1*
X425016Y1355110D2*
X1786347D1*
X2514323D2*
X2616912D1*
X2989185D2*
X3063007D1*
X425016Y1345242D2*
X1786424D1*
X2528756D2*
X2616912D1*
X2979792D2*
X3063007D1*
X425016Y1335373D2*
X1682303D1*
X1774479D2*
X1788964D1*
X2538053D2*
X2616912D1*
X2972408D2*
X3063007D1*
X425016Y1325504D2*
X1682303D1*
X2542448D2*
X2616912D1*
X2984928D2*
X3063007D1*
X425016Y1315635D2*
X1610175D1*
X1658853D2*
X1682303D1*
X2543736D2*
X2616912D1*
X2992349D2*
X3063007D1*
X425016Y1305767D2*
X1601971D1*
X1667037D2*
X1682303D1*
X2542292D2*
X2616912D1*
X2709088D2*
X2791131D1*
X2996901D2*
X3063007D1*
X425016Y1295898D2*
X1598163D1*
X1670847D2*
X1682303D1*
X2545065D2*
X2788689D1*
X2999343D2*
X3063007D1*
X425016Y1286029D2*
X1565037D1*
X2546843D2*
X2788124D1*
X2999908D2*
X3063007D1*
X425016Y1276160D2*
X1549705D1*
X2545865D2*
X2789335D1*
X2998697D2*
X3063007D1*
X425016Y1266292D2*
X1541659D1*
X2541881D2*
X2792460D1*
X2995572D2*
X3063007D1*
X425016Y1256423D2*
X1536952D1*
X2577604D2*
X2609764D1*
X2705885D2*
X2797908D1*
X2990124D2*
X3063007D1*
X425016Y1246554D2*
X1534647D1*
X2577604D2*
X2609764D1*
X2705885D2*
X2806697D1*
X2981335D2*
X3063007D1*
X425016Y1236685D2*
X1534373D1*
X2577604D2*
X2609764D1*
X2705885D2*
X2818045D1*
X2969987D2*
X3063007D1*
X425016Y1226817D2*
X1536112D1*
X2577604D2*
X2609764D1*
X2705885D2*
X2804393D1*
X2983639D2*
X3063007D1*
X425016Y1216948D2*
X1540096D1*
X2577604D2*
X2609764D1*
X2705885D2*
X2796483D1*
X2991549D2*
X3063007D1*
X425016Y1207079D2*
X1547049D1*
X2577604D2*
X2609764D1*
X2705885D2*
X2791600D1*
X2996432D2*
X3063007D1*
X425016Y1197210D2*
X1559432D1*
X2577604D2*
X2609764D1*
X2705885D2*
X2788904D1*
X2999128D2*
X3063007D1*
X425016Y1187341D2*
X1682303D1*
X2577604D2*
X2609764D1*
X2705885D2*
X2788084D1*
X2999948D2*
X3063007D1*
X425016Y1177473D2*
X1682303D1*
X2577604D2*
X2609764D1*
X2705885D2*
X2789061D1*
X2998971D2*
X3063007D1*
X425016Y1167604D2*
X1682303D1*
X2577604D2*
X2791932D1*
X2996100D2*
X3063007D1*
X425016Y1157735D2*
X1653748D1*
X2480456D2*
X2609764D1*
X2705885D2*
X2797029D1*
X2991003D2*
X3063007D1*
X425016Y1147866D2*
X1643885D1*
X2470045D2*
X2609764D1*
X2705885D2*
X2805272D1*
X2982760D2*
X3063007D1*
X425016Y1137998D2*
X1634021D1*
X2514889D2*
X2609764D1*
X2705885D2*
X2819764D1*
X2968268D2*
X3063007D1*
X425016Y1128129D2*
X855135D1*
X895280D2*
X1624139D1*
X2514889D2*
X2609764D1*
X2705885D2*
X2805760D1*
X2982272D2*
X3063007D1*
X425016Y1118260D2*
X844647D1*
X956412D2*
X991952D1*
X1033092D2*
X1614276D1*
X2514889D2*
X2609764D1*
X2705885D2*
X2797323D1*
X2990709D2*
X3063007D1*
X425016Y1108391D2*
X839725D1*
X964284D2*
X981736D1*
X1043307D2*
X1604412D1*
X2514889D2*
X2609764D1*
X2705885D2*
X2792108D1*
X2995924D2*
X3063007D1*
X425016Y1098523D2*
X838007D1*
X967916D2*
X976932D1*
X1048112D2*
X1573065D1*
X1676861D2*
X1682299D1*
X2514889D2*
X2609764D1*
X2705885D2*
X2789159D1*
X2998873D2*
X3063007D1*
X425016Y1088654D2*
X839041D1*
X968600D2*
X975311D1*
X1063776D2*
X1552537D1*
X1666999D2*
X1682303D1*
X2514889D2*
X2609764D1*
X2705885D2*
X2788104D1*
X2999928D2*
X3063007D1*
X425016Y1078785D2*
X843104D1*
X966529D2*
X976424D1*
X1072701D2*
X1543299D1*
X1657135D2*
X1682303D1*
X2514889D2*
X2609764D1*
X2705885D2*
X2788827D1*
X2999205D2*
X3063007D1*
X425016Y1068916D2*
X845819D1*
X961120D2*
X980584D1*
X1076901D2*
X1537889D1*
X1647252D2*
X1682303D1*
X2514889D2*
X2603515D1*
X2699635D2*
X2791424D1*
X2996608D2*
X3063007D1*
X425016Y1059047D2*
X845819D1*
X960865D2*
X983124D1*
X1078033D2*
X1535017D1*
X1637389D2*
X1682303D1*
X2514889D2*
X2603515D1*
X2699635D2*
X2796189D1*
X2991843D2*
X3063007D1*
X425016Y1049179D2*
X509744D1*
X1377507D2*
X1534256D1*
X1635025D2*
X1682303D1*
X2226139D2*
X2257343D1*
X2514889D2*
X2603515D1*
X2699635D2*
X2803924D1*
X2984108D2*
X3063007D1*
X425016Y1039310D2*
X509744D1*
X1377507D2*
X1535467D1*
X1633815D2*
X1682303D1*
X2216276D2*
X2257343D1*
X2458639D2*
X2603515D1*
X2699635D2*
X2817147D1*
X2970885D2*
X3063007D1*
X425016Y1029441D2*
X506424D1*
X1377507D2*
X1538847D1*
X1630436D2*
X1682303D1*
X2209323D2*
X2257343D1*
X2458639D2*
X2603515D1*
X2699635D2*
X2807244D1*
X2980788D2*
X3063007D1*
X425016Y1019572D2*
X489003D1*
X1377507D2*
X1544940D1*
X1624343D2*
X1769041D1*
X2209323D2*
X2257343D1*
X2458639D2*
X2603515D1*
X2699635D2*
X2798240D1*
X2989792D2*
X3063007D1*
X425016Y1009704D2*
X482128D1*
X1377507D2*
X1555448D1*
X1630612D2*
X1769041D1*
X2209323D2*
X2257343D1*
X2458639D2*
X2603515D1*
X2699635D2*
X2792655D1*
X2995377D2*
X3063007D1*
X425016Y999835D2*
X479080D1*
X1377507D2*
X1569296D1*
X1637233D2*
X1769041D1*
X2209323D2*
X2257343D1*
X2458639D2*
X2603515D1*
X2699635D2*
X2789432D1*
X2998600D2*
X3063007D1*
X425016Y989966D2*
X478904D1*
X1377507D2*
X1566404D1*
X1640124D2*
X1769041D1*
X2209323D2*
X2257343D1*
X2458639D2*
X2603515D1*
X2699635D2*
X2788124D1*
X2999908D2*
X3063007D1*
X425016Y980097D2*
X481521D1*
X1377507D2*
X1566347D1*
X1640183D2*
X1769041D1*
X2196861D2*
X2257343D1*
X2458464D2*
X2788631D1*
X2999401D2*
X3063007D1*
X425016Y970229D2*
X487733D1*
X1377507D2*
X1569120D1*
X1637408D2*
X1841991D1*
X2196432D2*
X2257343D1*
X2468327D2*
X2790956D1*
X2997076D2*
X3063007D1*
X425016Y960360D2*
X501991D1*
X1377507D2*
X1575565D1*
X1630964D2*
X1667499D1*
X1689011D2*
X1841991D1*
X2193229D2*
X2257343D1*
X2487213D2*
X2795408D1*
X2992624D2*
X3063007D1*
X425016Y950491D2*
X509744D1*
X1377507D2*
X1590760D1*
X1615768D2*
X1651053D1*
X1705456D2*
X1841991D1*
X2185671D2*
X2257343D1*
X2498659D2*
X2802675D1*
X2985357D2*
X3063007D1*
X425016Y940622D2*
X509744D1*
X1377507D2*
X1644353D1*
X1712155D2*
X1838084D1*
X2175788D2*
X2258357D1*
X2503971D2*
X2814823D1*
X2973209D2*
X3063007D1*
X425016Y930754D2*
X509744D1*
X1377507D2*
X1641424D1*
X1715104D2*
X1835155D1*
X2165924D2*
X2263299D1*
X2531803D2*
X2547792D1*
X2710827D2*
X2808827D1*
X2979205D2*
X3063007D1*
X425016Y920885D2*
X542167D1*
X1317507D2*
X1641327D1*
X1715183D2*
X1835057D1*
X2147819D2*
X2272869D1*
X2542663D2*
X2547772D1*
X2710827D2*
X2799197D1*
X2988835D2*
X3063007D1*
X425016Y911016D2*
X542167D1*
X1317507D2*
X1566404D1*
X1729440D2*
X1837772D1*
X2060827D2*
X2224823D1*
X2710827D2*
X2793260D1*
X2994772D2*
X3063007D1*
X425016Y901147D2*
X542167D1*
X1317507D2*
X1566404D1*
X1729440D2*
X1844139D1*
X2060827D2*
X2224823D1*
X2710827D2*
X2789744D1*
X2998288D2*
X3063007D1*
X425016Y891278D2*
X542167D1*
X1317507D2*
X1566404D1*
X1729440D2*
X1859021D1*
X1884948D2*
X1897792D1*
X2060827D2*
X2224823D1*
X2710827D2*
X2788201D1*
X2999831D2*
X3063007D1*
X425016Y881410D2*
X542167D1*
X1344420D2*
X1499041D1*
X1538756D2*
X1566404D1*
X1729440D2*
X1897792D1*
X2060827D2*
X2224823D1*
X2710827D2*
X2788456D1*
X2999576D2*
X3063007D1*
X425016Y871541D2*
X542167D1*
X1359401D2*
X1488416D1*
X1549381D2*
X1566404D1*
X1729440D2*
X1897792D1*
X2060827D2*
X2224823D1*
X2710827D2*
X2790545D1*
X2997487D2*
X3063007D1*
X425016Y861672D2*
X542167D1*
X1365807D2*
X1483436D1*
X1554361D2*
X1564217D1*
X1729440D2*
X1897557D1*
X2060827D2*
X2224823D1*
X2710827D2*
X2794685D1*
X2993347D2*
X3063007D1*
X425016Y851803D2*
X542167D1*
X1368541D2*
X1481697D1*
X1556100D2*
X1564217D1*
X1729440D2*
X1897557D1*
X2060827D2*
X2224823D1*
X2710827D2*
X2801503D1*
X2986529D2*
X3063007D1*
X425016Y841935D2*
X542167D1*
X1368464D2*
X1482693D1*
X1555104D2*
X1564217D1*
X1729440D2*
X1897557D1*
X2060827D2*
X2224823D1*
X2387857D2*
X2508495D1*
X2654068D2*
X2812733D1*
X2975299D2*
X3063007D1*
X425016Y832066D2*
X543768D1*
X1365885D2*
X1486697D1*
X1551100D2*
X1564217D1*
X1729440D2*
X1897557D1*
X2060827D2*
X2224823D1*
X2387857D2*
X2513671D1*
X2654068D2*
X2810545D1*
X2977487D2*
X3063007D1*
X425016Y822197D2*
X549705D1*
X1365885D2*
X1495252D1*
X1542525D2*
X1564217D1*
X1660319D2*
X1897557D1*
X1993659D2*
X2230877D1*
X2326999D2*
X2524744D1*
X2654068D2*
X2800213D1*
X2987819D2*
X3063007D1*
X425016Y812328D2*
X559549D1*
X1365885D2*
X1545956D1*
X1554561D2*
X1564217D1*
X1660319D2*
X1881385D1*
X1889977D2*
X1897557D1*
X1993659D2*
X2216796D1*
X2225397D2*
X2230893D1*
X2326999D2*
X2552205D1*
X2654068D2*
X2793885D1*
X2994147D2*
X3063007D1*
X425016Y802460D2*
X569412D1*
X1365885D2*
X1515448D1*
X1660319D2*
X1850877D1*
X1993659D2*
X2186288D1*
X2326999D2*
X2521697D1*
X2654068D2*
X2790096D1*
X2997936D2*
X3063007D1*
X425016Y792591D2*
X579276D1*
X1365885D2*
X1503651D1*
X1660319D2*
X1839061D1*
X1993659D2*
X2174471D1*
X2326999D2*
X2509901D1*
X2654068D2*
X2788299D1*
X2999733D2*
X3063007D1*
X425016Y782722D2*
X589139D1*
X1660319D2*
X1756541D1*
X1993659D2*
X2166952D1*
X2326999D2*
X2502381D1*
X2610651D2*
X2788319D1*
X2999713D2*
X3063007D1*
X425016Y772853D2*
X599080D1*
X1609343D2*
X1756541D1*
X1944752D2*
X2162029D1*
X2280163D2*
X2497440D1*
X2615592D2*
X2790155D1*
X2997877D2*
X3063007D1*
X425016Y762985D2*
X701580D1*
X1612311D2*
X1756541D1*
X1947721D2*
X2095897D1*
X2283131D2*
X2429393D1*
X2618561D2*
X2794003D1*
X2994029D2*
X3063007D1*
X425016Y753116D2*
X701580D1*
X1613580D2*
X1756541D1*
X1949011D2*
X2095897D1*
X2284420D2*
X2429393D1*
X2619831D2*
X2800389D1*
X2987643D2*
X3063007D1*
X425016Y743247D2*
X701580D1*
X1613288D2*
X1756541D1*
X1948717D2*
X2095897D1*
X2284128D2*
X2429393D1*
X2619557D2*
X2810839D1*
X2977193D2*
X3063007D1*
X425016Y733378D2*
X701580D1*
X1611412D2*
X1756541D1*
X1946823D2*
X2095897D1*
X2282233D2*
X2429393D1*
X2617663D2*
X2788084D1*
X2999948D2*
X3063007D1*
X425016Y723509D2*
X701580D1*
X1607760D2*
X1756541D1*
X1943171D2*
X2095897D1*
X2278580D2*
X2429393D1*
X2614011D2*
X2788084D1*
X2999948D2*
X3063007D1*
X425016Y713641D2*
X701580D1*
X1601960D2*
X1756541D1*
X1937389D2*
X2095897D1*
X2272799D2*
X2429393D1*
X2608209D2*
X2788084D1*
X2999948D2*
X3063007D1*
X425016Y703772D2*
X701580D1*
X1593171D2*
X1756541D1*
X1928580D2*
X2095897D1*
X2263991D2*
X2429393D1*
X2599420D2*
X2788084D1*
X2999948D2*
X3063007D1*
X425016Y693903D2*
X701580D1*
X1578561D2*
X1756541D1*
X1913971D2*
X2095897D1*
X2249401D2*
X2429393D1*
X2584811D2*
X2788084D1*
X2999948D2*
X3063007D1*
X425016Y684034D2*
X701952D1*
X1122408D2*
X1154881D1*
X1312740D2*
X1354179D1*
X1517213D2*
X1756541D1*
X1854733D2*
X2095897D1*
X2212857D2*
X2429393D1*
X2542311D2*
X2788084D1*
X2999948D2*
X3063007D1*
X425016Y674166D2*
X549276D1*
X1122408D2*
X1154881D1*
X1312740D2*
X1354179D1*
X1511179D2*
X1756541D1*
X1848717D2*
X2095897D1*
X2202995D2*
X2429393D1*
X2532448D2*
X2788084D1*
X2999948D2*
X3063007D1*
X425016Y664297D2*
X549276D1*
X1122408D2*
X1154881D1*
X1312740D2*
X1354179D1*
X1511179D2*
X1756541D1*
X1848717D2*
X2095897D1*
X2193112D2*
X2429393D1*
X2522584D2*
X2788084D1*
X2999948D2*
X3063007D1*
X425016Y654428D2*
X549276D1*
X1122408D2*
X1154881D1*
X1312740D2*
X1354179D1*
X1511179D2*
X1756541D1*
X1848717D2*
X2095897D1*
X2188072D2*
X2429393D1*
X2521568D2*
X2788084D1*
X2999948D2*
X3063007D1*
X425016Y644559D2*
X549276D1*
X1122408D2*
X1154881D1*
X1312740D2*
X1354179D1*
X1511179D2*
X1756541D1*
X1848717D2*
X2095897D1*
X2188072D2*
X2429393D1*
X2521568D2*
X2788084D1*
X2999948D2*
X3063007D1*
X425016Y634691D2*
X549276D1*
X951217D2*
X973221D1*
X1032037D2*
X1354179D1*
X1511179D2*
X1756541D1*
X1848717D2*
X2095897D1*
X2188072D2*
X2429393D1*
X2521568D2*
X2788084D1*
X2999948D2*
X3063007D1*
X425016Y624822D2*
X549276D1*
X951217D2*
X973221D1*
X1032037D2*
X1189217D1*
X1312877D2*
X1435683D1*
X1494499D2*
X1773221D1*
X1832017D2*
X2095897D1*
X2188072D2*
X2429393D1*
X2521568D2*
X3063007D1*
X425016Y614953D2*
X549276D1*
X951217D2*
X973221D1*
X1032037D2*
X1132889D1*
X1312877D2*
X1435683D1*
X1494499D2*
X1773221D1*
X1832017D2*
X2095897D1*
X2188072D2*
X2429393D1*
X2521568D2*
X3063007D1*
X425016Y605084D2*
X549276D1*
X951217D2*
X964412D1*
X1095964D2*
X1122987D1*
X1312877D2*
X1419003D1*
X1511179D2*
X1756541D1*
X1848717D2*
X2094080D1*
X2186236D2*
X2429393D1*
X2521568D2*
X3063007D1*
X425016Y595215D2*
X471053D1*
X516979D2*
X549276D1*
X951217D2*
X964412D1*
X1095964D2*
X1113124D1*
X1346353D2*
X1419003D1*
X1511179D2*
X1756541D1*
X1848717D2*
X2094080D1*
X2186236D2*
X2429393D1*
X2521568D2*
X2971053D1*
X3016979D2*
X3063007D1*
X425016Y585347D2*
X444197D1*
X543835D2*
X549276D1*
X951217D2*
X964412D1*
X1095964D2*
X1106971D1*
X1346353D2*
X1419003D1*
X1511179D2*
X1756541D1*
X1848717D2*
X2094080D1*
X2186236D2*
X2429393D1*
X2521568D2*
X2944197D1*
X3043835D2*
X3063007D1*
X951217Y575478D2*
X964412D1*
X1095964D2*
X1105252D1*
X1346353D2*
X1419003D1*
X1511179D2*
X1756541D1*
X1848717D2*
X2094080D1*
X2186236D2*
X2429393D1*
X2521568D2*
X2929080D1*
X951217Y565609D2*
X964412D1*
X1095964D2*
X1105252D1*
X1346353D2*
X1419003D1*
X1511179D2*
X1756541D1*
X1848717D2*
X2094080D1*
X2190671D2*
X2429393D1*
X2521568D2*
X2918201D1*
X951217Y555740D2*
X964412D1*
X1095964D2*
X1105252D1*
X1346353D2*
X1419003D1*
X1513288D2*
X1540116D1*
X1560416D2*
X1756541D1*
X1850827D2*
X1875525D1*
X1895847D2*
X2094080D1*
X2200533D2*
X2210936D1*
X2231256D2*
X2429393D1*
X2529948D2*
X2546365D1*
X2566667D2*
X2909861D1*
X951217Y545872D2*
X964412D1*
X1095964D2*
X1105252D1*
X1346353D2*
X1419003D1*
X1585983D2*
X1756541D1*
X1921393D2*
X2094080D1*
X2256803D2*
X2429393D1*
X2592233D2*
X2903377D1*
X951217Y536003D2*
X964412D1*
X1095964D2*
X1105252D1*
X1346353D2*
X1419003D1*
X1597428D2*
X1756541D1*
X1932839D2*
X2094080D1*
X2268268D2*
X2429393D1*
X2603679D2*
X2898357D1*
X951217Y526134D2*
X964412D1*
X1095964D2*
X1105252D1*
X1346353D2*
X1419003D1*
X1604772D2*
X1756541D1*
X1940183D2*
X2094080D1*
X2275592D2*
X2429393D1*
X2611021D2*
X2894568D1*
X951217Y516265D2*
X964412D1*
X1095964D2*
X1105252D1*
X1346353D2*
X1419003D1*
X1609557D2*
X1756541D1*
X1944987D2*
X2094080D1*
X2280397D2*
X2429393D1*
X2615807D2*
X2891873D1*
X951217Y506397D2*
X964412D1*
X1095964D2*
X1105252D1*
X1332565D2*
X1419003D1*
X1612428D2*
X1756541D1*
X1947839D2*
X2094080D1*
X2283248D2*
X2429393D1*
X2618679D2*
X2890193D1*
X951217Y496528D2*
X964412D1*
X1095964D2*
X1105252D1*
X1332565D2*
X1419003D1*
X1613620D2*
X1756541D1*
X1949029D2*
X2094080D1*
X2284440D2*
X2429393D1*
X2619869D2*
X2889491D1*
X951217Y486659D2*
X964412D1*
X1095964D2*
X1105252D1*
X1332565D2*
X1419003D1*
X1613229D2*
X1756541D1*
X1948639D2*
X2094080D1*
X2284068D2*
X2429393D1*
X2619479D2*
X2889725D1*
X951217Y476790D2*
X964412D1*
X1095964D2*
X1105252D1*
X1332565D2*
X1419003D1*
X1611236D2*
X1756541D1*
X1946667D2*
X2094080D1*
X2282076D2*
X2429393D1*
X2617487D2*
X2890897D1*
X951217Y466922D2*
X964412D1*
X1095964D2*
X1105252D1*
X1332565D2*
X1419003D1*
X1607467D2*
X1756541D1*
X1942897D2*
X2094080D1*
X2278307D2*
X2429393D1*
X2613717D2*
X2893065D1*
X951217Y457053D2*
X964412D1*
X1095964D2*
X1105252D1*
X1312857D2*
X1419003D1*
X1601529D2*
X1756541D1*
X1936960D2*
X2094080D1*
X2272369D2*
X2429393D1*
X2607799D2*
X2896288D1*
X951217Y447184D2*
X1019529D1*
X1095964D2*
X1105252D1*
X1307193D2*
X1508025D1*
X1592507D2*
X1843436D1*
X1927916D2*
X2178865D1*
X2263327D2*
X2514276D1*
X2598756D2*
X2900663D1*
X951217Y437315D2*
X1019529D1*
X1095964D2*
X1106561D1*
X1297525D2*
X1523221D1*
X1577311D2*
X1858631D1*
X1912740D2*
X2194041D1*
X2248151D2*
X2529471D1*
X2583561D2*
X2906365D1*
X951217Y427446D2*
X1019529D1*
X1095964D2*
X1112011D1*
X1290201D2*
X2913689D1*
X1548158Y2721823D2*
Y2613373D1*
X1481810D1*
X1481792Y2566496D1*
X1484280Y2562944D1*
X1486861Y2557880D1*
X1488617Y2552473D1*
X1489507Y2546859D1*
Y2541173D1*
X1488617Y2535559D1*
X1486861Y2530152D1*
X1484280Y2525088D1*
X1480939Y2520488D1*
X1476919Y2516469D1*
X1472319Y2513128D1*
X1467255Y2510546D1*
X1461848Y2508790D1*
X1456234Y2507901D1*
X1450549D1*
X1444935Y2508790D1*
X1439528Y2510546D1*
X1434464Y2513128D1*
X1429864Y2516469D1*
X1425844Y2520488D1*
X1422503Y2525088D1*
X1419922Y2530152D1*
X1418166Y2535559D1*
X1417276Y2541173D1*
Y2546859D1*
X1418166Y2552473D1*
X1419922Y2557880D1*
X1422503Y2562944D1*
X1424998Y2566470D1*
X1424991Y2613372D1*
X1339877Y2613373D1*
Y2766713D1*
X1314603Y2791998D1*
X1233208Y2791999D1*
X1233197Y2613373D1*
X1024916D1*
Y2791986D1*
X954614Y2791999D1*
X918248Y2755631D1*
X918236Y2613373D1*
X721733D1*
X732763Y2602326D1*
X827877Y2602222D1*
X833034Y2601404D1*
X838000Y2599792D1*
X842652Y2597422D1*
X846877Y2594352D1*
X850568Y2590660D1*
X853638Y2586436D1*
X856008Y2581784D1*
X857621Y2576818D1*
X858439Y2571660D1*
X858541Y2560789D1*
X860251Y2556735D1*
X861181Y2552860D1*
X861494Y2548886D1*
X861415Y2499649D1*
X860792Y2495713D1*
X859561Y2491922D1*
X857751Y2488370D1*
X855408Y2485146D1*
X852589Y2482327D1*
X849365Y2479985D1*
X845814Y2478175D1*
X842023Y2476944D1*
X838087Y2476320D1*
X821093Y2476242D1*
X812446Y2476320D1*
X808511Y2476944D1*
X806541Y2477485D1*
X802666Y2476554D1*
X798684Y2476242D1*
X775045Y2476320D1*
X771109Y2476944D1*
X769139Y2477485D1*
X765264Y2476554D1*
X761282Y2476242D1*
X737643Y2476320D1*
X733708Y2476944D1*
X729916Y2478175D1*
X726365Y2479985D1*
X723141Y2482327D1*
X720318Y2485152D1*
X718982Y2485953D1*
X713546Y2486372D1*
X713540Y2431849D1*
X709613D1*
X709603Y2415017D1*
X714236Y2415172D1*
X714315Y2448509D1*
X714939Y2452445D1*
X716170Y2456236D1*
X717979Y2459788D1*
X720322Y2463012D1*
X723141Y2465831D1*
X726365Y2468173D1*
X729916Y2469983D1*
X733708Y2471214D1*
X737643Y2471838D1*
X754637Y2471916D1*
X763284Y2471838D1*
X767219Y2471214D1*
X771011Y2469983D1*
X774562Y2468173D1*
X777786Y2465831D1*
X780605Y2463012D1*
X782948Y2459788D1*
X784757Y2456236D1*
X785988Y2452445D1*
X786612Y2448509D1*
X786691Y2431516D1*
Y2401437D1*
X791131Y2402062D1*
X796817D1*
X802431Y2401172D1*
X807838Y2399416D1*
X812902Y2396835D1*
X816550Y2394243D1*
X820731Y2396292D1*
X826138Y2398047D1*
X831752Y2398937D1*
X837437D1*
X843051Y2398047D1*
X848458Y2396292D1*
X853523Y2393710D1*
X858122Y2390369D1*
X862142Y2386349D1*
X865483Y2381750D1*
X867864Y2377120D1*
X871508Y2376730D1*
X877036Y2375403D1*
X882288Y2373227D1*
X887135Y2370257D1*
X891458Y2366566D1*
X895150Y2362243D1*
X898120Y2357395D1*
X898376Y2356840D1*
X910311Y2356851D1*
X924114Y2370643D1*
X924120Y2421313D1*
X1018227D1*
Y2331142D1*
X964927D1*
X940530Y2306855D1*
X936924Y2304235D1*
X932945Y2302209D1*
X930932Y2299819D1*
Y2289878D1*
X934869Y2289865D1*
Y2285939D1*
X952280Y2285831D1*
X957131Y2285063D1*
X961803Y2283545D1*
X966180Y2281315D1*
X970154Y2278427D1*
X973628Y2274953D1*
X976516Y2270979D1*
X978746Y2266603D1*
X980264Y2261931D1*
X981032Y2257079D1*
Y2252166D1*
X980264Y2247314D1*
X979596Y2244612D1*
X979706Y2244362D1*
X1004647D1*
X1004643Y2291950D1*
X1383221D1*
Y2189969D1*
X1078855D1*
X1121788Y2146916D1*
X1124407Y2143310D1*
X1126431Y2139340D1*
X1127807Y2135101D1*
X1128504Y2130700D1*
X1128592Y2113471D1*
Y2094389D1*
X1149290Y2094290D1*
X1153692Y2093593D1*
X1157931Y2092217D1*
X1161901Y2090193D1*
X1165507Y2087574D1*
X1177751Y2075453D1*
X1187406Y2065675D1*
X1190025Y2062068D1*
X1192049Y2058099D1*
X1193425Y2053860D1*
X1194122Y2049449D1*
X1195067Y2048570D1*
X1214175D1*
Y1958399D1*
X1153491D1*
X1153495Y1877158D1*
X1059387D1*
Y1958389D1*
X1012881Y1958399D1*
X1012885Y1879848D1*
X1041007Y1879838D1*
Y1793529D1*
X1045137Y1795415D1*
X1049734Y1797112D1*
X1054449Y1798441D1*
X1059255Y1799397D1*
X1064120Y1799973D1*
X1069016Y1800166D1*
X1073912Y1799973D1*
X1078777Y1799397D1*
X1083583Y1798441D1*
X1088298Y1797112D1*
X1092895Y1795415D1*
X1097345Y1793364D1*
X1101620Y1790970D1*
X1105693Y1788248D1*
X1109541Y1785214D1*
X1113139Y1781889D1*
X1116465Y1778290D1*
X1119499Y1774443D1*
X1122679Y1769551D1*
X1124893Y1771889D1*
X1128491Y1775214D1*
X1132339Y1778248D1*
X1136412Y1780970D1*
X1140687Y1783364D1*
X1145137Y1785415D1*
X1149734Y1787112D1*
X1154449Y1788441D1*
X1159255Y1789397D1*
X1164120Y1789973D1*
X1169016Y1790166D1*
X1173912Y1789973D1*
X1178777Y1789397D1*
X1183583Y1788441D1*
X1188298Y1787112D1*
X1192895Y1785415D1*
X1197345Y1783364D1*
X1201620Y1780970D1*
X1205693Y1778248D1*
X1209541Y1775214D1*
X1213139Y1771889D1*
X1216465Y1768290D1*
X1219499Y1764443D1*
X1222221Y1760369D1*
X1225408Y1754374D1*
X1225558Y1761412D1*
X1226134Y1766277D1*
X1227089Y1771083D1*
X1228419Y1775798D1*
X1230116Y1780395D1*
X1232167Y1784845D1*
X1234561Y1789120D1*
X1237282Y1793193D1*
X1240317Y1797041D1*
X1243642Y1800639D1*
X1247240Y1803965D1*
X1251088Y1806999D1*
X1255162Y1809721D1*
X1259436Y1812114D1*
X1263886Y1814166D1*
X1268483Y1815862D1*
X1273198Y1817192D1*
X1278004Y1818147D1*
X1282869Y1818723D1*
X1287765Y1818916D1*
X1292662Y1818723D1*
X1297526Y1818147D1*
X1302332Y1817192D1*
X1307047Y1815862D1*
X1311645Y1814166D1*
X1316095Y1812114D1*
X1320369Y1809721D1*
X1324443Y1806999D1*
X1328290Y1803965D1*
X1331889Y1800639D1*
X1335214Y1797041D1*
X1338248Y1793193D1*
X1340970Y1789120D1*
X1343364Y1784845D1*
X1345415Y1780395D1*
X1347112Y1775798D1*
X1348441Y1771083D1*
X1349397Y1766277D1*
X1349973Y1761412D1*
X1350166Y1756516D1*
X1349973Y1751620D1*
X1349397Y1746755D1*
X1348441Y1741949D1*
X1347112Y1737234D1*
X1345415Y1732637D1*
X1343364Y1728187D1*
X1340970Y1723912D1*
X1338248Y1719839D1*
X1335214Y1715991D1*
X1331889Y1712393D1*
X1328290Y1709067D1*
X1324443Y1706033D1*
X1320369Y1703311D1*
X1316095Y1700918D1*
X1311645Y1698866D1*
X1307047Y1697170D1*
X1302332Y1695840D1*
X1297526Y1694885D1*
X1292662Y1694309D1*
X1287765Y1694116D1*
X1282869Y1694309D1*
X1278004Y1694885D1*
X1273198Y1695840D1*
X1268483Y1697170D1*
X1263886Y1698866D1*
X1259436Y1700918D1*
X1255162Y1703311D1*
X1251088Y1706033D1*
X1247240Y1709067D1*
X1243642Y1712393D1*
X1240317Y1715991D1*
X1237282Y1719839D1*
X1234561Y1723912D1*
X1231373Y1729907D1*
X1231223Y1722869D1*
X1230647Y1718004D1*
X1229692Y1713198D1*
X1228362Y1708483D1*
X1226666Y1703886D1*
X1224614Y1699436D1*
X1222221Y1695162D1*
X1219499Y1691088D1*
X1216465Y1687240D1*
X1213139Y1683642D1*
X1209541Y1680317D1*
X1205693Y1677282D1*
X1201620Y1674561D1*
X1197345Y1672167D1*
X1192895Y1670116D1*
X1188298Y1668419D1*
X1183583Y1667089D1*
X1178777Y1666134D1*
X1173912Y1665558D1*
X1169016Y1665365D1*
X1164120Y1665558D1*
X1159255Y1666134D1*
X1154449Y1667089D1*
X1149734Y1668419D1*
X1145137Y1670116D1*
X1140687Y1672167D1*
X1136412Y1674561D1*
X1132339Y1677282D1*
X1128491Y1680317D1*
X1124893Y1683642D1*
X1121567Y1687240D1*
X1118533Y1691088D1*
X1115353Y1695979D1*
X1113139Y1693642D1*
X1109541Y1690317D1*
X1105693Y1687282D1*
X1101620Y1684561D1*
X1097345Y1682167D1*
X1092895Y1680116D1*
X1088298Y1678419D1*
X1083583Y1677089D1*
X1078777Y1676134D1*
X1073912Y1675558D1*
X1069016Y1675365D1*
X1064120Y1675558D1*
X1059255Y1676134D1*
X1054449Y1677089D1*
X1049734Y1678419D1*
X1045137Y1680116D1*
X1040687Y1682167D1*
X1036412Y1684561D1*
X1032339Y1687282D1*
X1028491Y1690317D1*
X1024893Y1693642D1*
X1022723Y1695988D1*
X1019499Y1691088D1*
X1016465Y1687240D1*
X1013139Y1683642D1*
X1009541Y1680317D1*
X1005693Y1677282D1*
X1001620Y1674561D1*
X997345Y1672167D1*
X992895Y1670116D1*
X988298Y1668419D1*
X983583Y1667089D1*
X978777Y1666134D1*
X973912Y1665558D1*
X969016Y1665365D1*
X964120Y1665558D1*
X959255Y1666134D1*
X954449Y1667089D1*
X949734Y1668419D1*
X945137Y1670116D1*
X940687Y1672167D1*
X936412Y1674561D1*
X932339Y1677282D1*
X928491Y1680317D1*
X924893Y1683642D1*
X921567Y1687240D1*
X918533Y1691088D1*
X915353Y1695979D1*
X913139Y1693642D1*
X909541Y1690317D1*
X905693Y1687282D1*
X901620Y1684561D1*
X897345Y1682167D1*
X892895Y1680116D1*
X888298Y1678419D1*
X883583Y1677089D1*
X878777Y1676134D1*
X873912Y1675558D1*
X869016Y1675365D1*
X864120Y1675558D1*
X859255Y1676134D1*
X854449Y1677089D1*
X849734Y1678419D1*
X845137Y1680116D1*
X840687Y1682167D1*
X836412Y1684561D1*
X832339Y1687282D1*
X828491Y1690317D1*
X824893Y1693642D1*
X822723Y1695988D1*
X819499Y1691088D1*
X816465Y1687240D1*
X813139Y1683642D1*
X809541Y1680317D1*
X805693Y1677282D1*
X801620Y1674561D1*
X797345Y1672167D1*
X792895Y1670116D1*
X788298Y1668419D1*
X783583Y1667089D1*
X778777Y1666134D1*
X773912Y1665558D1*
X769016Y1665365D1*
X764120Y1665558D1*
X759255Y1666134D1*
X754449Y1667089D1*
X749734Y1668419D1*
X745137Y1670116D1*
X740687Y1672167D1*
X736412Y1674561D1*
X732339Y1677282D1*
X728491Y1680317D1*
X724893Y1683642D1*
X721567Y1687240D1*
X718533Y1691088D1*
X715353Y1695979D1*
X713139Y1693642D1*
X709541Y1690317D1*
X705693Y1687282D1*
X701620Y1684561D1*
X697345Y1682167D1*
X692895Y1680116D1*
X688298Y1678419D1*
X683583Y1677089D1*
X678777Y1676134D1*
X673912Y1675558D1*
X669016Y1675365D1*
X664120Y1675558D1*
X659255Y1676134D1*
X654449Y1677089D1*
X649734Y1678419D1*
X645137Y1680116D1*
X640687Y1682167D1*
X636412Y1684561D1*
X632339Y1687282D1*
X628491Y1690317D1*
X624893Y1693642D1*
X622723Y1695988D1*
X619499Y1691088D1*
X616465Y1687240D1*
X613139Y1683642D1*
X609541Y1680317D1*
X605693Y1677282D1*
X601620Y1674561D1*
X597345Y1672167D1*
X592895Y1670116D1*
X588298Y1668419D1*
X583583Y1667089D1*
X578777Y1666134D1*
X573912Y1665558D1*
X569016Y1665365D1*
X564120Y1665558D1*
X559255Y1666134D1*
X554449Y1667089D1*
X549734Y1668419D1*
X545137Y1670116D1*
X540687Y1672167D1*
X536412Y1674561D1*
X532339Y1677282D1*
X528491Y1680317D1*
X524893Y1683642D1*
X521567Y1687240D1*
X518533Y1691088D1*
X515811Y1695162D1*
X513418Y1699436D1*
X511366Y1703886D1*
X509670Y1708483D1*
X508340Y1713198D1*
X507385Y1718004D1*
X506809Y1722869D1*
X506616Y1727765D1*
X506809Y1732662D1*
X507385Y1737526D1*
X508340Y1742332D1*
X509670Y1747047D1*
X511366Y1751645D1*
X513418Y1756095D1*
X515811Y1760369D1*
X518533Y1764443D1*
X521567Y1768290D1*
X524893Y1771889D1*
X528491Y1775214D1*
X532339Y1778248D1*
X534360Y1779599D1*
X534348Y1789660D1*
X437578Y1789667D1*
Y1879838D1*
X598614D1*
Y1789667D1*
X591134D1*
X592895Y1785415D1*
X597345Y1783364D1*
X601620Y1780970D1*
X605693Y1778248D1*
X609541Y1775214D1*
X613139Y1771889D1*
X615309Y1769542D1*
X618533Y1774443D1*
X621567Y1778290D1*
X624893Y1781889D1*
X628491Y1785214D1*
X632339Y1788248D1*
X634454Y1789662D1*
X631838Y1789667D1*
Y1879838D1*
X634436D1*
X634432Y1958389D1*
X631307Y1958399D1*
Y2048570D1*
X777797D1*
X776008Y2051139D1*
X773985Y2055109D1*
X772608Y2059348D1*
X771911Y2063750D1*
X771823Y2075490D1*
X770760Y2079007D1*
X769992Y2083859D1*
X769895Y2096315D1*
X769869Y2101269D1*
X746273D1*
Y2144570D1*
X731319Y2144576D1*
X726422Y2144962D1*
X721645Y2146109D1*
X718267Y2147454D1*
X711352Y2147424D1*
X710462Y2141810D1*
X708706Y2136403D1*
X706125Y2131339D1*
X702784Y2126739D1*
X698764Y2122719D1*
X694164Y2119378D1*
X689100Y2116797D1*
X683693Y2115041D1*
X678079Y2114151D1*
X672394D1*
X666780Y2115041D1*
X661373Y2116797D1*
X656309Y2119378D1*
X652799Y2121860D1*
X606506Y2121866D1*
X606525Y2065811D1*
X598654D1*
X598651Y1967386D1*
X492733D1*
Y1983813D1*
X487679Y1980226D1*
X484456Y1978420D1*
X481100Y1976873D1*
X477634Y1975595D1*
X474078Y1974592D1*
X470454Y1973872D1*
X466785Y1973437D1*
X458093Y1973292D1*
X435534D1*
X431843Y1973437D1*
X428173Y1973872D1*
X424008Y1974744D1*
X424016Y570324D1*
X430799Y576038D1*
X439003Y581751D1*
X447718Y586647D1*
X456865Y590679D1*
X466357Y593810D1*
X476108Y596012D1*
X486025Y597264D1*
X496017Y597553D1*
X505991Y596878D1*
X515853Y595244D1*
X525511Y592667D1*
X534876Y589171D1*
X543860Y584788D1*
X550264Y580928D1*
X550267Y675265D1*
X702943D1*
X702957Y692456D1*
X702578Y692454D1*
Y765599D1*
X619016Y765616D1*
X614574Y765966D1*
X610240Y767006D1*
X606122Y768712D1*
X602323Y771040D1*
X598928Y773940D1*
X549979Y823012D1*
X547360Y826618D1*
X545336Y830588D1*
X543960Y834827D1*
X543263Y839229D1*
X543175Y856457D1*
Y929250D1*
X510742Y929246D1*
Y958366D1*
X507422Y958990D1*
X502015Y960746D1*
X496950Y963327D1*
X492351Y966668D1*
X488331Y970688D1*
X484990Y975288D1*
X482408Y980352D1*
X480652Y985759D1*
X479763Y991373D1*
Y997058D1*
X480652Y1002672D1*
X482408Y1008079D1*
X484990Y1013143D1*
X488331Y1017743D1*
X492351Y1021763D1*
X496950Y1025104D1*
X502015Y1027685D1*
X507422Y1029441D1*
X510752Y1030061D1*
X510742Y1058786D1*
X659967D1*
X770204Y1058767D1*
X846820Y1058786D1*
X846815Y1074839D1*
X844327Y1078402D1*
X841746Y1083466D1*
X839990Y1088873D1*
X839100Y1094487D1*
Y1100172D1*
X839990Y1105786D1*
X841746Y1111193D1*
X844327Y1116257D1*
X847668Y1120857D1*
X851688Y1124877D1*
X856288Y1128218D1*
X861352Y1130799D1*
X866759Y1132555D1*
X872373Y1133445D1*
X878058D1*
X883672Y1132555D1*
X889079Y1130799D1*
X894143Y1128218D1*
X898743Y1124877D1*
X902763Y1120857D1*
X905826Y1116673D1*
X910166Y1120389D1*
X915013Y1123359D1*
X920265Y1125534D1*
X925793Y1126861D1*
X931460Y1127307D1*
X937126Y1126861D1*
X942654Y1125534D1*
X947906Y1123359D1*
X952754Y1120389D1*
X957076Y1116697D1*
X960768Y1112374D1*
X963738Y1107526D1*
X965914Y1102275D1*
X967240Y1096747D1*
X967687Y1091080D1*
X967240Y1085414D1*
X965914Y1079886D1*
X963738Y1074634D1*
X960768Y1069786D1*
X959866Y1068643D1*
X959860Y1058796D1*
X984108Y1058786D1*
X984120Y1065285D1*
X981631Y1068847D1*
X979050Y1073911D1*
X977294Y1079318D1*
X976404Y1084932D1*
Y1090617D1*
X977294Y1096231D1*
X979050Y1101638D1*
X981631Y1106702D1*
X984973Y1111302D1*
X988992Y1115322D1*
X993592Y1118663D1*
X998656Y1121244D1*
X1004063Y1123000D1*
X1009677Y1123890D1*
X1015362D1*
X1020977Y1123000D1*
X1026383Y1121244D1*
X1031448Y1118663D1*
X1036047Y1115322D1*
X1040067Y1111302D1*
X1043408Y1106702D1*
X1045990Y1101638D1*
X1047746Y1096231D1*
X1047922Y1095349D1*
X1052017Y1094288D1*
X1057269Y1092112D1*
X1062117Y1089142D1*
X1066440Y1085450D1*
X1070131Y1081128D1*
X1073101Y1076280D1*
X1075277Y1071028D1*
X1076604Y1065500D1*
X1077050Y1059834D1*
X1077008Y1058778D1*
X1156030Y1058767D1*
X1211149D1*
X1266267D1*
X1321385D1*
X1376503Y1058786D1*
Y929246D1*
X1316523D1*
X1316511Y880091D1*
X1320420Y881613D1*
X1325948Y882940D1*
X1331614Y883386D1*
X1337281Y882940D1*
X1342809Y881613D1*
X1348061Y879437D1*
X1352908Y876467D1*
X1357231Y872776D1*
X1360923Y868453D1*
X1363893Y863605D1*
X1366068Y858353D1*
X1367395Y852826D1*
X1367841Y847159D1*
X1367395Y841492D1*
X1366068Y835965D1*
X1364893Y832882D1*
X1364889Y791084D1*
X1445351Y791070D1*
Y787066D1*
X1500063Y787065D1*
X1502817Y790541D1*
X1506142Y794139D1*
X1509740Y797465D1*
X1513588Y800499D1*
X1517662Y803221D1*
X1521936Y805614D1*
X1526386Y807666D1*
X1530983Y809362D1*
X1535698Y810692D1*
X1540504Y811647D1*
X1545369Y812223D1*
X1550265Y812416D1*
X1555162Y812223D1*
X1560026Y811647D1*
X1565219Y810583D1*
X1565221Y864101D1*
X1567389D1*
X1567398Y920349D1*
X1642394D1*
X1642029Y925473D1*
X1642475Y931139D1*
X1643802Y936667D1*
X1645978Y941919D1*
X1648948Y946767D1*
X1652639Y951089D1*
X1656962Y954781D1*
X1661810Y957751D1*
X1667062Y959927D1*
X1672589Y961254D1*
X1678256Y961700D1*
X1683923Y961254D1*
X1689450Y959927D1*
X1694702Y957751D1*
X1699550Y954781D1*
X1703873Y951089D1*
X1707565Y946767D1*
X1710534Y941919D1*
X1712710Y936667D1*
X1714037Y931139D1*
X1714483Y925473D1*
X1714101Y920347D1*
X1728435Y920349D1*
Y830179D1*
X1659338D1*
X1659328Y773931D1*
X1607915Y773895D1*
X1609612Y769298D1*
X1610941Y764583D1*
X1611897Y759777D1*
X1612473Y754912D1*
X1612666Y750016D1*
X1612473Y745120D1*
X1611897Y740255D1*
X1610941Y735449D1*
X1609612Y730734D1*
X1607915Y726137D1*
X1605864Y721687D1*
X1603470Y717412D1*
X1600748Y713339D1*
X1597714Y709491D1*
X1594389Y705893D1*
X1590790Y702567D1*
X1586943Y699533D1*
X1582869Y696811D1*
X1578595Y694418D1*
X1574145Y692366D1*
X1569547Y690670D1*
X1564832Y689340D1*
X1560026Y688385D1*
X1555162Y687809D1*
X1550265Y687616D1*
X1545369Y687809D1*
X1540504Y688385D1*
X1535698Y689340D1*
X1530983Y690670D1*
X1525117Y692950D1*
X1510164Y677992D1*
X1510175Y626028D1*
X1493475D1*
X1493490Y609820D1*
X1510175Y609835D1*
Y557861D1*
X1519656Y548378D1*
X1526386Y551666D1*
X1530983Y553362D1*
X1535698Y554692D1*
X1540504Y555647D1*
X1545369Y556223D1*
X1550265Y556416D1*
X1555162Y556223D1*
X1560026Y555647D1*
X1564832Y554692D1*
X1569547Y553362D1*
X1574145Y551666D1*
X1578595Y549614D1*
X1582869Y547221D1*
X1586943Y544499D1*
X1590790Y541465D1*
X1594389Y538139D1*
X1597714Y534541D1*
X1600748Y530693D1*
X1603470Y526620D1*
X1605864Y522345D1*
X1607915Y517895D1*
X1609612Y513298D1*
X1610941Y508583D1*
X1611897Y503777D1*
X1612473Y498912D1*
X1612666Y494016D1*
X1612473Y489120D1*
X1611897Y484255D1*
X1610941Y479449D1*
X1609612Y474734D1*
X1607915Y470137D1*
X1605864Y465687D1*
X1603470Y461412D1*
X1600748Y457339D1*
X1597714Y453491D1*
X1594389Y449893D1*
X1590790Y446567D1*
X1586943Y443533D1*
X1582869Y440811D1*
X1578595Y438418D1*
X1574145Y436366D1*
X1569547Y434670D1*
X1564832Y433340D1*
X1560026Y432385D1*
X1555162Y431809D1*
X1550265Y431616D1*
X1545369Y431809D1*
X1540504Y432385D1*
X1535698Y433340D1*
X1530983Y434670D1*
X1526386Y436366D1*
X1521936Y438418D1*
X1517662Y440811D1*
X1513588Y443533D1*
X1509740Y446567D1*
X1507336Y448788D1*
X1420004Y448798D1*
Y609835D1*
X1436704D1*
X1436689Y626042D1*
X1420004Y626028D1*
Y630032D1*
X1355180Y630033D1*
Y692436D1*
X1311735Y692454D1*
X1311739Y636198D1*
X1217631D1*
Y636414D1*
X1155882Y636431D1*
X1155797Y692474D1*
X1121393Y692454D1*
X1121408Y636431D1*
X1031040D1*
X1031029Y609903D1*
X1094958Y609895D1*
Y424021D1*
X1116457Y424016D1*
X1113051Y427395D1*
X1110432Y431000D1*
X1108410Y434970D1*
X1107033Y439206D1*
X1106336Y443608D1*
X1106248Y460835D1*
X1106336Y577815D1*
X1107033Y582215D1*
X1108410Y586453D1*
X1110432Y590422D1*
X1113051Y594026D1*
X1125171Y606271D1*
X1134630Y615605D1*
X1138235Y618225D1*
X1142205Y620247D1*
X1146441Y621624D1*
X1150843Y622320D1*
X1168070Y622408D1*
X1190238D1*
X1190219Y629259D1*
X1311886D1*
Y595802D1*
X1345351Y595794D1*
Y513498D1*
X1331582D1*
X1331571Y460348D1*
X1312840D1*
X1311322Y455693D1*
X1308952Y451041D1*
X1305882Y446817D1*
X1297037Y437827D1*
X1291638Y432427D1*
X1290267Y429389D1*
X1287297Y424541D1*
X1286877Y424009D1*
X2917708Y424016D1*
X2913439Y428967D1*
X2907542Y437040D1*
X2902452Y445642D1*
X2898215Y454696D1*
X2894870Y464116D1*
X2892449Y473814D1*
X2890974Y483701D1*
X2890460Y493684D1*
X2890911Y503670D1*
X2892322Y513566D1*
X2894680Y523280D1*
X2897965Y532721D1*
X2902143Y541801D1*
X2907179Y550437D1*
X2913024Y558546D1*
X2919622Y566054D1*
X2926915Y572891D1*
X2934832Y578994D1*
X2943301Y584305D1*
X2952243Y588773D1*
X2961574Y592360D1*
X2971206Y595029D1*
X2981051Y596757D1*
X2991019Y597529D1*
X3001012Y597336D1*
X3010941Y596180D1*
X3020713Y594072D1*
X3030235Y591032D1*
X3039420Y587088D1*
X3048183Y582276D1*
X3056440Y576643D1*
X3064013Y570330D1*
X3064016Y2717708D1*
X3056969Y2711792D1*
X3048748Y2706105D1*
X3040016Y2701238D1*
X3030857Y2697234D1*
X3021355Y2694133D1*
X3011596Y2691962D1*
X3001675Y2690743D1*
X2991683Y2690486D1*
X2981712Y2691193D1*
X2971855Y2692859D1*
X2962205Y2695466D1*
X2952852Y2698992D1*
X2943881Y2703404D1*
X2935378Y2708660D1*
X2927423Y2714712D1*
X2920087Y2721502D1*
X2914538Y2727672D1*
X2914529Y2720331D1*
X2967545Y2667303D1*
X2970936Y2663332D1*
X2973663Y2658881D1*
X2975662Y2654057D1*
X2976881Y2648979D1*
X2977290Y2643764D1*
Y2631450D1*
X2979689Y2629533D1*
X2982856Y2626605D1*
X2985784Y2623439D1*
X2988453Y2620051D1*
X2990849Y2616465D1*
X2992957Y2612702D1*
X2994763Y2608785D1*
X2996255Y2604739D1*
X2997425Y2600588D1*
X2998267Y2596359D1*
X2998775Y2592075D1*
X2998944Y2587765D1*
X2998775Y2583456D1*
X2998267Y2579172D1*
X2997425Y2574943D1*
X2996255Y2570792D1*
X2994763Y2566746D1*
X2992957Y2562828D1*
X2990849Y2559066D1*
X2988453Y2555479D1*
X2985784Y2552092D1*
X2982856Y2548925D1*
X2979689Y2545998D1*
X2976302Y2543328D1*
X2972715Y2540932D1*
X2968953Y2538824D1*
X2965036Y2537019D1*
X2960990Y2535526D1*
X2956839Y2534356D1*
X2952609Y2533515D1*
X2948326Y2533007D1*
X2944016Y2532838D1*
X2939706Y2533007D1*
X2935423Y2533515D1*
X2931193Y2534356D1*
X2927042Y2535526D1*
X2922996Y2537019D1*
X2919079Y2538824D1*
X2915317Y2540932D1*
X2911730Y2543328D1*
X2908343Y2545998D1*
X2905176Y2548925D1*
X2902248Y2552092D1*
X2899579Y2555479D1*
X2897183Y2559066D1*
X2894038Y2565078D1*
X2890849Y2559066D1*
X2888453Y2555479D1*
X2885784Y2552092D1*
X2882856Y2548925D1*
X2879689Y2545998D1*
X2876302Y2543328D1*
X2872715Y2540932D1*
X2866704Y2537788D1*
X2872715Y2534599D1*
X2876302Y2532202D1*
X2879689Y2529533D1*
X2882856Y2526605D1*
X2885784Y2523439D1*
X2888453Y2520051D1*
X2890849Y2516465D1*
X2892957Y2512702D1*
X2894763Y2508785D1*
X2896255Y2504739D1*
X2897425Y2500588D1*
X2898267Y2496359D1*
X2898775Y2492075D1*
X2898944Y2487765D1*
X2898775Y2483456D1*
X2898267Y2479172D1*
X2897425Y2474943D1*
X2896255Y2470792D1*
X2894763Y2466746D1*
X2892957Y2462828D1*
X2890849Y2459066D1*
X2888453Y2455479D1*
X2885784Y2452092D1*
X2882856Y2448925D1*
X2879689Y2445998D1*
X2876302Y2443328D1*
X2872715Y2440932D1*
X2866704Y2437788D1*
X2872715Y2434599D1*
X2876302Y2432202D1*
X2879689Y2429533D1*
X2882856Y2426605D1*
X2885784Y2423439D1*
X2888453Y2420051D1*
X2890849Y2416465D1*
X2893994Y2410453D1*
X2897183Y2416465D1*
X2899579Y2420051D1*
X2902248Y2423439D1*
X2905176Y2426605D1*
X2908343Y2429533D1*
X2911730Y2432202D1*
X2915317Y2434599D1*
X2919079Y2436706D1*
X2922996Y2438512D1*
X2927042Y2440004D1*
X2931193Y2441175D1*
X2935423Y2442016D1*
X2939706Y2442524D1*
X2944016Y2442693D1*
X2948326Y2442524D1*
X2952609Y2442016D1*
X2956839Y2441175D1*
X2960990Y2440004D1*
X2965036Y2438512D1*
X2968953Y2436706D1*
X2972715Y2434599D1*
X2976302Y2432202D1*
X2979689Y2429533D1*
X2982856Y2426605D1*
X2985784Y2423439D1*
X2988453Y2420051D1*
X2990849Y2416465D1*
X2992957Y2412702D1*
X2994763Y2408785D1*
X2996255Y2404739D1*
X2997425Y2400588D1*
X2998267Y2396359D1*
X2998775Y2392075D1*
X2998944Y2387765D1*
X2998775Y2383456D1*
X2998267Y2379172D1*
X2997425Y2374943D1*
X2996255Y2370792D1*
X2994763Y2366746D1*
X2992957Y2362828D1*
X2990849Y2359066D1*
X2988453Y2355479D1*
X2985784Y2352092D1*
X2982856Y2348925D1*
X2979689Y2345998D1*
X2976302Y2343328D1*
X2972715Y2340932D1*
X2966704Y2337788D1*
X2972715Y2334599D1*
X2976302Y2332202D1*
X2979689Y2329533D1*
X2982856Y2326605D1*
X2985784Y2323439D1*
X2988453Y2320051D1*
X2990849Y2316465D1*
X2992957Y2312702D1*
X2994763Y2308785D1*
X2996255Y2304739D1*
X2997425Y2300588D1*
X2998267Y2296359D1*
X2998775Y2292075D1*
X2998944Y2287765D1*
X2998775Y2283456D1*
X2998267Y2279172D1*
X2997425Y2274943D1*
X2996255Y2270792D1*
X2994763Y2266746D1*
X2992957Y2262828D1*
X2990849Y2259066D1*
X2988453Y2255479D1*
X2985784Y2252092D1*
X2982856Y2248925D1*
X2979689Y2245998D1*
X2976302Y2243328D1*
X2972715Y2240932D1*
X2966704Y2237788D1*
X2972715Y2234599D1*
X2976302Y2232202D1*
X2979689Y2229533D1*
X2982856Y2226605D1*
X2985784Y2223439D1*
X2988453Y2220051D1*
X2990849Y2216465D1*
X2992957Y2212702D1*
X2994763Y2208785D1*
X2996255Y2204739D1*
X2997425Y2200588D1*
X2998267Y2196359D1*
X2998775Y2192075D1*
X2998944Y2187765D1*
X2998775Y2183456D1*
X2998267Y2179172D1*
X2997425Y2174943D1*
X2996255Y2170792D1*
X2994763Y2166746D1*
X2992957Y2162828D1*
X2990849Y2159066D1*
X2988453Y2155479D1*
X2985784Y2152092D1*
X2982856Y2148925D1*
X2979689Y2145998D1*
X2976302Y2143328D1*
X2972715Y2140932D1*
X2966704Y2137788D1*
X2972715Y2134599D1*
X2976302Y2132202D1*
X2979689Y2129533D1*
X2982856Y2126605D1*
X2985784Y2123439D1*
X2988453Y2120051D1*
X2990849Y2116465D1*
X2992957Y2112702D1*
X2994763Y2108785D1*
X2996255Y2104739D1*
X2997425Y2100588D1*
X2998267Y2096359D1*
X2998775Y2092075D1*
X2998944Y2087765D1*
X2998775Y2083456D1*
X2998267Y2079172D1*
X2997425Y2074943D1*
X2996255Y2070792D1*
X2994763Y2066746D1*
X2992957Y2062828D1*
X2990849Y2059066D1*
X2988453Y2055479D1*
X2985784Y2052092D1*
X2982856Y2048925D1*
X2979689Y2045998D1*
X2976302Y2043328D1*
X2972715Y2040932D1*
X2966704Y2037788D1*
X2972715Y2034599D1*
X2976302Y2032202D1*
X2979689Y2029533D1*
X2982856Y2026605D1*
X2985784Y2023439D1*
X2988453Y2020051D1*
X2990849Y2016465D1*
X2992957Y2012702D1*
X2994763Y2008785D1*
X2996255Y2004739D1*
X2997425Y2000588D1*
X2998267Y1996359D1*
X2998775Y1992075D1*
X2998944Y1987765D1*
X2998775Y1983456D1*
X2998267Y1979172D1*
X2997425Y1974943D1*
X2996255Y1970792D1*
X2994763Y1966746D1*
X2992957Y1962828D1*
X2990849Y1959066D1*
X2988453Y1955479D1*
X2985784Y1952092D1*
X2982856Y1948925D1*
X2979689Y1945998D1*
X2976302Y1943328D1*
X2972715Y1940932D1*
X2966704Y1937788D1*
X2972715Y1934599D1*
X2976302Y1932202D1*
X2979689Y1929533D1*
X2982856Y1926605D1*
X2985784Y1923439D1*
X2988453Y1920051D1*
X2990849Y1916465D1*
X2992957Y1912702D1*
X2994763Y1908785D1*
X2996255Y1904739D1*
X2997425Y1900588D1*
X2998267Y1896359D1*
X2998775Y1892075D1*
X2998944Y1887765D1*
X2998775Y1883456D1*
X2998267Y1879172D1*
X2997425Y1874943D1*
X2996255Y1870792D1*
X2994763Y1866746D1*
X2992957Y1862828D1*
X2990849Y1859066D1*
X2988453Y1855479D1*
X2985784Y1852092D1*
X2982856Y1848925D1*
X2979689Y1845998D1*
X2976302Y1843328D1*
X2972715Y1840932D1*
X2966704Y1837788D1*
X2972715Y1834599D1*
X2976302Y1832202D1*
X2979689Y1829533D1*
X2982856Y1826605D1*
X2985784Y1823439D1*
X2988453Y1820051D1*
X2990849Y1816465D1*
X2992957Y1812702D1*
X2994763Y1808785D1*
X2996255Y1804739D1*
X2997425Y1800588D1*
X2998267Y1796359D1*
X2998775Y1792075D1*
X2998944Y1787765D1*
X2998775Y1783456D1*
X2998267Y1779172D1*
X2997425Y1774943D1*
X2996255Y1770792D1*
X2994763Y1766746D1*
X2992957Y1762828D1*
X2990849Y1759066D1*
X2988453Y1755479D1*
X2985784Y1752092D1*
X2982856Y1748925D1*
X2979689Y1745998D1*
X2976302Y1743328D1*
X2972715Y1740932D1*
X2966704Y1737788D1*
X2972715Y1734599D1*
X2976302Y1732202D1*
X2979689Y1729533D1*
X2982856Y1726605D1*
X2985784Y1723439D1*
X2988453Y1720051D1*
X2990849Y1716465D1*
X2992957Y1712702D1*
X2994763Y1708785D1*
X2996255Y1704739D1*
X2997425Y1700588D1*
X2998267Y1696359D1*
X2998775Y1692075D1*
X2998944Y1687765D1*
X2998775Y1683456D1*
X2998267Y1679172D1*
X2997425Y1674943D1*
X2996255Y1670792D1*
X2994763Y1666746D1*
X2992957Y1662828D1*
X2990849Y1659066D1*
X2988453Y1655479D1*
X2985784Y1652092D1*
X2982856Y1648925D1*
X2979689Y1645998D1*
X2976302Y1643328D1*
X2972715Y1640932D1*
X2966704Y1637788D1*
X2972715Y1634599D1*
X2976302Y1632202D1*
X2979689Y1629533D1*
X2982856Y1626605D1*
X2985784Y1623439D1*
X2988453Y1620051D1*
X2990849Y1616465D1*
X2992957Y1612702D1*
X2994763Y1608785D1*
X2996255Y1604739D1*
X2997425Y1600588D1*
X2998267Y1596359D1*
X2998775Y1592075D1*
X2998944Y1587765D1*
X2998775Y1583456D1*
X2998267Y1579172D1*
X2997425Y1574943D1*
X2996255Y1570792D1*
X2994763Y1566746D1*
X2992957Y1562828D1*
X2990849Y1559066D1*
X2988453Y1555479D1*
X2985784Y1552092D1*
X2982856Y1548925D1*
X2979689Y1545998D1*
X2976302Y1543328D1*
X2972715Y1540932D1*
X2966704Y1537788D1*
X2972715Y1534599D1*
X2976302Y1532202D1*
X2979689Y1529533D1*
X2982856Y1526605D1*
X2985784Y1523439D1*
X2988453Y1520051D1*
X2990849Y1516465D1*
X2992957Y1512702D1*
X2994763Y1508785D1*
X2996255Y1504739D1*
X2997425Y1500588D1*
X2998267Y1496359D1*
X2998775Y1492075D1*
X2998944Y1487765D1*
X2998775Y1483456D1*
X2998267Y1479172D1*
X2997425Y1474943D1*
X2996255Y1470792D1*
X2994763Y1466746D1*
X2992957Y1462828D1*
X2990849Y1459066D1*
X2988453Y1455479D1*
X2985784Y1452092D1*
X2982856Y1448925D1*
X2979689Y1445998D1*
X2976302Y1443328D1*
X2972715Y1440932D1*
X2966704Y1437788D1*
X2972715Y1434599D1*
X2976302Y1432202D1*
X2979689Y1429533D1*
X2982856Y1426605D1*
X2985784Y1423439D1*
X2988453Y1420051D1*
X2990849Y1416465D1*
X2992957Y1412702D1*
X2994763Y1408785D1*
X2996255Y1404739D1*
X2997425Y1400588D1*
X2998267Y1396359D1*
X2998775Y1392075D1*
X2998944Y1387765D1*
X2998775Y1383456D1*
X2998267Y1379172D1*
X2997425Y1374943D1*
X2996255Y1370792D1*
X2994763Y1366746D1*
X2992957Y1362828D1*
X2990849Y1359066D1*
X2988453Y1355479D1*
X2985784Y1352092D1*
X2982856Y1348925D1*
X2979689Y1345998D1*
X2976302Y1343328D1*
X2972715Y1340932D1*
X2966704Y1337788D1*
X2972715Y1334599D1*
X2976302Y1332202D1*
X2979689Y1329533D1*
X2982856Y1326605D1*
X2985784Y1323439D1*
X2988453Y1320051D1*
X2990849Y1316465D1*
X2992957Y1312702D1*
X2994763Y1308785D1*
X2996255Y1304739D1*
X2997425Y1300588D1*
X2998267Y1296359D1*
X2998775Y1292075D1*
X2998944Y1287765D1*
X2998775Y1283456D1*
X2998267Y1279172D1*
X2997425Y1274943D1*
X2996255Y1270792D1*
X2994763Y1266746D1*
X2992957Y1262828D1*
X2990849Y1259066D1*
X2988453Y1255479D1*
X2985784Y1252092D1*
X2982856Y1248925D1*
X2979689Y1245998D1*
X2976302Y1243328D1*
X2972715Y1240932D1*
X2966704Y1237788D1*
X2972715Y1234599D1*
X2976302Y1232202D1*
X2979689Y1229533D1*
X2982856Y1226605D1*
X2985784Y1223439D1*
X2988453Y1220051D1*
X2990849Y1216465D1*
X2992957Y1212702D1*
X2994763Y1208785D1*
X2996255Y1204739D1*
X2997425Y1200588D1*
X2998267Y1196359D1*
X2998775Y1192075D1*
X2998944Y1187765D1*
X2998775Y1183456D1*
X2998267Y1179172D1*
X2997425Y1174943D1*
X2996255Y1170792D1*
X2994763Y1166746D1*
X2992957Y1162828D1*
X2990849Y1159066D1*
X2988453Y1155479D1*
X2985784Y1152092D1*
X2982856Y1148925D1*
X2979689Y1145998D1*
X2976302Y1143328D1*
X2972715Y1140932D1*
X2966704Y1137788D1*
X2972715Y1134599D1*
X2976302Y1132202D1*
X2979689Y1129533D1*
X2982856Y1126605D1*
X2985784Y1123439D1*
X2988453Y1120051D1*
X2990849Y1116465D1*
X2992957Y1112702D1*
X2994763Y1108785D1*
X2996255Y1104739D1*
X2997425Y1100588D1*
X2998267Y1096359D1*
X2998775Y1092075D1*
X2998944Y1087765D1*
X2998775Y1083456D1*
X2998267Y1079172D1*
X2997425Y1074943D1*
X2996255Y1070792D1*
X2994763Y1066746D1*
X2992957Y1062828D1*
X2990849Y1059066D1*
X2988453Y1055479D1*
X2985784Y1052092D1*
X2982856Y1048925D1*
X2979689Y1045998D1*
X2976302Y1043328D1*
X2972715Y1040932D1*
X2966704Y1037788D1*
X2972715Y1034599D1*
X2976302Y1032202D1*
X2979689Y1029533D1*
X2982856Y1026605D1*
X2985784Y1023439D1*
X2988453Y1020051D1*
X2990849Y1016465D1*
X2992957Y1012702D1*
X2994763Y1008785D1*
X2996255Y1004739D1*
X2997425Y1000588D1*
X2998267Y996359D1*
X2998775Y992075D1*
X2998944Y987765D1*
X2998775Y983456D1*
X2998267Y979172D1*
X2997425Y974943D1*
X2996255Y970792D1*
X2994763Y966746D1*
X2992957Y962828D1*
X2990849Y959066D1*
X2988453Y955479D1*
X2985784Y952092D1*
X2982856Y948925D1*
X2979689Y945998D1*
X2976302Y943328D1*
X2972715Y940932D1*
X2966704Y937788D1*
X2972715Y934599D1*
X2976302Y932202D1*
X2979689Y929533D1*
X2982856Y926605D1*
X2985784Y923439D1*
X2988453Y920051D1*
X2990849Y916465D1*
X2992957Y912702D1*
X2994763Y908785D1*
X2996255Y904739D1*
X2997425Y900588D1*
X2998267Y896359D1*
X2998775Y892075D1*
X2998944Y887765D1*
X2998775Y883456D1*
X2998267Y879172D1*
X2997425Y874943D1*
X2996255Y870792D1*
X2994763Y866746D1*
X2992957Y862828D1*
X2990849Y859066D1*
X2988453Y855479D1*
X2985784Y852092D1*
X2982856Y848925D1*
X2979689Y845998D1*
X2976302Y843328D1*
X2972715Y840932D1*
X2966704Y837788D1*
X2972715Y834599D1*
X2976302Y832202D1*
X2979689Y829533D1*
X2982856Y826605D1*
X2985784Y823439D1*
X2988453Y820051D1*
X2990849Y816465D1*
X2992957Y812702D1*
X2994763Y808785D1*
X2996255Y804739D1*
X2997425Y800588D1*
X2998267Y796359D1*
X2998775Y792075D1*
X2998944Y787765D1*
X2998775Y783456D1*
X2998267Y779172D1*
X2997425Y774943D1*
X2996255Y770792D1*
X2994763Y766746D1*
X2992957Y762828D1*
X2990849Y759066D1*
X2988453Y755479D1*
X2985784Y752092D1*
X2982856Y748925D1*
X2979689Y745998D1*
X2975362Y742701D1*
X2998944Y742693D1*
Y632838D1*
X2789088D1*
Y742693D1*
X2812624D1*
X2808343Y745998D1*
X2805176Y748925D1*
X2802248Y752092D1*
X2799579Y755479D1*
X2797183Y759066D1*
X2795075Y762828D1*
X2793269Y766746D1*
X2791777Y770792D1*
X2790607Y774943D1*
X2789765Y779172D1*
X2789257Y783456D1*
X2789088Y787765D1*
X2789257Y792075D1*
X2789765Y796359D1*
X2790607Y800588D1*
X2791777Y804739D1*
X2793269Y808785D1*
X2795075Y812702D1*
X2797183Y816465D1*
X2799579Y820051D1*
X2802248Y823439D1*
X2805176Y826605D1*
X2808343Y829533D1*
X2811730Y832202D1*
X2815317Y834599D1*
X2821328Y837743D1*
X2815317Y840932D1*
X2811730Y843328D1*
X2808343Y845998D1*
X2805176Y848925D1*
X2802248Y852092D1*
X2799579Y855479D1*
X2797183Y859066D1*
X2795075Y862828D1*
X2793269Y866746D1*
X2791777Y870792D1*
X2790607Y874943D1*
X2789765Y879172D1*
X2789257Y883456D1*
X2789088Y887765D1*
X2789257Y892075D1*
X2789765Y896359D1*
X2790607Y900588D1*
X2791777Y904739D1*
X2793269Y908785D1*
X2795075Y912702D1*
X2797183Y916465D1*
X2799579Y920051D1*
X2802248Y923439D1*
X2805176Y926605D1*
X2808343Y929533D1*
X2811730Y932202D1*
X2815317Y934599D1*
X2821328Y937743D1*
X2815317Y940932D1*
X2811730Y943328D1*
X2808343Y945998D1*
X2805176Y948925D1*
X2802248Y952092D1*
X2799579Y955479D1*
X2797183Y959066D1*
X2795075Y962828D1*
X2793269Y966746D1*
X2791777Y970792D1*
X2790607Y974943D1*
X2789765Y979172D1*
X2789257Y983456D1*
X2789088Y987765D1*
X2789257Y992075D1*
X2789765Y996359D1*
X2790607Y1000588D1*
X2791777Y1004739D1*
X2793269Y1008785D1*
X2795075Y1012702D1*
X2797183Y1016465D1*
X2799579Y1020051D1*
X2802248Y1023439D1*
X2805176Y1026605D1*
X2808343Y1029533D1*
X2811730Y1032202D1*
X2815317Y1034599D1*
X2821328Y1037743D1*
X2815317Y1040932D1*
X2811730Y1043328D1*
X2808343Y1045998D1*
X2805176Y1048925D1*
X2802248Y1052092D1*
X2799579Y1055479D1*
X2797183Y1059066D1*
X2795075Y1062828D1*
X2793269Y1066746D1*
X2791777Y1070792D1*
X2790607Y1074943D1*
X2789765Y1079172D1*
X2789257Y1083456D1*
X2789088Y1087765D1*
X2789257Y1092075D1*
X2789765Y1096359D1*
X2790607Y1100588D1*
X2791777Y1104739D1*
X2793269Y1108785D1*
X2795075Y1112702D1*
X2797183Y1116465D1*
X2799579Y1120051D1*
X2802248Y1123439D1*
X2805176Y1126605D1*
X2808343Y1129533D1*
X2811730Y1132202D1*
X2815317Y1134599D1*
X2821328Y1137743D1*
X2815317Y1140932D1*
X2811730Y1143328D1*
X2808343Y1145998D1*
X2805176Y1148925D1*
X2802248Y1152092D1*
X2799579Y1155479D1*
X2797183Y1159066D1*
X2795075Y1162828D1*
X2793269Y1166746D1*
X2791777Y1170792D1*
X2790607Y1174943D1*
X2789765Y1179172D1*
X2789257Y1183456D1*
X2789088Y1187765D1*
X2789257Y1192075D1*
X2789765Y1196359D1*
X2790607Y1200588D1*
X2791777Y1204739D1*
X2793269Y1208785D1*
X2795075Y1212702D1*
X2797183Y1216465D1*
X2799579Y1220051D1*
X2802248Y1223439D1*
X2805176Y1226605D1*
X2808343Y1229533D1*
X2811730Y1232202D1*
X2815317Y1234599D1*
X2821328Y1237743D1*
X2815317Y1240932D1*
X2811730Y1243328D1*
X2808343Y1245998D1*
X2805176Y1248925D1*
X2802248Y1252092D1*
X2799579Y1255479D1*
X2797183Y1259066D1*
X2795075Y1262828D1*
X2793269Y1266746D1*
X2791777Y1270792D1*
X2790607Y1274943D1*
X2789765Y1279172D1*
X2789257Y1283456D1*
X2789088Y1287765D1*
X2789257Y1292075D1*
X2789765Y1296359D1*
X2790607Y1300588D1*
X2791777Y1304739D1*
X2793269Y1308785D1*
X2795075Y1312702D1*
X2796713Y1315628D1*
X2708097Y1315616D1*
X2708089Y1298880D1*
X2617919D1*
Y1376907D1*
X2612765Y1376538D1*
X2607330Y1376957D1*
X2585285Y1376885D1*
X2479445D1*
X2479436Y1373979D1*
X2484359Y1373881D1*
X2489973Y1372991D1*
X2495380Y1371235D1*
X2500444Y1368654D1*
X2505044Y1365313D1*
X2509063Y1361293D1*
X2512404Y1356693D1*
X2514986Y1351629D1*
X2515197Y1351055D1*
X2520380Y1349361D1*
X2525444Y1346780D1*
X2530044Y1343439D1*
X2534063Y1339419D1*
X2537404Y1334819D1*
X2539986Y1329755D1*
X2541742Y1324348D1*
X2542631Y1318734D1*
Y1313049D1*
X2541742Y1307435D1*
X2540542Y1303540D1*
X2543110Y1298504D1*
X2544866Y1293097D1*
X2545756Y1287483D1*
Y1281798D1*
X2544866Y1276184D1*
X2543110Y1270777D1*
X2540529Y1265713D1*
X2537188Y1261113D1*
X2534139Y1257991D1*
X2576600Y1257996D1*
Y1163889D1*
X2486429D1*
Y1184142D1*
X2482945Y1185638D1*
X2480992Y1186733D1*
X2479456Y1185055D1*
Y1157444D1*
X2469045D1*
X2469050Y1141460D1*
X2513883Y1141445D1*
Y1047338D1*
X2457652D1*
X2457639Y980222D1*
X2457385Y980175D1*
X2472977Y964583D1*
X2477255Y963823D1*
X2482662Y962067D1*
X2487726Y959486D1*
X2492326Y956145D1*
X2496345Y952125D1*
X2499687Y947525D1*
X2502268Y942461D1*
X2504024Y937054D1*
X2504407Y935125D1*
X2517897Y935037D1*
X2522298Y934340D1*
X2526537Y932964D1*
X2530507Y930940D1*
X2534113Y928320D1*
X2546357Y916200D1*
X2548773Y913784D1*
X2548784Y932849D1*
X2709820D1*
Y842679D1*
X2653082D1*
X2653078Y786431D1*
X2607198D1*
X2609721Y782620D1*
X2612114Y778345D1*
X2614166Y773895D1*
X2615862Y769298D1*
X2617192Y764583D1*
X2618147Y759777D1*
X2618723Y754912D1*
X2618916Y750016D1*
X2618723Y745120D1*
X2618147Y740255D1*
X2617192Y735449D1*
X2615862Y730734D1*
X2614166Y726137D1*
X2612114Y721687D1*
X2609721Y717412D1*
X2606999Y713339D1*
X2603965Y709491D1*
X2600639Y705893D1*
X2597041Y702567D1*
X2593193Y699533D1*
X2589120Y696811D1*
X2584845Y694418D1*
X2580395Y692366D1*
X2575798Y690670D1*
X2571083Y689340D1*
X2566277Y688385D1*
X2561412Y687809D1*
X2556516Y687616D1*
X2551620Y687809D1*
X2545835Y688567D1*
X2520568Y663289D1*
X2520570Y564112D1*
X2532897Y551784D1*
X2537234Y553362D1*
X2541949Y554692D1*
X2546755Y555647D1*
X2551620Y556223D1*
X2556516Y556416D1*
X2561412Y556223D1*
X2566277Y555647D1*
X2571083Y554692D1*
X2575798Y553362D1*
X2580395Y551666D1*
X2584845Y549614D1*
X2589120Y547221D1*
X2593193Y544499D1*
X2597041Y541465D1*
X2600639Y538139D1*
X2603965Y534541D1*
X2606999Y530693D1*
X2609721Y526620D1*
X2612114Y522345D1*
X2614166Y517895D1*
X2615862Y513298D1*
X2617192Y508583D1*
X2618147Y503777D1*
X2618723Y498912D1*
X2618916Y494016D1*
X2618723Y489120D1*
X2618147Y484255D1*
X2617192Y479449D1*
X2615862Y474734D1*
X2614166Y470137D1*
X2612114Y465687D1*
X2609721Y461412D1*
X2606999Y457339D1*
X2603965Y453491D1*
X2600639Y449893D1*
X2597041Y446567D1*
X2593193Y443533D1*
X2589120Y440811D1*
X2584845Y438418D1*
X2580395Y436366D1*
X2575798Y434670D1*
X2571083Y433340D1*
X2566277Y432385D1*
X2561412Y431809D1*
X2556516Y431616D1*
X2551620Y431809D1*
X2546755Y432385D1*
X2541949Y433340D1*
X2537234Y434670D1*
X2532637Y436366D1*
X2528187Y438418D1*
X2523912Y440811D1*
X2519839Y443533D1*
X2515991Y446567D1*
X2512393Y449893D1*
X2507847Y455038D1*
X2430399Y455049D1*
Y772352D1*
X2498231D1*
X2500918Y778345D1*
X2503311Y782620D1*
X2506033Y786693D1*
X2509067Y790541D1*
X2512393Y794139D1*
X2515991Y797465D1*
X2519839Y800499D1*
X2523912Y803221D1*
X2528187Y805614D1*
X2532637Y807666D1*
X2537234Y809362D1*
X2541949Y810692D1*
X2546755Y811647D1*
X2551620Y812223D1*
X2556516Y812416D1*
X2558983Y812319D1*
X2558970Y820708D1*
X2554985Y819151D1*
X2549457Y817824D1*
X2543790Y817378D1*
X2538124Y817824D1*
X2532596Y819151D1*
X2527344Y821327D1*
X2522496Y824297D1*
X2518173Y827988D1*
X2514482Y832311D1*
X2511512Y837159D1*
X2509336Y842411D1*
X2509201Y842891D1*
X2506012Y842487D1*
X2500327D1*
X2494713Y843377D1*
X2489306Y845133D1*
X2485376Y847079D1*
X2397827Y847166D1*
X2393425Y847862D1*
X2389187Y849239D1*
X2387154Y850177D1*
X2386857Y845349D1*
Y830179D1*
X2325978D1*
X2325994Y773931D1*
X2278748Y773895D1*
X2280445Y769298D1*
X2281775Y764583D1*
X2282730Y759777D1*
X2283306Y754912D1*
X2283499Y750016D1*
X2283306Y745120D1*
X2282730Y740255D1*
X2281775Y735449D1*
X2280445Y730734D1*
X2278748Y726137D1*
X2276697Y721687D1*
X2274303Y717412D1*
X2271582Y713339D1*
X2268547Y709491D1*
X2265222Y705893D1*
X2261624Y702567D1*
X2257776Y699533D1*
X2253702Y696811D1*
X2249428Y694418D1*
X2244978Y692366D1*
X2240381Y690670D1*
X2235666Y689340D1*
X2230860Y688385D1*
X2225995Y687809D1*
X2221099Y687616D1*
X2215689Y687869D1*
X2187084Y659261D1*
X2187074Y607276D1*
X2185257D1*
X2185246Y570049D1*
X2201902Y553377D1*
X2206532Y554692D1*
X2211338Y555647D1*
X2216202Y556223D1*
X2221099Y556416D1*
X2225995Y556223D1*
X2230860Y555647D1*
X2235666Y554692D1*
X2240381Y553362D1*
X2244978Y551666D1*
X2249428Y549614D1*
X2253702Y547221D1*
X2257776Y544499D1*
X2261624Y541465D1*
X2265222Y538139D1*
X2268547Y534541D1*
X2271582Y530693D1*
X2274303Y526620D1*
X2276697Y522345D1*
X2278748Y517895D1*
X2280445Y513298D1*
X2281775Y508583D1*
X2282730Y503777D1*
X2283306Y498912D1*
X2283499Y494016D1*
X2283306Y489120D1*
X2282730Y484255D1*
X2281775Y479449D1*
X2280445Y474734D1*
X2278748Y470137D1*
X2276697Y465687D1*
X2274303Y461412D1*
X2271582Y457339D1*
X2268547Y453491D1*
X2265222Y449893D1*
X2261624Y446567D1*
X2257776Y443533D1*
X2253702Y440811D1*
X2249428Y438418D1*
X2244978Y436366D1*
X2240381Y434670D1*
X2235666Y433340D1*
X2230860Y432385D1*
X2225995Y431809D1*
X2221099Y431616D1*
X2216202Y431809D1*
X2211338Y432385D1*
X2206532Y433340D1*
X2201817Y434670D1*
X2197219Y436366D1*
X2192769Y438418D1*
X2188495Y440811D1*
X2184422Y443533D1*
X2180574Y446567D1*
X2178170Y448788D1*
X2095075Y448798D1*
Y609835D1*
X2096891D1*
X2096903Y768313D1*
X2161454D1*
X2163449Y773895D1*
X2165500Y778345D1*
X2167894Y782620D1*
X2170616Y786693D1*
X2173650Y790541D1*
X2176975Y794139D1*
X2180574Y797465D1*
X2184422Y800499D1*
X2188495Y803221D1*
X2192769Y805614D1*
X2197219Y807666D1*
X2201817Y809362D1*
X2206532Y810692D1*
X2211338Y811647D1*
X2216202Y812223D1*
X2221099Y812416D1*
X2225995Y812223D1*
X2231893Y811443D1*
X2231886Y830162D1*
X2225820Y830179D1*
Y920349D1*
X2274395D1*
X2265137Y929735D1*
X2262517Y933341D1*
X2260494Y937311D1*
X2259117Y941550D1*
X2258420Y945952D1*
X2258332Y963180D1*
Y1055075D1*
X2230680Y1055082D1*
X2228074Y1052105D1*
X2208311Y1032341D1*
X2208323Y980378D1*
X2195843D1*
X2195752Y972857D1*
X2194935Y967700D1*
X2193322Y962734D1*
X2190952Y958082D1*
X2187882Y953857D1*
X2179037Y944868D1*
X2162318Y928293D1*
X2158093Y925223D1*
X2153441Y922853D1*
X2148475Y921240D1*
X2143318Y920423D1*
X2130708Y920320D1*
X2059828D1*
X2059819Y830180D1*
X1992675D1*
X1992662Y773931D1*
X1943332Y773895D1*
X1945029Y769298D1*
X1946359Y764583D1*
X1947314Y759777D1*
X1947890Y754912D1*
X1948083Y750016D1*
X1947890Y745120D1*
X1947314Y740255D1*
X1946359Y735449D1*
X1945029Y730734D1*
X1943332Y726137D1*
X1941281Y721687D1*
X1938887Y717412D1*
X1936166Y713339D1*
X1933131Y709491D1*
X1929806Y705893D1*
X1926208Y702567D1*
X1922360Y699533D1*
X1918286Y696811D1*
X1914012Y694418D1*
X1909562Y692366D1*
X1904965Y690670D1*
X1900250Y689340D1*
X1895444Y688385D1*
X1890579Y687809D1*
X1885683Y687616D1*
X1880786Y687809D1*
X1875922Y688385D1*
X1871116Y689340D1*
X1866401Y690670D1*
X1862000Y692293D1*
X1847700Y677992D1*
X1847710Y626028D1*
X1831011D1*
X1831025Y609820D1*
X1847710Y609835D1*
Y557862D1*
X1856446Y549124D1*
X1861803Y551666D1*
X1866401Y553362D1*
X1871116Y554692D1*
X1875922Y555647D1*
X1880786Y556223D1*
X1885683Y556416D1*
X1890579Y556223D1*
X1895444Y555647D1*
X1900250Y554692D1*
X1904965Y553362D1*
X1909562Y551666D1*
X1914012Y549614D1*
X1918286Y547221D1*
X1922360Y544499D1*
X1926208Y541465D1*
X1929806Y538139D1*
X1933131Y534541D1*
X1936166Y530693D1*
X1938887Y526620D1*
X1941281Y522345D1*
X1943332Y517895D1*
X1945029Y513298D1*
X1946359Y508583D1*
X1947314Y503777D1*
X1947890Y498912D1*
X1948083Y494016D1*
X1947890Y489120D1*
X1947314Y484255D1*
X1946359Y479449D1*
X1945029Y474734D1*
X1943332Y470137D1*
X1941281Y465687D1*
X1938887Y461412D1*
X1936166Y457339D1*
X1933131Y453491D1*
X1929806Y449893D1*
X1926208Y446567D1*
X1922360Y443533D1*
X1918286Y440811D1*
X1914012Y438418D1*
X1909562Y436366D1*
X1904965Y434670D1*
X1900250Y433340D1*
X1895444Y432385D1*
X1890579Y431809D1*
X1885683Y431616D1*
X1880786Y431809D1*
X1875922Y432385D1*
X1871116Y433340D1*
X1866401Y434670D1*
X1861803Y436366D1*
X1857353Y438418D1*
X1853079Y440811D1*
X1849006Y443533D1*
X1845158Y446567D1*
X1842754Y448788D1*
X1757540Y448798D1*
Y609835D1*
X1774239D1*
X1774225Y626042D1*
X1757540Y626028D1*
Y787065D1*
X1835490D1*
X1838234Y790541D1*
X1841559Y794139D1*
X1845158Y797465D1*
X1849006Y800499D1*
X1853079Y803221D1*
X1857353Y805614D1*
X1861803Y807666D1*
X1866401Y809362D1*
X1871116Y810692D1*
X1875922Y811647D1*
X1880786Y812223D1*
X1885683Y812416D1*
X1890579Y812223D1*
X1895444Y811647D1*
X1898541Y811032D1*
X1898554Y864101D1*
X1898769D1*
X1898782Y901099D1*
X1895513Y897925D1*
X1890914Y894584D1*
X1885849Y892003D1*
X1880443Y890247D1*
X1874828Y889357D1*
X1869143D1*
X1863529Y890247D1*
X1858122Y892003D1*
X1853058Y894584D1*
X1848458Y897925D1*
X1844439Y901945D1*
X1841097Y906545D1*
X1838516Y911609D1*
X1836760Y917016D1*
X1835870Y922630D1*
Y928315D1*
X1836760Y933929D1*
X1838516Y939336D1*
X1841097Y944401D1*
X1842987Y947159D1*
X1842982Y975784D1*
X1770041Y975796D1*
Y1023784D1*
X1683305Y1023782D1*
Y1105966D1*
X1633667Y1056323D1*
X1634041Y1050269D1*
X1633889Y1046394D1*
X1633432Y1042541D1*
X1632676Y1038736D1*
X1631622Y1035004D1*
X1630280Y1031365D1*
X1628656Y1027843D1*
X1626761Y1024458D1*
X1624607Y1021233D1*
X1620713Y1016574D1*
X1624558Y1014150D1*
X1628881Y1010458D1*
X1632572Y1006135D1*
X1635542Y1001288D1*
X1637718Y996036D1*
X1639045Y990508D1*
X1639491Y984841D1*
X1639045Y979175D1*
X1637718Y973647D1*
X1635542Y968395D1*
X1632572Y963547D1*
X1628881Y959225D1*
X1624558Y955533D1*
X1619710Y952563D1*
X1614458Y950387D1*
X1608931Y949061D1*
X1603264Y948614D1*
X1597597Y949061D1*
X1592070Y950387D1*
X1586818Y952563D1*
X1581970Y955533D1*
X1577647Y959225D1*
X1573956Y963547D1*
X1570986Y968395D1*
X1568810Y973647D1*
X1567483Y979175D1*
X1567037Y984841D1*
X1567483Y990508D1*
X1568810Y996036D1*
X1570986Y1001288D1*
X1571718Y1002597D1*
X1565736Y1004630D1*
X1562214Y1006254D1*
X1558830Y1008149D1*
X1555604Y1010303D1*
X1552558Y1012705D1*
X1549710Y1015339D1*
X1547076Y1018187D1*
X1544675Y1021233D1*
X1542520Y1024458D1*
X1540625Y1027843D1*
X1539002Y1031365D1*
X1537659Y1035004D1*
X1536605Y1038736D1*
X1535849Y1042541D1*
X1535393Y1046394D1*
X1535240Y1050269D1*
X1535393Y1054145D1*
X1535849Y1057998D1*
X1536605Y1061802D1*
X1537659Y1065534D1*
X1539002Y1069173D1*
X1540625Y1072696D1*
X1542520Y1076080D1*
X1544675Y1079306D1*
X1547076Y1082352D1*
X1549710Y1085200D1*
X1552558Y1087834D1*
X1555604Y1090235D1*
X1558830Y1092390D1*
X1562214Y1094285D1*
X1565736Y1095908D1*
X1569376Y1097251D1*
X1573108Y1098305D1*
X1576912Y1099061D1*
X1580765Y1099517D1*
X1584641Y1099670D1*
X1588516Y1099517D1*
X1592369Y1099061D1*
X1595474Y1098444D1*
X1656502Y1159361D1*
X1660108Y1161981D1*
X1664078Y1164004D1*
X1668317Y1165381D1*
X1672718Y1166078D1*
X1683286Y1166166D1*
X1683305Y1190811D1*
X1609513Y1190792D1*
X1605071Y1191142D1*
X1600729Y1192185D1*
X1596173Y1192234D1*
X1592369Y1191478D1*
X1588516Y1191021D1*
X1584641Y1190869D1*
X1580765Y1191021D1*
X1576912Y1191478D1*
X1573108Y1192234D1*
X1569376Y1193288D1*
X1565736Y1194630D1*
X1562214Y1196254D1*
X1558830Y1198149D1*
X1555604Y1200303D1*
X1552558Y1202705D1*
X1549710Y1205339D1*
X1547076Y1208187D1*
X1544675Y1211233D1*
X1542520Y1214458D1*
X1540625Y1217843D1*
X1539002Y1221365D1*
X1537659Y1225004D1*
X1536605Y1228736D1*
X1535849Y1232541D1*
X1535393Y1236394D1*
X1535240Y1240269D1*
X1535393Y1244145D1*
X1535849Y1247998D1*
X1536605Y1251802D1*
X1537659Y1255534D1*
X1539002Y1259173D1*
X1540625Y1262696D1*
X1542520Y1266080D1*
X1544675Y1269306D1*
X1547076Y1272352D1*
X1549710Y1275200D1*
X1552558Y1277834D1*
X1555604Y1280235D1*
X1558830Y1282390D1*
X1562214Y1284285D1*
X1565736Y1285908D1*
X1569376Y1287251D1*
X1573108Y1288305D1*
X1576912Y1289061D1*
X1580765Y1289517D1*
X1584641Y1289670D1*
X1588516Y1289517D1*
X1592369Y1289061D1*
X1598288Y1287708D1*
X1598395Y1290777D1*
X1599285Y1296391D1*
X1601041Y1301798D1*
X1603622Y1306862D1*
X1606964Y1311462D1*
X1610983Y1315482D1*
X1615583Y1318823D1*
X1620647Y1321404D1*
X1626054Y1323160D1*
X1631668Y1324050D1*
X1637353D1*
X1642967Y1323160D1*
X1648374Y1321404D1*
X1653439Y1318823D1*
X1658038Y1315482D1*
X1662058Y1311462D1*
X1665399Y1306862D1*
X1667981Y1301798D1*
X1669736Y1296391D1*
X1670462Y1292156D1*
X1677532Y1285076D1*
X1683317Y1285088D1*
X1683305Y1336125D1*
X1773475D1*
Y1334817D1*
X1790238Y1334819D1*
X1788731Y1338528D1*
X1787692Y1342861D1*
X1787341Y1347303D1*
Y1356386D1*
X1716649Y1356487D1*
X1712247Y1357184D1*
X1708008Y1358561D1*
X1704038Y1360584D1*
X1700432Y1363204D1*
X1688188Y1375324D1*
X1659785Y1403851D1*
X1657166Y1407457D1*
X1656072Y1409410D1*
X1654183Y1411113D1*
X1618579D1*
Y1520969D1*
X1696138D1*
X1705037Y1529861D1*
X1705038Y1575600D1*
X1543003Y1575595D1*
X1543017Y1520966D1*
X1618198Y1520969D1*
Y1411113D1*
X1492595D1*
Y1488672D1*
X1486383Y1494890D1*
X1452847Y1494886D1*
Y1655923D1*
X1492593D1*
X1492595Y1700168D1*
X1485047Y1697170D1*
X1480332Y1695840D1*
X1475526Y1694885D1*
X1470662Y1694309D1*
X1465765Y1694116D1*
X1460869Y1694309D1*
X1456004Y1694885D1*
X1451198Y1695840D1*
X1446483Y1697170D1*
X1441886Y1698866D1*
X1437436Y1700918D1*
X1433162Y1703311D1*
X1429088Y1706033D1*
X1425240Y1709067D1*
X1421642Y1712393D1*
X1418317Y1715991D1*
X1415282Y1719839D1*
X1412561Y1723912D1*
X1410167Y1728187D1*
X1408116Y1732637D1*
X1406419Y1737234D1*
X1405089Y1741949D1*
X1404134Y1746755D1*
X1403558Y1751620D1*
X1403365Y1756516D1*
X1403558Y1761412D1*
X1404134Y1766277D1*
X1405089Y1771083D1*
X1406419Y1775798D1*
X1408116Y1780395D1*
X1410167Y1784845D1*
X1412561Y1789120D1*
X1415282Y1793193D1*
X1418317Y1797041D1*
X1421642Y1800639D1*
X1425240Y1803965D1*
X1429088Y1806999D1*
X1433162Y1809721D1*
X1437353Y1812068D1*
X1437453Y1817994D1*
X1438150Y1822395D1*
X1439526Y1826634D1*
X1441550Y1830604D1*
X1444170Y1834210D1*
X1456290Y1846454D1*
X1517679Y1907843D1*
X1517681Y1917685D1*
X1482870Y1952499D1*
X1475526Y1950885D1*
X1470662Y1950309D1*
X1465765Y1950116D1*
X1460869Y1950309D1*
X1456004Y1950885D1*
X1451198Y1951840D1*
X1446483Y1953170D1*
X1441886Y1954866D1*
X1437436Y1956918D1*
X1433162Y1959311D1*
X1429088Y1962033D1*
X1425240Y1965067D1*
X1421642Y1968393D1*
X1418317Y1971991D1*
X1415282Y1975839D1*
X1412561Y1979912D1*
X1410167Y1984187D1*
X1408116Y1988637D1*
X1406419Y1993234D1*
X1405089Y1997949D1*
X1404134Y2002755D1*
X1403558Y2007620D1*
X1403365Y2012516D1*
X1403558Y2017412D1*
X1404134Y2022277D1*
X1405089Y2027083D1*
X1406419Y2031798D1*
X1408116Y2036395D1*
X1409164Y2038672D1*
X1344433Y2038681D1*
X1347112Y2031798D1*
X1348441Y2027083D1*
X1349397Y2022277D1*
X1349973Y2017412D1*
X1350166Y2012516D1*
X1349973Y2007620D1*
X1349397Y2002755D1*
X1348441Y1997949D1*
X1347112Y1993234D1*
X1345415Y1988637D1*
X1343364Y1984187D1*
X1340970Y1979912D1*
X1338248Y1975839D1*
X1335214Y1971991D1*
X1331889Y1968393D1*
X1328290Y1965067D1*
X1324443Y1962033D1*
X1320369Y1959311D1*
X1316095Y1956918D1*
X1311645Y1954866D1*
X1307047Y1953170D1*
X1302332Y1951840D1*
X1297526Y1950885D1*
X1292662Y1950309D1*
X1287765Y1950116D1*
X1282869Y1950309D1*
X1278004Y1950885D1*
X1273198Y1951840D1*
X1268483Y1953170D1*
X1263886Y1954866D1*
X1259436Y1956918D1*
X1255162Y1959311D1*
X1251088Y1962033D1*
X1247240Y1965067D1*
X1243642Y1968393D1*
X1240317Y1971991D1*
X1237282Y1975839D1*
X1234561Y1979912D1*
X1232167Y1984187D1*
X1230116Y1988637D1*
X1228419Y1993234D1*
X1227089Y1997949D1*
X1226134Y2002755D1*
X1225558Y2007620D1*
X1225365Y2012516D1*
X1225558Y2017412D1*
X1226134Y2022277D1*
X1227089Y2027083D1*
X1228419Y2031798D1*
X1230116Y2036395D1*
X1232167Y2040845D1*
X1234561Y2045120D1*
X1237282Y2049193D1*
X1240317Y2053041D1*
X1243642Y2056639D1*
X1247240Y2059965D1*
X1251088Y2062999D1*
X1255162Y2065721D1*
X1259436Y2068114D1*
X1263886Y2070166D1*
X1268483Y2071862D1*
X1273198Y2073192D1*
X1278004Y2074147D1*
X1282869Y2074723D1*
X1287765Y2074916D1*
X1290960Y2074790D1*
X1290970Y2128852D1*
X1359584D1*
X1359568Y2189275D1*
X1453676D1*
Y2099104D1*
X1452016D1*
X1452007Y2073364D1*
X1456004Y2074147D1*
X1460869Y2074723D1*
X1465765Y2074916D1*
X1470662Y2074723D1*
X1475526Y2074147D1*
X1480332Y2073192D1*
X1485047Y2071862D1*
X1489645Y2070166D1*
X1494095Y2068114D1*
X1498369Y2065721D1*
X1502443Y2062999D1*
X1506290Y2059965D1*
X1509889Y2056639D1*
X1513214Y2053041D1*
X1516248Y2049193D1*
X1518970Y2045120D1*
X1521364Y2040845D1*
X1523415Y2036395D1*
X1525112Y2031798D1*
X1526441Y2027083D1*
X1527397Y2022277D1*
X1527973Y2017412D1*
X1528166Y2012516D1*
X1527973Y2007620D1*
X1527397Y2002755D1*
X1526441Y1997949D1*
X1524402Y1991313D1*
X1555881Y1959817D1*
X1676601Y1959820D1*
Y1865713D1*
X1607870D1*
X1607852Y1798784D1*
X1517681D1*
Y1827515D1*
X1499307Y1809143D1*
X1502443Y1806999D1*
X1506290Y1803965D1*
X1509889Y1800639D1*
X1513214Y1797041D1*
X1516248Y1793193D1*
X1518970Y1789120D1*
X1521364Y1784845D1*
X1523415Y1780395D1*
X1525112Y1775798D1*
X1526441Y1771083D1*
X1527397Y1766277D1*
X1527973Y1761412D1*
X1528166Y1756516D1*
X1527973Y1751620D1*
X1527397Y1746755D1*
X1526441Y1741949D1*
X1525189Y1737509D1*
X1618198Y1737504D1*
Y1642133D1*
X1618579Y1642649D1*
Y1737504D1*
X1736567D1*
X1736584Y1783327D1*
X1811604D1*
X1811584Y1784950D1*
X1901755D1*
X1901799Y1741167D1*
X1936467D1*
X1936457Y1814233D1*
X2030565D1*
Y1753823D1*
X2032738Y1751537D1*
X2035357Y1747931D1*
X2037381Y1743961D1*
X2038757Y1739722D1*
X2039454Y1735320D1*
X2039542Y1718092D1*
Y1696432D1*
X2042150Y1696985D1*
X2043040Y1702599D1*
X2044796Y1708006D1*
X2047377Y1713070D1*
X2050718Y1717670D1*
X2054738Y1721689D1*
X2059336Y1725030D1*
X2064402Y1727612D1*
X2069809Y1729368D1*
X2075423Y1730257D1*
X2081108D1*
X2086722Y1729368D1*
X2087160Y1729244D1*
X2088490Y1733003D1*
X2091071Y1738067D1*
X2094412Y1742667D1*
X2098432Y1746687D1*
X2103032Y1750028D1*
X2108096Y1752609D1*
X2113503Y1754365D1*
X2119117Y1755255D1*
X2124802D1*
X2130416Y1754365D1*
X2135823Y1752609D1*
X2140887Y1750028D1*
X2145487Y1746687D1*
X2149507Y1742667D1*
X2152848Y1738067D1*
X2155429Y1733003D1*
X2157185Y1727596D1*
X2158075Y1721982D1*
Y1716297D1*
X2157185Y1710683D1*
X2155429Y1705276D1*
X2152848Y1700212D1*
X2150160Y1696441D1*
X2166592Y1696433D1*
X2164862Y1699445D1*
X2162687Y1704697D1*
X2161360Y1710225D1*
X2160914Y1715891D1*
X2161360Y1721558D1*
X2162687Y1727086D1*
X2164862Y1732338D1*
X2167832Y1737185D1*
X2171524Y1741508D1*
X2175847Y1745200D1*
X2180694Y1748170D1*
X2185946Y1750345D1*
X2191474Y1751672D1*
X2197141Y1752118D1*
X2202807Y1751672D1*
X2207448Y1750595D1*
X2207453Y1811093D1*
X2278840D1*
X2281100Y1813583D1*
X2285423Y1817275D1*
X2290271Y1820244D1*
X2295523Y1822420D1*
X2301050Y1823747D1*
X2306717Y1824193D1*
X2312383Y1823747D1*
X2317911Y1822420D1*
X2323163Y1820244D1*
X2328011Y1817275D1*
X2332334Y1813583D1*
X2336025Y1809260D1*
X2338995Y1804412D1*
X2341171Y1799160D1*
X2342498Y1793633D1*
X2342944Y1787966D1*
X2342498Y1782299D1*
X2341171Y1776772D1*
X2339940Y1773568D1*
X2342341Y1771684D1*
X2346361Y1767664D1*
X2349702Y1763065D1*
X2352284Y1758000D1*
X2354040Y1752593D1*
X2354929Y1746979D1*
X2354979Y1742571D1*
X2359565Y1742507D1*
X2365179Y1741617D1*
X2370586Y1739861D1*
X2375650Y1737280D1*
X2380250Y1733939D1*
X2384269Y1729919D1*
X2387610Y1725319D1*
X2390192Y1720255D1*
X2391948Y1714848D1*
X2392838Y1709234D1*
Y1703549D1*
X2391948Y1697935D1*
X2390192Y1692528D1*
X2387610Y1687464D1*
X2384441Y1683082D1*
X2387736Y1681285D1*
X2392336Y1677944D1*
X2396356Y1673924D1*
X2399697Y1669324D1*
X2402278Y1664260D1*
X2404034Y1658853D1*
X2404924Y1653239D1*
Y1647554D1*
X2404034Y1641940D1*
X2402278Y1636533D1*
X2399697Y1631469D1*
X2396356Y1626869D1*
X2392336Y1622849D1*
X2387736Y1619508D1*
X2382672Y1616927D1*
X2377265Y1615171D1*
X2377103Y1615138D1*
X2377093Y1594070D1*
X2407050Y1594071D1*
X2467374Y1654412D1*
X2464642Y1658948D1*
X2462466Y1664200D1*
X2461139Y1669727D1*
X2460693Y1675394D1*
X2461139Y1681061D1*
X2462466Y1686588D1*
X2464642Y1691840D1*
X2467612Y1696688D1*
X2471303Y1701011D1*
X2475626Y1704702D1*
X2480474Y1707672D1*
X2485726Y1709848D1*
X2491254Y1711175D1*
X2496920Y1711621D1*
X2502587Y1711175D1*
X2508114Y1709848D1*
X2513366Y1707672D1*
X2518214Y1704702D1*
X2522537Y1701011D1*
X2526229Y1696688D1*
X2528292Y1693460D1*
X2530260Y1698089D1*
X2533230Y1702937D1*
X2536922Y1707260D1*
X2541244Y1710952D1*
X2546092Y1713922D1*
X2551344Y1716097D1*
X2556872Y1717424D1*
X2562538Y1717870D1*
X2568205Y1717424D1*
X2573733Y1716097D1*
X2578985Y1713922D1*
X2583832Y1710952D1*
X2588155Y1707260D1*
X2591847Y1702937D1*
X2594817Y1698089D1*
X2596992Y1692838D1*
X2598319Y1687310D1*
X2598765Y1681643D1*
X2598319Y1675977D1*
X2596992Y1670449D1*
X2595817Y1667366D1*
X2595813Y1632991D1*
X2604726Y1632999D1*
Y1538891D1*
X2552754D1*
X2517533Y1503673D1*
X2527420Y1503578D1*
X2531822Y1502881D1*
X2536061Y1501504D1*
X2540030Y1499481D1*
X2543637Y1496861D1*
X2546171Y1494449D1*
X2576155Y1494441D1*
X2583040Y1501328D1*
X2583790Y1505597D1*
X2585546Y1511004D1*
X2588128Y1516068D1*
X2591469Y1520668D1*
X2595488Y1524688D1*
X2600088Y1528029D1*
X2605152Y1530610D1*
X2610559Y1532366D1*
X2616173Y1533256D1*
X2621859D1*
X2627473Y1532366D1*
X2632880Y1530610D1*
X2637944Y1528029D1*
X2642544Y1524688D1*
X2646563Y1520668D1*
X2649904Y1516068D1*
X2652486Y1511004D1*
X2654242Y1505597D1*
X2655131Y1499983D1*
Y1494298D1*
X2654242Y1488684D1*
X2652486Y1483277D1*
X2649904Y1478213D1*
X2646563Y1473613D1*
X2643629Y1470597D1*
X2646563Y1467544D1*
X2649904Y1462944D1*
X2652486Y1457880D1*
X2654242Y1452473D1*
X2655131Y1446859D1*
Y1441173D1*
X2654242Y1435559D1*
X2652486Y1430152D1*
X2649904Y1425088D1*
X2647781Y1422033D1*
X2648546Y1418432D1*
X2648992Y1412765D1*
X2648546Y1407099D1*
X2647219Y1401571D1*
X2645044Y1396319D1*
X2643079Y1392978D1*
X2708089Y1392987D1*
Y1372420D1*
X2791269Y1372416D1*
X2789765Y1379172D1*
X2789257Y1383456D1*
X2789088Y1387765D1*
X2789257Y1392075D1*
X2789765Y1396359D1*
X2790607Y1400588D1*
X2791777Y1404739D1*
X2793269Y1408785D1*
X2795075Y1412702D1*
X2797183Y1416465D1*
X2799579Y1420051D1*
X2802248Y1423439D1*
X2805176Y1426605D1*
X2808343Y1429533D1*
X2811730Y1432202D1*
X2815317Y1434599D1*
X2821328Y1437743D1*
X2815317Y1440932D1*
X2811730Y1443328D1*
X2808343Y1445998D1*
X2805176Y1448925D1*
X2802248Y1452092D1*
X2799579Y1455479D1*
X2797183Y1459066D1*
X2795075Y1462828D1*
X2793269Y1466746D1*
X2791777Y1470792D1*
X2790607Y1474943D1*
X2789765Y1479172D1*
X2789257Y1483456D1*
X2789088Y1487765D1*
X2789257Y1492075D1*
X2789765Y1496359D1*
X2790607Y1500588D1*
X2791777Y1504739D1*
X2793269Y1508785D1*
X2795075Y1512702D1*
X2797183Y1516465D1*
X2799579Y1520051D1*
X2802248Y1523439D1*
X2805176Y1526605D1*
X2808343Y1529533D1*
X2811730Y1532202D1*
X2815317Y1534599D1*
X2821328Y1537743D1*
X2815317Y1540932D1*
X2811730Y1543328D1*
X2808343Y1545998D1*
X2805176Y1548925D1*
X2802248Y1552092D1*
X2799579Y1555479D1*
X2797183Y1559066D1*
X2795075Y1562828D1*
X2793269Y1566746D1*
X2791777Y1570792D1*
X2790607Y1574943D1*
X2789765Y1579172D1*
X2789257Y1583456D1*
X2789088Y1587765D1*
X2789257Y1592075D1*
X2789765Y1596359D1*
X2790607Y1600588D1*
X2791777Y1604739D1*
X2793269Y1608785D1*
X2795075Y1612702D1*
X2797183Y1616465D1*
X2799579Y1620051D1*
X2802248Y1623439D1*
X2805176Y1626605D1*
X2808343Y1629533D1*
X2811730Y1632202D1*
X2815317Y1634599D1*
X2821328Y1637743D1*
X2815317Y1640932D1*
X2811730Y1643328D1*
X2808343Y1645998D1*
X2805176Y1648925D1*
X2802248Y1652092D1*
X2799579Y1655479D1*
X2797183Y1659066D1*
X2795075Y1662828D1*
X2793269Y1666746D1*
X2791777Y1670792D1*
X2790607Y1674943D1*
X2789765Y1679172D1*
X2789257Y1683456D1*
X2789088Y1687765D1*
X2789257Y1692075D1*
X2789765Y1696359D1*
X2790607Y1700588D1*
X2791777Y1704739D1*
X2793269Y1708785D1*
X2795075Y1712702D1*
X2797183Y1716465D1*
X2799579Y1720051D1*
X2802248Y1723439D1*
X2805176Y1726605D1*
X2808343Y1729533D1*
X2811730Y1732202D1*
X2815317Y1734599D1*
X2821328Y1737743D1*
X2815317Y1740932D1*
X2811730Y1743328D1*
X2808343Y1745998D1*
X2805176Y1748925D1*
X2802248Y1752092D1*
X2799579Y1755479D1*
X2797183Y1759066D1*
X2795075Y1762828D1*
X2793269Y1766746D1*
X2791777Y1770792D1*
X2790607Y1774943D1*
X2789765Y1779172D1*
X2789257Y1783456D1*
X2789088Y1787765D1*
X2789257Y1792075D1*
X2789765Y1796359D1*
X2790607Y1800588D1*
X2791777Y1804739D1*
X2793269Y1808785D1*
X2795075Y1812702D1*
X2797183Y1816465D1*
X2799579Y1820051D1*
X2802248Y1823439D1*
X2805176Y1826605D1*
X2808343Y1829533D1*
X2811730Y1832202D1*
X2815317Y1834599D1*
X2821328Y1837743D1*
X2815317Y1840932D1*
X2811730Y1843328D1*
X2808343Y1845998D1*
X2805176Y1848925D1*
X2802248Y1852092D1*
X2799579Y1855479D1*
X2797183Y1859066D1*
X2795075Y1862828D1*
X2793269Y1866746D1*
X2791777Y1870792D1*
X2790607Y1874943D1*
X2789765Y1879172D1*
X2789257Y1883456D1*
X2789088Y1887765D1*
X2789257Y1892075D1*
X2789765Y1896359D1*
X2790607Y1900588D1*
X2791777Y1904739D1*
X2793269Y1908785D1*
X2795075Y1912702D1*
X2797183Y1916465D1*
X2799579Y1920051D1*
X2802248Y1923439D1*
X2805176Y1926605D1*
X2808343Y1929533D1*
X2811730Y1932202D1*
X2815317Y1934599D1*
X2821328Y1937743D1*
X2815317Y1940932D1*
X2811730Y1943328D1*
X2808343Y1945998D1*
X2805176Y1948925D1*
X2802248Y1952092D1*
X2799579Y1955479D1*
X2797183Y1959066D1*
X2795075Y1962828D1*
X2793269Y1966746D1*
X2791777Y1970792D1*
X2790607Y1974943D1*
X2789765Y1979172D1*
X2789257Y1983456D1*
X2789088Y1987765D1*
X2789257Y1992075D1*
X2789765Y1996359D1*
X2790607Y2000588D1*
X2791777Y2004739D1*
X2793269Y2008785D1*
X2795075Y2012702D1*
X2797183Y2016465D1*
X2799579Y2020051D1*
X2802248Y2023439D1*
X2805176Y2026605D1*
X2808343Y2029533D1*
X2811730Y2032202D1*
X2815317Y2034599D1*
X2821328Y2037743D1*
X2815317Y2040932D1*
X2811730Y2043328D1*
X2808343Y2045998D1*
X2805176Y2048925D1*
X2802248Y2052092D1*
X2799579Y2055479D1*
X2797009Y2059374D1*
X2765012Y2059365D1*
X2698747Y1993120D1*
X2697992Y1988845D1*
X2696235Y1983439D1*
X2693654Y1978374D1*
X2690313Y1973775D1*
X2686293Y1969755D1*
X2681694Y1966414D1*
X2676629Y1963832D1*
X2671223Y1962076D1*
X2665608Y1961187D1*
X2659924D1*
X2655104Y1961918D1*
X2655112Y1952217D1*
X2561004D1*
Y2030166D1*
X2560768Y2030181D1*
X2560767Y2192225D1*
X2654874D1*
Y2182478D1*
X2658565Y2183093D1*
X2784946Y2309361D1*
X2788551Y2311981D1*
X2792523Y2314004D1*
X2794622Y2314777D1*
X2797183Y2316465D1*
X2799579Y2320051D1*
X2802248Y2323439D1*
X2805176Y2326605D1*
X2808343Y2329533D1*
X2811730Y2332202D1*
X2815317Y2334599D1*
X2821328Y2337743D1*
X2815317Y2340932D1*
X2811730Y2343328D1*
X2808343Y2345998D1*
X2805176Y2348925D1*
X2802248Y2352092D1*
X2799579Y2355479D1*
X2797183Y2359066D1*
X2795075Y2362828D1*
X2793269Y2366746D1*
X2791777Y2370792D1*
X2790607Y2374943D1*
X2789765Y2379172D1*
X2789257Y2383456D1*
X2789088Y2387765D1*
X2789257Y2392075D1*
X2789765Y2396359D1*
X2790607Y2400588D1*
X2791777Y2404739D1*
X2793269Y2408785D1*
X2795075Y2412702D1*
X2797183Y2416465D1*
X2799579Y2420051D1*
X2802248Y2423439D1*
X2805176Y2426605D1*
X2808343Y2429533D1*
X2811730Y2432202D1*
X2815317Y2434599D1*
X2821328Y2437743D1*
X2815317Y2440932D1*
X2811730Y2443328D1*
X2808343Y2445998D1*
X2805176Y2448925D1*
X2802248Y2452092D1*
X2799579Y2455479D1*
X2797183Y2459066D1*
X2795075Y2462828D1*
X2793269Y2466746D1*
X2791777Y2470792D1*
X2790607Y2474943D1*
X2789765Y2479172D1*
X2789257Y2483456D1*
X2789088Y2487765D1*
X2789257Y2492075D1*
X2789765Y2496359D1*
X2790607Y2500588D1*
X2791777Y2504739D1*
X2793269Y2508785D1*
X2795075Y2512702D1*
X2797183Y2516465D1*
X2799579Y2520051D1*
X2802248Y2523439D1*
X2805176Y2526605D1*
X2808343Y2529533D1*
X2811730Y2532202D1*
X2815317Y2534599D1*
X2821328Y2537743D1*
X2815317Y2540932D1*
X2811730Y2543328D1*
X2808343Y2545998D1*
X2805176Y2548925D1*
X2802248Y2552092D1*
X2799579Y2555479D1*
X2797183Y2559066D1*
X2795075Y2562828D1*
X2793269Y2566746D1*
X2791777Y2570792D1*
X2790607Y2574943D1*
X2789765Y2579172D1*
X2789257Y2583456D1*
X2789088Y2587765D1*
X2789257Y2592075D1*
X2789765Y2596359D1*
X2790607Y2600588D1*
X2791777Y2604739D1*
X2793269Y2608785D1*
X2795075Y2612702D1*
X2797183Y2616465D1*
X2799579Y2620051D1*
X2802248Y2623439D1*
X2805176Y2626605D1*
X2808343Y2629533D1*
X2811730Y2632202D1*
X2815317Y2634599D1*
X2819079Y2636706D1*
X2822996Y2638512D1*
X2827042Y2640004D1*
X2831193Y2641175D1*
X2835423Y2642016D1*
X2839706Y2642524D1*
X2844016Y2642693D1*
X2848326Y2642524D1*
X2852609Y2642016D1*
X2856839Y2641175D1*
X2860990Y2640004D1*
X2865036Y2638512D1*
X2868953Y2636706D1*
X2872715Y2634599D1*
X2876302Y2632202D1*
X2879689Y2629533D1*
X2882856Y2626605D1*
X2885784Y2623439D1*
X2888453Y2620051D1*
X2890849Y2616465D1*
X2893994Y2610453D1*
X2897183Y2616465D1*
X2899579Y2620051D1*
X2902248Y2623439D1*
X2905176Y2626605D1*
X2909944Y2630794D1*
X2855953Y2684925D1*
X2852883Y2689150D1*
X2850513Y2693802D1*
X2848901Y2698768D1*
X2848083Y2703925D1*
X2847981Y2716536D1*
Y2820852D1*
X2833103Y2835743D1*
X2644286Y2835744D1*
X2645298Y2830754D1*
X2645806Y2826458D1*
X2645977Y2822137D1*
X2645806Y2817815D1*
X2645298Y2813520D1*
X2644454Y2809277D1*
X2643280Y2805114D1*
X2641784Y2801057D1*
X2639973Y2797129D1*
X2637859Y2793355D1*
X2635456Y2789759D1*
X2632778Y2786362D1*
X2629843Y2783185D1*
X2626666Y2780250D1*
X2622750Y2777225D1*
X2645977Y2777222D1*
Y2667051D1*
X2535806D1*
Y2690235D1*
X2532778Y2686362D1*
X2529843Y2683185D1*
X2526666Y2680250D1*
X2523269Y2677572D1*
X2519673Y2675170D1*
X2515899Y2673055D1*
X2511971Y2671244D1*
X2507914Y2669748D1*
X2503751Y2668574D1*
X2499508Y2667730D1*
X2495213Y2667222D1*
X2490891Y2667051D1*
X2486570Y2667222D1*
X2482275Y2667730D1*
X2478032Y2668574D1*
X2473869Y2669748D1*
X2469811Y2671244D1*
X2465883Y2673055D1*
X2462109Y2675170D1*
X2458513Y2677572D1*
X2455117Y2680250D1*
X2451940Y2683185D1*
X2449004Y2686362D1*
X2446327Y2689759D1*
X2443924Y2693355D1*
X2440912Y2699078D1*
X2437859Y2693355D1*
X2435456Y2689759D1*
X2432778Y2686362D1*
X2429843Y2683185D1*
X2426666Y2680250D1*
X2423269Y2677572D1*
X2419673Y2675170D1*
X2415899Y2673055D1*
X2411971Y2671244D1*
X2407914Y2669748D1*
X2403751Y2668574D1*
X2399508Y2667730D1*
X2395213Y2667222D1*
X2390891Y2667051D1*
X2386570Y2667222D1*
X2382275Y2667730D1*
X2378032Y2668574D1*
X2373869Y2669748D1*
X2369811Y2671244D1*
X2365883Y2673055D1*
X2362109Y2675170D1*
X2358513Y2677572D1*
X2355117Y2680250D1*
X2351940Y2683185D1*
X2349004Y2686362D1*
X2345979Y2690278D1*
X2345977Y2667051D1*
X2235806D1*
Y2777222D1*
X2345977D1*
Y2754038D1*
X2349004Y2757911D1*
X2351940Y2761088D1*
X2355117Y2764024D1*
X2358513Y2766701D1*
X2362109Y2769104D1*
X2367832Y2772116D1*
X2362109Y2775170D1*
X2358513Y2777572D1*
X2355117Y2780250D1*
X2351940Y2783185D1*
X2349004Y2786362D1*
X2346327Y2789759D1*
X2343924Y2793355D1*
X2341810Y2797129D1*
X2339999Y2801057D1*
X2338503Y2805114D1*
X2337328Y2809277D1*
X2336485Y2813520D1*
X2335977Y2817815D1*
X2335806Y2822137D1*
X2335977Y2826458D1*
X2336485Y2830754D1*
X2337544Y2835760D1*
X2189130Y2835744D1*
X2189133Y2743666D1*
X2193248Y2741086D1*
X2197571Y2737394D1*
X2201263Y2733071D1*
X2204233Y2728223D1*
X2206408Y2722971D1*
X2207735Y2717444D1*
X2208181Y2711777D1*
X2207735Y2706110D1*
X2206408Y2700583D1*
X2204233Y2695331D1*
X2201263Y2690483D1*
X2197571Y2686160D1*
X2193248Y2682469D1*
X2188401Y2679499D1*
X2183149Y2677323D1*
X2177621Y2675996D1*
X2173587Y2675614D1*
X2173582Y2661771D1*
X2107937D1*
X2107944Y2491201D1*
X2108649Y2492204D1*
X2109744Y2496769D1*
X2111542Y2501107D1*
X2113995Y2505110D1*
X2117044Y2508680D1*
X2120614Y2511730D1*
X2124618Y2514183D1*
X2128956Y2515979D1*
X2133521Y2517076D1*
X2138202Y2517444D1*
X2155746Y2517352D1*
X2160393Y2516616D1*
X2161240Y2518877D1*
Y2629914D1*
X2251411D1*
Y2468877D1*
X2234712D1*
X2234726Y2443143D1*
X2237797Y2442347D1*
X2241479Y2440820D1*
X2244878Y2438738D1*
X2247908Y2436150D1*
X2250496Y2433120D1*
X2252579Y2429721D1*
X2254105Y2426038D1*
X2255036Y2422163D1*
X2255348Y2418181D1*
X2255269Y2384700D1*
X2254646Y2380764D1*
X2253415Y2376973D1*
X2251605Y2373422D1*
X2249263Y2370197D1*
X2246444Y2367378D1*
X2243219Y2365036D1*
X2239668Y2363226D1*
X2235877Y2361995D1*
X2231941Y2361372D1*
X2214948Y2361293D1*
X2180710Y2361372D1*
X2176775Y2361995D1*
X2174847Y2362538D1*
X2173582Y2361470D1*
Y2308425D1*
X2109030D1*
X2109015Y2270827D1*
X1999159D1*
Y2366903D1*
X2077109D1*
X2077112Y2406470D1*
X2108264D1*
X2108280Y2434418D1*
X2047864Y2434499D1*
X2043454Y2435198D1*
X2038023Y2435483D1*
X1713382Y2435575D1*
X1708744Y2436310D1*
X1704278Y2437760D1*
X1700096Y2439893D1*
X1696297Y2442651D1*
X1692977Y2445971D1*
X1690217Y2449771D1*
X1688086Y2453954D1*
X1686634Y2458419D1*
X1685901Y2463057D1*
X1685807Y2475404D1*
X1685901Y2786381D1*
X1686634Y2791017D1*
X1688086Y2795483D1*
X1690217Y2799667D1*
X1692977Y2803465D1*
X1696297Y2806785D1*
X1700096Y2809545D1*
X1702154Y2810697D1*
X1704277Y2816404D1*
Y2835760D1*
X1626551Y2835744D1*
X1626534Y2721811D1*
X1548155D1*
X1837395Y1995105D2*
X1922566D1*
Y1900998D1*
X1832395D1*
Y1995105D1*
X1837395D1*
X1535458Y2419068D2*
X1626534D1*
Y2281654D1*
X1530458D1*
Y2419068D1*
X1535458D1*
X1697860Y2366903D2*
X1802715D1*
Y2270827D1*
X1692860D1*
Y2366903D1*
X1697860D1*
X1016099Y1770799D2*
X1018533Y1774443D1*
X1021567Y1778290D1*
X1024893Y1781889D1*
X1028491Y1785214D1*
X1032339Y1788248D1*
X1034454Y1789662D1*
X1016104Y1789667D1*
Y1770827D1*
X2255348Y2406386D2*
Y2406370D1*
Y2394575D2*
Y2394559D1*
X1834481Y2148941D2*
Y2092853D1*
X1740373D1*
Y2145138D1*
X1673922Y2145141D1*
Y2148949D1*
X1640702Y2148931D1*
X1640710Y2092853D1*
X1546603D1*
Y2148928D1*
X1540701Y2148931D1*
Y2239101D1*
X1673940D1*
X1673922Y2239248D1*
X1764092D1*
Y2239110D1*
X1867675Y2239101D1*
X1867672Y2239248D1*
X1924099D1*
X1924096Y2239420D1*
X2014267D1*
Y2236158D1*
X2127252Y2236154D1*
X2127246Y2236294D1*
X2217416D1*
Y2142187D1*
X2127246D1*
Y2145995D1*
X2087647Y2145983D1*
X2087635Y2083477D1*
X2014256D1*
X2014267Y2078383D1*
X1924096D1*
Y2145122D1*
X1867672Y2145141D1*
Y2148949D1*
X1834478Y2148931D1*
X2815576Y2739558D2*
Y2664563D1*
X2787002D1*
X2652418Y2529964D1*
X2652431Y2478002D1*
X2507982D1*
X2507999Y2477055D1*
X2346962D1*
Y2567226D1*
X2465864D1*
X2501908Y2603145D1*
X2505515Y2605764D1*
X2509485Y2607788D1*
X2513723Y2609164D1*
X2518125Y2609861D1*
X2535353Y2609949D1*
X2597638D1*
X2680988Y2693292D1*
X2681086Y2730637D1*
X2681782Y2735038D1*
X2683159Y2739277D1*
X2685183Y2743247D1*
X2687802Y2746853D1*
X2699923Y2759097D1*
X2721481Y2780655D1*
X2721469Y2829734D1*
X2815576D1*
X2815557Y2739563D1*
X2615768Y1257851D2*
X2704876D1*
Y1167680D1*
X2610768D1*
Y1257851D1*
X2615768D1*
X2615769Y1164104D2*
X2704877D1*
Y1073933D1*
X2610769D1*
Y1164104D1*
X2615769D1*
X2609519Y1070359D2*
X2698626D1*
Y980188D1*
X2604519D1*
Y1070359D1*
X2609519D1*
X974215Y636431D2*
X950192D1*
X950210Y424034D1*
X1020520Y424016D1*
X1020536Y455928D1*
X965418Y455945D1*
Y609895D1*
X974226D1*
X974229Y636415D1*
X2006121Y2040603D2*
X2031883D1*
X2033613Y2044559D1*
X2036583Y2049407D1*
X2040275Y2053730D1*
X2044597Y2057422D1*
X2049445Y2060391D1*
X2054697Y2062567D1*
X2060225Y2063894D1*
X2065891Y2064340D1*
X2071558Y2063894D1*
X2077086Y2062567D1*
X2082338Y2060391D1*
X2087185Y2057422D1*
X2091508Y2053730D1*
X2095200Y2049407D1*
X2098170Y2044559D1*
X2099864Y2040610D1*
X2130662Y2040603D1*
Y1981793D1*
X2140091Y1981792D1*
X2143652Y1984280D1*
X2148717Y1986861D1*
X2154124Y1988617D1*
X2159738Y1989507D1*
X2165423D1*
X2171037Y1988617D1*
X2176444Y1986861D1*
X2181508Y1984280D1*
X2186108Y1980939D1*
X2190128Y1976919D1*
X2193469Y1972319D1*
X2196050Y1967255D1*
X2197806Y1961848D1*
X2198696Y1956234D1*
Y1950549D1*
X2197806Y1944935D1*
X2196050Y1939528D1*
X2193469Y1934464D1*
X2190128Y1929864D1*
X2186108Y1925844D1*
X2181508Y1922503D1*
X2176444Y1919922D1*
X2171037Y1918166D1*
X2165423Y1917276D1*
X2159738D1*
X2154124Y1918166D1*
X2148717Y1919922D1*
X2143652Y1922503D1*
X2140143Y1924985D1*
X2130647Y1924991D1*
X2130662Y1916180D1*
X2001121D1*
Y2040603D1*
X2006121D1*
Y1890603D2*
X2130662D1*
Y1816180D1*
X2001121D1*
Y1890603D1*
X2006121D1*
X2341053Y1916180D2*
X2213719D1*
Y2040603D1*
X2244286D1*
X2241599Y2045865D1*
X2239843Y2051272D1*
X2238953Y2056886D1*
Y2062571D1*
X2239843Y2068185D1*
X2241599Y2073592D1*
X2244180Y2078656D1*
X2247521Y2083256D1*
X2251541Y2087276D1*
X2256141Y2090617D1*
X2261205Y2093198D1*
X2266612Y2094954D1*
X2272226Y2095844D1*
X2277911D1*
X2283525Y2094954D1*
X2288932Y2093198D1*
X2293996Y2090617D1*
X2298596Y2087276D1*
X2302616Y2083256D1*
X2305957Y2078656D1*
X2308538Y2073592D1*
X2310294Y2068185D1*
X2311184Y2062571D1*
Y2056886D1*
X2310294Y2051272D1*
X2308538Y2045865D1*
X2306885Y2042458D1*
X2306890Y2040584D1*
X2343260Y2040603D1*
Y2031794D1*
X2389994Y2031704D1*
X2394395Y2031007D1*
X2398634Y2029630D1*
X2402604Y2027607D1*
X2406210Y2024987D1*
X2418454Y2012866D1*
X2499492Y1931705D1*
X2502112Y1928099D1*
X2504135Y1924129D1*
X2505512Y1919890D1*
X2506209Y1915488D1*
X2506297Y1898260D1*
Y1894139D1*
X2508785Y1890574D1*
X2511366Y1885509D1*
X2513122Y1880103D1*
X2514012Y1874488D1*
Y1868803D1*
X2513122Y1863189D1*
X2511366Y1857782D1*
X2508785Y1852718D1*
X2505444Y1848118D1*
X2501424Y1844099D1*
X2496824Y1840757D1*
X2491760Y1838176D1*
X2486353Y1836420D1*
X2480739Y1835530D1*
X2475054D1*
X2469440Y1836420D1*
X2464033Y1838176D1*
X2458969Y1840757D1*
X2454369Y1844099D1*
X2450349Y1848118D1*
X2447008Y1852718D1*
X2444427Y1857782D1*
X2442671Y1863189D1*
X2441781Y1868803D1*
Y1874488D1*
X2442671Y1880103D1*
X2444427Y1885509D1*
X2447008Y1890574D1*
X2449490Y1894083D1*
X2449496Y1901509D1*
X2376013Y1974979D1*
X2362461Y1974987D1*
X2374705Y1962866D1*
X2407561Y1930011D1*
X2411848Y1929242D1*
X2417255Y1927486D1*
X2422319Y1924904D1*
X2426919Y1921563D1*
X2430939Y1917544D1*
X2434280Y1912944D1*
X2436861Y1907880D1*
X2438617Y1902473D1*
X2439507Y1896859D1*
Y1891173D1*
X2438617Y1885559D1*
X2436861Y1880152D1*
X2434280Y1875088D1*
X2430939Y1870488D1*
X2426919Y1866469D1*
X2422319Y1863128D1*
X2417255Y1860546D1*
X2411848Y1858790D1*
X2406234Y1857901D1*
X2400549D1*
X2394935Y1858790D1*
X2389528Y1860546D1*
X2384464Y1863128D1*
X2379864Y1866469D1*
X2375844Y1870488D1*
X2372503Y1875088D1*
X2369922Y1880152D1*
X2368166Y1885559D1*
X2367440Y1889794D1*
X2341062Y1916181D1*
X1291616Y432399D2*
X1290267Y429389D1*
X1287297Y424541D1*
X1286877Y424009D1*
X1288877Y426907D1*
X1291458Y431971D1*
X1291616Y432399D1*
X1316509Y880057D2*
X1320420Y881613D1*
X1325948Y882940D1*
X1331614Y883386D1*
X1337281Y882940D1*
X1342809Y881613D1*
X1348061Y879437D1*
X1352908Y876467D1*
X1357231Y872776D1*
X1360923Y868453D1*
X1363893Y863605D1*
X1366068Y858353D1*
X1367395Y852826D1*
X1367841Y847159D1*
X1367395Y841492D1*
X1366068Y835965D1*
X1364893Y832882D1*
X2698718Y1993080D2*
X2697992Y1988845D1*
X2696235Y1983439D1*
X2693654Y1978374D1*
X2690313Y1973775D1*
X2686293Y1969755D1*
X2681694Y1966414D1*
X2676629Y1963832D1*
X2671223Y1962076D1*
X2665608Y1961187D1*
X2659924D1*
X2655104Y1961918D1*
X2667397Y1806912D2*
X2666507Y1801298D1*
X2664751Y1795891D1*
X2662170Y1790827D1*
X2658828Y1786227D1*
X2654809Y1782208D1*
X2650209Y1778866D1*
X2645145Y1776285D1*
X2639738Y1774529D1*
X2634124Y1773639D1*
X2628439D1*
X2622824Y1774529D1*
X2617418Y1776285D1*
X2612353Y1778866D1*
X2607754Y1782208D1*
X2603734Y1786227D1*
X2600393Y1790827D1*
X2597811Y1795891D1*
X2596055Y1801298D1*
X2595166Y1806912D1*
Y1812597D1*
X2596055Y1818212D1*
X2597811Y1823618D1*
X2600393Y1828683D1*
X2603734Y1833282D1*
X2607754Y1837302D1*
X2612353Y1840643D1*
X2617418Y1843225D1*
X2622824Y1844981D1*
X2628439Y1845870D1*
X2634124D1*
X2639738Y1844981D1*
X2645145Y1843225D1*
X2650209Y1840643D1*
X2654809Y1837302D1*
X2658828Y1833282D1*
X2662170Y1828683D1*
X2664751Y1823618D1*
X2666507Y1818212D1*
X2667397Y1812597D1*
Y1806912D1*
X1555013Y847638D2*
X1554124Y842024D1*
X1552368Y836617D1*
X1549786Y831553D1*
X1546445Y826953D1*
X1542425Y822933D1*
X1537826Y819592D1*
X1532761Y817011D1*
X1527355Y815255D1*
X1521740Y814365D1*
X1516055D1*
X1510441Y815255D1*
X1505034Y817011D1*
X1499970Y819592D1*
X1495370Y822933D1*
X1491351Y826953D1*
X1488009Y831553D1*
X1485428Y836617D1*
X1483672Y842024D1*
X1482782Y847638D1*
Y853323D1*
X1483672Y858937D1*
X1485428Y864344D1*
X1488009Y869408D1*
X1491351Y874008D1*
X1495370Y878028D1*
X1499970Y881369D1*
X1505034Y883950D1*
X1510441Y885706D1*
X1516055Y886596D1*
X1521740D1*
X1527355Y885706D1*
X1532761Y883950D1*
X1537826Y881369D1*
X1542425Y878028D1*
X1546445Y874008D1*
X1549786Y869408D1*
X1552368Y864344D1*
X1554124Y858937D1*
X1555013Y853323D1*
Y847638D1*
X2589280Y2381852D2*
X2588390Y2376238D1*
X2586634Y2370831D1*
X2584156Y2365950D1*
X2586634Y2361062D1*
X2588390Y2355655D1*
X2589280Y2350041D1*
Y2344356D1*
X2588390Y2338742D1*
X2586634Y2333335D1*
X2584053Y2328271D1*
X2580712Y2323671D1*
X2576692Y2319651D1*
X2572092Y2316310D1*
X2567028Y2313729D1*
X2561621Y2311973D1*
X2556007Y2311083D1*
X2550322D1*
X2544708Y2311973D1*
X2539301Y2313729D1*
X2534236Y2316310D1*
X2529637Y2319651D1*
X2525617Y2323671D1*
X2522276Y2328271D1*
X2519694Y2333335D1*
X2517939Y2338742D1*
X2517049Y2344356D1*
Y2350041D1*
X2517939Y2355655D1*
X2519694Y2361062D1*
X2522172Y2365943D1*
X2519694Y2370831D1*
X2517939Y2376238D1*
X2517049Y2381852D1*
Y2387537D1*
X2517939Y2393151D1*
X2519694Y2398558D1*
X2522276Y2403622D1*
X2525617Y2408222D1*
X2529637Y2412242D1*
X2534236Y2415583D1*
X2539301Y2418164D1*
X2544708Y2419920D1*
X2550322Y2420810D1*
X2556007D1*
X2561621Y2419920D1*
X2567028Y2418164D1*
X2572092Y2415583D1*
X2576692Y2412242D1*
X2580712Y2408222D1*
X2584053Y2403622D1*
X2586634Y2398558D1*
X2588390Y2393151D1*
X2589280Y2387537D1*
Y2381852D1*
X2407613Y1929967D2*
X2411848Y1929242D1*
X2417255Y1927486D1*
X2422319Y1924904D1*
X2426919Y1921563D1*
X2430939Y1917544D1*
X2434280Y1912944D1*
X2436861Y1907880D1*
X2438617Y1902473D1*
X2439507Y1896859D1*
Y1891173D1*
X2438617Y1885559D1*
X2436861Y1880152D1*
X2434280Y1875088D1*
X2430939Y1870488D1*
X2426919Y1866469D1*
X2422319Y1863128D1*
X2417255Y1860546D1*
X2411848Y1858790D1*
X2406234Y1857901D1*
X2400549D1*
X2394935Y1858790D1*
X2389528Y1860546D1*
X2384464Y1863128D1*
X2379864Y1866469D1*
X2375844Y1870488D1*
X2372503Y1875088D1*
X2369922Y1880152D1*
X2368166Y1885559D1*
X2367440Y1889794D1*
X1642411Y920347D2*
X1642029Y925473D1*
X1642475Y931139D1*
X1643802Y936667D1*
X1645978Y941919D1*
X1648948Y946767D1*
X1652639Y951089D1*
X1656962Y954781D1*
X1661810Y957751D1*
X1667062Y959927D1*
X1672589Y961254D1*
X1678256Y961700D1*
X1683923Y961254D1*
X1689450Y959927D1*
X1694702Y957751D1*
X1699550Y954781D1*
X1703873Y951089D1*
X1707565Y946767D1*
X1710534Y941919D1*
X1712710Y936667D1*
X1714037Y931139D1*
X1714483Y925473D1*
X1714101Y920347D1*
X2031919Y2040610D2*
X2033613Y2044559D1*
X2036583Y2049407D1*
X2040275Y2053730D1*
X2044597Y2057422D1*
X2049445Y2060391D1*
X2054697Y2062567D1*
X2060225Y2063894D1*
X2065891Y2064340D1*
X2071558Y2063894D1*
X2077086Y2062567D1*
X2082338Y2060391D1*
X2087185Y2057422D1*
X2091508Y2053730D1*
X2095200Y2049407D1*
X2098170Y2044559D1*
X2099864Y2040610D1*
D24*
X1444017Y2709639D3*
X1129057D3*
X814096D3*
D26*
X1797139Y1287765D3*
Y1220836D3*
X1750124Y1544158D3*
Y1611087D3*
X1497932Y1541940D3*
Y1608869D3*
X1728390Y1222142D3*
Y1289071D3*
X1815742Y1544158D3*
Y1611087D3*
X1728390Y1137765D3*
Y1070836D3*
D27*
X2050440Y1769147D3*
X1983511D3*
X1956680Y1031572D3*
X2023609D3*
D26*
X2531515Y1144013D3*
Y1210943D3*
D27*
X2228198Y1025464D3*
X2161269D3*
D26*
X2559641Y1519016D3*
Y1585945D3*
D28*
X1059571Y2315763D3*
Y2240960D3*
D27*
X2187578Y1766008D3*
X2254507D3*
D28*
X1153311Y2315763D3*
Y2240960D3*
X1240802Y2315763D3*
Y2240960D3*
X1328293Y2315763D3*
Y2240960D3*
D27*
X749631Y737540D3*
X816561D3*
X878395D3*
X945324D3*
X1135922D3*
X1202851D3*
X1264685D3*
X1331614D3*
D26*
X2206326Y2515931D3*
Y2582860D3*
D27*
X816940Y680841D3*
X750011D3*
D26*
X1400265Y677087D3*
Y744016D3*
D27*
X1331614Y681284D3*
X1264685D3*
D26*
X1877481Y2014981D3*
Y1948051D3*
D27*
X1136007Y681516D3*
X1202936D3*
X1007425D3*
X1074355D3*
D30*
X676328Y2469061D3*
X589714D3*
X676328Y2369071D3*
X589714D3*
D141*
X637740Y2569050D3*
Y2679286D3*
D33*
X484631Y2472185D3*
D34*
Y2572185D3*
D36*
X554550Y2201448D3*
Y2175857D3*
Y2150267D3*
Y2124676D3*
Y2099086D3*
D37*
X545692Y2276251D3*
Y2024282D3*
D38*
X449314Y2280188D3*
Y2020345D3*
D39*
X1745425Y2821214D3*
X1788733D3*
X1832040D3*
X1875347D3*
X1918654D3*
X1961961D3*
X2005268D3*
X2048575D3*
D40*
X1578496Y2796424D3*
D41*
Y2350361D3*
D42*
X1747788Y2318865D3*
X2054087D3*
D43*
X2125347Y2357447D3*
D44*
Y2711777D3*
D41*
X2141095Y2796424D3*
D142*
X469016Y1737765D3*
D45*
X569016Y1727765D3*
X669016Y1737765D3*
X769016Y1727765D3*
X869016Y1737765D3*
X969016Y1727765D3*
X1069016Y1737765D3*
X1169016Y1727765D3*
D33*
X2844016Y687765D3*
D34*
Y787765D3*
Y887765D3*
Y987765D3*
Y1087765D3*
Y1187765D3*
Y1287765D3*
Y1387765D3*
Y1487765D3*
Y1587765D3*
Y1687765D3*
Y1787765D3*
Y1887765D3*
Y1987765D3*
Y2087765D3*
Y2187765D3*
Y2287765D3*
Y2387765D3*
Y2487765D3*
Y2587765D3*
D33*
X2944016Y687765D3*
D34*
Y787765D3*
Y887765D3*
Y987765D3*
Y1087765D3*
Y1187765D3*
Y1287765D3*
Y1387765D3*
Y1487765D3*
Y1587765D3*
Y1687765D3*
Y1787765D3*
Y1887765D3*
Y1987765D3*
Y2087765D3*
Y2187765D3*
Y2287765D3*
Y2387765D3*
Y2487765D3*
Y2587765D3*
D143*
X1772289Y1350357D3*
Y1421223D3*
X2206326Y2331575D3*
Y2402441D3*
D27*
X1338024Y2083767D3*
X1404953D3*
X825221Y1922243D3*
X892150D3*
X681486D3*
X748415D3*
X1106441D3*
X1173370D3*
X965831D3*
X1032760D3*
X2606024Y831516D3*
X2672953D3*
X2278940Y819016D3*
X2345869D3*
X1945608D3*
X2012537D3*
X1612275D3*
X1679204D3*
X1787427Y2137939D3*
X1854356D3*
X1593656D3*
X1660586D3*
X2040582Y2128562D3*
X2107511D3*
X2768523Y2709649D3*
X2835452D3*
X2768523Y2784649D3*
X2835452D3*
D26*
X1781670Y1736273D3*
Y1803202D3*
X1856670Y1737897D3*
Y1804826D3*
X1631516Y1912767D3*
Y1845838D3*
D27*
X1339693Y2144189D3*
X1406622D3*
X678891Y1834752D3*
X611962D3*
X866622D3*
X933551D3*
X993953D3*
X1060882D3*
X806222D3*
X739293D3*
X484631D3*
X551561D3*
D26*
X1969181Y2125437D3*
Y2192366D3*
X2468798Y1094391D3*
Y1027462D3*
D27*
X822096Y2003485D3*
X889025D3*
X678361D3*
X745290D3*
X904244Y2376227D3*
X971173D3*
X1100192Y2003485D3*
X1167121D3*
D26*
X2412554Y1094205D3*
Y1027276D3*
X1562767Y1912767D3*
Y1845838D3*
D27*
X962706Y2003485D3*
X1029635D3*
X2662767Y887764D3*
X2595838D3*
X2339803Y875264D3*
X2272874D3*
X2012765Y875265D3*
X1945836D3*
X1681381Y875264D3*
X1614452D3*
D26*
X1912757Y2125265D3*
Y2192194D3*
D27*
X1783327Y2194016D3*
X1850256D3*
D26*
X1719007Y2125265D3*
Y2192194D3*
D27*
X1587755Y2194016D3*
X1654684D3*
D26*
X2172331Y2122311D3*
Y2189240D3*
D27*
X2041067Y2191068D3*
X2107996D3*
D26*
X1465089Y740011D3*
Y673082D3*
Y562781D3*
Y495852D3*
D27*
X1074087Y737540D3*
X1007158D3*
D26*
X1802625Y740011D3*
Y673082D3*
Y562781D3*
Y495852D3*
X2141988Y721259D3*
Y654330D3*
X2140160Y562781D3*
Y495852D3*
X2475485Y725298D3*
Y658369D3*
Y569032D3*
Y502103D3*
X1871382Y1089778D3*
Y1022849D3*
X1815126Y1089778D3*
Y1022849D3*
D27*
X2590893Y1212765D3*
X2657822D3*
X2590894Y1119019D3*
X2657823D3*
X2584643Y1025273D3*
X2651572D3*
X2540891Y2147139D3*
X2607820D3*
X2540893Y2075267D3*
X2607822D3*
X2541129Y1997302D3*
X2608058D3*
X2538448Y2523087D3*
X2605377D3*
D26*
X2663004Y1412862D3*
Y1345933D3*
D27*
X2394016Y2522141D3*
X2460945D3*
X878845Y681516D3*
X945775D3*
D45*
X1287765Y1756516D3*
Y2012516D3*
X1465765Y1756516D3*
Y2012516D3*
X1550265Y494016D3*
Y750016D3*
X1728265Y494016D3*
Y750016D3*
X1885683Y494016D3*
Y750016D3*
X2063683Y494016D3*
Y750016D3*
X2221099Y494016D3*
Y750016D3*
X2399099Y494016D3*
Y750016D3*
X2556516Y494016D3*
Y750016D3*
X2734516Y494016D3*
Y750016D3*
D49*
X1895000Y1562765D3*
Y1543080D3*
Y1523395D3*
Y1503710D3*
Y1484025D3*
Y1464340D3*
Y1444655D3*
Y1424970D3*
Y1405285D3*
Y1385600D3*
Y1365915D3*
Y1346230D3*
Y1326545D3*
Y1306860D3*
Y1287175D3*
Y1267490D3*
Y1247805D3*
Y1228120D3*
Y1208435D3*
Y1188750D3*
D50*
X1971772Y1111978D3*
X1991457D3*
X2011142D3*
X2030827D3*
X2050512D3*
X2070197D3*
X2089882D3*
X2109567D3*
X2129252D3*
X2148937D3*
X2168622D3*
X2188307D3*
X2207992D3*
X2227677D3*
X2247362D3*
X2267047D3*
X2286733D3*
X2306418D3*
X2326103D3*
X2345788D3*
D49*
X2422559Y1188750D3*
Y1208435D3*
Y1228120D3*
Y1247805D3*
Y1267490D3*
Y1287175D3*
Y1306860D3*
Y1326545D3*
Y1346230D3*
Y1365915D3*
Y1385600D3*
Y1405285D3*
Y1424970D3*
Y1444655D3*
Y1464340D3*
Y1484025D3*
Y1503710D3*
Y1523395D3*
Y1543080D3*
Y1562765D3*
D50*
X2345788Y1639537D3*
X2326103D3*
X2306418D3*
X2286733D3*
X2267047D3*
X2247362D3*
X2227677D3*
X2207992D3*
X2188307D3*
X2168622D3*
X2148937D3*
X2129252D3*
X2109567D3*
X2089882D3*
X2070197D3*
X2050512D3*
X2030827D3*
X2011142D3*
X1991457D3*
X1971772D3*
D144*
X825267Y2525264D3*
X787865D3*
X750464D3*
Y2422894D3*
X825267D3*
D52*
X742146Y2254622D3*
Y2234937D3*
Y2215252D3*
Y2195567D3*
Y2175882D3*
Y2156197D3*
Y2136512D3*
D53*
X781516Y2097142D3*
X801201D3*
X820886D3*
X840571D3*
X860256D3*
X879941D3*
X899626D3*
D52*
X938996Y2136512D3*
Y2156197D3*
Y2175882D3*
Y2195567D3*
Y2215252D3*
Y2234937D3*
Y2254622D3*
D53*
X899626Y2293992D3*
X879941D3*
X860256D3*
X840571D3*
X820886D3*
X801201D3*
X781516D3*
D54*
X840571Y2195567D3*
D55*
X544016Y994016D3*
X571575D3*
X599134D3*
X626693D3*
X654252D3*
X681811D3*
X709370D3*
X736929D3*
X764488D3*
X792047D3*
X819607D3*
X847166D3*
X874725D3*
X902284D3*
X929843D3*
X957402D3*
X984961D3*
X1012520D3*
X1040079D3*
X1067638D3*
X1095197D3*
X1122756D3*
X1150315D3*
X1177874D3*
X1205433D3*
X1232992D3*
X1260551D3*
X1288110D3*
X1315670D3*
X1343229D3*
D56*
X640891Y550265D3*
Y524675D3*
Y499084D3*
Y473494D3*
X869238D3*
Y499084D3*
Y524675D3*
Y550265D3*
D58*
X1300265Y594016D3*
X1280580D3*
X1260895D3*
X1241210D3*
X1221525D3*
D59*
X1211683Y564488D3*
Y544803D3*
Y525118D3*
D58*
X1241210Y495591D3*
X1260895D3*
X1280580D3*
X1300265D3*
D59*
X1310108Y525118D3*
Y544803D3*
Y564488D3*
D58*
X1221525Y495591D3*
D60*
X2590891Y2722137D3*
D61*
Y2822137D3*
X2490891Y2722137D3*
Y2822137D3*
X2390891Y2722137D3*
Y2822137D3*
D60*
X2290891Y2722137D3*
D61*
Y2822137D3*
D62*
X2065891Y2003391D3*
Y1953391D3*
Y1903391D3*
Y1853391D3*
X2278490D3*
Y1903391D3*
Y1953391D3*
Y2003391D3*
D30*
X1002629Y453393D3*
X1057747D3*
Y493156D3*
X1002629D3*
Y532920D3*
X1057747D3*
Y572684D3*
X1002629D3*
D64*
X1681381Y1466041D3*
Y1682576D3*
X1555397D3*
Y1466041D3*
D65*
X1584641Y1050269D3*
Y1240269D3*
M02*
