%TF.GenerationSoftware,Novarm,DipTrace,3.2.0.1*%
%TF.CreationDate,2017-11-24T17:42:08-08:00*%
%FSLAX26Y26*%
%MOIN*%
%TF.FileFunction,Drawing,Top*%
%TF.Part,Single*%
%ADD16C,0.001378*%
%ADD119C,0.006176*%
G75*
G01*
%LPD*%
X494000Y494000D2*
D16*
Y218064D1*
X2994000Y494000D2*
Y218064D1*
X1744000Y237749D2*
X533370D1*
G36*
X494000D2*
X533370Y245623D1*
Y229875D1*
X494000Y237749D1*
G37*
X1744000D2*
D16*
X2954630D1*
G36*
X2994000D2*
X2954630Y229875D1*
Y245623D1*
X2994000Y237749D1*
G37*
Y2794000D2*
D16*
X3326185D1*
X2994000Y494000D2*
X3326185D1*
X3306500Y1644000D2*
Y2754630D1*
G36*
Y2794000D2*
X3314374Y2754630D1*
X3298626D1*
X3306500Y2794000D1*
G37*
Y1644000D2*
D16*
Y533370D1*
G36*
Y494000D2*
X3298626Y533370D1*
X3314374D1*
X3306500Y494000D1*
G37*
X494000Y2794000D2*
D16*
Y3051185D1*
X2994000Y2794000D2*
Y3051185D1*
X1744000Y3031500D2*
X533370D1*
G36*
X494000D2*
X533370Y3039374D1*
Y3023626D1*
X494000Y3031500D1*
G37*
X1744000D2*
D16*
X2954630D1*
G36*
X2994000D2*
X2954630Y3023626D1*
Y3039374D1*
X2994000Y3031500D1*
G37*
X1140875Y2409625D2*
D16*
X1541810D1*
X1140875Y2919000D2*
X1541810D1*
X1522125Y2664312D2*
Y2448995D1*
G36*
Y2409625D2*
X1514251Y2448995D1*
X1529999D1*
X1522125Y2409625D1*
G37*
Y2664312D2*
D16*
Y2879630D1*
G36*
Y2919000D2*
X1529999Y2879630D1*
X1514251D1*
X1522125Y2919000D1*
G37*
X1676917Y280557D2*
D119*
Y282459D1*
X1678818Y286305D1*
X1680719Y288207D1*
X1684566Y290108D1*
X1692216D1*
X1696018Y288207D1*
X1697919Y286305D1*
X1699865Y282459D1*
Y278656D1*
X1697919Y274809D1*
X1694117Y269105D1*
X1674971Y249960D1*
X1701766D1*
X1737065Y290108D2*
X1717964D1*
X1716063Y272908D1*
X1717964Y274809D1*
X1723712Y276755D1*
X1729416D1*
X1735164Y274809D1*
X1739011Y271007D1*
X1740912Y265259D1*
Y261456D1*
X1739011Y255708D1*
X1735164Y251861D1*
X1729416Y249960D1*
X1723712D1*
X1717964Y251861D1*
X1716063Y253807D1*
X1714117Y257609D1*
X1764760Y290108D2*
X1759012Y288207D1*
X1755165Y282459D1*
X1753264Y272908D1*
Y267160D1*
X1755165Y257609D1*
X1759012Y251861D1*
X1764760Y249960D1*
X1768562D1*
X1774310Y251861D1*
X1778113Y257609D1*
X1780058Y267160D1*
Y272908D1*
X1778113Y282459D1*
X1774310Y288207D1*
X1768562Y290108D1*
X1764760D1*
X1778113Y282459D2*
X1755165Y257609D1*
X1803906Y290108D2*
X1798158Y288207D1*
X1794311Y282459D1*
X1792410Y272908D1*
Y267160D1*
X1794311Y257609D1*
X1798158Y251861D1*
X1803906Y249960D1*
X1807708D1*
X1813456Y251861D1*
X1817259Y257609D1*
X1819204Y267160D1*
Y272908D1*
X1817259Y282459D1*
X1813456Y288207D1*
X1807708Y290108D1*
X1803906D1*
X1817259Y282459D2*
X1794311Y257609D1*
X3349308Y1711083D2*
X3351209D1*
X3355056Y1709182D1*
X3356957Y1707281D1*
X3358859Y1703434D1*
Y1695784D1*
X3356957Y1691982D1*
X3355056Y1690081D1*
X3351209Y1688135D1*
X3347407D1*
X3343560Y1690081D1*
X3337856Y1693883D1*
X3318711Y1713029D1*
Y1686234D1*
X3358859Y1670036D2*
Y1649033D1*
X3343560Y1660485D1*
Y1654737D1*
X3341659Y1650935D1*
X3339757Y1649033D1*
X3334009Y1647088D1*
X3330207D1*
X3324459Y1649033D1*
X3320612Y1652836D1*
X3318711Y1658584D1*
Y1664332D1*
X3320612Y1670036D1*
X3322558Y1671937D1*
X3326360Y1673883D1*
X3358859Y1623240D2*
X3356957Y1628988D1*
X3351209Y1632835D1*
X3341659Y1634736D1*
X3335911D1*
X3326360Y1632835D1*
X3320612Y1628988D1*
X3318711Y1623240D1*
Y1619438D1*
X3320612Y1613690D1*
X3326360Y1609887D1*
X3335911Y1607942D1*
X3341659D1*
X3351209Y1609887D1*
X3356957Y1613690D1*
X3358859Y1619438D1*
Y1623240D1*
X3351209Y1609887D2*
X3326360Y1632835D1*
X3358859Y1584094D2*
X3356957Y1589842D1*
X3351209Y1593689D1*
X3341659Y1595590D1*
X3335911D1*
X3326360Y1593689D1*
X3320612Y1589842D1*
X3318711Y1584094D1*
Y1580292D1*
X3320612Y1574544D1*
X3326360Y1570741D1*
X3335911Y1568796D1*
X3341659D1*
X3351209Y1570741D1*
X3356957Y1574544D1*
X3358859Y1580292D1*
Y1584094D1*
X3351209Y1570741D2*
X3326360Y1593689D1*
X1676917Y3074308D2*
Y3076209D1*
X1678818Y3080056D1*
X1680719Y3081957D1*
X1684566Y3083859D1*
X1692216D1*
X1696018Y3081957D1*
X1697919Y3080056D1*
X1699865Y3076209D1*
Y3072407D1*
X1697919Y3068560D1*
X1694117Y3062856D1*
X1674971Y3043711D1*
X1701766D1*
X1737065Y3083859D2*
X1717964D1*
X1716063Y3066659D1*
X1717964Y3068560D1*
X1723712Y3070505D1*
X1729416D1*
X1735164Y3068560D1*
X1739011Y3064757D1*
X1740912Y3059009D1*
Y3055207D1*
X1739011Y3049459D1*
X1735164Y3045612D1*
X1729416Y3043711D1*
X1723712D1*
X1717964Y3045612D1*
X1716063Y3047558D1*
X1714117Y3051360D1*
X1764760Y3083859D2*
X1759012Y3081957D1*
X1755165Y3076209D1*
X1753264Y3066659D1*
Y3060911D1*
X1755165Y3051360D1*
X1759012Y3045612D1*
X1764760Y3043711D1*
X1768562D1*
X1774310Y3045612D1*
X1778113Y3051360D1*
X1780058Y3060911D1*
Y3066659D1*
X1778113Y3076209D1*
X1774310Y3081957D1*
X1768562Y3083859D1*
X1764760D1*
X1778113Y3076209D2*
X1755165Y3051360D1*
X1803906Y3083859D2*
X1798158Y3081957D1*
X1794311Y3076209D1*
X1792410Y3066659D1*
Y3060911D1*
X1794311Y3051360D1*
X1798158Y3045612D1*
X1803906Y3043711D1*
X1807708D1*
X1813456Y3045612D1*
X1817259Y3051360D1*
X1819204Y3060911D1*
Y3066659D1*
X1817259Y3076209D1*
X1813456Y3081957D1*
X1807708Y3083859D1*
X1803906D1*
X1817259Y3076209D2*
X1794311Y3051360D1*
X1574483Y2718492D2*
Y2737593D1*
X1557283Y2739495D1*
X1559185Y2737593D1*
X1561130Y2731845D1*
Y2726141D1*
X1559185Y2720393D1*
X1555382Y2716547D1*
X1549634Y2714645D1*
X1545831D1*
X1540083Y2716547D1*
X1536237Y2720393D1*
X1534335Y2726141D1*
Y2731845D1*
X1536237Y2737593D1*
X1538182Y2739495D1*
X1541985Y2741440D1*
X1574483Y2690798D2*
X1572582Y2696546D1*
X1566834Y2700393D1*
X1557283Y2702294D1*
X1551535D1*
X1541985Y2700393D1*
X1536237Y2696546D1*
X1534335Y2690798D1*
Y2686995D1*
X1536237Y2681247D1*
X1541985Y2677445D1*
X1551535Y2675499D1*
X1557283D1*
X1566834Y2677445D1*
X1572582Y2681247D1*
X1574483Y2686995D1*
Y2690798D1*
X1566834Y2677445D2*
X1541985Y2700393D1*
X1561130Y2638254D2*
X1555382Y2640200D1*
X1551535Y2644002D1*
X1549634Y2649751D1*
Y2651652D1*
X1551535Y2657400D1*
X1555382Y2661202D1*
X1561130Y2663148D1*
X1563031D1*
X1568779Y2661202D1*
X1572582Y2657400D1*
X1574483Y2651652D1*
Y2649751D1*
X1572582Y2644002D1*
X1568779Y2640200D1*
X1561130Y2638254D1*
X1551535D1*
X1541985Y2640200D1*
X1536237Y2644002D1*
X1534335Y2649751D1*
Y2653553D1*
X1536237Y2659301D1*
X1540083Y2661202D1*
X1538182Y2624002D2*
X1536237Y2625903D1*
X1534335Y2624002D1*
X1536237Y2622056D1*
X1538182Y2624002D1*
X1534335Y2590560D2*
X1574483D1*
X1547733Y2609705D1*
Y2581009D1*
M02*
