%TF.GenerationSoftware,Novarm,DipTrace,3.2.0.1*%
%TF.CreationDate,2017-11-24T17:42:06-08:00*%
%FSLAX26Y26*%
%MOIN*%
%TF.FileFunction,Paste,Top*%
%TF.Part,Single*%
%AMOUTLINE0*
4,1,4,
-0.049213,-0.023622,
0.049213,-0.023622,
0.049213,0.023622,
-0.049213,0.023622,
-0.049213,-0.023622,
0*%
%AMOUTLINE1*
4,1,4,
-0.012402,-0.016339,
0.012402,-0.016339,
0.012402,0.016339,
-0.012402,0.016339,
-0.012402,-0.016339,
0*%
%AMOUTLINE2*
4,1,4,
-0.035433,0.019685,
-0.035433,-0.019685,
0.035433,-0.019685,
0.035433,0.019685,
-0.035433,0.019685,
0*%
%AMOUTLINE3*
4,1,4,
-0.028543,0.007874,
-0.028543,-0.007874,
0.028543,-0.007874,
0.028543,0.007874,
-0.028543,0.007874,
0*%
%AMOUTLINE4*
4,1,4,
-0.029528,0.035433,
-0.029528,-0.035433,
0.029528,-0.035433,
0.029528,0.035433,
-0.029528,0.035433,
0*%
%AMOUTLINE5*
4,1,4,
-0.029528,0.049213,
-0.029528,-0.049213,
0.029528,-0.049213,
0.029528,0.049213,
-0.029528,0.049213,
0*%
%AMOUTLINE7*
4,1,4,
-0.023622,0.015748,
-0.023622,-0.015748,
0.023622,-0.015748,
0.023622,0.015748,
-0.023622,0.015748,
0*%
%AMOUTLINE8*
4,1,4,
0.023622,-0.015748,
0.023622,0.015748,
-0.023622,0.015748,
-0.023622,-0.015748,
0.023622,-0.015748,
0*%
%AMOUTLINE9*
4,1,4,
-0.015748,0.015748,
-0.015748,-0.015748,
0.015748,-0.015748,
0.015748,0.015748,
-0.015748,0.015748,
0*%
%AMOUTLINE10*
4,1,4,
0.00689,-0.01378,
0.00689,0.01378,
-0.00689,0.01378,
-0.00689,-0.01378,
0.00689,-0.01378,
0*%
%AMOUTLINE11*
4,1,4,
0.01378,0.00689,
-0.01378,0.00689,
-0.01378,-0.00689,
0.01378,-0.00689,
0.01378,0.00689,
0*%
%AMOUTLINE12*
4,1,4,
-0.00689,0.01378,
-0.00689,-0.01378,
0.00689,-0.01378,
0.00689,0.01378,
-0.00689,0.01378,
0*%
%AMOUTLINE13*
4,1,4,
-0.01378,-0.00689,
0.01378,-0.00689,
0.01378,0.00689,
-0.01378,0.00689,
-0.01378,-0.00689,
0*%
%AMOUTLINE14*
4,1,4,
0.019685,-0.019685,
0.019685,0.019685,
-0.019685,0.019685,
-0.019685,-0.019685,
0.019685,-0.019685,
0*%
%AMOUTLINE15*
4,1,4,
-0.010827,-0.023622,
0.010827,-0.023622,
0.010827,0.023622,
-0.010827,0.023622,
-0.010827,-0.023622,
0*%
%AMOUTLINE16*
4,1,4,
0.021654,0.015748,
-0.021654,0.015748,
-0.021654,-0.015748,
0.021654,-0.015748,
0.021654,0.015748,
0*%
%AMOUTLINE17*
4,1,4,
0.021654,0.019685,
-0.021654,0.019685,
-0.021654,-0.019685,
0.021654,-0.019685,
0.021654,0.019685,
0*%
%AMOUTLINE18*
4,1,4,
0.035433,-0.015748,
0.035433,0.015748,
-0.035433,0.015748,
-0.035433,-0.015748,
0.035433,-0.015748,
0*%
%AMOUTLINE19*
4,1,4,
-0.009843,0.005906,
-0.009843,-0.005906,
0.009843,-0.005906,
0.009843,0.005906,
-0.009843,0.005906,
0*%
%ADD24R,0.043307X0.03937*%
%ADD25R,0.03937X0.043307*%
%ADD46R,0.062992X0.011811*%
%ADD47R,0.011811X0.062992*%
%ADD48R,0.07874X0.023622*%
%ADD69R,0.119953X0.119953*%
%ADD71O,0.025465X0.003811*%
%ADD73O,0.003811X0.025465*%
%ADD79R,0.011685X0.003811*%
%ADD81R,0.003811X0.011685*%
%ADD97R,0.037669X0.041213*%
%ADD99R,0.037669X0.039244*%
%ADD101R,0.051055X0.037276*%
%ADD103R,0.037276X0.078614*%
%ADD105R,0.037276X0.090425*%
%ADD107R,0.023496X0.040819*%
%ADD113R,0.03137X0.035307*%
%ADD115R,0.035307X0.03137*%
%ADD117R,0.14948X0.133732*%
%ADD121OUTLINE0*%
%ADD122OUTLINE1*%
%ADD123OUTLINE2*%
%ADD124OUTLINE3*%
%ADD125OUTLINE4*%
%ADD126OUTLINE5*%
%ADD128OUTLINE7*%
%ADD129OUTLINE8*%
%ADD130OUTLINE9*%
%ADD131OUTLINE10*%
%ADD132OUTLINE11*%
%ADD133OUTLINE12*%
%ADD134OUTLINE13*%
%ADD135OUTLINE14*%
%ADD136OUTLINE15*%
%ADD137OUTLINE16*%
%ADD138OUTLINE17*%
%ADD139OUTLINE18*%
%ADD140OUTLINE19*%
G75*
G01*
%LPD*%
D117*
X1444001Y2709623D3*
X1129041D3*
X814080D3*
D24*
X2050424Y1750382D3*
X1983495D3*
D113*
X2206310Y2515915D3*
Y2582844D3*
D24*
X1956664Y1025306D3*
X2023593D3*
D25*
X2519000Y1119000D3*
Y1185929D3*
D24*
X2228182Y1019197D3*
X2161253D3*
D25*
X2559625Y1519000D3*
Y1585929D3*
X1787749Y1281500D3*
Y1214571D3*
X1715875Y1465871D3*
Y1532801D3*
X1647003Y1275156D3*
Y1208227D3*
X1590752Y1275156D3*
Y1208227D3*
D121*
X1031470Y2322129D3*
Y2192207D3*
X1193987Y2322129D3*
Y2192207D3*
D24*
X2187562Y1765992D3*
X2254491D3*
D25*
X1319000Y2284625D3*
Y2217696D3*
X1877465Y2014965D3*
Y1948035D3*
D24*
X1037752Y800249D3*
X1104681D3*
X1103378Y737749D3*
X1036449D3*
D25*
X587749Y944000D3*
Y1010929D3*
X589982Y796243D3*
Y729314D3*
D24*
X1469000Y1615875D3*
X1535929D3*
D122*
X587730Y2456546D3*
X678281D3*
X587730Y2356556D3*
X678281D3*
D123*
X637724Y2569034D3*
Y2679270D3*
G36*
X503745Y2330701D2*
X444756D1*
Y2259807D1*
X503745D1*
Y2330701D1*
G37*
G36*
X488001Y2179758D2*
X460474D1*
Y2120687D1*
X488001D1*
Y2179758D1*
G37*
G36*
X503745Y2040637D2*
X444756D1*
Y1969743D1*
X503745D1*
Y2040637D1*
G37*
D124*
X581500Y2150251D3*
Y2175841D3*
Y2099070D3*
Y2124659D3*
D125*
X474217Y2295329D3*
Y2005172D3*
D126*
Y2150251D3*
D124*
X581500Y2201430D3*
D107*
X1745409Y2821198D3*
X1788717D3*
X1832024D3*
X1875331D3*
X1918638D3*
X1961945D3*
X2005252D3*
X2048559D3*
D105*
X1578480Y2796408D3*
D103*
Y2350345D3*
D101*
X1747772Y2318849D3*
X2054071D3*
D99*
X2125331Y2357431D3*
D97*
Y2711761D3*
D103*
X2141079Y2796408D3*
D128*
X1775398Y1356591D3*
Y1427457D3*
D129*
X1781647Y1581614D3*
Y1510748D3*
D128*
X2206310Y2331559D3*
Y2402425D3*
D130*
X1407251Y2083751D3*
X1348196D3*
X908583Y1956501D3*
X849528D3*
X775251D3*
X716196D3*
X1175249D3*
X1116194D3*
X1041916D3*
X982861D3*
X2675249Y806500D3*
X2616194D3*
X2341916D3*
X2282861D3*
X2008584D3*
X1949529D3*
X1675251D3*
X1616196D3*
X1837902Y2137923D3*
X1778846D3*
X1644131D3*
X1585076D3*
X2131682Y2125421D3*
X2072627D3*
X2844000Y2684630D3*
X2784945D3*
X2844000Y2765881D3*
X2784945D3*
D25*
X1781654Y1736257D3*
Y1803186D3*
X1856654Y1737881D3*
Y1804810D3*
D24*
X1339677Y2144173D3*
X1406606D3*
D25*
X1631500Y1912751D3*
Y1845822D3*
X1969165Y2125421D3*
Y2192350D3*
X969000Y1812751D3*
Y1879680D3*
X869000Y1815875D3*
Y1882804D3*
X769000Y1814571D3*
Y1881500D3*
X669000Y1815875D3*
Y1882804D3*
X2440875Y1094000D3*
Y1027071D3*
X569000Y1884625D3*
Y1817696D3*
D24*
X843738Y2037751D3*
X910667D3*
X708320D3*
X775249D3*
D25*
X1562751Y1912751D3*
Y1845822D3*
D24*
X1109625Y2037751D3*
X1176554D3*
X975251D3*
X1042180D3*
X2675249Y875248D3*
X2608320D3*
X2344000D3*
X2277071D3*
X2012751D3*
X1945822D3*
X1681500D3*
X1614571D3*
D25*
X1912741Y2125249D3*
Y2192178D3*
D24*
X1783311Y2194000D3*
X1850240D3*
D25*
X1718991Y2125249D3*
Y2192178D3*
D24*
X1587739Y2194000D3*
X1654668D3*
D25*
X2206690Y2119171D3*
Y2186100D3*
D24*
X2075427Y2187928D3*
X2142356D3*
D25*
X1465073Y714995D3*
Y648066D3*
X1802609Y714995D3*
Y648066D3*
X2141972Y696243D3*
Y629314D3*
X2475469Y694031D3*
Y627102D3*
X2140144Y537765D3*
Y470836D3*
X1802609Y537765D3*
Y470836D3*
X2475469Y537765D3*
Y470836D3*
X1465073Y537765D3*
Y470836D3*
D24*
X456507Y800282D3*
X523436D3*
D25*
X962810Y762778D3*
Y695849D3*
X897175Y762778D3*
Y695849D3*
D24*
X2600251Y1203375D3*
X2667180D3*
X2600252Y1147125D3*
X2667181D3*
X2600251Y1090875D3*
X2667180D3*
X2540875Y2131500D3*
X2607804D3*
X2540877Y2075251D3*
X2607806D3*
X2541113Y2016034D3*
X2608042D3*
D25*
X920157Y930713D3*
Y997642D3*
D24*
X2538432Y2523071D3*
X2605361D3*
D25*
X2662988Y1412846D3*
Y1345917D3*
D24*
X2294707Y2527507D3*
X2361636D3*
D115*
X1469911Y1557411D3*
X1536840D3*
D46*
X1894984Y1562749D3*
Y1543064D3*
Y1523379D3*
Y1503694D3*
Y1484009D3*
Y1464324D3*
Y1444639D3*
Y1424954D3*
Y1405269D3*
Y1385584D3*
Y1365899D3*
Y1346214D3*
Y1326529D3*
Y1306844D3*
Y1287159D3*
Y1267474D3*
Y1247789D3*
Y1228104D3*
Y1208419D3*
Y1188734D3*
D47*
X1971756Y1111962D3*
X1991441D3*
X2011126D3*
X2030811D3*
X2050496D3*
X2070181D3*
X2089866D3*
X2109551D3*
X2129236D3*
X2148921D3*
X2168606D3*
X2188291D3*
X2207976D3*
X2227661D3*
X2247346D3*
X2267031D3*
X2286717D3*
X2306402D3*
X2326087D3*
X2345772D3*
D46*
X2422543Y1188734D3*
Y1208419D3*
Y1228104D3*
Y1247789D3*
Y1267474D3*
Y1287159D3*
Y1306844D3*
Y1326529D3*
Y1346214D3*
Y1365899D3*
Y1385584D3*
Y1405269D3*
Y1424954D3*
Y1444639D3*
Y1464324D3*
Y1484009D3*
Y1503694D3*
Y1523379D3*
Y1543064D3*
Y1562749D3*
D47*
X2345772Y1639521D3*
X2326087D3*
X2306402D3*
X2286717D3*
X2267031D3*
X2247346D3*
X2227661D3*
X2207976D3*
X2188291D3*
X2168606D3*
X2148921D3*
X2129236D3*
X2109551D3*
X2089866D3*
X2070181D3*
X2050496D3*
X2030811D3*
X2011126D3*
X1991441D3*
X1971756D3*
D131*
X856500Y2303375D3*
X830909D3*
X805319D3*
X779728D3*
D132*
X750201Y2273848D3*
Y2248257D3*
Y2222667D3*
Y2197076D3*
D133*
X779728Y2167549D3*
X805319D3*
X830909D3*
X856500D3*
D134*
X886028Y2197076D3*
Y2222667D3*
Y2248257D3*
Y2273848D3*
D135*
X818114Y2235462D3*
D136*
X834625Y2503375D3*
X797223D3*
X759822D3*
Y2401005D3*
X834625D3*
D48*
X2065875Y2003375D3*
Y1953375D3*
Y1903375D3*
Y1853375D3*
X2278474D3*
Y1903375D3*
Y1953375D3*
Y2003375D3*
D81*
X1281593Y812783D3*
X1261908D3*
X1242223D3*
X1222538D3*
X1202853D3*
D79*
X1193010Y783256D3*
Y763571D3*
Y743886D3*
D81*
X1222538Y714358D3*
X1242223D3*
X1261908D3*
X1281593D3*
D79*
X1291436Y743886D3*
Y763571D3*
Y783256D3*
D81*
X1202853Y714358D3*
D137*
X1028375Y944000D3*
D138*
X1175226Y969984D3*
D137*
X1028375Y995181D3*
D139*
X675280Y756528D3*
Y606528D3*
Y656528D3*
Y706528D3*
D140*
X728375Y947126D3*
Y966811D3*
Y986496D3*
X676407D3*
Y966811D3*
Y947126D3*
D73*
X1450816Y1481230D3*
X1431131D3*
X1411446D3*
X1391761D3*
X1372076D3*
X1352391D3*
X1332706D3*
X1313021D3*
D71*
X1285462Y1453671D3*
Y1433986D3*
Y1414301D3*
Y1394615D3*
Y1374930D3*
Y1355245D3*
Y1335560D3*
Y1315875D3*
D73*
X1313021Y1288316D3*
X1332706D3*
X1352391D3*
X1372076D3*
X1391761D3*
X1411446D3*
X1431131D3*
X1450816D3*
D71*
X1478375Y1315875D3*
Y1335560D3*
Y1355245D3*
Y1374930D3*
Y1394615D3*
Y1414301D3*
Y1433986D3*
Y1453671D3*
D69*
X1381919Y1384773D3*
M02*
