%TF.GenerationSoftware,Novarm,DipTrace,3.2.0.1*%
%TF.CreationDate,2018-06-25T19:00:41-08:00*%
%FSLAX26Y26*%
%MOIN*%
%TF.FileFunction,Drawing,Top*%
%TF.Part,Single*%
%ADD13C,0.001378*%
%ADD32C,0.006176*%
G75*
G01*
%LPD*%
X393701Y537451D2*
D13*
Y744636D1*
X524950Y687451D2*
Y744636D1*
X393701Y724951D2*
X524950D1*
X334646D2*
X354331D1*
G36*
X393701D2*
X354331Y717077D1*
Y732825D1*
X393701Y724951D1*
G37*
X584005D2*
D13*
X564320D1*
G36*
X524950D2*
X564320Y732825D1*
Y717077D1*
X524950Y724951D1*
G37*
X1049950Y687451D2*
D13*
Y757136D1*
X1193701Y537451D2*
Y757136D1*
X1049950Y737451D2*
X1193701D1*
X990895D2*
X1010580D1*
G36*
X1049950D2*
X1010580Y729577D1*
Y745325D1*
X1049950Y737451D1*
G37*
X1252756D2*
D13*
X1233071D1*
G36*
X1193701D2*
X1233071Y745325D1*
Y729577D1*
X1193701Y737451D1*
G37*
X393701Y537451D2*
D13*
Y1119636D1*
X1193701Y537451D2*
Y1119636D1*
X793701Y1099951D2*
X433071D1*
G36*
X393701D2*
X433071Y1107825D1*
Y1092077D1*
X393701Y1099951D1*
G37*
X793701D2*
D13*
X1154331D1*
G36*
X1193701D2*
X1154331Y1092077D1*
Y1107825D1*
X1193701Y1099951D1*
G37*
X943744Y999984D2*
D13*
X1507135D1*
X1193701Y393701D2*
X1507135D1*
X1487450Y696843D2*
Y960614D1*
G36*
Y999984D2*
X1495324Y960614D1*
X1479576D1*
X1487450Y999984D1*
G37*
Y696843D2*
D13*
Y433071D1*
G36*
Y393701D2*
X1479576Y433071D1*
X1495324D1*
X1487450Y393701D1*
G37*
X405618Y777310D2*
D32*
X426620D1*
X415168Y762011D1*
X420916D1*
X424719Y760110D1*
X426620Y758209D1*
X428565Y752461D1*
Y748658D1*
X426620Y742910D1*
X422817Y739063D1*
X417069Y737162D1*
X411321D1*
X405618Y739063D1*
X403716Y741009D1*
X401771Y744812D1*
X442818Y741009D2*
X440917Y739063D1*
X442818Y737162D1*
X444764Y739063D1*
X442818Y741009D1*
X460962Y777310D2*
X481964D1*
X470512Y762011D1*
X476260D1*
X480063Y760110D1*
X481964Y758209D1*
X483910Y752461D1*
Y748658D1*
X481964Y742910D1*
X478162Y739063D1*
X472414Y737162D1*
X466666D1*
X460962Y739063D1*
X459061Y741009D1*
X457115Y744812D1*
X500108Y777310D2*
X521110D1*
X509658Y762011D1*
X515406D1*
X519209Y760110D1*
X521110Y758209D1*
X523056Y752461D1*
Y748658D1*
X521110Y742910D1*
X517308Y739063D1*
X511560Y737162D1*
X505812D1*
X500108Y739063D1*
X498207Y741009D1*
X496261Y744812D1*
X1069090Y789810D2*
X1090093D1*
X1078641Y774511D1*
X1084389D1*
X1088191Y772610D1*
X1090093Y770709D1*
X1092038Y764961D1*
Y761158D1*
X1090093Y755410D1*
X1086290Y751563D1*
X1080542Y749662D1*
X1074794D1*
X1069090Y751563D1*
X1067189Y753509D1*
X1065244Y757312D1*
X1106291Y753509D2*
X1104390Y751563D1*
X1106291Y749662D1*
X1108236Y751563D1*
X1106291Y753509D1*
X1143536Y784106D2*
X1141634Y787909D1*
X1135886Y789810D1*
X1132084D1*
X1126336Y787909D1*
X1122489Y782161D1*
X1120588Y772610D1*
Y763060D1*
X1122489Y755410D1*
X1126336Y751563D1*
X1132084Y749662D1*
X1133985D1*
X1139689Y751563D1*
X1143536Y755410D1*
X1145437Y761158D1*
Y763060D1*
X1143536Y768808D1*
X1139689Y772610D1*
X1133985Y774511D1*
X1132084D1*
X1126336Y772610D1*
X1122489Y768808D1*
X1120588Y763060D1*
X1180736Y789810D2*
X1161635D1*
X1159734Y772610D1*
X1161635Y774511D1*
X1167383Y776457D1*
X1173087D1*
X1178835Y774511D1*
X1182682Y770709D1*
X1184583Y764961D1*
Y761158D1*
X1182682Y755410D1*
X1178835Y751563D1*
X1173087Y749662D1*
X1167383D1*
X1161635Y751563D1*
X1159734Y753509D1*
X1157788Y757312D1*
X718519Y1142759D2*
Y1144661D1*
X720420Y1148507D1*
X722321Y1150409D1*
X726168Y1152310D1*
X733817D1*
X737620Y1150409D1*
X739521Y1148507D1*
X741467Y1144661D1*
Y1140858D1*
X739521Y1137011D1*
X735718Y1131308D1*
X716573Y1112162D1*
X743368D1*
X767215Y1152310D2*
X761467Y1150409D1*
X757620Y1144661D1*
X755719Y1135110D1*
Y1129362D1*
X757620Y1119812D1*
X761467Y1114063D1*
X767215Y1112162D1*
X771018D1*
X776766Y1114063D1*
X780568Y1119812D1*
X782514Y1129362D1*
Y1135110D1*
X780568Y1144661D1*
X776766Y1150409D1*
X771018Y1152310D1*
X767215D1*
X780568Y1144661D2*
X757620Y1119812D1*
X796767Y1116009D2*
X794865Y1114063D1*
X796767Y1112162D1*
X798712Y1114063D1*
X796767Y1116009D1*
X814910Y1152310D2*
X835913D1*
X824461Y1137011D1*
X830209D1*
X834011Y1135110D1*
X835913Y1133209D1*
X837858Y1127461D1*
Y1123658D1*
X835913Y1117910D1*
X832110Y1114063D1*
X826362Y1112162D1*
X820614D1*
X814910Y1114063D1*
X813009Y1116009D1*
X811063Y1119812D1*
X852155Y1142759D2*
Y1144661D1*
X854056Y1148507D1*
X855958Y1150409D1*
X859804Y1152310D1*
X867454D1*
X871256Y1150409D1*
X873157Y1148507D1*
X875103Y1144661D1*
Y1140858D1*
X873157Y1137011D1*
X869355Y1131308D1*
X850209Y1112162D1*
X877004D1*
X1532159Y746748D2*
X1534105Y742901D1*
X1539809Y737153D1*
X1499661D1*
X1539809Y701854D2*
Y720955D1*
X1522609Y722856D1*
X1524510Y720955D1*
X1526456Y715207D1*
Y709503D1*
X1524510Y703755D1*
X1520708Y699908D1*
X1514959Y698007D1*
X1511157D1*
X1505409Y699908D1*
X1501562Y703755D1*
X1499661Y709503D1*
Y715207D1*
X1501562Y720955D1*
X1503508Y722856D1*
X1507310Y724802D1*
X1503508Y683754D2*
X1501562Y685656D1*
X1499661Y683754D1*
X1501562Y681809D1*
X1503508Y683754D1*
X1499661Y650312D2*
X1539809D1*
X1513058Y669457D1*
Y640761D1*
M02*
