%TF.GenerationSoftware,Novarm,DipTrace,3.2.0.1*%
%TF.CreationDate,2018-09-21T15:33:11-08:00*%
%FSLAX26Y26*%
%MOIN*%
%TF.FileFunction,Legend,Top*%
%TF.Part,Single*%
%ADD10C,0.009843*%
%ADD16C,0.006*%
%ADD18C,0.008*%
%ADD25C,0.003937*%
%ADD29C,0.009433*%
%ADD31C,0.005*%
%ADD35C,0.009994*%
%ADD47C,0.000013*%
%ADD49C,0.015768*%
%ADD52C,0.011774*%
%ADD57C,0.015401*%
%ADD59C,0.015697*%
%ADD65C,0.015422*%
%ADD142C,0.003088*%
%ADD143C,0.006176*%
%ADD144C,0.004632*%
%ADD145C,0.00772*%
G75*
G01*
%LPD*%
X1347462Y2571825D2*
D10*
X828722D1*
Y2928075D1*
X1347462D1*
Y2571825D1*
X1235021Y2459324D1*
X828722Y2571825D2*
X941242Y2459324D1*
X1235021D2*
X941242D1*
X1808636Y1253986D2*
X1785013D1*
X1824383Y1316978D2*
D25*
X1769265D1*
Y1190994D1*
X1824383D1*
Y1316978D1*
X1737997Y1577307D2*
D10*
X1761620D1*
X1722250Y1514315D2*
D25*
X1777368D1*
Y1640299D1*
X1722250D1*
Y1514315D1*
X1485805Y1575089D2*
D10*
X1509429D1*
X1470058Y1512097D2*
D25*
X1525176D1*
Y1638082D1*
X1470058D1*
Y1512097D1*
X1716263Y1255292D2*
D10*
X1739887D1*
X1700516Y1192299D2*
D25*
X1755634D1*
Y1318284D1*
X1700516D1*
Y1192299D1*
X1803615Y1577307D2*
D10*
X1827239D1*
X1787868Y1514315D2*
D25*
X1842986D1*
Y1640299D1*
X1787868D1*
Y1514315D1*
X1739887Y1103986D2*
D10*
X1716263D1*
X1755634Y1166978D2*
D25*
X1700516D1*
Y1040994D1*
X1755634D1*
Y1166978D1*
X1972567Y1750758D2*
D10*
Y1774382D1*
X2035559Y1735011D2*
D25*
X1909575D1*
Y1790129D1*
X2035559D1*
Y1735011D1*
X1989830Y1043069D2*
D10*
Y1019446D1*
X1926837Y1058816D2*
D25*
X2052822D1*
Y1003698D1*
X1926837D1*
Y1058816D1*
X2519388Y1152160D2*
D10*
X2543011D1*
X2503641Y1089168D2*
D25*
X2558759D1*
Y1215152D1*
X2503641D1*
Y1089168D1*
X2216292Y1000837D2*
D10*
Y1024460D1*
X2279284Y985089D2*
D25*
X2153299D1*
Y1040208D1*
X2279284D1*
Y985089D1*
X2569160Y1527313D2*
D10*
X2592783D1*
X2553412Y1464320D2*
D25*
X2608530D1*
Y1590305D1*
X2553412D1*
Y1464320D1*
X1175888Y2281299D2*
D10*
X1136514D1*
X1191634Y2352166D2*
D25*
X1120768D1*
Y2210433D1*
X1191634D1*
Y2352166D1*
X2239475Y1761883D2*
D10*
Y1738259D1*
X2176483Y1777630D2*
D25*
X2302467D1*
Y1722512D1*
X2176483D1*
Y1777630D1*
X1074263Y2277166D2*
D10*
X1050640D1*
X1090011Y2340158D2*
D25*
X1034893D1*
Y2214173D1*
X1090011D1*
Y2340158D1*
X1272674Y2278046D2*
D10*
X1233300D1*
X1288420Y2348912D2*
D25*
X1217554D1*
Y2207180D1*
X1288420D1*
Y2348912D1*
X1372665Y2278046D2*
D10*
X1333291D1*
X1388411Y2348912D2*
D25*
X1317545D1*
Y2207180D1*
X1388411D1*
Y2348912D1*
X782781Y749036D2*
D10*
Y725413D1*
X719789Y764784D2*
D25*
X845773D1*
Y709666D1*
X719789D1*
Y764784D1*
X911545Y749036D2*
D10*
Y725413D1*
X848553Y764784D2*
D25*
X974537D1*
Y709666D1*
X848553D1*
Y764784D1*
X1169071Y749036D2*
D10*
Y725413D1*
X1106079Y764784D2*
D25*
X1232063D1*
Y709666D1*
X1106079D1*
Y764784D1*
X1297835Y749036D2*
D10*
Y725413D1*
X1234843Y764784D2*
D25*
X1360827D1*
Y709666D1*
X1234843D1*
Y764784D1*
X2150453Y2552205D2*
D10*
X2174077D1*
X2134706Y2489213D2*
D25*
X2189824D1*
Y2615197D1*
X2134706D1*
Y2489213D1*
X783160Y668715D2*
D10*
Y692338D1*
X846152Y652967D2*
D25*
X720168D1*
Y708086D1*
X846152D1*
Y652967D1*
X1388139Y710236D2*
D10*
X1411762D1*
X1372391Y647244D2*
D25*
X1427509D1*
Y773229D1*
X1372391D1*
Y647244D1*
X1297835Y669157D2*
D10*
Y692781D1*
X1360827Y653410D2*
D25*
X1234843D1*
Y708528D1*
X1360827D1*
Y653410D1*
X1824114Y1991578D2*
D10*
X1800490D1*
X1839861Y2054570D2*
D25*
X1784743D1*
Y1928586D1*
X1839861D1*
Y2054570D1*
X1169156Y693013D2*
D10*
Y669389D1*
X1106164Y708760D2*
D25*
X1232149D1*
Y653642D1*
X1106164D1*
Y708760D1*
X1040575Y693013D2*
D10*
Y669389D1*
X977583Y708760D2*
D25*
X1103567D1*
Y653642D1*
X977583D1*
Y708760D1*
X664207Y2445124D2*
D10*
X601216D1*
X664207Y2492367D2*
X601216D1*
D29*
X701215Y2468746D3*
X664207Y2345135D2*
D10*
X601216D1*
X664207Y2392378D2*
X601216D1*
D29*
X701215Y2368756D3*
X667425Y2648852D2*
D18*
Y2598854D1*
X607425D2*
Y2648852D1*
X534316Y2621870D2*
D10*
X434316D1*
X534316Y2421870D2*
Y2621870D1*
Y2421870D2*
X434316D1*
Y2621870D1*
D35*
X586718Y2228694D3*
X391834Y2317274D2*
D31*
Y1982629D1*
X1528035Y2415472D2*
D10*
Y2730513D1*
Y2866214D2*
Y2893713D1*
X2083024D2*
Y2862030D1*
Y2667146D2*
Y2505740D1*
Y2321019D2*
Y2305476D1*
X2039865D1*
X1964488Y2328790D2*
X1736536D1*
X1653865Y2305476D2*
X1563292D1*
X1655688Y2893115D2*
X1663591Y2873986D1*
Y2759806D1*
X2030139Y2893115D2*
Y2759806D1*
X1663591D2*
G03X2030139Y2755621I190683J646859D01*
G01*
X1655688Y2893115D2*
X1528035Y2893713D1*
X2030139D2*
X2083024D1*
X1043741Y1782450D2*
D18*
X1093741D1*
X1118701Y1757450D1*
Y1707450D2*
X1093741Y1682450D1*
X918701Y1757450D2*
X943741Y1782450D1*
X993741D1*
X1018701Y1757450D1*
Y1707450D2*
X993741Y1682450D1*
X943741D1*
X918701Y1707450D1*
X1043741Y1782450D2*
X1018701Y1757450D1*
Y1707450D2*
X1043741Y1682450D1*
X1093741D2*
X1043741D1*
X743741Y1782450D2*
X793741D1*
X818701Y1757450D1*
Y1707450D2*
X793741Y1682450D1*
X818701Y1757450D2*
X843661Y1782450D1*
X893661D1*
X918701Y1757450D1*
Y1707450D2*
X893661Y1682450D1*
X843661D1*
X818701Y1707450D1*
X618701Y1757450D2*
X643741Y1782450D1*
X693741D1*
X718701Y1757450D1*
Y1707450D2*
X693741Y1682450D1*
X643741D1*
X618701Y1707450D1*
X743741Y1782450D2*
X718701Y1757450D1*
Y1707450D2*
X743741Y1682450D1*
X793741D2*
X743741D1*
X443661Y1782450D2*
X493661D1*
X518701Y1757450D1*
Y1707450D2*
X493661Y1682450D1*
X518701Y1757450D2*
X543661Y1782450D1*
X593661D1*
X618701Y1757450D1*
Y1707450D2*
X593661Y1682450D1*
X543661D1*
X518701Y1707450D1*
X418701Y1757450D2*
Y1707450D1*
X443661Y1782450D2*
X418701Y1757450D1*
Y1707450D2*
X443661Y1682450D1*
X493661D2*
X443661D1*
X1143741Y1782450D2*
X1193741D1*
X1218701Y1757450D1*
Y1707450D1*
X1193741Y1682450D1*
X1143741Y1782450D2*
X1118701Y1757450D1*
Y1707450D2*
X1143741Y1682450D1*
X1193741D2*
X1143741D1*
X2793701Y713450D2*
D10*
Y2637450D1*
Y637450D2*
Y713450D1*
X2893701Y637450D2*
X2793701D1*
X2893701D2*
Y2637450D1*
X2793701D1*
X2893701Y713450D2*
Y2637450D1*
Y637450D2*
Y713450D1*
X2993701Y637450D2*
X2893701D1*
X2993701D2*
Y2637450D1*
X2893701D1*
X1748352Y1373663D2*
D16*
Y1397288D1*
X1795596Y1373663D2*
Y1397288D1*
X2138643Y2361130D2*
Y2384755D1*
X2185887Y2361130D2*
Y2384755D1*
X1072662Y1906180D2*
D10*
Y1937676D1*
X932051Y1906180D2*
Y1937676D1*
X1304244Y2067704D2*
Y2099200D1*
X791441Y1906180D2*
Y1937676D1*
X647706Y1906180D2*
Y1937676D1*
X2572244Y815453D2*
Y846949D1*
X2245160Y802953D2*
Y834449D1*
X1911828Y802953D2*
Y834449D1*
X1578495Y802953D2*
Y834449D1*
X1672406Y2115626D2*
Y2147122D1*
X1478635Y2115626D2*
Y2147122D1*
X2341278Y2234271D2*
Y2265767D1*
X2734743Y2693586D2*
Y2725082D1*
Y2768586D2*
Y2800082D1*
X1658760Y1941979D2*
D25*
X1603642D1*
Y1815995D1*
X1658760D1*
Y1941979D1*
X1643013Y1878987D2*
D10*
X1619389D1*
X1309851Y2171433D2*
D25*
X1435835D1*
Y2116315D1*
X1309851D1*
Y2171433D1*
X1372843Y2155686D2*
D10*
Y2132062D1*
X1295326Y1702638D2*
D25*
X1421310D1*
Y1647520D1*
X1295326D1*
Y1702638D1*
X1358318Y1686891D2*
D10*
Y1663267D1*
X457914Y1958861D2*
D25*
X583898D1*
Y1903743D1*
X457914D1*
Y1958861D1*
X520906Y1943114D2*
D10*
Y1919490D1*
X1860066Y2089345D2*
D25*
X1915184D1*
Y2215330D1*
X1860066D1*
Y2089345D1*
X1875813Y2152337D2*
D10*
X1899437D1*
X2496042Y1123604D2*
D25*
X2440924D1*
Y997620D1*
X2496042D1*
Y1123604D1*
X2480295Y1060612D2*
D10*
X2456671D1*
X792253Y2030729D2*
D25*
X918238D1*
Y1975610D1*
X792253D1*
Y2030729D1*
X855246Y2014981D2*
D10*
Y1991358D1*
X648519Y2030729D2*
D25*
X774503D1*
Y1975610D1*
X648519D1*
Y2030729D1*
X711511Y2014981D2*
D10*
Y1991358D1*
X874402Y2403471D2*
D25*
X1000386D1*
Y2348353D1*
X874402D1*
Y2403471D1*
X937394Y2387724D2*
D10*
Y2364100D1*
X1070349Y2030729D2*
D25*
X1196334D1*
Y1975610D1*
X1070349D1*
Y2030729D1*
X1133341Y2014981D2*
D10*
Y1991358D1*
X2439798Y1123418D2*
D25*
X2384680D1*
Y997433D1*
X2439798D1*
Y1123418D1*
X2424051Y1060425D2*
D10*
X2400427D1*
X1590011Y1941979D2*
D25*
X1534893D1*
Y1815995D1*
X1590011D1*
Y1941979D1*
X1574263Y1878987D2*
D10*
X1550640D1*
X932864Y2030729D2*
D25*
X1058848D1*
Y1975610D1*
X932864D1*
Y2030729D1*
X995856Y2014981D2*
D10*
Y1991358D1*
X2691979Y859890D2*
D25*
X2565995D1*
Y915008D1*
X2691979D1*
Y859890D1*
X2628987Y875637D2*
D10*
Y899261D1*
X2369016Y847390D2*
D25*
X2243032D1*
Y902508D1*
X2369016D1*
Y847390D1*
X2306024Y863137D2*
D10*
Y886761D1*
X2041978Y847391D2*
D25*
X1915994D1*
Y902509D1*
X2041978D1*
Y847391D1*
X1978986Y863139D2*
D10*
Y886762D1*
X1710593Y847390D2*
D25*
X1584609D1*
Y902508D1*
X1710593D1*
Y847390D1*
X1647601Y863137D2*
D10*
Y886761D1*
X1672243Y2215011D2*
D25*
X1798227D1*
Y2159893D1*
X1672243D1*
Y2215011D1*
X1735235Y2199263D2*
D10*
Y2175640D1*
X1609891Y2089173D2*
D25*
X1665009D1*
Y2215158D1*
X1609891D1*
Y2089173D1*
X1625639Y2152166D2*
D10*
X1649262D1*
X1476671Y2215011D2*
D25*
X1602655D1*
Y2159893D1*
X1476671D1*
Y2215011D1*
X1539663Y2199263D2*
D10*
Y2175640D1*
X1915979Y2089255D2*
D25*
X1971097D1*
Y2215239D1*
X1915979D1*
Y2089255D1*
X1931726Y2152247D2*
D10*
X1955350D1*
X2342998Y2331604D2*
D25*
X2468982D1*
Y2276486D1*
X2342998D1*
Y2331604D1*
X2405990Y2315857D2*
D10*
Y2292233D1*
X1492334Y769223D2*
D25*
X1437215D1*
Y643239D1*
X1492334D1*
Y769223D1*
X1476586Y706231D2*
D10*
X1452963D1*
X1103299Y709666D2*
D25*
X977315D1*
Y764784D1*
X1103299D1*
Y709666D1*
X1040307Y725413D2*
D10*
Y749036D1*
X1829869Y769223D2*
D25*
X1774751D1*
Y643239D1*
X1829869D1*
Y769223D1*
X1814122Y706231D2*
D10*
X1790498D1*
X2169232Y750471D2*
D25*
X2114114D1*
Y624487D1*
X2169232D1*
Y750471D1*
X2153485Y687479D2*
D10*
X2129862D1*
X2502729Y754511D2*
D25*
X2447610D1*
Y628526D1*
X2502729D1*
Y754511D1*
X2486981Y691519D2*
D10*
X2463358D1*
X1898626Y1118991D2*
D25*
X1843508D1*
Y993007D1*
X1898626D1*
Y1118991D1*
X1882879Y1055999D2*
D10*
X1859255D1*
X1842370Y1118991D2*
D25*
X1787252D1*
Y993007D1*
X1842370D1*
Y1118991D1*
X1826623Y1055999D2*
D10*
X1802999D1*
X2588940Y2740029D2*
D25*
X2714924D1*
Y2684911D1*
X2588940D1*
Y2740029D1*
X2651932Y2724282D2*
D10*
Y2700658D1*
X2586722Y2812803D2*
D25*
X2712706D1*
Y2757685D1*
X2586722D1*
Y2812803D1*
X2649714Y2797056D2*
D10*
Y2773432D1*
X849003Y708760D2*
D25*
X974987D1*
Y653642D1*
X849003D1*
Y708760D1*
X911995Y693013D2*
D10*
Y669389D1*
X2228642Y2203495D2*
D25*
X2283760D1*
Y2329479D1*
X2228642D1*
Y2203495D1*
X2244389Y2266487D2*
D10*
X2268013D1*
X1306445Y1884201D2*
D47*
G02X1306445Y1884201I70006J0D01*
G01*
X1256448Y1969209D2*
D18*
Y1799193D1*
X1496453D2*
Y1969209D1*
X1337164Y2004189D2*
X1416443D1*
X1335979Y1764213D2*
X1416443D1*
X1568945Y602950D2*
D47*
G02X1568945Y602950I70006J0D01*
G01*
X1518948Y687958D2*
D18*
Y517942D1*
X1758953D2*
Y687958D1*
X1599664Y722938D2*
X1678943D1*
X1598479Y482962D2*
X1678943D1*
X1904362Y602950D2*
D47*
G02X1904362Y602950I70006J0D01*
G01*
X1854365Y687958D2*
D18*
Y517942D1*
X2094370D2*
Y687958D1*
X1935081Y722938D2*
X2014360D1*
X1933896Y482962D2*
X2014360D1*
X2239778Y602950D2*
D47*
G02X2239778Y602950I70006J0D01*
G01*
X2189781Y687958D2*
D18*
Y517942D1*
X2429786D2*
Y687958D1*
X2270497Y722938D2*
X2349776D1*
X2269312Y482962D2*
X2349776D1*
X2575195Y602950D2*
D47*
G02X2575195Y602950I70006J0D01*
G01*
X2525199Y687958D2*
D18*
Y517942D1*
X2765203D2*
Y687958D1*
X2605914Y722938D2*
X2685193D1*
X2604730Y482962D2*
X2685193D1*
X456202Y712451D2*
D25*
X493702D1*
Y749951D1*
X456202D1*
Y712451D1*
X524951D2*
X562451D1*
Y749951D1*
X524951D1*
Y712451D1*
X593678Y712678D2*
X631178D1*
Y750178D1*
X593678D1*
Y712678D1*
X456192Y631437D2*
X493692D1*
Y668937D1*
X456192D1*
Y631437D1*
X524935D2*
X562435D1*
Y668937D1*
X524935D1*
Y631437D1*
X593678D2*
X631178D1*
Y668937D1*
X593678D1*
Y631437D1*
X1941910Y1591998D2*
D10*
X2375020D1*
Y1158887D1*
X1941910D1*
Y1591998D1*
G36*
D2*
Y1552608D1*
X1981299Y1591998D1*
X1941910D1*
G37*
D49*
X1894695D3*
X814302Y2513763D2*
D47*
G02X814302Y2513763I4999J0D01*
G01*
X706303Y2456858D2*
D18*
Y2490670D1*
X806300D2*
Y2456858D1*
X766865Y2445861D2*
X745738D1*
X919022Y2293689D2*
D10*
X938686D1*
Y2273997D1*
X919022Y2096816D2*
X938686D1*
Y2116507D2*
Y2096816D1*
X741866D2*
X761556D1*
X741866Y2116507D2*
Y2096816D1*
D52*
X712382Y2254316D3*
X761556Y2293689D2*
D10*
X741866Y2273997D1*
X510110Y1092528D2*
Y1186316D1*
X1376494Y1086204D2*
Y1186234D1*
X400788Y807633D2*
X1451969D1*
Y1628893D1*
X400788D1*
Y807633D1*
X401839Y870459D2*
X1451864D1*
D57*
X666756Y439832D3*
X672018Y493897D2*
D10*
X790126D1*
X672018Y525388D2*
X790126D1*
Y493897D2*
Y525388D1*
X672018Y493897D2*
Y525388D1*
D59*
X1299964Y623378D3*
X2670977Y2874969D2*
D31*
Y2124969D1*
Y1874969D1*
X2090977D1*
Y2124969D1*
Y2874969D1*
X2205991D1*
X2255987D1*
X2305983D1*
X2355979D1*
X2405975D1*
X2455971D1*
X2505967D1*
X2555963D1*
X2670977D1*
Y2124969D2*
X2090977D1*
X2555963Y2874969D2*
X2580961Y2849969D1*
Y2799969D1*
X2555963Y2774969D1*
X2580961Y2749969D1*
Y2699969D1*
X2555963Y2674969D1*
X2505967D1*
X2480969Y2699969D1*
X2455971Y2674969D1*
X2405975D1*
X2380977Y2699969D1*
X2355979Y2674969D1*
X2305983D1*
X2280985Y2699969D1*
X2255987Y2674969D1*
X2205991D1*
X2180993Y2699969D1*
Y2749969D1*
X2205991Y2774969D1*
X2180993Y2799969D1*
Y2849969D1*
X2205991Y2874969D1*
X2255987D2*
X2280985Y2849969D1*
X2305983Y2874969D1*
X2355979D2*
X2380977Y2849969D1*
X2405975Y2874969D1*
X2455971D2*
X2480969Y2849969D1*
X2505967Y2874969D1*
X2348613Y2554666D2*
D10*
Y2357812D1*
X2450989Y2554666D2*
Y2357812D1*
X2348613D2*
X2450989D1*
X2380106Y2554666D2*
X2348613D1*
X2419495D2*
X2450989D1*
X2380106D2*
G03X2419495Y2554666I19694J9D01*
G01*
X982629Y590650D2*
D25*
X1077117D1*
Y436017D1*
X982629D1*
Y590650D1*
D65*
X1711300Y1414945D3*
X1685086Y1731553D2*
D10*
Y1745253D1*
X1551121Y1731553D2*
Y1745253D1*
X1685086D2*
X1551121D1*
X1685086Y1515080D2*
Y1632907D1*
X1551121Y1515080D2*
Y1632907D1*
Y1402734D2*
Y1416435D1*
X1685086Y1402734D2*
Y1416435D1*
Y1402734D2*
X1551121D1*
X1677200Y1005290D2*
Y1284619D1*
X1491452Y1005290D2*
Y1284619D1*
Y1005290D2*
G03X1677200Y1005290I92874J8216D01*
G01*
Y1284619D2*
G03X1491452Y1284619I-92874J-8216D01*
G01*
X1340390Y531440D2*
D18*
X1371668Y531486D1*
X1340390Y531440D2*
X1352890Y543940D1*
X1340390Y531440D2*
X1352890Y518941D1*
X1356015Y562689D2*
Y597065D1*
X1343513Y581440D1*
X1356015Y597065D2*
X1368515Y581440D1*
X1340487Y484593D2*
G02X1340487Y484593I15627J0D01*
G01*
X1352990Y484594D2*
G02X1352990Y484594I3125J0D01*
G01*
X1046023Y2441793D2*
D142*
Y2421697D1*
X1054645D1*
X1057519Y2422670D1*
X1058470Y2423621D1*
X1059420Y2425522D1*
Y2428396D1*
X1058470Y2430319D1*
X1057519Y2431270D1*
X1054645Y2432221D1*
X1057519Y2433193D1*
X1058470Y2434144D1*
X1059420Y2436045D1*
Y2437969D1*
X1058470Y2439870D1*
X1057519Y2440843D1*
X1054645Y2441793D1*
X1046023D1*
Y2432221D2*
X1054645D1*
X1080917Y2421697D2*
X1073245Y2441793D1*
X1065596Y2421697D1*
X1068470Y2428396D2*
X1078043D1*
X1093791Y2441793D2*
Y2421697D1*
X1087093Y2441793D2*
X1100490D1*
X1106666Y2437947D2*
X1108589Y2438919D1*
X1111463Y2441771D1*
Y2421697D1*
X1841061Y1249898D2*
X1839160Y1248947D1*
X1837236Y1247024D1*
X1836286Y1245122D1*
Y1241298D1*
X1837236Y1239374D1*
X1839160Y1237473D1*
X1841061Y1236500D1*
X1843935Y1235550D1*
X1848732D1*
X1851584Y1236500D1*
X1853508Y1237473D1*
X1855409Y1239374D1*
X1856382Y1241298D1*
Y1245122D1*
X1855409Y1247024D1*
X1853508Y1248947D1*
X1851584Y1249898D1*
X1840133Y1256073D2*
X1839160Y1257997D1*
X1836308Y1260871D1*
X1856382D1*
X1746262Y1669054D2*
X1745311Y1670955D1*
X1743388Y1672878D1*
X1741486Y1673829D1*
X1737662D1*
X1735738Y1672878D1*
X1733837Y1670955D1*
X1732864Y1669054D1*
X1731914Y1666180D1*
Y1661382D1*
X1732864Y1658530D1*
X1733837Y1656607D1*
X1735738Y1654706D1*
X1737662Y1653733D1*
X1741486D1*
X1743388Y1654706D1*
X1745311Y1656607D1*
X1746262Y1658530D1*
X1753410Y1669031D2*
Y1669982D1*
X1754361Y1671905D1*
X1755311Y1672856D1*
X1757235Y1673807D1*
X1761059D1*
X1762961Y1672856D1*
X1763911Y1671905D1*
X1764884Y1669982D1*
Y1668081D1*
X1763911Y1666157D1*
X1762010Y1663305D1*
X1752437Y1653733D1*
X1765835D1*
X1490945Y1663712D2*
X1489995Y1665614D1*
X1488071Y1667537D1*
X1486170Y1668488D1*
X1482345D1*
X1480422Y1667537D1*
X1478521Y1665614D1*
X1477548Y1663712D1*
X1476597Y1660838D1*
Y1656041D1*
X1477548Y1653189D1*
X1478521Y1651266D1*
X1480422Y1649364D1*
X1482345Y1648392D1*
X1486170D1*
X1488071Y1649364D1*
X1489995Y1651266D1*
X1490945Y1653189D1*
X1499045Y1668465D2*
X1509546D1*
X1503820Y1660816D1*
X1506694D1*
X1508595Y1659866D1*
X1509546Y1658915D1*
X1510518Y1656041D1*
Y1654140D1*
X1509546Y1651266D1*
X1507644Y1649342D1*
X1504770Y1648392D1*
X1501896D1*
X1499045Y1649342D1*
X1498094Y1650315D1*
X1497121Y1652216D1*
X1716181Y1348561D2*
X1715231Y1350463D1*
X1713307Y1352386D1*
X1711406Y1353337D1*
X1707581D1*
X1705658Y1352386D1*
X1703757Y1350463D1*
X1702784Y1348561D1*
X1701833Y1345687D1*
Y1340890D1*
X1702784Y1338038D1*
X1703757Y1336115D1*
X1705658Y1334213D1*
X1707581Y1333241D1*
X1711406D1*
X1713307Y1334213D1*
X1715231Y1336115D1*
X1716181Y1338038D1*
X1731930Y1333241D2*
Y1353315D1*
X1722357Y1339939D1*
X1736705D1*
X1811880Y1669071D2*
X1810929Y1670972D1*
X1809006Y1672895D1*
X1807105Y1673846D1*
X1803280D1*
X1801356Y1672895D1*
X1799455Y1670972D1*
X1798482Y1669071D1*
X1797532Y1666197D1*
Y1661399D1*
X1798482Y1658547D1*
X1799455Y1656624D1*
X1801356Y1654723D1*
X1803280Y1653750D1*
X1807105D1*
X1809006Y1654723D1*
X1810929Y1656624D1*
X1811880Y1658547D1*
X1829529Y1673824D2*
X1819979D1*
X1819028Y1665224D1*
X1819979Y1666174D1*
X1822853Y1667147D1*
X1825705D1*
X1828579Y1666174D1*
X1830502Y1664273D1*
X1831453Y1661399D1*
Y1659498D1*
X1830502Y1656624D1*
X1828579Y1654701D1*
X1825705Y1653750D1*
X1822853D1*
X1819979Y1654701D1*
X1819028Y1655673D1*
X1818056Y1657575D1*
X1723394Y1025400D2*
X1722443Y1027301D1*
X1720520Y1029225D1*
X1718618Y1030175D1*
X1714794D1*
X1712870Y1029225D1*
X1710969Y1027301D1*
X1709996Y1025400D1*
X1709046Y1022526D1*
Y1017729D1*
X1709996Y1014877D1*
X1710969Y1012953D1*
X1712870Y1011052D1*
X1714794Y1010079D1*
X1718618D1*
X1720520Y1011052D1*
X1722443Y1012953D1*
X1723394Y1014877D1*
X1741043Y1027301D2*
X1740093Y1029203D1*
X1737219Y1030153D1*
X1735317D1*
X1732443Y1029203D1*
X1730520Y1026329D1*
X1729569Y1021553D1*
Y1016778D1*
X1730520Y1012953D1*
X1732443Y1011030D1*
X1735317Y1010079D1*
X1736268D1*
X1739120Y1011030D1*
X1741043Y1012953D1*
X1741994Y1015827D1*
Y1016778D1*
X1741043Y1019652D1*
X1739120Y1021553D1*
X1736268Y1022504D1*
X1735317D1*
X1732443Y1021553D1*
X1730520Y1019652D1*
X1729569Y1016778D1*
X1969972Y1814635D2*
X1969021Y1816536D1*
X1967098Y1818460D1*
X1965196Y1819410D1*
X1961372D1*
X1959448Y1818460D1*
X1957547Y1816536D1*
X1956574Y1814635D1*
X1955624Y1811761D1*
Y1806963D1*
X1956574Y1804112D1*
X1957547Y1802188D1*
X1959448Y1800287D1*
X1961372Y1799314D1*
X1965196D1*
X1967098Y1800287D1*
X1969021Y1802188D1*
X1969972Y1804112D1*
X1979972Y1799314D2*
X1989545Y1819388D1*
X1976147D1*
X2077861Y1033328D2*
X2076910Y1035229D1*
X2074987Y1037152D1*
X2073085Y1038103D1*
X2069261D1*
X2067337Y1037152D1*
X2065436Y1035229D1*
X2064463Y1033328D1*
X2063513Y1030454D1*
Y1025656D1*
X2064463Y1022804D1*
X2065436Y1020881D1*
X2067337Y1018980D1*
X2069261Y1018007D1*
X2073085D1*
X2074987Y1018980D1*
X2076910Y1020881D1*
X2077861Y1022804D1*
X2088812Y1038081D2*
X2085960Y1037130D1*
X2084987Y1035229D1*
Y1033306D1*
X2085960Y1031404D1*
X2087861Y1030432D1*
X2091686Y1029481D1*
X2094560Y1028530D1*
X2096461Y1026607D1*
X2097412Y1024706D1*
Y1021832D1*
X2096461Y1019930D1*
X2095510Y1018958D1*
X2092636Y1018007D1*
X2088812D1*
X2085960Y1018958D1*
X2084987Y1019930D1*
X2084036Y1021832D1*
Y1024706D1*
X2084987Y1026607D1*
X2086910Y1028530D1*
X2089762Y1029481D1*
X2093587Y1030432D1*
X2095510Y1031404D1*
X2096461Y1033306D1*
Y1035229D1*
X2095510Y1037130D1*
X2092636Y1038081D1*
X2088812D1*
X2529080Y1242783D2*
X2528129Y1244684D1*
X2526206Y1246608D1*
X2524304Y1247558D1*
X2520480D1*
X2518556Y1246608D1*
X2516655Y1244684D1*
X2515682Y1242783D1*
X2514732Y1239909D1*
Y1235112D1*
X2515682Y1232260D1*
X2516655Y1230336D1*
X2518556Y1228435D1*
X2520480Y1227462D1*
X2524304D1*
X2526206Y1228435D1*
X2528129Y1230336D1*
X2529080Y1232260D1*
X2547702Y1240860D2*
X2546729Y1237986D1*
X2544828Y1236062D1*
X2541954Y1235112D1*
X2541003D1*
X2538129Y1236062D1*
X2536228Y1237986D1*
X2535255Y1240860D1*
Y1241810D1*
X2536228Y1244684D1*
X2538129Y1246586D1*
X2541003Y1247536D1*
X2541954D1*
X2544828Y1246586D1*
X2546729Y1244684D1*
X2547702Y1240860D1*
Y1236062D1*
X2546729Y1231287D1*
X2544828Y1228413D1*
X2541954Y1227462D1*
X2540053D1*
X2537179Y1228413D1*
X2536228Y1230336D1*
X2301950Y1017844D2*
X2300999Y1019745D1*
X2299076Y1021668D1*
X2297174Y1022619D1*
X2293350D1*
X2291426Y1021668D1*
X2289525Y1019745D1*
X2288552Y1017844D1*
X2287602Y1014970D1*
Y1010172D1*
X2288552Y1007320D1*
X2289525Y1005397D1*
X2291426Y1003496D1*
X2293350Y1002523D1*
X2297174D1*
X2299076Y1003496D1*
X2300999Y1005397D1*
X2301950Y1007320D1*
X2308125Y1018772D2*
X2310049Y1019745D1*
X2312923Y1022597D1*
Y1002523D1*
X2324847Y1022597D2*
X2321972Y1021646D1*
X2320049Y1018772D1*
X2319098Y1013997D1*
Y1011123D1*
X2320049Y1006347D1*
X2321972Y1003473D1*
X2324847Y1002523D1*
X2326748D1*
X2329622Y1003473D1*
X2331523Y1006347D1*
X2332496Y1011123D1*
Y1013997D1*
X2331523Y1018772D1*
X2329622Y1021646D1*
X2326748Y1022597D1*
X2324847D1*
X2331523Y1018772D2*
X2320049Y1006347D1*
X2577735Y1614345D2*
X2576785Y1616246D1*
X2574861Y1618170D1*
X2572960Y1619120D1*
X2569135D1*
X2567212Y1618170D1*
X2565311Y1616246D1*
X2564338Y1614345D1*
X2563387Y1611471D1*
Y1606673D1*
X2564338Y1603822D1*
X2565311Y1601898D1*
X2567212Y1599997D1*
X2569135Y1599024D1*
X2572960D1*
X2574861Y1599997D1*
X2576785Y1601898D1*
X2577735Y1603822D1*
X2583911Y1615273D2*
X2585834Y1616246D1*
X2588708Y1619098D1*
Y1599024D1*
X2594884Y1615273D2*
X2596807Y1616246D1*
X2599681Y1619098D1*
Y1599024D1*
X1148086Y2376634D2*
X1147136Y2378535D1*
X1145212Y2380458D1*
X1143311Y2381409D1*
X1139486D1*
X1137563Y2380458D1*
X1135662Y2378535D1*
X1134689Y2376634D1*
X1133738Y2373760D1*
Y2368962D1*
X1134689Y2366110D1*
X1135662Y2364187D1*
X1137563Y2362286D1*
X1139486Y2361313D1*
X1143311D1*
X1145212Y2362286D1*
X1147136Y2364187D1*
X1148086Y2366110D1*
X1154262Y2377562D2*
X1156185Y2378535D1*
X1159059Y2381387D1*
Y2361313D1*
X1166208Y2376611D2*
Y2377562D1*
X1167158Y2379485D1*
X1168109Y2380436D1*
X1170032Y2381387D1*
X1173857D1*
X1175758Y2380436D1*
X1176709Y2379485D1*
X1177682Y2377562D1*
Y2375661D1*
X1176709Y2373737D1*
X1174808Y2370886D1*
X1165235Y2361313D1*
X1178632D1*
X2231384Y1799015D2*
X2230433Y1800917D1*
X2228510Y1802840D1*
X2226609Y1803791D1*
X2222784D1*
X2220861Y1802840D1*
X2218959Y1800917D1*
X2217987Y1799015D1*
X2217036Y1796141D1*
Y1791344D1*
X2217987Y1788492D1*
X2218959Y1786569D1*
X2220861Y1784667D1*
X2222784Y1783695D1*
X2226609D1*
X2228510Y1784667D1*
X2230433Y1786569D1*
X2231384Y1788492D1*
X2237560Y1799944D2*
X2239483Y1800917D1*
X2242357Y1803769D1*
Y1783695D1*
X2250456Y1803769D2*
X2260957D1*
X2255232Y1796119D1*
X2258106D1*
X2260007Y1795169D1*
X2260957Y1794218D1*
X2261930Y1791344D1*
Y1789443D1*
X2260957Y1786569D1*
X2259056Y1784645D1*
X2256182Y1783695D1*
X2253308D1*
X2250456Y1784645D1*
X2249506Y1785618D1*
X2248533Y1787519D1*
X1051318Y2364180D2*
X1050368Y2366081D1*
X1048444Y2368004D1*
X1046543Y2368955D1*
X1042718D1*
X1040795Y2368004D1*
X1038894Y2366081D1*
X1037921Y2364180D1*
X1036970Y2361305D1*
Y2356508D1*
X1037921Y2353656D1*
X1038894Y2351733D1*
X1040795Y2349832D1*
X1042718Y2348859D1*
X1046543D1*
X1048444Y2349832D1*
X1050368Y2351733D1*
X1051318Y2353656D1*
X1057494Y2365108D2*
X1059417Y2366081D1*
X1062291Y2368933D1*
Y2348859D1*
X1078040D2*
Y2368933D1*
X1068467Y2355557D1*
X1082815D1*
X1244888Y2373426D2*
X1243937Y2375328D1*
X1242014Y2377251D1*
X1240113Y2378202D1*
X1236288D1*
X1234365Y2377251D1*
X1232463Y2375328D1*
X1231491Y2373426D1*
X1230540Y2370552D1*
Y2365755D1*
X1231491Y2362903D1*
X1232463Y2360980D1*
X1234365Y2359078D1*
X1236288Y2358106D1*
X1240113D1*
X1242014Y2359078D1*
X1243937Y2360980D1*
X1244888Y2362903D1*
X1251064Y2374355D2*
X1252987Y2375328D1*
X1255861Y2378179D1*
Y2358106D1*
X1273511Y2378179D2*
X1263960D1*
X1263010Y2369579D1*
X1263960Y2370530D1*
X1266834Y2371503D1*
X1269686D1*
X1272560Y2370530D1*
X1274484Y2368629D1*
X1275434Y2365755D1*
Y2363854D1*
X1274484Y2360980D1*
X1272560Y2359056D1*
X1269686Y2358106D1*
X1266834D1*
X1263960Y2359056D1*
X1263010Y2360029D1*
X1262037Y2361930D1*
X1345365Y2373426D2*
X1344415Y2375328D1*
X1342491Y2377251D1*
X1340590Y2378202D1*
X1336765D1*
X1334842Y2377251D1*
X1332941Y2375328D1*
X1331968Y2373426D1*
X1331017Y2370552D1*
Y2365755D1*
X1331968Y2362903D1*
X1332941Y2360980D1*
X1334842Y2359078D1*
X1336765Y2358106D1*
X1340590D1*
X1342491Y2359078D1*
X1344415Y2360980D1*
X1345365Y2362903D1*
X1351541Y2374355D2*
X1353464Y2375328D1*
X1356338Y2378179D1*
Y2358106D1*
X1373988Y2375328D2*
X1373037Y2377229D1*
X1370163Y2378179D1*
X1368262D1*
X1365388Y2377229D1*
X1363465Y2374355D1*
X1362514Y2369579D1*
Y2364804D1*
X1363465Y2360980D1*
X1365388Y2359056D1*
X1368262Y2358106D1*
X1369213D1*
X1372065Y2359056D1*
X1373988Y2360980D1*
X1374939Y2363854D1*
Y2364804D1*
X1373988Y2367678D1*
X1372065Y2369579D1*
X1369213Y2370530D1*
X1368262D1*
X1365388Y2369579D1*
X1363465Y2367678D1*
X1362514Y2364804D1*
X774682Y789298D2*
X773731Y791199D1*
X771808Y793122D1*
X769907Y794073D1*
X766082D1*
X764159Y793122D1*
X762257Y791199D1*
X761285Y789298D1*
X760334Y786424D1*
Y781626D1*
X761285Y778774D1*
X762257Y776851D1*
X764159Y774950D1*
X766082Y773977D1*
X769907D1*
X771808Y774950D1*
X773731Y776851D1*
X774682Y778774D1*
X780858Y790226D2*
X782781Y791199D1*
X785655Y794051D1*
Y773977D1*
X795655D2*
X805228Y794051D1*
X791831D1*
X903457Y789298D2*
X902506Y791199D1*
X900583Y793122D1*
X898682Y794073D1*
X894857D1*
X892933Y793122D1*
X891032Y791199D1*
X890059Y789298D1*
X889109Y786424D1*
Y781626D1*
X890059Y778774D1*
X891032Y776851D1*
X892933Y774950D1*
X894857Y773977D1*
X898682D1*
X900583Y774950D1*
X902506Y776851D1*
X903457Y778774D1*
X909633Y790226D2*
X911556Y791199D1*
X914430Y794051D1*
Y773977D1*
X925381Y794051D2*
X922529Y793100D1*
X921556Y791199D1*
Y789276D1*
X922529Y787374D1*
X924430Y786401D1*
X928255Y785451D1*
X931129Y784500D1*
X933030Y782577D1*
X933981Y780676D1*
Y777802D1*
X933030Y775900D1*
X932080Y774928D1*
X929206Y773977D1*
X925381D1*
X922529Y774928D1*
X921556Y775900D1*
X920606Y777802D1*
Y780676D1*
X921556Y782577D1*
X923480Y784500D1*
X926332Y785451D1*
X930156Y786401D1*
X932080Y787374D1*
X933030Y789276D1*
Y791199D1*
X932080Y793100D1*
X929206Y794051D1*
X925381D1*
X1161447Y789298D2*
X1160497Y791199D1*
X1158573Y793122D1*
X1156672Y794073D1*
X1152847D1*
X1150924Y793122D1*
X1149023Y791199D1*
X1148050Y789298D1*
X1147099Y786424D1*
Y781626D1*
X1148050Y778774D1*
X1149023Y776851D1*
X1150924Y774950D1*
X1152847Y773977D1*
X1156672D1*
X1158573Y774950D1*
X1160497Y776851D1*
X1161447Y778774D1*
X1167623Y790226D2*
X1169546Y791199D1*
X1172420Y794051D1*
Y773977D1*
X1191043Y787374D2*
X1190070Y784500D1*
X1188169Y782577D1*
X1185295Y781626D1*
X1184344D1*
X1181470Y782577D1*
X1179569Y784500D1*
X1178596Y787374D1*
Y788325D1*
X1179569Y791199D1*
X1181470Y793100D1*
X1184344Y794051D1*
X1185295D1*
X1188169Y793100D1*
X1190070Y791199D1*
X1191043Y787374D1*
Y782577D1*
X1190070Y777802D1*
X1188169Y774928D1*
X1185295Y773977D1*
X1183394D1*
X1180519Y774928D1*
X1179569Y776851D1*
X1285436Y789298D2*
X1284485Y791199D1*
X1282562Y793122D1*
X1280661Y794073D1*
X1276836D1*
X1274912Y793122D1*
X1273011Y791199D1*
X1272038Y789298D1*
X1271088Y786424D1*
Y781626D1*
X1272038Y778774D1*
X1273011Y776851D1*
X1274912Y774950D1*
X1276836Y773977D1*
X1280661D1*
X1282562Y774950D1*
X1284485Y776851D1*
X1285436Y778774D1*
X1292584Y789276D2*
Y790226D1*
X1293535Y792150D1*
X1294486Y793100D1*
X1296409Y794051D1*
X1300234D1*
X1302135Y793100D1*
X1303085Y792150D1*
X1304058Y790226D1*
Y788325D1*
X1303085Y786401D1*
X1301184Y783550D1*
X1291612Y773977D1*
X1305009D1*
X1316933Y794051D2*
X1314059Y793100D1*
X1312135Y790226D1*
X1311185Y785451D1*
Y782577D1*
X1312135Y777802D1*
X1314059Y774928D1*
X1316933Y773977D1*
X1318834D1*
X1321708Y774928D1*
X1323609Y777802D1*
X1324582Y782577D1*
Y785451D1*
X1323609Y790226D1*
X1321708Y793100D1*
X1318834Y794051D1*
X1316933D1*
X1323609Y790226D2*
X1312135Y777802D1*
X2110192Y2544106D2*
X2108291Y2543155D1*
X2106368Y2541232D1*
X2105417Y2539331D1*
Y2535506D1*
X2106368Y2533583D1*
X2108291Y2531681D1*
X2110192Y2530709D1*
X2113066Y2529758D1*
X2117864D1*
X2120716Y2530709D1*
X2122639Y2531681D1*
X2124540Y2533583D1*
X2125513Y2535506D1*
Y2539331D1*
X2124540Y2541232D1*
X2122639Y2543155D1*
X2120716Y2544106D1*
X2110214Y2551254D2*
X2109264D1*
X2107340Y2552205D1*
X2106390Y2553156D1*
X2105439Y2555079D1*
Y2558904D1*
X2106390Y2560805D1*
X2107340Y2561756D1*
X2109264Y2562728D1*
X2111165D1*
X2113088Y2561756D1*
X2115940Y2559854D1*
X2125513Y2550282D1*
Y2563679D1*
X2109264Y2569855D2*
X2108291Y2571778D1*
X2105439Y2574652D1*
X2125513D1*
X773886Y638859D2*
X772935Y640761D1*
X771012Y642684D1*
X769111Y643635D1*
X765286D1*
X763363Y642684D1*
X761461Y640761D1*
X760489Y638859D1*
X759538Y635985D1*
Y631188D1*
X760489Y628336D1*
X761461Y626413D1*
X763363Y624511D1*
X765286Y623539D1*
X769111D1*
X771012Y624511D1*
X772935Y626413D1*
X773886Y628336D1*
X781034Y638837D2*
Y639788D1*
X781985Y641711D1*
X782936Y642662D1*
X784859Y643612D1*
X788684D1*
X790585Y642662D1*
X791536Y641711D1*
X792508Y639788D1*
Y637887D1*
X791536Y635963D1*
X789634Y633111D1*
X780062Y623539D1*
X793459D1*
X800607Y638837D2*
Y639788D1*
X801558Y641711D1*
X802509Y642662D1*
X804432Y643612D1*
X808257D1*
X810158Y642662D1*
X811109Y641711D1*
X812081Y639788D1*
Y637887D1*
X811109Y635963D1*
X809207Y633111D1*
X799635Y623539D1*
X813032D1*
X1387003Y632563D2*
X1386052Y634464D1*
X1384129Y636387D1*
X1382227Y637338D1*
X1378403D1*
X1376479Y636387D1*
X1374578Y634464D1*
X1373605Y632563D1*
X1372655Y629689D1*
Y624891D1*
X1373605Y622039D1*
X1374578Y620116D1*
X1376479Y618215D1*
X1378403Y617242D1*
X1382227D1*
X1384129Y618215D1*
X1386052Y620116D1*
X1387003Y622039D1*
X1394151Y632541D2*
Y633491D1*
X1395102Y635415D1*
X1396052Y636365D1*
X1397976Y637316D1*
X1401800D1*
X1403702Y636365D1*
X1404652Y635415D1*
X1405625Y633491D1*
Y631590D1*
X1404652Y629667D1*
X1402751Y626815D1*
X1393178Y617242D1*
X1406576D1*
X1414675Y637316D2*
X1425176D1*
X1419450Y629667D1*
X1422324D1*
X1424225Y628716D1*
X1425176Y627765D1*
X1426149Y624891D1*
Y622990D1*
X1425176Y620116D1*
X1423275Y618193D1*
X1420401Y617242D1*
X1417527D1*
X1414675Y618193D1*
X1413724Y619165D1*
X1412751Y621067D1*
X1252105Y637669D2*
X1251154Y639570D1*
X1249231Y641494D1*
X1247330Y642444D1*
X1243505D1*
X1241582Y641494D1*
X1239680Y639570D1*
X1238708Y637669D1*
X1237757Y634795D1*
Y629998D1*
X1238708Y627146D1*
X1239680Y625222D1*
X1241582Y623321D1*
X1243505Y622348D1*
X1247330D1*
X1249231Y623321D1*
X1251154Y625222D1*
X1252105Y627146D1*
X1259253Y637647D2*
Y638598D1*
X1260204Y640521D1*
X1261155Y641472D1*
X1263078Y642422D1*
X1266903D1*
X1268804Y641472D1*
X1269755Y640521D1*
X1270727Y638598D1*
Y636696D1*
X1269755Y634773D1*
X1267853Y631921D1*
X1258281Y622348D1*
X1271678D1*
X1287426D2*
Y642422D1*
X1277854Y629047D1*
X1292202D1*
X1760229Y1979179D2*
X1758328Y1978228D1*
X1756404Y1976305D1*
X1755454Y1974403D1*
Y1970579D1*
X1756404Y1968655D1*
X1758328Y1966754D1*
X1760229Y1965781D1*
X1763103Y1964831D1*
X1767900D1*
X1770752Y1965781D1*
X1772676Y1966754D1*
X1774577Y1968655D1*
X1775550Y1970579D1*
Y1974403D1*
X1774577Y1976305D1*
X1772676Y1978228D1*
X1770752Y1979179D1*
X1760251Y1986327D2*
X1759301D1*
X1757377Y1987278D1*
X1756427Y1988228D1*
X1755476Y1990152D1*
Y1993976D1*
X1756427Y1995878D1*
X1757377Y1996828D1*
X1759301Y1997801D1*
X1761202D1*
X1763125Y1996828D1*
X1765977Y1994927D1*
X1775550Y1985354D1*
Y1998752D1*
X1755476Y2016401D2*
Y2006851D1*
X1764076Y2005900D1*
X1763125Y2006851D1*
X1762152Y2009725D1*
Y2012577D1*
X1763125Y2015451D1*
X1765026Y2017374D1*
X1767900Y2018325D1*
X1769802D1*
X1772676Y2017374D1*
X1774599Y2015451D1*
X1775550Y2012577D1*
Y2009725D1*
X1774599Y2006851D1*
X1773626Y2005900D1*
X1771725Y2004927D1*
X1157244Y639514D2*
X1156293Y641415D1*
X1154370Y643339D1*
X1152468Y644289D1*
X1148644D1*
X1146720Y643339D1*
X1144819Y641415D1*
X1143846Y639514D1*
X1142896Y636640D1*
Y631843D1*
X1143846Y628991D1*
X1144819Y627067D1*
X1146720Y625166D1*
X1148644Y624193D1*
X1152468D1*
X1154370Y625166D1*
X1156293Y627067D1*
X1157244Y628991D1*
X1164392Y639492D2*
Y640443D1*
X1165343Y642366D1*
X1166293Y643317D1*
X1168217Y644267D1*
X1172041D1*
X1173943Y643317D1*
X1174893Y642366D1*
X1175866Y640443D1*
Y638541D1*
X1174893Y636618D1*
X1172992Y633766D1*
X1163419Y624193D1*
X1176817D1*
X1194466Y641415D2*
X1193516Y643317D1*
X1190642Y644267D1*
X1188740D1*
X1185866Y643317D1*
X1183943Y640443D1*
X1182992Y635667D1*
Y630892D1*
X1183943Y627067D1*
X1185866Y625144D1*
X1188740Y624193D1*
X1189691D1*
X1192543Y625144D1*
X1194466Y627067D1*
X1195417Y629941D1*
Y630892D1*
X1194466Y633766D1*
X1192543Y635667D1*
X1189691Y636618D1*
X1188740D1*
X1185866Y635667D1*
X1183943Y633766D1*
X1182992Y630892D1*
X1028176Y639514D2*
X1027225Y641415D1*
X1025302Y643339D1*
X1023401Y644289D1*
X1019576D1*
X1017653Y643339D1*
X1015751Y641415D1*
X1014779Y639514D1*
X1013828Y636640D1*
Y631843D1*
X1014779Y628991D1*
X1015751Y627067D1*
X1017653Y625166D1*
X1019576Y624193D1*
X1023401D1*
X1025302Y625166D1*
X1027225Y627067D1*
X1028176Y628991D1*
X1035324Y639492D2*
Y640443D1*
X1036275Y642366D1*
X1037226Y643317D1*
X1039149Y644267D1*
X1042974D1*
X1044875Y643317D1*
X1045826Y642366D1*
X1046798Y640443D1*
Y638541D1*
X1045826Y636618D1*
X1043924Y633766D1*
X1034352Y624193D1*
X1047749D1*
X1057749D2*
X1067322Y644267D1*
X1053925D1*
X604575Y2521656D2*
Y2501560D1*
X611274D1*
X614148Y2502533D1*
X616071Y2504434D1*
X617022Y2506358D1*
X617972Y2509210D1*
Y2514007D1*
X617022Y2516881D1*
X616071Y2518782D1*
X614148Y2520706D1*
X611274Y2521656D1*
X604575D1*
X624148Y2517809D2*
X626071Y2518782D1*
X628945Y2521634D1*
Y2501560D1*
X600275Y2421667D2*
Y2401571D1*
X606974D1*
X609848Y2402543D1*
X611771Y2404445D1*
X612722Y2406368D1*
X613672Y2409220D1*
Y2414017D1*
X612722Y2416891D1*
X611771Y2418793D1*
X609848Y2420716D1*
X606974Y2421667D1*
X600275D1*
X620821Y2416869D2*
Y2417820D1*
X621771Y2419743D1*
X622722Y2420694D1*
X624645Y2421645D1*
X628470D1*
X630371Y2420694D1*
X631322Y2419743D1*
X632295Y2417820D1*
Y2415919D1*
X631322Y2413995D1*
X629421Y2411143D1*
X619848Y2401571D1*
X633245D1*
X638162Y2727946D2*
X625716D1*
Y2707850D1*
Y2718373D2*
X633365D1*
X644338Y2724099D2*
X646261Y2725072D1*
X649135Y2727924D1*
Y2707850D1*
X483616Y2663660D2*
Y2648361D1*
X482666Y2645487D1*
X481693Y2644536D1*
X479792Y2643564D1*
X477868D1*
X475967Y2644536D1*
X475016Y2645487D1*
X474044Y2648361D1*
Y2650262D1*
X489792Y2659813D2*
X491715Y2660786D1*
X494589Y2663637D1*
Y2643564D1*
X613810Y2156140D2*
Y2140841D1*
X612859Y2137967D1*
X611886Y2137017D1*
X609985Y2136044D1*
X608062D1*
X606160Y2137017D1*
X605210Y2137967D1*
X604237Y2140841D1*
Y2142743D1*
X620958Y2151342D2*
Y2152293D1*
X621909Y2154216D1*
X622859Y2155167D1*
X624783Y2156118D1*
X628607D1*
X630509Y2155167D1*
X631459Y2154216D1*
X632432Y2152293D1*
Y2150392D1*
X631459Y2148468D1*
X629558Y2145617D1*
X619985Y2136044D1*
X633383D1*
X494454Y2022872D2*
X493481Y2024796D1*
X490629Y2027670D1*
X510703D1*
X490629Y2039593D2*
X491580Y2036719D1*
X494454Y2034796D1*
X499229Y2033845D1*
X502103D1*
X506879Y2034796D1*
X509753Y2036719D1*
X510703Y2039593D1*
Y2041495D1*
X509753Y2044369D1*
X506879Y2046270D1*
X502103Y2047243D1*
X499229D1*
X494454Y2046270D1*
X491580Y2044369D1*
X490629Y2041495D1*
Y2039593D1*
X494454Y2046270D2*
X506879Y2034796D1*
X494454Y2053418D2*
X493481Y2055342D1*
X490629Y2058216D1*
X510703D1*
X494454Y2064391D2*
X493481Y2066315D1*
X490629Y2069189D1*
X510703D1*
X490629Y2080140D2*
X491580Y2077288D1*
X493481Y2076315D1*
X495405D1*
X497306Y2077288D1*
X498279Y2079189D1*
X499229Y2083014D1*
X500180Y2085888D1*
X502103Y2087789D1*
X504005Y2088740D1*
X506879D1*
X508780Y2087789D1*
X509753Y2086838D1*
X510703Y2083964D1*
Y2080140D1*
X509753Y2077288D1*
X508780Y2076315D1*
X506879Y2075364D1*
X504005D1*
X502103Y2076315D1*
X500180Y2078238D1*
X499229Y2081090D1*
X498279Y2084915D1*
X497306Y2086838D1*
X495405Y2087789D1*
X493481D1*
X491580Y2086838D1*
X490629Y2083964D1*
Y2080140D1*
X494454Y2094915D2*
X493481Y2096839D1*
X490629Y2099713D1*
X510703D1*
X497306Y2118335D2*
X500180Y2117362D1*
X502103Y2115461D1*
X503054Y2112587D1*
Y2111637D1*
X502103Y2108762D1*
X500180Y2106861D1*
X497306Y2105888D1*
X496355D1*
X493481Y2106861D1*
X491580Y2108762D1*
X490629Y2111637D1*
Y2112587D1*
X491580Y2115461D1*
X493481Y2117362D1*
X497306Y2118335D1*
X502103D1*
X506879Y2117362D1*
X509753Y2115461D1*
X510703Y2112587D1*
Y2110686D1*
X509753Y2107812D1*
X507829Y2106861D1*
X490629Y2126434D2*
Y2136935D1*
X498279Y2131210D1*
Y2134084D1*
X499229Y2135985D1*
X500180Y2136935D1*
X503054Y2137908D1*
X504955D1*
X507829Y2136935D1*
X509753Y2135034D1*
X510703Y2132160D1*
Y2129286D1*
X509753Y2126434D1*
X508780Y2125484D1*
X506879Y2124511D1*
X500666Y2144084D2*
Y2155138D1*
X490629Y2167062D2*
X491580Y2164188D1*
X494454Y2162264D1*
X499229Y2161314D1*
X502103D1*
X506879Y2162264D1*
X509753Y2164188D1*
X510703Y2167062D1*
Y2168963D1*
X509753Y2171837D1*
X506879Y2173738D1*
X502103Y2174711D1*
X499229D1*
X494454Y2173738D1*
X491580Y2171837D1*
X490629Y2168963D1*
Y2167062D1*
X494454Y2173738D2*
X506879Y2162264D1*
X490629Y2186635D2*
X491580Y2183761D1*
X494454Y2181837D1*
X499229Y2180887D1*
X502103D1*
X506879Y2181837D1*
X509753Y2183761D1*
X510703Y2186635D1*
Y2188536D1*
X509753Y2191410D1*
X506879Y2193311D1*
X502103Y2194284D1*
X499229D1*
X494454Y2193311D1*
X491580Y2191410D1*
X490629Y2188536D1*
Y2186635D1*
X494454Y2193311D2*
X506879Y2181837D1*
X490629Y2206208D2*
X491580Y2203334D1*
X494454Y2201410D1*
X499229Y2200460D1*
X502103D1*
X506879Y2201410D1*
X509753Y2203334D1*
X510703Y2206208D1*
Y2208109D1*
X509753Y2210983D1*
X506879Y2212884D1*
X502103Y2213857D1*
X499229D1*
X494454Y2212884D1*
X491580Y2210983D1*
X490629Y2208109D1*
Y2206208D1*
X494454Y2212884D2*
X506879Y2201410D1*
X494454Y2220033D2*
X493481Y2221956D1*
X490629Y2224830D1*
X510703D1*
X490607Y2231006D2*
X510703D1*
Y2242480D1*
X490607Y2261102D2*
Y2248655D1*
X510703D1*
X500180D2*
Y2256305D1*
X1798231Y2882382D2*
Y2867083D1*
X1797280Y2864209D1*
X1796308Y2863258D1*
X1794406Y2862286D1*
X1792483D1*
X1790582Y2863258D1*
X1789631Y2864209D1*
X1788658Y2867083D1*
Y2868984D1*
X1806330Y2882360D2*
X1816831D1*
X1811105Y2874710D1*
X1813979D1*
X1815881Y2873760D1*
X1816831Y2872809D1*
X1817804Y2869935D1*
Y2868034D1*
X1816831Y2865160D1*
X1814930Y2863236D1*
X1812056Y2862286D1*
X1809182D1*
X1806330Y2863236D1*
X1805379Y2864209D1*
X1804407Y2866110D1*
X1675343Y2269032D2*
Y2289128D1*
X1667694Y2269032D1*
X1660044Y2289128D1*
Y2269032D1*
X1681519Y2289128D2*
X1682469Y2288178D1*
X1683442Y2289128D1*
X1682469Y2290101D1*
X1681519Y2289128D1*
X1682469Y2282430D2*
Y2269032D1*
X1689618Y2282430D2*
Y2269032D1*
Y2276682D2*
X1690590Y2279556D1*
X1692492Y2281479D1*
X1694415Y2282430D1*
X1697289D1*
X1714961Y2279556D2*
X1713038Y2281479D1*
X1711114Y2282430D1*
X1708262D1*
X1706339Y2281479D1*
X1704438Y2279556D1*
X1703465Y2276682D1*
Y2274781D1*
X1704438Y2271906D1*
X1706339Y2270005D1*
X1708262Y2269032D1*
X1711114D1*
X1713038Y2270005D1*
X1714961Y2271906D1*
X1725912Y2282430D2*
X1724011Y2281479D1*
X1722087Y2279556D1*
X1721137Y2276682D1*
Y2274781D1*
X1722087Y2271906D1*
X1724011Y2270005D1*
X1725912Y2269032D1*
X1728786D1*
X1730709Y2270005D1*
X1732611Y2271906D1*
X1733583Y2274781D1*
Y2276682D1*
X1732611Y2279556D1*
X1730709Y2281479D1*
X1728786Y2282430D1*
X1725912D1*
X1772597Y2286254D2*
X1770695Y2288178D1*
X1767821Y2289128D1*
X1763997D1*
X1761123Y2288178D1*
X1759199Y2286254D1*
Y2284353D1*
X1760172Y2282430D1*
X1761123Y2281479D1*
X1763024Y2280529D1*
X1768772Y2278605D1*
X1770695Y2277655D1*
X1771646Y2276682D1*
X1772597Y2274781D1*
Y2271906D1*
X1770695Y2270005D1*
X1767821Y2269032D1*
X1763997D1*
X1761123Y2270005D1*
X1759199Y2271906D1*
X1778772Y2289128D2*
Y2269032D1*
X1785471D1*
X1788345Y2270005D1*
X1790268Y2271906D1*
X1791219Y2273830D1*
X1792170Y2276682D1*
Y2281479D1*
X1791219Y2284353D1*
X1790268Y2286254D1*
X1788345Y2288178D1*
X1785471Y2289128D1*
X1778772D1*
X1832134Y2284353D2*
X1831183Y2286254D1*
X1829260Y2288178D1*
X1827359Y2289128D1*
X1823534D1*
X1821610Y2288178D1*
X1819709Y2286254D1*
X1818736Y2284353D1*
X1817786Y2281479D1*
Y2276682D1*
X1818736Y2273830D1*
X1819709Y2271906D1*
X1821610Y2270005D1*
X1823534Y2269032D1*
X1827359D1*
X1829260Y2270005D1*
X1831183Y2271906D1*
X1832134Y2273830D1*
X1849783Y2282430D2*
Y2269032D1*
Y2279556D2*
X1847882Y2281479D1*
X1845959Y2282430D1*
X1843107D1*
X1841184Y2281479D1*
X1839282Y2279556D1*
X1838309Y2276682D1*
Y2274781D1*
X1839282Y2271906D1*
X1841184Y2270005D1*
X1843107Y2269032D1*
X1845959D1*
X1847882Y2270005D1*
X1849783Y2271906D1*
X1855959Y2282430D2*
Y2269032D1*
Y2276682D2*
X1856932Y2279556D1*
X1858833Y2281479D1*
X1860757Y2282430D1*
X1863631D1*
X1881280Y2289128D2*
Y2269032D1*
Y2279556D2*
X1879379Y2281479D1*
X1877456Y2282430D1*
X1874582D1*
X1872680Y2281479D1*
X1870757Y2279556D1*
X1869806Y2276682D1*
Y2274781D1*
X1870757Y2271906D1*
X1872680Y2270005D1*
X1874582Y2269032D1*
X1877456D1*
X1879379Y2270005D1*
X1881280Y2271906D1*
X1920294Y2286254D2*
X1918392Y2288178D1*
X1915518Y2289128D1*
X1911694D1*
X1908820Y2288178D1*
X1906896Y2286254D1*
Y2284353D1*
X1907869Y2282430D1*
X1908820Y2281479D1*
X1910721Y2280529D1*
X1916469Y2278605D1*
X1918392Y2277655D1*
X1919343Y2276682D1*
X1920294Y2274781D1*
Y2271906D1*
X1918392Y2270005D1*
X1915518Y2269032D1*
X1911694D1*
X1908820Y2270005D1*
X1906896Y2271906D1*
X1926469Y2289128D2*
Y2269032D1*
X1937420Y2282430D2*
X1935519Y2281479D1*
X1933596Y2279556D1*
X1932645Y2276682D1*
Y2274781D1*
X1933596Y2271906D1*
X1935519Y2270005D1*
X1937420Y2269032D1*
X1940294D1*
X1942218Y2270005D1*
X1944119Y2271906D1*
X1945092Y2274781D1*
Y2276682D1*
X1944119Y2279556D1*
X1942218Y2281479D1*
X1940294Y2282430D1*
X1937420D1*
X1954141Y2289128D2*
Y2272857D1*
X1955092Y2270005D1*
X1957015Y2269032D1*
X1958917D1*
X1951267Y2282430D2*
X1957966D1*
X1156976Y1817990D2*
Y1802692D1*
X1156026Y1799818D1*
X1155053Y1798867D1*
X1153152Y1797894D1*
X1151228D1*
X1149327Y1798867D1*
X1148376Y1799818D1*
X1147403Y1802692D1*
Y1804593D1*
X1172725Y1797894D2*
Y1817968D1*
X1163152Y1804593D1*
X1177500D1*
X2838701Y2666740D2*
Y2651441D1*
X2837750Y2648567D1*
X2836777Y2647616D1*
X2834876Y2646644D1*
X2832953D1*
X2831052Y2647616D1*
X2830101Y2648567D1*
X2829128Y2651441D1*
Y2653342D1*
X2856350Y2666717D2*
X2846800D1*
X2845849Y2658118D1*
X2846800Y2659068D1*
X2849674Y2660041D1*
X2852526D1*
X2855400Y2659068D1*
X2857323Y2657167D1*
X2858274Y2654293D1*
Y2652392D1*
X2857323Y2649518D1*
X2855400Y2647594D1*
X2852526Y2646644D1*
X2849674D1*
X2846800Y2647594D1*
X2845849Y2648567D1*
X2844877Y2650468D1*
X2939187Y2666740D2*
Y2651441D1*
X2938237Y2648567D1*
X2937264Y2647616D1*
X2935363Y2646644D1*
X2933439D1*
X2931538Y2647616D1*
X2930587Y2648567D1*
X2929615Y2651441D1*
Y2653342D1*
X2956837Y2663866D2*
X2955886Y2665767D1*
X2953012Y2666717D1*
X2951111D1*
X2948237Y2665767D1*
X2946314Y2662893D1*
X2945363Y2658118D1*
Y2653342D1*
X2946314Y2649518D1*
X2948237Y2647594D1*
X2951111Y2646644D1*
X2952062D1*
X2954913Y2647594D1*
X2956837Y2649518D1*
X2957787Y2652392D1*
Y2653342D1*
X2956837Y2656216D1*
X2954913Y2658118D1*
X2952062Y2659068D1*
X2951111D1*
X2948237Y2658118D1*
X2946314Y2656216D1*
X2945363Y2653342D1*
X1760750Y1465946D2*
Y1445850D1*
X1772224D1*
X1778400Y1462099D2*
X1780323Y1463072D1*
X1783197Y1465924D1*
Y1445850D1*
X2146742Y2453413D2*
Y2433317D1*
X2158216D1*
X2165364Y2448615D2*
Y2449566D1*
X2166315Y2451489D1*
X2167265Y2452440D1*
X2169189Y2453391D1*
X2173014D1*
X2174915Y2452440D1*
X2175865Y2451489D1*
X2176838Y2449566D1*
Y2447665D1*
X2175865Y2445741D1*
X2173964Y2442889D1*
X2164391Y2433317D1*
X2177789D1*
X1104326Y1970460D2*
Y1950364D1*
X1097627Y1970460D2*
X1111024D1*
X1117200D2*
X1130597Y1950364D1*
Y1970460D2*
X1117200Y1950364D1*
X1136773Y1970460D2*
Y1950364D1*
X1143472D1*
X1146346Y1951336D1*
X1148269Y1953238D1*
X1149220Y1955161D1*
X1150170Y1958013D1*
Y1962810D1*
X1149220Y1965684D1*
X1148269Y1967586D1*
X1146346Y1969509D1*
X1143472Y1970460D1*
X1136773D1*
X1162094Y1970437D2*
X1159220Y1969487D1*
X1157297Y1966613D1*
X1156346Y1961837D1*
Y1958963D1*
X1157297Y1954188D1*
X1159220Y1951314D1*
X1162094Y1950364D1*
X1163995D1*
X1166869Y1951314D1*
X1168771Y1954188D1*
X1169743Y1958963D1*
Y1961837D1*
X1168771Y1966613D1*
X1166869Y1969487D1*
X1163995Y1970437D1*
X1162094D1*
X1168771Y1966613D2*
X1157297Y1954188D1*
X966391Y1957762D2*
X974991D1*
X977865Y1958735D1*
X978838Y1959686D1*
X979788Y1961587D1*
Y1963510D1*
X978838Y1965411D1*
X977865Y1966384D1*
X974991Y1967335D1*
X966391D1*
Y1947239D1*
X973089Y1957762D2*
X979788Y1947239D1*
X985964Y1967335D2*
X999361Y1947239D1*
Y1967335D2*
X985964Y1947239D1*
X1005537Y1967335D2*
Y1947239D1*
X1012236D1*
X1015110Y1948212D1*
X1017033Y1950113D1*
X1017984Y1952036D1*
X1018934Y1954888D1*
Y1959686D1*
X1017984Y1962560D1*
X1017033Y1964461D1*
X1015110Y1966384D1*
X1012236Y1967335D1*
X1005537D1*
X1030858Y1967313D2*
X1027984Y1966362D1*
X1026061Y1963488D1*
X1025110Y1958713D1*
Y1955839D1*
X1026061Y1951063D1*
X1027984Y1948189D1*
X1030858Y1947239D1*
X1032759D1*
X1035633Y1948189D1*
X1037535Y1951063D1*
X1038507Y1955839D1*
Y1958713D1*
X1037535Y1963488D1*
X1035633Y1966362D1*
X1032759Y1967313D1*
X1030858D1*
X1037535Y1963488D2*
X1026061Y1951063D1*
X1320396Y2047410D2*
X1328996D1*
X1331870Y2048383D1*
X1332843Y2049334D1*
X1333793Y2051235D1*
Y2053158D1*
X1332843Y2055060D1*
X1331870Y2056033D1*
X1328996Y2056983D1*
X1320396D1*
Y2036887D1*
X1327095Y2047410D2*
X1333793Y2036887D1*
X1352394Y2056983D2*
X1339969D1*
Y2036887D1*
X1352394D1*
X1339969Y2047410D2*
X1347618D1*
X1371967Y2054109D2*
X1370065Y2056033D1*
X1367191Y2056983D1*
X1363367D1*
X1360493Y2056033D1*
X1358569Y2054109D1*
Y2052208D1*
X1359542Y2050284D1*
X1360493Y2049334D1*
X1362394Y2048383D1*
X1368142Y2046460D1*
X1370065Y2045509D1*
X1371016Y2044536D1*
X1371967Y2042635D1*
Y2039761D1*
X1370065Y2037860D1*
X1367191Y2036887D1*
X1363367D1*
X1360493Y2037860D1*
X1358569Y2039761D1*
X1390567Y2056983D2*
X1378142D1*
Y2036887D1*
X1390567D1*
X1378142Y2047410D2*
X1385792D1*
X1403441Y2056983D2*
Y2036887D1*
X1396743Y2056983D2*
X1410140D1*
X803282Y1959936D2*
X811904D1*
X814756Y1960887D1*
X815728Y1961860D1*
X816679Y1963761D1*
Y1966635D1*
X815728Y1968536D1*
X814756Y1969509D1*
X811904Y1970460D1*
X803282D1*
Y1950364D1*
X828603Y1970460D2*
X826679Y1969509D1*
X824778Y1967586D1*
X823805Y1965684D1*
X822855Y1962810D1*
Y1958013D1*
X823805Y1955161D1*
X824778Y1953238D1*
X826679Y1951336D1*
X828603Y1950364D1*
X832427D1*
X834329Y1951336D1*
X836252Y1953238D1*
X837203Y1955161D1*
X838153Y1958013D1*
Y1962810D1*
X837203Y1965684D1*
X836252Y1967586D1*
X834329Y1969509D1*
X832427Y1970460D1*
X828603D1*
X844329D2*
X849126Y1950364D1*
X853902Y1970460D1*
X858677Y1950364D1*
X863474Y1970460D1*
X882075D2*
X869650D1*
Y1950364D1*
X882075D1*
X869650Y1960887D2*
X877299D1*
X888250D2*
X896850D1*
X899724Y1961860D1*
X900697Y1962810D1*
X901648Y1964711D1*
Y1966635D1*
X900697Y1968536D1*
X899724Y1969509D1*
X896850Y1970460D1*
X888250D1*
Y1950364D1*
X894949Y1960887D2*
X901648Y1950364D1*
X686080Y1970460D2*
X673633D1*
Y1950364D1*
Y1960887D2*
X681283D1*
X692256Y1970460D2*
Y1956112D1*
X693206Y1953238D1*
X695130Y1951336D1*
X698004Y1950364D1*
X699905D1*
X702779Y1951336D1*
X704702Y1953238D1*
X705653Y1956112D1*
Y1970460D1*
X725226Y1967586D2*
X723325Y1969509D1*
X720451Y1970460D1*
X716626D1*
X713752Y1969509D1*
X711829Y1967586D1*
Y1965684D1*
X712802Y1963761D1*
X713752Y1962810D1*
X715653Y1961860D1*
X721401Y1959936D1*
X723325Y1958986D1*
X724275Y1958013D1*
X725226Y1956112D1*
Y1953238D1*
X723325Y1951336D1*
X720451Y1950364D1*
X716626D1*
X713752Y1951336D1*
X711829Y1953238D1*
X743826Y1970460D2*
X731402D1*
Y1950364D1*
X743826D1*
X731402Y1960887D2*
X739051D1*
X2598659Y798483D2*
Y778387D1*
X2610133D1*
X2628733Y798483D2*
X2616309D1*
Y778387D1*
X2628733D1*
X2616309Y788910D2*
X2623958D1*
X2634909Y798483D2*
Y778387D1*
X2641608D1*
X2644482Y779360D1*
X2646405Y781261D1*
X2647356Y783185D1*
X2648306Y786036D1*
Y790834D1*
X2647356Y793708D1*
X2646405Y795609D1*
X2644482Y797533D1*
X2641608Y798483D1*
X2634909D1*
X2656405Y798461D2*
X2666907D1*
X2661181Y790812D1*
X2664055D1*
X2665956Y789861D1*
X2666907Y788910D1*
X2667879Y786036D1*
Y784135D1*
X2666907Y781261D1*
X2665005Y779338D1*
X2662131Y778387D1*
X2659257D1*
X2656405Y779338D1*
X2655455Y780311D1*
X2654482Y782212D1*
X2274698Y785983D2*
Y765887D1*
X2286172D1*
X2304773Y785983D2*
X2292348D1*
Y765887D1*
X2304773D1*
X2292348Y776410D2*
X2299997D1*
X2310948Y785983D2*
Y765887D1*
X2317647D1*
X2320521Y766860D1*
X2322444Y768761D1*
X2323395Y770685D1*
X2324346Y773536D1*
Y778334D1*
X2323395Y781208D1*
X2322444Y783109D1*
X2320521Y785033D1*
X2317647Y785983D1*
X2310948D1*
X2331494Y781186D2*
Y782136D1*
X2332445Y784060D1*
X2333395Y785010D1*
X2335319Y785961D1*
X2339143D1*
X2341045Y785010D1*
X2341995Y784060D1*
X2342968Y782136D1*
Y780235D1*
X2341995Y778312D1*
X2340094Y775460D1*
X2330521Y765887D1*
X2343919D1*
X1942540Y785982D2*
Y765886D1*
X1954014D1*
X1972615Y785982D2*
X1960190D1*
Y765886D1*
X1972615D1*
X1960190Y776409D2*
X1967839D1*
X1978790Y785982D2*
Y765886D1*
X1985489D1*
X1988363Y766859D1*
X1990286Y768760D1*
X1991237Y770683D1*
X1992188Y773535D1*
Y778333D1*
X1991237Y781207D1*
X1990286Y783108D1*
X1988363Y785031D1*
X1985489Y785982D1*
X1978790D1*
X1998363Y782135D2*
X2000287Y783108D1*
X2003161Y785960D1*
Y765886D1*
X1604910Y785982D2*
Y765886D1*
X1616384D1*
X1634984Y785982D2*
X1622559D1*
Y765886D1*
X1634984D1*
X1622559Y776409D2*
X1630209D1*
X1641160Y785982D2*
Y765886D1*
X1647858D1*
X1650732Y766859D1*
X1652656Y768760D1*
X1653606Y770683D1*
X1654557Y773535D1*
Y778333D1*
X1653606Y781207D1*
X1652656Y783108D1*
X1650732Y785031D1*
X1647858Y785982D1*
X1641160D1*
X1666481Y785960D2*
X1663607Y785009D1*
X1661683Y782135D1*
X1660733Y777360D1*
Y774486D1*
X1661683Y769710D1*
X1663607Y766836D1*
X1666481Y765886D1*
X1668382D1*
X1671256Y766836D1*
X1673157Y769710D1*
X1674130Y774486D1*
Y777360D1*
X1673157Y782135D1*
X1671256Y785009D1*
X1668382Y785960D1*
X1666481D1*
X1673157Y782135D2*
X1661683Y769710D1*
X1698119Y2095782D2*
X1696218Y2097706D1*
X1693344Y2098656D1*
X1689519D1*
X1686645Y2097706D1*
X1684722Y2095782D1*
Y2093881D1*
X1685694Y2091958D1*
X1686645Y2091007D1*
X1688546Y2090056D1*
X1694294Y2088133D1*
X1696218Y2087182D1*
X1697168Y2086210D1*
X1698119Y2084308D1*
Y2081434D1*
X1696218Y2079533D1*
X1693344Y2078560D1*
X1689519D1*
X1686645Y2079533D1*
X1684722Y2081434D1*
X1704295Y2098656D2*
Y2078560D1*
X1710993D1*
X1713867Y2079533D1*
X1715791Y2081434D1*
X1716741Y2083358D1*
X1717692Y2086210D1*
Y2091007D1*
X1716741Y2093881D1*
X1715791Y2095782D1*
X1713867Y2097706D1*
X1710993Y2098656D1*
X1704295D1*
X1723868Y2075244D2*
X1742040D1*
X1762564Y2093881D2*
X1761613Y2095782D1*
X1759690Y2097706D1*
X1757789Y2098656D1*
X1753964D1*
X1752041Y2097706D1*
X1750139Y2095782D1*
X1749167Y2093881D1*
X1748216Y2091007D1*
Y2086210D1*
X1749167Y2083358D1*
X1750139Y2081434D1*
X1752041Y2079533D1*
X1753964Y2078560D1*
X1757789D1*
X1759690Y2079533D1*
X1761613Y2081434D1*
X1762564Y2083358D1*
X1768740Y2098656D2*
Y2078560D1*
X1775438D1*
X1778312Y2079533D1*
X1780236Y2081434D1*
X1781186Y2083358D1*
X1782137Y2086210D1*
Y2091007D1*
X1781186Y2093881D1*
X1780236Y2095782D1*
X1778312Y2097706D1*
X1775438Y2098656D1*
X1768740D1*
X1498099Y2095781D2*
X1496198Y2097704D1*
X1493324Y2098655D1*
X1489499D1*
X1486625Y2097704D1*
X1484702Y2095781D1*
Y2093880D1*
X1485675Y2091956D1*
X1486625Y2091006D1*
X1488527Y2090055D1*
X1494275Y2088132D1*
X1496198Y2087181D1*
X1497149Y2086208D1*
X1498099Y2084307D1*
Y2081433D1*
X1496198Y2079532D1*
X1493324Y2078559D1*
X1489499D1*
X1486625Y2079532D1*
X1484702Y2081433D1*
X1504275Y2098655D2*
Y2078559D1*
X1510974D1*
X1513848Y2079532D1*
X1515771Y2081433D1*
X1516722Y2083356D1*
X1517672Y2086208D1*
Y2091006D1*
X1516722Y2093880D1*
X1515771Y2095781D1*
X1513848Y2097704D1*
X1510974Y2098655D1*
X1504275D1*
X1523848Y2075243D2*
X1542021D1*
X1562544Y2093880D2*
X1561594Y2095781D1*
X1559670Y2097704D1*
X1557769Y2098655D1*
X1553944D1*
X1552021Y2097704D1*
X1550120Y2095781D1*
X1549147Y2093880D1*
X1548196Y2091006D1*
Y2086208D1*
X1549147Y2083356D1*
X1550120Y2081433D1*
X1552021Y2079532D1*
X1553944Y2078559D1*
X1557769D1*
X1559670Y2079532D1*
X1561594Y2081433D1*
X1562544Y2083356D1*
X1582117Y2095781D2*
X1580216Y2097704D1*
X1577342Y2098655D1*
X1573517D1*
X1570643Y2097704D1*
X1568720Y2095781D1*
Y2093880D1*
X1569693Y2091956D1*
X1570643Y2091006D1*
X1572545Y2090055D1*
X1578293Y2088132D1*
X1580216Y2087181D1*
X1581167Y2086208D1*
X1582117Y2084307D1*
Y2081433D1*
X1580216Y2079532D1*
X1577342Y2078559D1*
X1573517D1*
X1570643Y2079532D1*
X1568720Y2081433D1*
X1484702Y2103895D2*
X1588293D1*
X2337157Y2211042D2*
X2324710D1*
Y2190946D1*
Y2201470D2*
X2332359D1*
X2343333Y2211042D2*
Y2190946D1*
X2354806D1*
X2376303D2*
X2368631Y2211042D1*
X2360982Y2190946D1*
X2363856Y2197645D2*
X2373429D1*
X2395876Y2208168D2*
X2393975Y2210092D1*
X2391101Y2211042D1*
X2387276D1*
X2384402Y2210092D1*
X2382479Y2208168D1*
Y2206267D1*
X2383451Y2204344D1*
X2384402Y2203393D1*
X2386303Y2202442D1*
X2392051Y2200519D1*
X2393975Y2199568D1*
X2394925Y2198595D1*
X2395876Y2196694D1*
Y2193820D1*
X2393975Y2191919D1*
X2391101Y2190946D1*
X2387276D1*
X2384402Y2191919D1*
X2382479Y2193820D1*
X2402052Y2211042D2*
Y2190946D1*
X2415449Y2211042D2*
Y2190946D1*
X2402052Y2201470D2*
X2415449D1*
X2421625Y2187630D2*
X2439797D1*
X2460321Y2206267D2*
X2459370Y2208168D1*
X2457447Y2210092D1*
X2455546Y2211042D1*
X2451721D1*
X2449798Y2210092D1*
X2447896Y2208168D1*
X2446924Y2206267D1*
X2445973Y2203393D1*
Y2198595D1*
X2446924Y2195744D1*
X2447896Y2193820D1*
X2449798Y2191919D1*
X2451721Y2190946D1*
X2455546D1*
X2457447Y2191919D1*
X2459370Y2193820D1*
X2460321Y2195744D1*
X2479894Y2208168D2*
X2477993Y2210092D1*
X2475119Y2211042D1*
X2471294D1*
X2468420Y2210092D1*
X2466497Y2208168D1*
Y2206267D1*
X2467469Y2204344D1*
X2468420Y2203393D1*
X2470321Y2202442D1*
X2476069Y2200519D1*
X2477993Y2199568D1*
X2478943Y2198595D1*
X2479894Y2196694D1*
Y2193820D1*
X2477993Y2191919D1*
X2475119Y2190946D1*
X2471294D1*
X2468420Y2191919D1*
X2466497Y2193820D1*
X2324710Y2216282D2*
X2486070D1*
X2759708Y2748294D2*
X2768308D1*
X2771182Y2749266D1*
X2772155Y2750217D1*
X2773106Y2752118D1*
Y2754042D1*
X2772155Y2755943D1*
X2771182Y2756916D1*
X2768308Y2757866D1*
X2759708D1*
Y2737770D1*
X2766407Y2748294D2*
X2773106Y2737770D1*
X2779281Y2757866D2*
X2792679Y2737770D1*
Y2757866D2*
X2779281Y2737770D1*
X2798854Y2757866D2*
Y2737770D1*
X2805553D1*
X2808427Y2738743D1*
X2810351Y2740644D1*
X2811301Y2742568D1*
X2812252Y2745420D1*
Y2750217D1*
X2811301Y2753091D1*
X2810351Y2754992D1*
X2808427Y2756916D1*
X2805553Y2757866D1*
X2798854D1*
X2819400Y2753069D2*
Y2754020D1*
X2820351Y2755943D1*
X2821302Y2756894D1*
X2823225Y2757844D1*
X2827050D1*
X2828951Y2756894D1*
X2829901Y2755943D1*
X2830874Y2754020D1*
Y2752118D1*
X2829901Y2750195D1*
X2828000Y2747343D1*
X2818427Y2737770D1*
X2831825D1*
X2760158Y2839116D2*
Y2819020D1*
X2753459Y2839116D2*
X2766856D1*
X2773032D2*
X2786429Y2819020D1*
Y2839116D2*
X2773032Y2819020D1*
X2792605Y2839116D2*
Y2819020D1*
X2799304D1*
X2802178Y2819992D1*
X2804101Y2821894D1*
X2805052Y2823817D1*
X2806002Y2826669D1*
Y2831466D1*
X2805052Y2834340D1*
X2804101Y2836242D1*
X2802178Y2838165D1*
X2799304Y2839116D1*
X2792605D1*
X2813151Y2834318D2*
Y2835269D1*
X2814102Y2837192D1*
X2815052Y2838143D1*
X2816976Y2839094D1*
X2820800D1*
X2822701Y2838143D1*
X2823652Y2837192D1*
X2824625Y2835269D1*
Y2833368D1*
X2823652Y2831444D1*
X2821751Y2828592D1*
X2812178Y2819020D1*
X2825575D1*
X1619016Y1961696D2*
X1627616D1*
X1630490Y1962669D1*
X1631462Y1963619D1*
X1632413Y1965520D1*
Y1967444D1*
X1631462Y1969345D1*
X1630490Y1970318D1*
X1627616Y1971268D1*
X1619016D1*
Y1951172D1*
X1625714Y1961696D2*
X1632413Y1951172D1*
X1638589Y1967422D2*
X1640512Y1968394D1*
X1643386Y1971246D1*
Y1951172D1*
X1262617Y2144280D2*
X1271217D1*
X1274091Y2145252D1*
X1275064Y2146203D1*
X1276015Y2148104D1*
Y2150028D1*
X1275064Y2151929D1*
X1274091Y2152902D1*
X1271217Y2153852D1*
X1262617D1*
Y2133756D1*
X1269316Y2144280D2*
X1276015Y2133756D1*
X1283163Y2149055D2*
Y2150006D1*
X1284114Y2151929D1*
X1285064Y2152880D1*
X1286988Y2153830D1*
X1290812D1*
X1292714Y2152880D1*
X1293664Y2151929D1*
X1294637Y2150006D1*
Y2148104D1*
X1293664Y2146181D1*
X1291763Y2143329D1*
X1282190Y2133756D1*
X1295588D1*
X1344957Y1722355D2*
X1353557D1*
X1356431Y1723327D1*
X1357404Y1724278D1*
X1358355Y1726179D1*
Y1728103D1*
X1357404Y1730004D1*
X1356431Y1730977D1*
X1353557Y1731927D1*
X1344957D1*
Y1711831D1*
X1351656Y1722355D2*
X1358355Y1711831D1*
X1366454Y1731905D2*
X1376955D1*
X1371229Y1724256D1*
X1374103D1*
X1376004Y1723305D1*
X1376955Y1722355D1*
X1377928Y1719481D1*
Y1717579D1*
X1376955Y1714705D1*
X1375054Y1712782D1*
X1372180Y1711831D1*
X1369306D1*
X1366454Y1712782D1*
X1365503Y1713755D1*
X1364530Y1715656D1*
X436134Y1916405D2*
Y1925005D1*
X435161Y1927879D1*
X434211Y1928851D1*
X432309Y1929802D1*
X430386D1*
X428485Y1928851D1*
X427512Y1927879D1*
X426561Y1925005D1*
Y1916405D1*
X446657D1*
X436134Y1923103D2*
X446657Y1929802D1*
Y1945550D2*
X426584D1*
X439959Y1935978D1*
Y1950326D1*
X1868586Y2068920D2*
X1877186D1*
X1880060Y2069893D1*
X1881033Y2070844D1*
X1881983Y2072745D1*
Y2074668D1*
X1881033Y2076569D1*
X1880060Y2077542D1*
X1877186Y2078493D1*
X1868586D1*
Y2058397D1*
X1875285Y2068920D2*
X1881983Y2058397D1*
X1899633Y2078471D2*
X1890082D1*
X1889132Y2069871D1*
X1890082Y2070821D1*
X1892956Y2071794D1*
X1895808D1*
X1898682Y2070821D1*
X1900606Y2068920D1*
X1901556Y2066046D1*
Y2064145D1*
X1900606Y2061271D1*
X1898682Y2059347D1*
X1895808Y2058397D1*
X1892956D1*
X1890082Y2059347D1*
X1889132Y2060320D1*
X1888159Y2062222D1*
X2456173Y1142822D2*
X2464773D1*
X2467647Y1143794D1*
X2468620Y1144745D1*
X2469571Y1146646D1*
Y1148570D1*
X2468620Y1150471D1*
X2467647Y1151444D1*
X2464773Y1152394D1*
X2456173D1*
Y1132298D1*
X2462872Y1142822D2*
X2469571Y1132298D1*
X2487220Y1149520D2*
X2486270Y1151422D1*
X2483396Y1152372D1*
X2481494D1*
X2478620Y1151422D1*
X2476697Y1148548D1*
X2475746Y1143772D1*
Y1138997D1*
X2476697Y1135172D1*
X2478620Y1133249D1*
X2481494Y1132298D1*
X2482445D1*
X2485297Y1133249D1*
X2487220Y1135172D1*
X2488171Y1138046D1*
Y1138997D1*
X2487220Y1141871D1*
X2485297Y1143772D1*
X2482445Y1144723D1*
X2481494D1*
X2478620Y1143772D1*
X2476697Y1141871D1*
X2475746Y1138997D1*
X876256Y2050445D2*
X884856D1*
X887730Y2051418D1*
X888703Y2052368D1*
X889654Y2054270D1*
Y2056193D1*
X888703Y2058094D1*
X887730Y2059067D1*
X884856Y2060018D1*
X876256D1*
Y2039922D1*
X882955Y2050445D2*
X889654Y2039922D1*
X899654D2*
X909227Y2059996D1*
X895830D1*
X732533Y2050445D2*
X741133D1*
X744007Y2051418D1*
X744979Y2052368D1*
X745930Y2054270D1*
Y2056193D1*
X744979Y2058094D1*
X744007Y2059067D1*
X741133Y2060018D1*
X732533D1*
Y2039922D1*
X739231Y2050445D2*
X745930Y2039922D1*
X756881Y2059996D2*
X754029Y2059045D1*
X753056Y2057144D1*
Y2055220D1*
X754029Y2053319D1*
X755930Y2052346D1*
X759755Y2051396D1*
X762629Y2050445D1*
X764530Y2048522D1*
X765481Y2046620D1*
Y2043746D1*
X764530Y2041845D1*
X763580Y2040872D1*
X760706Y2039922D1*
X756881D1*
X754029Y2040872D1*
X753056Y2041845D1*
X752106Y2043746D1*
Y2046620D1*
X753056Y2048522D1*
X754980Y2050445D1*
X757832Y2051396D1*
X761656Y2052346D1*
X763580Y2053319D1*
X764530Y2055220D1*
Y2057144D1*
X763580Y2059045D1*
X760706Y2059996D1*
X756881D1*
X921384Y2423188D2*
X929984D1*
X932858Y2424161D1*
X933831Y2425111D1*
X934781Y2427013D1*
Y2428936D1*
X933831Y2430837D1*
X932858Y2431810D1*
X929984Y2432761D1*
X921384D1*
Y2412665D1*
X928083Y2423188D2*
X934781Y2412665D1*
X953404Y2426062D2*
X952431Y2423188D1*
X950530Y2421265D1*
X947656Y2420314D1*
X946705D1*
X943831Y2421265D1*
X941930Y2423188D1*
X940957Y2426062D1*
Y2427013D1*
X941930Y2429887D1*
X943831Y2431788D1*
X946705Y2432738D1*
X947656D1*
X950530Y2431788D1*
X952431Y2429887D1*
X953404Y2426062D1*
Y2421265D1*
X952431Y2416489D1*
X950530Y2413615D1*
X947656Y2412665D1*
X945754D1*
X942880Y2413615D1*
X941930Y2415539D1*
X1151990Y2050445D2*
X1160590D1*
X1163464Y2051418D1*
X1164437Y2052368D1*
X1165388Y2054270D1*
Y2056193D1*
X1164437Y2058094D1*
X1163464Y2059067D1*
X1160590Y2060018D1*
X1151990D1*
Y2039922D1*
X1158689Y2050445D2*
X1165388Y2039922D1*
X1171563Y2056171D2*
X1173487Y2057144D1*
X1176361Y2059996D1*
Y2039922D1*
X1188285Y2059996D2*
X1185411Y2059045D1*
X1183487Y2056171D1*
X1182537Y2051396D1*
Y2048522D1*
X1183487Y2043746D1*
X1185411Y2040872D1*
X1188285Y2039922D1*
X1190186D1*
X1193060Y2040872D1*
X1194961Y2043746D1*
X1195934Y2048522D1*
Y2051396D1*
X1194961Y2056171D1*
X1193060Y2059045D1*
X1190186Y2059996D1*
X1188285D1*
X1194961Y2056171D2*
X1183487Y2043746D1*
X2395133Y1142642D2*
X2403733D1*
X2406607Y1143615D1*
X2407580Y1144565D1*
X2408530Y1146467D1*
Y1148390D1*
X2407580Y1150291D1*
X2406607Y1151264D1*
X2403733Y1152215D1*
X2395133D1*
Y1132119D1*
X2401832Y1142642D2*
X2408530Y1132119D1*
X2414706Y1148368D2*
X2416629Y1149341D1*
X2419503Y1152193D1*
Y1132119D1*
X2425679Y1148368D2*
X2427602Y1149341D1*
X2430476Y1152193D1*
Y1132119D1*
X1515176Y1857015D2*
Y1865615D1*
X1514203Y1868489D1*
X1513253Y1869462D1*
X1511351Y1870413D1*
X1509428D1*
X1507527Y1869462D1*
X1506554Y1868489D1*
X1505603Y1865615D1*
Y1857015D1*
X1525699D1*
X1515176Y1863714D2*
X1525699Y1870413D1*
X1509450Y1876588D2*
X1508477Y1878512D1*
X1505626Y1881386D1*
X1525699D1*
X1510401Y1888534D2*
X1509450D1*
X1507527Y1889485D1*
X1506576Y1890436D1*
X1505626Y1892359D1*
Y1896184D1*
X1506576Y1898085D1*
X1507527Y1899035D1*
X1509450Y1900008D1*
X1511351D1*
X1513275Y1899035D1*
X1516127Y1897134D1*
X1525699Y1887561D1*
Y1900959D1*
X1017630Y2050445D2*
X1026229D1*
X1029103Y2051418D1*
X1030076Y2052368D1*
X1031027Y2054270D1*
Y2056193D1*
X1030076Y2058094D1*
X1029103Y2059067D1*
X1026229Y2060018D1*
X1017630D1*
Y2039922D1*
X1024328Y2050445D2*
X1031027Y2039922D1*
X1037203Y2056171D2*
X1039126Y2057144D1*
X1042000Y2059996D1*
Y2039922D1*
X1050099Y2059996D2*
X1060600D1*
X1054874Y2052346D1*
X1057748D1*
X1059650Y2051396D1*
X1060600Y2050445D1*
X1061573Y2047571D1*
Y2045670D1*
X1060600Y2042796D1*
X1058699Y2040872D1*
X1055825Y2039922D1*
X1052951D1*
X1050099Y2040872D1*
X1049148Y2041845D1*
X1048176Y2043746D1*
X2512799Y884729D2*
X2521399D1*
X2524273Y885701D1*
X2525245Y886652D1*
X2526196Y888553D1*
Y890477D1*
X2525245Y892378D1*
X2524273Y893351D1*
X2521399Y894301D1*
X2512799D1*
Y874205D1*
X2519497Y884729D2*
X2526196Y874205D1*
X2532372Y890454D2*
X2534295Y891427D1*
X2537169Y894279D1*
Y874205D1*
X2552917D2*
Y894279D1*
X2543345Y880904D1*
X2557693D1*
X2184063Y872229D2*
X2192663D1*
X2195537Y873201D1*
X2196509Y874152D1*
X2197460Y876053D1*
Y877977D1*
X2196509Y879878D1*
X2195537Y880851D1*
X2192663Y881801D1*
X2184063D1*
Y861705D1*
X2190761Y872229D2*
X2197460Y861705D1*
X2203636Y877954D2*
X2205559Y878927D1*
X2208433Y881779D1*
Y861705D1*
X2226083Y881779D2*
X2216532D1*
X2215581Y873179D1*
X2216532Y874130D1*
X2219406Y875103D1*
X2222258D1*
X2225132Y874130D1*
X2227055Y872229D1*
X2228006Y869355D1*
Y867453D1*
X2227055Y864579D1*
X2225132Y862656D1*
X2222258Y861705D1*
X2219406D1*
X2216532Y862656D1*
X2215581Y863629D1*
X2214609Y865530D1*
X1857510Y872230D2*
X1866110D1*
X1868984Y873203D1*
X1869956Y874153D1*
X1870907Y876055D1*
Y877978D1*
X1869956Y879879D1*
X1868984Y880852D1*
X1866110Y881803D1*
X1857510D1*
Y861707D1*
X1864208Y872230D2*
X1870907Y861707D1*
X1877083Y877956D2*
X1879006Y878929D1*
X1881880Y881780D1*
Y861707D1*
X1899530Y878929D2*
X1898579Y880830D1*
X1895705Y881780D1*
X1893804D1*
X1890930Y880830D1*
X1889006Y877956D1*
X1888056Y873181D1*
Y868405D1*
X1889006Y864581D1*
X1890930Y862657D1*
X1893804Y861707D1*
X1894754D1*
X1897606Y862657D1*
X1899530Y864581D1*
X1900480Y867455D1*
Y868405D1*
X1899530Y871279D1*
X1897606Y873181D1*
X1894754Y874131D1*
X1893804D1*
X1890930Y873181D1*
X1889006Y871279D1*
X1888056Y868405D1*
X1525628Y878474D2*
X1534228D1*
X1537102Y879447D1*
X1538075Y880397D1*
X1539026Y882299D1*
Y884222D1*
X1538075Y886123D1*
X1537102Y887096D1*
X1534228Y888047D1*
X1525628D1*
Y867951D1*
X1532327Y878474D2*
X1539026Y867951D1*
X1545201Y884200D2*
X1547125Y885173D1*
X1549999Y888025D1*
Y867951D1*
X1559999D2*
X1569572Y888025D1*
X1556174D1*
X1713274Y2234727D2*
X1721874D1*
X1724748Y2235700D1*
X1725721Y2236651D1*
X1726672Y2238552D1*
Y2240475D1*
X1725721Y2242377D1*
X1724748Y2243349D1*
X1721874Y2244300D1*
X1713274D1*
Y2224204D1*
X1719973Y2234727D2*
X1726672Y2224204D1*
X1732847Y2240453D2*
X1734771Y2241426D1*
X1737645Y2244278D1*
Y2224204D1*
X1748596Y2244278D2*
X1745744Y2243327D1*
X1744771Y2241426D1*
Y2239503D1*
X1745744Y2237601D1*
X1747645Y2236629D1*
X1751470Y2235678D1*
X1754344Y2234727D1*
X1756245Y2232804D1*
X1757196Y2230903D1*
Y2228029D1*
X1756245Y2226127D1*
X1755295Y2225155D1*
X1752421Y2224204D1*
X1748596D1*
X1745744Y2225155D1*
X1744771Y2226127D1*
X1743821Y2228029D1*
Y2230903D1*
X1744771Y2232804D1*
X1746695Y2234727D1*
X1749546Y2235678D1*
X1753371Y2236629D1*
X1755295Y2237601D1*
X1756245Y2239503D1*
Y2241426D1*
X1755295Y2243327D1*
X1752421Y2244278D1*
X1748596D1*
X1619649Y2065624D2*
X1628249D1*
X1631123Y2066596D1*
X1632096Y2067547D1*
X1633047Y2069448D1*
Y2071372D1*
X1632096Y2073273D1*
X1631123Y2074246D1*
X1628249Y2075196D1*
X1619649D1*
Y2055100D1*
X1626348Y2065624D2*
X1633047Y2055100D1*
X1639223Y2071350D2*
X1641146Y2072322D1*
X1644020Y2075174D1*
Y2055100D1*
X1662642Y2068498D2*
X1661670Y2065624D1*
X1659768Y2063700D1*
X1656894Y2062750D1*
X1655944D1*
X1653070Y2063700D1*
X1651168Y2065624D1*
X1650196Y2068498D1*
Y2069448D1*
X1651168Y2072322D1*
X1653070Y2074224D1*
X1655944Y2075174D1*
X1656894D1*
X1659768Y2074224D1*
X1661670Y2072322D1*
X1662642Y2068498D1*
Y2063700D1*
X1661670Y2058925D1*
X1659768Y2056051D1*
X1656894Y2055100D1*
X1654993D1*
X1652119Y2056051D1*
X1651168Y2057974D1*
X1513391Y2234727D2*
X1521991D1*
X1524865Y2235700D1*
X1525838Y2236651D1*
X1526789Y2238552D1*
Y2240475D1*
X1525838Y2242377D1*
X1524865Y2243349D1*
X1521991Y2244300D1*
X1513391D1*
Y2224204D1*
X1520090Y2234727D2*
X1526789Y2224204D1*
X1533937Y2239503D2*
Y2240453D1*
X1534888Y2242377D1*
X1535838Y2243327D1*
X1537762Y2244278D1*
X1541586D1*
X1543488Y2243327D1*
X1544438Y2242377D1*
X1545411Y2240453D1*
Y2238552D1*
X1544438Y2236629D1*
X1542537Y2233777D1*
X1532964Y2224204D1*
X1546362D1*
X1558285Y2244278D2*
X1555411Y2243327D1*
X1553488Y2240453D1*
X1552537Y2235678D1*
Y2232804D1*
X1553488Y2228029D1*
X1555411Y2225155D1*
X1558285Y2224204D1*
X1560187D1*
X1563061Y2225155D1*
X1564962Y2228029D1*
X1565935Y2232804D1*
Y2235678D1*
X1564962Y2240453D1*
X1563061Y2243327D1*
X1560187Y2244278D1*
X1558285D1*
X1564962Y2240453D2*
X1553488Y2228029D1*
X1928396Y2068851D2*
X1936996D1*
X1939870Y2069823D1*
X1940843Y2070774D1*
X1941793Y2072675D1*
Y2074599D1*
X1940843Y2076500D1*
X1939870Y2077473D1*
X1936996Y2078423D1*
X1928396D1*
Y2058327D1*
X1935095Y2068851D2*
X1941793Y2058327D1*
X1948942Y2073626D2*
Y2074577D1*
X1949892Y2076500D1*
X1950843Y2077451D1*
X1952766Y2078401D1*
X1956591D1*
X1958492Y2077451D1*
X1959443Y2076500D1*
X1960416Y2074577D1*
Y2072675D1*
X1959443Y2070752D1*
X1957542Y2067900D1*
X1947969Y2058327D1*
X1961366D1*
X1967542Y2074577D2*
X1969465Y2075549D1*
X1972339Y2078401D1*
Y2058327D1*
X2317530Y2280335D2*
Y2288935D1*
X2316558Y2291809D1*
X2315607Y2292782D1*
X2313706Y2293732D1*
X2311782D1*
X2309881Y2292782D1*
X2308908Y2291809D1*
X2307958Y2288935D1*
Y2280335D1*
X2328054D1*
X2317530Y2287034D2*
X2328054Y2293732D1*
X2312755Y2300881D2*
X2311805D1*
X2309881Y2301831D1*
X2308931Y2302782D1*
X2307980Y2304705D1*
Y2308530D1*
X2308931Y2310431D1*
X2309881Y2311382D1*
X2311805Y2312355D1*
X2313706D1*
X2315629Y2311382D1*
X2318481Y2309481D1*
X2328054Y2299908D1*
Y2313305D1*
X2312755Y2320454D2*
X2311805D1*
X2309881Y2321404D1*
X2308931Y2322355D1*
X2307980Y2324278D1*
Y2328103D1*
X2308930Y2330004D1*
X2309881Y2330955D1*
X2311805Y2331928D1*
X2313706D1*
X2315629Y2330955D1*
X2318481Y2329054D1*
X2328054Y2319481D1*
Y2332878D1*
X1440697Y786946D2*
X1449297D1*
X1452171Y787919D1*
X1453144Y788870D1*
X1454094Y790771D1*
Y792694D1*
X1453144Y794596D1*
X1452171Y795568D1*
X1449297Y796519D1*
X1440697D1*
Y776423D1*
X1447396Y786946D2*
X1454094Y776423D1*
X1461243Y791722D2*
Y792672D1*
X1462193Y794596D1*
X1463144Y795546D1*
X1465067Y796497D1*
X1468892D1*
X1470793Y795546D1*
X1471744Y794596D1*
X1472717Y792672D1*
Y790771D1*
X1471744Y788848D1*
X1469843Y785996D1*
X1460270Y776423D1*
X1473667D1*
X1481766Y796497D2*
X1492268D1*
X1486542Y788848D1*
X1489416D1*
X1491317Y787897D1*
X1492268Y786946D1*
X1493240Y784072D1*
Y782171D1*
X1492268Y779297D1*
X1490366Y777374D1*
X1487492Y776423D1*
X1484618D1*
X1481766Y777374D1*
X1480816Y778346D1*
X1479843Y780248D1*
X1013560Y784500D2*
X1022160D1*
X1025034Y785473D1*
X1026007Y786424D1*
X1026958Y788325D1*
Y790248D1*
X1026007Y792150D1*
X1025034Y793122D1*
X1022160Y794073D1*
X1013560D1*
Y773977D1*
X1020259Y784500D2*
X1026958Y773977D1*
X1034106Y789276D2*
Y790226D1*
X1035057Y792150D1*
X1036007Y793100D1*
X1037931Y794051D1*
X1041755D1*
X1043657Y793100D1*
X1044607Y792150D1*
X1045580Y790226D1*
Y788325D1*
X1044607Y786401D1*
X1042706Y783550D1*
X1033133Y773977D1*
X1046531D1*
X1062279D2*
Y794051D1*
X1052706Y780676D1*
X1067054D1*
X1775104Y790072D2*
X1783704D1*
X1786578Y791045D1*
X1787551Y791996D1*
X1788501Y793897D1*
Y795820D1*
X1787551Y797722D1*
X1786578Y798694D1*
X1783704Y799645D1*
X1775104D1*
Y779549D1*
X1781803Y790072D2*
X1788501Y779549D1*
X1795650Y794848D2*
Y795798D1*
X1796600Y797722D1*
X1797551Y798672D1*
X1799474Y799623D1*
X1803299D1*
X1805200Y798672D1*
X1806151Y797722D1*
X1807124Y795798D1*
Y793897D1*
X1806151Y791974D1*
X1804250Y789122D1*
X1794677Y779549D1*
X1808074D1*
X1825724Y799623D2*
X1816173D1*
X1815223Y791023D1*
X1816173Y791974D1*
X1819047Y792946D1*
X1821899D1*
X1824773Y791974D1*
X1826697Y790072D1*
X1827647Y787198D1*
Y785297D1*
X1826697Y782423D1*
X1824773Y780500D1*
X1821899Y779549D1*
X1819047D1*
X1816173Y780500D1*
X1815223Y781472D1*
X1814250Y783374D1*
X2114954Y774445D2*
X2123554D1*
X2126428Y775418D1*
X2127400Y776368D1*
X2128351Y778270D1*
Y780193D1*
X2127400Y782094D1*
X2126428Y783067D1*
X2123554Y784018D1*
X2114954D1*
Y763922D1*
X2121652Y774445D2*
X2128351Y763922D1*
X2135500Y779220D2*
Y780171D1*
X2136450Y782094D1*
X2137401Y783045D1*
X2139324Y783996D1*
X2143149D1*
X2145050Y783045D1*
X2146001Y782094D1*
X2146973Y780171D1*
Y778270D1*
X2146001Y776346D1*
X2144099Y773494D1*
X2134527Y763922D1*
X2147924D1*
X2165574Y781144D2*
X2164623Y783045D1*
X2161749Y783996D1*
X2159848D1*
X2156974Y783045D1*
X2155050Y780171D1*
X2154100Y775396D1*
Y770620D1*
X2155050Y766796D1*
X2156974Y764872D1*
X2159848Y763922D1*
X2160798D1*
X2163650Y764872D1*
X2165574Y766796D1*
X2166524Y769670D1*
Y770620D1*
X2165574Y773494D1*
X2163650Y775396D1*
X2160798Y776346D1*
X2159848D1*
X2156974Y775396D1*
X2155050Y773494D1*
X2154100Y770620D1*
X2447962Y775360D2*
X2456562D1*
X2459436Y776333D1*
X2460409Y777283D1*
X2461359Y779184D1*
Y781108D1*
X2460409Y783009D1*
X2459436Y783982D1*
X2456562Y784932D1*
X2447962D1*
Y764836D1*
X2454661Y775360D2*
X2461359Y764836D1*
X2468508Y780135D2*
Y781086D1*
X2469459Y783009D1*
X2470409Y783960D1*
X2472333Y784910D1*
X2476157D1*
X2478058Y783960D1*
X2479009Y783009D1*
X2479982Y781086D1*
Y779184D1*
X2479009Y777261D1*
X2477108Y774409D1*
X2467535Y764836D1*
X2480932D1*
X2490933D2*
X2500506Y784910D1*
X2487108D1*
X1851621Y1144466D2*
X1860221D1*
X1863095Y1145439D1*
X1864068Y1146389D1*
X1865019Y1148291D1*
Y1150214D1*
X1864068Y1152115D1*
X1863095Y1153088D1*
X1860221Y1154039D1*
X1851621D1*
Y1133943D1*
X1858320Y1144466D2*
X1865019Y1133943D1*
X1872167Y1149241D2*
Y1150192D1*
X1873118Y1152115D1*
X1874069Y1153066D1*
X1875992Y1154017D1*
X1879817D1*
X1881718Y1153066D1*
X1882668Y1152115D1*
X1883641Y1150192D1*
Y1148291D1*
X1882668Y1146367D1*
X1880767Y1143515D1*
X1871194Y1133943D1*
X1884592D1*
X1895543Y1154017D2*
X1892691Y1153066D1*
X1891718Y1151165D1*
Y1149241D1*
X1892691Y1147340D1*
X1894592Y1146367D1*
X1898417Y1145417D1*
X1901291Y1144466D1*
X1903192Y1142543D1*
X1904143Y1140641D1*
Y1137767D1*
X1903192Y1135866D1*
X1902241Y1134893D1*
X1899367Y1133943D1*
X1895543D1*
X1892691Y1134893D1*
X1891718Y1135866D1*
X1890768Y1137767D1*
Y1140641D1*
X1891718Y1142543D1*
X1893642Y1144466D1*
X1896493Y1145417D1*
X1900318Y1146367D1*
X1902241Y1147340D1*
X1903192Y1149241D1*
Y1151165D1*
X1902241Y1153066D1*
X1899367Y1154017D1*
X1895543D1*
X1789580Y1144466D2*
X1798180D1*
X1801054Y1145439D1*
X1802027Y1146389D1*
X1802978Y1148291D1*
Y1150214D1*
X1802027Y1152115D1*
X1801054Y1153088D1*
X1798180Y1154039D1*
X1789580D1*
Y1133943D1*
X1796279Y1144466D2*
X1802978Y1133943D1*
X1810126Y1149241D2*
Y1150192D1*
X1811077Y1152115D1*
X1812028Y1153066D1*
X1813951Y1154017D1*
X1817776D1*
X1819677Y1153066D1*
X1820627Y1152115D1*
X1821600Y1150192D1*
Y1148291D1*
X1820627Y1146367D1*
X1818726Y1143515D1*
X1809154Y1133943D1*
X1822551D1*
X1841173Y1147340D2*
X1840200Y1144466D1*
X1838299Y1142543D1*
X1835425Y1141592D1*
X1834475D1*
X1831601Y1142543D1*
X1829699Y1144466D1*
X1828727Y1147340D1*
Y1148291D1*
X1829699Y1151165D1*
X1831601Y1153066D1*
X1834475Y1154017D1*
X1835425D1*
X1838299Y1153066D1*
X1840200Y1151165D1*
X1841173Y1147340D1*
Y1142543D1*
X1840200Y1137767D1*
X1838299Y1134893D1*
X1835425Y1133943D1*
X1833524D1*
X1830650Y1134893D1*
X1829699Y1136817D1*
X2602854Y2663986D2*
X2611454D1*
X2614328Y2664959D1*
X2615301Y2665909D1*
X2616252Y2667810D1*
Y2669734D1*
X2615301Y2671635D1*
X2614328Y2672608D1*
X2611454Y2673558D1*
X2602854D1*
Y2653462D1*
X2609553Y2663986D2*
X2616252Y2653462D1*
X2624351Y2673536D2*
X2634852D1*
X2629126Y2665887D1*
X2632000D1*
X2633901Y2664936D1*
X2634852Y2663986D1*
X2635825Y2661112D1*
Y2659211D1*
X2634852Y2656336D1*
X2632951Y2654413D1*
X2630077Y2653462D1*
X2627203D1*
X2624351Y2654413D1*
X2623400Y2655386D1*
X2622428Y2657287D1*
X2647749Y2673536D2*
X2644875Y2672586D1*
X2642951Y2669712D1*
X2642001Y2664936D1*
Y2662062D1*
X2642951Y2657287D1*
X2644875Y2654413D1*
X2647749Y2653462D1*
X2649650D1*
X2652524Y2654413D1*
X2654425Y2657287D1*
X2655398Y2662062D1*
Y2664936D1*
X2654425Y2669712D1*
X2652524Y2672586D1*
X2649650Y2673536D1*
X2647749D1*
X2654425Y2669712D2*
X2642951Y2657287D1*
X2607199Y2838298D2*
X2615799D1*
X2618673Y2839271D1*
X2619646Y2840222D1*
X2620596Y2842123D1*
Y2844046D1*
X2619646Y2845947D1*
X2618673Y2846920D1*
X2615799Y2847871D1*
X2607199D1*
Y2827775D1*
X2613898Y2838298D2*
X2620596Y2827775D1*
X2628695Y2847849D2*
X2639197D1*
X2633471Y2840199D1*
X2636345D1*
X2638246Y2839249D1*
X2639197Y2838298D1*
X2640169Y2835424D1*
Y2833523D1*
X2639197Y2830649D1*
X2637295Y2828725D1*
X2634421Y2827775D1*
X2631547D1*
X2628695Y2828725D1*
X2627745Y2829698D1*
X2626772Y2831599D1*
X2646345Y2844024D2*
X2648269Y2844997D1*
X2651143Y2847849D1*
Y2827775D1*
X885723Y634717D2*
X894323D1*
X897197Y635690D1*
X898170Y636640D1*
X899121Y638541D1*
Y640465D1*
X898170Y642366D1*
X897197Y643339D1*
X894323Y644289D1*
X885723D1*
Y624193D1*
X892422Y634717D2*
X899121Y624193D1*
X907220Y644267D2*
X917721D1*
X911995Y636618D1*
X914869D1*
X916770Y635667D1*
X917721Y634717D1*
X918694Y631843D1*
Y629941D1*
X917721Y627067D1*
X915820Y625144D1*
X912946Y624193D1*
X910072D1*
X907220Y625144D1*
X906269Y626117D1*
X905296Y628018D1*
X925842Y639492D2*
Y640443D1*
X926793Y642366D1*
X927743Y643317D1*
X929667Y644267D1*
X933491D1*
X935393Y643317D1*
X936343Y642366D1*
X937316Y640443D1*
Y638541D1*
X936343Y636618D1*
X934442Y633766D1*
X924869Y624193D1*
X938267D1*
X2229929Y2187139D2*
X2238529D1*
X2241403Y2188112D1*
X2242376Y2189062D1*
X2243327Y2190963D1*
Y2192887D1*
X2242376Y2194788D1*
X2241403Y2195761D1*
X2238529Y2196711D1*
X2229929D1*
Y2176615D1*
X2236628Y2187139D2*
X2243327Y2176615D1*
X2251426Y2196689D2*
X2261927D1*
X2256201Y2189040D1*
X2259075D1*
X2260976Y2188089D1*
X2261927Y2187139D1*
X2262900Y2184265D1*
Y2182364D1*
X2261927Y2179490D1*
X2260026Y2177566D1*
X2257152Y2176615D1*
X2254278D1*
X2251426Y2177566D1*
X2250475Y2178539D1*
X2249502Y2180440D1*
X2270999Y2196689D2*
X2281500D1*
X2275774Y2189040D1*
X2278648D1*
X2280549Y2188089D1*
X2281500Y2187139D1*
X2282473Y2184265D1*
Y2182364D1*
X2281500Y2179490D1*
X2279599Y2177566D1*
X2276725Y2176615D1*
X2273851D1*
X2270999Y2177566D1*
X2270048Y2178539D1*
X2269075Y2180440D1*
X1326092Y1881418D2*
X1334692D1*
X1337566Y1882390D1*
X1338539Y1883341D1*
X1339489Y1885242D1*
Y1887166D1*
X1338539Y1889067D1*
X1337566Y1890040D1*
X1334692Y1890990D1*
X1326092D1*
Y1870894D1*
X1332790Y1881418D2*
X1339489Y1870894D1*
X1358089Y1890990D2*
X1345665D1*
Y1870894D1*
X1358089D1*
X1345665Y1881418D2*
X1353314D1*
X1377662Y1888116D2*
X1375761Y1890040D1*
X1372887Y1890990D1*
X1369063D1*
X1366189Y1890040D1*
X1364265Y1888116D1*
Y1886215D1*
X1365238Y1884292D1*
X1366189Y1883341D1*
X1368090Y1882390D1*
X1373838Y1880467D1*
X1375761Y1879516D1*
X1376712Y1878544D1*
X1377662Y1876642D1*
Y1873768D1*
X1375761Y1871867D1*
X1372887Y1870894D1*
X1369063D1*
X1366189Y1871867D1*
X1364265Y1873768D1*
X1396263Y1890990D2*
X1383838D1*
Y1870894D1*
X1396263D1*
X1383838Y1881418D2*
X1391487D1*
X1409137Y1890990D2*
Y1870894D1*
X1402438Y1890990D2*
X1415836D1*
X1422011Y1887143D2*
X1423935Y1888116D1*
X1426809Y1890968D1*
Y1870894D1*
X1626431Y447328D2*
X1624530Y449251D1*
X1621656Y450202D1*
X1617831D1*
X1614957Y449251D1*
X1613034Y447328D1*
Y445426D1*
X1614006Y443503D1*
X1614957Y442552D1*
X1616858Y441602D1*
X1622606Y439678D1*
X1624530Y438728D1*
X1625480Y437755D1*
X1626431Y435854D1*
Y432980D1*
X1624530Y431078D1*
X1621656Y430106D1*
X1617831D1*
X1614957Y431078D1*
X1613034Y432980D1*
X1632607Y450202D2*
X1637404Y430106D1*
X1642179Y450202D1*
X1646955Y430106D1*
X1651752Y450202D1*
X1657928Y446355D2*
X1659851Y447328D1*
X1662725Y450179D1*
Y430106D1*
X1956478Y443043D2*
X1954576Y444966D1*
X1951702Y445917D1*
X1947878D1*
X1945004Y444966D1*
X1943080Y443043D1*
Y441141D1*
X1944053Y439218D1*
X1945004Y438267D1*
X1946905Y437317D1*
X1952653Y435393D1*
X1954576Y434443D1*
X1955527Y433470D1*
X1956478Y431569D1*
Y428695D1*
X1954576Y426793D1*
X1951702Y425821D1*
X1947878D1*
X1945004Y426793D1*
X1943080Y428695D1*
X1962653Y445917D2*
X1967451Y425821D1*
X1972226Y445917D1*
X1977001Y425821D1*
X1981799Y445917D1*
X1988947Y441119D2*
Y442070D1*
X1989898Y443993D1*
X1990848Y444944D1*
X1992772Y445895D1*
X1996596D1*
X1998498Y444944D1*
X1999448Y443993D1*
X2000421Y442070D1*
Y440169D1*
X1999448Y438245D1*
X1997547Y435393D1*
X1987974Y425821D1*
X2001372D1*
X2297249Y440901D2*
X2295348Y442824D1*
X2292474Y443775D1*
X2288649D1*
X2285775Y442824D1*
X2283852Y440901D1*
Y439000D1*
X2284825Y437076D1*
X2285775Y436126D1*
X2287677Y435175D1*
X2293425Y433252D1*
X2295348Y432301D1*
X2296299Y431328D1*
X2297249Y429427D1*
Y426553D1*
X2295348Y424652D1*
X2292474Y423679D1*
X2288649D1*
X2285775Y424652D1*
X2283852Y426553D1*
X2303425Y443775D2*
X2308222Y423679D1*
X2312998Y443775D1*
X2317773Y423679D1*
X2322570Y443775D1*
X2330669Y443753D2*
X2341171D1*
X2335445Y436104D1*
X2338319D1*
X2340220Y435153D1*
X2341171Y434202D1*
X2342143Y431328D1*
Y429427D1*
X2341171Y426553D1*
X2339269Y424630D1*
X2336395Y423679D1*
X2333521D1*
X2330669Y424630D1*
X2329719Y425602D1*
X2328746Y427504D1*
X2634333Y441972D2*
X2632432Y443895D1*
X2629558Y444846D1*
X2625733D1*
X2622859Y443895D1*
X2620936Y441972D1*
Y440071D1*
X2621908Y438147D1*
X2622859Y437197D1*
X2624760Y436246D1*
X2630508Y434323D1*
X2632432Y433372D1*
X2633382Y432399D1*
X2634333Y430498D1*
Y427624D1*
X2632432Y425723D1*
X2629558Y424750D1*
X2625733D1*
X2622859Y425723D1*
X2620936Y427624D1*
X2640509Y444846D2*
X2645306Y424750D1*
X2650081Y444846D1*
X2654857Y424750D1*
X2659654Y444846D1*
X2675402Y424750D2*
Y444824D1*
X2665830Y431449D1*
X2680178D1*
X459679Y779240D2*
Y759144D1*
X452980Y779240D2*
X466377D1*
X472553Y768717D2*
X481175D1*
X484027Y769668D1*
X485000Y770640D1*
X485950Y772542D1*
Y775416D1*
X485000Y777317D1*
X484027Y778290D1*
X481175Y779240D1*
X472553D1*
Y759144D1*
X492126Y775393D2*
X494049Y776366D1*
X496923Y779218D1*
Y759144D1*
X524128Y779240D2*
Y759144D1*
X517429Y779240D2*
X530827D1*
X537002Y768717D2*
X545624D1*
X548476Y769668D1*
X549449Y770640D1*
X550400Y772542D1*
Y775416D1*
X549449Y777317D1*
X548476Y778290D1*
X545624Y779240D1*
X537002D1*
Y759144D1*
X557548Y774443D2*
Y775393D1*
X558499Y777317D1*
X559449Y778267D1*
X561373Y779218D1*
X565197D1*
X567099Y778267D1*
X568049Y777317D1*
X569022Y775393D1*
Y773492D1*
X568049Y771569D1*
X566148Y768717D1*
X556575Y759144D1*
X569973D1*
X592855Y779467D2*
Y759371D1*
X586156Y779467D2*
X599554D1*
X605729Y768944D2*
X614351D1*
X617203Y769895D1*
X618176Y770867D1*
X619127Y772769D1*
Y775643D1*
X618176Y777544D1*
X617203Y778517D1*
X614351Y779467D1*
X605729D1*
Y759371D1*
X627226Y779445D2*
X637727D1*
X632001Y771796D1*
X634875D1*
X636776Y770845D1*
X637727Y769895D1*
X638700Y767021D1*
Y765119D1*
X637727Y762245D1*
X635826Y760322D1*
X632952Y759371D1*
X630078D1*
X627226Y760322D1*
X626275Y761295D1*
X625302Y763196D1*
X454894Y698226D2*
Y678130D1*
X448195Y698226D2*
X461593D1*
X467768Y687702D2*
X476391D1*
X479242Y688653D1*
X480215Y689626D1*
X481166Y691527D1*
Y694401D1*
X480215Y696302D1*
X479242Y697275D1*
X476391Y698226D1*
X467768D1*
Y678130D1*
X496914D2*
Y698204D1*
X487342Y684828D1*
X501689D1*
X524112Y698226D2*
Y678130D1*
X517414Y698226D2*
X530811D1*
X536987Y687702D2*
X545609D1*
X548461Y688653D1*
X549433Y689626D1*
X550384Y691527D1*
Y694401D1*
X549433Y696302D1*
X548461Y697275D1*
X545609Y698226D1*
X536987D1*
Y678130D1*
X568034Y698204D2*
X558483D1*
X557532Y689604D1*
X558483Y690554D1*
X561357Y691527D1*
X564209D1*
X567083Y690554D1*
X569006Y688653D1*
X569957Y685779D1*
Y683878D1*
X569006Y681004D1*
X567083Y679080D1*
X564209Y678130D1*
X561357D1*
X558483Y679080D1*
X557532Y680053D1*
X556560Y681954D1*
X593341Y698226D2*
Y678130D1*
X586643Y698226D2*
X600040D1*
X606216Y687702D2*
X614838D1*
X617690Y688653D1*
X618662Y689626D1*
X619613Y691527D1*
Y694401D1*
X618662Y696302D1*
X617690Y697275D1*
X614838Y698226D1*
X606216D1*
Y678130D1*
X637263Y695352D2*
X636312Y697253D1*
X633438Y698204D1*
X631537D1*
X628663Y697253D1*
X626739Y694379D1*
X625789Y689604D1*
Y684828D1*
X626739Y681004D1*
X628663Y679080D1*
X631537Y678130D1*
X632487D1*
X635339Y679080D1*
X637263Y681004D1*
X638213Y683878D1*
Y684828D1*
X637263Y687702D1*
X635339Y689604D1*
X632487Y690554D1*
X631537D1*
X628663Y689604D1*
X626739Y687702D1*
X625789Y684828D1*
X2146280Y1700007D2*
Y1685659D1*
X2147230Y1682785D1*
X2149154Y1680884D1*
X2152028Y1679911D1*
X2153929D1*
X2156803Y1680884D1*
X2158726Y1682785D1*
X2159677Y1685659D1*
Y1700007D1*
X2165853Y1696161D2*
X2167776Y1697133D1*
X2170650Y1699985D1*
Y1679911D1*
X2093069Y1373383D2*
Y1353287D1*
X2104543D1*
X2110719Y1362860D2*
X2119341D1*
X2122193Y1363811D1*
X2123165Y1364783D1*
X2124116Y1366685D1*
Y1369559D1*
X2123165Y1371460D1*
X2122193Y1372433D1*
X2119341Y1373383D1*
X2110719D1*
Y1353287D1*
X2144640Y1368608D2*
X2143689Y1370509D1*
X2141766Y1372433D1*
X2139864Y1373383D1*
X2136040D1*
X2134116Y1372433D1*
X2132215Y1370509D1*
X2131242Y1368608D1*
X2130292Y1365734D1*
Y1360937D1*
X2131242Y1358085D1*
X2132215Y1356161D1*
X2134116Y1354260D1*
X2136040Y1353287D1*
X2139864D1*
X2141766Y1354260D1*
X2143689Y1356161D1*
X2144640Y1358085D1*
X2160388Y1353287D2*
Y1373361D1*
X2150815Y1359986D1*
X2165163D1*
X2177087Y1373361D2*
X2174213Y1372411D1*
X2172290Y1369537D1*
X2171339Y1364761D1*
Y1361887D1*
X2172290Y1357112D1*
X2174213Y1354238D1*
X2177087Y1353287D1*
X2178988D1*
X2181862Y1354238D1*
X2183764Y1357112D1*
X2184736Y1361887D1*
Y1364761D1*
X2183764Y1369537D1*
X2181862Y1372411D1*
X2178988Y1373361D1*
X2177087D1*
X2183764Y1369537D2*
X2172290Y1357112D1*
X2194737Y1353287D2*
X2204310Y1373361D1*
X2190912D1*
X2215261D2*
X2212409Y1372411D1*
X2211436Y1370509D1*
Y1368586D1*
X2212409Y1366685D1*
X2214310Y1365712D1*
X2218135Y1364761D1*
X2221009Y1363811D1*
X2222910Y1361887D1*
X2223860Y1359986D1*
Y1357112D1*
X2222910Y1355211D1*
X2221959Y1354238D1*
X2219085Y1353287D1*
X2215261D1*
X2212409Y1354238D1*
X2211436Y1355211D1*
X2210485Y1357112D1*
Y1359986D1*
X2211436Y1361887D1*
X2213359Y1363811D1*
X2216211Y1364761D1*
X2220036Y1365712D1*
X2221959Y1366685D1*
X2222910Y1368586D1*
Y1370509D1*
X2221959Y1372411D1*
X2219085Y1373361D1*
X2215261D1*
X740005Y2577860D2*
Y2563512D1*
X740955Y2560638D1*
X742879Y2558737D1*
X745753Y2557764D1*
X747654D1*
X750528Y2558737D1*
X752451Y2560638D1*
X753402Y2563512D1*
Y2577860D1*
X760550Y2573063D2*
Y2574014D1*
X761501Y2575937D1*
X762452Y2576888D1*
X764375Y2577838D1*
X768200D1*
X770101Y2576888D1*
X771052Y2575937D1*
X772024Y2574014D1*
Y2572112D1*
X771052Y2570189D1*
X769150Y2567337D1*
X759578Y2557764D1*
X772975D1*
X733402Y2482785D2*
X743904D1*
X738178Y2475136D1*
X741052D1*
X742953Y2474185D1*
X743904Y2473235D1*
X744876Y2470361D1*
Y2468459D1*
X743904Y2465585D1*
X742002Y2463662D1*
X739128Y2462711D1*
X736254D1*
X733402Y2463662D1*
X732452Y2464635D1*
X731479Y2466536D1*
X752003Y2464635D2*
X751052Y2463662D1*
X752003Y2462711D1*
X752975Y2463662D1*
X752003Y2464635D1*
X761074Y2482785D2*
X771576D1*
X765850Y2475136D1*
X768724D1*
X770625Y2474185D1*
X771576Y2473235D1*
X772548Y2470361D1*
Y2468459D1*
X771576Y2465585D1*
X769674Y2463662D1*
X766800Y2462711D1*
X763926D1*
X761074Y2463662D1*
X760124Y2464635D1*
X759151Y2466536D1*
X778724Y2482807D2*
X786373Y2462711D1*
X794023Y2482807D1*
X814469Y2339699D2*
Y2325351D1*
X815420Y2322477D1*
X817343Y2320576D1*
X820217Y2319603D1*
X822118D1*
X824992Y2320576D1*
X826916Y2322477D1*
X827866Y2325351D1*
Y2339699D1*
X835966Y2339677D2*
X846467D1*
X840741Y2332027D1*
X843615D1*
X845516Y2331077D1*
X846467Y2330126D1*
X847439Y2327252D1*
Y2325351D1*
X846467Y2322477D1*
X844565Y2320554D1*
X841691Y2319603D1*
X838817D1*
X835966Y2320554D1*
X835015Y2321526D1*
X834042Y2323428D1*
X906293Y1483200D2*
Y1468852D1*
X907244Y1465978D1*
X909167Y1464077D1*
X912041Y1463104D1*
X913942D1*
X916816Y1464077D1*
X918740Y1465978D1*
X919690Y1468852D1*
Y1483200D1*
X935439Y1463104D2*
Y1483178D1*
X925866Y1469803D1*
X940214D1*
X720604Y426219D2*
Y411871D1*
X721555Y408997D1*
X723478Y407095D1*
X726352Y406123D1*
X728254D1*
X731128Y407095D1*
X733051Y408997D1*
X734002Y411871D1*
Y426219D1*
X751651Y426196D2*
X742101D1*
X741150Y417597D1*
X742101Y418547D1*
X744975Y419520D1*
X747827D1*
X750701Y418547D1*
X752624Y416646D1*
X753575Y413772D1*
Y411871D1*
X752624Y408997D1*
X750701Y407073D1*
X747827Y406123D1*
X744975D1*
X742101Y407073D1*
X741150Y408046D1*
X740177Y409947D1*
X1247697Y432398D2*
Y418050D1*
X1248648Y415176D1*
X1250571Y413275D1*
X1253445Y412302D1*
X1255346D1*
X1258220Y413275D1*
X1260144Y415176D1*
X1261094Y418050D1*
Y432398D1*
X1278744Y429524D2*
X1277793Y431426D1*
X1274919Y432376D1*
X1273018D1*
X1270144Y431426D1*
X1268221Y428552D1*
X1267270Y423776D1*
Y419001D1*
X1268221Y415176D1*
X1270144Y413253D1*
X1273018Y412302D1*
X1273969D1*
X1276821Y413253D1*
X1278744Y415176D1*
X1279695Y418050D1*
Y419001D1*
X1278744Y421875D1*
X1276821Y423776D1*
X1273969Y424727D1*
X1273018D1*
X1270144Y423776D1*
X1268221Y421875D1*
X1267270Y419001D1*
X1199512Y452304D2*
Y472400D1*
X1191862Y452304D1*
X1184213Y472400D1*
Y452304D1*
X1220986D2*
Y472400D1*
X1213337Y452304D1*
X1205687Y472400D1*
Y452304D1*
X1242482D2*
X1234811Y472400D1*
X1227162Y452304D1*
X1230036Y459003D2*
X1239608D1*
X1253433Y472378D2*
X1250581Y471428D1*
X1249609Y469526D1*
Y467603D1*
X1250581Y465702D1*
X1252483Y464729D1*
X1256307Y463778D1*
X1259181Y462828D1*
X1261083Y460904D1*
X1262033Y459003D1*
Y456129D1*
X1261083Y454228D1*
X1260132Y453255D1*
X1257258Y452304D1*
X1253433D1*
X1250581Y453255D1*
X1249609Y454228D1*
X1248658Y456129D1*
Y459003D1*
X1249609Y460904D1*
X1251532Y462828D1*
X1254384Y463778D1*
X1258209Y464729D1*
X1260132Y465702D1*
X1261083Y467603D1*
Y469526D1*
X1260132Y471428D1*
X1257258Y472378D1*
X1253433D1*
X1277782Y452304D2*
Y472378D1*
X1268209Y459003D1*
X1282557D1*
X1300207Y472378D2*
X1290656D1*
X1289705Y463778D1*
X1290656Y464729D1*
X1293530Y465702D1*
X1296382D1*
X1299256Y464729D1*
X1301179Y462828D1*
X1302130Y459954D1*
Y458052D1*
X1301179Y455178D1*
X1299256Y453255D1*
X1296382Y452304D1*
X1293530D1*
X1290656Y453255D1*
X1289705Y454228D1*
X1288733Y456129D1*
X1309278Y467603D2*
Y468554D1*
X1310229Y470477D1*
X1311180Y471428D1*
X1313103Y472378D1*
X1316928D1*
X1318829Y471428D1*
X1319780Y470477D1*
X1320752Y468554D1*
Y466652D1*
X1319780Y464729D1*
X1317878Y461877D1*
X1308306Y452304D1*
X1321703D1*
X1333627Y472400D2*
X1331725Y471472D1*
X1329802Y469549D1*
X1328851Y467625D1*
X1327879Y464751D1*
Y459976D1*
X1328851Y457102D1*
X1329802Y455201D1*
X1331725Y453277D1*
X1333627Y452327D1*
X1337451D1*
X1339375Y453277D1*
X1341276Y455201D1*
X1342227Y457102D1*
X1343199Y459976D1*
Y464751D1*
X1342227Y467625D1*
X1341276Y469549D1*
X1339375Y471472D1*
X1337451Y472400D1*
X1333627D1*
X1336501Y456151D2*
X1342227Y450403D1*
X2120767Y2860513D2*
Y2846165D1*
X2121718Y2843291D1*
X2123641Y2841389D1*
X2126515Y2840417D1*
X2128416D1*
X2131290Y2841389D1*
X2133214Y2843291D1*
X2134164Y2846165D1*
Y2860513D1*
X2144165Y2840417D2*
X2153737Y2860490D1*
X2140340D1*
X2281026Y2646229D2*
X2285823Y2626133D1*
X2290599Y2646229D1*
X2295374Y2626133D1*
X2300171Y2646229D1*
X2306347D2*
Y2626133D1*
X2324969Y2646229D2*
X2312523D1*
Y2626133D1*
Y2636656D2*
X2320172D1*
X2331145Y2646229D2*
Y2626133D1*
X2337321Y2636169D2*
X2348375D1*
X2366975Y2646229D2*
X2354550D1*
Y2626133D1*
X2366975D1*
X2354550Y2636656D2*
X2362200D1*
X2386548Y2643355D2*
X2384647Y2645278D1*
X2381773Y2646229D1*
X2377948D1*
X2375074Y2645278D1*
X2373151Y2643355D1*
Y2641453D1*
X2374123Y2639530D1*
X2375074Y2638579D1*
X2376975Y2637629D1*
X2382723Y2635705D1*
X2384647Y2634755D1*
X2385597Y2633782D1*
X2386548Y2631881D1*
Y2629007D1*
X2384647Y2627105D1*
X2381773Y2626133D1*
X2377948D1*
X2375074Y2627105D1*
X2373151Y2629007D1*
X2392724Y2635705D2*
X2401346D1*
X2404198Y2636656D1*
X2405170Y2637629D1*
X2406121Y2639530D1*
Y2642404D1*
X2405170Y2644305D1*
X2404198Y2645278D1*
X2401346Y2646229D1*
X2392724D1*
Y2626133D1*
X2412297Y2636169D2*
X2423351D1*
X2434302Y2646206D2*
X2431450Y2645256D1*
X2430477Y2643355D1*
Y2641431D1*
X2431450Y2639530D1*
X2433351Y2638557D1*
X2437176Y2637606D1*
X2440050Y2636656D1*
X2441951Y2634732D1*
X2442902Y2632831D1*
Y2629957D1*
X2441951Y2628056D1*
X2441000Y2627083D1*
X2438126Y2626133D1*
X2434302D1*
X2431450Y2627083D1*
X2430477Y2628056D1*
X2429526Y2629957D1*
Y2632831D1*
X2430477Y2634732D1*
X2432400Y2636656D1*
X2435252Y2637606D1*
X2439077Y2638557D1*
X2441000Y2639530D1*
X2441951Y2641431D1*
Y2643355D1*
X2441000Y2645256D1*
X2438126Y2646206D1*
X2434302D1*
X2450050Y2641431D2*
Y2642382D1*
X2451001Y2644305D1*
X2451951Y2645256D1*
X2453875Y2646206D1*
X2457699D1*
X2459601Y2645256D1*
X2460551Y2644305D1*
X2461524Y2642382D1*
Y2640481D1*
X2460551Y2638557D1*
X2458650Y2635705D1*
X2449077Y2626133D1*
X2462475D1*
X2480124Y2643355D2*
X2479174Y2645256D1*
X2476300Y2646206D1*
X2474398D1*
X2471524Y2645256D1*
X2469601Y2642382D1*
X2468650Y2637606D1*
Y2632831D1*
X2469601Y2629007D1*
X2471524Y2627083D1*
X2474398Y2626133D1*
X2475349D1*
X2478201Y2627083D1*
X2480124Y2629007D1*
X2481075Y2631881D1*
Y2632831D1*
X2480124Y2635705D1*
X2478201Y2637606D1*
X2475349Y2638557D1*
X2474398D1*
X2471524Y2637606D1*
X2469601Y2635705D1*
X2468650Y2632831D1*
X2498725Y2643355D2*
X2497774Y2645256D1*
X2494900Y2646206D1*
X2492999D1*
X2490125Y2645256D1*
X2488201Y2642382D1*
X2487251Y2637606D1*
Y2632831D1*
X2488201Y2629007D1*
X2490125Y2627083D1*
X2492999Y2626133D1*
X2493949D1*
X2496801Y2627083D1*
X2498725Y2629007D1*
X2499675Y2631881D1*
Y2632831D1*
X2498725Y2635705D1*
X2496801Y2637606D1*
X2493949Y2638557D1*
X2492999D1*
X2490125Y2637606D1*
X2488201Y2635705D1*
X2487251Y2632831D1*
X2383327Y2583955D2*
Y2569607D1*
X2384277Y2566733D1*
X2386201Y2564832D1*
X2389075Y2563859D1*
X2390976D1*
X2393850Y2564832D1*
X2395773Y2566733D1*
X2396724Y2569607D1*
Y2583955D1*
X2407675Y2583933D2*
X2404823Y2582983D1*
X2403850Y2581081D1*
Y2579158D1*
X2404823Y2577257D1*
X2406724Y2576284D1*
X2410549Y2575333D1*
X2413423Y2574383D1*
X2415324Y2572459D1*
X2416275Y2570558D1*
Y2567684D1*
X2415324Y2565783D1*
X2414374Y2564810D1*
X2411500Y2563859D1*
X2407675D1*
X2404823Y2564810D1*
X2403850Y2565783D1*
X2402900Y2567684D1*
Y2570558D1*
X2403850Y2572459D1*
X2405774Y2574383D1*
X2408626Y2575333D1*
X2412450Y2576284D1*
X2414374Y2577257D1*
X2415324Y2579158D1*
Y2581081D1*
X2414374Y2582983D1*
X2411500Y2583933D1*
X2407675D1*
X1016975Y426182D2*
Y411835D1*
X1017925Y408961D1*
X1019849Y407059D1*
X1022723Y406086D1*
X1024624D1*
X1027498Y407059D1*
X1029421Y408961D1*
X1030372Y411835D1*
Y426182D1*
X1048994Y419484D2*
X1048022Y416610D1*
X1046120Y414686D1*
X1043246Y413736D1*
X1042296D1*
X1039422Y414686D1*
X1037520Y416610D1*
X1036548Y419484D1*
Y420434D1*
X1037520Y423308D1*
X1039422Y425210D1*
X1042296Y426160D1*
X1043246D1*
X1046120Y425210D1*
X1048022Y423308D1*
X1048994Y419484D1*
Y414686D1*
X1048022Y409911D1*
X1046120Y407037D1*
X1043246Y406086D1*
X1041345D1*
X1038471Y407037D1*
X1037520Y408961D1*
X1107811Y445311D2*
X1087715Y437639D1*
X1107811Y429990D1*
X1101112Y432864D2*
Y442437D1*
X1098238Y451486D2*
Y460108D1*
X1097288Y462960D1*
X1096315Y463933D1*
X1094414Y464884D1*
X1091540D1*
X1089638Y463933D1*
X1088666Y462960D1*
X1087715Y460108D1*
Y451486D1*
X1107811D1*
X1087715Y471059D2*
X1107811D1*
Y477758D1*
X1106838Y480632D1*
X1104937Y482555D1*
X1103014Y483506D1*
X1100162Y484457D1*
X1095364D1*
X1092490Y483506D1*
X1090589Y482555D1*
X1088666Y480632D1*
X1087715Y477758D1*
Y471059D1*
X1090589Y504030D2*
X1088666Y502128D1*
X1087715Y499254D1*
Y495430D1*
X1088666Y492556D1*
X1090589Y490632D1*
X1092490D1*
X1094414Y491605D1*
X1095364Y492556D1*
X1096315Y494457D1*
X1098238Y500205D1*
X1099189Y502128D1*
X1100162Y503079D1*
X1102063Y504030D1*
X1104937D1*
X1106838Y502128D1*
X1107811Y499254D1*
Y495430D1*
X1106838Y492556D1*
X1104937Y490632D1*
X1097774Y510205D2*
Y521259D1*
X1094414Y539882D2*
X1097288Y538909D1*
X1099211Y537008D1*
X1100162Y534134D1*
Y533183D1*
X1099211Y530309D1*
X1097288Y528408D1*
X1094414Y527435D1*
X1093463D1*
X1090589Y528408D1*
X1088688Y530309D1*
X1087737Y533183D1*
Y534134D1*
X1088688Y537008D1*
X1090589Y538909D1*
X1094414Y539882D1*
X1099211D1*
X1103986Y538909D1*
X1106860Y537008D1*
X1107811Y534134D1*
Y532232D1*
X1106860Y529358D1*
X1104937Y528408D1*
X1094414Y558504D2*
X1097288Y557531D1*
X1099211Y555630D1*
X1100162Y552756D1*
Y551805D1*
X1099211Y548931D1*
X1097288Y547030D1*
X1094414Y546057D1*
X1093463D1*
X1090589Y547030D1*
X1088688Y548931D1*
X1087737Y551805D1*
Y552756D1*
X1088688Y555630D1*
X1090589Y557531D1*
X1094414Y558504D1*
X1099211D1*
X1103986Y557531D1*
X1106860Y555630D1*
X1107811Y552756D1*
Y550855D1*
X1106860Y547981D1*
X1104937Y547030D1*
X1090589Y576154D2*
X1088688Y575203D1*
X1087737Y572329D1*
Y570428D1*
X1088688Y567554D1*
X1091562Y565630D1*
X1096337Y564680D1*
X1101112D1*
X1104937Y565630D1*
X1106860Y567554D1*
X1107811Y570428D1*
Y571378D1*
X1106860Y574230D1*
X1104937Y576154D1*
X1102063Y577104D1*
X1101112D1*
X1098238Y576154D1*
X1096337Y574230D1*
X1095386Y571378D1*
Y570428D1*
X1096337Y567554D1*
X1098238Y565630D1*
X1101112Y564680D1*
X1087737Y589028D2*
X1088688Y586154D1*
X1091562Y584231D1*
X1096337Y583280D1*
X1099211D1*
X1103986Y584231D1*
X1106860Y586154D1*
X1107811Y589028D1*
Y590929D1*
X1106860Y593803D1*
X1103986Y595705D1*
X1099211Y596677D1*
X1096337D1*
X1091562Y595705D1*
X1088688Y593803D1*
X1087737Y590929D1*
Y589028D1*
X1091562Y595705D2*
X1103986Y584231D1*
X1605210Y1774543D2*
X1612859Y1764970D1*
Y1754447D1*
X1620508Y1774543D2*
X1612859Y1764970D1*
X1626684Y1770696D2*
X1628607Y1771669D1*
X1631481Y1774521D1*
Y1754447D1*
X1604702Y1496070D2*
Y1506571D1*
X1612351Y1500845D1*
Y1503719D1*
X1613302Y1505621D1*
X1614252Y1506571D1*
X1617126Y1507544D1*
X1619028D1*
X1621902Y1506571D1*
X1623825Y1504670D1*
X1624776Y1501796D1*
Y1498922D1*
X1623825Y1496070D1*
X1622852Y1495120D1*
X1620951Y1494147D1*
X1609477Y1514693D2*
X1608526D1*
X1606603Y1515643D1*
X1605652Y1516594D1*
X1604702Y1518517D1*
Y1522342D1*
X1605652Y1524243D1*
X1606603Y1525194D1*
X1608526Y1526166D1*
X1610428D1*
X1612351Y1525194D1*
X1615203Y1523292D1*
X1624776Y1513720D1*
Y1527117D1*
X1622852Y1534243D2*
X1623825Y1533293D1*
X1624776Y1534243D1*
X1623825Y1535216D1*
X1622852Y1534243D1*
X1624776Y1545217D2*
X1604702Y1554789D1*
Y1541392D1*
X1607554Y1572439D2*
X1605652Y1571488D1*
X1604702Y1568614D1*
Y1566713D1*
X1605652Y1563839D1*
X1608526Y1561916D1*
X1613302Y1560965D1*
X1618077D1*
X1621901Y1561916D1*
X1623825Y1563839D1*
X1624776Y1566713D1*
Y1567664D1*
X1623825Y1570515D1*
X1621901Y1572439D1*
X1619027Y1573389D1*
X1618077D1*
X1615203Y1572439D1*
X1613302Y1570515D1*
X1612351Y1567664D1*
Y1566713D1*
X1613302Y1563839D1*
X1615203Y1561916D1*
X1618077Y1560965D1*
X1604702Y1584340D2*
X1605652Y1581489D1*
X1607554Y1580516D1*
X1609477D1*
X1611378Y1581489D1*
X1612351Y1583390D1*
X1613302Y1587214D1*
X1614252Y1590088D1*
X1616176Y1591990D1*
X1618077Y1592940D1*
X1620951D1*
X1622852Y1591990D1*
X1623825Y1591039D1*
X1624775Y1588165D1*
Y1584340D1*
X1623825Y1581489D1*
X1622852Y1580516D1*
X1620951Y1579565D1*
X1618077D1*
X1616176Y1580516D1*
X1614252Y1582439D1*
X1613302Y1585291D1*
X1612351Y1589116D1*
X1611378Y1591039D1*
X1609477Y1591990D1*
X1607554D1*
X1605652Y1591039D1*
X1604702Y1588165D1*
Y1584340D1*
X1604680Y1599116D2*
X1624775D1*
X1604680Y1612513D2*
X1618077Y1599116D1*
X1613279Y1603891D2*
X1624775Y1612513D1*
X1604680Y1618689D2*
X1624775D1*
X1604680Y1632086D2*
X1624775D1*
X1614252Y1618689D2*
Y1632086D1*
X1611378Y1638262D2*
Y1648785D1*
X1624775Y1638262D1*
Y1648785D1*
X1560641Y1161429D2*
X1568290Y1151856D1*
Y1141333D1*
X1575939Y1161429D2*
X1568290Y1151856D1*
X1583088Y1156631D2*
Y1157582D1*
X1584038Y1159505D1*
X1584989Y1160456D1*
X1586912Y1161406D1*
X1590737D1*
X1592638Y1160456D1*
X1593589Y1159505D1*
X1594562Y1157582D1*
Y1155681D1*
X1593589Y1153757D1*
X1591687Y1150905D1*
X1582115Y1141333D1*
X1595512D1*
X1393580Y593486D2*
D143*
X1414627Y566691D1*
Y593486D2*
X1393580Y566691D1*
X1394267Y543973D2*
D144*
X1402856Y523877D1*
X1400004Y518140D1*
X1397119Y515254D1*
X1394267Y513829D1*
X1392808D1*
X1411478Y543973D2*
X1402856Y523877D1*
X1392808Y493967D2*
X1408593D1*
X1392808Y473871D1*
X1408593D1*
X437526Y1663386D2*
D142*
X445175Y1643290D1*
X452824Y1663386D1*
X473348Y1658611D2*
X472397Y1660512D1*
X470474Y1662435D1*
X468573Y1663386D1*
X464748D1*
X462825Y1662435D1*
X460923Y1660512D1*
X459951Y1658611D1*
X459000Y1655737D1*
Y1650939D1*
X459951Y1648087D1*
X460923Y1646164D1*
X462825Y1644263D1*
X464748Y1643290D1*
X468573D1*
X470474Y1644263D1*
X472397Y1646164D1*
X473348Y1648087D1*
X493872Y1658611D2*
X492921Y1660512D1*
X490998Y1662435D1*
X489096Y1663386D1*
X485272D1*
X483348Y1662435D1*
X481447Y1660512D1*
X480474Y1658611D1*
X479524Y1655737D1*
Y1650939D1*
X480474Y1648087D1*
X481447Y1646164D1*
X483348Y1644263D1*
X485272Y1643290D1*
X489096D1*
X490998Y1644263D1*
X492921Y1646164D1*
X493872Y1648087D1*
X544224Y1663386D2*
Y1643290D1*
X537526Y1663386D2*
X550923D1*
X571447Y1658611D2*
X570496Y1660512D1*
X568573Y1662435D1*
X566671Y1663386D1*
X562847D1*
X560923Y1662435D1*
X559022Y1660512D1*
X558049Y1658611D1*
X557099Y1655737D1*
Y1650939D1*
X558049Y1648087D1*
X559022Y1646164D1*
X560923Y1644263D1*
X562847Y1643290D1*
X566671D1*
X568573Y1644263D1*
X570496Y1646164D1*
X571447Y1648087D1*
X577622Y1663386D2*
Y1643290D1*
X591020Y1663386D2*
X577622Y1649989D1*
X582398Y1654786D2*
X591020Y1643290D1*
X639444Y1663386D2*
Y1643290D1*
X632745Y1663386D2*
X646142D1*
X652318Y1653813D2*
X660918D1*
X663792Y1654786D1*
X664765Y1655737D1*
X665715Y1657638D1*
Y1659561D1*
X664765Y1661463D1*
X663792Y1662435D1*
X660918Y1663386D1*
X652318D1*
Y1643290D1*
X659017Y1653813D2*
X665715Y1643290D1*
X685288Y1660512D2*
X683387Y1662435D1*
X680513Y1663386D1*
X676688D1*
X673814Y1662435D1*
X671891Y1660512D1*
Y1658611D1*
X672864Y1656687D1*
X673814Y1655737D1*
X675716Y1654786D1*
X681464Y1652863D1*
X683387Y1651912D1*
X684338Y1650939D1*
X685288Y1649038D1*
Y1646164D1*
X683387Y1644263D1*
X680513Y1643290D1*
X676688D1*
X673814Y1644263D1*
X671891Y1646164D1*
X698163Y1663386D2*
Y1643290D1*
X691464Y1663386D2*
X704861D1*
X745694D2*
Y1643290D1*
X738996Y1663386D2*
X752393D1*
X773867Y1643290D2*
Y1663386D1*
X766218Y1643290D1*
X758569Y1663386D1*
Y1643290D1*
X793440Y1660512D2*
X791539Y1662435D1*
X788665Y1663386D1*
X784840D1*
X781966Y1662435D1*
X780043Y1660512D1*
Y1658611D1*
X781016Y1656687D1*
X781966Y1655737D1*
X783868Y1654786D1*
X789616Y1652863D1*
X791539Y1651912D1*
X792490Y1650939D1*
X793440Y1649038D1*
Y1646164D1*
X791539Y1644263D1*
X788665Y1643290D1*
X784840D1*
X781966Y1644263D1*
X780043Y1646164D1*
X1159593Y1658611D2*
X1158642Y1660512D1*
X1156719Y1662435D1*
X1154818Y1663386D1*
X1150993D1*
X1149070Y1662435D1*
X1147168Y1660512D1*
X1146196Y1658611D1*
X1145245Y1655737D1*
Y1650939D1*
X1146196Y1648087D1*
X1147168Y1646164D1*
X1149070Y1644263D1*
X1150993Y1643290D1*
X1154818D1*
X1156719Y1644263D1*
X1158642Y1646164D1*
X1159593Y1648087D1*
Y1650939D1*
X1154818D1*
X1179166Y1663386D2*
Y1643290D1*
X1165769Y1663386D1*
Y1643290D1*
X1185342Y1663386D2*
Y1643290D1*
X1192040D1*
X1194914Y1644263D1*
X1196838Y1646164D1*
X1197788Y1648087D1*
X1198739Y1650939D1*
Y1655737D1*
X1197788Y1658611D1*
X1196838Y1660512D1*
X1194914Y1662435D1*
X1192040Y1663386D1*
X1185342D1*
X851944D2*
Y1643290D1*
X845245Y1663386D2*
X858642D1*
X864818D2*
Y1643290D1*
X871517D1*
X874391Y1644263D1*
X876314Y1646164D1*
X877265Y1648087D1*
X878215Y1650939D1*
Y1655737D1*
X877265Y1658611D1*
X876314Y1660512D1*
X874391Y1662435D1*
X871517Y1663386D1*
X864818D1*
X884391D2*
Y1643290D1*
X945694Y1663386D2*
Y1643290D1*
X938996Y1663386D2*
X952393D1*
X958569D2*
Y1643290D1*
X965267D1*
X968141Y1644263D1*
X970065Y1646164D1*
X971015Y1648087D1*
X971966Y1650939D1*
Y1655737D1*
X971015Y1658611D1*
X970065Y1660512D1*
X968141Y1662435D1*
X965267Y1663386D1*
X958569D1*
X983890D2*
X981966Y1662435D1*
X980065Y1660512D1*
X979092Y1658611D1*
X978142Y1655737D1*
Y1650939D1*
X979092Y1648087D1*
X980065Y1646164D1*
X981966Y1644263D1*
X983890Y1643290D1*
X987714D1*
X989616Y1644263D1*
X991539Y1646164D1*
X992490Y1648087D1*
X993440Y1650939D1*
Y1655737D1*
X992490Y1658611D1*
X991539Y1660512D1*
X989616Y1662435D1*
X987714Y1663386D1*
X983890D1*
X1045245Y1653813D2*
X1053845D1*
X1056719Y1654786D1*
X1057692Y1655737D1*
X1058642Y1657638D1*
Y1659561D1*
X1057692Y1661463D1*
X1056719Y1662435D1*
X1053845Y1663386D1*
X1045245D1*
Y1643290D1*
X1051944Y1653813D2*
X1058642Y1643290D1*
X1078215Y1660512D2*
X1076314Y1662435D1*
X1073440Y1663386D1*
X1069615D1*
X1066741Y1662435D1*
X1064818Y1660512D1*
Y1658611D1*
X1065791Y1656687D1*
X1066741Y1655737D1*
X1068643Y1654786D1*
X1074391Y1652863D1*
X1076314Y1651912D1*
X1077265Y1650939D1*
X1078215Y1649038D1*
Y1646164D1*
X1076314Y1644263D1*
X1073440Y1643290D1*
X1069615D1*
X1066741Y1644263D1*
X1064818Y1646164D1*
X1091090Y1663386D2*
Y1643290D1*
X1084391Y1663386D2*
X1097788D1*
X1045245Y1668626D2*
X1103964D1*
X3007485Y2604704D2*
X3015134Y2584608D1*
X3022784Y2604704D1*
X3028959D2*
Y2584608D1*
X3048532Y2604704D2*
Y2584608D1*
X3035135Y2604704D1*
Y2584608D1*
X3007485Y2199997D2*
X3016107D1*
X3018959Y2200947D1*
X3019932Y2201920D1*
X3020882Y2203821D1*
Y2206695D1*
X3019932Y2208597D1*
X3018959Y2209569D1*
X3016107Y2210520D1*
X3007485D1*
Y2190424D1*
X3032806Y2210498D2*
X3029932Y2209547D1*
X3028009Y2206673D1*
X3027058Y2201898D1*
Y2199024D1*
X3028009Y2194249D1*
X3029932Y2191375D1*
X3032806Y2190424D1*
X3034707D1*
X3037581Y2191375D1*
X3039483Y2194249D1*
X3040455Y2199024D1*
Y2201898D1*
X3039483Y2206673D1*
X3037581Y2209547D1*
X3034707Y2210498D1*
X3032806D1*
X3039483Y2206673D2*
X3028009Y2194249D1*
X3047582Y2192347D2*
X3046631Y2191375D1*
X3047582Y2190424D1*
X3048555Y2191375D1*
X3047582Y2192347D1*
X3058555Y2190424D2*
X3068128Y2210498D1*
X3054730D1*
X3020882Y2170579D2*
X3018981Y2172502D1*
X3016107Y2173453D1*
X3012282D1*
X3009408Y2172502D1*
X3007485Y2170579D1*
Y2168678D1*
X3008458Y2166754D1*
X3009408Y2165804D1*
X3011310Y2164853D1*
X3017058Y2162930D1*
X3018981Y2161979D1*
X3019932Y2161006D1*
X3020882Y2159105D1*
Y2156231D1*
X3018981Y2154330D1*
X3016107Y2153357D1*
X3012282D1*
X3009408Y2154330D1*
X3007485Y2156231D1*
X3041406Y2168678D2*
X3040455Y2170579D1*
X3038532Y2172502D1*
X3036631Y2173453D1*
X3032806D1*
X3030883Y2172502D1*
X3028981Y2170579D1*
X3028009Y2168678D1*
X3027058Y2165804D1*
Y2161006D1*
X3028009Y2158154D1*
X3028981Y2156231D1*
X3030883Y2154330D1*
X3032806Y2153357D1*
X3036631D1*
X3038532Y2154330D1*
X3040455Y2156231D1*
X3041406Y2158154D1*
X3047582Y2173453D2*
Y2153357D1*
X3060979Y2173453D2*
X3047582Y2160056D1*
X3052357Y2164853D2*
X3060979Y2153357D1*
X3067155Y2169606D2*
X3069078Y2170579D1*
X3071952Y2173431D1*
Y2153357D1*
X3007485Y2106247D2*
X3016107D1*
X3018959Y2107198D1*
X3019932Y2108171D1*
X3020882Y2110072D1*
Y2112946D1*
X3019932Y2114847D1*
X3018959Y2115820D1*
X3016107Y2116771D1*
X3007485D1*
Y2096675D1*
X3032806Y2116748D2*
X3029932Y2115798D1*
X3028009Y2112924D1*
X3027058Y2108148D1*
Y2105274D1*
X3028009Y2100499D1*
X3029932Y2097625D1*
X3032806Y2096675D1*
X3034707D1*
X3037581Y2097625D1*
X3039483Y2100499D1*
X3040455Y2105274D1*
Y2108148D1*
X3039483Y2112924D1*
X3037581Y2115798D1*
X3034707Y2116748D1*
X3032806D1*
X3039483Y2112924D2*
X3028009Y2100499D1*
X3047582Y2098598D2*
X3046631Y2097625D1*
X3047582Y2096675D1*
X3048555Y2097625D1*
X3047582Y2098598D1*
X3067177Y2110072D2*
X3066204Y2107198D1*
X3064303Y2105274D1*
X3061429Y2104324D1*
X3060478D1*
X3057604Y2105274D1*
X3055703Y2107198D1*
X3054730Y2110072D1*
Y2111023D1*
X3055703Y2113897D1*
X3057604Y2115798D1*
X3060478Y2116748D1*
X3061429D1*
X3064303Y2115798D1*
X3066204Y2113897D1*
X3067177Y2110072D1*
Y2105274D1*
X3066204Y2100499D1*
X3064303Y2097625D1*
X3061429Y2096675D1*
X3059528D1*
X3056654Y2097625D1*
X3055703Y2099549D1*
X3022784Y2059608D2*
Y2079704D1*
X3015134Y2059608D1*
X3007485Y2079704D1*
Y2059608D1*
X3034707Y2079704D2*
X3032784Y2078753D1*
X3030883Y2076830D1*
X3029910Y2074928D1*
X3028959Y2072054D1*
Y2067257D1*
X3029910Y2064405D1*
X3030883Y2062482D1*
X3032784Y2060580D1*
X3034707Y2059608D1*
X3038532D1*
X3040433Y2060580D1*
X3042357Y2062482D1*
X3043307Y2064405D1*
X3044258Y2067257D1*
Y2072054D1*
X3043307Y2074928D1*
X3042357Y2076830D1*
X3040433Y2078753D1*
X3038532Y2079704D1*
X3034707D1*
X3063831Y2076830D2*
X3061930Y2078753D1*
X3059056Y2079704D1*
X3055231D1*
X3052357Y2078753D1*
X3050434Y2076830D1*
Y2074928D1*
X3051406Y2073005D1*
X3052357Y2072054D1*
X3054258Y2071104D1*
X3060006Y2069180D1*
X3061930Y2068230D1*
X3062880Y2067257D1*
X3063831Y2065356D1*
Y2062482D1*
X3061930Y2060580D1*
X3059056Y2059608D1*
X3055231D1*
X3052357Y2060580D1*
X3050434Y2062482D1*
X3070007Y2079704D2*
Y2059608D1*
X3076182Y2075857D2*
X3078106Y2076830D1*
X3080980Y2079682D1*
Y2059608D1*
X3007485Y2406247D2*
X3016107D1*
X3018959Y2407198D1*
X3019932Y2408171D1*
X3020882Y2410072D1*
Y2412946D1*
X3019932Y2414847D1*
X3018959Y2415820D1*
X3016107Y2416771D1*
X3007485D1*
Y2396675D1*
X3027058Y2412924D2*
X3028981Y2413897D1*
X3031856Y2416748D1*
Y2396675D1*
X3038982Y2398598D2*
X3038031Y2397625D1*
X3038982Y2396675D1*
X3039955Y2397625D1*
X3038982Y2398598D1*
X3046130Y2412924D2*
X3048054Y2413897D1*
X3050928Y2416748D1*
Y2396675D1*
X3066676D2*
Y2416748D1*
X3057103Y2403373D1*
X3071451D1*
X3022784Y2565756D2*
X3007485Y2557134D1*
X3022784Y2548534D1*
X3040433Y2564330D2*
X3039483Y2566231D1*
X3036609Y2567182D1*
X3034707D1*
X3031833Y2566231D1*
X3029910Y2563357D1*
X3028959Y2558582D1*
Y2553806D1*
X3029910Y2549982D1*
X3031833Y2548058D1*
X3034707Y2547108D1*
X3035658D1*
X3038510Y2548058D1*
X3040433Y2549982D1*
X3041384Y2552856D1*
Y2553806D1*
X3040433Y2556680D1*
X3038510Y2558582D1*
X3035658Y2559532D1*
X3034707D1*
X3031833Y2558582D1*
X3029910Y2556680D1*
X3028959Y2553806D1*
X3047560Y2567204D2*
X3055209Y2547108D1*
X3062858Y2567204D1*
X3007485Y2523454D2*
X3015134Y2503358D1*
X3022784Y2523454D1*
X3043307Y2518679D2*
X3042357Y2520580D1*
X3040433Y2522504D1*
X3038532Y2523454D1*
X3034707D1*
X3032784Y2522504D1*
X3030883Y2520580D1*
X3029910Y2518679D1*
X3028959Y2515805D1*
Y2511008D1*
X3029910Y2508156D1*
X3030883Y2506232D1*
X3032784Y2504331D1*
X3034707Y2503358D1*
X3038532D1*
X3040433Y2504331D1*
X3042357Y2506232D1*
X3043307Y2508156D1*
X3063831Y2518679D2*
X3062880Y2520580D1*
X3060957Y2522504D1*
X3059056Y2523454D1*
X3055231D1*
X3053308Y2522504D1*
X3051406Y2520580D1*
X3050434Y2518679D1*
X3049483Y2515805D1*
Y2511008D1*
X3050434Y2508156D1*
X3051406Y2506232D1*
X3053308Y2504331D1*
X3055231Y2503358D1*
X3059056D1*
X3060957Y2504331D1*
X3062880Y2506232D1*
X3063831Y2508156D1*
X3009408Y2485932D2*
X3019910D1*
X3014184Y2478283D1*
X3017058D1*
X3018959Y2477332D1*
X3019910Y2476382D1*
X3020882Y2473508D1*
Y2471606D1*
X3019910Y2468732D1*
X3018008Y2466809D1*
X3015134Y2465858D1*
X3012260D1*
X3009408Y2466809D1*
X3008458Y2467782D1*
X3007485Y2469683D1*
X3028009Y2467782D2*
X3027058Y2466809D1*
X3028009Y2465858D1*
X3028981Y2466809D1*
X3028009Y2467782D1*
X3037081Y2485932D2*
X3047582D1*
X3041856Y2478283D1*
X3044730D1*
X3046631Y2477332D1*
X3047582Y2476382D1*
X3048555Y2473508D1*
Y2471606D1*
X3047582Y2468732D1*
X3045681Y2466809D1*
X3042806Y2465858D1*
X3039932D1*
X3037081Y2466809D1*
X3036130Y2467782D1*
X3035157Y2469683D1*
X3054730Y2485954D2*
X3062380Y2465858D1*
X3070029Y2485954D1*
X3021833Y2374928D2*
X3020882Y2376830D1*
X3018959Y2378753D1*
X3017058Y2379704D1*
X3013233D1*
X3011310Y2378753D1*
X3009408Y2376830D1*
X3008436Y2374928D1*
X3007485Y2372054D1*
Y2367257D1*
X3008436Y2364405D1*
X3009408Y2362482D1*
X3011310Y2360580D1*
X3013233Y2359608D1*
X3017058D1*
X3018959Y2360580D1*
X3020882Y2362482D1*
X3021833Y2364405D1*
X3033757Y2379704D2*
X3031833Y2378753D1*
X3029932Y2376830D1*
X3028959Y2374928D1*
X3028009Y2372054D1*
Y2367257D1*
X3028959Y2364405D1*
X3029932Y2362482D1*
X3031833Y2360580D1*
X3033757Y2359608D1*
X3037581D1*
X3039483Y2360580D1*
X3041406Y2362482D1*
X3042357Y2364405D1*
X3043307Y2367257D1*
Y2372054D1*
X3042357Y2374928D1*
X3041406Y2376830D1*
X3039483Y2378753D1*
X3037581Y2379704D1*
X3033757D1*
X3064782Y2359608D2*
Y2379704D1*
X3057132Y2359608D1*
X3049483Y2379704D1*
Y2359608D1*
X3070957Y2369180D2*
X3079579D1*
X3082431Y2370131D1*
X3083404Y2371104D1*
X3084355Y2373005D1*
Y2375879D1*
X3083404Y2377780D1*
X3082431Y2378753D1*
X3079579Y2379704D1*
X3070957D1*
Y2359608D1*
X3007485Y2306247D2*
X3016107D1*
X3018959Y2307198D1*
X3019932Y2308171D1*
X3020882Y2310072D1*
Y2312946D1*
X3019932Y2314847D1*
X3018959Y2315820D1*
X3016107Y2316771D1*
X3007485D1*
Y2296675D1*
X3036631D2*
Y2316748D1*
X3027058Y2303373D1*
X3041406D1*
X3048532Y2298598D2*
X3047582Y2297625D1*
X3048532Y2296675D1*
X3049505Y2297625D1*
X3048532Y2298598D1*
X3056654Y2311973D2*
Y2312924D1*
X3057604Y2314847D1*
X3058555Y2315798D1*
X3060478Y2316748D1*
X3064303D1*
X3066204Y2315798D1*
X3067155Y2314847D1*
X3068128Y2312924D1*
Y2311023D1*
X3067155Y2309099D1*
X3065254Y2306247D1*
X3055681Y2296675D1*
X3069078D1*
X3087701Y2310072D2*
X3086728Y2307198D1*
X3084827Y2305274D1*
X3081953Y2304324D1*
X3081002D1*
X3078128Y2305274D1*
X3076227Y2307198D1*
X3075254Y2310072D1*
Y2311023D1*
X3076227Y2313897D1*
X3078128Y2315798D1*
X3081002Y2316748D1*
X3081953D1*
X3084827Y2315798D1*
X3086728Y2313897D1*
X3087701Y2310072D1*
Y2305274D1*
X3086728Y2300499D1*
X3084827Y2297625D1*
X3081953Y2296675D1*
X3080051D1*
X3077177Y2297625D1*
X3076227Y2299549D1*
X3007485Y2270131D2*
X3016085D1*
X3018959Y2271104D1*
X3019932Y2272054D1*
X3020882Y2273956D1*
Y2275879D1*
X3019932Y2277780D1*
X3018959Y2278753D1*
X3016085Y2279704D1*
X3007485D1*
Y2259608D1*
X3014184Y2270131D2*
X3020882Y2259608D1*
X3027058Y2279704D2*
X3040455Y2259608D1*
Y2279704D2*
X3027058Y2259608D1*
X3048555Y2279682D2*
X3059056D1*
X3053330Y2272032D1*
X3056204D1*
X3058105Y2271082D1*
X3059056Y2270131D1*
X3060028Y2267257D1*
Y2265356D1*
X3059056Y2262482D1*
X3057154Y2260558D1*
X3054280Y2259608D1*
X3051406D1*
X3048555Y2260558D1*
X3047604Y2261531D1*
X3046631Y2263432D1*
X3007485Y1999998D2*
X3016107D1*
X3018959Y2000949D1*
X3019932Y2001921D1*
X3020882Y2003823D1*
Y2006697D1*
X3019932Y2008598D1*
X3018959Y2009571D1*
X3016107Y2010521D1*
X3007485D1*
Y1990425D1*
X3032806Y2010499D2*
X3029932Y2009548D1*
X3028009Y2006674D1*
X3027058Y2001899D1*
Y1999025D1*
X3028009Y1994250D1*
X3029932Y1991376D1*
X3032806Y1990425D1*
X3034707D1*
X3037581Y1991376D1*
X3039483Y1994250D1*
X3040455Y1999025D1*
Y2001899D1*
X3039483Y2006674D1*
X3037581Y2009548D1*
X3034707Y2010499D1*
X3032806D1*
X3039483Y2006674D2*
X3028009Y1994250D1*
X3047582Y1992349D2*
X3046631Y1991376D1*
X3047582Y1990425D1*
X3048555Y1991376D1*
X3047582Y1992349D1*
X3055703Y2005724D2*
Y2006674D1*
X3056654Y2008598D1*
X3057604Y2009548D1*
X3059528Y2010499D1*
X3063352D1*
X3065254Y2009548D1*
X3066204Y2008598D1*
X3067177Y2006674D1*
Y2004773D1*
X3066204Y2002850D1*
X3064303Y1999998D1*
X3054730Y1990425D1*
X3068128D1*
X3085777Y2010499D2*
X3076227D1*
X3075276Y2001899D1*
X3076227Y2002850D1*
X3079101Y2003823D1*
X3081953D1*
X3084827Y2002850D1*
X3086750Y2000949D1*
X3087701Y1998074D1*
Y1996173D1*
X3086750Y1993299D1*
X3084827Y1991376D1*
X3081953Y1990425D1*
X3079101D1*
X3076227Y1991376D1*
X3075276Y1992349D1*
X3074303Y1994250D1*
X3022806Y1953358D2*
X3015134Y1973454D1*
X3007485Y1953358D1*
X3010359Y1960057D2*
X3019932D1*
X3028981Y1973454D2*
Y1953358D1*
X3035680D1*
X3038554Y1954331D1*
X3040478Y1956232D1*
X3041428Y1958156D1*
X3042379Y1961008D1*
Y1965805D1*
X3041428Y1968679D1*
X3040478Y1970580D1*
X3038554Y1972504D1*
X3035680Y1973454D1*
X3028981D1*
X3062902Y1968679D2*
X3061952Y1970580D1*
X3060028Y1972504D1*
X3058127Y1973454D1*
X3054303D1*
X3052379Y1972504D1*
X3050478Y1970580D1*
X3049505Y1968679D1*
X3048555Y1965805D1*
Y1961008D1*
X3049505Y1958156D1*
X3050478Y1956232D1*
X3052379Y1954331D1*
X3054303Y1953358D1*
X3058127D1*
X3060028Y1954331D1*
X3061952Y1956232D1*
X3062902Y1958156D1*
X3070051Y1968657D2*
Y1969608D1*
X3071002Y1971531D1*
X3071952Y1972482D1*
X3073876Y1973432D1*
X3077700D1*
X3079602Y1972482D1*
X3080552Y1971531D1*
X3081525Y1969608D1*
Y1967706D1*
X3080552Y1965783D1*
X3078651Y1962931D1*
X3069078Y1953358D1*
X3082476D1*
X3007485Y1906249D2*
X3016107D1*
X3018959Y1907199D1*
X3019932Y1908172D1*
X3020882Y1910073D1*
Y1912947D1*
X3019932Y1914848D1*
X3018959Y1915821D1*
X3016107Y1916772D1*
X3007485D1*
Y1896676D1*
X3027058Y1912925D2*
X3028981Y1913898D1*
X3031856Y1916750D1*
Y1896676D1*
X3038982Y1898599D2*
X3038031Y1897626D1*
X3038982Y1896676D1*
X3039955Y1897626D1*
X3038982Y1898599D1*
X3048054Y1916750D2*
X3058555D1*
X3052829Y1909100D1*
X3055703D1*
X3057604Y1908150D1*
X3058555Y1907199D1*
X3059528Y1904325D1*
Y1902424D1*
X3058555Y1899550D1*
X3056654Y1897626D1*
X3053780Y1896676D1*
X3050906D1*
X3048054Y1897626D1*
X3047103Y1898599D1*
X3046130Y1900501D1*
X3071451Y1916750D2*
X3068577Y1915799D1*
X3066654Y1912925D1*
X3065703Y1908150D1*
Y1905276D1*
X3066654Y1900501D1*
X3068577Y1897626D1*
X3071451Y1896676D1*
X3073353D1*
X3076227Y1897626D1*
X3078128Y1900501D1*
X3079101Y1905276D1*
Y1908150D1*
X3078128Y1912925D1*
X3076227Y1915799D1*
X3073353Y1916750D1*
X3071451D1*
X3078128Y1912925D2*
X3066654Y1900501D1*
X3022806Y1859609D2*
X3015134Y1879705D1*
X3007485Y1859609D1*
X3010359Y1866308D2*
X3019932D1*
X3028981Y1879705D2*
Y1859609D1*
X3035680D1*
X3038554Y1860582D1*
X3040478Y1862483D1*
X3041428Y1864406D1*
X3042379Y1867258D1*
Y1872056D1*
X3041428Y1874930D1*
X3040478Y1876831D1*
X3038554Y1878754D1*
X3035680Y1879705D1*
X3028981D1*
X3062902Y1874930D2*
X3061952Y1876831D1*
X3060028Y1878754D1*
X3058127Y1879705D1*
X3054303D1*
X3052379Y1878754D1*
X3050478Y1876831D1*
X3049505Y1874930D1*
X3048555Y1872056D1*
Y1867258D1*
X3049505Y1864406D1*
X3050478Y1862483D1*
X3052379Y1860582D1*
X3054303Y1859609D1*
X3058127D1*
X3060028Y1860582D1*
X3061952Y1862483D1*
X3062902Y1864406D1*
X3078651Y1859609D2*
Y1879683D1*
X3069078Y1866308D1*
X3083426D1*
X3007485Y1799998D2*
X3016107D1*
X3018959Y1800949D1*
X3019932Y1801921D1*
X3020882Y1803823D1*
Y1806697D1*
X3019932Y1808598D1*
X3018959Y1809571D1*
X3016107Y1810521D1*
X3007485D1*
Y1790425D1*
X3027058Y1806674D2*
X3028981Y1807647D1*
X3031856Y1810499D1*
Y1790425D1*
X3038982Y1792349D2*
X3038031Y1791376D1*
X3038982Y1790425D1*
X3039955Y1791376D1*
X3038982Y1792349D1*
X3047103Y1805724D2*
Y1806674D1*
X3048054Y1808598D1*
X3049004Y1809548D1*
X3050928Y1810499D1*
X3054752D1*
X3056654Y1809548D1*
X3057604Y1808598D1*
X3058577Y1806674D1*
Y1804773D1*
X3057604Y1802850D1*
X3055703Y1799998D1*
X3046130Y1790425D1*
X3059528D1*
X3067627Y1810499D2*
X3078128D1*
X3072402Y1802850D1*
X3075276D1*
X3077177Y1801899D1*
X3078128Y1800949D1*
X3079101Y1798074D1*
Y1796173D1*
X3078128Y1793299D1*
X3076227Y1791376D1*
X3073353Y1790425D1*
X3070479D1*
X3067627Y1791376D1*
X3066676Y1792349D1*
X3065703Y1794250D1*
X3013233Y1773454D2*
X3011332Y1772526D1*
X3009408Y1770602D1*
X3008458Y1768679D1*
X3007485Y1765805D1*
Y1761030D1*
X3008458Y1758156D1*
X3009408Y1756254D1*
X3011332Y1754331D1*
X3013233Y1753380D1*
X3017058D1*
X3018981Y1754331D1*
X3020882Y1756254D1*
X3021833Y1758156D1*
X3022806Y1761030D1*
Y1765805D1*
X3021833Y1768679D1*
X3020882Y1770602D1*
X3018981Y1772526D1*
X3017058Y1773454D1*
X3013233D1*
X3016107Y1757205D2*
X3021833Y1751457D1*
X3041406Y1773454D2*
X3028981D1*
Y1753358D1*
X3041406D1*
X3028981Y1763882D2*
X3036631D1*
X3047582Y1773454D2*
Y1753358D1*
X3054708Y1755282D2*
X3053757Y1754309D1*
X3054708Y1753358D1*
X3055681Y1754309D1*
X3054708Y1755282D1*
X3061857Y1773454D2*
Y1753358D1*
X3070479D1*
X3073353Y1754331D1*
X3074303Y1755282D1*
X3075254Y1757183D1*
Y1760057D1*
X3074303Y1761980D1*
X3073353Y1762931D1*
X3070479Y1763882D1*
X3073353Y1764854D1*
X3074303Y1765805D1*
X3075254Y1767706D1*
Y1769630D1*
X3074303Y1771531D1*
X3073353Y1772504D1*
X3070479Y1773454D1*
X3061857D1*
Y1763882D2*
X3070479D1*
X3007485Y1706247D2*
X3016107D1*
X3018959Y1707198D1*
X3019932Y1708171D1*
X3020882Y1710072D1*
Y1712946D1*
X3019932Y1714847D1*
X3018959Y1715820D1*
X3016107Y1716771D1*
X3007485D1*
Y1696675D1*
X3027058Y1712924D2*
X3028981Y1713897D1*
X3031856Y1716748D1*
Y1696675D1*
X3038982Y1698598D2*
X3038031Y1697625D1*
X3038982Y1696675D1*
X3039955Y1697625D1*
X3038982Y1698598D1*
X3047103Y1711973D2*
Y1712924D1*
X3048054Y1714847D1*
X3049004Y1715798D1*
X3050928Y1716748D1*
X3054752D1*
X3056654Y1715798D1*
X3057604Y1714847D1*
X3058577Y1712924D1*
Y1711023D1*
X3057604Y1709099D1*
X3055703Y1706247D1*
X3046130Y1696675D1*
X3059528D1*
X3078150Y1710072D2*
X3077177Y1707198D1*
X3075276Y1705274D1*
X3072402Y1704324D1*
X3071451D1*
X3068577Y1705274D1*
X3066676Y1707198D1*
X3065703Y1710072D1*
Y1711023D1*
X3066676Y1713897D1*
X3068577Y1715798D1*
X3071451Y1716748D1*
X3072402D1*
X3075276Y1715798D1*
X3077177Y1713897D1*
X3078150Y1710072D1*
Y1705274D1*
X3077177Y1700499D1*
X3075276Y1697625D1*
X3072402Y1696675D1*
X3070501D1*
X3067627Y1697625D1*
X3066676Y1699549D1*
X3007485Y1679704D2*
Y1659608D1*
X3013661Y1673005D2*
Y1659608D1*
Y1667257D2*
X3014634Y1670131D1*
X3016535Y1672054D1*
X3018458Y1673005D1*
X3021332D1*
X3034207Y1679704D2*
Y1659608D1*
X3027508Y1679704D2*
X3040905D1*
X3047081D2*
X3060478Y1659608D1*
Y1679704D2*
X3047081Y1659608D1*
X3007485Y1606247D2*
X3016107D1*
X3018959Y1607198D1*
X3019932Y1608171D1*
X3020882Y1610072D1*
Y1612946D1*
X3019932Y1614847D1*
X3018959Y1615820D1*
X3016107Y1616771D1*
X3007485D1*
Y1596675D1*
X3028031Y1611973D2*
Y1612924D1*
X3028981Y1614847D1*
X3029932Y1615798D1*
X3031856Y1616748D1*
X3035680D1*
X3037581Y1615798D1*
X3038532Y1614847D1*
X3039505Y1612924D1*
Y1611023D1*
X3038532Y1609099D1*
X3036631Y1606247D1*
X3027058Y1596675D1*
X3040455D1*
X3047582Y1598598D2*
X3046631Y1597625D1*
X3047582Y1596675D1*
X3048555Y1597625D1*
X3047582Y1598598D1*
X3054730Y1612924D2*
X3056654Y1613897D1*
X3059528Y1616748D1*
Y1596675D1*
X3007485Y1569180D2*
X3016107D1*
X3018959Y1570131D1*
X3019932Y1571104D1*
X3020882Y1573005D1*
Y1575879D1*
X3019932Y1577780D1*
X3018959Y1578753D1*
X3016107Y1579704D1*
X3007485D1*
Y1559608D1*
X3027058Y1579704D2*
X3031856Y1559608D1*
X3036631Y1579704D1*
X3041406Y1559608D1*
X3046203Y1579704D1*
X3067678Y1559608D2*
Y1579704D1*
X3060028Y1559608D1*
X3052379Y1579704D1*
Y1559608D1*
X3074826Y1574906D2*
Y1575857D1*
X3075777Y1577780D1*
X3076728Y1578731D1*
X3078651Y1579682D1*
X3082476D1*
X3084377Y1578731D1*
X3085327Y1577780D1*
X3086300Y1575857D1*
Y1573956D1*
X3085327Y1572032D1*
X3083426Y1569180D1*
X3073853Y1559608D1*
X3087251D1*
X3007485Y1506247D2*
X3016107D1*
X3018959Y1507198D1*
X3019932Y1508171D1*
X3020882Y1510072D1*
Y1512946D1*
X3019932Y1514847D1*
X3018959Y1515820D1*
X3016107Y1516771D1*
X3007485D1*
Y1496675D1*
X3028031Y1511973D2*
Y1512924D1*
X3028981Y1514847D1*
X3029932Y1515798D1*
X3031856Y1516748D1*
X3035680D1*
X3037581Y1515798D1*
X3038532Y1514847D1*
X3039505Y1512924D1*
Y1511023D1*
X3038532Y1509099D1*
X3036631Y1506247D1*
X3027058Y1496675D1*
X3040455D1*
X3047582Y1498598D2*
X3046631Y1497625D1*
X3047582Y1496675D1*
X3048555Y1497625D1*
X3047582Y1498598D1*
X3064303Y1496675D2*
Y1516748D1*
X3054730Y1503373D1*
X3069078D1*
X3007485Y1469180D2*
X3016107D1*
X3018959Y1470131D1*
X3019932Y1471104D1*
X3020882Y1473005D1*
Y1475879D1*
X3019932Y1477780D1*
X3018959Y1478753D1*
X3016107Y1479704D1*
X3007485D1*
Y1459608D1*
X3027058Y1479704D2*
X3031856Y1459608D1*
X3036631Y1479704D1*
X3041406Y1459608D1*
X3046203Y1479704D1*
X3067678Y1459608D2*
Y1479704D1*
X3060028Y1459608D1*
X3052379Y1479704D1*
Y1459608D1*
X3085327Y1479682D2*
X3075777D1*
X3074826Y1471082D1*
X3075777Y1472032D1*
X3078651Y1473005D1*
X3081503D1*
X3084377Y1472032D1*
X3086300Y1470131D1*
X3087251Y1467257D1*
Y1465356D1*
X3086300Y1462482D1*
X3084377Y1460558D1*
X3081503Y1459608D1*
X3078651D1*
X3075777Y1460558D1*
X3074826Y1461531D1*
X3073853Y1463432D1*
X3007485Y1406247D2*
X3016107D1*
X3018959Y1407198D1*
X3019932Y1408171D1*
X3020882Y1410072D1*
Y1412946D1*
X3019932Y1414847D1*
X3018959Y1415820D1*
X3016107Y1416771D1*
X3007485D1*
Y1396675D1*
X3028031Y1411973D2*
Y1412924D1*
X3028981Y1414847D1*
X3029932Y1415798D1*
X3031856Y1416748D1*
X3035680D1*
X3037581Y1415798D1*
X3038532Y1414847D1*
X3039505Y1412924D1*
Y1411023D1*
X3038532Y1409099D1*
X3036631Y1406247D1*
X3027058Y1396675D1*
X3040455D1*
X3047582Y1398598D2*
X3046631Y1397625D1*
X3047582Y1396675D1*
X3048555Y1397625D1*
X3047582Y1398598D1*
X3066204Y1413897D2*
X3065254Y1415798D1*
X3062380Y1416748D1*
X3060478D1*
X3057604Y1415798D1*
X3055681Y1412924D1*
X3054730Y1408148D1*
Y1403373D1*
X3055681Y1399549D1*
X3057604Y1397625D1*
X3060478Y1396675D1*
X3061429D1*
X3064281Y1397625D1*
X3066204Y1399549D1*
X3067155Y1402423D1*
Y1403373D1*
X3066204Y1406247D1*
X3064281Y1408148D1*
X3061429Y1409099D1*
X3060478D1*
X3057604Y1408148D1*
X3055681Y1406247D1*
X3054730Y1403373D1*
X3021833Y1374928D2*
X3020882Y1376830D1*
X3018959Y1378753D1*
X3017058Y1379704D1*
X3013233D1*
X3011310Y1378753D1*
X3009408Y1376830D1*
X3008436Y1374928D1*
X3007485Y1372054D1*
Y1367257D1*
X3008436Y1364405D1*
X3009408Y1362482D1*
X3011310Y1360580D1*
X3013233Y1359608D1*
X3017058D1*
X3018959Y1360580D1*
X3020882Y1362482D1*
X3021833Y1364405D1*
X3043329Y1359608D2*
X3035658Y1379704D1*
X3028009Y1359608D1*
X3030883Y1366306D2*
X3040455D1*
X3049505Y1369180D2*
X3058127D1*
X3060979Y1370131D1*
X3061952Y1371104D1*
X3062902Y1373005D1*
Y1375879D1*
X3061952Y1377780D1*
X3060979Y1378753D1*
X3058127Y1379704D1*
X3049505D1*
Y1359608D1*
X3074826Y1379682D2*
X3071952Y1378731D1*
X3070029Y1375857D1*
X3069078Y1371082D1*
Y1368208D1*
X3070029Y1363432D1*
X3071952Y1360558D1*
X3074826Y1359608D1*
X3076728D1*
X3079602Y1360558D1*
X3081503Y1363432D1*
X3082476Y1368208D1*
Y1371082D1*
X3081503Y1375857D1*
X3079602Y1378731D1*
X3076728Y1379682D1*
X3074826D1*
X3081503Y1375857D2*
X3070029Y1363432D1*
X3007485Y1106247D2*
X3016107D1*
X3018959Y1107198D1*
X3019932Y1108171D1*
X3020882Y1110072D1*
Y1112946D1*
X3019932Y1114847D1*
X3018959Y1115820D1*
X3016107Y1116771D1*
X3007485D1*
Y1096675D1*
X3032806Y1116748D2*
X3029932Y1115798D1*
X3028009Y1112924D1*
X3027058Y1108148D1*
Y1105274D1*
X3028009Y1100499D1*
X3029932Y1097625D1*
X3032806Y1096675D1*
X3034707D1*
X3037581Y1097625D1*
X3039483Y1100499D1*
X3040455Y1105274D1*
Y1108148D1*
X3039483Y1112924D1*
X3037581Y1115798D1*
X3034707Y1116748D1*
X3032806D1*
X3039483Y1112924D2*
X3028009Y1100499D1*
X3047582Y1098598D2*
X3046631Y1097625D1*
X3047582Y1096675D1*
X3048555Y1097625D1*
X3047582Y1098598D1*
X3054730Y1112924D2*
X3056654Y1113897D1*
X3059528Y1116748D1*
Y1096675D1*
X3069528D2*
X3079101Y1116748D1*
X3065703D1*
X3022784Y1059608D2*
Y1079704D1*
X3015134Y1059608D1*
X3007485Y1079704D1*
Y1059608D1*
X3028959Y1079704D2*
Y1059608D1*
X3048532Y1076830D2*
X3046631Y1078753D1*
X3043757Y1079704D1*
X3039932D1*
X3037058Y1078753D1*
X3035135Y1076830D1*
Y1074928D1*
X3036108Y1073005D1*
X3037058Y1072054D1*
X3038960Y1071104D1*
X3044708Y1069180D1*
X3046631Y1068230D1*
X3047582Y1067257D1*
X3048532Y1065356D1*
Y1062482D1*
X3046631Y1060580D1*
X3043757Y1059608D1*
X3039932D1*
X3037058Y1060580D1*
X3035135Y1062482D1*
X3060456Y1079704D2*
X3058533Y1078753D1*
X3056631Y1076830D1*
X3055659Y1074928D1*
X3054708Y1072054D1*
Y1067257D1*
X3055659Y1064405D1*
X3056631Y1062482D1*
X3058533Y1060580D1*
X3060456Y1059608D1*
X3064281D1*
X3066182Y1060580D1*
X3068105Y1062482D1*
X3069056Y1064405D1*
X3070007Y1067257D1*
Y1072054D1*
X3069056Y1074928D1*
X3068105Y1076830D1*
X3066182Y1078753D1*
X3064281Y1079704D1*
X3060456D1*
X3081930Y1079682D2*
X3079056Y1078731D1*
X3077133Y1075857D1*
X3076182Y1071082D1*
Y1068208D1*
X3077133Y1063432D1*
X3079056Y1060558D1*
X3081930Y1059608D1*
X3083832D1*
X3086706Y1060558D1*
X3088607Y1063432D1*
X3089580Y1068208D1*
Y1071082D1*
X3088607Y1075857D1*
X3086706Y1078731D1*
X3083832Y1079682D1*
X3081930D1*
X3088607Y1075857D2*
X3077133Y1063432D1*
X3007485Y1206247D2*
X3016107D1*
X3018959Y1207198D1*
X3019932Y1208171D1*
X3020882Y1210072D1*
Y1212946D1*
X3019932Y1214847D1*
X3018959Y1215820D1*
X3016107Y1216771D1*
X3007485D1*
Y1196675D1*
X3032806Y1216748D2*
X3029932Y1215798D1*
X3028009Y1212924D1*
X3027058Y1208148D1*
Y1205274D1*
X3028009Y1200499D1*
X3029932Y1197625D1*
X3032806Y1196675D1*
X3034707D1*
X3037581Y1197625D1*
X3039483Y1200499D1*
X3040455Y1205274D1*
Y1208148D1*
X3039483Y1212924D1*
X3037581Y1215798D1*
X3034707Y1216748D1*
X3032806D1*
X3039483Y1212924D2*
X3028009Y1200499D1*
X3047582Y1198598D2*
X3046631Y1197625D1*
X3047582Y1196675D1*
X3048555Y1197625D1*
X3047582Y1198598D1*
X3054730Y1212924D2*
X3056654Y1213897D1*
X3059528Y1216748D1*
Y1196675D1*
X3077177Y1213897D2*
X3076227Y1215798D1*
X3073353Y1216748D1*
X3071451D1*
X3068577Y1215798D1*
X3066654Y1212924D1*
X3065703Y1208148D1*
Y1203373D1*
X3066654Y1199549D1*
X3068577Y1197625D1*
X3071451Y1196675D1*
X3072402D1*
X3075254Y1197625D1*
X3077177Y1199549D1*
X3078128Y1202423D1*
Y1203373D1*
X3077177Y1206247D1*
X3075254Y1208148D1*
X3072402Y1209099D1*
X3071451D1*
X3068577Y1208148D1*
X3066654Y1206247D1*
X3065703Y1203373D1*
X3019932Y1179704D2*
X3007485D1*
Y1159608D1*
Y1170131D2*
X3015134D1*
X3026107Y1179704D2*
X3027058Y1178753D1*
X3028031Y1179704D1*
X3027058Y1180676D1*
X3026107Y1179704D1*
X3027058Y1173005D2*
Y1159608D1*
X3034207Y1179704D2*
Y1159608D1*
X3046130Y1179704D2*
X3044207Y1178753D1*
X3042306Y1176830D1*
X3041333Y1174928D1*
X3040382Y1172054D1*
Y1167257D1*
X3041333Y1164405D1*
X3042306Y1162482D1*
X3044207Y1160580D1*
X3046130Y1159608D1*
X3049955D1*
X3051856Y1160580D1*
X3053780Y1162482D1*
X3054730Y1164405D1*
X3055681Y1167257D1*
Y1172054D1*
X3054730Y1174928D1*
X3053780Y1176830D1*
X3051856Y1178753D1*
X3049955Y1179704D1*
X3046130D1*
X3063780Y1179682D2*
X3074281D1*
X3068555Y1172032D1*
X3071429D1*
X3073331Y1171082D1*
X3074281Y1170131D1*
X3075254Y1167257D1*
Y1165356D1*
X3074281Y1162482D1*
X3072380Y1160558D1*
X3069506Y1159608D1*
X3066632D1*
X3063780Y1160558D1*
X3062829Y1161531D1*
X3061857Y1163432D1*
X3007485Y1306247D2*
X3016107D1*
X3018959Y1307198D1*
X3019932Y1308171D1*
X3020882Y1310072D1*
Y1312946D1*
X3019932Y1314847D1*
X3018959Y1315820D1*
X3016107Y1316771D1*
X3007485D1*
Y1296675D1*
X3028031Y1311973D2*
Y1312924D1*
X3028981Y1314847D1*
X3029932Y1315798D1*
X3031856Y1316748D1*
X3035680D1*
X3037581Y1315798D1*
X3038532Y1314847D1*
X3039505Y1312924D1*
Y1311023D1*
X3038532Y1309099D1*
X3036631Y1306247D1*
X3027058Y1296675D1*
X3040455D1*
X3047582Y1298598D2*
X3046631Y1297625D1*
X3047582Y1296675D1*
X3048555Y1297625D1*
X3047582Y1298598D1*
X3059506Y1316748D2*
X3056654Y1315798D1*
X3055681Y1313897D1*
Y1311973D1*
X3056654Y1310072D1*
X3058555Y1309099D1*
X3062380Y1308148D1*
X3065254Y1307198D1*
X3067155Y1305274D1*
X3068105Y1303373D1*
Y1300499D1*
X3067155Y1298598D1*
X3066204Y1297625D1*
X3063330Y1296675D1*
X3059506D1*
X3056654Y1297625D1*
X3055681Y1298598D1*
X3054730Y1300499D1*
Y1303373D1*
X3055681Y1305274D1*
X3057604Y1307198D1*
X3060456Y1308148D1*
X3064281Y1309099D1*
X3066204Y1310072D1*
X3067155Y1311973D1*
Y1313897D1*
X3066204Y1315798D1*
X3063330Y1316748D1*
X3059506D1*
X3021833Y1274928D2*
X3020882Y1276830D1*
X3018959Y1278753D1*
X3017058Y1279704D1*
X3013233D1*
X3011310Y1278753D1*
X3009408Y1276830D1*
X3008436Y1274928D1*
X3007485Y1272054D1*
Y1267257D1*
X3008436Y1264405D1*
X3009408Y1262482D1*
X3011310Y1260580D1*
X3013233Y1259608D1*
X3017058D1*
X3018959Y1260580D1*
X3020882Y1262482D1*
X3021833Y1264405D1*
X3034707Y1279704D2*
Y1259608D1*
X3028009Y1279704D2*
X3041406D1*
X3047582D2*
Y1259608D1*
X3054280D1*
X3057154Y1260580D1*
X3059078Y1262482D1*
X3060028Y1264405D1*
X3060979Y1267257D1*
Y1272054D1*
X3060028Y1274928D1*
X3059078Y1276830D1*
X3057154Y1278753D1*
X3054280Y1279704D1*
X3047582D1*
X3068128Y1274906D2*
Y1275857D1*
X3069078Y1277780D1*
X3070029Y1278731D1*
X3071952Y1279682D1*
X3075777D1*
X3077678Y1278731D1*
X3078629Y1277780D1*
X3079602Y1275857D1*
Y1273956D1*
X3078629Y1272032D1*
X3076728Y1269180D1*
X3067155Y1259608D1*
X3080552D1*
X3007485Y1006247D2*
X3016107D1*
X3018959Y1007198D1*
X3019932Y1008171D1*
X3020882Y1010072D1*
Y1012946D1*
X3019932Y1014847D1*
X3018959Y1015820D1*
X3016107Y1016771D1*
X3007485D1*
Y996675D1*
X3032806Y1016748D2*
X3029932Y1015798D1*
X3028009Y1012924D1*
X3027058Y1008148D1*
Y1005274D1*
X3028009Y1000499D1*
X3029932Y997625D1*
X3032806Y996675D1*
X3034707D1*
X3037581Y997625D1*
X3039483Y1000499D1*
X3040455Y1005274D1*
Y1008148D1*
X3039483Y1012924D1*
X3037581Y1015798D1*
X3034707Y1016748D1*
X3032806D1*
X3039483Y1012924D2*
X3028009Y1000499D1*
X3047582Y998598D2*
X3046631Y997625D1*
X3047582Y996675D1*
X3048555Y997625D1*
X3047582Y998598D1*
X3055703Y1011973D2*
Y1012924D1*
X3056654Y1014847D1*
X3057604Y1015798D1*
X3059528Y1016748D1*
X3063352D1*
X3065254Y1015798D1*
X3066204Y1014847D1*
X3067177Y1012924D1*
Y1011023D1*
X3066204Y1009099D1*
X3064303Y1006247D1*
X3054730Y996675D1*
X3068128D1*
X3075276Y1011973D2*
Y1012924D1*
X3076227Y1014847D1*
X3077177Y1015798D1*
X3079101Y1016748D1*
X3082925D1*
X3084827Y1015798D1*
X3085777Y1014847D1*
X3086750Y1012924D1*
Y1011023D1*
X3085777Y1009099D1*
X3083876Y1006247D1*
X3074303Y996675D1*
X3087701D1*
X3019932Y979704D2*
X3007485D1*
Y959608D1*
Y970131D2*
X3015134D1*
X3026107Y979704D2*
X3027058Y978753D1*
X3028031Y979704D1*
X3027058Y980676D1*
X3026107Y979704D1*
X3027058Y973005D2*
Y959608D1*
X3048555Y974928D2*
X3047604Y976830D1*
X3045681Y978753D1*
X3043779Y979704D1*
X3039955D1*
X3038031Y978753D1*
X3036130Y976830D1*
X3035157Y974928D1*
X3034207Y972054D1*
Y967257D1*
X3035157Y964405D1*
X3036130Y962482D1*
X3038031Y960580D1*
X3039955Y959608D1*
X3043779D1*
X3045681Y960580D1*
X3047604Y962482D1*
X3048555Y964405D1*
X3054730Y979704D2*
Y959608D1*
X3066204D1*
X3072380Y979704D2*
Y959608D1*
X3085777Y979704D2*
X3072380Y966306D1*
X3077155Y971104D2*
X3085777Y959608D1*
X3007485Y906247D2*
X3016107D1*
X3018959Y907198D1*
X3019932Y908171D1*
X3020882Y910072D1*
Y912946D1*
X3019932Y914847D1*
X3018959Y915820D1*
X3016107Y916771D1*
X3007485D1*
Y896675D1*
X3032806Y916748D2*
X3029932Y915798D1*
X3028009Y912924D1*
X3027058Y908148D1*
Y905274D1*
X3028009Y900499D1*
X3029932Y897625D1*
X3032806Y896675D1*
X3034707D1*
X3037581Y897625D1*
X3039483Y900499D1*
X3040455Y905274D1*
Y908148D1*
X3039483Y912924D1*
X3037581Y915798D1*
X3034707Y916748D1*
X3032806D1*
X3039483Y912924D2*
X3028009Y900499D1*
X3047582Y898598D2*
X3046631Y897625D1*
X3047582Y896675D1*
X3048555Y897625D1*
X3047582Y898598D1*
X3060478Y916748D2*
X3057604Y915798D1*
X3055681Y912924D1*
X3054730Y908148D1*
Y905274D1*
X3055681Y900499D1*
X3057604Y897625D1*
X3060478Y896675D1*
X3062380D1*
X3065254Y897625D1*
X3067155Y900499D1*
X3068128Y905274D1*
Y908148D1*
X3067155Y912924D1*
X3065254Y915798D1*
X3062380Y916748D1*
X3060478D1*
X3067155Y912924D2*
X3055681Y900499D1*
X3020882Y876830D2*
X3018981Y878753D1*
X3016107Y879704D1*
X3012282D1*
X3009408Y878753D1*
X3007485Y876830D1*
Y874928D1*
X3008458Y873005D1*
X3009408Y872054D1*
X3011310Y871104D1*
X3017058Y869180D1*
X3018981Y868230D1*
X3019932Y867257D1*
X3020882Y865356D1*
Y862482D1*
X3018981Y860580D1*
X3016107Y859608D1*
X3012282D1*
X3009408Y860580D1*
X3007485Y862482D1*
X3027058Y879704D2*
Y859608D1*
X3033757D1*
X3036631Y860580D1*
X3038554Y862482D1*
X3039505Y864405D1*
X3040455Y867257D1*
Y872054D1*
X3039505Y874928D1*
X3038554Y876830D1*
X3036631Y878753D1*
X3033757Y879704D1*
X3027058D1*
X3061952Y859608D2*
X3054280Y879704D1*
X3046631Y859608D1*
X3049505Y866306D2*
X3059078D1*
X3068128Y875857D2*
X3070051Y876830D1*
X3072925Y879682D1*
Y859608D1*
X3007485Y799998D2*
X3016107D1*
X3018959Y800949D1*
X3019932Y801921D1*
X3020882Y803823D1*
Y806697D1*
X3019932Y808598D1*
X3018959Y809571D1*
X3016107Y810521D1*
X3007485D1*
Y790425D1*
X3032806Y810499D2*
X3029932Y809548D1*
X3028009Y806674D1*
X3027058Y801899D1*
Y799025D1*
X3028009Y794250D1*
X3029932Y791376D1*
X3032806Y790425D1*
X3034707D1*
X3037581Y791376D1*
X3039483Y794250D1*
X3040455Y799025D1*
Y801899D1*
X3039483Y806674D1*
X3037581Y809548D1*
X3034707Y810499D1*
X3032806D1*
X3039483Y806674D2*
X3028009Y794250D1*
X3047582Y792349D2*
X3046631Y791376D1*
X3047582Y790425D1*
X3048555Y791376D1*
X3047582Y792349D1*
X3054730Y806674D2*
X3056654Y807647D1*
X3059528Y810499D1*
Y790425D1*
X3065703Y806674D2*
X3067627Y807647D1*
X3070501Y810499D1*
Y790425D1*
X3020882Y770580D2*
X3018981Y772504D1*
X3016107Y773454D1*
X3012282D1*
X3009408Y772504D1*
X3007485Y770580D1*
Y768679D1*
X3008458Y766756D1*
X3009408Y765805D1*
X3011310Y764854D1*
X3017058Y762931D1*
X3018981Y761980D1*
X3019932Y761008D1*
X3020882Y759106D1*
Y756232D1*
X3018981Y754331D1*
X3016107Y753358D1*
X3012282D1*
X3009408Y754331D1*
X3007485Y756232D1*
X3041406Y768679D2*
X3040455Y770580D1*
X3038532Y772504D1*
X3036631Y773454D1*
X3032806D1*
X3030883Y772504D1*
X3028981Y770580D1*
X3028009Y768679D1*
X3027058Y765805D1*
Y761008D1*
X3028009Y758156D1*
X3028981Y756232D1*
X3030883Y754331D1*
X3032806Y753358D1*
X3036631D1*
X3038532Y754331D1*
X3040455Y756232D1*
X3041406Y758156D1*
X3047582Y773454D2*
Y753358D1*
X3059056D1*
X3066204Y768657D2*
Y769608D1*
X3067155Y771531D1*
X3068105Y772482D1*
X3070029Y773432D1*
X3073853D1*
X3075755Y772482D1*
X3076705Y771531D1*
X3077678Y769608D1*
Y767706D1*
X3076705Y765783D1*
X3074804Y762931D1*
X3065231Y753358D1*
X3078629D1*
X2934333Y611997D2*
X2933382Y613898D1*
X2931459Y615821D1*
X2929558Y616772D1*
X2925733D1*
X2923810Y615821D1*
X2921908Y613898D1*
X2920936Y611997D1*
X2919985Y609123D1*
Y604325D1*
X2920936Y601473D1*
X2921908Y599550D1*
X2923810Y597649D1*
X2925733Y596676D1*
X2929558D1*
X2931459Y597649D1*
X2933382Y599550D1*
X2934333Y601473D1*
Y604325D1*
X2929558D1*
X2953906Y616772D2*
Y596676D1*
X2940509Y616772D1*
Y596676D1*
X2960082Y616772D2*
Y596676D1*
X2966780D1*
X2969654Y597649D1*
X2971578Y599550D1*
X2972528Y601473D1*
X2973479Y604325D1*
Y609123D1*
X2972528Y611997D1*
X2971578Y613898D1*
X2969654Y615821D1*
X2966780Y616772D1*
X2960082D1*
X2828084Y611997D2*
X2827133Y613898D1*
X2825210Y615821D1*
X2823308Y616772D1*
X2819484D1*
X2817560Y615821D1*
X2815659Y613898D1*
X2814686Y611997D1*
X2813736Y609123D1*
Y604325D1*
X2814686Y601473D1*
X2815659Y599550D1*
X2817560Y597649D1*
X2819484Y596676D1*
X2823308D1*
X2825210Y597649D1*
X2827133Y599550D1*
X2828084Y601473D1*
Y604325D1*
X2823308D1*
X2847657Y616772D2*
Y596676D1*
X2834259Y616772D1*
Y596676D1*
X2853832Y616772D2*
Y596676D1*
X2860531D1*
X2863405Y597649D1*
X2865329Y599550D1*
X2866279Y601473D1*
X2867230Y604325D1*
Y609123D1*
X2866279Y611997D1*
X2865329Y613898D1*
X2863405Y615821D1*
X2860531Y616772D1*
X2853832D1*
X2706313Y812499D2*
X2714935D1*
X2717787Y813450D1*
X2718760Y814423D1*
X2719711Y816324D1*
Y819198D1*
X2718760Y821099D1*
X2717787Y822072D1*
X2714935Y823023D1*
X2706313D1*
Y802927D1*
X2731634Y823000D2*
X2728760Y822050D1*
X2726837Y819176D1*
X2725886Y814400D1*
Y811526D1*
X2726837Y806751D1*
X2728760Y803877D1*
X2731634Y802927D1*
X2733536D1*
X2736410Y803877D1*
X2738311Y806751D1*
X2739284Y811526D1*
Y814400D1*
X2738311Y819176D1*
X2736410Y822050D1*
X2733536Y823000D1*
X2731634D1*
X2738311Y819176D2*
X2726837Y806751D1*
X2746410Y804850D2*
X2745459Y803877D1*
X2746410Y802927D1*
X2747383Y803877D1*
X2746410Y804850D1*
X2753558Y819176D2*
X2755482Y820148D1*
X2758356Y823000D1*
Y802927D1*
X2770279Y823000D2*
X2767405Y822050D1*
X2765482Y819176D1*
X2764531Y814400D1*
Y811526D1*
X2765482Y806751D1*
X2767405Y803877D1*
X2770279Y802927D1*
X2772181D1*
X2775055Y803877D1*
X2776956Y806751D1*
X2777929Y811526D1*
Y814400D1*
X2776956Y819176D1*
X2775055Y822050D1*
X2772181Y823000D1*
X2770279D1*
X2776956Y819176D2*
X2765482Y806751D1*
X2736859Y790293D2*
X2734958Y792216D1*
X2732084Y793167D1*
X2728259D1*
X2725385Y792216D1*
X2723461Y790293D1*
Y788392D1*
X2724434Y786468D1*
X2725385Y785518D1*
X2727286Y784567D1*
X2733034Y782644D1*
X2734958Y781693D1*
X2735908Y780720D1*
X2736859Y778819D1*
Y775945D1*
X2734958Y774044D1*
X2732084Y773071D1*
X2728259D1*
X2725385Y774044D1*
X2723461Y775945D1*
X2743034Y793167D2*
Y773071D1*
X2749733D1*
X2752607Y774044D1*
X2754531Y775945D1*
X2755481Y777868D1*
X2756432Y780720D1*
Y785518D1*
X2755481Y788392D1*
X2754531Y790293D1*
X2752607Y792216D1*
X2749733Y793167D1*
X2743034D1*
X2777928Y773071D2*
X2770257Y793167D1*
X2762608Y773071D1*
X2765482Y779770D2*
X2775054D1*
X2717308Y2106682D2*
X2725930D1*
X2728782Y2107632D1*
X2729755Y2108605D1*
X2730705Y2110506D1*
Y2113380D1*
X2729755Y2115282D1*
X2728782Y2116254D1*
X2725930Y2117205D1*
X2717308D1*
Y2097109D1*
X2742629Y2117183D2*
X2739755Y2116232D1*
X2737832Y2113358D1*
X2736881Y2108583D1*
Y2105709D1*
X2737832Y2100934D1*
X2739755Y2098060D1*
X2742629Y2097109D1*
X2744530D1*
X2747404Y2098060D1*
X2749306Y2100934D1*
X2750278Y2105709D1*
Y2108583D1*
X2749306Y2113358D1*
X2747404Y2116232D1*
X2744530Y2117183D1*
X2742629D1*
X2749306Y2113358D2*
X2737832Y2100934D1*
X2757405Y2099032D2*
X2756454Y2098060D1*
X2757405Y2097109D1*
X2758377Y2098060D1*
X2757405Y2099032D1*
X2769328Y2117183D2*
X2766476Y2116232D1*
X2765504Y2114331D1*
Y2112408D1*
X2766476Y2110506D1*
X2768378Y2109534D1*
X2772202Y2108583D1*
X2775076Y2107632D1*
X2776978Y2105709D1*
X2777928Y2103808D1*
Y2100934D1*
X2776978Y2099032D1*
X2776027Y2098060D1*
X2773153Y2097109D1*
X2769328D1*
X2766476Y2098060D1*
X2765504Y2099032D1*
X2764553Y2100934D1*
Y2103808D1*
X2765504Y2105709D1*
X2767427Y2107632D1*
X2770279Y2108583D1*
X2774104Y2109534D1*
X2776027Y2110506D1*
X2776978Y2112408D1*
Y2114331D1*
X2776027Y2116232D1*
X2773153Y2117183D1*
X2769328D1*
X2719733Y2059608D2*
Y2079704D1*
X2712083Y2059608D1*
X2704434Y2079704D1*
Y2059608D1*
X2725908Y2079704D2*
Y2059608D1*
X2745481Y2076830D2*
X2743580Y2078753D1*
X2740706Y2079704D1*
X2736881D1*
X2734007Y2078753D1*
X2732084Y2076830D1*
Y2074928D1*
X2733057Y2073005D1*
X2734007Y2072054D1*
X2735909Y2071104D1*
X2741657Y2069180D1*
X2743580Y2068230D1*
X2744531Y2067257D1*
X2745481Y2065356D1*
Y2062482D1*
X2743580Y2060580D1*
X2740706Y2059608D1*
X2736881D1*
X2734007Y2060580D1*
X2732084Y2062482D1*
X2757405Y2079704D2*
X2755482Y2078753D1*
X2753580Y2076830D1*
X2752608Y2074928D1*
X2751657Y2072054D1*
Y2067257D1*
X2752608Y2064405D1*
X2753580Y2062482D1*
X2755482Y2060580D1*
X2757405Y2059608D1*
X2761230D1*
X2763131Y2060580D1*
X2765054Y2062482D1*
X2766005Y2064405D1*
X2766956Y2067257D1*
Y2072054D1*
X2766005Y2074928D1*
X2765054Y2076830D1*
X2763131Y2078753D1*
X2761230Y2079704D1*
X2757405D1*
X2773131Y2075857D2*
X2775055Y2076830D1*
X2777929Y2079682D1*
Y2059608D1*
X2698686Y2000432D2*
X2707308D1*
X2710160Y2001383D1*
X2711133Y2002356D1*
X2712083Y2004257D1*
Y2007131D1*
X2711133Y2009032D1*
X2710160Y2010005D1*
X2707308Y2010956D1*
X2698686D1*
Y1990860D1*
X2724007Y2010933D2*
X2721133Y2009983D1*
X2719210Y2007109D1*
X2718259Y2002334D1*
Y1999460D1*
X2719210Y1994684D1*
X2721133Y1991810D1*
X2724007Y1990860D1*
X2725908D1*
X2728782Y1991810D1*
X2730683Y1994684D1*
X2731656Y1999460D1*
Y2002334D1*
X2730683Y2007109D1*
X2728782Y2009983D1*
X2725908Y2010933D1*
X2724007D1*
X2730683Y2007109D2*
X2719210Y1994684D1*
X2738783Y1992783D2*
X2737832Y1991810D1*
X2738783Y1990860D1*
X2739755Y1991810D1*
X2738783Y1992783D1*
X2746904Y2006158D2*
Y2007109D1*
X2747854Y2009032D1*
X2748805Y2009983D1*
X2750728Y2010933D1*
X2754553D1*
X2756454Y2009983D1*
X2757405Y2009032D1*
X2758378Y2007109D1*
Y2005208D1*
X2757405Y2003284D1*
X2755504Y2000432D1*
X2745931Y1990860D1*
X2759328D1*
X2776978Y2008082D2*
X2776027Y2009983D1*
X2773153Y2010933D1*
X2771252D1*
X2768378Y2009983D1*
X2766455Y2007109D1*
X2765504Y2002334D1*
Y1997558D1*
X2766455Y1993734D1*
X2768378Y1991810D1*
X2771252Y1990860D1*
X2772203D1*
X2775055Y1991810D1*
X2776978Y1993734D1*
X2777929Y1996608D1*
Y1997558D1*
X2776978Y2000432D1*
X2775055Y2002334D1*
X2772203Y2003284D1*
X2771252D1*
X2768378Y2002334D1*
X2766455Y2000432D1*
X2765504Y1997558D1*
X2722511Y1973454D2*
Y1953358D1*
X2729210D1*
X2732084Y1954331D1*
X2734007Y1956232D1*
X2734958Y1958156D1*
X2735909Y1961008D1*
Y1965805D1*
X2734958Y1968679D1*
X2734007Y1970580D1*
X2732084Y1972504D1*
X2729210Y1973454D1*
X2722511D1*
X2757405Y1953358D2*
X2749734Y1973454D1*
X2742084Y1953358D1*
X2744958Y1960057D2*
X2754531D1*
X2777929Y1968679D2*
X2776978Y1970580D1*
X2775055Y1972504D1*
X2773153Y1973454D1*
X2769329D1*
X2767405Y1972504D1*
X2765504Y1970580D1*
X2764531Y1968679D1*
X2763581Y1965805D1*
Y1961008D1*
X2764531Y1958156D1*
X2765504Y1956232D1*
X2767405Y1954331D1*
X2769329Y1953358D1*
X2773153D1*
X2775055Y1954331D1*
X2776978Y1956232D1*
X2777929Y1958156D1*
X2714913Y1900432D2*
X2723535D1*
X2726387Y1901383D1*
X2727360Y1902356D1*
X2728310Y1904257D1*
Y1907131D1*
X2727360Y1909032D1*
X2726387Y1910005D1*
X2723535Y1910956D1*
X2714913D1*
Y1890860D1*
X2734486Y1907109D2*
X2736409Y1908082D1*
X2739283Y1910933D1*
Y1890860D1*
X2746410Y1892783D2*
X2745459Y1891810D1*
X2746410Y1890860D1*
X2747382Y1891810D1*
X2746410Y1892783D1*
X2755481Y1910933D2*
X2765983D1*
X2760257Y1903284D1*
X2763131D1*
X2765032Y1902334D1*
X2765983Y1901383D1*
X2766955Y1898509D1*
Y1896608D1*
X2765983Y1893734D1*
X2764081Y1891810D1*
X2761207Y1890860D1*
X2758333D1*
X2755481Y1891810D1*
X2754531Y1892783D1*
X2753558Y1894684D1*
X2773131Y1907109D2*
X2775055Y1908082D1*
X2777929Y1910933D1*
Y1890860D1*
X2718259Y1853358D2*
X2710587Y1873454D1*
X2702938Y1853358D1*
X2705812Y1860057D2*
X2715385D1*
X2724434Y1873454D2*
Y1853358D1*
X2731133D1*
X2734007Y1854331D1*
X2735930Y1856232D1*
X2736881Y1858156D1*
X2737832Y1861008D1*
Y1865805D1*
X2736881Y1868679D1*
X2735930Y1870580D1*
X2734007Y1872504D1*
X2731133Y1873454D1*
X2724434D1*
X2758355Y1868679D2*
X2757405Y1870580D1*
X2755481Y1872504D1*
X2753580Y1873454D1*
X2749755D1*
X2747832Y1872504D1*
X2745931Y1870580D1*
X2744958Y1868679D1*
X2744007Y1865805D1*
Y1861008D1*
X2744958Y1858156D1*
X2745931Y1856232D1*
X2747832Y1854331D1*
X2749755Y1853358D1*
X2753580D1*
X2755481Y1854331D1*
X2757405Y1856232D1*
X2758355Y1858156D1*
X2776005Y1873432D2*
X2766454D1*
X2765504Y1864832D1*
X2766454Y1865783D1*
X2769328Y1866756D1*
X2772180D1*
X2775054Y1865783D1*
X2776978Y1863882D1*
X2777928Y1861008D1*
Y1859106D1*
X2776978Y1856232D1*
X2775054Y1854309D1*
X2772180Y1853358D1*
X2769328D1*
X2766454Y1854309D1*
X2765504Y1855282D1*
X2764531Y1857183D1*
X2696784Y2299997D2*
X2705406D1*
X2708258Y2300947D1*
X2709231Y2301920D1*
X2710182Y2303821D1*
Y2306695D1*
X2709231Y2308597D1*
X2708258Y2309569D1*
X2705406Y2310520D1*
X2696784D1*
Y2290424D1*
X2725930D2*
Y2310498D1*
X2716357Y2297123D1*
X2730705D1*
X2737832Y2292347D2*
X2736881Y2291375D1*
X2737832Y2290424D1*
X2738804Y2291375D1*
X2737832Y2292347D1*
X2745953Y2305722D2*
Y2306673D1*
X2746903Y2308597D1*
X2747854Y2309547D1*
X2749777Y2310498D1*
X2753602D1*
X2755503Y2309547D1*
X2756454Y2308597D1*
X2757427Y2306673D1*
Y2304772D1*
X2756454Y2302848D1*
X2754553Y2299997D1*
X2744980Y2290424D1*
X2758377D1*
X2769328Y2310498D2*
X2766476Y2309547D1*
X2765504Y2307646D1*
Y2305722D1*
X2766476Y2303821D1*
X2768378Y2302848D1*
X2772202Y2301898D1*
X2775076Y2300947D1*
X2776978Y2299024D1*
X2777928Y2297123D1*
Y2294249D1*
X2776978Y2292347D1*
X2776027Y2291375D1*
X2773153Y2290424D1*
X2769328D1*
X2766476Y2291375D1*
X2765504Y2292347D1*
X2764553Y2294249D1*
Y2297123D1*
X2765504Y2299024D1*
X2767427Y2300947D1*
X2770279Y2301898D1*
X2774104Y2302848D1*
X2776027Y2303821D1*
X2776978Y2305722D1*
Y2307646D1*
X2776027Y2309547D1*
X2773153Y2310498D1*
X2769328D1*
X2732084Y2273453D2*
Y2253357D1*
X2725385Y2273453D2*
X2738783D1*
X2744958D2*
X2758356Y2253357D1*
Y2273453D2*
X2744958Y2253357D1*
X2766455Y2273431D2*
X2776956D1*
X2771230Y2265782D1*
X2774104D1*
X2776005Y2264831D1*
X2776956Y2263880D1*
X2777929Y2261006D1*
Y2259105D1*
X2776956Y2256231D1*
X2775055Y2254308D1*
X2772181Y2253357D1*
X2769307D1*
X2766455Y2254308D1*
X2765504Y2255280D1*
X2764531Y2257182D1*
X2718259Y2206247D2*
X2726881D1*
X2729733Y2207198D1*
X2730706Y2208171D1*
X2731657Y2210072D1*
Y2212946D1*
X2730706Y2214847D1*
X2729733Y2215820D1*
X2726881Y2216771D1*
X2718259D1*
Y2196675D1*
X2743580Y2216748D2*
X2740706Y2215798D1*
X2738783Y2212924D1*
X2737832Y2208148D1*
Y2205274D1*
X2738783Y2200499D1*
X2740706Y2197625D1*
X2743580Y2196675D1*
X2745482D1*
X2748356Y2197625D1*
X2750257Y2200499D1*
X2751230Y2205274D1*
Y2208148D1*
X2750257Y2212924D1*
X2748356Y2215798D1*
X2745482Y2216748D1*
X2743580D1*
X2750257Y2212924D2*
X2738783Y2200499D1*
X2758356Y2198598D2*
X2757405Y2197625D1*
X2758356Y2196675D1*
X2759329Y2197625D1*
X2758356Y2198598D1*
X2776978Y2213897D2*
X2776028Y2215798D1*
X2773154Y2216748D1*
X2771253D1*
X2768379Y2215798D1*
X2766455Y2212924D1*
X2765505Y2208148D1*
Y2203373D1*
X2766455Y2199549D1*
X2768379Y2197625D1*
X2771253Y2196675D1*
X2772203D1*
X2775055Y2197625D1*
X2776978Y2199549D1*
X2777929Y2202423D1*
Y2203373D1*
X2776978Y2206247D1*
X2775055Y2208148D1*
X2772203Y2209099D1*
X2771253D1*
X2768379Y2208148D1*
X2766455Y2206247D1*
X2765505Y2203373D1*
X2734485Y2506247D2*
X2743107D1*
X2745959Y2507198D1*
X2746932Y2508171D1*
X2747882Y2510072D1*
Y2512946D1*
X2746932Y2514847D1*
X2745959Y2515820D1*
X2743107Y2516771D1*
X2734485D1*
Y2496675D1*
X2754058Y2512924D2*
X2755981Y2513897D1*
X2758856Y2516748D1*
Y2496675D1*
X2765982Y2498598D2*
X2765031Y2497625D1*
X2765982Y2496675D1*
X2766955Y2497625D1*
X2765982Y2498598D1*
X2773130Y2512924D2*
X2775054Y2513897D1*
X2777928Y2516748D1*
Y2496675D1*
X2725885Y2606682D2*
X2734507D1*
X2737359Y2607632D1*
X2738332Y2608605D1*
X2739283Y2610506D1*
Y2613380D1*
X2738332Y2615282D1*
X2737359Y2616254D1*
X2734507Y2617205D1*
X2725885D1*
Y2597109D1*
X2751206Y2617183D2*
X2748332Y2616232D1*
X2746409Y2613358D1*
X2745458Y2608583D1*
Y2605709D1*
X2746409Y2600934D1*
X2748332Y2598060D1*
X2751206Y2597109D1*
X2753108D1*
X2755982Y2598060D1*
X2757883Y2600934D1*
X2758856Y2605709D1*
Y2608583D1*
X2757883Y2613358D1*
X2755982Y2616232D1*
X2753108Y2617183D1*
X2751206D1*
X2757883Y2613358D2*
X2746409Y2600934D1*
X2765982Y2599032D2*
X2765031Y2598060D1*
X2765982Y2597109D1*
X2766955Y2598060D1*
X2765982Y2599032D1*
X2773130Y2613358D2*
X2775054Y2614331D1*
X2777928Y2617183D1*
Y2597109D1*
X2718259Y2576830D2*
X2716358Y2578753D1*
X2713484Y2579704D1*
X2709659D1*
X2706785Y2578753D1*
X2704862Y2576830D1*
Y2574928D1*
X2705834Y2573005D1*
X2706785Y2572054D1*
X2708686Y2571104D1*
X2714434Y2569180D1*
X2716358Y2568230D1*
X2717308Y2567257D1*
X2718259Y2565356D1*
Y2562482D1*
X2716358Y2560580D1*
X2713484Y2559608D1*
X2709659D1*
X2706785Y2560580D1*
X2704862Y2562482D1*
X2738783Y2574928D2*
X2737832Y2576830D1*
X2735909Y2578753D1*
X2734007Y2579704D1*
X2730183D1*
X2728259Y2578753D1*
X2726358Y2576830D1*
X2725385Y2574928D1*
X2724435Y2572054D1*
Y2567257D1*
X2725385Y2564405D1*
X2726358Y2562482D1*
X2728259Y2560580D1*
X2730183Y2559608D1*
X2734007D1*
X2735909Y2560580D1*
X2737832Y2562482D1*
X2738783Y2564405D1*
X2744958Y2579704D2*
Y2559608D1*
X2758356Y2579704D2*
X2744958Y2566306D1*
X2749734Y2571104D2*
X2758356Y2559608D1*
X2765504Y2574906D2*
Y2575857D1*
X2766455Y2577780D1*
X2767405Y2578731D1*
X2769329Y2579682D1*
X2773154D1*
X2775055Y2578731D1*
X2776005Y2577780D1*
X2776978Y2575857D1*
Y2573956D1*
X2776005Y2572032D1*
X2774104Y2569180D1*
X2764531Y2559608D1*
X2777929D1*
X2711133Y2459608D2*
Y2479704D1*
X2703483Y2459608D1*
X2695834Y2479704D1*
Y2459608D1*
X2723057Y2479704D2*
X2721133Y2478753D1*
X2719232Y2476830D1*
X2718259Y2474928D1*
X2717308Y2472054D1*
Y2467257D1*
X2718259Y2464405D1*
X2719232Y2462482D1*
X2721133Y2460580D1*
X2723057Y2459608D1*
X2726881D1*
X2728782Y2460580D1*
X2730706Y2462482D1*
X2731656Y2464405D1*
X2732607Y2467257D1*
Y2472054D1*
X2731656Y2474928D1*
X2730706Y2476830D1*
X2728782Y2478753D1*
X2726881Y2479704D1*
X2723057D1*
X2752180Y2476830D2*
X2750279Y2478753D1*
X2747405Y2479704D1*
X2743580D1*
X2740706Y2478753D1*
X2738783Y2476830D1*
Y2474928D1*
X2739756Y2473005D1*
X2740706Y2472054D1*
X2742607Y2471104D1*
X2748355Y2469180D1*
X2750279Y2468230D1*
X2751229Y2467257D1*
X2752180Y2465356D1*
Y2462482D1*
X2750279Y2460580D1*
X2747405Y2459608D1*
X2743580D1*
X2740706Y2460580D1*
X2738783Y2462482D1*
X2758356Y2479704D2*
Y2459608D1*
X2765504Y2474906D2*
Y2475857D1*
X2766455Y2477780D1*
X2767406Y2478731D1*
X2769329Y2479682D1*
X2773154D1*
X2775055Y2478731D1*
X2776005Y2477780D1*
X2776978Y2475857D1*
Y2473956D1*
X2776005Y2472032D1*
X2774104Y2469180D1*
X2764532Y2459608D1*
X2777929D1*
X2724935Y2406247D2*
X2733557D1*
X2736409Y2407198D1*
X2737382Y2408171D1*
X2738333Y2410072D1*
Y2412946D1*
X2737382Y2414847D1*
X2736409Y2415820D1*
X2733557Y2416771D1*
X2724935D1*
Y2396675D1*
X2744508Y2412924D2*
X2746432Y2413897D1*
X2749306Y2416748D1*
Y2396675D1*
X2756432Y2398598D2*
X2755481Y2397625D1*
X2756432Y2396675D1*
X2757405Y2397625D1*
X2756432Y2398598D1*
X2773153Y2396675D2*
Y2416748D1*
X2763580Y2403373D1*
X2777928D1*
X2711133Y2359608D2*
Y2379704D1*
X2703483Y2359608D1*
X2695834Y2379704D1*
Y2359608D1*
X2717308Y2379704D2*
Y2359608D1*
X2736882Y2376830D2*
X2734980Y2378753D1*
X2732106Y2379704D1*
X2728282D1*
X2725408Y2378753D1*
X2723484Y2376830D1*
Y2374928D1*
X2724457Y2373005D1*
X2725408Y2372054D1*
X2727309Y2371104D1*
X2733057Y2369180D1*
X2734980Y2368230D1*
X2735931Y2367257D1*
X2736882Y2365356D1*
Y2362482D1*
X2734980Y2360580D1*
X2732106Y2359608D1*
X2728282D1*
X2725408Y2360580D1*
X2723484Y2362482D1*
X2748805Y2379704D2*
X2746882Y2378753D1*
X2744981Y2376830D1*
X2744008Y2374928D1*
X2743057Y2372054D1*
Y2367257D1*
X2744008Y2364405D1*
X2744981Y2362482D1*
X2746882Y2360580D1*
X2748805Y2359608D1*
X2752630D1*
X2754531Y2360580D1*
X2756455Y2362482D1*
X2757405Y2364405D1*
X2758356Y2367257D1*
Y2372054D1*
X2757405Y2374928D1*
X2756455Y2376830D1*
X2754531Y2378753D1*
X2752630Y2379704D1*
X2748805D1*
X2765504Y2374906D2*
Y2375857D1*
X2766455Y2377780D1*
X2767406Y2378731D1*
X2769329Y2379682D1*
X2773154D1*
X2775055Y2378731D1*
X2776005Y2377780D1*
X2776978Y2375857D1*
Y2373956D1*
X2776005Y2372032D1*
X2774104Y2369180D1*
X2764532Y2359608D1*
X2777929D1*
X2706313Y1800432D2*
X2714935D1*
X2717787Y1801383D1*
X2718760Y1802356D1*
X2719711Y1804257D1*
Y1807131D1*
X2718760Y1809032D1*
X2717787Y1810005D1*
X2714935Y1810956D1*
X2706313D1*
Y1790860D1*
X2725886Y1807109D2*
X2727810Y1808082D1*
X2730684Y1810933D1*
Y1790860D1*
X2737810Y1792783D2*
X2736859Y1791810D1*
X2737810Y1790860D1*
X2738783Y1791810D1*
X2737810Y1792783D1*
X2745931Y1806158D2*
Y1807109D1*
X2746882Y1809032D1*
X2747832Y1809983D1*
X2749756Y1810933D1*
X2753580D1*
X2755482Y1809983D1*
X2756432Y1809032D1*
X2757405Y1807109D1*
Y1805208D1*
X2756432Y1803284D1*
X2754531Y1800432D1*
X2744958Y1790860D1*
X2758356D1*
X2770279Y1810933D2*
X2767405Y1809983D1*
X2765482Y1807109D1*
X2764531Y1802334D1*
Y1799460D1*
X2765482Y1794684D1*
X2767405Y1791810D1*
X2770279Y1790860D1*
X2772181D1*
X2775055Y1791810D1*
X2776956Y1794684D1*
X2777929Y1799460D1*
Y1802334D1*
X2776956Y1807109D1*
X2775055Y1809983D1*
X2772181Y1810933D1*
X2770279D1*
X2776956Y1807109D2*
X2765482Y1794684D1*
X2713985Y1773454D2*
X2712084Y1772526D1*
X2710160Y1770602D1*
X2709210Y1768679D1*
X2708237Y1765805D1*
Y1761030D1*
X2709210Y1758156D1*
X2710160Y1756254D1*
X2712084Y1754331D1*
X2713985Y1753380D1*
X2717810D1*
X2719733Y1754331D1*
X2721634Y1756254D1*
X2722585Y1758156D1*
X2723558Y1761030D1*
Y1765805D1*
X2722585Y1768679D1*
X2721634Y1770602D1*
X2719733Y1772526D1*
X2717810Y1773454D1*
X2713985D1*
X2716859Y1757205D2*
X2722585Y1751457D1*
X2742158Y1773454D2*
X2729733D1*
Y1753358D1*
X2742158D1*
X2729733Y1763882D2*
X2737383D1*
X2748334Y1773454D2*
Y1753358D1*
X2755460Y1755282D2*
X2754509Y1754309D1*
X2755460Y1753358D1*
X2756433Y1754309D1*
X2755460Y1755282D1*
X2777929Y1753358D2*
X2770258Y1773454D1*
X2762609Y1753358D1*
X2765483Y1760057D2*
X2775055D1*
X2706335Y1700432D2*
X2714958D1*
X2717809Y1701383D1*
X2718782Y1702356D1*
X2719733Y1704257D1*
Y1707131D1*
X2718782Y1709032D1*
X2717809Y1710005D1*
X2714958Y1710956D1*
X2706335D1*
Y1690860D1*
X2725909Y1707109D2*
X2727832Y1708082D1*
X2730706Y1710933D1*
Y1690860D1*
X2737832Y1692783D2*
X2736882Y1691810D1*
X2737832Y1690860D1*
X2738805Y1691810D1*
X2737832Y1692783D1*
X2745953Y1706158D2*
Y1707109D1*
X2746904Y1709032D1*
X2747855Y1709983D1*
X2749778Y1710933D1*
X2753603D1*
X2755504Y1709983D1*
X2756455Y1709032D1*
X2757427Y1707109D1*
Y1705208D1*
X2756455Y1703284D1*
X2754553Y1700432D1*
X2744981Y1690860D1*
X2758378D1*
X2769329Y1710933D2*
X2766477Y1709983D1*
X2765504Y1708082D1*
Y1706158D1*
X2766477Y1704257D1*
X2768378Y1703284D1*
X2772203Y1702334D1*
X2775077Y1701383D1*
X2776978Y1699460D1*
X2777929Y1697558D1*
Y1694684D1*
X2776978Y1692783D1*
X2776028Y1691810D1*
X2773154Y1690860D1*
X2769329D1*
X2766477Y1691810D1*
X2765504Y1692783D1*
X2764554Y1694684D1*
Y1697558D1*
X2765504Y1699460D1*
X2767428Y1701383D1*
X2770280Y1702334D1*
X2774104Y1703284D1*
X2776028Y1704257D1*
X2776978Y1706158D1*
Y1708082D1*
X2776028Y1709983D1*
X2773154Y1710933D1*
X2769329D1*
X2717286Y1668679D2*
X2716335Y1670580D1*
X2714412Y1672504D1*
X2712511Y1673454D1*
X2708686D1*
X2706762Y1672504D1*
X2704861Y1670580D1*
X2703888Y1668679D1*
X2702938Y1665805D1*
Y1661008D1*
X2703888Y1658156D1*
X2704861Y1656232D1*
X2706762Y1654331D1*
X2708686Y1653358D1*
X2712511D1*
X2714412Y1654331D1*
X2716335Y1656232D1*
X2717286Y1658156D1*
X2738782Y1653358D2*
X2731111Y1673454D1*
X2723462Y1653358D1*
X2726336Y1660057D2*
X2735908D1*
X2744958Y1662931D2*
X2753580D1*
X2756432Y1663882D1*
X2757405Y1664854D1*
X2758355Y1666756D1*
Y1669630D1*
X2757405Y1671531D1*
X2756432Y1672504D1*
X2753580Y1673454D1*
X2744958D1*
Y1653358D1*
X2770279Y1673432D2*
X2767405Y1672482D1*
X2765482Y1669608D1*
X2764531Y1664832D1*
Y1661958D1*
X2765482Y1657183D1*
X2767405Y1654309D1*
X2770279Y1653358D1*
X2772180D1*
X2775054Y1654309D1*
X2776956Y1657183D1*
X2777928Y1661958D1*
Y1664832D1*
X2776956Y1669608D1*
X2775054Y1672482D1*
X2772180Y1673432D1*
X2770279D1*
X2776956Y1669608D2*
X2765482Y1657183D1*
X2717286Y1600432D2*
X2725908D1*
X2728760Y1601383D1*
X2729732Y1602356D1*
X2730683Y1604257D1*
Y1607131D1*
X2729732Y1609032D1*
X2728760Y1610005D1*
X2725908Y1610956D1*
X2717286D1*
Y1590860D1*
X2737831Y1606158D2*
Y1607109D1*
X2738782Y1609032D1*
X2739733Y1609983D1*
X2741656Y1610933D1*
X2745481D1*
X2747382Y1609983D1*
X2748333Y1609032D1*
X2749305Y1607109D1*
Y1605208D1*
X2748333Y1603284D1*
X2746431Y1600432D1*
X2736859Y1590860D1*
X2750256D1*
X2757382Y1592783D2*
X2756432Y1591810D1*
X2757382Y1590860D1*
X2758355Y1591810D1*
X2757382Y1592783D1*
X2770279Y1610933D2*
X2767405Y1609983D1*
X2765481Y1607109D1*
X2764531Y1602334D1*
Y1599460D1*
X2765481Y1594684D1*
X2767405Y1591810D1*
X2770279Y1590860D1*
X2772180D1*
X2775054Y1591810D1*
X2776955Y1594684D1*
X2777928Y1599460D1*
Y1602334D1*
X2776955Y1607109D1*
X2775054Y1609983D1*
X2772180Y1610933D1*
X2770279D1*
X2776955Y1607109D2*
X2765481Y1594684D1*
X2706763Y1562931D2*
X2715385D1*
X2718237Y1563882D1*
X2719210Y1564854D1*
X2720161Y1566756D1*
Y1569630D1*
X2719210Y1571531D1*
X2718237Y1572504D1*
X2715385Y1573454D1*
X2706763D1*
Y1553358D1*
X2726336Y1573454D2*
X2731134Y1553358D1*
X2735909Y1573454D1*
X2740684Y1553358D1*
X2745482Y1573454D1*
X2766956Y1553358D2*
Y1573454D1*
X2759307Y1553358D1*
X2751657Y1573454D1*
Y1553358D1*
X2773132Y1569608D2*
X2775055Y1570580D1*
X2777929Y1573432D1*
Y1553358D1*
X2717286Y1500432D2*
X2725908D1*
X2728760Y1501383D1*
X2729732Y1502356D1*
X2730683Y1504257D1*
Y1507131D1*
X2729732Y1509032D1*
X2728760Y1510005D1*
X2725908Y1510956D1*
X2717286D1*
Y1490860D1*
X2737831Y1506158D2*
Y1507109D1*
X2738782Y1509032D1*
X2739733Y1509983D1*
X2741656Y1510933D1*
X2745481D1*
X2747382Y1509983D1*
X2748333Y1509032D1*
X2749305Y1507109D1*
Y1505208D1*
X2748333Y1503284D1*
X2746431Y1500432D1*
X2736859Y1490860D1*
X2750256D1*
X2757382Y1492783D2*
X2756432Y1491810D1*
X2757382Y1490860D1*
X2758355Y1491810D1*
X2757382Y1492783D1*
X2765503Y1506158D2*
Y1507109D1*
X2766454Y1509032D1*
X2767405Y1509983D1*
X2769328Y1510933D1*
X2773153D1*
X2775054Y1509983D1*
X2776005Y1509032D1*
X2776977Y1507109D1*
Y1505208D1*
X2776005Y1503284D1*
X2774103Y1500432D1*
X2764531Y1490860D1*
X2777928D1*
X2698164Y1462931D2*
X2706786D1*
X2709638Y1463882D1*
X2710610Y1464854D1*
X2711561Y1466756D1*
Y1469630D1*
X2710610Y1471531D1*
X2709638Y1472504D1*
X2706786Y1473454D1*
X2698164D1*
Y1453358D1*
X2717737Y1473454D2*
X2722534Y1453358D1*
X2727309Y1473454D1*
X2732085Y1453358D1*
X2736882Y1473454D1*
X2758356Y1453358D2*
Y1473454D1*
X2750707Y1453358D1*
X2743058Y1473454D1*
Y1453358D1*
X2766455Y1473432D2*
X2776957D1*
X2771231Y1465783D1*
X2774105D1*
X2776006Y1464832D1*
X2776957Y1463882D1*
X2777929Y1461008D1*
Y1459106D1*
X2776957Y1456232D1*
X2775055Y1454309D1*
X2772181Y1453358D1*
X2769307D1*
X2766455Y1454309D1*
X2765505Y1455282D1*
X2764532Y1457183D1*
X2717286Y1400432D2*
X2725908D1*
X2728760Y1401383D1*
X2729732Y1402356D1*
X2730683Y1404257D1*
Y1407131D1*
X2729732Y1409032D1*
X2728760Y1410005D1*
X2725908Y1410956D1*
X2717286D1*
Y1390860D1*
X2737831Y1406158D2*
Y1407109D1*
X2738782Y1409032D1*
X2739733Y1409983D1*
X2741656Y1410933D1*
X2745481D1*
X2747382Y1409983D1*
X2748333Y1409032D1*
X2749305Y1407109D1*
Y1405208D1*
X2748333Y1403284D1*
X2746431Y1400432D1*
X2736859Y1390860D1*
X2750256D1*
X2757382Y1392783D2*
X2756432Y1391810D1*
X2757382Y1390860D1*
X2758355Y1391810D1*
X2757382Y1392783D1*
X2776005Y1410933D2*
X2766454D1*
X2765503Y1402334D1*
X2766454Y1403284D1*
X2769328Y1404257D1*
X2772180D1*
X2775054Y1403284D1*
X2776977Y1401383D1*
X2777928Y1398509D1*
Y1396608D1*
X2776977Y1393734D1*
X2775054Y1391810D1*
X2772180Y1390860D1*
X2769328D1*
X2766454Y1391810D1*
X2765503Y1392783D1*
X2764531Y1394684D1*
X2699136Y1362931D2*
X2707758D1*
X2710610Y1363882D1*
X2711583Y1364854D1*
X2712533Y1366756D1*
Y1369630D1*
X2711583Y1371531D1*
X2710610Y1372504D1*
X2707758Y1373454D1*
X2699136D1*
Y1353358D1*
X2718709Y1373454D2*
X2723506Y1353358D1*
X2728282Y1373454D1*
X2733057Y1353358D1*
X2737854Y1373454D1*
X2759329Y1353358D2*
Y1373454D1*
X2751679Y1353358D1*
X2744030Y1373454D1*
Y1353358D1*
X2776978Y1370580D2*
X2776028Y1372482D1*
X2773154Y1373432D1*
X2771252D1*
X2768378Y1372482D1*
X2766455Y1369608D1*
X2765504Y1364832D1*
Y1360057D1*
X2766455Y1356232D1*
X2768378Y1354309D1*
X2771252Y1353358D1*
X2772203D1*
X2775055Y1354309D1*
X2776978Y1356232D1*
X2777929Y1359106D1*
Y1360057D1*
X2776978Y1362931D1*
X2775055Y1364832D1*
X2772203Y1365783D1*
X2771252D1*
X2768378Y1364832D1*
X2766455Y1362931D1*
X2765504Y1360057D1*
X2717286Y1300432D2*
X2725908D1*
X2728760Y1301383D1*
X2729732Y1302356D1*
X2730683Y1304257D1*
Y1307131D1*
X2729732Y1309032D1*
X2728760Y1310005D1*
X2725908Y1310956D1*
X2717286D1*
Y1290860D1*
X2737831Y1306158D2*
Y1307109D1*
X2738782Y1309032D1*
X2739733Y1309983D1*
X2741656Y1310933D1*
X2745481D1*
X2747382Y1309983D1*
X2748333Y1309032D1*
X2749305Y1307109D1*
Y1305208D1*
X2748333Y1303284D1*
X2746431Y1300432D1*
X2736859Y1290860D1*
X2750256D1*
X2757382Y1292783D2*
X2756432Y1291810D1*
X2757382Y1290860D1*
X2758355Y1291810D1*
X2757382Y1292783D1*
X2768355Y1290860D2*
X2777928Y1310933D1*
X2764531D1*
X2719210Y1268679D2*
X2718259Y1270580D1*
X2716336Y1272504D1*
X2714434Y1273454D1*
X2710610D1*
X2708686Y1272504D1*
X2706785Y1270580D1*
X2705812Y1268679D1*
X2704862Y1265805D1*
Y1261008D1*
X2705812Y1258156D1*
X2706785Y1256232D1*
X2708686Y1254331D1*
X2710610Y1253358D1*
X2714434D1*
X2716336Y1254331D1*
X2718259Y1256232D1*
X2719210Y1258156D1*
X2725385Y1263882D2*
X2733985D1*
X2736859Y1264854D1*
X2737832Y1265805D1*
X2738783Y1267706D1*
Y1269630D1*
X2737832Y1271531D1*
X2736859Y1272504D1*
X2733985Y1273454D1*
X2725385D1*
Y1253358D1*
X2732084Y1263882D2*
X2738783Y1253358D1*
X2744958Y1273454D2*
Y1253358D1*
X2751657D1*
X2754531Y1254331D1*
X2756454Y1256232D1*
X2757405Y1258156D1*
X2758356Y1261008D1*
Y1265805D1*
X2757405Y1268679D1*
X2756454Y1270580D1*
X2754531Y1272504D1*
X2751657Y1273454D1*
X2744958D1*
X2765504Y1268657D2*
Y1269608D1*
X2766455Y1271531D1*
X2767405Y1272482D1*
X2769329Y1273432D1*
X2773154D1*
X2775055Y1272482D1*
X2776005Y1271531D1*
X2776978Y1269608D1*
Y1267706D1*
X2776005Y1265783D1*
X2774104Y1262931D1*
X2764531Y1253358D1*
X2777929D1*
X2718237Y1200432D2*
X2726859D1*
X2729711Y1201383D1*
X2730684Y1202356D1*
X2731634Y1204257D1*
Y1207131D1*
X2730684Y1209032D1*
X2729711Y1210005D1*
X2726859Y1210956D1*
X2718237D1*
Y1190860D1*
X2738783Y1206158D2*
Y1207109D1*
X2739733Y1209032D1*
X2740684Y1209983D1*
X2742607Y1210933D1*
X2746432D1*
X2748333Y1209983D1*
X2749284Y1209032D1*
X2750257Y1207109D1*
Y1205208D1*
X2749284Y1203284D1*
X2747383Y1200432D1*
X2737810Y1190860D1*
X2751207D1*
X2758334Y1192783D2*
X2757383Y1191810D1*
X2758334Y1190860D1*
X2759306Y1191810D1*
X2758334Y1192783D1*
X2777929Y1204257D2*
X2776956Y1201383D1*
X2775055Y1199460D1*
X2772181Y1198509D1*
X2771230D1*
X2768356Y1199460D1*
X2766455Y1201383D1*
X2765482Y1204257D1*
Y1205208D1*
X2766455Y1208082D1*
X2768356Y1209983D1*
X2771230Y1210933D1*
X2772181D1*
X2775055Y1209983D1*
X2776956Y1208082D1*
X2777929Y1204257D1*
Y1199460D1*
X2776956Y1194684D1*
X2775055Y1191810D1*
X2772181Y1190860D1*
X2770280D1*
X2767406Y1191810D1*
X2766455Y1193734D1*
X2727809Y1173454D2*
Y1153358D1*
X2733985Y1166756D2*
Y1153358D1*
Y1161008D2*
X2734958Y1163882D1*
X2736859Y1165805D1*
X2738782Y1166756D1*
X2741656D1*
X2747832Y1163882D2*
X2756432D1*
X2759306Y1164854D1*
X2760279Y1165805D1*
X2761229Y1167706D1*
Y1169630D1*
X2760279Y1171531D1*
X2759306Y1172504D1*
X2756432Y1173454D1*
X2747832D1*
Y1153358D1*
X2754531Y1163882D2*
X2761229Y1153358D1*
X2767405Y1166756D2*
X2777928Y1153358D1*
Y1166756D2*
X2767405Y1153358D1*
X2706313Y1100432D2*
X2714935D1*
X2717787Y1101383D1*
X2718760Y1102356D1*
X2719711Y1104257D1*
Y1107131D1*
X2718760Y1109032D1*
X2717787Y1110005D1*
X2714935Y1110956D1*
X2706313D1*
Y1090860D1*
X2731634Y1110933D2*
X2728760Y1109983D1*
X2726837Y1107109D1*
X2725886Y1102334D1*
Y1099460D1*
X2726837Y1094684D1*
X2728760Y1091810D1*
X2731634Y1090860D1*
X2733536D1*
X2736410Y1091810D1*
X2738311Y1094684D1*
X2739284Y1099460D1*
Y1102334D1*
X2738311Y1107109D1*
X2736410Y1109983D1*
X2733536Y1110933D1*
X2731634D1*
X2738311Y1107109D2*
X2726837Y1094684D1*
X2746410Y1092783D2*
X2745459Y1091810D1*
X2746410Y1090860D1*
X2747383Y1091810D1*
X2746410Y1092783D1*
X2753558Y1107109D2*
X2755482Y1108082D1*
X2758356Y1110933D1*
Y1090860D1*
X2776005Y1110933D2*
X2766455D1*
X2765504Y1102334D1*
X2766455Y1103284D1*
X2769329Y1104257D1*
X2772181D1*
X2775055Y1103284D1*
X2776978Y1101383D1*
X2777929Y1098509D1*
Y1096608D1*
X2776978Y1093734D1*
X2775055Y1091810D1*
X2772181Y1090860D1*
X2769329D1*
X2766455Y1091810D1*
X2765504Y1092783D1*
X2764531Y1094684D1*
X2718259Y1070580D2*
X2716358Y1072504D1*
X2713484Y1073454D1*
X2709659D1*
X2706785Y1072504D1*
X2704862Y1070580D1*
Y1068679D1*
X2705834Y1066756D1*
X2706785Y1065805D1*
X2708686Y1064854D1*
X2714434Y1062931D1*
X2716358Y1061980D1*
X2717308Y1061008D1*
X2718259Y1059106D1*
Y1056232D1*
X2716358Y1054331D1*
X2713484Y1053358D1*
X2709659D1*
X2706785Y1054331D1*
X2704862Y1056232D1*
X2738783Y1068679D2*
X2737832Y1070580D1*
X2735909Y1072504D1*
X2734007Y1073454D1*
X2730183D1*
X2728259Y1072504D1*
X2726358Y1070580D1*
X2725385Y1068679D1*
X2724435Y1065805D1*
Y1061008D1*
X2725385Y1058156D1*
X2726358Y1056232D1*
X2728259Y1054331D1*
X2730183Y1053358D1*
X2734007D1*
X2735909Y1054331D1*
X2737832Y1056232D1*
X2738783Y1058156D1*
X2744958Y1073454D2*
Y1053358D1*
X2758356Y1073454D2*
X2744958Y1060057D1*
X2749734Y1064854D2*
X2758356Y1053358D1*
X2770279Y1073432D2*
X2767405Y1072482D1*
X2765482Y1069608D1*
X2764531Y1064832D1*
Y1061958D1*
X2765482Y1057183D1*
X2767405Y1054309D1*
X2770279Y1053358D1*
X2772181D1*
X2775055Y1054309D1*
X2776956Y1057183D1*
X2777929Y1061958D1*
Y1064832D1*
X2776956Y1069608D1*
X2775055Y1072482D1*
X2772181Y1073432D1*
X2770279D1*
X2776956Y1069608D2*
X2765482Y1057183D1*
X2706335Y1000432D2*
X2714958D1*
X2717809Y1001383D1*
X2718782Y1002356D1*
X2719733Y1004257D1*
Y1007131D1*
X2718782Y1009032D1*
X2717809Y1010005D1*
X2714958Y1010956D1*
X2706335D1*
Y990860D1*
X2731657Y1010933D2*
X2728783Y1009983D1*
X2726859Y1007109D1*
X2725909Y1002334D1*
Y999460D1*
X2726859Y994684D1*
X2728783Y991810D1*
X2731657Y990860D1*
X2733558D1*
X2736432Y991810D1*
X2738333Y994684D1*
X2739306Y999460D1*
Y1002334D1*
X2738333Y1007109D1*
X2736432Y1009983D1*
X2733558Y1010933D1*
X2731657D1*
X2738333Y1007109D2*
X2726859Y994684D1*
X2746432Y992783D2*
X2745482Y991810D1*
X2746432Y990860D1*
X2747405Y991810D1*
X2746432Y992783D1*
X2753581Y1007109D2*
X2755504Y1008082D1*
X2758378Y1010933D1*
Y990860D1*
X2769329Y1010933D2*
X2766477Y1009983D1*
X2765504Y1008082D1*
Y1006158D1*
X2766477Y1004257D1*
X2768378Y1003284D1*
X2772203Y1002334D1*
X2775077Y1001383D1*
X2776978Y999460D1*
X2777929Y997558D1*
Y994684D1*
X2776978Y992783D1*
X2776028Y991810D1*
X2773154Y990860D1*
X2769329D1*
X2766477Y991810D1*
X2765504Y992783D1*
X2764554Y994684D1*
Y997558D1*
X2765504Y999460D1*
X2767428Y1001383D1*
X2770280Y1002334D1*
X2774104Y1003284D1*
X2776028Y1004257D1*
X2776978Y1006158D1*
Y1008082D1*
X2776028Y1009983D1*
X2773154Y1010933D1*
X2769329D1*
X2711133Y953358D2*
Y973454D1*
X2703483Y953358D1*
X2695834Y973454D1*
Y953358D1*
X2723057Y973454D2*
X2721133Y972504D1*
X2719232Y970580D1*
X2718259Y968679D1*
X2717308Y965805D1*
Y961008D1*
X2718259Y958156D1*
X2719232Y956232D1*
X2721133Y954331D1*
X2723057Y953358D1*
X2726881D1*
X2728782Y954331D1*
X2730706Y956232D1*
X2731656Y958156D1*
X2732607Y961008D1*
Y965805D1*
X2731656Y968679D1*
X2730706Y970580D1*
X2728782Y972504D1*
X2726881Y973454D1*
X2723057D1*
X2752180Y970580D2*
X2750279Y972504D1*
X2747405Y973454D1*
X2743580D1*
X2740706Y972504D1*
X2738783Y970580D1*
Y968679D1*
X2739756Y966756D1*
X2740706Y965805D1*
X2742607Y964854D1*
X2748355Y962931D1*
X2750279Y961980D1*
X2751229Y961008D1*
X2752180Y959106D1*
Y956232D1*
X2750279Y954331D1*
X2747405Y953358D1*
X2743580D1*
X2740706Y954331D1*
X2738783Y956232D1*
X2758356Y973454D2*
Y953358D1*
X2770280Y973432D2*
X2767406Y972482D1*
X2765482Y969608D1*
X2764532Y964832D1*
Y961958D1*
X2765482Y957183D1*
X2767406Y954309D1*
X2770280Y953358D1*
X2772181D1*
X2775055Y954309D1*
X2776956Y957183D1*
X2777929Y961958D1*
Y964832D1*
X2776956Y969608D1*
X2775055Y972482D1*
X2772181Y973432D1*
X2770280D1*
X2776956Y969608D2*
X2765482Y957183D1*
X2725887Y900432D2*
X2734509D1*
X2737361Y901383D1*
X2738333Y902356D1*
X2739284Y904257D1*
Y907131D1*
X2738333Y909032D1*
X2737361Y910005D1*
X2734509Y910956D1*
X2725887D1*
Y890860D1*
X2751208Y910933D2*
X2748334Y909983D1*
X2746410Y907109D1*
X2745460Y902334D1*
Y899460D1*
X2746410Y894684D1*
X2748334Y891810D1*
X2751208Y890860D1*
X2753109D1*
X2755983Y891810D1*
X2757884Y894684D1*
X2758857Y899460D1*
Y902334D1*
X2757884Y907109D1*
X2755983Y909983D1*
X2753109Y910933D1*
X2751208D1*
X2757884Y907109D2*
X2746410Y894684D1*
X2765983Y892783D2*
X2765033Y891810D1*
X2765983Y890860D1*
X2766956Y891810D1*
X2765983Y892783D1*
X2773132Y907109D2*
X2775055Y908082D1*
X2777929Y910933D1*
Y890860D1*
X2728783Y870580D2*
X2726881Y872504D1*
X2724007Y873454D1*
X2720183D1*
X2717309Y872504D1*
X2715385Y870580D1*
Y868679D1*
X2716358Y866756D1*
X2717309Y865805D1*
X2719210Y864854D1*
X2724958Y862931D1*
X2726881Y861980D1*
X2727832Y861008D1*
X2728783Y859106D1*
Y856232D1*
X2726881Y854331D1*
X2724007Y853358D1*
X2720183D1*
X2717309Y854331D1*
X2715385Y856232D1*
X2749306Y868679D2*
X2748356Y870580D1*
X2746432Y872504D1*
X2744531Y873454D1*
X2740706D1*
X2738783Y872504D1*
X2736882Y870580D1*
X2735909Y868679D1*
X2734958Y865805D1*
Y861008D1*
X2735909Y858156D1*
X2736882Y856232D1*
X2738783Y854331D1*
X2740706Y853358D1*
X2744531D1*
X2746432Y854331D1*
X2748356Y856232D1*
X2749306Y858156D1*
X2755482Y873454D2*
Y853358D1*
X2766956D1*
X2773132Y869608D2*
X2775055Y870580D1*
X2777929Y873432D1*
Y853358D1*
X1693673Y973883D2*
D143*
Y933691D1*
X1716621D1*
X1728973Y952837D2*
X1746217D1*
X1751921Y954738D1*
X1753866Y956684D1*
X1755767Y960486D1*
Y966234D1*
X1753866Y970037D1*
X1751921Y971982D1*
X1746217Y973883D1*
X1728973D1*
Y933691D1*
X1796815Y964333D2*
X1794913Y968135D1*
X1791067Y971982D1*
X1787264Y973883D1*
X1779615D1*
X1775768Y971982D1*
X1771965Y968135D1*
X1770020Y964333D1*
X1768119Y958585D1*
Y948990D1*
X1770020Y943286D1*
X1771965Y939439D1*
X1775768Y935637D1*
X1779615Y933691D1*
X1787264D1*
X1791067Y935637D1*
X1794913Y939439D1*
X1796815Y943286D1*
X1828311Y933691D2*
Y973839D1*
X1809166Y947089D1*
X1837862D1*
X1861709Y973839D2*
X1855961Y971938D1*
X1852115Y966190D1*
X1850213Y956639D1*
Y950891D1*
X1852115Y941341D1*
X1855961Y935593D1*
X1861709Y933691D1*
X1865512D1*
X1871260Y935593D1*
X1875063Y941341D1*
X1877008Y950891D1*
Y956639D1*
X1875063Y966190D1*
X1871260Y971938D1*
X1865512Y973839D1*
X1861709D1*
X1875063Y966190D2*
X1852115Y941341D1*
X1897009Y933691D2*
X1916154Y973839D1*
X1889359D1*
X1938056D2*
X1932352Y971938D1*
X1930407Y968135D1*
Y964289D1*
X1932352Y960486D1*
X1936155Y958541D1*
X1943804Y956639D1*
X1949552Y954738D1*
X1953355Y950891D1*
X1955256Y947089D1*
Y941341D1*
X1953355Y937538D1*
X1951453Y935593D1*
X1945705Y933691D1*
X1938056D1*
X1932352Y935593D1*
X1930407Y937538D1*
X1928506Y941341D1*
Y947089D1*
X1930407Y950891D1*
X1934254Y954738D1*
X1939957Y956639D1*
X1947607Y958541D1*
X1951453Y960486D1*
X1953355Y964289D1*
Y968135D1*
X1951453Y971938D1*
X1945705Y973839D1*
X1938056D1*
X2033283Y968135D2*
X2029480Y971982D1*
X2023732Y973883D1*
X2016083D1*
X2010335Y971982D1*
X2006488Y968135D1*
Y964333D1*
X2008434Y960486D1*
X2010335Y958585D1*
X2014137Y956684D1*
X2025634Y952837D1*
X2029480Y950935D1*
X2031382Y948990D1*
X2033283Y945187D1*
Y939439D1*
X2029480Y935637D1*
X2023732Y933691D1*
X2016083D1*
X2010335Y935637D1*
X2006488Y939439D1*
X2064780Y973883D2*
Y943286D1*
X2062878Y937538D1*
X2060933Y935637D1*
X2057130Y933691D1*
X2053284D1*
X2049481Y935637D1*
X2047580Y937538D1*
X2045634Y943286D1*
Y947089D1*
X2103926Y968135D2*
X2100123Y971982D1*
X2094375Y973883D1*
X2086726D1*
X2080978Y971982D1*
X2077131Y968135D1*
Y964333D1*
X2079076Y960486D1*
X2080978Y958585D1*
X2084780Y956684D1*
X2096276Y952837D1*
X2100123Y950935D1*
X2102024Y948990D1*
X2103926Y945187D1*
Y939439D1*
X2100123Y935637D1*
X2094375Y933691D1*
X2086726D1*
X2080978Y935637D1*
X2077131Y939439D1*
X2116277Y973883D2*
Y945187D1*
X2118178Y939439D1*
X2122025Y935637D1*
X2127773Y933691D1*
X2131576D1*
X2137324Y935637D1*
X2141170Y939439D1*
X2143072Y945187D1*
Y973883D1*
X2223000Y964333D2*
X2221099Y968135D1*
X2217252Y971982D1*
X2213449Y973883D1*
X2205800D1*
X2201953Y971982D1*
X2198151Y968135D1*
X2196205Y964333D1*
X2194304Y958585D1*
Y948990D1*
X2196205Y943286D1*
X2198151Y939439D1*
X2201953Y935637D1*
X2205800Y933691D1*
X2213449D1*
X2217252Y935637D1*
X2221099Y939439D1*
X2223000Y943286D1*
X2235351Y960486D2*
Y933691D1*
Y952837D2*
X2241099Y958585D1*
X2244946Y960486D1*
X2250650D1*
X2254497Y958585D1*
X2256398Y952837D1*
Y933691D1*
Y952837D2*
X2262146Y958585D1*
X2265993Y960486D1*
X2271696D1*
X2275543Y958585D1*
X2277489Y952837D1*
Y933691D1*
X2289840Y960486D2*
Y920294D1*
Y954738D2*
X2293687Y958541D1*
X2297489Y960486D1*
X2303237D1*
X2307084Y958541D1*
X2310887Y954738D1*
X2312832Y948990D1*
Y945143D1*
X2310887Y939439D1*
X2307084Y935593D1*
X2303237Y933691D1*
X2297489D1*
X2293687Y935593D1*
X2289840Y939439D1*
X2350033Y973883D2*
X2325184D1*
Y933691D1*
X2350033D1*
X2325184Y954738D2*
X2340482D1*
X2401265Y973883D2*
Y933691D1*
X2418509D1*
X2424257Y935637D1*
X2426158Y937538D1*
X2428060Y941341D1*
Y947089D1*
X2426158Y950935D1*
X2424257Y952837D1*
X2418509Y954738D1*
X2424257Y956684D1*
X2426158Y958585D1*
X2428060Y962387D1*
Y966234D1*
X2426158Y970037D1*
X2424257Y971982D1*
X2418509Y973883D1*
X2401265D1*
Y954738D2*
X2418509D1*
X2451907Y973883D2*
X2448060Y971982D1*
X2444258Y968135D1*
X2442312Y964333D1*
X2440411Y958585D1*
Y948990D1*
X2442312Y943286D1*
X2444258Y939439D1*
X2448060Y935637D1*
X2451907Y933691D1*
X2459556D1*
X2463359Y935637D1*
X2467206Y939439D1*
X2469107Y943286D1*
X2471008Y948990D1*
Y958585D1*
X2469107Y964333D1*
X2467206Y968135D1*
X2463359Y971982D1*
X2459556Y973883D1*
X2451907D1*
X2514001Y933691D2*
X2498658Y973883D1*
X2483360Y933691D1*
X2489108Y947089D2*
X2508253D1*
X2526353Y954738D2*
X2543552D1*
X2549300Y956684D1*
X2551246Y958585D1*
X2553147Y962387D1*
Y966234D1*
X2551246Y970037D1*
X2549300Y971982D1*
X2543552Y973883D1*
X2526353D1*
Y933691D1*
X2539750Y954738D2*
X2553147Y933691D1*
X2565499Y973883D2*
Y933691D1*
X2578896D1*
X2584644Y935637D1*
X2588491Y939439D1*
X2590392Y943286D1*
X2592293Y948990D1*
Y958585D1*
X2590392Y964333D1*
X2588491Y968135D1*
X2584644Y971982D1*
X2578896Y973883D1*
X2565499D1*
X458517Y2396026D2*
D144*
X469991Y2365882D1*
X481465Y2396026D1*
X490728D2*
Y2365882D1*
X520088Y2396026D2*
Y2365882D1*
X499992Y2396026D1*
Y2365882D1*
X417591Y2424639D2*
D145*
Y2381584D1*
X396091Y2403084D2*
X439146D1*
M02*
