%TF.GenerationSoftware,Novarm,DipTrace,3.2.0.1*%
%TF.CreationDate,2018-02-01T20:33:37-08:00*%
%FSLAX26Y26*%
%MOIN*%
%TF.FileFunction,Copper,L1,Top*%
%TF.Part,Single*%
%TA.AperFunction,Conductor*%
%ADD14C,0.019685*%
%ADD15C,0.006*%
%TA.AperFunction,CopperBalancing*%
%ADD16C,0.025*%
%TA.AperFunction,ComponentPad*%
%ADD17R,0.059055X0.059055*%
%ADD18C,0.059055*%
%ADD19R,0.019685X0.11811*%
G75*
G01*
%LPD*%
X837803Y899501D2*
D14*
X814098D1*
X789378D1*
X788197Y898320D1*
X814098Y899501D2*
Y845336D1*
X800294Y831531D1*
X769041D1*
X750289Y812780D1*
X675281D1*
X625276Y762774D1*
Y639277D1*
X443514Y457516D1*
X743514D2*
D15*
Y543478D1*
X837798Y637761D1*
Y730205D1*
X837803Y730210D1*
X943514Y457516D2*
Y763319D1*
X906555Y800278D1*
X775291D1*
X737787Y762774D1*
Y728257D1*
X737803Y728241D1*
X643514Y457516D2*
Y505984D1*
X787793Y650262D1*
Y729412D1*
X787803Y729423D1*
X843514Y457516D2*
Y555969D1*
X887803Y600257D1*
Y730997D1*
X1143514Y457516D2*
Y525815D1*
X987814Y681516D1*
Y819030D1*
X906555Y900289D1*
X887803D1*
X877819Y925427D2*
D16*
X969276D1*
X877819Y900558D2*
X1004083D1*
X877819Y875689D2*
X1004083D1*
X877819Y850820D2*
X1004083D1*
X923571Y825951D2*
X1004083D1*
X949946Y801083D2*
X1004083D1*
X972552Y776214D2*
X1004083D1*
X975495Y751345D2*
X1004083D1*
X975495Y726476D2*
X1004083D1*
X975495Y701608D2*
X1004083D1*
X975495Y676739D2*
X1004083D1*
X975495Y651870D2*
X1028520D1*
X975495Y627001D2*
X1053387D1*
X975495Y602133D2*
X1078256D1*
X975495Y577264D2*
X1103123D1*
X975495Y552395D2*
X1128026D1*
X975495Y527526D2*
X1152895D1*
X979192Y502657D2*
X1007850D1*
X1079201D2*
X1160323D1*
X1098255Y477789D2*
X1160323D1*
X1101844Y452920D2*
X1160323D1*
X972999Y505138D2*
X979896Y500113D1*
X986112Y493898D1*
X991280Y486786D1*
X993601Y482948D1*
X998193Y490444D1*
X1003903Y497127D1*
X1010587Y502837D1*
X1018083Y507429D1*
X1026203Y510794D1*
X1034751Y512845D1*
X1043514Y513535D1*
X1052278Y512845D1*
X1060825Y510794D1*
X1068946Y507429D1*
X1076442Y502837D1*
X1083126Y497127D1*
X1088836Y490444D1*
X1093428Y482948D1*
X1096793Y474827D1*
X1098844Y466280D1*
X1099534Y457516D1*
X1098844Y448752D1*
X1097861Y443992D1*
X1162828Y443990D1*
X1162833Y520088D1*
X1008954Y674168D1*
X1007518Y676732D1*
X1006720Y679560D1*
X1006567Y690702D1*
Y905541D1*
X928232Y950299D1*
X875327Y950295D1*
X875301Y829773D1*
X908869Y829680D1*
X913440Y828955D1*
X917841Y827525D1*
X921965Y825424D1*
X925709Y822705D1*
X964369Y784173D1*
X967374Y780654D1*
X969793Y776709D1*
X971563Y772433D1*
X972643Y767933D1*
X973007Y763310D1*
Y505133D1*
D17*
X443514Y457516D3*
D18*
X543514D3*
X643514D3*
X743514D3*
X843514D3*
X943514D3*
X1043514D3*
X1143514D3*
D19*
X887803Y900289D3*
X837803Y899501D3*
X788197Y898320D3*
X737803Y897533D3*
X687803Y896745D3*
Y727454D3*
X737803Y728241D3*
X787803Y729423D3*
X837803Y730210D3*
X887803Y730997D3*
M02*
