%TF.GenerationSoftware,Novarm,DipTrace,3.2.0.1*%
%TF.CreationDate,2018-12-02T20:47:19-08:00*%
%FSLAX26Y26*%
%MOIN*%
%TF.FileFunction,Plated,1,4,PTH,Drill*%
%TF.Part,Single*%
%TA.AperFunction,ViaDrill*%
%ADD71C,0.011*%
%TA.AperFunction,ComponentDrill*%
%ADD73C,0.035433*%
%ADD74C,0.019685*%
%ADD75C,0.04*%
%ADD76C,0.03937*%
%ADD77C,0.032*%
G75*
G01*
D73*
X484316Y2471870D3*
Y2571870D3*
X462778Y2279873D2*
D74*
X435219D1*
X462778Y2020030D2*
X435219D1*
D75*
X468701Y1737450D3*
X568701Y1727450D3*
X668701Y1737450D3*
X768701Y1727450D3*
X868701Y1737450D3*
X968701Y1727450D3*
X1068701Y1737450D3*
X1168701Y1727450D3*
D73*
X2843701Y687450D3*
Y787450D3*
Y887450D3*
Y987450D3*
Y1087450D3*
Y1187450D3*
Y1287450D3*
Y1387450D3*
Y1487450D3*
Y1587450D3*
Y1687450D3*
Y1787450D3*
Y1887450D3*
Y1987450D3*
Y2087450D3*
Y2187450D3*
Y2287450D3*
Y2387450D3*
Y2487450D3*
Y2587450D3*
X2943701Y687450D3*
Y787450D3*
Y887450D3*
Y987450D3*
Y1087450D3*
Y1187450D3*
Y1287450D3*
Y1387450D3*
Y1487450D3*
Y1587450D3*
Y1687450D3*
Y1787450D3*
Y1887450D3*
Y1987450D3*
Y2087450D3*
Y2187450D3*
Y2287450D3*
Y2387450D3*
Y2487450D3*
Y2587450D3*
D75*
X1287450Y1756201D3*
Y2012201D3*
X1465450Y1756201D3*
Y2012201D3*
X1549950Y474950D3*
Y730950D3*
X1727950Y474950D3*
Y730950D3*
X1885368Y474950D3*
Y730950D3*
X2063368Y474950D3*
Y730950D3*
X2220784Y474950D3*
Y730950D3*
X2398784Y474950D3*
Y730950D3*
X2556201Y474950D3*
Y730950D3*
X2734201Y474950D3*
Y730950D3*
D76*
X2530977Y2724969D3*
Y2824969D3*
X2430977Y2724969D3*
Y2824969D3*
X2330977Y2724969D3*
Y2824969D3*
X2230977Y2724969D3*
Y2824969D3*
D77*
X1584326Y1049954D3*
Y1239954D3*
D71*
X1281108Y543948D3*
X1399845Y678309D3*
X2174950Y1456201D3*
X2680961Y1937551D3*
X2162452Y1499952D3*
X2674711Y1981297D3*
X2502855Y878288D3*
X2337247Y1293869D3*
X2687210Y1687578D3*
X2337247Y1237625D3*
X2674711Y1637583D3*
X970858Y2375912D3*
X971765Y2075037D3*
X712452Y2378164D3*
X674921Y2149952D3*
Y2206273D3*
X740540Y2356257D3*
X1562452Y1846936D3*
X548502Y2275936D3*
X837404Y2193774D3*
X1252987Y2240645D3*
X1352978D3*
X756299Y2524949D3*
X1091242Y2709324D3*
X1196826Y684326D3*
X1074879D3*
X1257591Y445436D3*
X1796824Y1214272D3*
X1728075Y1059658D3*
X1315576Y887450D3*
X681171Y1921928D3*
X824906D3*
X1331299Y846844D3*
X749696Y684326D3*
X1002314Y492840D3*
X787683Y2250181D3*
X887452Y2249950D3*
X887310Y2143841D3*
X545377Y2020030D3*
X787683Y2143780D3*
X1831050Y1393858D3*
X1728075Y1290883D3*
X1062452Y2243701D3*
X1156201D3*
X819292Y1431201D3*
X718701D3*
X731071Y456457D3*
X1531082Y2799961D3*
X1912292Y2824958D3*
X2093523Y2793711D3*
X2162265Y2587483D3*
X1524832Y2343759D3*
X1693565Y2318761D3*
X2003772Y2318550D3*
X2074774Y2356257D3*
X2293502Y2381255D3*
X2023294Y1029911D3*
X2530977Y1187630D3*
X1939103Y1762570D3*
X1812302Y1712575D3*
X2274753Y1750071D3*
X2637215Y1525095D3*
X981201Y1431201D3*
X543701D3*
X1462339Y500202D3*
X1806053Y502016D3*
X1956201Y2749950D3*
X2097213Y1847213D3*
X2224759Y2481244D3*
X2156201Y1399952D3*
X1043701Y1362452D3*
X2574722Y2381255D3*
X1781201Y2718701D3*
X2093701Y1887452D3*
X656173Y575194D3*
Y731428D3*
X1156121Y462706D3*
X568683Y637688D3*
X481192Y650187D3*
X1243612Y525200D3*
X1057432Y532605D3*
X631176Y637688D3*
X949950Y1037452D3*
X481192Y724961D3*
X943701Y1312452D3*
X2131019Y1018898D3*
X2162265Y1831313D3*
X1887453Y2118701D3*
X806201Y2362452D3*
X1031777Y2005626D3*
X1768701Y1843701D3*
X849903Y2375005D3*
X1168620Y2006282D3*
X1768557Y1900055D3*
X2131019Y1237625D3*
X2674711Y1781318D3*
X2324748Y1381360D3*
X2693460Y1737572D3*
X1634196Y1287620D3*
X1556079Y1465726D3*
X868701Y2340576D3*
X1224864Y1893788D3*
Y1781318D3*
X1518583Y850166D3*
X2465576Y924952D3*
X2193512Y1700076D3*
X2405990Y1775068D3*
X1018701Y1312450D3*
X2118701Y1368701D3*
X2593470Y2431250D3*
X1868546Y2762465D3*
X2050197Y1912452D3*
X2084149Y1328240D3*
X2693806Y1893806D3*
X2362450Y953076D3*
X1243612Y562696D3*
X1871826Y931201D3*
X806158Y456457D3*
X1002314Y532604D3*
X2124769Y1281370D3*
X2674711Y1831313D3*
X2334326Y981201D3*
X1160723Y564173D3*
X1815427Y1022534D3*
X1056131Y575194D3*
X656173Y456457D3*
X2181013Y1543843D3*
X2143517Y831418D3*
X2087273Y1231376D3*
X2474732Y725420D3*
X2031029Y1512596D3*
X1946826Y1587452D3*
X1928076Y1618701D3*
X1974950Y1568700D3*
X1968847Y1512596D3*
X1962286Y1175131D3*
X1468588Y775173D3*
X1806053Y837667D3*
X2012281Y1181381D3*
X1837299Y1231376D3*
X1453076Y2543701D3*
X2468483Y1027147D3*
X2249756Y1012649D3*
X2580971Y1493848D3*
X2006032Y1762570D3*
X2206011Y1750071D3*
X676013Y2368756D3*
X821781Y2003170D3*
X678046D3*
X718667Y2521865D3*
X2293502Y1818814D3*
X2224759Y2531239D3*
X1681066Y868914D3*
X2037278Y1206378D3*
X2012450Y868914D3*
X2174764Y1187630D3*
X2218509D3*
X2337247Y868914D3*
X2655963Y1475100D3*
X2662213Y887662D3*
X862450Y1062452D3*
X568456Y731201D3*
X856201Y1318701D3*
X2109252Y1050145D3*
X1796824Y1281201D3*
X899898Y1318866D3*
X1965551Y1365600D3*
X1337352Y2084411D3*
X1637450Y2185630D3*
X1574960Y2187452D3*
X2124769Y1831313D3*
X1889274Y2187452D3*
X1768710D3*
X2118520Y2668725D3*
M02*
