%TF.GenerationSoftware,Novarm,DipTrace,3.2.0.1*%
%TF.CreationDate,2018-12-02T20:47:13-08:00*%
%FSLAX26Y26*%
%MOIN*%
%TF.FileFunction,Copper,L1,Top*%
%TF.Part,Single*%
%AMOUTLINE0*
4,1,4,
-0.035433,0.019685,
-0.035433,-0.019685,
0.035433,-0.019685,
0.035433,0.019685,
-0.035433,0.019685,
0*%
%AMOUTLINE1*
4,1,4,
0.026163,0.026163,
0.026205,-0.026121,
-0.026121,-0.026205,
-0.026163,0.026163,
0.026163,0.026163,
0*%
%AMOUTLINE2*
4,1,4,
-0.023622,0.015748,
-0.023622,-0.015748,
0.023622,-0.015748,
0.023622,0.015748,
-0.023622,0.015748,
0*%
%AMOUTLINE3*
4,1,4,
-0.010827,-0.023622,
0.010827,-0.023622,
0.010827,0.023622,
-0.010827,0.023622,
-0.010827,-0.023622,
0*%
%TA.AperFunction,Conductor*%
%ADD15C,0.007*%
%ADD16C,0.006*%
%ADD17C,0.015748*%
%ADD18C,0.008*%
%ADD19C,0.012*%
%ADD20C,0.011811*%
%ADD21C,0.01*%
%ADD22C,0.015*%
%ADD23C,0.023622*%
%ADD24R,0.15748X0.141732*%
%ADD26R,0.03937X0.043307*%
%ADD27R,0.043307X0.03937*%
%ADD28R,0.059055X0.051181*%
%ADD30R,0.023622X0.023622*%
%TA.AperFunction,ComponentPad*%
%ADD33R,0.059055X0.059055*%
%ADD34C,0.059055*%
%ADD36R,0.05315X0.015748*%
%ADD37R,0.055118X0.062992*%
%TA.AperFunction,ComponentPad*%
%ADD38O,0.070866X0.043307*%
%ADD39R,0.031496X0.048819*%
%ADD40R,0.045276X0.098425*%
%ADD41R,0.045276X0.086614*%
%ADD42R,0.059055X0.045276*%
%ADD43R,0.045669X0.047244*%
%ADD44R,0.045669X0.049213*%
%TA.AperFunction,ComponentPad*%
%ADD45C,0.074*%
%ADD48R,0.06X0.06*%
%ADD50R,0.062992X0.011811*%
%ADD51R,0.011811X0.062992*%
%ADD53O,0.033465X0.011811*%
%ADD54O,0.011811X0.033465*%
%ADD55R,0.137795X0.137795*%
%ADD56R,0.015748X0.11811*%
%ADD58R,0.023622X0.043307*%
%ADD60R,0.011811X0.019685*%
%ADD61R,0.019685X0.011811*%
%TA.AperFunction,ComponentPad*%
%ADD62R,0.05937X0.05937*%
%ADD63C,0.05937*%
%ADD64R,0.07874X0.023622*%
%ADD68R,0.074803X0.059055*%
%TA.AperFunction,ComponentPad*%
%ADD69C,0.048*%
%TA.AperFunction,ViaPad*%
%ADD70C,0.024*%
%ADD149OUTLINE0*%
%TA.AperFunction,ComponentPad*%
%ADD150OUTLINE1*%
%ADD151OUTLINE2*%
%ADD152OUTLINE3*%
%TA.AperFunction,CopperBalancing*%
%ADD153C,0.01*%
G75*
G01*
%LPD*%
X1280265Y593701D2*
D15*
Y543105D1*
X1281108Y543948D1*
X1399845Y678309D2*
Y676877D1*
X1399950Y676772D1*
X1894685Y1444340D2*
D16*
X2174950D1*
Y1456201D1*
X2680961Y1937551D2*
X2893802D1*
X2943701Y1987450D1*
X1894685Y1464025D2*
X2126525D1*
X2162452Y1499952D1*
X2674711Y1981297D2*
X2837547D1*
X2843701Y1987450D1*
X1007110Y681201D2*
D15*
X945460D1*
X1002314Y572369D2*
Y676404D1*
X1007110Y681201D1*
X2286418Y1111663D2*
Y947865D1*
X2328082Y906201D1*
X2368702D1*
X2399740Y875163D1*
X2499730D1*
X2502855Y878288D1*
X2306103Y1111663D2*
D16*
Y962551D1*
X2343496Y925158D1*
X2380992D1*
X2412239Y893911D1*
X2474732D1*
X2493481Y912659D1*
X2530977D1*
X2555974Y937656D1*
X2724706D1*
X2774701Y887662D1*
X2843490D1*
X2843701Y887450D1*
X2422244Y1385285D2*
D15*
Y1384326D1*
Y1385285D2*
D16*
X2633290D1*
X2737205Y1281370D1*
X2837621D1*
X2843701Y1287450D1*
X2422244Y1365600D2*
X2615479D1*
X2749704Y1231376D1*
X2887626D1*
X2943701Y1287450D1*
X2247047Y1111663D2*
Y1203670D1*
X2337247Y1293869D1*
X2687210Y1687578D2*
X2843574D1*
X2843701Y1687450D1*
X2422244Y1404970D2*
X2657351D1*
X2718457Y1343864D1*
X2900114D1*
X2943701Y1387450D1*
X2266732Y1111663D2*
Y1167110D1*
X2337247Y1237625D1*
X2674711Y1637583D2*
X2893834D1*
X2943701Y1687450D1*
X2168307Y1639222D2*
Y1768612D1*
X2187263Y1787567D1*
X2337247D1*
X2437236Y1887557D1*
Y1950050D1*
X2818446Y2331260D1*
X2887511D1*
X2943701Y2387450D1*
X938681Y2155882D2*
D15*
X971765D1*
Y2075037D1*
X959267Y2062538D1*
X803033D1*
X799908Y2065663D1*
Y2097805D1*
X800886Y2096827D1*
X970858Y2375912D2*
D3*
X800886Y2293677D2*
Y2320908D1*
X768701Y2353093D1*
Y2368717D1*
X753038Y2384379D1*
X718667D1*
X712452Y2378164D1*
Y2275016D1*
X721122D1*
X741831Y2254307D1*
X879626Y2293677D2*
Y2310988D1*
X896773Y2328135D1*
X921771D1*
X971765Y2378130D1*
Y2375005D1*
X554235Y2149952D2*
X674921D1*
Y2206273D2*
X684295Y2196899D1*
X743478D1*
X741831Y2195252D1*
X554235Y2175542D2*
X741831Y2175567D1*
X781201Y2293677D2*
Y2315596D1*
X740540Y2356257D1*
X1562452Y1846936D2*
Y1845523D1*
X2372525Y2304045D2*
D16*
Y2252236D1*
X2374743Y2250019D1*
X888710Y2003170D2*
D15*
Y1925053D1*
X891835Y1921928D1*
X741831Y2214937D2*
D16*
X820571D1*
X840256Y2195252D1*
X545377Y2275936D2*
D17*
X548502D1*
X837404Y2193774D2*
Y2196899D1*
X841903D1*
X840256Y2195252D1*
X1252987Y2240645D2*
D3*
X1352978D2*
D3*
X756299Y2524949D2*
D3*
X1091242Y2734324D2*
Y2709324D1*
X1205118Y1187454D2*
X1177559D1*
X1202621Y681201D2*
X1196826D1*
Y684326D1*
X1074879D2*
Y681201D1*
X1074040D1*
X1257591Y445436D2*
D15*
X1240895Y462131D1*
Y495276D1*
X1211368Y544488D2*
X1187908D1*
X1168372Y524952D1*
X1118625D1*
Y431460D1*
X1257591D1*
Y445436D1*
X1074040Y681201D2*
D17*
Y736957D1*
X1073772Y737225D1*
X1202536D2*
Y681286D1*
X1202621Y681201D1*
X1264138D1*
X1264370Y680969D1*
X1399950Y743701D2*
X1337776D1*
X1331299Y737225D1*
X1221210Y593701D2*
D15*
X1152755D1*
X1118625Y559571D1*
Y524952D1*
X1177559Y1187454D2*
D17*
X1150000D1*
X1122441D1*
X1094882D1*
X984646D2*
X971826D1*
X957087D1*
X846851D2*
X819292D1*
X791732D1*
X1796824Y1220521D2*
Y1214272D1*
X1728075Y1059658D2*
Y1070521D1*
X1315355Y1187454D2*
X1315576D1*
Y887450D1*
X1280265Y495276D2*
D15*
Y468110D1*
X1257591Y445436D1*
X681171Y1921928D2*
D17*
D3*
X824906D2*
D3*
X1787305Y1215752D2*
X1792055D1*
X1796824Y1220521D1*
X1331299Y737225D2*
Y846844D1*
X2422244Y1227805D2*
D16*
X2478347D1*
X2520526Y1185625D1*
X2531200D1*
X2207677Y1111663D2*
Y1037499D1*
X2182827Y1012649D1*
X2030512Y1111663D2*
Y1038475D1*
X2023294Y1031257D1*
D17*
Y970389D1*
X2087273Y906410D1*
X2162265D1*
X2187263Y931407D1*
Y1017084D1*
X2182827Y1012649D1*
X749696Y680526D2*
Y684326D1*
X1002314Y492841D2*
Y492840D1*
X787683Y2250181D2*
Y2247826D1*
X840256Y2195252D1*
X887452Y2249950D2*
Y2242448D1*
X840256Y2195252D1*
X554235Y2098771D2*
Y2032826D1*
X545377Y2023967D1*
X887310Y2143841D2*
Y2148198D1*
X840256Y2195252D1*
X545377Y2020030D2*
Y2023967D1*
X787683Y2143780D2*
X788784D1*
X840256Y2195252D1*
X1894685Y1404970D2*
D18*
X1842162D1*
X1831050Y1393858D1*
X1728075Y1290883D2*
Y1288756D1*
X1497617Y1608554D2*
D17*
X1747591D1*
X1749809Y1610772D1*
X1815427D1*
X1315355Y1187454D2*
X1342914D1*
X1062452Y2243701D2*
D3*
X1156201Y2243898D2*
Y2243701D1*
X984646Y1187454D2*
Y1431201D1*
X1150000D1*
X1343701D1*
Y1188242D1*
X819292Y1187454D2*
Y1431201D1*
X718701D2*
Y1362452D1*
X736614Y1344538D1*
Y1187454D1*
X731071Y456457D2*
D3*
X2422244Y1503395D2*
D16*
X2521776D1*
X2580971Y1562591D1*
Y1560777D1*
X2247047Y1639222D2*
Y1724179D1*
X2272940Y1750071D1*
X2010827Y1639222D2*
Y1690845D1*
X1939103Y1762570D1*
D17*
Y1831313D1*
X1812302Y1958113D1*
X1531082Y2799961D2*
Y2799009D1*
X1528181Y2796109D1*
X1912292Y2824958D2*
Y2821545D1*
X1911646Y2820899D1*
X2093523Y2793711D2*
X2093177D1*
X2090780Y2796109D1*
X2162265Y2587483D2*
Y2585670D1*
X1524832Y2343759D2*
Y2346697D1*
X1528181Y2350046D1*
X1693565Y2318761D2*
X1697261D1*
X1697473Y2318550D1*
X1999782D2*
X2003772D1*
X2074774Y2356257D2*
Y2356876D1*
X2293502Y2381255D2*
Y2381239D1*
X2023294Y1031257D2*
Y1029911D1*
X2530977Y1187630D2*
Y1185848D1*
X2531200Y1185625D1*
X1939103Y1762570D2*
D3*
X1815427Y1610772D2*
Y1709450D1*
X1812302Y1712575D1*
X2272940Y1750071D2*
X2274753D1*
X2580971Y1560777D2*
X2601533D1*
X2637215Y1525095D1*
X1150000Y1187454D2*
Y1431201D1*
X981201D2*
X984646D1*
X543701Y1187454D2*
Y1431201D1*
X1462339Y500202D2*
D3*
X1806053Y502016D2*
D3*
X2422244Y1345915D2*
D16*
X2603918D1*
X2762382Y1187450D1*
X2843701D1*
X1057432Y492841D2*
D15*
Y453078D1*
X1611960Y818701D2*
D17*
Y872772D1*
X1614137Y874949D1*
X1945293Y818701D2*
Y874722D1*
X1945521Y874950D1*
X2278625Y818701D2*
Y868883D1*
X2272559Y874949D1*
X2605709Y831201D2*
Y877263D1*
X2595523Y887449D1*
X2422244Y1286860D2*
D16*
X2575482D1*
X2637215Y1225126D1*
Y1200129D1*
X2805948Y1031397D1*
X2887647D1*
X2943701Y1087450D1*
X2325788Y1639222D2*
Y1669869D1*
X2349746Y1693827D1*
X2418488D1*
X2543475Y1818814D1*
Y1918803D1*
X2712122Y2087450D1*
X2843701D1*
X2089567Y1639222D2*
Y1839567D1*
X2097213Y1847213D1*
X2106310Y1856310D1*
X2355995D1*
X2418488Y1918803D1*
Y1962238D1*
X2843701Y2387450D1*
X1956201Y2749950D2*
Y2819651D1*
X1954953Y2820899D1*
X2293502Y2481239D2*
X2293496Y2481244D1*
X2224759D1*
X2422244Y1267175D2*
X2570170D1*
X2612218Y1225126D1*
Y1175131D1*
X2799698Y987651D1*
X2843500D1*
X2843701Y987450D1*
X2345473Y1639222D2*
X2420128D1*
X2568473Y1787567D1*
Y1918803D1*
X2687210Y2037541D1*
X2893792D1*
X2943701Y2087450D1*
X2345473Y1639222D2*
Y1545474D1*
X2199950Y1399952D1*
X2156201D1*
X1043701Y1362452D2*
Y1183517D1*
X1039764Y1187454D1*
X2069882Y1639222D2*
Y1863633D1*
X2093701Y1887452D1*
X2349641D1*
X2399740Y1937551D1*
Y2043490D1*
X2843701Y2487450D1*
X2574722Y2381255D2*
X2506116D1*
X2506100Y2381239D1*
X1781201Y2718701D2*
Y2820376D1*
X1781725Y2820899D1*
X693670Y562756D2*
Y575194D1*
X656173D1*
Y731428D2*
D3*
X1221210Y495276D2*
X1176192D1*
X1156121Y475205D1*
Y462706D1*
X568683Y637688D2*
D3*
X481192D2*
Y650187D1*
X1243612Y525200D2*
X1260580Y508231D1*
Y495276D1*
X1057432Y532605D2*
D3*
X631176Y637688D2*
X656173D1*
X653937Y1187454D2*
Y1070965D1*
X943701Y781201D1*
Y738533D1*
X945009Y737225D1*
X626378Y1187454D2*
Y1042273D1*
X874950Y793701D1*
Y740355D1*
X878080Y737225D1*
X818701Y743701D2*
D15*
Y739680D1*
X816246Y737225D1*
X598819Y1187454D2*
D16*
Y1026084D1*
X812452Y812452D1*
Y741019D1*
X816246Y737225D1*
X571260Y1187454D2*
Y1009891D1*
X749950Y831201D1*
Y737858D1*
X749316Y737225D1*
X1232677Y1187454D2*
D15*
Y876427D1*
X1137452Y781201D1*
X1024952D1*
X1006201Y762450D1*
Y737866D1*
X1006843Y737225D1*
X1287795Y1187454D2*
Y762794D1*
X1263298Y738297D1*
X1264370Y737225D1*
X1260236Y1187454D2*
Y860236D1*
X1131201Y731201D1*
Y741630D1*
X1135607Y737225D1*
X929528Y1187454D2*
D16*
X931145Y1189071D1*
Y1200129D1*
X929528Y1187454D2*
Y1057874D1*
X949950Y1037452D1*
X481192Y724961D2*
Y731428D1*
X929528Y1187454D2*
Y1298278D1*
X943701Y1312452D1*
X2131019Y1018898D2*
X2168307Y1056187D1*
Y1111663D1*
X2286418Y1639222D2*
Y1680494D1*
X2343496Y1737572D1*
X2405990D1*
X2493481Y1825063D1*
Y1918803D1*
X2762128Y2187450D1*
X2843701D1*
X1887625Y2105953D2*
Y2118873D1*
X2128937Y1639222D2*
Y1797984D1*
X2162265Y1831313D1*
X1887453Y2118701D2*
X1887625Y2118873D1*
X744975Y2003170D2*
D15*
Y1925053D1*
X748100Y1921928D1*
X820571Y2293677D2*
D16*
X818701D1*
X820571D2*
Y2348082D1*
X806201Y2362452D1*
X1031777Y2005626D2*
X1029320Y2003170D1*
X1768701Y1843701D2*
X1862450Y1749952D1*
Y1724953D1*
X1887452Y1699952D1*
X1949950D1*
X1968701Y1681201D1*
Y1641978D1*
X1971457Y1639222D1*
X840256Y2293677D2*
Y2365358D1*
X849903Y2375005D1*
X1168620Y2006282D2*
Y2004983D1*
X1166806Y2003170D1*
X1768557Y1900055D2*
X1774806D1*
X1887450Y1787411D1*
Y1743666D1*
X1912292Y1718824D1*
X1956037D1*
X1990576Y1684285D1*
Y1638656D1*
X1991142Y1639222D1*
X2422244Y1562450D2*
X2487091D1*
X2499730Y1575089D1*
Y1587588D1*
X2549725Y1637583D1*
X2637215D1*
X2687210Y1587588D1*
X2843563D1*
X2843701Y1587450D1*
X2422244Y1542765D2*
X2504902D1*
X2518478Y1556341D1*
Y1581339D1*
X2549725Y1612586D1*
X2624717D1*
X2699709Y1537593D1*
X2893844D1*
X2943701Y1587450D1*
X2422244Y1523080D2*
X2516463D1*
X2537226Y1543843D1*
Y1575089D1*
X2555974Y1593837D1*
X2618467D1*
X2730956Y1481349D1*
X2837600D1*
X2843701Y1487450D1*
X2422244Y1444340D2*
X2900591D1*
X2943701Y1487450D1*
X2422244Y1424655D2*
X2675162D1*
X2718457Y1381360D1*
X2837610D1*
X2843701Y1387450D1*
X2090398Y1112494D2*
D15*
X2089567Y1111663D1*
D16*
Y1196173D1*
X2131019Y1237625D1*
X2674711Y1781318D2*
X2837568D1*
X2843701Y1787450D1*
X2131019Y1109582D2*
D15*
X2128937Y1111663D1*
D16*
Y1185549D1*
X2324748Y1381360D1*
X2693460Y1737572D2*
X2893823D1*
X2943701Y1787450D1*
X1406307Y2168872D2*
D15*
Y2088032D1*
X1410887Y2083452D1*
X1749809Y1543843D2*
Y1534469D1*
X1681066Y1465726D1*
X1894685Y1326230D2*
X1836185D1*
X1815427Y1346988D1*
Y1368861D1*
X1799803Y1384484D1*
X1718562D1*
X1681066Y1421981D1*
Y1465726D1*
X1497617Y1541625D2*
Y1523191D1*
X1555082Y1465726D1*
X1894685Y1286860D2*
X1852163D1*
X1818551Y1253248D1*
X1668567D1*
X1634196Y1287620D1*
X1556079Y1465726D2*
X1555082D1*
X859941Y2293677D2*
X859277Y2294341D1*
Y2315637D1*
X868701Y2325061D1*
Y2340576D1*
X1224864Y1893788D2*
D16*
Y1781318D1*
X2465576Y924952D2*
D15*
X2412239Y978289D1*
Y1026961D1*
X962391Y2003170D2*
Y1925053D1*
X965516Y1921928D1*
X2530977Y2824969D2*
D16*
X2637205D1*
X2649714Y2812460D1*
Y2743717D1*
X2618467Y2712470D1*
X2207677Y1639222D2*
Y1685911D1*
X2193512Y1700076D1*
X2405990Y1775068D2*
X2474732Y1843811D1*
Y1925053D1*
X2780950Y2231271D1*
X2887521D1*
X2943701Y2287450D1*
X2768208Y2709334D2*
D15*
X2688533D1*
X2685397Y2712470D1*
X1701771Y2187452D2*
D17*
Y2135474D1*
X1705870Y2131374D1*
X2422244Y1306545D2*
D16*
X2580794D1*
X2805948Y1081391D1*
X2837642D1*
X2843701Y1087450D1*
X2306103Y1639222D2*
Y1675181D1*
X2343496Y1712575D1*
X2405990D1*
X2518478Y1825063D1*
Y1918803D1*
X2730956Y2131281D1*
X2887532D1*
X2943701Y2187450D1*
X1012205Y1187454D2*
X1018701D1*
Y1312450D1*
X2118701Y1368701D2*
Y1406201D1*
X2137452Y1424952D1*
X2193701D1*
X2306201Y1537452D1*
Y1639124D1*
X2306103Y1639222D1*
X2050197D2*
Y1912452D1*
X2337145D1*
X2374743Y1950050D1*
Y2062538D1*
X2787200Y2474995D1*
Y2530949D1*
X2843701Y2587450D1*
X2593470Y2431250D2*
X2506110D1*
X2506100Y2431239D1*
X1868546Y2762465D2*
Y2820692D1*
X1868339Y2820899D1*
X1894685Y1247490D2*
X2003398D1*
X2084149Y1328240D1*
X2693806Y1893806D2*
X2837345D1*
X2843701Y1887450D1*
X2345473Y1111663D2*
D15*
Y1026295D1*
X2362450Y1009318D1*
Y953076D1*
X1240895Y593701D2*
Y562696D1*
X1243612D1*
X1871067Y1022534D2*
Y931960D1*
X1871826Y931201D1*
X768473Y456457D2*
D16*
X806158D1*
X1002314Y532604D2*
D15*
Y532605D1*
X2162265Y2408376D2*
Y2462496D1*
Y2518740D1*
Y2462496D2*
X2049777D1*
X1825032Y2687242D1*
Y2820899D1*
X1506198Y2187452D2*
D17*
Y2137276D1*
X1512100Y2131374D1*
X1894685Y1227805D2*
D16*
X2014960D1*
X2068525Y1281370D1*
X2124769D1*
X2674711Y1831313D2*
X2887563D1*
X2943701Y1887450D1*
X2325788Y1111663D2*
D15*
X2327873Y1113748D1*
Y1009524D1*
X2334326Y1003071D1*
Y981201D1*
X1211368Y564173D2*
X1160723D1*
X1815427Y1022534D2*
X1814811D1*
X1057432Y572369D2*
X1056131D1*
Y575194D1*
X693670Y456457D2*
D16*
X656173D1*
X2422244Y1326230D2*
X2592356D1*
X2787200Y1131386D1*
X2887637D1*
X2943701Y1187450D1*
X2422244Y1247490D2*
X2552358D1*
X2587221Y1212628D1*
Y1162633D1*
X2818446Y931407D1*
X2887658D1*
X2943701Y987450D1*
X1464774Y672767D2*
D15*
X1522958Y730950D1*
X1549950D1*
X1462339Y567131D2*
D16*
Y623915D1*
Y670331D1*
X1464774Y672767D1*
X1549950Y474950D2*
Y536303D1*
X1462339Y623915D1*
X1885368Y730950D2*
D15*
X1866743D1*
X1808559Y672767D1*
X1806053Y568945D2*
D16*
Y615286D1*
Y670260D1*
X1808559Y672767D1*
X1806053Y615286D2*
X1865950D1*
X1887294Y593942D1*
Y476877D1*
X1885368Y474950D1*
X2220784Y730950D2*
D15*
X2218609D1*
X2141673Y654015D1*
D16*
Y554061D1*
X2220784Y474950D1*
X2187992Y1639222D2*
D15*
X2185624D1*
X2187992D2*
D16*
Y1550822D1*
X2181013Y1543843D1*
X2143517Y831418D2*
Y722788D1*
X2141673Y720944D1*
X2475170Y658054D2*
D15*
X2548066Y730950D1*
X2556201D1*
X2475170Y658054D2*
D16*
Y555982D1*
X2556201Y474950D1*
X2069882Y1111663D2*
Y1213984D1*
X2087273Y1231376D1*
X2474732Y725420D2*
X2475170Y724983D1*
X1894685Y1483710D2*
D15*
Y1484326D1*
Y1483710D2*
X1897432D1*
X1894685D2*
D16*
X2002143D1*
X2031029Y1512596D1*
X568701Y1727450D2*
Y1829481D1*
X566869Y1831313D1*
X1894685Y1542765D2*
D15*
X1908390D1*
X1894685D2*
X1936515D1*
X1946826Y1553076D1*
Y1587452D1*
X1894685Y1562450D2*
X1871826D1*
X1928076Y1618701D1*
X1324853Y1675079D2*
D16*
X1021072D1*
X968701Y1727450D1*
X1894685Y1523080D2*
D15*
Y1521826D1*
X1940269D1*
X1974950Y1556507D1*
Y1568700D1*
X1968847Y1512596D2*
X1959327Y1503076D1*
X1895004D1*
X1894685Y1503395D1*
X2266732Y1639222D2*
D16*
Y1685806D1*
X2455984Y1875058D1*
Y1937551D1*
X2805883Y2287450D1*
X2843701D1*
X2230977Y2724969D2*
X2287221Y2668725D1*
X2562223D1*
X2574722Y2681223D1*
Y2743717D1*
X2616250Y2785244D1*
X2768208Y2784334D2*
D15*
X2765323D1*
X2762202Y2781213D1*
X2680961D1*
Y2783026D1*
X2683179Y2785244D1*
X1099877Y2003170D2*
Y1928177D1*
X1106126Y1921928D1*
X1991142Y1111663D2*
Y1128995D1*
Y1111663D2*
D16*
Y1158774D1*
X1974785Y1175131D1*
X1962286D1*
X1468588Y775173D2*
Y743509D1*
X1464774Y739696D1*
X1808559D2*
X1806053Y742202D1*
Y837667D1*
X2012281Y1181381D2*
X2010827Y1179927D1*
Y1111663D1*
X776281Y2734324D2*
D17*
X849885D1*
X940519Y2824958D1*
X1315568D1*
X1406202Y2734324D1*
X1866849Y1267175D2*
D15*
X1894685D1*
X1860600D1*
X1837299Y1243874D1*
Y1231376D1*
X1453076Y2543701D2*
Y2687450D1*
X1406202Y2734324D1*
X2422244Y1483710D2*
D16*
X2572361D1*
X2580971Y1492320D1*
Y1493848D1*
X1971457Y1111663D2*
D19*
Y1046349D1*
X1956365Y1031257D1*
X2230977Y2824969D2*
D17*
X2277857Y2778088D1*
X2390366D1*
X2430977Y2818698D1*
Y2824969D1*
X1727950Y730950D2*
Y474950D1*
X2734201Y730950D2*
Y474950D1*
X2398784Y730950D2*
Y474950D1*
X2063368Y730950D2*
Y474950D1*
Y730950D2*
X2065400Y732983D1*
Y818701D1*
Y875163D1*
Y890786D1*
X2043528Y912659D1*
X1987284D1*
X1956037Y943906D1*
Y1030929D1*
X1956365Y1031257D1*
X2065400Y875163D2*
X2199761D1*
X2249756Y925158D1*
Y1012649D1*
X1727950Y628318D2*
Y730950D1*
X1956365Y1031257D2*
X1962146D1*
Y1025007D1*
X2422244Y1208120D2*
D16*
X2460532D1*
X2474950Y1193701D1*
Y1165576D1*
X2521831Y1118696D1*
X2531200D1*
X2249756Y1012649D2*
Y1050145D1*
X2227362Y1072538D1*
Y1111663D1*
X1135692Y681201D2*
D17*
Y638239D1*
X1288570D1*
X1299950Y649620D1*
X1331299Y680969D1*
X1309793Y524803D2*
D16*
X1330706D1*
X1340477Y534574D1*
Y578319D1*
X1325095Y593701D1*
X1299950D1*
D20*
Y611418D1*
D17*
Y649620D1*
X1814811Y1089463D2*
X1871067D1*
D19*
X1892242D1*
X1921666Y1118887D1*
X1950453D1*
X1957677Y1111663D1*
X1971457D1*
X2012222Y818701D2*
D17*
X2065400D1*
X1678889D2*
Y780012D1*
X1727950Y730950D1*
X2345554Y818701D2*
Y784180D1*
X2398784Y730950D1*
X2672638Y831201D2*
Y792513D1*
X2734201Y730950D1*
X1579029Y2131374D2*
X1624777D1*
X1637450Y2118701D1*
X1352978Y2315448D2*
X1303284D1*
X1252987D1*
X793701Y2422579D2*
Y2421876D1*
X903929D1*
Y2375912D1*
X1156201Y2318701D2*
X1115561D1*
X1093025Y2341236D1*
X1012386Y2421876D1*
X903929D1*
X741831Y2155882D2*
D20*
X743701D1*
Y2136197D1*
X741831D1*
X468701Y1737450D2*
D17*
Y1740689D1*
X440571Y1768819D1*
Y1878183D1*
X499940D1*
X611647D1*
X1032445D1*
X1173055D1*
Y1921928D1*
X611647Y1878183D2*
D21*
Y2037260D1*
X693088Y2118701D1*
X743701D1*
Y2134327D1*
X741831Y2136197D1*
X1032445Y1921928D2*
D17*
Y1878183D1*
X2835137Y2784334D2*
Y2709334D1*
Y2702029D1*
X2893439Y2643727D1*
Y2537713D1*
X2943701Y2487450D1*
X878530Y681201D2*
X817299D1*
X816625Y680526D1*
X1002314Y453078D2*
X984324D1*
X959326Y478076D1*
Y549952D1*
X878076Y631201D1*
Y680747D1*
X878530Y681201D1*
X1002314Y453078D2*
Y450713D1*
X1028076Y424950D1*
X1093701D1*
Y596248D1*
X1135692Y638239D1*
X1339378Y2168872D2*
X1324948D1*
X1224864Y2068788D1*
Y1948236D1*
Y1937551D1*
X1209240Y1921928D1*
X1173055D1*
X743701Y2118701D2*
D21*
Y2103076D1*
X749950Y2096827D1*
X781201D1*
X1252987Y2315448D2*
D17*
X1159454D1*
X1156201Y2318701D1*
X1062452Y2310630D2*
Y2310663D1*
X1093025Y2341236D1*
X2227362Y1639222D2*
D16*
Y1728719D1*
X2206011Y1750071D1*
X2030512Y1639222D2*
Y1738089D1*
X2006032Y1762570D1*
X2506100Y2531239D2*
D17*
Y2509945D1*
Y2499725D1*
Y2481239D1*
X2293502Y2431239D2*
X2380982D1*
X2455984Y2506242D1*
X2502397D1*
X2506100Y2509945D1*
X1391782Y1675079D2*
Y1808129D1*
X1256110Y1943801D1*
X1229299D1*
X1224864Y1948236D1*
X2006032Y1762570D2*
Y1893806D1*
X1874795Y2025042D1*
X1812302D1*
Y2076137D1*
Y2091872D1*
X1772799Y2131374D1*
X1943538Y2118782D2*
Y2100034D1*
X1868546Y2025042D1*
X1812302D1*
X2256201Y2233023D2*
Y2224826D1*
X2293502Y2187525D1*
X2412239D1*
X2443486Y2218772D1*
Y2248205D1*
X2441672Y2250019D1*
X2505979D1*
X2637215Y2381255D1*
Y2506242D1*
X2512617D1*
X2506100Y2499725D1*
X1943538Y2118782D2*
X2024780D1*
X2162265Y2256268D1*
Y2262225D1*
Y2337509D1*
X2256201Y2233023D2*
X2191467D1*
X2162265Y2262225D1*
X2637215Y2506242D2*
Y2511412D1*
X2835137Y2709334D1*
X2230977Y2824969D2*
X2218520D1*
X2162265Y2768714D1*
Y2668725D1*
X2218509Y2612481D1*
X2530977D1*
X2637215Y2506242D1*
X499940Y1831313D2*
Y1878183D1*
X1352978Y2315448D2*
X1356292Y2318761D1*
X1462339D1*
Y2081286D1*
X1468588Y2075037D1*
X1593786D1*
X1594886Y2076137D1*
X1637450Y2118701D1*
X1594886Y2076137D2*
X1812302D1*
X2531200Y1118696D2*
Y1089864D1*
X2468483Y1027147D1*
X2249756Y1012649D2*
D3*
X1771974Y1350042D2*
X1556150D1*
X1387347Y1518845D1*
Y1670643D1*
X1391782Y1675079D1*
X2580971Y1493848D2*
D3*
X2006032Y1762570D2*
D3*
X2206011Y1750071D2*
D3*
X1812302Y2025042D2*
X1762307D1*
X1706063Y1968798D1*
Y1920385D1*
X1631201Y1845523D1*
X1727950Y474950D2*
Y459452D1*
X1768701Y418701D1*
X2007118D1*
X2011605Y423188D1*
X2063368Y474950D1*
X2011605Y423188D2*
Y418701D1*
X2398784D1*
X2677952D1*
X2734201Y474950D1*
X2398784D2*
Y418701D1*
X1768701D2*
X1468701D1*
X1393701Y493701D1*
Y618567D1*
X1331299Y680969D1*
X816625Y680526D2*
D22*
Y612450D1*
D17*
X768662D1*
Y562756D1*
X768473D1*
X468701Y1737450D2*
X431201Y1699950D1*
Y1512452D1*
Y807274D1*
X706168D1*
Y612450D1*
X768662D1*
X764173Y1187454D2*
Y1512452D1*
X681496D1*
X431201D1*
X681496Y1187454D2*
Y1512452D1*
X1303284Y2315448D2*
Y2168872D1*
X1324948D1*
X1815427Y1543843D2*
D19*
X1818551D1*
Y1425105D1*
X1771974D1*
Y1420908D1*
X1894685Y1385285D2*
D18*
X1947463D1*
X1952912Y1390734D1*
Y1415731D1*
X1943538Y1425105D1*
X1895135D1*
X1894685Y1424655D1*
X1818551Y1425105D2*
D21*
X1894685Y1424655D1*
X676013Y2368756D2*
D17*
Y2468746D1*
Y2471870D1*
X659298D1*
X637425Y2493743D1*
Y2568735D1*
X676013Y2368756D2*
D3*
X821781Y2003170D2*
D3*
X793701Y2524949D2*
Y2568735D1*
X718898D1*
Y2524949D1*
X637425Y2678971D2*
Y2640603D1*
X649924Y2628104D1*
X659529D1*
X718898Y2568735D1*
X678046Y2003170D2*
D16*
D3*
X718667Y2521865D2*
Y2524718D1*
X718898Y2524949D1*
X484316Y2471870D2*
D23*
Y2468746D1*
X549935D1*
X589399D1*
X549935D2*
D17*
Y2681184D1*
X631201Y2762450D1*
Y2837450D1*
X662454Y2868704D1*
X2846568D1*
X2880940Y2834332D1*
Y2706221D1*
X2943701Y2643460D1*
Y2587450D1*
X554235Y2201133D2*
X628051D1*
D22*
Y2293764D1*
X589399Y2332416D1*
Y2368756D1*
X1584326Y1239954D2*
D15*
Y1243750D1*
X1609198Y1218877D1*
X1728075D1*
Y1221827D1*
X1728110D1*
X1771681Y1178256D1*
X1824801D1*
X1856047Y1209503D1*
X1893302D1*
X1894685Y1208120D1*
X1584326Y1049954D2*
Y1047145D1*
X1674631Y1137450D1*
X1728075D1*
X1843701D1*
X1894685Y1188435D1*
X2439454Y2304045D2*
D16*
Y2316698D1*
X2418701Y2337452D1*
X2293701D1*
X2256201Y2299952D1*
X2148622Y1639222D2*
Y1773622D1*
X2193814Y1818814D1*
X2293502D1*
X2224759Y2531239D2*
X2293502D1*
X2256201Y2299952D2*
X2249950D1*
X2199761Y2350141D1*
Y2518512D1*
X2212488Y2531239D1*
X2224759D1*
X1681066Y874949D2*
Y868914D1*
X2037278Y1206378D2*
X2050197Y1193460D1*
Y1111663D1*
X1993533Y875163D2*
D15*
X2012450D1*
Y874950D1*
D16*
Y868914D1*
X2174764Y1187630D2*
X2148622Y1161488D1*
Y1111663D1*
X2339488Y874949D2*
D15*
X2343701D1*
X2187992Y1111663D2*
D16*
Y1157113D1*
X2218509Y1187630D1*
X2337247Y868914D2*
X2345524D1*
X2339488Y874949D1*
X2422244Y1464025D2*
X2535802D1*
X2537226Y1462601D1*
X2643465D1*
X2655963Y1475100D1*
X2662213Y887662D2*
X2662239D1*
X2468483Y1094076D2*
D15*
X2440335D1*
X2412425D1*
X2412239Y1093890D1*
X2440335Y1094076D2*
Y1170344D1*
X2422244Y1188435D1*
X874410Y1187454D2*
D16*
Y1111910D1*
X862450Y1099950D1*
Y1062452D1*
X568456Y731201D2*
X568698D1*
X874410Y1187454D2*
Y1300492D1*
X856201Y1318701D1*
X2109252Y1050145D2*
Y1111663D1*
X1465450Y2012201D2*
D15*
Y2009453D1*
X1562452Y1912452D1*
X1631201D1*
X1465450Y1756201D2*
Y1815450D1*
X1562452Y1912452D1*
X1894685Y1306545D2*
X1815919D1*
X1796824Y1287450D1*
Y1281201D1*
X901969Y1187454D2*
D16*
Y1316795D1*
X899898Y1318866D1*
X1894685Y1365600D2*
D15*
X1965551D1*
X1337352Y2084411D2*
X1342999D1*
X1343958Y2083452D1*
X1637450Y2185630D2*
D3*
X1574960Y2187452D2*
X1573128D1*
X1637450Y2185630D2*
D16*
Y2599950D1*
X1737452Y2699952D1*
Y2819933D1*
X1738418Y2820899D1*
X2109252Y1639222D2*
Y1815795D1*
X2124769Y1831313D1*
X1887625Y2185802D2*
D15*
X1889274Y2187452D1*
X1768710D2*
D3*
X2075032Y2711462D2*
X2118520D1*
Y2668725D1*
X1943538Y2185711D2*
D16*
X1887715D1*
X1887625Y2185802D1*
D70*
X1281108Y543948D3*
X1399845Y678309D3*
X2174950Y1456201D3*
X2680961Y1937551D3*
X2162452Y1499952D3*
X2674711Y1981297D3*
X2502855Y878288D3*
X2337247Y1293869D3*
X2687210Y1687578D3*
X2337247Y1237625D3*
X2674711Y1637583D3*
X970858Y2375912D3*
X971765Y2075037D3*
X712452Y2378164D3*
X674921Y2149952D3*
Y2206273D3*
X740540Y2356257D3*
X1562452Y1846936D3*
X548502Y2275936D3*
X837404Y2193774D3*
X1252987Y2240645D3*
X1352978D3*
X756299Y2524949D3*
X1091242Y2709324D3*
X1196826Y684326D3*
X1074879D3*
X1257591Y445436D3*
X1196826Y684326D3*
X1257591Y445436D3*
X1796824Y1214272D3*
X1728075Y1059658D3*
X1315576Y887450D3*
X1257591Y445436D3*
X681171Y1921928D3*
X1315576Y887450D3*
X824906Y1921928D3*
X1331299Y846844D3*
X1196826Y684326D3*
X749696D3*
X1331299Y846844D3*
X1002314Y492840D3*
X787683Y2250181D3*
X887452Y2249950D3*
X887310Y2143841D3*
X548502Y2275936D3*
X545377Y2020030D3*
X787683Y2143780D3*
X1831050Y1393858D3*
X1728075Y1290883D3*
X1796824Y1214272D3*
X1062452Y2243701D3*
X1156201D3*
X1062452D3*
X1156201D3*
X1252987Y2240645D3*
X819292Y1431201D3*
X718701D3*
X731071Y456457D3*
X1002314Y492840D3*
X1531082Y2799961D3*
X1091242Y2709324D3*
X1912292Y2824958D3*
X2093523Y2793711D3*
X2162265Y2587483D3*
X1524832Y2343759D3*
X1693565Y2318761D3*
X2003772Y2318550D3*
X2074774Y2356257D3*
X2003772Y2318550D3*
X2293502Y2381255D3*
X2023294Y1029911D3*
X2530977Y1187630D3*
X2023294Y1029911D3*
X1939103Y1762570D3*
X1812302Y1712575D3*
X2274753Y1750071D3*
X1939103Y1762570D3*
X2637215Y1525095D3*
X2274753Y1750071D3*
X981201Y1431201D3*
X819292D3*
X543701D3*
X1462339Y500202D3*
X1806053Y502016D3*
X1956201Y2749950D3*
X2097213Y1847213D3*
X2224759Y2481244D3*
X2156201Y1399952D3*
X1043701Y1362452D3*
X2574722Y2381255D3*
X1781201Y2718701D3*
X2093701Y1887452D3*
X656173Y575194D3*
Y731428D3*
X1156121Y462706D3*
X568683Y637688D3*
X481192Y650187D3*
X1243612Y525200D3*
X1057432Y532605D3*
X631176Y637688D3*
X949950Y1037452D3*
X481192Y724961D3*
X943701Y1312452D3*
X2131019Y1018898D3*
X2162265Y1831313D3*
X1887453Y2118701D3*
X806201Y2362452D3*
X1031777Y2005626D3*
X1768701Y1843701D3*
X849903Y2375005D3*
X1168620Y2006282D3*
X1768557Y1900055D3*
X2131019Y1237625D3*
X2674711Y1781318D3*
X2324748Y1381360D3*
X2693460Y1737572D3*
X1634196Y1287620D3*
X1556079Y1465726D3*
X868701Y2340576D3*
X1224864Y1893788D3*
Y1781318D3*
X1518583Y850166D3*
X2465576Y924952D3*
X2193512Y1700076D3*
X2405990Y1775068D3*
X1018701Y1312450D3*
X2118701Y1368701D3*
X2593470Y2431250D3*
X1868546Y2762465D3*
X2050197Y1912452D3*
X2084149Y1328240D3*
X2693806Y1893806D3*
X2362450Y953076D3*
X1243612Y562696D3*
X2362450Y953076D3*
X1871826Y931201D3*
X806158Y456457D3*
X1002314Y532604D3*
X1243612Y562696D3*
X2124769Y1281370D3*
X2674711Y1831313D3*
X2334326Y981201D3*
X1160723Y564173D3*
X1815427Y1022534D3*
X2334326Y981201D3*
X1056131Y575194D3*
X1160723Y564173D3*
X656173Y456457D3*
X1056131Y575194D3*
X2181013Y1543843D3*
X2143517Y831418D3*
X2087273Y1231376D3*
X2474732Y725420D3*
X2031029Y1512596D3*
X1946826Y1587452D3*
X1928076Y1618701D3*
X1974950Y1568700D3*
X1968847Y1512596D3*
X1962286Y1175131D3*
X1468588Y775173D3*
X1806053Y837667D3*
X2012281Y1181381D3*
X1837299Y1231376D3*
X1453076Y2543701D3*
X2468483Y1027147D3*
X2249756Y1012649D3*
X2580971Y1493848D3*
X2468483Y1027147D3*
X2006032Y1762570D3*
X2206011Y1750071D3*
X676013Y2368756D3*
X821781Y2003170D3*
X678046D3*
X718667Y2521865D3*
X2293502Y1818814D3*
X2224759Y2531239D3*
D3*
X1681066Y868914D3*
X2037278Y1206378D3*
X2012450Y868914D3*
X2174764Y1187630D3*
X2218509D3*
X2337247Y868914D3*
X2655963Y1475100D3*
X2662213Y887662D3*
X862450Y1062452D3*
X568456Y731201D3*
X856201Y1318701D3*
X2109252Y1050145D3*
X1796824Y1281201D3*
X899898Y1318866D3*
X1965551Y1365600D3*
X1337352Y2084411D3*
X1637450Y2185630D3*
X1574960Y2187452D3*
X2124769Y1831313D3*
X1637450Y2185630D3*
X1889274Y2187452D3*
X1768710D3*
X2118520Y2668725D3*
X1889274Y2187452D3*
X1577210Y2835110D2*
D153*
X1652965D1*
X2139809D2*
X2275836D1*
X2668226D2*
X2832105D1*
X1577210Y2825242D2*
X1652965D1*
X2139809D2*
X2274898D1*
X2816253D2*
X2841969D1*
X1577210Y2815373D2*
X1652965D1*
X2139809D2*
X2275738D1*
X2816253D2*
X2846656D1*
X1577210Y2805504D2*
X1643902D1*
X2139809D2*
X2278453D1*
X2816253D2*
X2846656D1*
X1577210Y2795635D2*
X1636969D1*
X2139809D2*
X2283356D1*
X2816253D2*
X2846656D1*
X949378Y2785767D2*
X986109D1*
X1196390D2*
X1301070D1*
X1577210D2*
X1634566D1*
X2139809D2*
X2291285D1*
X2816253D2*
X2846656D1*
X939516Y2775898D2*
X986109D1*
X1196390D2*
X1301070D1*
X1577210D2*
X1634488D1*
X2139809D2*
X2174898D1*
X2287054D2*
X2304957D1*
X2816253D2*
X2846656D1*
X929652Y2766029D2*
X986109D1*
X1196390D2*
X1301070D1*
X1577210D2*
X1634488D1*
X2139809D2*
X2174898D1*
X2287054D2*
X2293257D1*
X2816253D2*
X2846656D1*
X919769Y2756160D2*
X986109D1*
X1196390D2*
X1301070D1*
X1577210D2*
X1634488D1*
X2139809D2*
X2174898D1*
X2816253D2*
X2846656D1*
X909906Y2746292D2*
X986109D1*
X1196390D2*
X1301070D1*
X1577210D2*
X1634488D1*
X2139809D2*
X2174898D1*
X2816253D2*
X2846656D1*
X900042Y2736423D2*
X986109D1*
X1196390D2*
X1301070D1*
X1577210D2*
X1634488D1*
X2139809D2*
X2174898D1*
X2816253D2*
X2846656D1*
X890180Y2726554D2*
X986109D1*
X1196390D2*
X1301070D1*
X1577210D2*
X1634488D1*
X2144164D2*
X2174898D1*
X2816253D2*
X2846656D1*
X881429Y2716685D2*
X986109D1*
X1196390D2*
X1301070D1*
X1511352D2*
X1634488D1*
X2147953D2*
X2174898D1*
X2816253D2*
X2846656D1*
X881429Y2706816D2*
X986109D1*
X1196390D2*
X1301070D1*
X1511352D2*
X1634488D1*
X2148421D2*
X2174898D1*
X2816253D2*
X2846656D1*
X2928402D2*
X2936364D1*
X3051038D2*
X3062692D1*
X881429Y2696948D2*
X986109D1*
X1196390D2*
X1301070D1*
X1511352D2*
X1634488D1*
X2148421D2*
X2174898D1*
X2816253D2*
X2847984D1*
X2938265D2*
X2955777D1*
X3031625D2*
X3062692D1*
X881429Y2687079D2*
X986109D1*
X1196390D2*
X1301070D1*
X1511352D2*
X1634488D1*
X2152113D2*
X2174898D1*
X2816253D2*
X2852730D1*
X2948129D2*
X3062692D1*
X881429Y2677210D2*
X986109D1*
X1196390D2*
X1301070D1*
X1511352D2*
X1634488D1*
X2155941D2*
X2174898D1*
X2816253D2*
X2861890D1*
X2958012D2*
X3062692D1*
X881429Y2667341D2*
X986109D1*
X1196390D2*
X1301070D1*
X1511352D2*
X1634488D1*
X2156898D2*
X2247437D1*
X2600492D2*
X2720152D1*
X2816253D2*
X2871753D1*
X2967874D2*
X3062692D1*
X881429Y2657473D2*
X986109D1*
X1196390D2*
X1301070D1*
X1511352D2*
X1634488D1*
X2155180D2*
X2257301D1*
X2592133D2*
X2881637D1*
X2974886D2*
X3062692D1*
X881429Y2647604D2*
X986109D1*
X1196390D2*
X1301070D1*
X1511352D2*
X1634488D1*
X2150394D2*
X2267242D1*
X2582210D2*
X2891500D1*
X2977718D2*
X3062692D1*
X697953Y2637735D2*
X1423180D1*
X1482973D2*
X1634078D1*
X2140453D2*
X2820601D1*
X2866801D2*
X2901364D1*
X2977973D2*
X3062692D1*
X707816Y2627866D2*
X1423180D1*
X1482973D2*
X1624196D1*
X2208344D2*
X2805504D1*
X2881898D2*
X2905504D1*
X2981898D2*
X3062692D1*
X717700Y2617998D2*
X1423180D1*
X1482973D2*
X1614528D1*
X2208344D2*
X2797046D1*
X2890356D2*
X2897062D1*
X2990356D2*
X3062692D1*
X727562Y2608129D2*
X1423180D1*
X1482973D2*
X1609253D1*
X2208344D2*
X2791813D1*
X2995589D2*
X3062692D1*
X810042Y2598260D2*
X1423180D1*
X1482973D2*
X1608042D1*
X2208344D2*
X2788844D1*
X2998558D2*
X3062692D1*
X821546Y2588391D2*
X1423180D1*
X1482973D2*
X1608042D1*
X2208344D2*
X2787789D1*
X2999613D2*
X3062692D1*
X826508Y2578523D2*
X1423180D1*
X1482973D2*
X1608042D1*
X2208344D2*
X2788512D1*
X2998890D2*
X3062692D1*
X827973Y2568654D2*
X1423180D1*
X1482973D2*
X1608042D1*
X2208344D2*
X2783746D1*
X2996313D2*
X3062692D1*
X828793Y2558785D2*
X1417848D1*
X1488305D2*
X1608042D1*
X2359281D2*
X2773864D1*
X2991546D2*
X3062692D1*
X830921Y2548916D2*
X1415034D1*
X1491117D2*
X1608042D1*
X2359281D2*
X2764214D1*
X2883852D2*
X2903550D1*
X2983852D2*
X3062692D1*
X830921Y2539047D2*
X1414977D1*
X1491196D2*
X1608042D1*
X2359281D2*
X2758981D1*
X2870668D2*
X2916734D1*
X2970668D2*
X3062692D1*
X830921Y2529179D2*
X1417613D1*
X1488538D2*
X1608042D1*
X2359281D2*
X2757809D1*
X2880414D2*
X3062692D1*
X830921Y2519310D2*
X1423726D1*
X1482425D2*
X1608042D1*
X2359281D2*
X2757809D1*
X2889437D2*
X3062692D1*
X830921Y2509441D2*
X1437066D1*
X1469086D2*
X1608042D1*
X2359281D2*
X2757809D1*
X2895042D2*
X3062692D1*
X830864Y2499572D2*
X1608042D1*
X2359281D2*
X2757809D1*
X2898265D2*
X3062692D1*
X828109Y2489704D2*
X1608042D1*
X2359281D2*
X2757809D1*
X2899574D2*
X3062692D1*
X819066Y2479835D2*
X1608042D1*
X2359281D2*
X2750874D1*
X2899105D2*
X3062692D1*
X739692Y2469966D2*
X1608042D1*
X2359281D2*
X2741012D1*
X2896781D2*
X3062692D1*
X751996Y2460097D2*
X1608042D1*
X2359281D2*
X2440328D1*
X2618265D2*
X2731129D1*
X2892328D2*
X3062692D1*
X755805Y2450229D2*
X1608042D1*
X2359281D2*
X2440328D1*
X2626702D2*
X2721265D1*
X2885101D2*
X3062692D1*
X756117Y2440360D2*
X1608042D1*
X2229164D2*
X2440328D1*
X2630746D2*
X2711402D1*
X2872973D2*
X2927945D1*
X2959457D2*
X3062692D1*
X756117Y2430491D2*
X1608042D1*
X1666860D2*
X2056969D1*
X2229164D2*
X2440328D1*
X2631860D2*
X2701538D1*
X2878832D2*
X2908570D1*
X2978832D2*
X3062692D1*
X756117Y2420622D2*
X922809D1*
X1018910D2*
X1608042D1*
X1666860D2*
X2056969D1*
X2229164D2*
X2440328D1*
X2630336D2*
X2691656D1*
X2888481D2*
X2898921D1*
X2988481D2*
X3062692D1*
X765864Y2410753D2*
X837906D1*
X861898D2*
X922809D1*
X1018910D2*
X1479137D1*
X1577210D2*
X1608042D1*
X1666860D2*
X2056969D1*
X2359281D2*
X2440328D1*
X2625746D2*
X2681793D1*
X2994437D2*
X3062692D1*
X778402Y2400885D2*
X821910D1*
X877894D2*
X922809D1*
X1018910D2*
X1479137D1*
X1577210D2*
X1608042D1*
X1666860D2*
X2025797D1*
X2359281D2*
X2440328D1*
X2616313D2*
X2671929D1*
X2997953D2*
X3062692D1*
X884710Y2391016D2*
X922809D1*
X1018910D2*
X1479137D1*
X1577210D2*
X1608042D1*
X1666860D2*
X2025797D1*
X2359281D2*
X2440328D1*
X2611820D2*
X2662066D1*
X2999516D2*
X3062692D1*
X887797Y2381147D2*
X922809D1*
X1018910D2*
X1479137D1*
X1577210D2*
X1608042D1*
X1666860D2*
X2025797D1*
X2359281D2*
X2440328D1*
X2613129D2*
X2652184D1*
X2999261D2*
X3062692D1*
X891058Y2371278D2*
X922809D1*
X1018910D2*
X1479137D1*
X1577210D2*
X1608042D1*
X1666860D2*
X2025797D1*
X2359281D2*
X2440328D1*
X2611761D2*
X2642320D1*
X2997192D2*
X3062692D1*
X900765Y2361410D2*
X913180D1*
X1018910D2*
X1479137D1*
X1577210D2*
X1608042D1*
X1753402D2*
X1947848D1*
X2124261D2*
X2170368D1*
X2434945D2*
X2440319D1*
X2607425D2*
X2632457D1*
X2993070D2*
X3062692D1*
X1018910Y2351541D2*
X1479137D1*
X1577210D2*
X1608042D1*
X1753402D2*
X1947848D1*
X2124261D2*
X2170368D1*
X2598441D2*
X2622574D1*
X2986273D2*
X3062692D1*
X1018910Y2341672D2*
X1479137D1*
X1577210D2*
X1608042D1*
X1753402D2*
X1947848D1*
X2124261D2*
X2171656D1*
X2487504D2*
X2612710D1*
X2975062D2*
X3062692D1*
X1018910Y2331803D2*
X1479137D1*
X1577210D2*
X1608042D1*
X1753402D2*
X1947848D1*
X2124261D2*
X2177066D1*
X2487504D2*
X2602848D1*
X2977093D2*
X3062692D1*
X957445Y2321935D2*
X1479137D1*
X1577210D2*
X1608042D1*
X1753402D2*
X1947848D1*
X2124261D2*
X2186813D1*
X2487504D2*
X2592984D1*
X2987445D2*
X3062692D1*
X947562Y2312066D2*
X1479137D1*
X1577210D2*
X1608042D1*
X1753402D2*
X1947848D1*
X2124261D2*
X2196676D1*
X2487504D2*
X2583101D1*
X2993813D2*
X3062692D1*
X935512Y2302197D2*
X1479137D1*
X1577210D2*
X1608042D1*
X1753402D2*
X1947848D1*
X2059692D2*
X2206538D1*
X2302289D2*
X2324469D1*
X2487504D2*
X2573238D1*
X2997621D2*
X3062692D1*
X931625Y2292328D2*
X1100269D1*
X1212133D2*
X1479137D1*
X1577210D2*
X1608042D1*
X1753402D2*
X1947848D1*
X2059692D2*
X2210113D1*
X2302289D2*
X2324469D1*
X2487504D2*
X2563374D1*
X2999418D2*
X3062692D1*
X964202Y2282460D2*
X1016364D1*
X1408910D2*
X1479137D1*
X1577210D2*
X1608042D1*
X1753402D2*
X1947848D1*
X2059692D2*
X2210113D1*
X2302289D2*
X2324469D1*
X2487504D2*
X2553492D1*
X2999398D2*
X3062692D1*
X975921Y2272591D2*
X1016364D1*
X1408910D2*
X1608042D1*
X1753402D2*
X1947848D1*
X2059692D2*
X2210113D1*
X2302289D2*
X2324469D1*
X2487504D2*
X2543629D1*
X2997582D2*
X3062692D1*
X980668Y2262722D2*
X1016364D1*
X1408910D2*
X1608042D1*
X1666860D2*
X2210113D1*
X2302289D2*
X2324469D1*
X2487504D2*
X2533765D1*
X2993753D2*
X3062692D1*
X981781Y2252853D2*
X1016364D1*
X1408910D2*
X1608042D1*
X1666860D2*
X2326696D1*
X2422797D2*
X2523902D1*
X2987368D2*
X3062692D1*
X980668Y2242984D2*
X1016364D1*
X1408910D2*
X1608042D1*
X1666860D2*
X2326696D1*
X2422797D2*
X2514020D1*
X2976957D2*
X3062692D1*
X981781Y2233116D2*
X1016364D1*
X1408910D2*
X1608042D1*
X1666860D2*
X2326696D1*
X2422797D2*
X2504156D1*
X2975218D2*
X3062692D1*
X980688Y2223247D2*
X1016364D1*
X1408910D2*
X1458141D1*
X1816761D2*
X1841538D1*
X1989633D2*
X2326696D1*
X2422797D2*
X2494293D1*
X2986370D2*
X3062692D1*
X981781Y2213378D2*
X1016364D1*
X1816761D2*
X1841538D1*
X1989633D2*
X2326696D1*
X2422797D2*
X2484410D1*
X2993129D2*
X3062692D1*
X980706Y2203509D2*
X1016364D1*
X1816761D2*
X1841538D1*
X1989633D2*
X2474546D1*
X2997230D2*
X3062692D1*
X981781Y2193641D2*
X1100269D1*
X1816761D2*
X1841538D1*
X1989633D2*
X2464684D1*
X2999281D2*
X3062692D1*
X980726Y2183772D2*
X1358257D1*
X1816761D2*
X1841538D1*
X1989633D2*
X2454820D1*
X2999496D2*
X3062692D1*
X995356Y2173903D2*
X1358257D1*
X1816761D2*
X1841538D1*
X1989633D2*
X2444937D1*
X2997933D2*
X3062692D1*
X1000492Y2164034D2*
X1358257D1*
X1816761D2*
X1841538D1*
X1989633D2*
X2435074D1*
X2994378D2*
X3062692D1*
X1001664Y2154166D2*
X1358257D1*
X1816761D2*
X1841538D1*
X1989633D2*
X2425210D1*
X2988402D2*
X3062692D1*
X712894Y2144297D2*
X728512D1*
X1001664D2*
X1358257D1*
X1816761D2*
X1841538D1*
X1989633D2*
X2415348D1*
X2978676D2*
X3062692D1*
X709945Y2134428D2*
X744957D1*
X1001664D2*
X1358257D1*
X1454360D2*
X1464038D1*
X1560160D2*
X1657809D1*
X1753929D2*
X1841538D1*
X1933714D2*
X2405465D1*
X2973168D2*
X3062692D1*
X703382Y2124559D2*
X744957D1*
X1001664D2*
X1295914D1*
X1458949D2*
X1464038D1*
X1560160D2*
X1657809D1*
X1753929D2*
X1841538D1*
X1933714D2*
X2395601D1*
X2985200D2*
X3062692D1*
X607210Y2114691D2*
X661461D1*
X688382D2*
X744957D1*
X1001664D2*
X1295914D1*
X1458949D2*
X1464038D1*
X1560160D2*
X1657809D1*
X1753929D2*
X1841538D1*
X1933714D2*
X2385738D1*
X2992406D2*
X3062692D1*
X607210Y2104822D2*
X744957D1*
X1001664D2*
X1295914D1*
X1458949D2*
X1464038D1*
X1560160D2*
X1657809D1*
X1753929D2*
X1841538D1*
X1933714D2*
X2375856D1*
X2996801D2*
X3062692D1*
X607210Y2094953D2*
X768589D1*
X1004418D2*
X1295914D1*
X1458949D2*
X1464038D1*
X1560160D2*
X1657809D1*
X1753929D2*
X1841538D1*
X1933714D2*
X2365992D1*
X2999105D2*
X3062692D1*
X607210Y2085084D2*
X768589D1*
X1008793D2*
X1295914D1*
X1458949D2*
X1841538D1*
X1933714D2*
X2356129D1*
X2999574D2*
X3062692D1*
X607210Y2075215D2*
X770016D1*
X1010160D2*
X1295914D1*
X1458949D2*
X1841538D1*
X1933714D2*
X2348336D1*
X2998246D2*
X3062692D1*
X599340Y2065347D2*
X770016D1*
X1008890D2*
X1253746D1*
X1499145D2*
X2345484D1*
X2994984D2*
X3062692D1*
X599340Y2055478D2*
X771870D1*
X1004652D2*
X1241500D1*
X1511410D2*
X2345348D1*
X2989360D2*
X3062692D1*
X599340Y2045609D2*
X629996D1*
X1214868D2*
X1233746D1*
X1519145D2*
X2345348D1*
X2980277D2*
X3062692D1*
X599340Y2035740D2*
X629996D1*
X1214868D2*
X1228668D1*
X1346234D2*
X1406656D1*
X1524242D2*
X2345348D1*
X2970882D2*
X3062692D1*
X599340Y2025872D2*
X629996D1*
X1214868D2*
X1225562D1*
X1349340D2*
X1403570D1*
X1527328D2*
X2345348D1*
X2983949D2*
X3062692D1*
X599340Y2016003D2*
X629996D1*
X1214868D2*
X1224176D1*
X1350726D2*
X1402164D1*
X1528734D2*
X2345348D1*
X2991625D2*
X3062692D1*
X599340Y2006134D2*
X629996D1*
X1214868D2*
X1224352D1*
X1350550D2*
X1402340D1*
X1528558D2*
X2345348D1*
X2996352D2*
X3062692D1*
X599340Y1996265D2*
X629996D1*
X1214868D2*
X1226129D1*
X1348773D2*
X1404117D1*
X1526781D2*
X1766226D1*
X1858382D2*
X2345348D1*
X2998910D2*
X3062692D1*
X599340Y1986397D2*
X629996D1*
X1214868D2*
X1229645D1*
X1345257D2*
X1407633D1*
X1530374D2*
X1766226D1*
X1858382D2*
X2345348D1*
X2999613D2*
X3062692D1*
X481702Y1976528D2*
X491421D1*
X599340D2*
X629996D1*
X1214868D2*
X1235250D1*
X1339652D2*
X1413257D1*
X1540238D2*
X1766226D1*
X1858382D2*
X2345348D1*
X2998538D2*
X3062692D1*
X424710Y1966659D2*
X629996D1*
X1214868D2*
X1243785D1*
X1331117D2*
X1421793D1*
X1550121D2*
X1766226D1*
X1858382D2*
X2345348D1*
X2995550D2*
X3062692D1*
X424710Y1956790D2*
X633121D1*
X1013578D2*
X1058082D1*
X1154184D2*
X1257750D1*
X1317152D2*
X1435757D1*
X1677289D2*
X1766226D1*
X1861684D2*
X2340328D1*
X2990277D2*
X3062692D1*
X424710Y1946921D2*
X633121D1*
X1013578D2*
X1058082D1*
X1154184D2*
X1486109D1*
X1677289D2*
X1766226D1*
X1871546D2*
X2034684D1*
X2065706D2*
X2330445D1*
X2981781D2*
X3062692D1*
X424710Y1937053D2*
X633121D1*
X1013578D2*
X1058082D1*
X1154184D2*
X1495973D1*
X1677289D2*
X1762086D1*
X1881410D2*
X2021032D1*
X2968285D2*
X3062692D1*
X424710Y1927184D2*
X633121D1*
X1013578D2*
X1058082D1*
X1154184D2*
X1207028D1*
X1242700D2*
X1505856D1*
X1677289D2*
X1741813D1*
X1891293D2*
X2014820D1*
X2982621D2*
X3062692D1*
X424710Y1917315D2*
X633121D1*
X1013578D2*
X1058082D1*
X1154184D2*
X1194801D1*
X1254945D2*
X1515718D1*
X1677289D2*
X1734370D1*
X1901156D2*
X2012105D1*
X2990805D2*
X3062692D1*
X424710Y1907446D2*
X633121D1*
X1013578D2*
X1058082D1*
X1154184D2*
X1189038D1*
X1260688D2*
X1515582D1*
X1677289D2*
X1730894D1*
X1911020D2*
X2012125D1*
X2995864D2*
X3062692D1*
X424710Y1897578D2*
X633121D1*
X1013578D2*
X1058082D1*
X1154184D2*
X1186656D1*
X1263070D2*
X1505700D1*
X1677289D2*
X1730230D1*
X1920902D2*
X2014878D1*
X2998696D2*
X3062692D1*
X424710Y1887709D2*
X633121D1*
X1013578D2*
X1058082D1*
X1154184D2*
X1186969D1*
X1262757D2*
X1495836D1*
X1677289D2*
X1732261D1*
X1930765D2*
X2020797D1*
X2999633D2*
X3062692D1*
X424710Y1877840D2*
X633121D1*
X1013578D2*
X1058082D1*
X1154184D2*
X1190034D1*
X1259692D2*
X1485973D1*
X1677289D2*
X1737477D1*
X1940629D2*
X2020797D1*
X2998773D2*
X3062692D1*
X424710Y1867971D2*
X518824D1*
X614925D2*
X1195465D1*
X1254261D2*
X1476109D1*
X1677289D2*
X1739253D1*
X1950492D2*
X2020797D1*
X2996058D2*
X3062692D1*
X424710Y1858103D2*
X518824D1*
X614925D2*
X1195465D1*
X1254261D2*
X1466226D1*
X1608538D2*
X1733180D1*
X1960374D2*
X2020797D1*
X2991137D2*
X3062692D1*
X424710Y1848234D2*
X518824D1*
X614925D2*
X1195465D1*
X1254261D2*
X1456364D1*
X1608538D2*
X1730582D1*
X1968753D2*
X2020797D1*
X2983168D2*
X3062692D1*
X424710Y1838365D2*
X518824D1*
X614925D2*
X1195465D1*
X1254261D2*
X1446500D1*
X1608538D2*
X1730680D1*
X1972621D2*
X2020797D1*
X2969360D2*
X3062692D1*
X424710Y1828496D2*
X518824D1*
X614925D2*
X1195465D1*
X1254261D2*
X1438668D1*
X1608538D2*
X1733532D1*
X1973382D2*
X2020797D1*
X2981196D2*
X3062692D1*
X424710Y1818628D2*
X518824D1*
X614925D2*
X1195465D1*
X1254261D2*
X1435718D1*
X1510492D2*
X1516352D1*
X1608538D2*
X1739957D1*
X1973382D2*
X2020797D1*
X2989925D2*
X3062692D1*
X424710Y1808759D2*
X518824D1*
X614925D2*
X1195465D1*
X1322093D2*
X1430816D1*
X1500629D2*
X1516364D1*
X1608538D2*
X1754370D1*
X1973382D2*
X2020797D1*
X2995336D2*
X3062692D1*
X424710Y1798890D2*
X518824D1*
X614925D2*
X656793D1*
X680609D2*
X856793D1*
X880609D2*
X1056793D1*
X1080609D2*
X1190856D1*
X1333969D2*
X1418941D1*
X1608538D2*
X1772340D1*
X1987152D2*
X2020797D1*
X2998421D2*
X3062692D1*
X424710Y1789021D2*
X518824D1*
X614925D2*
X632574D1*
X704828D2*
X757554D1*
X779848D2*
X832574D1*
X904828D2*
X957554D1*
X979848D2*
X1032574D1*
X1104828D2*
X1157554D1*
X1179848D2*
X1187259D1*
X1341528D2*
X1411382D1*
X1519516D2*
X1782222D1*
X1987152D2*
X2020797D1*
X2999613D2*
X3062692D1*
X424710Y1779152D2*
X532769D1*
X604633D2*
X621285D1*
X716117D2*
X732769D1*
X804633D2*
X821285D1*
X916117D2*
X932769D1*
X1004633D2*
X1021285D1*
X1116117D2*
X1132769D1*
X1346469D2*
X1406421D1*
X1524477D2*
X1792086D1*
X1987152D2*
X2020797D1*
X2999008D2*
X3062692D1*
X424710Y1769284D2*
X521402D1*
X1349457D2*
X1403433D1*
X1527465D2*
X1801949D1*
X1987152D2*
X2020797D1*
X2996546D2*
X3062692D1*
X424710Y1759415D2*
X514117D1*
X1350765D2*
X1402125D1*
X1528773D2*
X1811832D1*
X1987152D2*
X2020797D1*
X2991937D2*
X3062692D1*
X424710Y1749546D2*
X509352D1*
X1350492D2*
X1402398D1*
X1528500D2*
X1805660D1*
X1993285D2*
X2020797D1*
X2984457D2*
X3062692D1*
X424710Y1739677D2*
X506520D1*
X1348617D2*
X1404273D1*
X1526625D2*
X1785524D1*
X2003168D2*
X2020797D1*
X2971801D2*
X3062692D1*
X424710Y1729809D2*
X505348D1*
X1345004D2*
X1407906D1*
X1744868D2*
X1778101D1*
X2013032D2*
X2020797D1*
X2979672D2*
X3062692D1*
X424710Y1719940D2*
X505757D1*
X1372914D2*
X1413668D1*
X1744868D2*
X1774625D1*
X2988988D2*
X3062692D1*
X424710Y1710071D2*
X507769D1*
X1372914D2*
X1422437D1*
X1744868D2*
X1773981D1*
X2994750D2*
X3062692D1*
X424710Y1700202D2*
X511558D1*
X1372914D2*
X1436929D1*
X1744868D2*
X1776012D1*
X2998129D2*
X3062692D1*
X424710Y1690334D2*
X517534D1*
X619868D2*
X626798D1*
X710609D2*
X717541D1*
X819868D2*
X826798D1*
X910609D2*
X917541D1*
X1372914D2*
X1491285D1*
X1744868D2*
X1781149D1*
X2999554D2*
X3062692D1*
X424710Y1680465D2*
X526637D1*
X610765D2*
X642281D1*
X695121D2*
X726637D1*
X810765D2*
X842281D1*
X895121D2*
X926637D1*
X1372914D2*
X1491285D1*
X1744868D2*
X1781149D1*
X2999184D2*
X3062692D1*
X424710Y1670596D2*
X541988D1*
X595414D2*
X741988D1*
X795414D2*
X941988D1*
X1372914D2*
X1491285D1*
X1744868D2*
X1781149D1*
X2996977D2*
X3062692D1*
X424710Y1660727D2*
X994253D1*
X1372914D2*
X1491285D1*
X1744868D2*
X1781149D1*
X2992700D2*
X3062692D1*
X424710Y1650858D2*
X1005250D1*
X1372914D2*
X1451538D1*
X2985668D2*
X3062692D1*
X424710Y1640990D2*
X1276793D1*
X1372914D2*
X1451538D1*
X2974008D2*
X3062692D1*
X424710Y1631121D2*
X1276793D1*
X1372914D2*
X1451538D1*
X2978012D2*
X3062692D1*
X424710Y1621252D2*
X1451538D1*
X2987992D2*
X3062692D1*
X424710Y1611383D2*
X1451538D1*
X2994145D2*
X3062692D1*
X424710Y1601515D2*
X1451538D1*
X2997797D2*
X3062692D1*
X424710Y1591646D2*
X1451538D1*
X2999477D2*
X3062692D1*
X424710Y1581777D2*
X1451538D1*
X2999340D2*
X3062692D1*
X424710Y1571908D2*
X1451538D1*
X1543696D2*
X1703726D1*
X2997386D2*
X3062692D1*
X424710Y1562040D2*
X1451538D1*
X1543696D2*
X1703726D1*
X2993402D2*
X3062692D1*
X424710Y1552171D2*
X1451538D1*
X1543696D2*
X1703726D1*
X2986801D2*
X3062692D1*
X424710Y1542302D2*
X1451538D1*
X1543696D2*
X1703726D1*
X2975981D2*
X3062692D1*
X424710Y1532433D2*
X1451538D1*
X1543696D2*
X1703726D1*
X2976214D2*
X3062692D1*
X424710Y1522565D2*
X1451538D1*
X1543696D2*
X1696032D1*
X2986937D2*
X3062692D1*
X424710Y1512696D2*
X1451538D1*
X2993481D2*
X3062692D1*
X424710Y1502827D2*
X1451538D1*
X2997425D2*
X3062692D1*
X424710Y1492958D2*
X1485973D1*
X2999360D2*
X3062692D1*
X424710Y1483089D2*
X1491285D1*
X2999457D2*
X3062692D1*
X424710Y1473221D2*
X1491285D1*
X2997757D2*
X3062692D1*
X424710Y1463352D2*
X523589D1*
X563813D2*
X698589D1*
X738813D2*
X799176D1*
X839398D2*
X961089D1*
X1353265D2*
X1491285D1*
X2994066D2*
X3062692D1*
X424710Y1453483D2*
X512672D1*
X574730D2*
X687672D1*
X749730D2*
X788257D1*
X850336D2*
X950172D1*
X1369418D2*
X1491285D1*
X2987874D2*
X3062692D1*
X424710Y1443614D2*
X507418D1*
X579984D2*
X682418D1*
X754984D2*
X783004D1*
X855570D2*
X944918D1*
X1375570D2*
X1491285D1*
X2977797D2*
X3062692D1*
X424710Y1433746D2*
X505386D1*
X582016D2*
X680386D1*
X757016D2*
X780973D1*
X857601D2*
X942886D1*
X1377874D2*
X1491285D1*
X2974261D2*
X3062692D1*
X424710Y1423877D2*
X506032D1*
X581370D2*
X681032D1*
X756370D2*
X781617D1*
X856977D2*
X943532D1*
X1377973D2*
X1491285D1*
X2985805D2*
X3062692D1*
X424710Y1414008D2*
X509429D1*
X577973D2*
X684429D1*
X752973D2*
X785016D1*
X853558D2*
X946988D1*
X1377973D2*
X1491285D1*
X2992777D2*
X3062692D1*
X424710Y1404139D2*
X509429D1*
X577973D2*
X684429D1*
X752973D2*
X785016D1*
X853558D2*
X950368D1*
X1377973D2*
X1657340D1*
X2997034D2*
X3062692D1*
X424710Y1394271D2*
X509429D1*
X577973D2*
X684429D1*
X752973D2*
X785016D1*
X853558D2*
X950368D1*
X1377973D2*
X1666910D1*
X2999202D2*
X3062692D1*
X424710Y1384402D2*
X509429D1*
X577973D2*
X684429D1*
X752973D2*
X785016D1*
X853558D2*
X950368D1*
X1377973D2*
X1676773D1*
X2999534D2*
X3062692D1*
X424710Y1374533D2*
X509429D1*
X577973D2*
X684429D1*
X754672D2*
X785016D1*
X853558D2*
X950368D1*
X1377973D2*
X1686637D1*
X2998089D2*
X3062692D1*
X424710Y1364664D2*
X509429D1*
X577973D2*
X684429D1*
X764105D2*
X785016D1*
X853558D2*
X950368D1*
X1377973D2*
X1696520D1*
X2994672D2*
X3062692D1*
X424710Y1354795D2*
X509429D1*
X577973D2*
X685328D1*
X769261D2*
X785016D1*
X866996D2*
X888512D1*
X911293D2*
X950368D1*
X1377973D2*
X1785524D1*
X2988870D2*
X3062692D1*
X424710Y1344927D2*
X509429D1*
X577973D2*
X689410D1*
X770882D2*
X785016D1*
X1377973D2*
X1785601D1*
X2979477D2*
X3062692D1*
X424710Y1335058D2*
X509429D1*
X577973D2*
X698042D1*
X770882D2*
X785016D1*
X1377973D2*
X1681988D1*
X1774164D2*
X1788101D1*
X2972093D2*
X3062692D1*
X424710Y1325189D2*
X509429D1*
X577973D2*
X702340D1*
X770882D2*
X785016D1*
X1377973D2*
X1681988D1*
X2984613D2*
X3062692D1*
X424710Y1315320D2*
X509429D1*
X577973D2*
X702340D1*
X770882D2*
X785016D1*
X1377973D2*
X1608062D1*
X1660316D2*
X1681988D1*
X2992034D2*
X3062692D1*
X424710Y1305452D2*
X509429D1*
X577973D2*
X702340D1*
X770882D2*
X785016D1*
X1377973D2*
X1600328D1*
X1668070D2*
X1681988D1*
X2996586D2*
X3062692D1*
X424710Y1295583D2*
X509429D1*
X577973D2*
X702340D1*
X770882D2*
X785016D1*
X1377973D2*
X1596656D1*
X1671742D2*
X1681988D1*
X2999028D2*
X3062692D1*
X424710Y1285714D2*
X509429D1*
X577973D2*
X702340D1*
X770882D2*
X785016D1*
X1377973D2*
X1564722D1*
X2999593D2*
X3062692D1*
X424710Y1275845D2*
X509429D1*
X577973D2*
X702340D1*
X770882D2*
X785016D1*
X1377973D2*
X1549390D1*
X2998382D2*
X3062692D1*
X424710Y1265977D2*
X509429D1*
X1377973D2*
X1541344D1*
X2995257D2*
X3062692D1*
X424710Y1256108D2*
X509429D1*
X1377973D2*
X1536637D1*
X2989809D2*
X3062692D1*
X424710Y1246239D2*
X509429D1*
X1377973D2*
X1534332D1*
X2981020D2*
X3062692D1*
X424710Y1236370D2*
X509429D1*
X1377973D2*
X1534058D1*
X2969672D2*
X3062692D1*
X424710Y1226502D2*
X509429D1*
X1377973D2*
X1535797D1*
X2983324D2*
X3062692D1*
X424710Y1216633D2*
X509429D1*
X1377973D2*
X1539781D1*
X2991234D2*
X3062692D1*
X424710Y1206764D2*
X509429D1*
X1377973D2*
X1546734D1*
X2996117D2*
X3062692D1*
X424710Y1196895D2*
X509429D1*
X1377973D2*
X1559117D1*
X2998813D2*
X3062692D1*
X424710Y1187026D2*
X509429D1*
X1377953D2*
X1681988D1*
X2999633D2*
X3062692D1*
X424710Y1177158D2*
X509429D1*
X1377192D2*
X1681988D1*
X2998656D2*
X3062692D1*
X424710Y1167289D2*
X509429D1*
X1377192D2*
X1681988D1*
X2995785D2*
X3062692D1*
X424710Y1157420D2*
X509429D1*
X1377192D2*
X1652730D1*
X2990688D2*
X3062692D1*
X424710Y1147551D2*
X509429D1*
X1377192D2*
X1642868D1*
X2982445D2*
X3062692D1*
X424710Y1137683D2*
X509429D1*
X1377192D2*
X1632984D1*
X2967953D2*
X3062692D1*
X424710Y1127814D2*
X509429D1*
X1377192D2*
X1623121D1*
X2981957D2*
X3062692D1*
X424710Y1117945D2*
X509429D1*
X1377192D2*
X1613257D1*
X2990394D2*
X3062692D1*
X424710Y1108076D2*
X509429D1*
X1377192D2*
X1603394D1*
X2995609D2*
X3062692D1*
X424710Y1098208D2*
X541852D1*
X1349848D2*
X1572750D1*
X2998558D2*
X3062692D1*
X424710Y1088339D2*
X541852D1*
X1349848D2*
X1552222D1*
X1667386D2*
X1681988D1*
X2999613D2*
X3062692D1*
X424710Y1078470D2*
X541852D1*
X1349848D2*
X1542984D1*
X1657524D2*
X1681988D1*
X2998890D2*
X3062692D1*
X424710Y1068601D2*
X541852D1*
X1349848D2*
X1537574D1*
X1647660D2*
X1681988D1*
X2996293D2*
X3062692D1*
X424710Y1058732D2*
X541852D1*
X1349848D2*
X1534702D1*
X1637777D2*
X1681988D1*
X2991528D2*
X3062692D1*
X424710Y1048864D2*
X541852D1*
X1349848D2*
X1533941D1*
X1634710D2*
X1681988D1*
X2237074D2*
X2256520D1*
X2983793D2*
X3062692D1*
X424710Y1038995D2*
X541852D1*
X1349848D2*
X1535152D1*
X1633500D2*
X1681988D1*
X2237074D2*
X2256520D1*
X2970570D2*
X3062692D1*
X424710Y1029126D2*
X541852D1*
X1349848D2*
X1538532D1*
X1630121D2*
X1681988D1*
X2235824D2*
X2256520D1*
X2980473D2*
X3062692D1*
X424710Y1019257D2*
X541852D1*
X1349848D2*
X1544625D1*
X1624028D2*
X1768726D1*
X2230882D2*
X2256520D1*
X2989477D2*
X3062692D1*
X424710Y1009389D2*
X541870D1*
X1349848D2*
X1555133D1*
X1613520D2*
X1768726D1*
X2230882D2*
X2256520D1*
X2995062D2*
X3062692D1*
X424710Y999520D2*
X543824D1*
X1349848D2*
X1768726D1*
X2230882D2*
X2256520D1*
X2998285D2*
X3062692D1*
X424710Y989651D2*
X550328D1*
X1349848D2*
X1768726D1*
X2230882D2*
X2256520D1*
X2999593D2*
X3062692D1*
X424710Y979782D2*
X560210D1*
X1349848D2*
X1768726D1*
X2230882D2*
X2256520D1*
X2999086D2*
X3062692D1*
X424710Y969914D2*
X570074D1*
X1349848D2*
X1841168D1*
X2230882D2*
X2256520D1*
X2996761D2*
X3062692D1*
X424710Y960045D2*
X579937D1*
X1349848D2*
X1841168D1*
X2221528D2*
X2256520D1*
X2992309D2*
X3062692D1*
X424710Y950176D2*
X589820D1*
X1349848D2*
X1838589D1*
X2221528D2*
X2256520D1*
X2985042D2*
X3062692D1*
X424710Y940307D2*
X599684D1*
X1349848D2*
X1834546D1*
X2221528D2*
X2257516D1*
X2972894D2*
X3062692D1*
X424710Y930439D2*
X609546D1*
X1349848D2*
X1833433D1*
X2221528D2*
X2262360D1*
X2978890D2*
X3062692D1*
X424710Y920570D2*
X619410D1*
X1349848D2*
X1834977D1*
X2219730D2*
X2271852D1*
X2988520D2*
X3062692D1*
X424710Y910701D2*
X629293D1*
X1349848D2*
X1566089D1*
X1729125D2*
X1839546D1*
X2214301D2*
X2224508D1*
X2994457D2*
X3062692D1*
X424710Y900832D2*
X639156D1*
X1351508D2*
X1566089D1*
X1729125D2*
X1849000D1*
X2204750D2*
X2224508D1*
X2710512D2*
X2720368D1*
X2997973D2*
X3062692D1*
X424710Y890963D2*
X649020D1*
X1353813D2*
X1566089D1*
X1729125D2*
X1897477D1*
X2194868D2*
X2224508D1*
X2710512D2*
X2730230D1*
X2999516D2*
X3062692D1*
X424710Y881095D2*
X658902D1*
X1353441D2*
X1496558D1*
X1540609D2*
X1566089D1*
X1729125D2*
X1897477D1*
X2184868D2*
X2224508D1*
X2541156D2*
X2547484D1*
X2710512D2*
X2740113D1*
X2999261D2*
X3062692D1*
X424710Y871226D2*
X668765D1*
X1360668D2*
X1486676D1*
X1550492D2*
X1566089D1*
X1729125D2*
X1788550D1*
X1823558D2*
X1897477D1*
X2060512D2*
X2224508D1*
X2540589D2*
X2547470D1*
X2710512D2*
X2749977D1*
X2997172D2*
X3062692D1*
X424710Y861357D2*
X678629D1*
X1366761D2*
X1481890D1*
X1555277D2*
X1563902D1*
X1729125D2*
X1776109D1*
X1836000D2*
X1897242D1*
X2060512D2*
X2120113D1*
X2166937D2*
X2224508D1*
X2537210D2*
X2547477D1*
X2710512D2*
X2763004D1*
X2993032D2*
X3062692D1*
X424710Y851488D2*
X688492D1*
X1369418D2*
X1480210D1*
X1556957D2*
X1563902D1*
X1729125D2*
X1770309D1*
X1841801D2*
X1897242D1*
X2060512D2*
X2110953D1*
X2176078D2*
X2224508D1*
X2529945D2*
X2547477D1*
X2710512D2*
X2801188D1*
X2986214D2*
X3062692D1*
X424710Y841620D2*
X698374D1*
X1369340D2*
X1481168D1*
X1556000D2*
X1563902D1*
X1729125D2*
X1767868D1*
X1844242D2*
X1897242D1*
X2060512D2*
X2106538D1*
X2180492D2*
X2224508D1*
X2387542D2*
X2494488D1*
X2511214D2*
X2557652D1*
X2653753D2*
X2812418D1*
X2974984D2*
X3062692D1*
X424710Y831751D2*
X708238D1*
X1366528D2*
X1485034D1*
X1552133D2*
X1563902D1*
X1729125D2*
X1768121D1*
X1843988D2*
X1897242D1*
X2060512D2*
X2105113D1*
X2181918D2*
X2224508D1*
X2387542D2*
X2557652D1*
X2653753D2*
X2810230D1*
X2977172D2*
X3062692D1*
X424710Y821882D2*
X718101D1*
X1365570D2*
X1493121D1*
X1544046D2*
X1563902D1*
X1660004D2*
X1771149D1*
X1840961D2*
X1897242D1*
X1993344D2*
X2106344D1*
X2180688D2*
X2230562D1*
X2326684D2*
X2557652D1*
X2653753D2*
X2799898D1*
X2987504D2*
X3062692D1*
X424710Y812013D2*
X720542D1*
X1365570D2*
X1461149D1*
X1476038D2*
X1563902D1*
X1660004D2*
X1776656D1*
X1835453D2*
X1897242D1*
X1993344D2*
X2110542D1*
X2176488D2*
X2230562D1*
X2326684D2*
X2557652D1*
X2653753D2*
X2793570D1*
X2993832D2*
X3062692D1*
X424710Y802145D2*
X720542D1*
X1365570D2*
X1441676D1*
X1495492D2*
X1563902D1*
X1660004D2*
X1776656D1*
X1835453D2*
X1897242D1*
X1993344D2*
X2114117D1*
X2172914D2*
X2230562D1*
X2326684D2*
X2557652D1*
X2653753D2*
X2789781D1*
X2997621D2*
X3062692D1*
X424710Y792276D2*
X720542D1*
X1365570D2*
X1434332D1*
X1502856D2*
X1537418D1*
X1660004D2*
X1776656D1*
X1835453D2*
X1872828D1*
X1993344D2*
X2114117D1*
X2172914D2*
X2208257D1*
X2326684D2*
X2543668D1*
X2653753D2*
X2787984D1*
X2999418D2*
X3062692D1*
X712582Y782407D2*
X720542D1*
X1660004D2*
X1762477D1*
X1993344D2*
X2114117D1*
X2172914D2*
X2184488D1*
X2326684D2*
X2519898D1*
X2592504D2*
X2788004D1*
X2999398D2*
X3062692D1*
X1597465Y772538D2*
X1762477D1*
X1932894D2*
X2114117D1*
X2268305D2*
X2508688D1*
X2603714D2*
X2789840D1*
X2997562D2*
X3062692D1*
X1604692Y762670D2*
X1762477D1*
X1940101D2*
X2095582D1*
X2275512D2*
X2429078D1*
X2610941D2*
X2793688D1*
X2993714D2*
X3062692D1*
X1609398Y752801D2*
X1762477D1*
X1944809D2*
X2095582D1*
X2280238D2*
X2429078D1*
X2615649D2*
X2800074D1*
X2987328D2*
X3062692D1*
X1612192Y742932D2*
X1762477D1*
X1947601D2*
X2095582D1*
X2283032D2*
X2429078D1*
X2618441D2*
X2810524D1*
X2976878D2*
X3062692D1*
X1613324Y733063D2*
X1762477D1*
X1948734D2*
X2095582D1*
X2284145D2*
X2429078D1*
X2619574D2*
X2787769D1*
X2999633D2*
X3062692D1*
X1612874Y723194D2*
X1762477D1*
X1948285D2*
X2095582D1*
X2283696D2*
X2429078D1*
X2619125D2*
X2787769D1*
X2999633D2*
X3062692D1*
X1610805Y713326D2*
X1762477D1*
X1946234D2*
X2095582D1*
X2281645D2*
X2429078D1*
X2617054D2*
X2787769D1*
X2999633D2*
X3062692D1*
X1606977Y703457D2*
X1762477D1*
X1942386D2*
X2095582D1*
X2277797D2*
X2429078D1*
X2613226D2*
X2787769D1*
X2999633D2*
X3062692D1*
X1600921Y693588D2*
X1762477D1*
X1936352D2*
X2095582D1*
X2271761D2*
X2429078D1*
X2607172D2*
X2787769D1*
X2999633D2*
X3062692D1*
X1122093Y683719D2*
X1154566D1*
X1312425D2*
X1353864D1*
X1591722D2*
X1762477D1*
X1927152D2*
X2095582D1*
X2262562D2*
X2429078D1*
X2597973D2*
X2787769D1*
X2999633D2*
X3062692D1*
X1122093Y673851D2*
X1154566D1*
X1312425D2*
X1353864D1*
X1510864D2*
X1523785D1*
X1576117D2*
X1762477D1*
X1911528D2*
X2095582D1*
X2246957D2*
X2429078D1*
X2582368D2*
X2787769D1*
X2999633D2*
X3062692D1*
X1122093Y663982D2*
X1154566D1*
X1312425D2*
X1353864D1*
X1510864D2*
X1762477D1*
X1854652D2*
X2095582D1*
X2193520D2*
X2429078D1*
X2522973D2*
X2787769D1*
X2999633D2*
X3062692D1*
X1122093Y654113D2*
X1154566D1*
X1312425D2*
X1353864D1*
X1510864D2*
X1762477D1*
X1854652D2*
X2095582D1*
X2187757D2*
X2429078D1*
X2521253D2*
X2787769D1*
X2999633D2*
X3062692D1*
X1122093Y644244D2*
X1154566D1*
X1312425D2*
X1353864D1*
X1510864D2*
X1762477D1*
X1854652D2*
X2095582D1*
X2187757D2*
X2429078D1*
X2521253D2*
X2787769D1*
X2999633D2*
X3062692D1*
X950902Y634376D2*
X972418D1*
X1032210D2*
X1353864D1*
X1510864D2*
X1762477D1*
X1888032D2*
X2095582D1*
X2187757D2*
X2429078D1*
X2521253D2*
X2787769D1*
X2999633D2*
X3062692D1*
X950902Y624507D2*
X972418D1*
X1032210D2*
X1188902D1*
X1312562D2*
X1432945D1*
X1502914D2*
X1776656D1*
X1897894D2*
X2095582D1*
X2187757D2*
X2429078D1*
X2521253D2*
X3062692D1*
X950902Y614638D2*
X972418D1*
X1032210D2*
X1131832D1*
X1312562D2*
X1432945D1*
X1512777D2*
X1759977D1*
X1907757D2*
X2095582D1*
X2187757D2*
X2429078D1*
X2521253D2*
X3062692D1*
X950902Y604769D2*
X964097D1*
X1095649D2*
X1121949D1*
X1312562D2*
X1416246D1*
X1522641D2*
X1759977D1*
X1914554D2*
X2112281D1*
X2171078D2*
X2445777D1*
X2504574D2*
X3062692D1*
X950902Y594900D2*
X964097D1*
X1095649D2*
X1112086D1*
X1346038D2*
X1416246D1*
X1532524D2*
X1759977D1*
X1916684D2*
X2112281D1*
X2171078D2*
X2445777D1*
X2504574D2*
X2970738D1*
X3016664D2*
X3062692D1*
X950902Y585032D2*
X964097D1*
X1095649D2*
X1102223D1*
X1346038D2*
X1416246D1*
X1542386D2*
X1759977D1*
X1916702D2*
X2112281D1*
X2171078D2*
X2445777D1*
X2504574D2*
X2943882D1*
X3043520D2*
X3062692D1*
X950902Y575163D2*
X964097D1*
X1346038D2*
X1416246D1*
X1552250D2*
X1759977D1*
X1916702D2*
X2112281D1*
X2171078D2*
X2445777D1*
X2504574D2*
X2928765D1*
X950902Y565294D2*
X964097D1*
X1346038D2*
X1416246D1*
X1562133D2*
X1759977D1*
X1916702D2*
X2112281D1*
X2171605D2*
X2445777D1*
X2507016D2*
X2917886D1*
X950902Y555425D2*
X964097D1*
X1346038D2*
X1416246D1*
X1571957D2*
X1759977D1*
X1916702D2*
X2112281D1*
X2181469D2*
X2445777D1*
X2516898D2*
X2909546D1*
X950902Y545557D2*
X964097D1*
X1346038D2*
X1416246D1*
X1577797D2*
X1759977D1*
X1916702D2*
X2113570D1*
X2191332D2*
X2447750D1*
X2526761D2*
X2903062D1*
X950902Y535688D2*
X964038D1*
X1346038D2*
X1416246D1*
X1579360D2*
X1759977D1*
X1916702D2*
X2119020D1*
X2236097D2*
X2454293D1*
X2571508D2*
X2898042D1*
X950902Y525819D2*
X964097D1*
X1346038D2*
X1416246D1*
X1587093D2*
X1759977D1*
X1922504D2*
X2128746D1*
X2257933D2*
X2464176D1*
X2593344D2*
X2894253D1*
X950902Y515950D2*
X964097D1*
X1346038D2*
X1416246D1*
X1597992D2*
X1759977D1*
X1933402D2*
X2138629D1*
X2268832D2*
X2474038D1*
X2604242D2*
X2891558D1*
X950902Y506082D2*
X964097D1*
X1332250D2*
X1416246D1*
X1605024D2*
X1759977D1*
X1940453D2*
X2148492D1*
X2275864D2*
X2483902D1*
X2611273D2*
X2889878D1*
X950902Y496213D2*
X964058D1*
X1332250D2*
X1416246D1*
X1609613D2*
X1759977D1*
X1945042D2*
X2158356D1*
X2280453D2*
X2493765D1*
X2615864D2*
X2889176D1*
X950902Y486344D2*
X964097D1*
X1332250D2*
X1416246D1*
X1612309D2*
X1759977D1*
X1947718D2*
X2158433D1*
X2283129D2*
X2493844D1*
X2618558D2*
X2889410D1*
X950902Y476475D2*
X964097D1*
X1332250D2*
X1416246D1*
X1613324D2*
X1759977D1*
X1948753D2*
X2157398D1*
X2284164D2*
X2492828D1*
X2619574D2*
X2890582D1*
X950902Y466607D2*
X964097D1*
X1332250D2*
X1416246D1*
X1612797D2*
X1759977D1*
X1948206D2*
X2157945D1*
X2283617D2*
X2493356D1*
X2619046D2*
X2892750D1*
X950902Y456738D2*
X964097D1*
X1307836D2*
X1416246D1*
X1610629D2*
X1759977D1*
X1946058D2*
X2160093D1*
X2281469D2*
X2495524D1*
X2616878D2*
X2895973D1*
X950902Y446869D2*
X1019214D1*
X1300902D2*
X1493218D1*
X1606684D2*
X1828649D1*
X1942093D2*
X2164058D1*
X2277504D2*
X2499469D1*
X2612933D2*
X2900348D1*
X950902Y437000D2*
X1019214D1*
X1295024D2*
X1499410D1*
X1600492D2*
X1834840D1*
X1935902D2*
X2170250D1*
X2271313D2*
X2505660D1*
X2606742D2*
X2906050D1*
X950902Y427131D2*
X1019214D1*
X1291214D2*
X1508864D1*
X1591038D2*
X1844273D1*
X1926449D2*
X2179702D1*
X2261878D2*
X2515113D1*
X2597289D2*
X2913374D1*
X1510343Y2721508D2*
Y2638058D1*
X1481963D1*
X1481977Y2567431D1*
X1484965Y2563243D1*
X1487629Y2558013D1*
X1489442Y2552432D1*
X1490361Y2546635D1*
Y2540767D1*
X1489442Y2534970D1*
X1487629Y2529389D1*
X1484965Y2524159D1*
X1481516Y2519412D1*
X1477365Y2515261D1*
X1472618Y2511813D1*
X1467389Y2509149D1*
X1461807Y2507335D1*
X1456011Y2506416D1*
X1450142D1*
X1444345Y2507335D1*
X1438764Y2509149D1*
X1433534Y2511813D1*
X1428788Y2515261D1*
X1424637Y2519412D1*
X1421188Y2524159D1*
X1418524Y2529389D1*
X1416710Y2534970D1*
X1415792Y2540767D1*
Y2546635D1*
X1416710Y2552432D1*
X1418524Y2558013D1*
X1421188Y2563243D1*
X1424176Y2567404D1*
Y2638057D1*
X1302062Y2638058D1*
Y2791398D1*
X1300568Y2791684D1*
X1195393D1*
X1195382Y2638058D1*
X987101D1*
Y2791671D1*
X954299Y2791684D1*
X880423Y2717806D1*
X880421Y2638058D1*
X696613D1*
X732679Y2602011D1*
X796311Y2601907D1*
X801469Y2601089D1*
X806435Y2599477D1*
X811087Y2597107D1*
X815311Y2594037D1*
X819003Y2590345D1*
X822072Y2586121D1*
X824442Y2581469D1*
X826055Y2576503D1*
X826873Y2571345D1*
X826975Y2560474D1*
X828685Y2556420D1*
X829616Y2552545D1*
X829928Y2548563D1*
X829849Y2499334D1*
X829226Y2495398D1*
X827995Y2491607D1*
X826185Y2488055D1*
X823843Y2484831D1*
X821024Y2482012D1*
X817799Y2479670D1*
X814248Y2477860D1*
X810457Y2476629D1*
X806521Y2476005D1*
X789528Y2475927D1*
X780881Y2476005D1*
X776945Y2476629D1*
X774975Y2477170D1*
X771100Y2476239D1*
X767118Y2475927D1*
X743479Y2476005D1*
X739544Y2476629D1*
X737574Y2477170D1*
X733698Y2476239D1*
X729725Y2475927D1*
X713221D1*
X723071Y2471601D1*
X731718Y2471523D1*
X735654Y2470899D1*
X739445Y2469668D1*
X742996Y2467858D1*
X746221Y2465516D1*
X749040Y2462697D1*
X751382Y2459473D1*
X753192Y2455921D1*
X754423Y2452130D1*
X755046Y2448194D1*
X755125Y2431201D1*
Y2413213D1*
X759785Y2412481D1*
X764097Y2411080D1*
X768138Y2409021D1*
X771807Y2406356D1*
X784080Y2394209D1*
X785005Y2393282D1*
X789222Y2395776D1*
X794643Y2398021D1*
X800351Y2399391D1*
X806201Y2399852D1*
X812051Y2399391D1*
X817759Y2398021D1*
X819835Y2397255D1*
X823457Y2401452D1*
X827920Y2405263D1*
X832924Y2408330D1*
X838345Y2410575D1*
X844053Y2411945D1*
X849903Y2412406D1*
X855753Y2411945D1*
X861461Y2410575D1*
X866882Y2408330D1*
X871886Y2405263D1*
X876349Y2401452D1*
X880160Y2396988D1*
X883227Y2391984D1*
X885473Y2386563D1*
X886843Y2380856D1*
X887303Y2375005D1*
X887227Y2373068D1*
X890684Y2370834D1*
X895147Y2367023D1*
X898958Y2362559D1*
X902025Y2357555D1*
X902260Y2357045D1*
X909801Y2357036D1*
X923805Y2371041D1*
Y2420998D1*
X1017912D1*
Y2330827D1*
X965314D1*
X940540Y2306159D1*
X936870Y2303494D1*
X932830Y2301435D1*
X930693Y2300647D1*
X930617Y2289562D1*
X934554Y2289550D1*
Y2285624D1*
X951965Y2285516D1*
X956816Y2284748D1*
X961488Y2283230D1*
X965865Y2281000D1*
X969839Y2278112D1*
X973313Y2274638D1*
X976201Y2270664D1*
X978431Y2266288D1*
X979949Y2261616D1*
X980717Y2256764D1*
Y2251851D1*
X979949Y2246999D1*
X979281Y2244297D1*
X980428Y2239520D1*
X980814Y2234622D1*
X980428Y2229725D1*
X979225Y2224795D1*
X980428Y2219835D1*
X980814Y2214937D1*
X980428Y2210040D1*
X979225Y2205110D1*
X980428Y2200150D1*
X980814Y2195252D1*
X980428Y2190355D1*
X979225Y2185425D1*
X979727Y2183660D1*
X982824Y2182583D1*
X986865Y2180524D1*
X990534Y2177858D1*
X993742Y2174651D1*
X996407Y2170982D1*
X998466Y2166941D1*
X999866Y2162629D1*
X1000576Y2158150D1*
X1000666Y2140882D1*
Y2098793D1*
X1003654Y2094579D1*
X1006318Y2089349D1*
X1008131Y2083768D1*
X1009050Y2077971D1*
Y2072103D1*
X1008131Y2066306D1*
X1006318Y2060725D1*
X1003654Y2055495D1*
X1000205Y2050748D1*
X997849Y2048256D1*
X1213860Y2048255D1*
Y1958084D1*
X1153176D1*
X1153180Y1876843D1*
X1059072D1*
Y1958074D1*
X1012566Y1958084D1*
X1012570Y1876843D1*
X634117D1*
Y1958074D1*
X630992Y1958084D1*
Y2048255D1*
X776856D1*
X775267Y2050563D1*
X773208Y2054604D1*
X771807Y2058916D1*
X771097Y2063395D1*
X771008Y2076659D1*
X769966Y2081103D1*
X769580Y2086009D1*
X769554Y2100954D1*
X745958D1*
Y2144255D1*
X731004Y2144261D1*
X726107Y2144647D1*
X721330Y2145794D1*
X718981Y2146664D1*
X712167Y2146663D1*
X711288Y2141221D1*
X709474Y2135639D1*
X706810Y2130410D1*
X703361Y2125663D1*
X699210Y2121512D1*
X694463Y2118063D1*
X689234Y2115399D1*
X683652Y2113586D1*
X677856Y2112667D1*
X671987D1*
X666191Y2113586D1*
X660609Y2115399D1*
X655379Y2118063D1*
X651218Y2121051D1*
X606191D1*
X606210Y2065496D1*
X598339D1*
X598336Y1967071D1*
X492418D1*
Y1983498D1*
X487364Y1979911D1*
X484141Y1978105D1*
X480785Y1976558D1*
X477319Y1975280D1*
X473763Y1974277D1*
X470139Y1973557D1*
X466470Y1973122D1*
X457778Y1972977D1*
X435219D1*
X431528Y1973122D1*
X427858Y1973557D1*
X423693Y1974429D1*
X423701Y570009D1*
X430484Y575723D1*
X438688Y581436D1*
X440114Y582284D1*
X425792Y582288D1*
Y786828D1*
X536592D1*
Y786613D1*
X600778Y786601D1*
X600773Y786828D1*
X711574D1*
Y782316D1*
X721541Y782310D1*
X721550Y819441D1*
X549664Y991446D1*
X547045Y995053D1*
X545023Y999023D1*
X543645Y1003261D1*
X542948Y1007663D1*
X542860Y1024891D1*
Y1102996D1*
X510427Y1102999D1*
X510377Y1414222D1*
X508131Y1419643D1*
X506761Y1425351D1*
X506301Y1431201D1*
X506761Y1437051D1*
X508131Y1442759D1*
X510377Y1448180D1*
X513444Y1453184D1*
X517255Y1457647D1*
X521718Y1461458D1*
X526722Y1464525D1*
X532143Y1466771D1*
X537851Y1468141D1*
X543701Y1468601D1*
X549551Y1468141D1*
X555259Y1466771D1*
X560680Y1464525D1*
X565684Y1461458D1*
X570147Y1457647D1*
X573958Y1453184D1*
X577025Y1448180D1*
X579271Y1442759D1*
X580641Y1437051D1*
X581101Y1431201D1*
X580641Y1425351D1*
X579271Y1419643D1*
X577025Y1414222D1*
X576975Y1391201D1*
Y1271924D1*
X659652Y1271910D1*
X703340D1*
Y1330755D1*
X693399Y1340841D1*
X690330Y1345066D1*
X687960Y1349718D1*
X686347Y1354684D1*
X685529Y1359841D1*
X685427Y1372452D1*
X685377Y1414222D1*
X683131Y1419643D1*
X681761Y1425351D1*
X681301Y1431201D1*
X681761Y1437051D1*
X683131Y1442759D1*
X685377Y1448180D1*
X688444Y1453184D1*
X692255Y1457647D1*
X696718Y1461458D1*
X701722Y1464525D1*
X707143Y1466771D1*
X712851Y1468141D1*
X718701Y1468601D1*
X724551Y1468141D1*
X730259Y1466771D1*
X735680Y1464525D1*
X740684Y1461458D1*
X745147Y1457647D1*
X748958Y1453184D1*
X752025Y1448180D1*
X754271Y1442759D1*
X755641Y1437051D1*
X756101Y1431201D1*
X755641Y1425351D1*
X754271Y1419643D1*
X752025Y1414222D1*
X751975Y1391201D1*
Y1376221D1*
X761916Y1366149D1*
X764986Y1361924D1*
X767356Y1357272D1*
X768969Y1352306D1*
X769786Y1347149D1*
X769889Y1334538D1*
Y1271890D1*
X786017Y1271910D1*
X785967Y1414222D1*
X783722Y1419643D1*
X782352Y1425351D1*
X781891Y1431201D1*
X782352Y1437051D1*
X783722Y1442759D1*
X785967Y1448180D1*
X789034Y1453184D1*
X792845Y1457647D1*
X797309Y1461458D1*
X802313Y1464525D1*
X807734Y1466771D1*
X813441Y1468141D1*
X819292Y1468601D1*
X825142Y1468141D1*
X830849Y1466771D1*
X836271Y1464525D1*
X841274Y1461458D1*
X845738Y1457647D1*
X849549Y1453184D1*
X852616Y1448180D1*
X854861Y1442759D1*
X856231Y1437051D1*
X856692Y1431201D1*
X856231Y1425351D1*
X854861Y1419643D1*
X852616Y1414222D1*
X852566Y1391201D1*
Y1355908D1*
X856201Y1356101D1*
X862051Y1355641D1*
X867759Y1354271D1*
X873180Y1352025D1*
X877927Y1349130D1*
X882919Y1352191D1*
X888340Y1354436D1*
X894047Y1355806D1*
X899898Y1356267D1*
X905748Y1355806D1*
X911456Y1354436D1*
X916877Y1352191D1*
X921881Y1349124D1*
X926167Y1345475D1*
X929389Y1347004D1*
X934970Y1348818D1*
X940767Y1349736D1*
X946635D1*
X951362Y1349030D1*
X951372Y1408646D1*
X949313Y1411659D1*
X946649Y1416889D1*
X944835Y1422470D1*
X943916Y1428267D1*
Y1434135D1*
X944835Y1439932D1*
X946649Y1445513D1*
X949313Y1450743D1*
X952761Y1455490D1*
X956912Y1459641D1*
X961659Y1463089D1*
X966889Y1465753D1*
X972470Y1467567D1*
X978267Y1468486D1*
X984135D1*
X989932Y1467567D1*
X995513Y1465753D1*
X998271Y1464474D1*
X1346311Y1464373D1*
X1351469Y1463555D1*
X1356435Y1461942D1*
X1361087Y1459572D1*
X1365311Y1456503D1*
X1369003Y1452811D1*
X1372072Y1448587D1*
X1374442Y1443935D1*
X1376055Y1438969D1*
X1376873Y1433811D1*
X1376975Y1421201D1*
X1376873Y1185631D1*
X1376188Y1176910D1*
Y1102999D1*
X1348864D1*
X1348900Y904429D1*
X1351146Y899008D1*
X1352516Y893301D1*
X1352977Y887450D1*
X1352516Y881600D1*
X1351778Y878134D1*
X1355588Y875284D1*
X1359739Y871133D1*
X1363188Y866386D1*
X1365852Y861156D1*
X1367666Y855575D1*
X1368584Y849778D1*
Y843910D1*
X1367666Y838113D1*
X1365852Y832532D1*
X1364572Y829774D1*
X1364574Y790769D1*
X1434572Y790755D1*
X1436700Y794715D1*
X1440149Y799462D1*
X1444299Y803613D1*
X1449046Y807062D1*
X1454276Y809726D1*
X1459857Y811540D1*
X1465654Y812458D1*
X1471523D1*
X1477319Y811540D1*
X1482900Y809726D1*
X1488130Y807062D1*
X1492877Y803613D1*
X1497028Y799462D1*
X1500477Y794715D1*
X1503141Y789486D1*
X1504154Y786742D1*
X1509860Y786750D1*
Y778761D1*
X1513273Y781433D1*
X1517347Y784155D1*
X1521621Y786549D1*
X1526071Y788600D1*
X1530668Y790297D1*
X1535383Y791626D1*
X1540189Y792582D1*
X1545054Y793158D1*
X1549950Y793351D1*
X1554847Y793158D1*
X1559711Y792582D1*
X1564904Y791517D1*
X1564906Y863786D1*
X1567074D1*
X1567083Y920034D1*
X1728120D1*
Y829864D1*
X1659023D1*
X1659013Y773616D1*
X1595478D1*
X1600433Y767628D1*
X1603155Y763554D1*
X1605549Y759280D1*
X1607600Y754830D1*
X1609297Y750232D1*
X1610626Y745517D1*
X1611582Y740711D1*
X1612158Y735847D1*
X1612351Y730950D1*
X1612158Y726054D1*
X1611582Y721189D1*
X1610626Y716383D1*
X1609297Y711668D1*
X1607600Y707071D1*
X1605549Y702621D1*
X1603155Y698347D1*
X1600433Y694273D1*
X1597399Y690425D1*
X1594074Y686827D1*
X1590475Y683502D1*
X1586628Y680467D1*
X1582554Y677746D1*
X1578280Y675352D1*
X1573830Y673301D1*
X1569232Y671604D1*
X1564517Y670274D1*
X1559711Y669319D1*
X1554847Y668743D1*
X1549950Y668550D1*
X1545054Y668743D1*
X1540189Y669319D1*
X1535383Y670274D1*
X1530668Y671604D1*
X1526071Y673301D1*
X1521621Y675352D1*
X1517347Y677746D1*
X1513320Y680436D1*
X1509848Y676969D1*
X1509860Y625713D1*
X1500700D1*
X1571546Y554748D1*
X1574166Y551142D1*
X1576189Y547172D1*
X1577566Y542933D1*
X1578263Y538532D1*
X1578351Y530503D1*
X1582554Y528155D1*
X1586628Y525433D1*
X1590475Y522399D1*
X1594074Y519074D1*
X1597399Y515475D1*
X1600433Y511628D1*
X1603155Y507554D1*
X1605549Y503280D1*
X1607600Y498830D1*
X1609297Y494232D1*
X1610626Y489517D1*
X1611582Y484711D1*
X1612158Y479847D1*
X1612351Y474950D1*
X1612158Y470054D1*
X1611582Y465189D1*
X1610626Y460383D1*
X1609297Y455668D1*
X1607600Y451071D1*
X1605549Y446621D1*
X1603155Y442347D1*
X1600433Y438273D1*
X1597399Y434425D1*
X1594074Y430827D1*
X1590475Y427502D1*
X1585466Y423692D1*
X1849776Y423701D1*
X1844843Y427502D1*
X1841244Y430827D1*
X1837919Y434425D1*
X1834885Y438273D1*
X1832163Y442347D1*
X1829769Y446621D1*
X1827718Y451071D1*
X1826280Y454967D1*
X1760967Y454962D1*
Y615999D1*
X1777667D1*
X1777652Y625697D1*
X1763474Y625713D1*
Y786750D1*
X1777634D1*
X1777613Y813378D1*
X1774164Y818125D1*
X1771500Y823355D1*
X1769687Y828936D1*
X1768768Y834732D1*
Y840601D1*
X1769687Y846398D1*
X1771500Y851979D1*
X1774164Y857209D1*
X1777613Y861956D1*
X1781764Y866107D1*
X1786511Y869555D1*
X1791740Y872219D1*
X1797322Y874033D1*
X1803118Y874952D1*
X1808987D1*
X1814784Y874033D1*
X1820365Y872219D1*
X1825595Y869555D1*
X1830341Y866107D1*
X1834492Y861956D1*
X1837941Y857209D1*
X1840605Y851979D1*
X1842419Y846398D1*
X1843337Y840601D1*
Y834732D1*
X1842419Y828936D1*
X1840605Y823355D1*
X1837941Y818125D1*
X1834453Y813335D1*
Y786750D1*
X1853645D1*
Y784698D1*
X1857038Y786549D1*
X1861488Y788600D1*
X1866086Y790297D1*
X1870801Y791626D1*
X1875607Y792582D1*
X1880471Y793158D1*
X1885368Y793351D1*
X1890264Y793158D1*
X1895129Y792582D1*
X1898226Y791966D1*
X1898239Y863786D1*
X1898454D1*
X1898467Y904963D1*
X1896114Y902761D1*
X1891368Y899313D1*
X1886138Y896649D1*
X1880557Y894835D1*
X1874760Y893916D1*
X1868891D1*
X1863095Y894835D1*
X1857513Y896649D1*
X1852284Y899313D1*
X1847537Y902761D1*
X1843386Y906912D1*
X1839937Y911659D1*
X1837273Y916889D1*
X1835460Y922470D1*
X1834541Y928267D1*
Y934135D1*
X1835460Y939932D1*
X1837273Y945513D1*
X1839937Y950743D1*
X1842172Y953950D1*
X1842167Y975495D1*
X1769726Y975481D1*
Y1023469D1*
X1737516Y1023467D1*
X1733925Y1022718D1*
X1728075Y1022257D1*
X1722225Y1022718D1*
X1718715Y1023469D1*
X1682990Y1023467D1*
Y1104948D1*
X1633429Y1055378D1*
X1633726Y1049954D1*
X1633574Y1046079D1*
X1633117Y1042226D1*
X1632361Y1038421D1*
X1631307Y1034689D1*
X1629965Y1031050D1*
X1628341Y1027528D1*
X1626446Y1024143D1*
X1624292Y1020918D1*
X1621890Y1017872D1*
X1619256Y1015024D1*
X1616408Y1012390D1*
X1613362Y1009988D1*
X1610137Y1007834D1*
X1606752Y1005939D1*
X1603230Y1004315D1*
X1599591Y1002973D1*
X1595858Y1001919D1*
X1592054Y1001163D1*
X1588201Y1000706D1*
X1584326Y1000554D1*
X1580450Y1000706D1*
X1576597Y1001163D1*
X1572793Y1001919D1*
X1569061Y1002973D1*
X1565421Y1004315D1*
X1561899Y1005939D1*
X1558515Y1007834D1*
X1555289Y1009988D1*
X1552243Y1012390D1*
X1549395Y1015024D1*
X1546761Y1017872D1*
X1544360Y1020918D1*
X1542205Y1024143D1*
X1540310Y1027528D1*
X1538687Y1031050D1*
X1537344Y1034689D1*
X1536290Y1038421D1*
X1535534Y1042226D1*
X1535078Y1046079D1*
X1534925Y1049954D1*
X1535078Y1053830D1*
X1535534Y1057683D1*
X1536290Y1061487D1*
X1537344Y1065219D1*
X1538687Y1068858D1*
X1540310Y1072381D1*
X1542205Y1075765D1*
X1544360Y1078991D1*
X1546761Y1082037D1*
X1549395Y1084885D1*
X1552243Y1087519D1*
X1555289Y1089920D1*
X1558515Y1092075D1*
X1561899Y1093970D1*
X1565421Y1095593D1*
X1569061Y1096936D1*
X1572793Y1097990D1*
X1576597Y1098746D1*
X1580450Y1099202D1*
X1584326Y1099355D1*
X1588201Y1099202D1*
X1594565Y1098247D1*
X1655862Y1159427D1*
X1659532Y1162092D1*
X1663572Y1164151D1*
X1667885Y1165551D1*
X1672364Y1166261D1*
X1682971Y1166351D1*
X1682990Y1189988D1*
X1606931Y1190066D1*
X1602452Y1190776D1*
X1598130Y1192180D1*
X1592054Y1191163D1*
X1588201Y1190706D1*
X1584326Y1190554D1*
X1580450Y1190706D1*
X1576597Y1191163D1*
X1572793Y1191919D1*
X1569061Y1192973D1*
X1565421Y1194315D1*
X1561899Y1195939D1*
X1558515Y1197834D1*
X1555289Y1199988D1*
X1552243Y1202390D1*
X1549395Y1205024D1*
X1546761Y1207872D1*
X1544360Y1210918D1*
X1542205Y1214143D1*
X1540310Y1217528D1*
X1538687Y1221050D1*
X1537344Y1224689D1*
X1536290Y1228421D1*
X1535534Y1232226D1*
X1535078Y1236079D1*
X1534925Y1239954D1*
X1535078Y1243830D1*
X1535534Y1247683D1*
X1536290Y1251487D1*
X1537344Y1255219D1*
X1538687Y1258858D1*
X1540310Y1262381D1*
X1542205Y1265765D1*
X1544360Y1268991D1*
X1546761Y1272037D1*
X1549395Y1274885D1*
X1552243Y1277519D1*
X1555289Y1279920D1*
X1558515Y1282075D1*
X1561899Y1283970D1*
X1565421Y1285593D1*
X1569061Y1286936D1*
X1572793Y1287990D1*
X1576597Y1288746D1*
X1580450Y1289202D1*
X1584326Y1289355D1*
X1588201Y1289202D1*
X1592054Y1288746D1*
X1596806Y1287722D1*
X1597256Y1293470D1*
X1598626Y1299177D1*
X1600872Y1304599D1*
X1603939Y1309603D1*
X1607750Y1314066D1*
X1612213Y1317877D1*
X1617217Y1320944D1*
X1622638Y1323189D1*
X1628345Y1324559D1*
X1634196Y1325020D1*
X1640046Y1324559D1*
X1645753Y1323189D1*
X1651175Y1320944D1*
X1656179Y1317877D1*
X1660642Y1314066D1*
X1664453Y1309603D1*
X1667520Y1304599D1*
X1669765Y1299177D1*
X1671135Y1293470D1*
X1671393Y1291294D1*
X1680526Y1282160D1*
X1682990Y1286702D1*
Y1335810D1*
X1773160D1*
Y1334502D1*
X1789376Y1334504D1*
X1787941Y1338058D1*
X1786882Y1342467D1*
X1786526Y1346988D1*
Y1355601D1*
X1718562Y1355584D1*
X1714041Y1355940D1*
X1709631Y1356999D1*
X1705441Y1358734D1*
X1701575Y1361104D1*
X1698126Y1364049D1*
X1659089Y1403211D1*
X1656424Y1406881D1*
X1655313Y1408868D1*
X1653868Y1410798D1*
X1618264D1*
Y1520654D1*
X1695120D1*
X1704729Y1530259D1*
X1704723Y1575285D1*
X1542688Y1575280D1*
X1542702Y1520651D1*
X1617883Y1520654D1*
Y1410798D1*
X1492280D1*
X1492219Y1487717D1*
X1485356Y1494580D1*
X1452532Y1494571D1*
Y1655608D1*
X1492278D1*
X1492280Y1699853D1*
X1484732Y1696855D1*
X1480017Y1695525D1*
X1475211Y1694570D1*
X1470347Y1693994D1*
X1465450Y1693801D1*
X1460554Y1693994D1*
X1455689Y1694570D1*
X1450883Y1695525D1*
X1446168Y1696855D1*
X1441571Y1698551D1*
X1437121Y1700603D1*
X1432847Y1702996D1*
X1428773Y1705718D1*
X1424925Y1708752D1*
X1421327Y1712078D1*
X1418002Y1715676D1*
X1414967Y1719524D1*
X1412246Y1723597D1*
X1409852Y1727872D1*
X1407801Y1732322D1*
X1406104Y1736919D1*
X1404774Y1741634D1*
X1403819Y1746440D1*
X1403243Y1751305D1*
X1403050Y1756201D1*
X1403243Y1761097D1*
X1403819Y1765962D1*
X1404774Y1770768D1*
X1406104Y1775483D1*
X1407801Y1780080D1*
X1409852Y1784530D1*
X1412246Y1788805D1*
X1414967Y1792878D1*
X1418002Y1796726D1*
X1421327Y1800324D1*
X1424925Y1803650D1*
X1428773Y1806684D1*
X1432847Y1809406D1*
X1436537Y1811473D1*
X1436639Y1817718D1*
X1437349Y1822197D1*
X1438750Y1826509D1*
X1440809Y1830550D1*
X1443474Y1834219D1*
X1455621Y1846492D1*
X1517369Y1908240D1*
X1517268Y1916765D1*
X1482009Y1952024D1*
X1475211Y1950570D1*
X1470347Y1949994D1*
X1465450Y1949801D1*
X1460554Y1949994D1*
X1455689Y1950570D1*
X1450883Y1951525D1*
X1446168Y1952855D1*
X1441571Y1954551D1*
X1437121Y1956603D1*
X1432847Y1958996D1*
X1428773Y1961718D1*
X1424925Y1964752D1*
X1421327Y1968078D1*
X1418002Y1971676D1*
X1414967Y1975524D1*
X1412246Y1979597D1*
X1409852Y1983872D1*
X1407801Y1988322D1*
X1406104Y1992919D1*
X1404774Y1997634D1*
X1403819Y2002440D1*
X1403243Y2007305D1*
X1403050Y2012201D1*
X1403243Y2017097D1*
X1403819Y2021962D1*
X1404774Y2026768D1*
X1406104Y2031483D1*
X1407801Y2036080D1*
X1408849Y2038357D1*
X1344117Y2038366D1*
X1346797Y2031483D1*
X1348126Y2026768D1*
X1349082Y2021962D1*
X1349658Y2017097D1*
X1349851Y2012201D1*
X1349658Y2007305D1*
X1349082Y2002440D1*
X1348126Y1997634D1*
X1346797Y1992919D1*
X1345100Y1988322D1*
X1343049Y1983872D1*
X1340655Y1979597D1*
X1337933Y1975524D1*
X1334899Y1971676D1*
X1331574Y1968078D1*
X1327975Y1964752D1*
X1324128Y1961718D1*
X1320054Y1958996D1*
X1315780Y1956603D1*
X1311330Y1954551D1*
X1306732Y1952855D1*
X1302017Y1951525D1*
X1297211Y1950570D1*
X1292347Y1949994D1*
X1287450Y1949801D1*
X1282554Y1949994D1*
X1277689Y1950570D1*
X1272883Y1951525D1*
X1268168Y1952855D1*
X1263571Y1954551D1*
X1259121Y1956603D1*
X1254847Y1958996D1*
X1250773Y1961718D1*
X1246925Y1964752D1*
X1243327Y1968078D1*
X1240002Y1971676D1*
X1236967Y1975524D1*
X1234246Y1979597D1*
X1231852Y1983872D1*
X1229801Y1988322D1*
X1228104Y1992919D1*
X1226774Y1997634D1*
X1225819Y2002440D1*
X1225243Y2007305D1*
X1225050Y2012201D1*
X1225243Y2017097D1*
X1225819Y2021962D1*
X1226774Y2026768D1*
X1228104Y2031483D1*
X1229801Y2036080D1*
X1231852Y2040530D1*
X1234246Y2044805D1*
X1236967Y2048878D1*
X1240002Y2052726D1*
X1243327Y2056324D1*
X1246925Y2059650D1*
X1250773Y2062684D1*
X1254847Y2065406D1*
X1259121Y2067799D1*
X1263571Y2069851D1*
X1268168Y2071547D1*
X1272883Y2072877D1*
X1277689Y2073832D1*
X1282554Y2074408D1*
X1287450Y2074601D1*
X1292347Y2074408D1*
X1296889Y2073872D1*
X1296904Y2128537D1*
X1359268D1*
X1359253Y2189666D1*
X1198059Y2189654D1*
Y2192916D1*
X1101273Y2192907D1*
Y2196638D1*
X1017366Y2196647D1*
Y2290755D1*
X1101293D1*
X1101273Y2294889D1*
X1211129D1*
Y2291626D1*
X1407906Y2291635D1*
Y2213960D1*
X1453361Y2213957D1*
Y2128546D1*
X1457941Y2128537D1*
Y2074142D1*
X1465450Y2074601D1*
X1470347Y2074408D1*
X1475211Y2073832D1*
X1480017Y2072877D1*
X1484732Y2071547D1*
X1489330Y2069851D1*
X1493780Y2067799D1*
X1498054Y2065406D1*
X1502128Y2062684D1*
X1505975Y2059650D1*
X1509574Y2056324D1*
X1512899Y2052726D1*
X1515933Y2048878D1*
X1518655Y2044805D1*
X1521049Y2040530D1*
X1523100Y2036080D1*
X1524797Y2031483D1*
X1526126Y2026768D1*
X1527082Y2021962D1*
X1527658Y2017097D1*
X1527851Y2012201D1*
X1527658Y2007305D1*
X1527082Y2002440D1*
X1526126Y1997634D1*
X1524273Y1991500D1*
X1556278Y1959495D1*
X1676286Y1959505D1*
Y1865398D1*
X1607555D1*
X1607537Y1798469D1*
X1517366D1*
Y1826496D1*
X1499429Y1808558D1*
X1505975Y1803650D1*
X1509574Y1800324D1*
X1512899Y1796726D1*
X1515933Y1792878D1*
X1518655Y1788805D1*
X1521049Y1784530D1*
X1523100Y1780080D1*
X1524797Y1775483D1*
X1526126Y1770768D1*
X1527082Y1765962D1*
X1527658Y1761097D1*
X1527851Y1756201D1*
X1527658Y1751305D1*
X1527082Y1746440D1*
X1526126Y1741634D1*
X1524874Y1737194D1*
X1617883Y1737189D1*
Y1641818D1*
X1618264Y1642334D1*
Y1737189D1*
X1743868D1*
Y1657834D1*
X1782166Y1657826D1*
X1782152Y1690440D1*
X1780414Y1693033D1*
X1777750Y1698263D1*
X1775936Y1703844D1*
X1775017Y1709641D1*
Y1715509D1*
X1775936Y1721306D1*
X1777750Y1726887D1*
X1780414Y1732117D1*
X1783862Y1736864D1*
X1788013Y1741015D1*
X1792760Y1744463D1*
X1797990Y1747128D1*
X1803571Y1748941D1*
X1809368Y1749860D1*
X1815236D1*
X1821033Y1748941D1*
X1824236Y1748005D1*
X1765767Y1806416D1*
X1759970Y1807335D1*
X1754389Y1809149D1*
X1749159Y1811813D1*
X1744412Y1815261D1*
X1740261Y1819412D1*
X1736813Y1824159D1*
X1734149Y1829389D1*
X1732335Y1834970D1*
X1731416Y1840767D1*
Y1846635D1*
X1732335Y1852432D1*
X1734149Y1858013D1*
X1736813Y1863243D1*
X1740261Y1867990D1*
X1744050Y1871806D1*
X1740117Y1875767D1*
X1736668Y1880513D1*
X1734004Y1885743D1*
X1732191Y1891324D1*
X1731272Y1897121D1*
Y1902990D1*
X1732191Y1908786D1*
X1734004Y1914368D1*
X1736668Y1919597D1*
X1740117Y1924344D1*
X1744268Y1928495D1*
X1749015Y1931944D1*
X1754244Y1934608D1*
X1759826Y1936421D1*
X1765622Y1937340D1*
X1767215Y1937403D1*
X1767217Y2005167D1*
X1857387D1*
Y1960068D1*
X1962631Y1854841D1*
X1966023Y1850870D1*
X1968750Y1846419D1*
X1970748Y1841595D1*
X1971967Y1836517D1*
X1972377Y1831302D1*
Y1807660D1*
X1986156Y1807655D1*
Y1755681D1*
X2021789Y1720047D1*
X2021757Y1888163D1*
X2018309Y1892910D1*
X2015645Y1898139D1*
X2013831Y1903721D1*
X2012912Y1909517D1*
Y1915386D1*
X2013831Y1921183D1*
X2015645Y1926764D1*
X2018309Y1931994D1*
X2021757Y1936740D1*
X2025908Y1940891D1*
X2030655Y1944340D1*
X2035885Y1947004D1*
X2041466Y1948818D1*
X2047263Y1949736D1*
X2053131D1*
X2058928Y1948818D1*
X2064509Y1947004D1*
X2069739Y1944340D1*
X2074529Y1940852D1*
X2325373D1*
X2346355Y1961826D1*
X2346431Y2064767D1*
X2347128Y2069168D1*
X2348504Y2073407D1*
X2350528Y2077377D1*
X2353147Y2080983D1*
X2365268Y2093227D1*
X2758803Y2486761D1*
X2758887Y2533177D1*
X2759584Y2537579D1*
X2760961Y2541818D1*
X2762984Y2545788D1*
X2765604Y2549394D1*
X2777725Y2561638D1*
X2790361Y2574274D1*
X2789450Y2578857D1*
X2788942Y2583141D1*
X2788773Y2587450D1*
X2788942Y2591760D1*
X2789450Y2596044D1*
X2790292Y2600273D1*
X2791462Y2604424D1*
X2792954Y2608470D1*
X2794760Y2612387D1*
X2796868Y2616150D1*
X2799264Y2619736D1*
X2801933Y2623124D1*
X2804861Y2626290D1*
X2808028Y2629218D1*
X2811415Y2631887D1*
X2815002Y2634284D1*
X2818764Y2636391D1*
X2822681Y2638197D1*
X2826727Y2639689D1*
X2830878Y2640860D1*
X2835108Y2641701D1*
X2839391Y2642209D1*
X2843701Y2642378D1*
X2848011Y2642209D1*
X2852294Y2641701D1*
X2856524Y2640860D1*
X2860675Y2639689D1*
X2864721Y2638197D1*
X2868638Y2636391D1*
X2872400Y2634284D1*
X2875987Y2631887D1*
X2879374Y2629218D1*
X2882541Y2626290D1*
X2885469Y2623124D1*
X2888138Y2619736D1*
X2890534Y2616150D1*
X2893679Y2610138D1*
X2896868Y2616150D1*
X2899264Y2619736D1*
X2901933Y2623124D1*
X2904861Y2626290D1*
X2909629Y2630479D1*
X2855638Y2684610D1*
X2852568Y2688835D1*
X2850198Y2693487D1*
X2848586Y2698453D1*
X2847768Y2703610D1*
X2847666Y2716221D1*
Y2820537D1*
X2832788Y2835428D1*
X2666900Y2835429D1*
X2671315Y2830897D1*
X2676125Y2830330D1*
X2730232D1*
Y2829411D1*
X2815261Y2829419D1*
Y2664248D1*
X2721154D1*
Y2667393D1*
X2599525Y2667385D1*
X2597698Y2664530D1*
X2594798Y2661135D1*
X2580668Y2647129D1*
X2577062Y2644509D1*
X2573092Y2642486D1*
X2568853Y2641109D1*
X2564452Y2640412D1*
X2547223Y2640324D1*
X2284992Y2640412D1*
X2280591Y2641109D1*
X2276352Y2642486D1*
X2272382Y2644509D1*
X2268776Y2647129D1*
X2256532Y2659250D1*
X2245912Y2669870D1*
X2175891Y2669883D1*
Y2780054D1*
X2286062D1*
Y2756870D1*
X2289089Y2760743D1*
X2292025Y2763920D1*
X2295202Y2766856D1*
X2298599Y2769533D1*
X2302194Y2771936D1*
X2307918Y2774948D1*
X2302194Y2778002D1*
X2298599Y2780404D1*
X2295202Y2783082D1*
X2292025Y2786017D1*
X2289089Y2789194D1*
X2286412Y2792591D1*
X2284009Y2796187D1*
X2281895Y2799961D1*
X2280084Y2803889D1*
X2278588Y2807946D1*
X2277414Y2812109D1*
X2276570Y2816352D1*
X2276062Y2820647D1*
X2275891Y2824969D1*
X2276062Y2829290D1*
X2276936Y2835425D1*
X2138815Y2835429D1*
X2138818Y2732023D1*
X2141900Y2728449D1*
X2144271Y2724583D1*
X2146005Y2720393D1*
X2147065Y2715983D1*
X2147420Y2711462D1*
Y2692458D1*
X2150408Y2688267D1*
X2153072Y2683037D1*
X2154886Y2677456D1*
X2155805Y2671659D1*
Y2665790D1*
X2154886Y2659994D1*
X2153072Y2654412D1*
X2150408Y2649183D1*
X2146960Y2644436D1*
X2142809Y2640285D1*
X2138062Y2636836D1*
X2132832Y2634172D1*
X2128542Y2632722D1*
X2207351Y2632723D1*
Y2564344D1*
X2210446Y2565792D1*
X2216028Y2567605D1*
X2221824Y2568524D1*
X2227693D1*
X2233731Y2568450D1*
X2358272D1*
Y2444028D1*
X2228731Y2444047D1*
X2228162Y2443512D1*
Y2361891D1*
X2228731Y2364028D1*
Y2418450D1*
X2290567Y2418540D1*
X2296436D1*
X2303731Y2418450D1*
X2358272D1*
Y2365852D1*
X2420929Y2365764D1*
X2425331Y2365067D1*
X2429570Y2363691D1*
X2433540Y2361667D1*
X2437146Y2359047D1*
X2438789Y2357528D1*
X2441330Y2359028D1*
Y2468450D1*
X2570870D1*
Y2461047D1*
X2573928Y2463138D1*
X2579158Y2465802D1*
X2584739Y2467616D1*
X2590536Y2468534D1*
X2596404D1*
X2602201Y2467616D1*
X2607782Y2465802D1*
X2613012Y2463138D1*
X2617759Y2459689D1*
X2621910Y2455538D1*
X2625358Y2450792D1*
X2628023Y2445562D1*
X2629836Y2439981D1*
X2630755Y2434184D1*
Y2428315D1*
X2629836Y2422519D1*
X2628023Y2416937D1*
X2625358Y2411708D1*
X2621910Y2406961D1*
X2617759Y2402810D1*
X2613012Y2399361D1*
X2608605Y2397076D1*
X2610292Y2392813D1*
X2611662Y2387105D1*
X2612122Y2381255D1*
X2611662Y2375404D1*
X2610292Y2369697D1*
X2608046Y2364276D1*
X2604979Y2359272D1*
X2601168Y2354809D1*
X2596705Y2350998D1*
X2591701Y2347931D1*
X2586280Y2345685D1*
X2580572Y2344315D1*
X2574722Y2343855D1*
X2570870Y2344028D1*
X2486515D1*
X2486508Y2258960D1*
X2421801D1*
X2421797Y2204933D1*
X2327689D1*
Y2258977D1*
X2325471Y2258960D1*
Y2309058D1*
X2305478Y2309051D1*
X2301284Y2304872D1*
X2301286Y2252898D1*
X2211116D1*
Y2298621D1*
X2178166Y2331696D1*
X2175546Y2335302D1*
X2173523Y2339272D1*
X2172146Y2343511D1*
X2171449Y2347912D1*
X2171361Y2365141D1*
Y2367230D1*
X2136650Y2367306D1*
X2132714Y2367929D1*
X2128923Y2369160D1*
X2124235Y2371591D1*
X2123267Y2366155D1*
Y2308110D1*
X2058715D1*
X2058700Y2270512D1*
X1948844D1*
Y2366588D1*
X2026794D1*
X2026797Y2406155D1*
X2057949D1*
X2057966Y2433595D1*
X2047509Y2433685D1*
X2043030Y2434395D1*
X2038709Y2435799D1*
X2034692Y2435995D1*
X2030055Y2435260D1*
X2017708Y2435168D1*
X1665853D1*
X1665851Y2366571D1*
X1752400Y2366588D1*
Y2270512D1*
X1665857D1*
X1665851Y2232666D1*
X1682536Y2232684D1*
Y2232547D1*
X1815753Y2232537D1*
Y2142366D1*
X1752921D1*
X1752924Y2086289D1*
X1658816D1*
Y2138574D1*
X1592365Y2138576D1*
Y2142385D1*
X1559146Y2142366D1*
X1559154Y2086289D1*
X1465046D1*
Y2142364D1*
X1459145Y2142366D1*
Y2232537D1*
X1592382D1*
X1592365Y2232684D1*
X1609065D1*
X1609050Y2599950D1*
X1609400Y2604393D1*
X1610440Y2608726D1*
X1612146Y2612844D1*
X1614474Y2616643D1*
X1617369Y2620032D1*
X1635502Y2638166D1*
X1635586Y2786066D1*
X1636320Y2790702D1*
X1637771Y2795168D1*
X1639902Y2799352D1*
X1642662Y2803150D1*
X1645982Y2806470D1*
X1649781Y2809230D1*
X1651839Y2810382D1*
X1653962Y2816089D1*
Y2835445D1*
X1576236Y2835429D1*
X1576219Y2721496D1*
X1510340D1*
X2229881Y1019784D2*
Y967563D1*
X2220525D1*
X2220435Y928797D1*
X2219617Y923639D1*
X2218004Y918673D1*
X2215634Y914021D1*
X2212565Y909797D1*
X2203719Y900807D1*
X2183876Y881108D1*
X2179651Y878038D1*
X2174999Y875668D1*
X2170033Y874055D1*
X2164876Y873238D1*
X2152265Y873135D1*
X2084663Y873238D1*
X2079505Y874055D1*
X2074540Y875668D1*
X2069887Y878038D1*
X2065663Y881108D1*
X2059505Y887121D1*
X2059504Y829865D1*
X1992336D1*
X1992347Y773616D1*
X1930920D1*
X1935851Y767628D1*
X1938572Y763554D1*
X1940966Y759280D1*
X1943017Y754830D1*
X1944714Y750232D1*
X1946044Y745517D1*
X1946999Y740711D1*
X1947575Y735847D1*
X1947768Y730950D1*
X1947575Y726054D1*
X1946999Y721189D1*
X1946044Y716383D1*
X1944714Y711668D1*
X1943017Y707071D1*
X1940966Y702621D1*
X1938572Y698347D1*
X1935851Y694273D1*
X1932816Y690425D1*
X1929491Y686827D1*
X1925893Y683502D1*
X1922045Y680467D1*
X1917971Y677746D1*
X1913697Y675352D1*
X1909247Y673301D1*
X1904650Y671604D1*
X1899935Y670274D1*
X1895129Y669319D1*
X1890264Y668743D1*
X1885368Y668550D1*
X1880471Y668743D1*
X1875607Y669319D1*
X1870801Y670274D1*
X1866086Y671604D1*
X1861488Y673301D1*
X1857038Y675352D1*
X1853815Y677156D1*
X1853645Y669820D1*
Y643668D1*
X1868179Y643599D1*
X1872580Y642902D1*
X1876819Y641525D1*
X1880789Y639502D1*
X1884395Y636882D1*
X1896639Y624761D1*
X1908890Y612387D1*
X1911509Y608781D1*
X1913533Y604811D1*
X1914910Y600572D1*
X1915607Y596171D1*
X1915694Y578942D1*
Y529470D1*
X1922045Y525433D1*
X1925893Y522399D1*
X1929491Y519074D1*
X1932816Y515475D1*
X1935851Y511628D1*
X1938572Y507554D1*
X1940966Y503280D1*
X1943017Y498830D1*
X1944714Y494232D1*
X1946044Y489517D1*
X1946999Y484711D1*
X1947575Y479847D1*
X1947768Y474950D1*
X1947575Y470054D1*
X1946999Y465189D1*
X1946044Y460383D1*
X1944714Y455668D1*
X1943017Y451071D1*
X1940966Y446621D1*
X1938572Y442347D1*
X1935851Y438273D1*
X1932816Y434425D1*
X1929491Y430827D1*
X1925893Y427502D1*
X1920883Y423692D1*
X2185166Y423701D1*
X2180259Y427502D1*
X2176660Y430827D1*
X2173335Y434425D1*
X2170301Y438273D1*
X2167579Y442347D1*
X2165185Y446621D1*
X2163134Y451071D1*
X2161437Y455668D1*
X2160108Y460383D1*
X2159152Y465189D1*
X2158576Y470054D1*
X2158383Y474950D1*
X2158576Y479847D1*
X2159152Y484711D1*
X2160108Y489517D1*
X2161412Y494141D1*
X2120078Y535616D1*
X2117458Y539222D1*
X2115435Y543192D1*
X2114058Y547431D1*
X2113361Y551832D1*
X2113273Y569061D1*
Y606971D1*
X2096588Y606961D1*
Y767998D1*
X2115124D1*
X2115078Y807129D1*
X2111629Y811876D1*
X2108965Y817105D1*
X2107151Y822687D1*
X2106232Y828483D1*
Y834352D1*
X2107151Y840149D1*
X2108965Y845730D1*
X2111629Y850960D1*
X2115078Y855706D1*
X2119229Y859857D1*
X2123975Y863306D1*
X2129205Y865970D1*
X2134786Y867784D1*
X2140583Y868702D1*
X2146452D1*
X2152248Y867784D1*
X2157830Y865970D1*
X2163059Y863306D1*
X2167806Y859857D1*
X2171957Y855706D1*
X2175406Y850960D1*
X2178070Y845730D1*
X2179883Y840149D1*
X2180802Y834352D1*
Y828483D1*
X2179883Y822687D1*
X2178070Y817105D1*
X2175406Y811876D1*
X2171918Y807086D1*
Y769757D1*
X2176660Y775074D1*
X2180259Y778399D1*
X2184107Y781433D1*
X2188180Y784155D1*
X2192454Y786549D1*
X2196904Y788600D1*
X2201502Y790297D1*
X2206217Y791626D1*
X2211023Y792582D1*
X2215887Y793158D1*
X2220784Y793351D1*
X2225680Y793158D1*
X2231578Y792377D1*
X2231571Y829847D1*
X2225505Y829864D1*
Y920034D1*
X2273377D1*
X2264441Y929096D1*
X2261776Y932765D1*
X2259717Y936806D1*
X2258316Y941118D1*
X2257607Y945597D1*
X2257517Y962865D1*
Y1054760D1*
X2236070Y1054767D1*
X2235990Y1035271D1*
X2235293Y1030869D1*
X2233916Y1026630D1*
X2231893Y1022660D1*
X2230649Y1020799D1*
X1155492Y692139D2*
X1121078D1*
X1121093Y636116D1*
X1031230D1*
X1031214Y609588D1*
X1041412Y609580D1*
X1044574Y610764D1*
X1050281Y612134D1*
X1056131Y612595D1*
X1061982Y612134D1*
X1067689Y610764D1*
X1070809Y609579D1*
X1094643Y609580D1*
Y575693D1*
X1096649Y578340D1*
X1108795Y590613D1*
X1133986Y615677D1*
X1137655Y618343D1*
X1141696Y620402D1*
X1146008Y621802D1*
X1150487Y622512D1*
X1167755Y622601D1*
X1189923D1*
X1189904Y628944D1*
X1311571D1*
Y595486D1*
X1345036Y595479D1*
Y513183D1*
X1331265D1*
X1331256Y460033D1*
X1307994D1*
X1306966Y457051D1*
X1304907Y453011D1*
X1302242Y449341D1*
X1294803Y441778D1*
X1293957Y436705D1*
X1292143Y431124D1*
X1289479Y425894D1*
X1288020Y423710D1*
X1514345Y423701D1*
X1509425Y427502D1*
X1505827Y430827D1*
X1502502Y434425D1*
X1499467Y438273D1*
X1496746Y442347D1*
X1494352Y446621D1*
X1491538Y453135D1*
X1417253Y453149D1*
Y614185D1*
X1433953D1*
X1433939Y623924D1*
X1429860Y625713D1*
X1419689D1*
Y629717D1*
X1354865Y629718D1*
Y692121D1*
X1311420Y692139D1*
X1311424Y635883D1*
X1217316D1*
Y636099D1*
X1155567Y636116D1*
X1155482Y692159D1*
X2917411Y423713D2*
X2913124Y428652D1*
X2907227Y436725D1*
X2902137Y445327D1*
X2897900Y454381D1*
X2894555Y463801D1*
X2892134Y473499D1*
X2890659Y483386D1*
X2890145Y493369D1*
X2890596Y503355D1*
X2892007Y513251D1*
X2894365Y522965D1*
X2897650Y532406D1*
X2901828Y541486D1*
X2906864Y550122D1*
X2912709Y558231D1*
X2919307Y565739D1*
X2926600Y572576D1*
X2934517Y578679D1*
X2942986Y583990D1*
X2951928Y588458D1*
X2961259Y592045D1*
X2970891Y594714D1*
X2980736Y596442D1*
X2990704Y597214D1*
X3000697Y597021D1*
X3010626Y595865D1*
X3020398Y593757D1*
X3029920Y590717D1*
X3039105Y586773D1*
X3047868Y581961D1*
X3056125Y576328D1*
X3063698Y570015D1*
X3063701Y2717393D1*
X3056654Y2711477D1*
X3048433Y2705790D1*
X3039701Y2700923D1*
X3030542Y2696919D1*
X3021040Y2693818D1*
X3011281Y2691647D1*
X3001360Y2690428D1*
X2991368Y2690171D1*
X2981397Y2690878D1*
X2971540Y2692544D1*
X2961890Y2695151D1*
X2952537Y2698677D1*
X2943566Y2703089D1*
X2935063Y2708345D1*
X2927108Y2714397D1*
X2919772Y2721187D1*
X2914223Y2727357D1*
X2914214Y2720016D1*
X2967230Y2666988D1*
X2970620Y2663017D1*
X2973348Y2658566D1*
X2975347Y2653742D1*
X2976566Y2648664D1*
X2976975Y2643460D1*
Y2631135D1*
X2979374Y2629218D1*
X2982541Y2626290D1*
X2985469Y2623124D1*
X2988138Y2619736D1*
X2990534Y2616150D1*
X2992642Y2612387D1*
X2994448Y2608470D1*
X2995940Y2604424D1*
X2997110Y2600273D1*
X2997952Y2596044D1*
X2998460Y2591760D1*
X2998629Y2587450D1*
X2998460Y2583141D1*
X2997952Y2578857D1*
X2997110Y2574628D1*
X2995940Y2570477D1*
X2994448Y2566431D1*
X2992642Y2562513D1*
X2990534Y2558751D1*
X2988138Y2555164D1*
X2985469Y2551777D1*
X2982541Y2548610D1*
X2979374Y2545683D1*
X2975987Y2543013D1*
X2972400Y2540617D1*
X2968638Y2538509D1*
X2964721Y2536704D1*
X2960675Y2535211D1*
X2956524Y2534041D1*
X2952294Y2533200D1*
X2948011Y2532692D1*
X2943701Y2532523D1*
X2939391Y2532692D1*
X2935108Y2533200D1*
X2930878Y2534041D1*
X2926727Y2535211D1*
X2922681Y2536704D1*
X2918764Y2538509D1*
X2915002Y2540617D1*
X2911415Y2543013D1*
X2908028Y2545683D1*
X2904861Y2548610D1*
X2901933Y2551777D1*
X2899264Y2555164D1*
X2896868Y2558751D1*
X2893723Y2564763D1*
X2890534Y2558751D1*
X2888138Y2555164D1*
X2885469Y2551777D1*
X2882541Y2548610D1*
X2879374Y2545683D1*
X2875987Y2543013D1*
X2872400Y2540617D1*
X2866389Y2537473D1*
X2872400Y2534284D1*
X2875987Y2531887D1*
X2879374Y2529218D1*
X2882541Y2526290D1*
X2885469Y2523124D1*
X2888138Y2519736D1*
X2890534Y2516150D1*
X2892642Y2512387D1*
X2894448Y2508470D1*
X2895940Y2504424D1*
X2897110Y2500273D1*
X2897952Y2496044D1*
X2898460Y2491760D1*
X2898629Y2487450D1*
X2898460Y2483141D1*
X2897952Y2478857D1*
X2897110Y2474628D1*
X2895940Y2470477D1*
X2894448Y2466431D1*
X2892642Y2462513D1*
X2890534Y2458751D1*
X2888138Y2455164D1*
X2885469Y2451777D1*
X2882541Y2448610D1*
X2879374Y2445683D1*
X2875987Y2443013D1*
X2872400Y2440617D1*
X2866389Y2437473D1*
X2872400Y2434284D1*
X2875987Y2431887D1*
X2879374Y2429218D1*
X2882541Y2426290D1*
X2885469Y2423124D1*
X2888138Y2419736D1*
X2890534Y2416150D1*
X2893679Y2410138D1*
X2896868Y2416150D1*
X2899264Y2419736D1*
X2901933Y2423124D1*
X2904861Y2426290D1*
X2908028Y2429218D1*
X2911415Y2431887D1*
X2915002Y2434284D1*
X2918764Y2436391D1*
X2922681Y2438197D1*
X2926727Y2439689D1*
X2930878Y2440860D1*
X2935108Y2441701D1*
X2939391Y2442209D1*
X2943701Y2442378D1*
X2948011Y2442209D1*
X2952294Y2441701D1*
X2956524Y2440860D1*
X2960675Y2439689D1*
X2964721Y2438197D1*
X2968638Y2436391D1*
X2972400Y2434284D1*
X2975987Y2431887D1*
X2979374Y2429218D1*
X2982541Y2426290D1*
X2985469Y2423124D1*
X2988138Y2419736D1*
X2990534Y2416150D1*
X2992642Y2412387D1*
X2994448Y2408470D1*
X2995940Y2404424D1*
X2997110Y2400273D1*
X2997952Y2396044D1*
X2998460Y2391760D1*
X2998629Y2387450D1*
X2998460Y2383141D1*
X2997952Y2378857D1*
X2997110Y2374628D1*
X2995940Y2370477D1*
X2994448Y2366431D1*
X2992642Y2362513D1*
X2990534Y2358751D1*
X2988138Y2355164D1*
X2985469Y2351777D1*
X2982541Y2348610D1*
X2979374Y2345683D1*
X2975987Y2343013D1*
X2972400Y2340617D1*
X2966389Y2337473D1*
X2972400Y2334284D1*
X2975987Y2331887D1*
X2979374Y2329218D1*
X2982541Y2326290D1*
X2985469Y2323124D1*
X2988138Y2319736D1*
X2990534Y2316150D1*
X2992642Y2312387D1*
X2994448Y2308470D1*
X2995940Y2304424D1*
X2997110Y2300273D1*
X2997952Y2296044D1*
X2998460Y2291760D1*
X2998629Y2287450D1*
X2998460Y2283141D1*
X2997952Y2278857D1*
X2997110Y2274628D1*
X2995940Y2270477D1*
X2994448Y2266431D1*
X2992642Y2262513D1*
X2990534Y2258751D1*
X2988138Y2255164D1*
X2985469Y2251777D1*
X2982541Y2248610D1*
X2979374Y2245683D1*
X2975987Y2243013D1*
X2972400Y2240617D1*
X2966389Y2237473D1*
X2972400Y2234284D1*
X2975987Y2231887D1*
X2979374Y2229218D1*
X2982541Y2226290D1*
X2985469Y2223124D1*
X2988138Y2219736D1*
X2990534Y2216150D1*
X2992642Y2212387D1*
X2994448Y2208470D1*
X2995940Y2204424D1*
X2997110Y2200273D1*
X2997952Y2196044D1*
X2998460Y2191760D1*
X2998629Y2187450D1*
X2998460Y2183141D1*
X2997952Y2178857D1*
X2997110Y2174628D1*
X2995940Y2170477D1*
X2994448Y2166431D1*
X2992642Y2162513D1*
X2990534Y2158751D1*
X2988138Y2155164D1*
X2985469Y2151777D1*
X2982541Y2148610D1*
X2979374Y2145683D1*
X2975987Y2143013D1*
X2972400Y2140617D1*
X2966389Y2137473D1*
X2972400Y2134284D1*
X2975987Y2131887D1*
X2979374Y2129218D1*
X2982541Y2126290D1*
X2985469Y2123124D1*
X2988138Y2119736D1*
X2990534Y2116150D1*
X2992642Y2112387D1*
X2994448Y2108470D1*
X2995940Y2104424D1*
X2997110Y2100273D1*
X2997952Y2096044D1*
X2998460Y2091760D1*
X2998629Y2087450D1*
X2998460Y2083141D1*
X2997952Y2078857D1*
X2997110Y2074628D1*
X2995940Y2070477D1*
X2994448Y2066431D1*
X2992642Y2062513D1*
X2990534Y2058751D1*
X2988138Y2055164D1*
X2985469Y2051777D1*
X2982541Y2048610D1*
X2979374Y2045683D1*
X2975987Y2043013D1*
X2972400Y2040617D1*
X2966389Y2037473D1*
X2972400Y2034284D1*
X2975987Y2031887D1*
X2979374Y2029218D1*
X2982541Y2026290D1*
X2985469Y2023124D1*
X2988138Y2019736D1*
X2990534Y2016150D1*
X2992642Y2012387D1*
X2994448Y2008470D1*
X2995940Y2004424D1*
X2997110Y2000273D1*
X2997952Y1996044D1*
X2998460Y1991760D1*
X2998629Y1987450D1*
X2998460Y1983141D1*
X2997952Y1978857D1*
X2997110Y1974628D1*
X2995940Y1970477D1*
X2994448Y1966431D1*
X2992642Y1962513D1*
X2990534Y1958751D1*
X2988138Y1955164D1*
X2985469Y1951777D1*
X2982541Y1948610D1*
X2979374Y1945683D1*
X2975987Y1943013D1*
X2972400Y1940617D1*
X2966389Y1937473D1*
X2972400Y1934284D1*
X2975987Y1931887D1*
X2979374Y1929218D1*
X2982541Y1926290D1*
X2985469Y1923124D1*
X2988138Y1919736D1*
X2990534Y1916150D1*
X2992642Y1912387D1*
X2994448Y1908470D1*
X2995940Y1904424D1*
X2997110Y1900273D1*
X2997952Y1896044D1*
X2998460Y1891760D1*
X2998629Y1887450D1*
X2998460Y1883141D1*
X2997952Y1878857D1*
X2997110Y1874628D1*
X2995940Y1870477D1*
X2994448Y1866431D1*
X2992642Y1862513D1*
X2990534Y1858751D1*
X2988138Y1855164D1*
X2985469Y1851777D1*
X2982541Y1848610D1*
X2979374Y1845683D1*
X2975987Y1843013D1*
X2972400Y1840617D1*
X2966389Y1837473D1*
X2972400Y1834284D1*
X2975987Y1831887D1*
X2979374Y1829218D1*
X2982541Y1826290D1*
X2985469Y1823124D1*
X2988138Y1819736D1*
X2990534Y1816150D1*
X2992642Y1812387D1*
X2994448Y1808470D1*
X2995940Y1804424D1*
X2997110Y1800273D1*
X2997952Y1796044D1*
X2998460Y1791760D1*
X2998629Y1787450D1*
X2998460Y1783141D1*
X2997952Y1778857D1*
X2997110Y1774628D1*
X2995940Y1770477D1*
X2994448Y1766431D1*
X2992642Y1762513D1*
X2990534Y1758751D1*
X2988138Y1755164D1*
X2985469Y1751777D1*
X2982541Y1748610D1*
X2979374Y1745683D1*
X2975987Y1743013D1*
X2972400Y1740617D1*
X2966389Y1737473D1*
X2972400Y1734284D1*
X2975987Y1731887D1*
X2979374Y1729218D1*
X2982541Y1726290D1*
X2985469Y1723124D1*
X2988138Y1719736D1*
X2990534Y1716150D1*
X2992642Y1712387D1*
X2994448Y1708470D1*
X2995940Y1704424D1*
X2997110Y1700273D1*
X2997952Y1696044D1*
X2998460Y1691760D1*
X2998629Y1687450D1*
X2998460Y1683141D1*
X2997952Y1678857D1*
X2997110Y1674628D1*
X2995940Y1670477D1*
X2994448Y1666431D1*
X2992642Y1662513D1*
X2990534Y1658751D1*
X2988138Y1655164D1*
X2985469Y1651777D1*
X2982541Y1648610D1*
X2979374Y1645683D1*
X2975987Y1643013D1*
X2972400Y1640617D1*
X2966389Y1637473D1*
X2972400Y1634284D1*
X2975987Y1631887D1*
X2979374Y1629218D1*
X2982541Y1626290D1*
X2985469Y1623124D1*
X2988138Y1619736D1*
X2990534Y1616150D1*
X2992642Y1612387D1*
X2994448Y1608470D1*
X2995940Y1604424D1*
X2997110Y1600273D1*
X2997952Y1596044D1*
X2998460Y1591760D1*
X2998629Y1587450D1*
X2998460Y1583141D1*
X2997952Y1578857D1*
X2997110Y1574628D1*
X2995940Y1570477D1*
X2994448Y1566431D1*
X2992642Y1562513D1*
X2990534Y1558751D1*
X2988138Y1555164D1*
X2985469Y1551777D1*
X2982541Y1548610D1*
X2979374Y1545683D1*
X2975987Y1543013D1*
X2972400Y1540617D1*
X2966389Y1537473D1*
X2972400Y1534284D1*
X2975987Y1531887D1*
X2979374Y1529218D1*
X2982541Y1526290D1*
X2985469Y1523124D1*
X2988138Y1519736D1*
X2990534Y1516150D1*
X2992642Y1512387D1*
X2994448Y1508470D1*
X2995940Y1504424D1*
X2997110Y1500273D1*
X2997952Y1496044D1*
X2998460Y1491760D1*
X2998629Y1487450D1*
X2998460Y1483141D1*
X2997952Y1478857D1*
X2997110Y1474628D1*
X2995940Y1470477D1*
X2994448Y1466431D1*
X2992642Y1462513D1*
X2990534Y1458751D1*
X2988138Y1455164D1*
X2985469Y1451777D1*
X2982541Y1448610D1*
X2979374Y1445683D1*
X2975987Y1443013D1*
X2972400Y1440617D1*
X2966389Y1437473D1*
X2972400Y1434284D1*
X2975987Y1431887D1*
X2979374Y1429218D1*
X2982541Y1426290D1*
X2985469Y1423124D1*
X2988138Y1419736D1*
X2990534Y1416150D1*
X2992642Y1412387D1*
X2994448Y1408470D1*
X2995940Y1404424D1*
X2997110Y1400273D1*
X2997952Y1396044D1*
X2998460Y1391760D1*
X2998629Y1387450D1*
X2998460Y1383141D1*
X2997952Y1378857D1*
X2997110Y1374628D1*
X2995940Y1370477D1*
X2994448Y1366431D1*
X2992642Y1362513D1*
X2990534Y1358751D1*
X2988138Y1355164D1*
X2985469Y1351777D1*
X2982541Y1348610D1*
X2979374Y1345683D1*
X2975987Y1343013D1*
X2972400Y1340617D1*
X2966389Y1337473D1*
X2972400Y1334284D1*
X2975987Y1331887D1*
X2979374Y1329218D1*
X2982541Y1326290D1*
X2985469Y1323124D1*
X2988138Y1319736D1*
X2990534Y1316150D1*
X2992642Y1312387D1*
X2994448Y1308470D1*
X2995940Y1304424D1*
X2997110Y1300273D1*
X2997952Y1296044D1*
X2998460Y1291760D1*
X2998629Y1287450D1*
X2998460Y1283141D1*
X2997952Y1278857D1*
X2997110Y1274628D1*
X2995940Y1270477D1*
X2994448Y1266431D1*
X2992642Y1262513D1*
X2990534Y1258751D1*
X2988138Y1255164D1*
X2985469Y1251777D1*
X2982541Y1248610D1*
X2979374Y1245683D1*
X2975987Y1243013D1*
X2972400Y1240617D1*
X2966389Y1237473D1*
X2972400Y1234284D1*
X2975987Y1231887D1*
X2979374Y1229218D1*
X2982541Y1226290D1*
X2985469Y1223124D1*
X2988138Y1219736D1*
X2990534Y1216150D1*
X2992642Y1212387D1*
X2994448Y1208470D1*
X2995940Y1204424D1*
X2997110Y1200273D1*
X2997952Y1196044D1*
X2998460Y1191760D1*
X2998629Y1187450D1*
X2998460Y1183141D1*
X2997952Y1178857D1*
X2997110Y1174628D1*
X2995940Y1170477D1*
X2994448Y1166431D1*
X2992642Y1162513D1*
X2990534Y1158751D1*
X2988138Y1155164D1*
X2985469Y1151777D1*
X2982541Y1148610D1*
X2979374Y1145683D1*
X2975987Y1143013D1*
X2972400Y1140617D1*
X2966389Y1137473D1*
X2972400Y1134284D1*
X2975987Y1131887D1*
X2979374Y1129218D1*
X2982541Y1126290D1*
X2985469Y1123124D1*
X2988138Y1119736D1*
X2990534Y1116150D1*
X2992642Y1112387D1*
X2994448Y1108470D1*
X2995940Y1104424D1*
X2997110Y1100273D1*
X2997952Y1096044D1*
X2998460Y1091760D1*
X2998629Y1087450D1*
X2998460Y1083141D1*
X2997952Y1078857D1*
X2997110Y1074628D1*
X2995940Y1070477D1*
X2994448Y1066431D1*
X2992642Y1062513D1*
X2990534Y1058751D1*
X2988138Y1055164D1*
X2985469Y1051777D1*
X2982541Y1048610D1*
X2979374Y1045683D1*
X2975987Y1043013D1*
X2972400Y1040617D1*
X2966389Y1037473D1*
X2972400Y1034284D1*
X2975987Y1031887D1*
X2979374Y1029218D1*
X2982541Y1026290D1*
X2985469Y1023124D1*
X2988138Y1019736D1*
X2990534Y1016150D1*
X2992642Y1012387D1*
X2994448Y1008470D1*
X2995940Y1004424D1*
X2997110Y1000273D1*
X2997952Y996044D1*
X2998460Y991760D1*
X2998629Y987450D1*
X2998460Y983141D1*
X2997952Y978857D1*
X2997110Y974628D1*
X2995940Y970477D1*
X2994448Y966431D1*
X2992642Y962513D1*
X2990534Y958751D1*
X2988138Y955164D1*
X2985469Y951777D1*
X2982541Y948610D1*
X2979374Y945683D1*
X2975987Y943013D1*
X2972400Y940617D1*
X2966389Y937473D1*
X2972400Y934284D1*
X2975987Y931887D1*
X2979374Y929218D1*
X2982541Y926290D1*
X2985469Y923124D1*
X2988138Y919736D1*
X2990534Y916150D1*
X2992642Y912387D1*
X2994448Y908470D1*
X2995940Y904424D1*
X2997110Y900273D1*
X2997952Y896044D1*
X2998460Y891760D1*
X2998629Y887450D1*
X2998460Y883141D1*
X2997952Y878857D1*
X2997110Y874628D1*
X2995940Y870477D1*
X2994448Y866431D1*
X2992642Y862513D1*
X2990534Y858751D1*
X2988138Y855164D1*
X2985469Y851777D1*
X2982541Y848610D1*
X2979374Y845683D1*
X2975987Y843013D1*
X2972400Y840617D1*
X2966389Y837473D1*
X2972400Y834284D1*
X2975987Y831887D1*
X2979374Y829218D1*
X2982541Y826290D1*
X2985469Y823124D1*
X2988138Y819736D1*
X2990534Y816150D1*
X2992642Y812387D1*
X2994448Y808470D1*
X2995940Y804424D1*
X2997110Y800273D1*
X2997952Y796044D1*
X2998460Y791760D1*
X2998629Y787450D1*
X2998460Y783141D1*
X2997952Y778857D1*
X2997110Y774628D1*
X2995940Y770477D1*
X2994448Y766431D1*
X2992642Y762513D1*
X2990534Y758751D1*
X2988138Y755164D1*
X2985469Y751777D1*
X2982541Y748610D1*
X2979374Y745683D1*
X2975047Y742386D1*
X2998629Y742378D1*
Y632523D1*
X2788773D1*
Y742378D1*
X2812309D1*
X2808028Y745683D1*
X2804861Y748610D1*
X2801933Y751777D1*
X2799264Y755164D1*
X2796868Y758751D1*
X2794760Y762513D1*
X2792954Y766431D1*
X2791462Y770477D1*
X2790292Y774628D1*
X2789450Y778857D1*
X2788942Y783141D1*
X2788773Y787450D1*
X2788942Y791760D1*
X2789450Y796044D1*
X2790292Y800273D1*
X2791462Y804424D1*
X2792954Y808470D1*
X2794760Y812387D1*
X2796868Y816150D1*
X2799264Y819736D1*
X2801933Y823124D1*
X2804861Y826290D1*
X2808028Y829218D1*
X2811415Y831887D1*
X2815002Y834284D1*
X2821013Y837428D1*
X2815002Y840617D1*
X2811415Y843013D1*
X2808028Y845683D1*
X2804861Y848610D1*
X2801933Y851777D1*
X2799264Y855164D1*
X2796579Y859265D1*
X2772473Y859349D1*
X2768071Y860046D1*
X2763832Y861423D1*
X2759862Y863446D1*
X2756256Y866066D1*
X2744012Y878187D1*
X2712953Y909247D1*
X2709491Y909256D1*
X2709505Y842364D1*
X2652767D1*
X2652763Y786116D1*
X2585360D1*
X2588805Y784155D1*
X2592878Y781433D1*
X2596726Y778399D1*
X2600324Y775074D1*
X2603650Y771475D1*
X2606684Y767628D1*
X2609406Y763554D1*
X2611799Y759280D1*
X2613851Y754830D1*
X2615547Y750232D1*
X2616877Y745517D1*
X2617832Y740711D1*
X2618408Y735847D1*
X2618601Y730950D1*
X2618408Y726054D1*
X2617832Y721189D1*
X2616877Y716383D1*
X2615547Y711668D1*
X2613851Y707071D1*
X2611799Y702621D1*
X2609406Y698347D1*
X2606684Y694273D1*
X2603650Y690425D1*
X2600324Y686827D1*
X2596726Y683502D1*
X2592878Y680467D1*
X2588805Y677746D1*
X2584530Y675352D1*
X2580080Y673301D1*
X2575483Y671604D1*
X2570768Y670274D1*
X2565962Y669319D1*
X2561097Y668743D1*
X2556201Y668550D1*
X2551305Y668743D1*
X2546440Y669319D1*
X2541634Y670274D1*
X2536919Y671604D1*
X2531609Y673629D1*
X2520260Y662274D1*
X2520255Y611000D1*
X2503555D1*
X2503570Y567761D1*
X2537002Y534314D1*
X2541634Y535626D1*
X2546440Y536582D1*
X2551305Y537158D1*
X2556201Y537351D1*
X2561097Y537158D1*
X2565962Y536582D1*
X2570768Y535626D1*
X2575483Y534297D1*
X2580080Y532600D1*
X2584530Y530549D1*
X2588805Y528155D1*
X2592878Y525433D1*
X2596726Y522399D1*
X2600324Y519074D1*
X2603650Y515475D1*
X2606684Y511628D1*
X2609406Y507554D1*
X2611799Y503280D1*
X2613851Y498830D1*
X2615547Y494232D1*
X2616877Y489517D1*
X2617832Y484711D1*
X2618408Y479847D1*
X2618601Y474950D1*
X2618408Y470054D1*
X2617832Y465189D1*
X2616877Y460383D1*
X2615547Y455668D1*
X2613851Y451071D1*
X2611799Y446621D1*
X2609406Y442347D1*
X2606684Y438273D1*
X2603650Y434425D1*
X2600324Y430827D1*
X2596726Y427502D1*
X2591717Y423692D1*
X2917393Y423701D1*
X1485143Y2418753D2*
X1576219D1*
Y2281339D1*
X1480143D1*
Y2418753D1*
X1485143D1*
X622364Y1695664D2*
X619184Y1690773D1*
X616150Y1686925D1*
X612824Y1683327D1*
X609226Y1680002D1*
X605378Y1676967D1*
X601305Y1674246D1*
X597030Y1671852D1*
X592580Y1669801D1*
X587983Y1668104D1*
X583268Y1666774D1*
X578462Y1665819D1*
X573597Y1665243D1*
X568701Y1665050D1*
X563805Y1665243D1*
X558940Y1665819D1*
X554134Y1666774D1*
X549419Y1668104D1*
X544822Y1669801D1*
X540372Y1671852D1*
X536097Y1674246D1*
X532024Y1676967D1*
X528176Y1680002D1*
X524578Y1683327D1*
X521252Y1686925D1*
X518218Y1690773D1*
X515496Y1694847D1*
X513103Y1699121D1*
X511051Y1703571D1*
X509355Y1708168D1*
X508025Y1712883D1*
X507070Y1717689D1*
X506494Y1722554D1*
X506301Y1727450D1*
X506494Y1732347D1*
X507070Y1737211D1*
X508025Y1742017D1*
X509355Y1746732D1*
X511051Y1751330D1*
X513103Y1755780D1*
X515496Y1760054D1*
X518218Y1764128D1*
X521252Y1767975D1*
X524578Y1771574D1*
X528176Y1774899D1*
X532024Y1777933D1*
X536097Y1780655D1*
X540289Y1783003D1*
X538923Y1786227D1*
X519815D1*
Y1876398D1*
X613923D1*
Y1786227D1*
X597107D1*
X597101Y1783016D1*
X601305Y1780655D1*
X605378Y1777933D1*
X609226Y1774899D1*
X612824Y1771574D1*
X614994Y1769227D1*
X618218Y1774128D1*
X621252Y1777975D1*
X624578Y1781574D1*
X628176Y1784899D1*
X632024Y1787933D1*
X636097Y1790655D1*
X640372Y1793049D1*
X644822Y1795100D1*
X649419Y1796797D1*
X654134Y1798126D1*
X658940Y1799082D1*
X663805Y1799658D1*
X668701Y1799851D1*
X673597Y1799658D1*
X678462Y1799082D1*
X683268Y1798126D1*
X687983Y1796797D1*
X692580Y1795100D1*
X697030Y1793049D1*
X701305Y1790655D1*
X705378Y1787933D1*
X709226Y1784899D1*
X712824Y1781574D1*
X716150Y1777975D1*
X719184Y1774128D1*
X722364Y1769236D1*
X724578Y1771574D1*
X728176Y1774899D1*
X732024Y1777933D1*
X736097Y1780655D1*
X740372Y1783049D1*
X744822Y1785100D1*
X749419Y1786797D1*
X754134Y1788126D1*
X758940Y1789082D1*
X763805Y1789658D1*
X768701Y1789851D1*
X773597Y1789658D1*
X778462Y1789082D1*
X783268Y1788126D1*
X787983Y1786797D1*
X792580Y1785100D1*
X797030Y1783049D1*
X801305Y1780655D1*
X805378Y1777933D1*
X809226Y1774899D1*
X812824Y1771574D1*
X814994Y1769227D1*
X818218Y1774128D1*
X821252Y1777975D1*
X824578Y1781574D1*
X828176Y1784899D1*
X832024Y1787933D1*
X836097Y1790655D1*
X840372Y1793049D1*
X844822Y1795100D1*
X849419Y1796797D1*
X854134Y1798126D1*
X858940Y1799082D1*
X863805Y1799658D1*
X868701Y1799851D1*
X873597Y1799658D1*
X878462Y1799082D1*
X883268Y1798126D1*
X887983Y1796797D1*
X892580Y1795100D1*
X897030Y1793049D1*
X901305Y1790655D1*
X905378Y1787933D1*
X909226Y1784899D1*
X912824Y1781574D1*
X916150Y1777975D1*
X919184Y1774128D1*
X922364Y1769236D1*
X924578Y1771574D1*
X928176Y1774899D1*
X932024Y1777933D1*
X936097Y1780655D1*
X940372Y1783049D1*
X944822Y1785100D1*
X949419Y1786797D1*
X954134Y1788126D1*
X958940Y1789082D1*
X963805Y1789658D1*
X968701Y1789851D1*
X973597Y1789658D1*
X978462Y1789082D1*
X983268Y1788126D1*
X987983Y1786797D1*
X992580Y1785100D1*
X997030Y1783049D1*
X1001305Y1780655D1*
X1005378Y1777933D1*
X1009226Y1774899D1*
X1012824Y1771574D1*
X1014994Y1769227D1*
X1018218Y1774128D1*
X1021252Y1777975D1*
X1024578Y1781574D1*
X1028176Y1784899D1*
X1032024Y1787933D1*
X1036097Y1790655D1*
X1040372Y1793049D1*
X1044822Y1795100D1*
X1049419Y1796797D1*
X1054134Y1798126D1*
X1058940Y1799082D1*
X1063805Y1799658D1*
X1068701Y1799851D1*
X1073597Y1799658D1*
X1078462Y1799082D1*
X1083268Y1798126D1*
X1087983Y1796797D1*
X1092580Y1795100D1*
X1097030Y1793049D1*
X1101305Y1790655D1*
X1105378Y1787933D1*
X1109226Y1784899D1*
X1112824Y1781574D1*
X1116150Y1777975D1*
X1119184Y1774128D1*
X1122364Y1769236D1*
X1124578Y1771574D1*
X1128176Y1774899D1*
X1132024Y1777933D1*
X1136097Y1780655D1*
X1140372Y1783049D1*
X1144822Y1785100D1*
X1149419Y1786797D1*
X1154134Y1788126D1*
X1158940Y1789082D1*
X1163805Y1789658D1*
X1168701Y1789851D1*
X1173597Y1789658D1*
X1178462Y1789082D1*
X1183268Y1788126D1*
X1187855Y1786832D1*
X1189294Y1792876D1*
X1191540Y1798297D1*
X1194607Y1803301D1*
X1196463Y1805650D1*
X1196424Y1869499D1*
X1192975Y1874246D1*
X1190311Y1879475D1*
X1188498Y1885057D1*
X1187579Y1890853D1*
Y1896722D1*
X1188498Y1902519D1*
X1190311Y1908100D1*
X1192975Y1913330D1*
X1196424Y1918076D1*
X1200575Y1922227D1*
X1205322Y1925676D1*
X1210551Y1928340D1*
X1216133Y1930154D1*
X1221929Y1931072D1*
X1227798D1*
X1233595Y1930154D1*
X1239176Y1928340D1*
X1244406Y1925676D1*
X1249152Y1922227D1*
X1253303Y1918076D1*
X1256752Y1913330D1*
X1259416Y1908100D1*
X1261230Y1902519D1*
X1262149Y1896722D1*
Y1890853D1*
X1261230Y1885057D1*
X1259416Y1879475D1*
X1256752Y1874246D1*
X1253264Y1869456D1*
Y1808416D1*
X1259121Y1811799D1*
X1263571Y1813851D1*
X1268168Y1815547D1*
X1272883Y1816877D1*
X1277689Y1817832D1*
X1282554Y1818408D1*
X1287450Y1818601D1*
X1292347Y1818408D1*
X1297211Y1817832D1*
X1302017Y1816877D1*
X1306732Y1815547D1*
X1311330Y1813851D1*
X1315780Y1811799D1*
X1320054Y1809406D1*
X1324128Y1806684D1*
X1327975Y1803650D1*
X1331574Y1800324D1*
X1334899Y1796726D1*
X1337933Y1792878D1*
X1340655Y1788805D1*
X1343049Y1784530D1*
X1345100Y1780080D1*
X1346797Y1775483D1*
X1348126Y1770768D1*
X1349082Y1765962D1*
X1349658Y1761097D1*
X1349851Y1756201D1*
X1349658Y1751305D1*
X1349082Y1746440D1*
X1348126Y1741634D1*
X1346797Y1736919D1*
X1345100Y1732322D1*
X1343049Y1727872D1*
X1340655Y1723597D1*
X1338369Y1720176D1*
X1371907Y1720164D1*
Y1629994D1*
X1277799D1*
Y1646693D1*
X1021072Y1646679D1*
X1016630Y1647029D1*
X1012297Y1648068D1*
X1008179Y1649774D1*
X1004379Y1652103D1*
X1000991Y1654998D1*
X987912Y1668076D1*
X983268Y1666774D1*
X978462Y1665819D1*
X973597Y1665243D1*
X968701Y1665050D1*
X963805Y1665243D1*
X958940Y1665819D1*
X954134Y1666774D1*
X949419Y1668104D1*
X944822Y1669801D1*
X940372Y1671852D1*
X936097Y1674246D1*
X932024Y1676967D1*
X928176Y1680002D1*
X924578Y1683327D1*
X921252Y1686925D1*
X918218Y1690773D1*
X915038Y1695664D1*
X912824Y1693327D1*
X909226Y1690002D1*
X905378Y1686967D1*
X901305Y1684246D1*
X897030Y1681852D1*
X892580Y1679801D1*
X887983Y1678104D1*
X883268Y1676774D1*
X878462Y1675819D1*
X873597Y1675243D1*
X868701Y1675050D1*
X863805Y1675243D1*
X858940Y1675819D1*
X854134Y1676774D1*
X849419Y1678104D1*
X844822Y1679801D1*
X840372Y1681852D1*
X836097Y1684246D1*
X832024Y1686967D1*
X828176Y1690002D1*
X824578Y1693327D1*
X822408Y1695673D1*
X819184Y1690773D1*
X816150Y1686925D1*
X812824Y1683327D1*
X809226Y1680002D1*
X805378Y1676967D1*
X801305Y1674246D1*
X797030Y1671852D1*
X792580Y1669801D1*
X787983Y1668104D1*
X783268Y1666774D1*
X778462Y1665819D1*
X773597Y1665243D1*
X768701Y1665050D1*
X763805Y1665243D1*
X758940Y1665819D1*
X754134Y1666774D1*
X749419Y1668104D1*
X744822Y1669801D1*
X740372Y1671852D1*
X736097Y1674246D1*
X732024Y1676967D1*
X728176Y1680002D1*
X724578Y1683327D1*
X721252Y1686925D1*
X718218Y1690773D1*
X715038Y1695664D1*
X712824Y1693327D1*
X709226Y1690002D1*
X705378Y1686967D1*
X701305Y1684246D1*
X697030Y1681852D1*
X692580Y1679801D1*
X687983Y1678104D1*
X683268Y1676774D1*
X678462Y1675819D1*
X673597Y1675243D1*
X668701Y1675050D1*
X663805Y1675243D1*
X658940Y1675819D1*
X654134Y1676774D1*
X649419Y1678104D1*
X644822Y1679801D1*
X640372Y1681852D1*
X636097Y1684246D1*
X632024Y1686967D1*
X628176Y1690002D1*
X624578Y1693327D1*
X622408Y1695673D1*
X2558655Y793284D2*
Y842347D1*
X2548469Y842364D1*
Y890274D1*
X2545815Y888444D1*
X2541845Y886420D1*
X2539744Y885646D1*
X2540139Y881222D1*
Y875353D1*
X2539221Y869557D1*
X2537407Y863975D1*
X2534743Y858746D1*
X2531294Y853999D1*
X2527143Y849848D1*
X2522397Y846399D1*
X2517167Y843735D1*
X2511586Y841921D1*
X2505789Y841003D1*
X2499920D1*
X2494124Y841921D1*
X2488542Y843735D1*
X2483563Y846259D1*
X2397473Y846352D1*
X2392994Y847062D1*
X2388681Y848462D1*
X2386612Y849418D1*
X2386542Y829864D1*
X2325663D1*
X2325679Y773616D1*
X2266323D1*
X2271267Y767628D1*
X2273988Y763554D1*
X2276382Y759280D1*
X2278433Y754830D1*
X2280130Y750232D1*
X2281460Y745517D1*
X2282415Y740711D1*
X2282991Y735847D1*
X2283184Y730950D1*
X2282991Y726054D1*
X2282415Y721189D1*
X2281460Y716383D1*
X2280130Y711668D1*
X2278433Y707071D1*
X2276382Y702621D1*
X2273988Y698347D1*
X2271267Y694273D1*
X2268232Y690425D1*
X2264907Y686827D1*
X2261309Y683502D1*
X2257461Y680467D1*
X2253387Y677746D1*
X2249113Y675352D1*
X2244663Y673301D1*
X2240066Y671604D1*
X2235351Y670274D1*
X2230545Y669319D1*
X2225680Y668743D1*
X2220784Y668550D1*
X2215887Y668743D1*
X2211023Y669319D1*
X2206217Y670274D1*
X2200513Y671969D1*
X2186771Y658242D1*
X2186759Y606961D1*
X2170059D1*
X2170074Y565831D1*
X2201571Y534326D1*
X2206217Y535626D1*
X2211023Y536582D1*
X2215887Y537158D1*
X2220784Y537351D1*
X2225680Y537158D1*
X2230545Y536582D1*
X2235351Y535626D1*
X2240066Y534297D1*
X2244663Y532600D1*
X2249113Y530549D1*
X2253387Y528155D1*
X2257461Y525433D1*
X2261309Y522399D1*
X2264907Y519074D1*
X2268232Y515475D1*
X2271267Y511628D1*
X2273988Y507554D1*
X2276382Y503280D1*
X2278433Y498830D1*
X2280130Y494232D1*
X2281460Y489517D1*
X2282415Y484711D1*
X2282991Y479847D1*
X2283184Y474950D1*
X2282991Y470054D1*
X2282415Y465189D1*
X2281460Y460383D1*
X2280130Y455668D1*
X2278433Y451071D1*
X2276382Y446621D1*
X2273988Y442347D1*
X2271267Y438273D1*
X2268232Y434425D1*
X2264907Y430827D1*
X2261309Y427502D1*
X2256299Y423692D1*
X2520596Y423701D1*
X2515676Y427502D1*
X2512078Y430827D1*
X2508752Y434425D1*
X2505718Y438273D1*
X2502996Y442347D1*
X2500603Y446621D1*
X2498551Y451071D1*
X2496855Y455668D1*
X2495525Y460383D1*
X2494570Y465189D1*
X2493994Y470054D1*
X2493801Y474950D1*
X2493994Y479847D1*
X2494570Y484711D1*
X2495525Y489517D1*
X2496830Y494141D1*
X2453574Y537537D1*
X2450954Y541143D1*
X2448931Y545113D1*
X2447554Y549352D1*
X2446857Y553753D1*
X2446769Y570982D1*
Y611002D1*
X2430084Y611000D1*
Y772037D1*
X2509244D1*
X2512078Y775074D1*
X2515676Y778399D1*
X2519524Y781433D1*
X2523597Y784155D1*
X2527872Y786549D1*
X2532322Y788600D1*
X2536919Y790297D1*
X2541634Y791626D1*
X2546440Y792582D1*
X2551305Y793158D1*
X2556201Y793351D1*
X2558668Y793253D1*
X1932710Y2138642D2*
Y2071819D1*
X1842540D1*
Y2232856D1*
X1953453Y2232765D1*
X1988624D1*
Y2138658D1*
X1932705D1*
X973431Y636116D2*
X949877D1*
X949895Y423719D1*
X1020205Y423701D1*
X1020221Y455613D1*
X1005248Y455555D1*
X999379D1*
X989525Y455630D1*
X965103D1*
X965029Y489906D1*
Y495774D1*
X965103Y505630D1*
X965029Y529670D1*
Y535538D1*
X965103Y545394D1*
Y609580D1*
X973404D1*
X973414Y636100D1*
X729705Y2475927D2*
X714725D1*
X713208Y2471601D1*
X723071D1*
X1294788Y441761D2*
X1293957Y436705D1*
X1292143Y431124D1*
X1289479Y425894D1*
X1288020Y423710D1*
X1290915Y428457D1*
X1293160Y433878D1*
X1294530Y439586D1*
X1294788Y441761D1*
X1348849Y904520D2*
X1350129Y901763D1*
X1351942Y896181D1*
X1352861Y890385D1*
Y884516D1*
X1351942Y878719D1*
X1351778Y878134D1*
X1355588Y875284D1*
X1359739Y871133D1*
X1363188Y866386D1*
X1365852Y861156D1*
X1367666Y855575D1*
X1368584Y849778D1*
Y843910D1*
X1367666Y838113D1*
X1365852Y832532D1*
X1364572Y829774D1*
X1005874Y455630D2*
X1002314Y455440D1*
X998753Y455630D1*
X965104Y489280D2*
X964914Y492840D1*
X965104Y496400D1*
X786019Y1414131D2*
X784739Y1416889D1*
X782925Y1422470D1*
X782007Y1428267D1*
Y1434135D1*
X782925Y1439932D1*
X784739Y1445513D1*
X787403Y1450743D1*
X790852Y1455490D1*
X795003Y1459641D1*
X799750Y1463089D1*
X804979Y1465753D1*
X810561Y1467567D1*
X816357Y1468486D1*
X822226D1*
X828023Y1467567D1*
X833604Y1465753D1*
X838834Y1463089D1*
X843580Y1459641D1*
X847731Y1455490D1*
X851180Y1450743D1*
X853844Y1445513D1*
X855658Y1439932D1*
X856576Y1434135D1*
Y1428267D1*
X855658Y1422470D1*
X853844Y1416889D1*
X852565Y1414131D1*
X1555868Y847231D2*
X1554949Y841435D1*
X1553135Y835853D1*
X1550471Y830624D1*
X1547023Y825877D1*
X1542872Y821726D1*
X1538125Y818277D1*
X1532895Y815613D1*
X1527314Y813799D1*
X1521517Y812881D1*
X1515649D1*
X1509852Y813799D1*
X1504271Y815613D1*
X1499041Y818277D1*
X1494294Y821726D1*
X1490143Y825877D1*
X1486694Y830624D1*
X1484030Y835853D1*
X1482217Y841435D1*
X1481298Y847231D1*
Y853100D1*
X1482217Y858897D1*
X1484030Y864478D1*
X1486694Y869708D1*
X1490143Y874454D1*
X1494294Y878605D1*
X1499041Y882054D1*
X1504271Y884718D1*
X1509852Y886532D1*
X1515649Y887450D1*
X1521517D1*
X1527314Y886532D1*
X1532895Y884718D1*
X1538125Y882054D1*
X1542872Y878605D1*
X1547023Y874454D1*
X1550471Y869708D1*
X1553135Y864478D1*
X1554949Y858897D1*
X1555868Y853100D1*
Y847231D1*
X1041454Y609579D2*
X1044574Y610764D1*
X1050281Y612134D1*
X1056131Y612595D1*
X1061982Y612134D1*
X1067689Y610764D1*
X1070809Y609579D1*
X2207349Y2564322D2*
X2210446Y2565792D1*
X2216028Y2567605D1*
X2221824Y2568524D1*
X2227693D1*
X2228730Y2568400D1*
D24*
X1406202Y2734324D3*
X1091242D3*
X776281D3*
D26*
X1796824Y1287450D3*
Y1220521D3*
X1749809Y1543843D3*
Y1610772D3*
X1497617Y1541625D3*
Y1608554D3*
X1728075Y1221827D3*
Y1288756D3*
X1815427Y1543843D3*
Y1610772D3*
X1728075Y1137450D3*
Y1070521D3*
D27*
X2006032Y1762570D3*
X1939103D3*
X1956365Y1031257D3*
X2023294D3*
D26*
X2531200Y1118696D3*
Y1185625D3*
D27*
X2249756Y1012649D3*
X2182827D3*
D26*
X2580971Y1493848D3*
Y1560777D3*
D28*
X1156201Y2318701D3*
Y2243898D3*
D27*
X2206011Y1750071D3*
X2272940D3*
D26*
X1062452Y2310630D3*
Y2243701D3*
D28*
X1252987Y2315448D3*
Y2240645D3*
X1352978Y2315448D3*
Y2240645D3*
D27*
X749316Y737225D3*
X816246D3*
X878080D3*
X945009D3*
X1135607D3*
X1202536D3*
X1264370D3*
X1331299D3*
D26*
X2162265Y2518740D3*
Y2585670D3*
D27*
X816625Y680526D3*
X749696D3*
D26*
X1399950Y676772D3*
Y743701D3*
D27*
X1331299Y680969D3*
X1264370D3*
D26*
X1812302Y2025042D3*
Y1958113D3*
D27*
X1135692Y681201D3*
X1202621D3*
X1007110D3*
X1074040D3*
D30*
X676013Y2468746D3*
X589399D3*
X676013Y2368756D3*
X589399D3*
D149*
X637425Y2568735D3*
Y2678971D3*
D33*
X484316Y2471870D3*
D34*
Y2571870D3*
D36*
X554235Y2201133D3*
Y2175542D3*
Y2149952D3*
Y2124361D3*
Y2098771D3*
D37*
X545377Y2275936D3*
Y2023967D3*
D38*
X448999Y2279873D3*
Y2020030D3*
D39*
X1695110Y2820899D3*
X1738418D3*
X1781725D3*
X1825032D3*
X1868339D3*
X1911646D3*
X1954953D3*
X1998260D3*
D40*
X1528181Y2796109D3*
D41*
Y2350046D3*
D42*
X1697473Y2318550D3*
X2003772D3*
D43*
X2075032Y2357132D3*
D44*
Y2711462D3*
D41*
X2090780Y2796109D3*
D150*
X468701Y1737450D3*
D45*
X568701Y1727450D3*
X668701Y1737450D3*
X768701Y1727450D3*
X868701Y1737450D3*
X968701Y1727450D3*
X1068701Y1737450D3*
X1168701Y1727450D3*
D33*
X2843701Y687450D3*
D34*
Y787450D3*
Y887450D3*
Y987450D3*
Y1087450D3*
Y1187450D3*
Y1287450D3*
Y1387450D3*
Y1487450D3*
Y1587450D3*
Y1687450D3*
Y1787450D3*
Y1887450D3*
Y1987450D3*
Y2087450D3*
Y2187450D3*
Y2287450D3*
Y2387450D3*
Y2487450D3*
Y2587450D3*
D33*
X2943701Y687450D3*
D34*
Y787450D3*
Y887450D3*
Y987450D3*
Y1087450D3*
Y1187450D3*
Y1287450D3*
Y1387450D3*
Y1487450D3*
Y1587450D3*
Y1687450D3*
Y1787450D3*
Y1887450D3*
Y1987450D3*
Y2087450D3*
Y2187450D3*
Y2287450D3*
Y2387450D3*
Y2487450D3*
Y2587450D3*
D151*
X1771974Y1350042D3*
Y1420908D3*
X2162265Y2337509D3*
Y2408376D3*
D27*
X1106126Y1921928D3*
X1173055D3*
X965516D3*
X1032445D3*
X1343958Y2083452D3*
X1410887D3*
X824906Y1921928D3*
X891835D3*
X681171D3*
X748100D3*
X2605709Y831201D3*
X2672638D3*
X2278625Y818701D3*
X2345554D3*
X1945293D3*
X2012222D3*
X1611960D3*
X1678889D3*
X1705870Y2131374D3*
X1772799D3*
X1512100D3*
X1579029D3*
X2374743Y2250019D3*
X2441672D3*
X2768208Y2709334D3*
X2835137D3*
X2768208Y2784334D3*
X2835137D3*
D26*
X1631201Y1912452D3*
Y1845523D3*
D27*
X1339378Y2168872D3*
X1406307D3*
X1324853Y1675079D3*
X1391782D3*
X499940Y1831313D3*
X566869D3*
D26*
X1887625Y2118873D3*
Y2185802D3*
X2468483Y1094076D3*
Y1027147D3*
D27*
X821781Y2003170D3*
X888710D3*
X678046D3*
X744975D3*
X903929Y2375912D3*
X970858D3*
X1099877Y2003170D3*
X1166806D3*
D26*
X2412239Y1093890D3*
Y1026961D3*
X1562452Y1912452D3*
Y1845523D3*
D27*
X962391Y2003170D3*
X1029320D3*
X2662452Y887449D3*
X2595523D3*
X2339488Y874949D3*
X2272559D3*
X2012450Y874950D3*
X1945521D3*
X1681066Y874949D3*
X1614137D3*
X1701771Y2187452D3*
X1768700D3*
D26*
X1637450Y2118701D3*
Y2185630D3*
D27*
X1506198Y2187452D3*
X1573128D3*
D26*
X1943538Y2118782D3*
Y2185711D3*
D27*
X2372525Y2304045D3*
X2439454D3*
D26*
X1464774Y739696D3*
Y672767D3*
D27*
X1073772Y737225D3*
X1006843D3*
D26*
X1808559Y739696D3*
Y672767D3*
X2141673Y720944D3*
Y654015D3*
X2475170Y724983D3*
Y658054D3*
X1871067Y1089463D3*
Y1022534D3*
X1814811Y1089463D3*
Y1022534D3*
D27*
X2618467Y2712470D3*
X2685397D3*
X2616250Y2785244D3*
X2683179D3*
X878530Y681201D3*
X945460D3*
D26*
X2256201Y2233023D3*
Y2299952D3*
D45*
X1287450Y1756201D3*
Y2012201D3*
X1465450Y1756201D3*
Y2012201D3*
X1549950Y474950D3*
Y730950D3*
X1727950Y474950D3*
Y730950D3*
X1885368Y474950D3*
Y730950D3*
X2063368Y474950D3*
Y730950D3*
X2220784Y474950D3*
Y730950D3*
X2398784Y474950D3*
Y730950D3*
X2556201Y474950D3*
Y730950D3*
X2734201Y474950D3*
Y730950D3*
D48*
X481192Y731428D3*
X568698Y731201D3*
X656173Y731428D3*
X481192Y637688D3*
X568683D3*
X656173D3*
D50*
X1894685Y1562450D3*
Y1542765D3*
Y1523080D3*
Y1503395D3*
Y1483710D3*
Y1464025D3*
Y1444340D3*
Y1424655D3*
Y1404970D3*
Y1385285D3*
Y1365600D3*
Y1345915D3*
Y1326230D3*
Y1306545D3*
Y1286860D3*
Y1267175D3*
Y1247490D3*
Y1227805D3*
Y1208120D3*
Y1188435D3*
D51*
X1971457Y1111663D3*
X1991142D3*
X2010827D3*
X2030512D3*
X2050197D3*
X2069882D3*
X2089567D3*
X2109252D3*
X2128937D3*
X2148622D3*
X2168307D3*
X2187992D3*
X2207677D3*
X2227362D3*
X2247047D3*
X2266732D3*
X2286418D3*
X2306103D3*
X2325788D3*
X2345473D3*
D50*
X2422244Y1188435D3*
Y1208120D3*
Y1227805D3*
Y1247490D3*
Y1267175D3*
Y1286860D3*
Y1306545D3*
Y1326230D3*
Y1345915D3*
Y1365600D3*
Y1385285D3*
Y1404970D3*
Y1424655D3*
Y1444340D3*
Y1464025D3*
Y1483710D3*
Y1503395D3*
Y1523080D3*
Y1542765D3*
Y1562450D3*
D51*
X2345473Y1639222D3*
X2325788D3*
X2306103D3*
X2286418D3*
X2266732D3*
X2247047D3*
X2227362D3*
X2207677D3*
X2187992D3*
X2168307D3*
X2148622D3*
X2128937D3*
X2109252D3*
X2089567D3*
X2069882D3*
X2050197D3*
X2030512D3*
X2010827D3*
X1991142D3*
X1971457D3*
D152*
X793701Y2524949D3*
X756299D3*
X718898D3*
Y2422579D3*
X793701D3*
D53*
X741831Y2254307D3*
Y2234622D3*
Y2214937D3*
Y2195252D3*
Y2175567D3*
Y2155882D3*
Y2136197D3*
D54*
X781201Y2096827D3*
X800886D3*
X820571D3*
X840256D3*
X859941D3*
X879626D3*
X899311D3*
D53*
X938681Y2136197D3*
Y2155882D3*
Y2175567D3*
Y2195252D3*
Y2214937D3*
Y2234622D3*
Y2254307D3*
D54*
X899311Y2293677D3*
X879626D3*
X859941D3*
X840256D3*
X820571D3*
X800886D3*
X781201D3*
D55*
X840256Y2195252D3*
D56*
X543701Y1187454D3*
X571260D3*
X598819D3*
X626378D3*
X653937D3*
X681496D3*
X709055D3*
X736614D3*
X764173D3*
X791732D3*
X819292D3*
X846851D3*
X874410D3*
X901969D3*
X929528D3*
X957087D3*
X984646D3*
X1012205D3*
X1039764D3*
X1067323D3*
X1094882D3*
X1122441D3*
X1150000D3*
X1177559D3*
X1205118D3*
X1232677D3*
X1260236D3*
X1287795D3*
X1315355D3*
X1342914D3*
D58*
X693670Y456457D3*
X731071D3*
X768473D3*
Y562756D3*
X693670D3*
D60*
X1299950Y593701D3*
X1280265D3*
X1260580D3*
X1240895D3*
X1221210D3*
D61*
X1211368Y564173D3*
Y544488D3*
Y524803D3*
D60*
X1240895Y495276D3*
X1260580D3*
X1280265D3*
X1299950D3*
D61*
X1309793Y524803D3*
Y544488D3*
Y564173D3*
D60*
X1221210Y495276D3*
D62*
X2530977Y2724969D3*
D63*
Y2824969D3*
X2430977Y2724969D3*
Y2824969D3*
X2330977Y2724969D3*
Y2824969D3*
D62*
X2230977Y2724969D3*
D63*
Y2824969D3*
D64*
X2293502Y2531239D3*
Y2481239D3*
Y2431239D3*
Y2381239D3*
X2506100D3*
Y2431239D3*
Y2481239D3*
Y2531239D3*
D30*
X1002314Y453078D3*
X1057432D3*
Y492841D3*
X1002314D3*
Y532605D3*
X1057432D3*
Y572369D3*
X1002314D3*
D68*
X1681066Y1465726D3*
Y1682261D3*
X1555082D3*
Y1465726D3*
D69*
X1584326Y1049954D3*
Y1239954D3*
D26*
X1462339Y567131D3*
Y500202D3*
X1806053Y568945D3*
Y502016D3*
M02*
