%TF.GenerationSoftware,Novarm,DipTrace,3.2.0.1*%
%TF.CreationDate,2018-12-02T20:47:18-08:00*%
%FSLAX26Y26*%
%MOIN*%
%TF.FileFunction,Drawing,Top*%
%TF.Part,Single*%
%ADD14C,0.001378*%
%ADD145C,0.006176*%
G75*
G01*
%LPD*%
X2993701Y2793701D2*
D14*
X3325886D1*
X2993701Y493701D2*
X3325886D1*
X3306201Y1643701D2*
Y2754331D1*
G36*
Y2793701D2*
X3314075Y2754331D1*
X3298327D1*
X3306201Y2793701D1*
G37*
Y1643701D2*
D14*
Y533071D1*
G36*
Y493701D2*
X3298327Y533071D1*
X3314075D1*
X3306201Y493701D1*
G37*
X493701Y2793701D2*
D14*
Y3038387D1*
X2993701Y2793701D2*
Y3038387D1*
X1743701Y3018702D2*
X533071D1*
G36*
X493701D2*
X533071Y3026576D1*
Y3010828D1*
X493701Y3018702D1*
G37*
X1743701D2*
D14*
X2954331D1*
G36*
X2993701D2*
X2954331Y3010828D1*
Y3026576D1*
X2993701Y3018702D1*
G37*
X393701Y2843701D2*
D14*
Y3150861D1*
X3093701Y2843701D2*
Y3150861D1*
X1743701Y3131176D2*
X433071D1*
G36*
X393701D2*
X433071Y3139050D1*
Y3123302D1*
X393701Y3131176D1*
G37*
X1743701D2*
D14*
X3054331D1*
G36*
X3093701D2*
X3054331Y3123302D1*
Y3139050D1*
X3093701Y3131176D1*
G37*
X3043701Y2893701D2*
D14*
X3606801D1*
X3043701Y393701D2*
X3606801D1*
X3587116Y1643701D2*
Y2854331D1*
G36*
Y2893701D2*
X3594990Y2854331D1*
X3579242D1*
X3587116Y2893701D1*
G37*
Y1643701D2*
D14*
Y433071D1*
G36*
Y393701D2*
X3579242Y433071D1*
X3594990D1*
X3587116Y393701D1*
G37*
X3349009Y1710784D2*
D145*
X3350910D1*
X3354757Y1708883D1*
X3356658Y1706982D1*
X3358560Y1703135D1*
Y1695485D1*
X3356658Y1691683D1*
X3354757Y1689782D1*
X3350910Y1687836D1*
X3347108D1*
X3343261Y1689782D1*
X3337557Y1693584D1*
X3318412Y1712730D1*
Y1685935D1*
X3358560Y1669737D2*
Y1648734D1*
X3343261Y1660186D1*
Y1654438D1*
X3341360Y1650636D1*
X3339458Y1648734D1*
X3333710Y1646789D1*
X3329908D1*
X3324160Y1648734D1*
X3320313Y1652537D1*
X3318412Y1658285D1*
Y1664033D1*
X3320313Y1669737D1*
X3322259Y1671638D1*
X3326061Y1673584D1*
X3358560Y1622941D2*
X3356658Y1628689D1*
X3350910Y1632536D1*
X3341360Y1634437D1*
X3335612D1*
X3326061Y1632536D1*
X3320313Y1628689D1*
X3318412Y1622941D1*
Y1619139D1*
X3320313Y1613391D1*
X3326061Y1609588D1*
X3335612Y1607643D1*
X3341360D1*
X3350910Y1609588D1*
X3356658Y1613391D1*
X3358560Y1619139D1*
Y1622941D1*
X3350910Y1609588D2*
X3326061Y1632536D1*
X3358560Y1583795D2*
X3356658Y1589543D1*
X3350910Y1593390D1*
X3341360Y1595291D1*
X3335612D1*
X3326061Y1593390D1*
X3320313Y1589543D1*
X3318412Y1583795D1*
Y1579993D1*
X3320313Y1574245D1*
X3326061Y1570442D1*
X3335612Y1568497D1*
X3341360D1*
X3350910Y1570442D1*
X3356658Y1574245D1*
X3358560Y1579993D1*
Y1583795D1*
X3350910Y1570442D2*
X3326061Y1593390D1*
X1676618Y3061510D2*
Y3063412D1*
X1678519Y3067258D1*
X1680420Y3069160D1*
X1684267Y3071061D1*
X1691917D1*
X1695719Y3069160D1*
X1697620Y3067258D1*
X1699566Y3063412D1*
Y3059609D1*
X1697620Y3055762D1*
X1693818Y3050058D1*
X1674672Y3030913D1*
X1701467D1*
X1736766Y3071061D2*
X1717665D1*
X1715764Y3053861D1*
X1717665Y3055762D1*
X1723413Y3057708D1*
X1729117D1*
X1734865Y3055762D1*
X1738712Y3051960D1*
X1740613Y3046212D1*
Y3042409D1*
X1738712Y3036661D1*
X1734865Y3032814D1*
X1729117Y3030913D1*
X1723413D1*
X1717665Y3032814D1*
X1715764Y3034760D1*
X1713818Y3038562D1*
X1764461Y3071061D2*
X1758713Y3069160D1*
X1754866Y3063412D1*
X1752965Y3053861D1*
Y3048113D1*
X1754866Y3038562D1*
X1758713Y3032814D1*
X1764461Y3030913D1*
X1768263D1*
X1774011Y3032814D1*
X1777814Y3038562D1*
X1779759Y3048113D1*
Y3053861D1*
X1777814Y3063412D1*
X1774011Y3069160D1*
X1768263Y3071061D1*
X1764461D1*
X1777814Y3063412D2*
X1754866Y3038562D1*
X1803607Y3071061D2*
X1797859Y3069160D1*
X1794012Y3063412D1*
X1792111Y3053861D1*
Y3048113D1*
X1794012Y3038562D1*
X1797859Y3032814D1*
X1803607Y3030913D1*
X1807409D1*
X1813157Y3032814D1*
X1816960Y3038562D1*
X1818905Y3048113D1*
Y3053861D1*
X1816960Y3063412D1*
X1813157Y3069160D1*
X1807409Y3071061D1*
X1803607D1*
X1816960Y3063412D2*
X1794012Y3038562D1*
X1676618Y3173984D2*
Y3175885D1*
X1678519Y3179732D1*
X1680420Y3181633D1*
X1684267Y3183535D1*
X1691917D1*
X1695719Y3181633D1*
X1697620Y3179732D1*
X1699566Y3175885D1*
Y3172083D1*
X1697620Y3168236D1*
X1693818Y3162532D1*
X1674672Y3143387D1*
X1701467D1*
X1721468D2*
X1740613Y3183535D1*
X1713818D1*
X1764461D2*
X1758713Y3181633D1*
X1754866Y3175885D1*
X1752965Y3166335D1*
Y3160587D1*
X1754866Y3151036D1*
X1758713Y3145288D1*
X1764461Y3143387D1*
X1768263D1*
X1774011Y3145288D1*
X1777814Y3151036D1*
X1779759Y3160587D1*
Y3166335D1*
X1777814Y3175885D1*
X1774011Y3181633D1*
X1768263Y3183535D1*
X1764461D1*
X1777814Y3175885D2*
X1754866Y3151036D1*
X1803607Y3183535D2*
X1797859Y3181633D1*
X1794012Y3175885D1*
X1792111Y3166335D1*
Y3160587D1*
X1794012Y3151036D1*
X1797859Y3145288D1*
X1803607Y3143387D1*
X1807409D1*
X1813157Y3145288D1*
X1816960Y3151036D1*
X1818905Y3160587D1*
Y3166335D1*
X1816960Y3175885D1*
X1813157Y3181633D1*
X1807409Y3183535D1*
X1803607D1*
X1816960Y3175885D2*
X1794012Y3151036D1*
X3629924Y1710784D2*
X3631825D1*
X3635672Y1708883D1*
X3637573Y1706982D1*
X3639474Y1703135D1*
Y1695485D1*
X3637573Y1691683D1*
X3635672Y1689782D1*
X3631825Y1687836D1*
X3628022D1*
X3624176Y1689782D1*
X3618472Y1693584D1*
X3599326Y1712730D1*
Y1685935D1*
X3639474Y1650636D2*
Y1669737D1*
X3622274Y1671638D1*
X3624176Y1669737D1*
X3626121Y1663989D1*
Y1658285D1*
X3624176Y1652537D1*
X3620373Y1648690D1*
X3614625Y1646789D1*
X3610823D1*
X3605074Y1648690D1*
X3601228Y1652537D1*
X3599326Y1658285D1*
Y1663989D1*
X3601228Y1669737D1*
X3603173Y1671638D1*
X3606976Y1673584D1*
X3639474Y1622941D2*
X3637573Y1628689D1*
X3631825Y1632536D1*
X3622274Y1634437D1*
X3616526D1*
X3606976Y1632536D1*
X3601228Y1628689D1*
X3599326Y1622941D1*
Y1619139D1*
X3601228Y1613391D1*
X3606976Y1609588D1*
X3616526Y1607643D1*
X3622274D1*
X3631825Y1609588D1*
X3637573Y1613391D1*
X3639474Y1619139D1*
Y1622941D1*
X3631825Y1609588D2*
X3606976Y1632536D1*
X3639474Y1583795D2*
X3637573Y1589543D1*
X3631825Y1593390D1*
X3622274Y1595291D1*
X3616526D1*
X3606976Y1593390D1*
X3601228Y1589543D1*
X3599326Y1583795D1*
Y1579993D1*
X3601228Y1574245D1*
X3606976Y1570442D1*
X3616526Y1568497D1*
X3622274D1*
X3631825Y1570442D1*
X3637573Y1574245D1*
X3639474Y1579993D1*
Y1583795D1*
X3631825Y1570442D2*
X3606976Y1593390D1*
M02*
