%TF.GenerationSoftware,Novarm,DipTrace,3.2.0.1*%
%TF.CreationDate,2018-12-02T20:47:12-08:00*%
%FSLAX26Y26*%
%MOIN*%
%TF.FileFunction,Soldermask,Top*%
%TF.Part,Single*%
%AMOUTLINE0*
4,1,4,
-0.035433,0.019685,
-0.035433,-0.019685,
0.035433,-0.019685,
0.035433,0.019685,
-0.035433,0.019685,
0*%
%AMOUTLINE1*
4,1,4,
0.026163,0.026163,
0.026205,-0.026121,
-0.026121,-0.026205,
-0.026163,0.026163,
0.026163,0.026163,
0*%
%AMOUTLINE2*
4,1,4,
-0.023622,0.015748,
-0.023622,-0.015748,
0.023622,-0.015748,
0.023622,0.015748,
-0.023622,0.015748,
0*%
%AMOUTLINE3*
4,1,4,
-0.010827,-0.023622,
0.010827,-0.023622,
0.010827,0.023622,
-0.010827,0.023622,
-0.010827,-0.023622,
0*%
%ADD26R,0.03937X0.043307*%
%ADD27R,0.043307X0.03937*%
%ADD33R,0.059055X0.059055*%
%ADD34C,0.059055*%
%ADD45C,0.074*%
%ADD50R,0.062992X0.011811*%
%ADD51R,0.011811X0.062992*%
%ADD62R,0.05937X0.05937*%
%ADD63C,0.05937*%
%ADD64R,0.07874X0.023622*%
%ADD68R,0.074803X0.059055*%
%ADD72C,0.137795*%
%ADD80C,0.056*%
%ADD82R,0.082803X0.067055*%
%ADD90R,0.027685X0.019811*%
%ADD92R,0.019811X0.027685*%
%ADD94R,0.031622X0.051307*%
%ADD96R,0.023748X0.12611*%
%ADD98R,0.145795X0.145795*%
%ADD100O,0.019811X0.041465*%
%ADD102O,0.041465X0.019811*%
%ADD108R,0.068X0.068*%
%ADD112R,0.053669X0.057213*%
%ADD114R,0.053669X0.055244*%
%ADD116R,0.067055X0.053276*%
%ADD118R,0.053276X0.094614*%
%ADD120R,0.053276X0.106425*%
%ADD122R,0.039496X0.056819*%
%ADD124O,0.078866X0.051307*%
%ADD126R,0.063118X0.070992*%
%ADD128R,0.06115X0.023748*%
%ADD130C,0.067055*%
%ADD132R,0.067055X0.067055*%
%ADD134R,0.031622X0.031622*%
%ADD136R,0.067055X0.059181*%
%ADD138R,0.051307X0.04737*%
%ADD140R,0.04737X0.051307*%
%ADD142R,0.16548X0.149732*%
%ADD149OUTLINE0*%
%ADD150OUTLINE1*%
%ADD151OUTLINE2*%
%ADD152OUTLINE3*%
G75*
G01*
%LPD*%
D142*
X1406202Y2734324D3*
X1091242D3*
X776281D3*
D26*
X1796824Y1287450D3*
Y1220521D3*
X1749809Y1543843D3*
Y1610772D3*
X1497617Y1541625D3*
Y1608554D3*
D140*
X1728075Y1221827D3*
Y1288756D3*
D26*
X1815427Y1543843D3*
Y1610772D3*
D140*
X1728075Y1137450D3*
Y1070521D3*
D27*
X2006032Y1762570D3*
X1939103D3*
X1956365Y1031257D3*
X2023294D3*
D26*
X2531200Y1118696D3*
Y1185625D3*
D27*
X2249756Y1012649D3*
X2182827D3*
D26*
X2580971Y1493848D3*
Y1560777D3*
D136*
X1156201Y2318701D3*
Y2243898D3*
D27*
X2206011Y1750071D3*
X2272940D3*
D140*
X1062452Y2310630D3*
Y2243701D3*
D136*
X1252987Y2315448D3*
Y2240645D3*
X1352978Y2315448D3*
Y2240645D3*
D138*
X749316Y737225D3*
X816246D3*
X878080D3*
X945009D3*
X1135607D3*
X1202536D3*
X1264370D3*
X1331299D3*
D140*
X2162265Y2518740D3*
Y2585670D3*
D138*
X816625Y680526D3*
X749696D3*
D26*
X1399950Y676772D3*
Y743701D3*
D27*
X1331299Y680969D3*
X1264370D3*
D26*
X1812302Y2025042D3*
Y1958113D3*
D138*
X1135692Y681201D3*
X1202621D3*
X1007110D3*
X1074040D3*
D134*
X676013Y2468746D3*
X589399D3*
X676013Y2368756D3*
X589399D3*
D149*
X637425Y2568735D3*
Y2678971D3*
D132*
X484316Y2471870D3*
D130*
Y2571870D3*
D128*
X554235Y2201133D3*
Y2175542D3*
Y2149952D3*
Y2124361D3*
Y2098771D3*
D126*
X545377Y2275936D3*
Y2023967D3*
D124*
X448999Y2279873D3*
Y2020030D3*
D122*
X1695110Y2820899D3*
X1738418D3*
X1781725D3*
X1825032D3*
X1868339D3*
X1911646D3*
X1954953D3*
X1998260D3*
D120*
X1528181Y2796109D3*
D118*
Y2350046D3*
D116*
X1697473Y2318550D3*
X2003772D3*
D114*
X2075032Y2357132D3*
D112*
Y2711462D3*
D118*
X2090780Y2796109D3*
D150*
X468701Y1737450D3*
D45*
X568701Y1727450D3*
X668701Y1737450D3*
X768701Y1727450D3*
X868701Y1737450D3*
X968701Y1727450D3*
X1068701Y1737450D3*
X1168701Y1727450D3*
D33*
X2843701Y687450D3*
D34*
Y787450D3*
Y887450D3*
Y987450D3*
Y1087450D3*
Y1187450D3*
Y1287450D3*
Y1387450D3*
Y1487450D3*
Y1587450D3*
Y1687450D3*
Y1787450D3*
Y1887450D3*
Y1987450D3*
Y2087450D3*
Y2187450D3*
Y2287450D3*
D130*
Y2387450D3*
Y2487450D3*
Y2587450D3*
D33*
X2943701Y687450D3*
D34*
Y787450D3*
Y887450D3*
Y987450D3*
Y1087450D3*
Y1187450D3*
Y1287450D3*
Y1387450D3*
Y1487450D3*
Y1587450D3*
Y1687450D3*
Y1787450D3*
Y1887450D3*
Y1987450D3*
Y2087450D3*
Y2187450D3*
Y2287450D3*
D130*
Y2387450D3*
Y2487450D3*
Y2587450D3*
D151*
X1771974Y1350042D3*
Y1420908D3*
X2162265Y2337509D3*
Y2408376D3*
D138*
X1106126Y1921928D3*
X1173055D3*
X965516D3*
X1032445D3*
X1343958Y2083452D3*
X1410887D3*
X824906Y1921928D3*
X891835D3*
X681171D3*
X748100D3*
X2605709Y831201D3*
X2672638D3*
X2278625Y818701D3*
X2345554D3*
X1945293D3*
X2012222D3*
X1611960D3*
X1678889D3*
X1705870Y2131374D3*
X1772799D3*
X1512100D3*
X1579029D3*
X2374743Y2250019D3*
X2441672D3*
X2768208Y2709334D3*
X2835137D3*
X2768208Y2784334D3*
X2835137D3*
D26*
X1631201Y1912452D3*
Y1845523D3*
D27*
X1339378Y2168872D3*
X1406307D3*
X1324853Y1675079D3*
X1391782D3*
X499940Y1831313D3*
X566869D3*
D26*
X1887625Y2118873D3*
Y2185802D3*
D140*
X2468483Y1094076D3*
Y1027147D3*
D27*
X821781Y2003170D3*
X888710D3*
X678046D3*
X744975D3*
D138*
X903929Y2375912D3*
X970858D3*
D27*
X1099877Y2003170D3*
X1166806D3*
D140*
X2412239Y1093890D3*
Y1026961D3*
D26*
X1562452Y1912452D3*
Y1845523D3*
D27*
X962391Y2003170D3*
X1029320D3*
X2662452Y887449D3*
X2595523D3*
X2339488Y874949D3*
X2272559D3*
X2012450Y874950D3*
X1945521D3*
X1681066Y874949D3*
X1614137D3*
X1701771Y2187452D3*
X1768700D3*
D26*
X1637450Y2118701D3*
Y2185630D3*
D27*
X1506198Y2187452D3*
X1573128D3*
D26*
X1943538Y2118782D3*
Y2185711D3*
D27*
X2372525Y2304045D3*
X2439454D3*
D26*
X1464774Y739696D3*
Y672767D3*
D138*
X1073772Y737225D3*
X1006843D3*
D26*
X1808559Y739696D3*
Y672767D3*
X2141673Y720944D3*
Y654015D3*
X2475170Y724983D3*
Y658054D3*
X1871067Y1089463D3*
Y1022534D3*
X1814811Y1089463D3*
Y1022534D3*
D27*
X2618467Y2712470D3*
X2685397D3*
X2616250Y2785244D3*
X2683179D3*
D138*
X878530Y681201D3*
X945460D3*
D140*
X2256201Y2233023D3*
Y2299952D3*
D45*
X1287450Y1756201D3*
Y2012201D3*
X1465450Y1756201D3*
Y2012201D3*
X1549950Y474950D3*
Y730950D3*
X1727950Y474950D3*
Y730950D3*
X1885368Y474950D3*
Y730950D3*
X2063368Y474950D3*
Y730950D3*
X2220784Y474950D3*
Y730950D3*
X2398784Y474950D3*
Y730950D3*
X2556201Y474950D3*
Y730950D3*
X2734201Y474950D3*
Y730950D3*
D108*
X481192Y731428D3*
X568698Y731201D3*
X656173Y731428D3*
X481192Y637688D3*
X568683D3*
X656173D3*
D50*
X1894685Y1562450D3*
Y1542765D3*
Y1523080D3*
Y1503395D3*
Y1483710D3*
Y1464025D3*
Y1444340D3*
Y1424655D3*
Y1404970D3*
Y1385285D3*
Y1365600D3*
Y1345915D3*
Y1326230D3*
Y1306545D3*
Y1286860D3*
Y1267175D3*
Y1247490D3*
Y1227805D3*
Y1208120D3*
Y1188435D3*
D51*
X1971457Y1111663D3*
X1991142D3*
X2010827D3*
X2030512D3*
X2050197D3*
X2069882D3*
X2089567D3*
X2109252D3*
X2128937D3*
X2148622D3*
X2168307D3*
X2187992D3*
X2207677D3*
X2227362D3*
X2247047D3*
X2266732D3*
X2286418D3*
X2306103D3*
X2325788D3*
X2345473D3*
D50*
X2422244Y1188435D3*
Y1208120D3*
Y1227805D3*
Y1247490D3*
Y1267175D3*
Y1286860D3*
Y1306545D3*
Y1326230D3*
Y1345915D3*
Y1365600D3*
Y1385285D3*
Y1404970D3*
Y1424655D3*
Y1444340D3*
Y1464025D3*
Y1483710D3*
Y1503395D3*
Y1523080D3*
Y1542765D3*
Y1562450D3*
D51*
X2345473Y1639222D3*
X2325788D3*
X2306103D3*
X2286418D3*
X2266732D3*
X2247047D3*
X2227362D3*
X2207677D3*
X2187992D3*
X2168307D3*
X2148622D3*
X2128937D3*
X2109252D3*
X2089567D3*
X2069882D3*
X2050197D3*
X2030512D3*
X2010827D3*
X1991142D3*
X1971457D3*
D152*
X793701Y2524949D3*
X756299D3*
X718898D3*
Y2422579D3*
X793701D3*
D102*
X741831Y2254307D3*
Y2234622D3*
Y2214937D3*
Y2195252D3*
Y2175567D3*
Y2155882D3*
Y2136197D3*
D100*
X781201Y2096827D3*
X800886D3*
X820571D3*
X840256D3*
X859941D3*
X879626D3*
X899311D3*
D102*
X938681Y2136197D3*
Y2155882D3*
Y2175567D3*
Y2195252D3*
Y2214937D3*
Y2234622D3*
Y2254307D3*
D100*
X899311Y2293677D3*
X879626D3*
X859941D3*
X840256D3*
X820571D3*
X800886D3*
X781201D3*
D98*
X840256Y2195252D3*
D96*
X543701Y1187454D3*
X571260D3*
X598819D3*
X626378D3*
X653937D3*
X681496D3*
X709055D3*
X736614D3*
X764173D3*
X791732D3*
X819292D3*
X846851D3*
X874410D3*
X901969D3*
X929528D3*
X957087D3*
X984646D3*
X1012205D3*
X1039764D3*
X1067323D3*
X1094882D3*
X1122441D3*
X1150000D3*
X1177559D3*
X1205118D3*
X1232677D3*
X1260236D3*
X1287795D3*
X1315355D3*
X1342914D3*
D94*
X693670Y456457D3*
X731071D3*
X768473D3*
Y562756D3*
X693670D3*
D92*
X1299950Y593701D3*
X1280265D3*
X1260580D3*
X1240895D3*
X1221210D3*
D90*
X1211368Y564173D3*
Y544488D3*
Y524803D3*
D92*
X1240895Y495276D3*
X1260580D3*
X1280265D3*
X1299950D3*
D90*
X1309793Y524803D3*
Y544488D3*
Y564173D3*
D92*
X1221210Y495276D3*
D62*
X2530977Y2724969D3*
D63*
Y2824969D3*
X2430977Y2724969D3*
Y2824969D3*
X2330977Y2724969D3*
Y2824969D3*
D62*
X2230977Y2724969D3*
D63*
Y2824969D3*
D64*
X2293502Y2531239D3*
Y2481239D3*
Y2431239D3*
Y2381239D3*
X2506100D3*
Y2431239D3*
Y2481239D3*
Y2531239D3*
D134*
X1002314Y453078D3*
X1057432D3*
Y492841D3*
X1002314D3*
Y532605D3*
X1057432D3*
Y572369D3*
X1002314D3*
D68*
X1681066Y1465726D3*
Y1682261D3*
D82*
X1555082D3*
Y1465726D3*
D80*
X1584326Y1049954D3*
Y1239954D3*
D140*
X1462339Y567131D3*
Y500202D3*
X1806053Y568945D3*
Y502016D3*
D72*
X493701Y493701D3*
X2993701D3*
Y2793701D3*
X493701D3*
M02*
