%TF.GenerationSoftware,Novarm,DipTrace,3.2.0.1*%
%TF.CreationDate,2017-11-17T22:28:04-08:00*%
%FSLAX26Y26*%
%MOIN*%
%TF.FileFunction,Soldermask,Bot*%
%TF.Part,Single*%
%AMOUTLINE6*
4,1,4,
0.026163,0.026163,
0.026205,-0.026121,
-0.026121,-0.026205,
-0.026163,0.026163,
0.026163,0.026163,
0*%
%ADD30C,0.074*%
%ADD33C,0.052*%
%ADD41R,0.05937X0.05937*%
%ADD42C,0.05937*%
%ADD47R,0.059055X0.059055*%
%ADD48C,0.059055*%
%ADD50C,0.137795*%
%ADD51C,0.033465*%
%ADD59C,0.067055*%
%ADD87C,0.056*%
%ADD89R,0.055992X0.055992*%
%ADD106OUTLINE6*%
G75*
G01*
%LPD*%
D89*
X875251Y1572125D3*
D87*
Y1472125D3*
Y1372125D3*
Y1272125D3*
Y1172125D3*
X1175251D3*
Y1272125D3*
Y1372125D3*
Y1472125D3*
Y1572125D3*
D89*
X465875D3*
D87*
Y1472125D3*
Y1372125D3*
Y1272125D3*
Y1172125D3*
X765875D3*
Y1272125D3*
Y1372125D3*
Y1472125D3*
Y1572125D3*
D50*
X494000Y494000D3*
X2994000D3*
Y2794000D3*
X494000D3*
D51*
X560831Y2225054D3*
Y2075446D3*
D30*
X494000Y2444000D3*
Y2544000D3*
D106*
X469000Y1725249D3*
D30*
X569000Y1715249D3*
X669000Y1725249D3*
X769000Y1715249D3*
X869000Y1725249D3*
X969000Y1715249D3*
X1069000Y1725249D3*
X1169000Y1715249D3*
D33*
X1569000Y1369000D3*
X1669000D3*
D30*
X1287749Y1756500D3*
Y2012500D3*
X1465749Y1756500D3*
Y2012500D3*
X1550249Y469000D3*
Y725000D3*
X1728249Y469000D3*
Y725000D3*
X1885667Y469000D3*
Y725000D3*
X2063667Y469000D3*
Y725000D3*
X2221083Y469000D3*
Y725000D3*
X2399083Y469000D3*
Y725000D3*
X2556500Y469000D3*
Y725000D3*
X2734500Y469000D3*
Y725000D3*
D41*
X2590875Y2678375D3*
D42*
Y2778375D3*
X2490875Y2678375D3*
Y2778375D3*
X2390875Y2678375D3*
Y2778375D3*
D41*
X2290875Y2678375D3*
D42*
Y2778375D3*
D47*
X2844000Y687749D3*
D48*
Y787749D3*
Y887749D3*
Y987749D3*
Y1087749D3*
Y1187749D3*
Y1287749D3*
Y1387749D3*
Y1487749D3*
Y1587749D3*
Y1687749D3*
Y1787749D3*
Y1887749D3*
Y1987749D3*
Y2087749D3*
Y2187749D3*
Y2287749D3*
D59*
Y2387749D3*
Y2487749D3*
Y2587749D3*
D47*
X2944000Y687749D3*
D48*
Y787749D3*
Y887749D3*
Y987749D3*
Y1087749D3*
Y1187749D3*
Y1287749D3*
Y1387749D3*
Y1487749D3*
Y1587749D3*
Y1687749D3*
Y1787749D3*
Y1887749D3*
Y1987749D3*
Y2087749D3*
Y2187749D3*
Y2287749D3*
D59*
Y2387749D3*
Y2487749D3*
Y2587749D3*
D30*
X1306596Y481247D3*
X1206596Y491247D3*
X1106596Y481247D3*
X1006596Y491247D3*
X906596Y481247D3*
M02*
