%TF.GenerationSoftware,Novarm,DipTrace,3.2.0.1*%
%TF.CreationDate,2017-11-17T22:28:02-08:00*%
%FSLAX26Y26*%
%MOIN*%
%TF.FileFunction,Legend,Top*%
%TF.Part,Single*%
%ADD10C,0.009843*%
%ADD18C,0.006*%
%ADD19C,0.008*%
%ADD26C,0.005*%
%ADD28C,0.012*%
%ADD29C,0.000013*%
%ADD32C,0.016*%
%ADD34C,0.015768*%
%ADD38C,0.015697*%
%ADD43C,0.015733*%
%ADD97C,0.003088*%
%ADD98C,0.006176*%
%ADD99C,0.004632*%
G75*
G01*
%LPD*%
X1397760Y2419000D2*
D10*
X879020D1*
Y2887751D1*
X1397760D1*
Y2419000D1*
Y2531500D2*
X1285319Y2419000D1*
X879020Y2531500D2*
X991539Y2419000D1*
X1094462Y2221730D2*
D19*
Y2154806D1*
X970446D1*
Y2221730D1*
X1092490Y2296536D2*
Y2343787D1*
X1078712Y2359530D1*
X982252D1*
X970446Y2343787D1*
Y2296536D1*
Y2343787D2*
Y2296536D1*
X979859Y2281141D2*
X1082098D1*
X1256979Y2221730D2*
Y2154806D1*
X1132963D1*
Y2221730D1*
X1255007Y2296536D2*
Y2343787D1*
X1241229Y2359530D1*
X1144770D1*
X1132963Y2343787D1*
Y2296536D1*
Y2343787D2*
Y2296536D1*
X1142376Y2281141D2*
X1244615D1*
X705836Y2463144D2*
Y2512357D1*
X671588Y2463144D2*
X600724D1*
X671588Y2512357D2*
X600724D1*
X705836Y2366269D2*
Y2415482D1*
X671588Y2366269D2*
X600724D1*
X671588Y2415482D2*
X600724D1*
X1220251Y1117125D2*
D10*
X830251D1*
X1220251Y1627125D2*
Y1117125D1*
X830251D2*
Y1627125D1*
X1220251D1*
X810875Y1117125D2*
X420875D1*
X810875Y1627125D2*
Y1117125D1*
X420875D2*
Y1627125D1*
X810875D1*
X667751Y2655368D2*
D19*
Y2605370D1*
X607751D2*
Y2655368D1*
X591607Y2307469D2*
D28*
X552958D1*
Y2307745D1*
X592319D2*
Y2268364D1*
X552958Y1992792D2*
X592319D1*
Y2032127D1*
X434852Y2307745D2*
X395467D1*
X434852Y1992792D2*
X395467D1*
X444000Y2419000D2*
D19*
Y2469000D1*
X469000Y2494000D1*
X519000D2*
X544000Y2469000D1*
X469000Y2494000D2*
X444000Y2519000D1*
Y2569000D1*
X469000Y2594000D1*
X519000D2*
X544000Y2569000D1*
Y2519000D1*
X519000Y2494000D1*
X469000Y2394000D2*
X519000D1*
X444000Y2419000D2*
X469000Y2394000D1*
X519000D2*
X544000Y2419000D1*
Y2469000D2*
Y2419000D1*
X469000Y2594000D2*
X519000D1*
X1043960Y1770249D2*
X1094040D1*
X1119000Y1745249D1*
Y1695249D2*
X1094040Y1670249D1*
X919000Y1745249D2*
X944040Y1770249D1*
X994040D1*
X1019000Y1745249D1*
Y1695249D2*
X994040Y1670249D1*
X944040D1*
X919000Y1695249D1*
X1043960Y1770249D2*
X1019000Y1745249D1*
Y1695249D2*
X1043960Y1670249D1*
X1094040D2*
X1043960D1*
X743960Y1770249D2*
X794040D1*
X819000Y1745249D1*
Y1695249D2*
X794040Y1670249D1*
X819000Y1745249D2*
X844040Y1770249D1*
X894040D1*
X919000Y1745249D1*
Y1695249D2*
X894040Y1670249D1*
X844040D1*
X819000Y1695249D1*
X619000Y1745249D2*
X644040Y1770249D1*
X694040D1*
X719000Y1745249D1*
Y1695249D2*
X694040Y1670249D1*
X644040D1*
X619000Y1695249D1*
X743960Y1770249D2*
X719000Y1745249D1*
Y1695249D2*
X743960Y1670249D1*
X794040D2*
X743960D1*
X443960Y1770249D2*
X494040D1*
X519000Y1745249D1*
Y1695249D2*
X494040Y1670249D1*
X519000Y1745249D2*
X544040Y1770249D1*
X594040D1*
X619000Y1745249D1*
Y1695249D2*
X594040Y1670249D1*
X544040D1*
X519000Y1695249D1*
X419000Y1745249D2*
Y1695249D1*
X443960Y1770249D2*
X419000Y1745249D1*
Y1695249D2*
X443960Y1670249D1*
X494040D2*
X443960D1*
X1144040Y1770249D2*
X1194040D1*
X1219000Y1745249D1*
Y1695249D1*
X1194040Y1670249D1*
X1144040Y1770249D2*
X1119000Y1745249D1*
Y1695249D2*
X1144040Y1670249D1*
X1194040D2*
X1144040D1*
X1751776Y1380211D2*
D18*
Y1403836D1*
X1799020Y1380211D2*
Y1403836D1*
X1805269Y1557994D2*
Y1534369D1*
X1758025Y1557994D2*
Y1534369D1*
X2220572Y2330311D2*
Y2353936D1*
X2267816Y2330311D2*
Y2353936D1*
X1371031Y2101861D2*
D19*
Y2083751D1*
Y2065640D2*
Y2083751D1*
X1383238Y2092954D1*
X1371638Y2082751D2*
X1383238Y2075152D1*
X872363Y1974612D2*
Y1956501D1*
Y1938391D2*
Y1956501D1*
X884570Y1965705D1*
X872970Y1955502D2*
X884570Y1947903D1*
X739031Y1974612D2*
Y1956501D1*
Y1938391D2*
Y1956501D1*
X751238Y1965705D1*
X739638Y1955502D2*
X751238Y1947903D1*
X1139030Y1974612D2*
Y1956501D1*
Y1938391D2*
Y1956501D1*
X1151236Y1965705D1*
X1139637Y1955502D2*
X1151236Y1947903D1*
X1005697Y1974612D2*
Y1956501D1*
Y1938391D2*
Y1956501D1*
X1017903Y1965705D1*
X1006303Y1955502D2*
X1017903Y1947903D1*
X2639030Y824610D2*
Y806500D1*
Y788390D2*
Y806500D1*
X2651236Y815704D1*
X2639637Y805500D2*
X2651236Y797901D1*
X2305697Y824610D2*
Y806500D1*
Y788390D2*
Y806500D1*
X2317903Y815704D1*
X2306303Y805500D2*
X2317903Y797901D1*
X1972365Y824610D2*
Y806500D1*
Y788390D2*
Y806500D1*
X1984571Y815704D1*
X1972971Y805500D2*
X1984571Y797901D1*
X1639031Y824610D2*
Y806500D1*
Y788390D2*
Y806500D1*
X1651238Y815704D1*
X1639638Y805500D2*
X1651238Y797901D1*
X1801682Y2156033D2*
Y2137923D1*
Y2119812D2*
Y2137923D1*
X1813889Y2147126D1*
X1802289Y2136923D2*
X1813889Y2129324D1*
X1607912Y2156033D2*
Y2137923D1*
Y2119812D2*
Y2137923D1*
X1620118Y2147126D1*
X1608519Y2136923D2*
X1620118Y2129324D1*
X2095463Y2143531D2*
Y2125421D1*
Y2107311D2*
Y2125421D1*
X2107669Y2134625D1*
X2096070Y2124422D2*
X2107669Y2116823D1*
X2807781Y2743361D2*
Y2725251D1*
Y2707140D2*
Y2725251D1*
X2819987Y2734454D1*
X2808387Y2724251D2*
X2819987Y2716652D1*
X2807781Y2837110D2*
Y2819000D1*
Y2800890D2*
Y2819000D1*
X2819987Y2828204D1*
X2808387Y2818000D2*
X2819987Y2810401D1*
X1563526Y2266501D2*
Y2786210D1*
X2114708Y2742887D2*
Y2266501D1*
X1654091Y2868887D2*
X1622585D1*
X1720998Y2801919D2*
X2051753D1*
X1563526Y2266501D2*
X1756457D1*
X1980836D2*
X1862775D1*
X2114708D2*
X2087154D1*
X1654091Y2868887D2*
G02X1681645Y2841273I1919J-25639D01*
G01*
G03X1720998Y2801919I40403J1049D01*
G01*
G36*
X1646998Y1432006D2*
X1631023D1*
Y1409001D1*
X1646998D1*
Y1432006D1*
G37*
G36*
X1607007D2*
X1591017D1*
Y1409001D1*
X1607007D1*
Y1432006D1*
G37*
X1583994Y1433992D2*
D18*
X1654006D1*
X1649005Y1674000D2*
G02X1659006Y1664004I-35J-10037D01*
G01*
X1578994D2*
G02X1588995Y1674000I10006J-10D01*
G01*
X1649005D1*
X1654006Y1433992D2*
Y1448986D1*
X1659006D2*
Y1664004D1*
X1583994Y1433992D2*
Y1448986D1*
X1578994D2*
X1583994D1*
X1578994D2*
Y1664004D1*
X1639003Y1399005D2*
D32*
Y1413999D1*
X1598997Y1399005D2*
Y1418998D1*
Y1564009D2*
D18*
Y1549014D1*
X1639003D2*
X1598997D1*
X1639003D2*
Y1564009D1*
X1598997D2*
X1639003D1*
X1598997Y1579003D2*
X1619000D1*
X1598997Y1533987D2*
X1619000D1*
Y1513995D1*
Y1533987D2*
X1639003D1*
X1619000Y1579003D2*
Y1598995D1*
Y1579003D2*
X1639003D1*
X1659006Y1448986D2*
X1654006D1*
X1583994D1*
X1306744Y1884500D2*
D29*
G02X1306744Y1884500I70006J0D01*
G01*
X1256747Y1969508D2*
D19*
Y1799492D1*
X1496752D2*
Y1969508D1*
X1337463Y2004488D2*
X1416742D1*
X1336278Y1764512D2*
X1416742D1*
X1569244Y597000D2*
D29*
G02X1569244Y597000I70006J0D01*
G01*
X1519247Y682008D2*
D19*
Y511992D1*
X1759252D2*
Y682008D1*
X1599963Y716988D2*
X1679242D1*
X1598778Y477012D2*
X1679242D1*
X1904661Y597000D2*
D29*
G02X1904661Y597000I70006J0D01*
G01*
X1854664Y682008D2*
D19*
Y511992D1*
X2094669D2*
Y682008D1*
X1935380Y716988D2*
X2014659D1*
X1934195Y477012D2*
X2014659D1*
X2240077Y597000D2*
D29*
G02X2240077Y597000I70006J0D01*
G01*
X2190080Y682008D2*
D19*
Y511992D1*
X2430085D2*
Y682008D1*
X2270796Y716988D2*
X2350075D1*
X2269611Y477012D2*
X2350075D1*
X2575494Y597000D2*
D29*
G02X2575494Y597000I70006J0D01*
G01*
X2525498Y682008D2*
D19*
Y511992D1*
X2765502D2*
Y682008D1*
X2606213Y716988D2*
X2685492D1*
X2605029Y477012D2*
X2685492D1*
X1942209Y1592297D2*
D10*
X2375319D1*
Y1159186D1*
X1942209D1*
Y1592297D1*
G36*
D2*
Y1552907D1*
X1981598Y1592297D1*
X1942209D1*
G37*
D34*
X1894994D3*
X892914Y2310259D2*
D19*
X743311D1*
Y2160651D1*
X892914D1*
Y2310259D1*
X855226Y2492190D2*
D29*
G02X855226Y2492190I4999J0D01*
G01*
X747227Y2435284D2*
D19*
Y2469097D1*
X847223D2*
Y2435284D1*
X807788Y2424287D2*
X786661D1*
X2120986Y2026802D2*
D10*
Y1829948D1*
X2223363Y2026802D2*
Y1829948D1*
X2120986D2*
X2223363D1*
X2152480Y2026802D2*
X2120986D1*
X2191869D2*
X2223363D1*
X2152480D2*
G03X2191869Y2026802I19694J9D01*
G01*
D38*
X1281607Y842460D3*
X1180735Y999511D2*
D26*
Y1007779D1*
X1064206D1*
X1180735Y939670D2*
Y930617D1*
X1063027D1*
X1023646Y966837D2*
Y972741D1*
G36*
X754024Y779940D2*
X722500D1*
Y811424D1*
X754024D1*
Y779940D1*
G37*
G36*
Y551605D2*
X722500D1*
Y583088D1*
X754024D1*
Y551605D1*
G37*
X757957Y815386D2*
D26*
Y547669D1*
X639846D1*
Y815386D2*
X757957D1*
X639846D2*
Y779940D1*
Y547669D2*
Y583115D1*
Y779940D2*
X651657D1*
X639846Y583115D2*
X651657D1*
X651528Y734027D2*
Y729020D1*
Y684017D2*
Y679038D1*
Y634035D2*
Y629028D1*
X726015Y998307D2*
X678767D1*
X726015Y935315D2*
X678767D1*
X710266Y943189D2*
X694516D1*
X2730875Y2828375D2*
Y2078375D1*
Y1828375D1*
X2150875D1*
Y2078375D1*
Y2828375D1*
X2265889D1*
X2315885D1*
X2365881D1*
X2415877D1*
X2465873D1*
X2515869D1*
X2565865D1*
X2615861D1*
X2730875D1*
Y2078375D2*
X2150875D1*
X2615861Y2828375D2*
X2640859Y2803375D1*
Y2753375D1*
X2615861Y2728375D1*
X2640859Y2703375D1*
Y2653375D1*
X2615861Y2628375D1*
X2565865D1*
X2540867Y2653375D1*
X2515869Y2628375D1*
X2465873D1*
X2440875Y2653375D1*
X2415877Y2628375D1*
X2365881D1*
X2340883Y2653375D1*
X2315885Y2628375D1*
X2265889D1*
X2240891Y2653375D1*
Y2703375D1*
X2265889Y2728375D1*
X2240891Y2753375D1*
Y2803375D1*
X2265889Y2828375D1*
X2315885D2*
X2340883Y2803375D1*
X2365881Y2828375D1*
X2415877D2*
X2440875Y2803375D1*
X2465873Y2828375D1*
X2515869D2*
X2540867Y2803375D1*
X2565865Y2828375D1*
D43*
X1450817Y1512662D3*
X1480348Y1298144D2*
D10*
Y1286345D1*
X1468531D1*
X1283490Y1298144D2*
Y1286345D1*
X1295306D2*
X1283490D1*
Y1483115D2*
Y1471341D1*
X1295306Y1483115D2*
X1283490D1*
X1480348Y1471341D2*
X1468531Y1483115D1*
X2794000Y713749D2*
Y2637749D1*
Y637749D2*
Y713749D1*
X2894000Y637749D2*
X2794000D1*
X2894000D2*
Y2637749D1*
X2794000D1*
X2894000Y713749D2*
Y2637749D1*
Y637749D2*
Y713749D1*
X2994000Y637749D2*
X2894000D1*
X2994000D2*
Y2637749D1*
X2894000D1*
X1031596Y436247D2*
D19*
X981596D1*
X956596Y461247D1*
Y511247D2*
X981596Y536247D1*
X956596Y461247D2*
X931596Y436247D1*
X881596D1*
X856596Y461247D1*
Y511247D2*
X881596Y536247D1*
X931596D1*
X956596Y511247D1*
X1156596Y461247D2*
X1131596Y436247D1*
X1081596D1*
X1056596Y461247D1*
Y511247D2*
X1081596Y536247D1*
X1131596D1*
X1156596Y511247D1*
X1031596Y436247D2*
X1056596Y461247D1*
Y511247D2*
X1031596Y536247D1*
X981596D2*
X1031596D1*
X1331596Y436247D2*
X1281596D1*
X1256596Y461247D1*
Y511247D2*
X1281596Y536247D1*
X1256596Y461247D2*
X1231596Y436247D1*
X1181596D1*
X1156596Y461247D1*
Y511247D2*
X1181596Y536247D1*
X1231596D1*
X1256596Y511247D1*
X1356596Y461247D2*
Y511247D1*
X1331596Y436247D2*
X1356596Y461247D1*
Y511247D2*
X1331596Y536247D1*
X1281596D2*
X1331596D1*
X856596Y461247D2*
Y511247D1*
X1327777Y762790D2*
X1362778D1*
X1347777Y777790D1*
X1362778Y762790D2*
X1347777Y747790D1*
Y790289D2*
Y830289D1*
X1332777Y815289D1*
X1347777Y830289D2*
X1362778Y815289D1*
X1331598Y715898D2*
G02X1331598Y715898I15627J0D01*
G01*
X1344100D2*
G02X1344100Y715898I3125J0D01*
G01*
X1108819Y2917040D2*
D97*
Y2896944D1*
X1117441D1*
X1120315Y2897917D1*
X1121266Y2898867D1*
X1122217Y2900769D1*
Y2903643D1*
X1121266Y2905566D1*
X1120315Y2906517D1*
X1117441Y2907467D1*
X1120315Y2908440D1*
X1121266Y2909391D1*
X1122217Y2911292D1*
Y2913215D1*
X1121266Y2915117D1*
X1120315Y2916089D1*
X1117441Y2917040D1*
X1108819D1*
Y2907467D2*
X1117441D1*
X1143713Y2896944D2*
X1136042Y2917040D1*
X1128392Y2896944D1*
X1131266Y2903643D2*
X1140839D1*
X1156588Y2917040D2*
Y2896944D1*
X1149889Y2917040D2*
X1163286D1*
X1169462Y2913193D2*
X1171385Y2914166D1*
X1174259Y2917018D1*
Y2896944D1*
X1069430Y2412194D2*
X1079931D1*
X1074205Y2404545D1*
X1077079D1*
X1078981Y2403594D1*
X1079931Y2402644D1*
X1080904Y2399770D1*
Y2397869D1*
X1079931Y2394995D1*
X1078030Y2393071D1*
X1075156Y2392121D1*
X1072282D1*
X1069430Y2393071D1*
X1068480Y2394044D1*
X1067507Y2395945D1*
X1092828Y2412194D2*
X1089954Y2411244D1*
X1088030Y2408370D1*
X1087080Y2403594D1*
Y2400720D1*
X1088030Y2395945D1*
X1089954Y2393071D1*
X1092828Y2392121D1*
X1094729D1*
X1097603Y2393071D1*
X1099504Y2395945D1*
X1100477Y2400720D1*
Y2403594D1*
X1099504Y2408370D1*
X1097603Y2411244D1*
X1094729Y2412194D1*
X1092828D1*
X1099504Y2408370D2*
X1088030Y2395945D1*
X1112401Y2412194D2*
X1109527Y2411244D1*
X1107604Y2408370D1*
X1106653Y2403594D1*
Y2400720D1*
X1107604Y2395945D1*
X1109527Y2393071D1*
X1112401Y2392121D1*
X1114302D1*
X1117176Y2393071D1*
X1119077Y2395945D1*
X1120050Y2400720D1*
Y2403594D1*
X1119077Y2408370D1*
X1117176Y2411244D1*
X1114302Y2412194D1*
X1112401D1*
X1119077Y2408370D2*
X1107604Y2395945D1*
X1131974Y2412194D2*
X1129100Y2411244D1*
X1127177Y2408370D1*
X1126226Y2403594D1*
Y2400720D1*
X1127177Y2395945D1*
X1129100Y2393071D1*
X1131974Y2392121D1*
X1133875D1*
X1136749Y2393071D1*
X1138650Y2395945D1*
X1139623Y2400720D1*
Y2403594D1*
X1138650Y2408370D1*
X1136749Y2411244D1*
X1133875Y2412194D1*
X1131974D1*
X1138650Y2408370D2*
X1127177Y2395945D1*
X1145799Y2412217D2*
Y2392121D1*
X1159196Y2412217D2*
X1145799Y2398819D1*
X1150574Y2403617D2*
X1159196Y2392121D1*
X1165372Y2402157D2*
X1176426D1*
X1195999Y2412217D2*
Y2392121D1*
X1182602Y2412217D1*
Y2392121D1*
X1202175Y2412217D2*
Y2392121D1*
X1208873D1*
X1211747Y2393093D1*
X1213671Y2394995D1*
X1214621Y2396918D1*
X1215572Y2399770D1*
Y2404567D1*
X1214621Y2407441D1*
X1213671Y2409343D1*
X1211747Y2411266D1*
X1208873Y2412217D1*
X1202175D1*
X2099905Y1757077D2*
X2098955Y1758978D1*
X2097031Y1760902D1*
X2095130Y1761852D1*
X2091305D1*
X2089382Y1760902D1*
X2087481Y1758978D1*
X2086508Y1757077D1*
X2085557Y1754203D1*
Y1749406D1*
X2086508Y1746554D1*
X2087481Y1744630D1*
X2089382Y1742729D1*
X2091305Y1741756D1*
X2095130D1*
X2097031Y1742729D1*
X2098955Y1744630D1*
X2099905Y1746554D1*
X2106081Y1758005D2*
X2108004Y1758978D1*
X2110878Y1761830D1*
Y1741756D1*
X2068775Y1032001D2*
X2067824Y1033902D1*
X2065901Y1035825D1*
X2063999Y1036776D1*
X2060175D1*
X2058251Y1035825D1*
X2056350Y1033902D1*
X2055377Y1032001D1*
X2054427Y1029127D1*
Y1024329D1*
X2055377Y1021478D1*
X2056350Y1019554D1*
X2058251Y1017653D1*
X2060175Y1016680D1*
X2063999D1*
X2065901Y1017653D1*
X2067824Y1019554D1*
X2068775Y1021478D1*
X2076874Y1036754D2*
X2087375D1*
X2081649Y1029105D1*
X2084523D1*
X2086424Y1028154D1*
X2087375Y1027203D1*
X2088348Y1024329D1*
Y1022428D1*
X2087375Y1019554D1*
X2085474Y1017631D1*
X2082600Y1016680D1*
X2079726D1*
X2076874Y1017631D1*
X2075923Y1018603D1*
X2074950Y1020505D1*
X2556054Y1321260D2*
X2554153Y1320309D1*
X2552230Y1318386D1*
X2551279Y1316485D1*
Y1312660D1*
X2552230Y1310737D1*
X2554153Y1308835D1*
X2556054Y1307863D1*
X2558928Y1306912D1*
X2563726D1*
X2566578Y1307863D1*
X2568501Y1308835D1*
X2570402Y1310737D1*
X2571375Y1312660D1*
Y1316485D1*
X2570402Y1318386D1*
X2568501Y1320309D1*
X2566578Y1321260D1*
X2571375Y1337008D2*
X2551301D1*
X2564676Y1327436D1*
Y1341784D1*
X2273364Y1025892D2*
X2272413Y1027793D1*
X2270490Y1029717D1*
X2268589Y1030667D1*
X2264764D1*
X2262841Y1029717D1*
X2260939Y1027793D1*
X2259967Y1025892D1*
X2259016Y1023018D1*
Y1018220D1*
X2259967Y1015369D1*
X2260939Y1013445D1*
X2262841Y1011544D1*
X2264764Y1010571D1*
X2268589D1*
X2270490Y1011544D1*
X2272413Y1013445D1*
X2273364Y1015369D1*
X2291014Y1030645D2*
X2281463D1*
X2280512Y1022045D1*
X2281463Y1022996D1*
X2284337Y1023969D1*
X2287189D1*
X2290063Y1022996D1*
X2291986Y1021095D1*
X2292937Y1018220D1*
Y1016319D1*
X2291986Y1013445D1*
X2290063Y1011522D1*
X2287189Y1010571D1*
X2284337D1*
X2281463Y1011522D1*
X2280512Y1012495D1*
X2279540Y1014396D1*
X2552930Y1634723D2*
X2551028Y1633772D1*
X2549105Y1631849D1*
X2548154Y1629948D1*
Y1626123D1*
X2549105Y1624200D1*
X2551028Y1622298D1*
X2552930Y1621326D1*
X2555804Y1620375D1*
X2560601D1*
X2563453Y1621326D1*
X2565376Y1622298D1*
X2567278Y1624200D1*
X2568250Y1626123D1*
Y1629948D1*
X2567278Y1631849D1*
X2565376Y1633772D1*
X2563453Y1634723D1*
X2551028Y1652373D2*
X2549127Y1651422D1*
X2548177Y1648548D1*
Y1646647D1*
X2549127Y1643773D1*
X2552001Y1641849D1*
X2556776Y1640899D1*
X2561552D1*
X2565376Y1641849D1*
X2567300Y1643773D1*
X2568250Y1646647D1*
Y1647597D1*
X2567300Y1650449D1*
X2565376Y1652373D1*
X2562502Y1653323D1*
X2561552D1*
X2558678Y1652373D1*
X2556776Y1650449D1*
X2555826Y1647597D1*
Y1646647D1*
X2556776Y1643773D1*
X2558678Y1641849D1*
X2561552Y1640899D1*
X1781054Y1157914D2*
X1779153Y1156963D1*
X1777230Y1155040D1*
X1776279Y1153139D1*
Y1149314D1*
X1777230Y1147391D1*
X1779153Y1145489D1*
X1781054Y1144517D1*
X1783928Y1143566D1*
X1788726D1*
X1791578Y1144517D1*
X1793501Y1145489D1*
X1795402Y1147391D1*
X1796375Y1149314D1*
Y1153138D1*
X1795402Y1155040D1*
X1793501Y1156963D1*
X1791578Y1157914D1*
X1796375Y1167914D2*
X1776301Y1177487D1*
Y1164089D1*
X1712339Y1586350D2*
X1711389Y1588251D1*
X1709465Y1590175D1*
X1707564Y1591125D1*
X1703740D1*
X1701816Y1590175D1*
X1699915Y1588251D1*
X1698942Y1586350D1*
X1697991Y1583476D1*
Y1578678D1*
X1698942Y1575827D1*
X1699915Y1573903D1*
X1701816Y1572002D1*
X1703740Y1571029D1*
X1707564D1*
X1709465Y1572002D1*
X1711389Y1573903D1*
X1712339Y1575827D1*
X1723290Y1591103D2*
X1720439Y1590152D1*
X1719466Y1588251D1*
Y1586328D1*
X1720439Y1584427D1*
X1722340Y1583454D1*
X1726164Y1582503D1*
X1729038Y1581553D1*
X1730940Y1579629D1*
X1731890Y1577728D1*
Y1574854D1*
X1730940Y1572953D1*
X1729989Y1571980D1*
X1727115Y1571029D1*
X1723290D1*
X1720439Y1571980D1*
X1719466Y1572953D1*
X1718515Y1574854D1*
Y1577728D1*
X1719466Y1579629D1*
X1721389Y1581553D1*
X1724241Y1582503D1*
X1728066Y1583454D1*
X1729989Y1584427D1*
X1730940Y1586328D1*
Y1588251D1*
X1729989Y1590152D1*
X1727115Y1591103D1*
X1723290D1*
X1643931Y1172456D2*
X1642980Y1174357D1*
X1641057Y1176281D1*
X1639156Y1177231D1*
X1635331D1*
X1633408Y1176281D1*
X1631506Y1174357D1*
X1630534Y1172456D1*
X1629583Y1169582D1*
Y1164785D1*
X1630534Y1161933D1*
X1631506Y1160010D1*
X1633408Y1158108D1*
X1635331Y1157135D1*
X1639156D1*
X1641057Y1158108D1*
X1642980Y1160010D1*
X1643931Y1161933D1*
X1662553Y1170533D2*
X1661581Y1167659D1*
X1659679Y1165735D1*
X1656805Y1164785D1*
X1655855D1*
X1652981Y1165735D1*
X1651079Y1167659D1*
X1650107Y1170533D1*
Y1171483D1*
X1651079Y1174357D1*
X1652981Y1176259D1*
X1655855Y1177209D1*
X1656805D1*
X1659679Y1176259D1*
X1661581Y1174357D1*
X1662553Y1170533D1*
Y1165735D1*
X1661581Y1160960D1*
X1659679Y1158086D1*
X1656805Y1157135D1*
X1654904D1*
X1652030Y1158086D1*
X1651079Y1160010D1*
X1581719Y1166206D2*
X1580768Y1168107D1*
X1578844Y1170030D1*
X1576943Y1170981D1*
X1573119D1*
X1571195Y1170030D1*
X1569294Y1168107D1*
X1568321Y1166206D1*
X1567371Y1163332D1*
Y1158534D1*
X1568321Y1155682D1*
X1569294Y1153759D1*
X1571195Y1151858D1*
X1573119Y1150885D1*
X1576943D1*
X1578844Y1151858D1*
X1580768Y1153759D1*
X1581719Y1155682D1*
X1587894Y1167134D2*
X1589818Y1168107D1*
X1592692Y1170959D1*
Y1150885D1*
X1604615Y1170959D2*
X1601741Y1170008D1*
X1599818Y1167134D1*
X1598867Y1162359D1*
Y1159485D1*
X1599818Y1154709D1*
X1601741Y1151835D1*
X1604615Y1150885D1*
X1606517D1*
X1609391Y1151835D1*
X1611292Y1154709D1*
X1612265Y1159485D1*
Y1162359D1*
X1611292Y1167134D1*
X1609391Y1170008D1*
X1606517Y1170959D1*
X1604615D1*
X1611292Y1167134D2*
X1599818Y1154709D1*
X1028639Y2134024D2*
X1027689Y2135926D1*
X1025765Y2137849D1*
X1023864Y2138800D1*
X1020039D1*
X1018116Y2137849D1*
X1016215Y2135926D1*
X1015242Y2134024D1*
X1014291Y2131150D1*
Y2126353D1*
X1015242Y2123501D1*
X1016215Y2121578D1*
X1018116Y2119676D1*
X1020039Y2118704D1*
X1023864D1*
X1025765Y2119676D1*
X1027689Y2121578D1*
X1028639Y2123501D1*
X1034815Y2134953D2*
X1036738Y2135926D1*
X1039612Y2138778D1*
Y2118704D1*
X1045788Y2134953D2*
X1047711Y2135926D1*
X1050585Y2138778D1*
Y2118704D1*
X1003339Y2240432D2*
Y2260505D1*
X993766Y2247130D1*
X1008114D1*
X1015241Y2242355D2*
X1014290Y2241382D1*
X1015241Y2240432D1*
X1016213Y2241382D1*
X1015241Y2242355D1*
X1026214Y2240432D2*
X1035786Y2260505D1*
X1022389D1*
X1041962Y2253829D2*
Y2244256D1*
X1042913Y2241404D1*
X1044836Y2240432D1*
X1047710D1*
X1049611Y2241404D1*
X1052485Y2244256D1*
Y2253829D2*
Y2240432D1*
X1071108Y2260528D2*
X1058661D1*
Y2240432D1*
Y2250955D2*
X1066310D1*
X1186856Y2134024D2*
X1185906Y2135926D1*
X1183982Y2137849D1*
X1182081Y2138800D1*
X1178256D1*
X1176333Y2137849D1*
X1174432Y2135926D1*
X1173459Y2134024D1*
X1172508Y2131150D1*
Y2126353D1*
X1173459Y2123501D1*
X1174432Y2121578D1*
X1176333Y2119676D1*
X1178256Y2118704D1*
X1182081D1*
X1183982Y2119676D1*
X1185906Y2121578D1*
X1186856Y2123501D1*
X1193032Y2134953D2*
X1194955Y2135926D1*
X1197829Y2138778D1*
Y2118704D1*
X1204978Y2134002D2*
Y2134953D1*
X1205928Y2136876D1*
X1206879Y2137827D1*
X1208802Y2138778D1*
X1212627D1*
X1214528Y2137827D1*
X1215479Y2136876D1*
X1216452Y2134953D1*
Y2133052D1*
X1215479Y2131128D1*
X1213578Y2128276D1*
X1204005Y2118704D1*
X1217402D1*
X1162733Y2260505D2*
X1173234D1*
X1167508Y2252856D1*
X1170382D1*
X1172283Y2251905D1*
X1173234Y2250955D1*
X1174207Y2248081D1*
Y2246180D1*
X1173234Y2243306D1*
X1171333Y2241382D1*
X1168459Y2240432D1*
X1165585D1*
X1162733Y2241382D1*
X1161782Y2242355D1*
X1160809Y2244256D1*
X1182306Y2260505D2*
X1192807D1*
X1187081Y2252856D1*
X1189955D1*
X1191856Y2251905D1*
X1192807Y2250955D1*
X1193780Y2248081D1*
Y2246180D1*
X1192807Y2243306D1*
X1190906Y2241382D1*
X1188032Y2240432D1*
X1185158D1*
X1182306Y2241382D1*
X1181355Y2242355D1*
X1180383Y2244256D1*
X1199956Y2253829D2*
Y2244256D1*
X1200906Y2241404D1*
X1202830Y2240432D1*
X1205704D1*
X1207605Y2241404D1*
X1210479Y2244256D1*
Y2253829D2*
Y2240432D1*
X1229101Y2260528D2*
X1216655D1*
Y2240432D1*
Y2250955D2*
X1224304D1*
X2306686Y1782062D2*
X2305735Y1783964D1*
X2303812Y1785887D1*
X2301910Y1786838D1*
X2298086D1*
X2296162Y1785887D1*
X2294261Y1783964D1*
X2293288Y1782062D1*
X2292338Y1779188D1*
Y1774391D1*
X2293288Y1771539D1*
X2294261Y1769616D1*
X2296162Y1767715D1*
X2298086Y1766742D1*
X2301910D1*
X2303812Y1767715D1*
X2305735Y1769616D1*
X2306686Y1771539D1*
X2312861Y1782991D2*
X2314785Y1783964D1*
X2317659Y1786816D1*
Y1766742D1*
X2325758Y1786816D2*
X2336259D1*
X2330533Y1779166D1*
X2333407D1*
X2335308Y1778216D1*
X2336259Y1777265D1*
X2337232Y1774391D1*
Y1772490D1*
X2336259Y1769616D1*
X2334358Y1767692D1*
X2331484Y1766742D1*
X2328610D1*
X2325758Y1767692D1*
X2324807Y1768665D1*
X2323834Y1770566D1*
X1318556Y2336346D2*
X1316654Y2335395D1*
X1314731Y2333472D1*
X1313780Y2331570D1*
Y2327746D1*
X1314731Y2325822D1*
X1316654Y2323921D1*
X1318556Y2322948D1*
X1321430Y2321998D1*
X1326227D1*
X1329079Y2322948D1*
X1331002Y2323921D1*
X1332904Y2325822D1*
X1333876Y2327746D1*
Y2331570D1*
X1332904Y2333472D1*
X1331002Y2335395D1*
X1329079Y2336346D1*
X1317627Y2342521D2*
X1316654Y2344445D1*
X1313802Y2347319D1*
X1333876D1*
Y2363067D2*
X1313802D1*
X1327178Y2353494D1*
Y2367842D1*
X1833266Y1973401D2*
X1831364Y1972450D1*
X1829441Y1970527D1*
X1828490Y1968626D1*
Y1964801D1*
X1829441Y1962878D1*
X1831364Y1960976D1*
X1833266Y1960004D1*
X1836140Y1959053D1*
X1840937D1*
X1843789Y1960004D1*
X1845712Y1960976D1*
X1847614Y1962878D1*
X1848586Y1964801D1*
Y1968626D1*
X1847614Y1970527D1*
X1845712Y1972450D1*
X1843789Y1973401D1*
X1832337Y1979577D2*
X1831364Y1981500D1*
X1828512Y1984374D1*
X1848586D1*
X1828512Y2002024D2*
Y1992473D1*
X1837112Y1991522D1*
X1836162Y1992473D1*
X1835189Y1995347D1*
Y1998199D1*
X1836162Y2001073D1*
X1838063Y2002996D1*
X1840937Y2003947D1*
X1842838D1*
X1845712Y2002996D1*
X1847636Y2001073D1*
X1848586Y1998199D1*
Y1995347D1*
X1847636Y1992473D1*
X1846663Y1991522D1*
X1844762Y1990550D1*
X1140472Y793574D2*
X1138570Y792623D1*
X1136647Y790700D1*
X1135696Y788798D1*
Y784974D1*
X1136647Y783050D1*
X1138570Y781149D1*
X1140472Y780176D1*
X1143346Y779226D1*
X1148143D1*
X1150995Y780176D1*
X1152918Y781149D1*
X1154820Y783050D1*
X1155792Y784974D1*
Y788798D1*
X1154820Y790700D1*
X1152918Y792623D1*
X1150995Y793574D1*
X1139543Y799749D2*
X1138570Y801673D1*
X1135719Y804547D1*
X1155792D1*
X1138570Y822196D2*
X1136669Y821246D1*
X1135719Y818372D1*
Y816471D1*
X1136669Y813597D1*
X1139543Y811673D1*
X1144318Y810722D1*
X1149094D1*
X1152918Y811673D1*
X1154842Y813596D1*
X1155792Y816470D1*
Y817421D1*
X1154842Y820273D1*
X1152918Y822196D1*
X1150044Y823147D1*
X1149094D1*
X1146220Y822196D1*
X1144318Y820273D1*
X1143368Y817421D1*
Y816470D1*
X1144318Y813596D1*
X1146220Y811673D1*
X1149094Y810722D1*
X1139169Y724337D2*
X1137267Y723386D1*
X1135344Y721463D1*
X1134393Y719561D1*
Y715737D1*
X1135344Y713813D1*
X1137267Y711912D1*
X1139168Y710939D1*
X1142042Y709989D1*
X1146840D1*
X1149692Y710939D1*
X1151615Y711912D1*
X1153516Y713813D1*
X1154489Y715737D1*
Y719561D1*
X1153517Y721463D1*
X1151615Y723386D1*
X1149692Y724337D1*
X1138240Y730512D2*
X1137267Y732436D1*
X1134415Y735310D1*
X1154489D1*
Y745310D2*
X1134415Y754883D1*
Y741485D1*
X543550Y969377D2*
X541649Y968426D1*
X539726Y966503D1*
X538775Y964601D1*
Y960777D1*
X539726Y958853D1*
X541649Y956952D1*
X543550Y955979D1*
X546424Y955029D1*
X551222D1*
X554074Y955979D1*
X555997Y956952D1*
X557898Y958853D1*
X558871Y960777D1*
Y964601D1*
X557898Y966503D1*
X555997Y968426D1*
X554074Y969377D1*
X542622Y975552D2*
X541649Y977476D1*
X538797Y980350D1*
X558871D1*
X538797Y991301D2*
X539748Y988449D1*
X541649Y987476D1*
X543573D1*
X545474Y988449D1*
X546447Y990350D1*
X547397Y994175D1*
X548348Y997049D1*
X550271Y998950D1*
X552172Y999901D1*
X555046D1*
X556948Y998950D1*
X557920Y997999D1*
X558871Y995125D1*
Y991301D1*
X557920Y988449D1*
X556948Y987476D1*
X555046Y986525D1*
X552172D1*
X550271Y987476D1*
X548348Y989399D1*
X547397Y992251D1*
X546447Y996076D1*
X545474Y997999D1*
X543573Y998950D1*
X541649D1*
X539748Y997999D1*
X538797Y995125D1*
Y991301D1*
X539532Y723901D2*
X537631Y722951D1*
X535707Y721027D1*
X534757Y719126D1*
Y715301D1*
X535707Y713378D1*
X537631Y711477D1*
X539532Y710504D1*
X542406Y709553D1*
X547203D1*
X550055Y710504D1*
X551979Y711477D1*
X553880Y713378D1*
X554853Y715301D1*
Y719126D1*
X553880Y721027D1*
X551979Y722951D1*
X550055Y723901D1*
X538604Y730077D2*
X537631Y732000D1*
X534779Y734874D1*
X554853D1*
X541455Y753497D2*
X544329Y752524D1*
X546253Y750623D1*
X547203Y747749D1*
Y746798D1*
X546253Y743924D1*
X544329Y742023D1*
X541455Y741050D1*
X540505D1*
X537631Y742023D1*
X535730Y743924D1*
X534779Y746798D1*
Y747749D1*
X535730Y750623D1*
X537631Y752524D1*
X541455Y753497D1*
X546253D1*
X551028Y752524D1*
X553902Y750623D1*
X554853Y747749D1*
Y745847D1*
X553902Y742973D1*
X551979Y742023D1*
X2131238Y2329584D2*
X2129337Y2328633D1*
X2127413Y2326710D1*
X2126463Y2324809D1*
Y2320984D1*
X2127413Y2319061D1*
X2129337Y2317159D1*
X2131238Y2316187D1*
X2134112Y2315236D1*
X2138909D1*
X2141761Y2316187D1*
X2143685Y2317159D1*
X2145586Y2319061D1*
X2146559Y2320984D1*
Y2324809D1*
X2145586Y2326710D1*
X2143685Y2328633D1*
X2141761Y2329584D1*
X2131260Y2336732D2*
X2130310D1*
X2128386Y2337683D1*
X2127436Y2338634D1*
X2126485Y2340557D1*
Y2344382D1*
X2127436Y2346283D1*
X2128386Y2347234D1*
X2130310Y2348206D1*
X2132211D1*
X2134134Y2347234D1*
X2136986Y2345332D1*
X2146559Y2335760D1*
Y2349157D1*
X2126485Y2361081D2*
X2127436Y2358207D1*
X2130310Y2356283D1*
X2135085Y2355333D1*
X2137959D1*
X2142734Y2356283D1*
X2145608Y2358207D1*
X2146559Y2361081D1*
Y2362982D1*
X2145608Y2365856D1*
X2142734Y2367757D1*
X2137959Y2368730D1*
X2135085D1*
X2130310Y2367757D1*
X2127436Y2365856D1*
X2126485Y2362982D1*
Y2361081D1*
X2130310Y2367757D2*
X2142734Y2356283D1*
X1494365Y1666325D2*
X1493415Y1668226D1*
X1491491Y1670150D1*
X1489590Y1671100D1*
X1485766D1*
X1483842Y1670150D1*
X1481941Y1668226D1*
X1480968Y1666325D1*
X1480018Y1663451D1*
Y1658654D1*
X1480968Y1655802D1*
X1481941Y1653878D1*
X1483842Y1651977D1*
X1485766Y1651004D1*
X1489590D1*
X1491491Y1651977D1*
X1493415Y1653878D1*
X1494365Y1655802D1*
X1501514Y1666303D2*
Y1667253D1*
X1502465Y1669177D1*
X1503415Y1670128D1*
X1505339Y1671078D1*
X1509163D1*
X1511065Y1670128D1*
X1512015Y1669177D1*
X1512988Y1667253D1*
Y1665352D1*
X1512015Y1663429D1*
X1510114Y1660577D1*
X1500541Y1651004D1*
X1513939D1*
X1520114Y1667253D2*
X1522038Y1668226D1*
X1524912Y1671078D1*
Y1651004D1*
X604970Y2541646D2*
Y2521550D1*
X611668D1*
X614542Y2522523D1*
X616466Y2524424D1*
X617416Y2526348D1*
X618367Y2529199D1*
Y2533997D1*
X617416Y2536871D1*
X616466Y2538772D1*
X614542Y2540696D1*
X611668Y2541646D1*
X604970D1*
X624543Y2537799D2*
X626466Y2538772D1*
X629340Y2541624D1*
Y2521550D1*
X600670Y2444771D2*
Y2424675D1*
X607368D1*
X610242Y2425648D1*
X612166Y2427549D1*
X613116Y2429472D1*
X614067Y2432324D1*
Y2437122D1*
X613116Y2439996D1*
X612166Y2441897D1*
X610242Y2443820D1*
X607368Y2444771D1*
X600670D1*
X621215Y2439973D2*
Y2440924D1*
X622166Y2442847D1*
X623117Y2443798D1*
X625040Y2444749D1*
X628865D1*
X630766Y2443798D1*
X631717Y2442847D1*
X632689Y2440924D1*
Y2439023D1*
X631717Y2437099D1*
X629815Y2434248D1*
X620243Y2424675D1*
X633640D1*
X1003279Y1656414D2*
Y1636318D1*
X1009978D1*
X1012852Y1637291D1*
X1014775Y1639192D1*
X1015726Y1641115D1*
X1016676Y1643967D1*
Y1648765D1*
X1015726Y1651639D1*
X1014775Y1653540D1*
X1012852Y1655463D1*
X1009978Y1656414D1*
X1003279D1*
X1036249Y1653540D2*
X1034348Y1655463D1*
X1031474Y1656414D1*
X1027649D1*
X1024775Y1655463D1*
X1022852Y1653540D1*
Y1651639D1*
X1023825Y1649715D1*
X1024775Y1648765D1*
X1026677Y1647814D1*
X1032425Y1645891D1*
X1034348Y1644940D1*
X1035299Y1643967D1*
X1036249Y1642066D1*
Y1639192D1*
X1034348Y1637291D1*
X1031474Y1636318D1*
X1027649D1*
X1024775Y1637291D1*
X1022852Y1639192D1*
X1042425Y1652567D2*
X1044348Y1653540D1*
X1047222Y1656392D1*
Y1636318D1*
X589604Y1656414D2*
Y1636318D1*
X596302D1*
X599176Y1637291D1*
X601100Y1639192D1*
X602050Y1641115D1*
X603001Y1643967D1*
Y1648765D1*
X602050Y1651639D1*
X601100Y1653540D1*
X599176Y1655463D1*
X596302Y1656414D1*
X589604D1*
X622574Y1653540D2*
X620673Y1655463D1*
X617799Y1656414D1*
X613974D1*
X611100Y1655463D1*
X609177Y1653540D1*
Y1651639D1*
X610149Y1649715D1*
X611100Y1648765D1*
X613001Y1647814D1*
X618749Y1645891D1*
X620673Y1644940D1*
X621623Y1643967D1*
X622574Y1642066D1*
Y1639192D1*
X620673Y1637291D1*
X617799Y1636318D1*
X613974D1*
X611100Y1637291D1*
X609177Y1639192D1*
X629722Y1651617D2*
Y1652567D1*
X630673Y1654491D1*
X631624Y1655441D1*
X633547Y1656392D1*
X637372D1*
X639273Y1655441D1*
X640224Y1654491D1*
X641196Y1652567D1*
Y1650666D1*
X640224Y1648742D1*
X638322Y1645891D1*
X628750Y1636318D1*
X642147D1*
X638487Y2734461D2*
X626041D1*
Y2714365D1*
Y2724888D2*
X633690D1*
X644663Y2730614D2*
X646587Y2731587D1*
X649461Y2734439D1*
Y2714365D1*
X482375Y2455130D2*
Y2439831D1*
X481424Y2436957D1*
X480451Y2436007D1*
X478550Y2435034D1*
X476627D1*
X474725Y2436007D1*
X473775Y2436957D1*
X472802Y2439831D1*
Y2441732D1*
X488550Y2451283D2*
X490474Y2452256D1*
X493348Y2455108D1*
Y2435034D1*
X489000Y2623289D2*
Y2607991D1*
X488049Y2605117D1*
X487076Y2604166D1*
X485175Y2603193D1*
X483252D1*
X481351Y2604166D1*
X480400Y2605117D1*
X479427Y2607991D1*
Y2609892D1*
X496148Y2618492D2*
Y2619442D1*
X497099Y2621366D1*
X498050Y2622316D1*
X499973Y2623267D1*
X503798D1*
X505699Y2622316D1*
X506649Y2621366D1*
X507622Y2619442D1*
Y2617541D1*
X506649Y2615618D1*
X504748Y2612766D1*
X495176Y2603193D1*
X508573D1*
X1131254Y1805789D2*
Y1790491D1*
X1130303Y1787617D1*
X1129331Y1786666D1*
X1127429Y1785693D1*
X1125506D1*
X1123605Y1786666D1*
X1122654Y1787617D1*
X1121681Y1790491D1*
Y1792392D1*
X1144128Y1805789D2*
Y1785693D1*
X1137430Y1805789D2*
X1150827D1*
X1172323Y1785693D2*
X1164652Y1805789D1*
X1157003Y1785693D1*
X1159877Y1792392D2*
X1169449D1*
X1192847Y1801014D2*
X1191896Y1802915D1*
X1189973Y1804839D1*
X1188072Y1805789D1*
X1184247D1*
X1182324Y1804839D1*
X1180422Y1802915D1*
X1179450Y1801014D1*
X1178499Y1798140D1*
Y1793343D1*
X1179450Y1790491D1*
X1180422Y1788567D1*
X1182324Y1786666D1*
X1184247Y1785693D1*
X1188072D1*
X1189973Y1786666D1*
X1191896Y1788567D1*
X1192847Y1790491D1*
Y1793343D1*
X1188072D1*
X1199023Y1801942D2*
X1200946Y1802915D1*
X1203820Y1805767D1*
Y1785693D1*
X1764174Y1472494D2*
Y1452398D1*
X1775648D1*
X1781824Y1468647D2*
X1783747Y1469620D1*
X1786621Y1472472D1*
Y1452398D1*
X1766123Y1626651D2*
Y1606555D1*
X1777597D1*
X1784746Y1621854D2*
Y1622805D1*
X1785697Y1624728D1*
X1786647Y1625679D1*
X1788571Y1626629D1*
X1792395D1*
X1794296Y1625679D1*
X1795247Y1624728D1*
X1796220Y1622805D1*
Y1620903D1*
X1795247Y1618980D1*
X1793346Y1616128D1*
X1783773Y1606555D1*
X1797170D1*
X2278676Y2353836D2*
Y2333740D1*
X2290150D1*
X2298249Y2353814D2*
X2308750D1*
X2303024Y2346165D1*
X2305898D1*
X2307800Y2345214D1*
X2308750Y2344264D1*
X2309723Y2341390D1*
Y2339489D1*
X2308750Y2336614D1*
X2306849Y2334691D1*
X2303975Y2333740D1*
X2301101D1*
X2298249Y2334691D1*
X2297298Y2335664D1*
X2296326Y2337565D1*
X1332851Y2049284D2*
X1341451D1*
X1344325Y2050257D1*
X1345298Y2051208D1*
X1346248Y2053109D1*
Y2055032D1*
X1345298Y2056934D1*
X1344325Y2057906D1*
X1341451Y2058857D1*
X1332851D1*
Y2038761D1*
X1339550Y2049284D2*
X1346248Y2038761D1*
X1364849Y2058857D2*
X1352424D1*
Y2038761D1*
X1364849D1*
X1352424Y2049284D2*
X1360073D1*
X1384422Y2055983D2*
X1382520Y2057906D1*
X1379646Y2058857D1*
X1375822D1*
X1372948Y2057906D1*
X1371024Y2055983D1*
Y2054082D1*
X1371997Y2052158D1*
X1372948Y2051208D1*
X1374849Y2050257D1*
X1380597Y2048334D1*
X1382520Y2047383D1*
X1383471Y2046410D1*
X1384422Y2044509D1*
Y2041635D1*
X1382520Y2039734D1*
X1379646Y2038761D1*
X1375822D1*
X1372948Y2039734D1*
X1371024Y2041635D1*
X1403022Y2058857D2*
X1390597D1*
Y2038761D1*
X1403022D1*
X1390597Y2049284D2*
X1398247D1*
X1415896Y2058857D2*
Y2038761D1*
X1409198Y2058857D2*
X1422595D1*
X842997Y1997035D2*
X851597D1*
X854471Y1998008D1*
X855444Y1998958D1*
X856394Y2000860D1*
Y2002783D1*
X855444Y2004684D1*
X854471Y2005657D1*
X851597Y2006608D1*
X842997D1*
Y1986512D1*
X849696Y1997035D2*
X856394Y1986512D1*
X862570Y2006608D2*
X875967Y1986512D1*
Y2006608D2*
X862570Y1986512D1*
X882143Y2006608D2*
Y1986512D1*
X888842D1*
X891716Y1987484D1*
X893639Y1989386D1*
X894590Y1991309D1*
X895540Y1994161D1*
Y1998958D1*
X894590Y2001832D1*
X893639Y2003734D1*
X891716Y2005657D1*
X888842Y2006608D1*
X882143D1*
X907464Y2006585D2*
X904590Y2005635D1*
X902667Y2002761D1*
X901716Y1997986D1*
Y1995112D1*
X902667Y1990336D1*
X904590Y1987462D1*
X907464Y1986512D1*
X909365D1*
X912239Y1987462D1*
X914141Y1990336D1*
X915113Y1995112D1*
Y1997986D1*
X914141Y2002761D1*
X912239Y2005635D1*
X909365Y2006585D1*
X907464D1*
X914141Y2002761D2*
X902667Y1990336D1*
X716364Y2006608D2*
Y1986512D1*
X709665Y2006608D2*
X723062D1*
X729238D2*
X742635Y1986512D1*
Y2006608D2*
X729238Y1986512D1*
X748811Y2006608D2*
Y1986512D1*
X755510D1*
X758384Y1987484D1*
X760307Y1989386D1*
X761258Y1991309D1*
X762208Y1994161D1*
Y1998958D1*
X761258Y2001832D1*
X760307Y2003734D1*
X758384Y2005657D1*
X755510Y2006608D1*
X748811D1*
X774132Y2006585D2*
X771258Y2005635D1*
X769335Y2002761D1*
X768384Y1997986D1*
Y1995112D1*
X769335Y1990336D1*
X771258Y1987462D1*
X774132Y1986512D1*
X776033D1*
X778907Y1987462D1*
X780809Y1990336D1*
X781781Y1995112D1*
Y1997986D1*
X780809Y2002761D1*
X778907Y2005635D1*
X776033Y2006585D1*
X774132D1*
X780809Y2002761D2*
X769335Y1990336D1*
X1123072Y2006608D2*
X1110625D1*
Y1986512D1*
Y1997035D2*
X1118275D1*
X1129248Y2006608D2*
Y1992260D1*
X1130198Y1989386D1*
X1132122Y1987484D1*
X1134996Y1986512D1*
X1136897D1*
X1139771Y1987484D1*
X1141694Y1989386D1*
X1142645Y1992260D1*
Y2006608D1*
X1162218Y2003734D2*
X1160317Y2005657D1*
X1157443Y2006608D1*
X1153618D1*
X1150744Y2005657D1*
X1148821Y2003734D1*
Y2001832D1*
X1149793Y1999909D1*
X1150744Y1998958D1*
X1152645Y1998008D1*
X1158393Y1996084D1*
X1160317Y1995134D1*
X1161267Y1994161D1*
X1162218Y1992260D1*
Y1989386D1*
X1160317Y1987484D1*
X1157443Y1986512D1*
X1153618D1*
X1150744Y1987484D1*
X1148821Y1989386D1*
X1180818Y2006608D2*
X1168394D1*
Y1986512D1*
X1180818D1*
X1168394Y1997035D2*
X1176043D1*
X963205Y1996084D2*
X971827D1*
X974679Y1997035D1*
X975652Y1998008D1*
X976603Y1999909D1*
Y2002783D1*
X975652Y2004684D1*
X974679Y2005657D1*
X971827Y2006608D1*
X963205D1*
Y1986512D1*
X988527Y2006608D2*
X986603Y2005657D1*
X984702Y2003734D1*
X983729Y2001832D1*
X982778Y1998958D1*
Y1994161D1*
X983729Y1991309D1*
X984702Y1989386D1*
X986603Y1987484D1*
X988527Y1986512D1*
X992351D1*
X994252Y1987484D1*
X996176Y1989386D1*
X997126Y1991309D1*
X998077Y1994161D1*
Y1998958D1*
X997126Y2001832D1*
X996176Y2003734D1*
X994252Y2005657D1*
X992351Y2006608D1*
X988527D1*
X1004253D2*
X1009050Y1986512D1*
X1013825Y2006608D1*
X1018601Y1986512D1*
X1023398Y2006608D1*
X1041998D2*
X1029574D1*
Y1986512D1*
X1041998D1*
X1029574Y1997035D2*
X1037223D1*
X1048174D2*
X1056774D1*
X1059648Y1998008D1*
X1060621Y1998958D1*
X1061571Y2000860D1*
Y2002783D1*
X1060621Y2004684D1*
X1059648Y2005657D1*
X1056774Y2006608D1*
X1048174D1*
Y1986512D1*
X1054873Y1997035D2*
X1061571Y1986512D1*
X2620413Y775357D2*
Y755261D1*
X2631887D1*
X2638063Y775357D2*
Y755261D1*
X2644761D1*
X2647635Y756234D1*
X2649559Y758135D1*
X2650509Y760058D1*
X2651460Y762910D1*
Y767708D1*
X2650509Y770582D1*
X2649559Y772483D1*
X2647635Y774406D1*
X2644761Y775357D1*
X2638063D1*
X2659559Y775335D2*
X2670060D1*
X2664334Y767686D1*
X2667208D1*
X2669110Y766735D1*
X2670060Y765784D1*
X2671033Y762910D1*
Y761009D1*
X2670060Y758135D1*
X2668159Y756212D1*
X2665285Y755261D1*
X2662411D1*
X2659559Y756212D1*
X2658609Y757184D1*
X2657636Y759086D1*
X2287078Y775357D2*
Y755261D1*
X2298552D1*
X2304728Y775357D2*
Y755261D1*
X2311427D1*
X2314301Y756234D1*
X2316224Y758135D1*
X2317175Y760058D1*
X2318125Y762910D1*
Y767708D1*
X2317175Y770582D1*
X2316224Y772483D1*
X2314301Y774406D1*
X2311427Y775357D1*
X2304728D1*
X2325274Y770560D2*
Y771510D1*
X2326225Y773434D1*
X2327175Y774384D1*
X2329099Y775335D1*
X2332923D1*
X2334824Y774384D1*
X2335775Y773434D1*
X2336748Y771510D1*
Y769609D1*
X2335775Y767686D1*
X2333874Y764834D1*
X2324301Y755261D1*
X2337698D1*
X1951796Y775356D2*
Y755260D1*
X1963270D1*
X1969445Y775356D2*
Y755260D1*
X1976144D1*
X1979018Y756232D1*
X1980941Y758134D1*
X1981892Y760057D1*
X1982843Y762909D1*
Y767706D1*
X1981892Y770580D1*
X1980941Y772482D1*
X1979018Y774405D1*
X1976144Y775356D1*
X1969445D1*
X1989018Y771509D2*
X1990942Y772482D1*
X1993816Y775334D1*
Y755260D1*
X1620414Y775356D2*
Y755260D1*
X1631888D1*
X1638064Y775356D2*
Y755260D1*
X1644763D1*
X1647637Y756232D1*
X1649560Y758134D1*
X1650511Y760057D1*
X1651461Y762909D1*
Y767706D1*
X1650511Y770580D1*
X1649560Y772482D1*
X1647637Y774405D1*
X1644763Y775356D1*
X1638064D1*
X1663385Y775334D2*
X1660511Y774383D1*
X1658588Y771509D1*
X1657637Y766734D1*
Y763860D1*
X1658588Y759084D1*
X1660511Y756210D1*
X1663385Y755260D1*
X1665286D1*
X1668160Y756210D1*
X1670062Y759084D1*
X1671034Y763860D1*
Y766734D1*
X1670062Y771509D1*
X1668160Y774383D1*
X1665286Y775334D1*
X1663385D1*
X1670062Y771509D2*
X1658588Y759084D1*
X1773064Y2103905D2*
X1771162Y2105829D1*
X1768288Y2106780D1*
X1764464D1*
X1761590Y2105829D1*
X1759666Y2103905D1*
Y2102004D1*
X1760639Y2100081D1*
X1761590Y2099130D1*
X1763491Y2098180D1*
X1769239Y2096256D1*
X1771162Y2095306D1*
X1772113Y2094333D1*
X1773064Y2092432D1*
Y2089558D1*
X1771162Y2087656D1*
X1768288Y2086684D1*
X1764464D1*
X1761590Y2087656D1*
X1759666Y2089558D1*
X1779239Y2106780D2*
Y2086684D1*
X1785938D1*
X1788812Y2087656D1*
X1790735Y2089558D1*
X1791686Y2091481D1*
X1792637Y2094333D1*
Y2099130D1*
X1791686Y2102004D1*
X1790735Y2103905D1*
X1788812Y2105829D1*
X1785938Y2106780D1*
X1779239D1*
X1798812Y2083367D2*
X1816985D1*
X1837509Y2102004D2*
X1836558Y2103905D1*
X1834635Y2105829D1*
X1832733Y2106780D1*
X1828909D1*
X1826985Y2105829D1*
X1825084Y2103905D1*
X1824111Y2102004D1*
X1823161Y2099130D1*
Y2094333D1*
X1824111Y2091481D1*
X1825084Y2089558D1*
X1826985Y2087656D1*
X1828909Y2086684D1*
X1832733D1*
X1834635Y2087656D1*
X1836558Y2089558D1*
X1837509Y2091481D1*
X1843684Y2106780D2*
Y2086684D1*
X1850383D1*
X1853257Y2087656D1*
X1855180Y2089558D1*
X1856131Y2091481D1*
X1857082Y2094333D1*
Y2099130D1*
X1856131Y2102004D1*
X1855180Y2103905D1*
X1853257Y2105829D1*
X1850383Y2106780D1*
X1843684D1*
X1573044Y2103904D2*
X1571143Y2105828D1*
X1568269Y2106778D1*
X1564444D1*
X1561570Y2105828D1*
X1559647Y2103904D1*
Y2102003D1*
X1560619Y2100080D1*
X1561570Y2099129D1*
X1563471Y2098178D1*
X1569219Y2096255D1*
X1571143Y2095304D1*
X1572093Y2094332D1*
X1573044Y2092430D1*
Y2089556D1*
X1571143Y2087655D1*
X1568269Y2086682D1*
X1564444D1*
X1561570Y2087655D1*
X1559647Y2089556D1*
X1579220Y2106778D2*
Y2086682D1*
X1585918D1*
X1588792Y2087655D1*
X1590716Y2089556D1*
X1591666Y2091480D1*
X1592617Y2094332D1*
Y2099129D1*
X1591666Y2102003D1*
X1590716Y2103904D1*
X1588792Y2105828D1*
X1585918Y2106778D1*
X1579220D1*
X1598793Y2083366D2*
X1616965D1*
X1637489Y2102003D2*
X1636538Y2103904D1*
X1634615Y2105828D1*
X1632714Y2106778D1*
X1628889D1*
X1626966Y2105828D1*
X1625064Y2103904D1*
X1624092Y2102003D1*
X1623141Y2099129D1*
Y2094332D1*
X1624092Y2091480D1*
X1625064Y2089556D1*
X1626966Y2087655D1*
X1628889Y2086682D1*
X1632714D1*
X1634615Y2087655D1*
X1636538Y2089556D1*
X1637489Y2091480D1*
X1657062Y2103904D2*
X1655161Y2105828D1*
X1652287Y2106778D1*
X1648462D1*
X1645588Y2105828D1*
X1643665Y2103904D1*
Y2102003D1*
X1644637Y2100080D1*
X1645588Y2099129D1*
X1647489Y2098178D1*
X1653237Y2096255D1*
X1655161Y2095304D1*
X1656111Y2094332D1*
X1657062Y2092430D1*
Y2089556D1*
X1655161Y2087655D1*
X1652287Y2086682D1*
X1648462D1*
X1645588Y2087655D1*
X1643665Y2089556D1*
X2037010Y2094269D2*
X2024563D1*
Y2074173D1*
Y2084696D2*
X2032212D1*
X2043185Y2094269D2*
Y2074173D1*
X2054659D1*
X2076156D2*
X2068484Y2094269D1*
X2060835Y2074173D1*
X2063709Y2080872D2*
X2073282D1*
X2095729Y2091395D2*
X2093827Y2093318D1*
X2090953Y2094269D1*
X2087129D1*
X2084255Y2093318D1*
X2082331Y2091395D1*
Y2089494D1*
X2083304Y2087570D1*
X2084255Y2086620D1*
X2086156Y2085669D1*
X2091904Y2083746D1*
X2093827Y2082795D1*
X2094778Y2081822D1*
X2095729Y2079921D1*
Y2077047D1*
X2093827Y2075146D1*
X2090953Y2074173D1*
X2087129D1*
X2084255Y2075146D1*
X2082331Y2077047D1*
X2101904Y2094269D2*
Y2074173D1*
X2115302Y2094269D2*
Y2074173D1*
X2101904Y2084696D2*
X2115302D1*
X2121477Y2070857D2*
X2139650D1*
X2160174Y2089494D2*
X2159223Y2091395D1*
X2157300Y2093318D1*
X2155398Y2094269D1*
X2151574D1*
X2149650Y2093318D1*
X2147749Y2091395D1*
X2146776Y2089494D1*
X2145826Y2086620D1*
Y2081822D1*
X2146776Y2078970D1*
X2147749Y2077047D1*
X2149650Y2075146D1*
X2151574Y2074173D1*
X2155398D1*
X2157300Y2075146D1*
X2159223Y2077047D1*
X2160174Y2078970D1*
X2179747Y2091395D2*
X2177846Y2093318D1*
X2174971Y2094269D1*
X2171147D1*
X2168273Y2093318D1*
X2166349Y2091395D1*
Y2089494D1*
X2167322Y2087570D1*
X2168273Y2086620D1*
X2170174Y2085669D1*
X2175922Y2083746D1*
X2177846Y2082795D1*
X2178796Y2081822D1*
X2179747Y2079921D1*
Y2077047D1*
X2177846Y2075146D1*
X2174971Y2074173D1*
X2171147D1*
X2168273Y2075146D1*
X2166349Y2077047D1*
X2772164Y2765784D2*
X2780764D1*
X2783638Y2766757D1*
X2784610Y2767708D1*
X2785561Y2769609D1*
Y2771532D1*
X2784610Y2773434D1*
X2783638Y2774406D1*
X2780764Y2775357D1*
X2772164D1*
Y2755261D1*
X2778862Y2765784D2*
X2785561Y2755261D1*
X2791737Y2775357D2*
X2805134Y2755261D1*
Y2775357D2*
X2791737Y2755261D1*
X2811310Y2775357D2*
Y2755261D1*
X2818008D1*
X2820882Y2756234D1*
X2822806Y2758135D1*
X2823756Y2760058D1*
X2824707Y2762910D1*
Y2767708D1*
X2823756Y2770582D1*
X2822806Y2772483D1*
X2820882Y2774406D1*
X2818008Y2775357D1*
X2811310D1*
X2831855Y2770560D2*
Y2771510D1*
X2832806Y2773434D1*
X2833757Y2774384D1*
X2835680Y2775335D1*
X2839505D1*
X2841406Y2774384D1*
X2842357Y2773434D1*
X2843329Y2771510D1*
Y2769609D1*
X2842357Y2767686D1*
X2840455Y2764834D1*
X2830883Y2755261D1*
X2844280D1*
X2778864Y2869106D2*
Y2849010D1*
X2772165Y2869106D2*
X2785562D1*
X2791738D2*
X2805135Y2849010D1*
Y2869106D2*
X2791738Y2849010D1*
X2811311Y2869106D2*
Y2849010D1*
X2818010D1*
X2820884Y2849983D1*
X2822807Y2851884D1*
X2823758Y2853808D1*
X2824708Y2856660D1*
Y2861457D1*
X2823758Y2864331D1*
X2822807Y2866232D1*
X2820884Y2868156D1*
X2818010Y2869106D1*
X2811311D1*
X2831857Y2864309D2*
Y2865260D1*
X2832807Y2867183D1*
X2833758Y2868134D1*
X2835681Y2869084D1*
X2839506D1*
X2841407Y2868134D1*
X2842358Y2867183D1*
X2843331Y2865260D1*
Y2863358D1*
X2842358Y2861435D1*
X2840457Y2858583D1*
X2830884Y2849010D1*
X2844281D1*
X1778245Y3090643D2*
Y3110739D1*
X1770595Y3090643D1*
X1762946Y3110739D1*
Y3090643D1*
X1784420Y3110739D2*
Y3090643D1*
X1804944Y3105964D2*
X1803993Y3107865D1*
X1802070Y3109789D1*
X1800169Y3110739D1*
X1796344D1*
X1794421Y3109789D1*
X1792519Y3107865D1*
X1791547Y3105964D1*
X1790596Y3103090D1*
Y3098293D1*
X1791547Y3095441D1*
X1792519Y3093517D1*
X1794421Y3091616D1*
X1796344Y3090643D1*
X1800169D1*
X1802070Y3091616D1*
X1803993Y3093517D1*
X1804944Y3095441D1*
X1811120Y3101167D2*
X1819720D1*
X1822594Y3102139D1*
X1823566Y3103090D1*
X1824517Y3104991D1*
Y3106915D1*
X1823566Y3108816D1*
X1822594Y3109789D1*
X1819720Y3110739D1*
X1811120D1*
Y3090643D1*
X1817818Y3101167D2*
X1824517Y3090643D1*
X1836441Y3110739D2*
X1834517Y3109789D1*
X1832616Y3107865D1*
X1831643Y3105964D1*
X1830693Y3103090D1*
Y3098293D1*
X1831643Y3095441D1*
X1832616Y3093517D1*
X1834517Y3091616D1*
X1836441Y3090643D1*
X1840265D1*
X1842167Y3091616D1*
X1844090Y3093517D1*
X1845041Y3095441D1*
X1845991Y3098293D1*
Y3103090D1*
X1845041Y3105964D1*
X1844090Y3107865D1*
X1842167Y3109789D1*
X1840265Y3110739D1*
X1836441D1*
X1852167Y3100680D2*
X1863221D1*
X1882794Y3107865D2*
X1880893Y3109789D1*
X1878019Y3110739D1*
X1874194D1*
X1871320Y3109789D1*
X1869397Y3107865D1*
Y3105964D1*
X1870369Y3104041D1*
X1871320Y3103090D1*
X1873221Y3102139D1*
X1878969Y3100216D1*
X1880893Y3099265D1*
X1881843Y3098293D1*
X1882794Y3096391D1*
Y3093517D1*
X1880893Y3091616D1*
X1878019Y3090643D1*
X1874194D1*
X1871320Y3091616D1*
X1869397Y3093517D1*
X1888970Y3110739D2*
Y3090643D1*
X1895668D1*
X1898542Y3091616D1*
X1900466Y3093517D1*
X1901416Y3095441D1*
X1902367Y3098293D1*
Y3103090D1*
X1901416Y3105964D1*
X1900466Y3107865D1*
X1898542Y3109789D1*
X1895668Y3110739D1*
X1888970D1*
X1908543Y3106893D2*
X1910466Y3107865D1*
X1913340Y3110717D1*
Y3090643D1*
X1611601Y1703289D2*
X1609700Y1702361D1*
X1607776Y1700437D1*
X1606826Y1698514D1*
X1605853Y1695640D1*
Y1690865D1*
X1606826Y1687991D1*
X1607776Y1686089D1*
X1609700Y1684166D1*
X1611601Y1683215D1*
X1615426D1*
X1617349Y1684166D1*
X1619250Y1686089D1*
X1620201Y1687991D1*
X1621174Y1690865D1*
Y1695640D1*
X1620201Y1698514D1*
X1619250Y1700437D1*
X1617349Y1702361D1*
X1615426Y1703289D1*
X1611601D1*
X1614475Y1687040D2*
X1620201Y1681292D1*
X1627350Y1699443D2*
X1629273Y1700415D1*
X1632147Y1703267D1*
Y1683193D1*
X1543604Y1336194D2*
X1554105D1*
X1548379Y1328545D1*
X1551253D1*
X1553155Y1327594D1*
X1554105Y1326644D1*
X1555078Y1323770D1*
Y1321869D1*
X1554105Y1318995D1*
X1552204Y1317071D1*
X1549330Y1316120D1*
X1546456D1*
X1543604Y1317071D1*
X1542653Y1318044D1*
X1541681Y1319945D1*
X1562226Y1331419D2*
Y1332370D1*
X1563177Y1334293D1*
X1564128Y1335244D1*
X1566051Y1336194D1*
X1569876D1*
X1571777Y1335244D1*
X1572728Y1334293D1*
X1573700Y1332370D1*
Y1330468D1*
X1572728Y1328545D1*
X1570826Y1325693D1*
X1561254Y1316120D1*
X1574651D1*
X1581777Y1318044D2*
X1580827Y1317071D1*
X1581777Y1316120D1*
X1582750Y1317071D1*
X1581777Y1318044D1*
X1592750Y1316120D2*
X1602323Y1336194D1*
X1588926D1*
X1619973Y1333342D2*
X1619022Y1335244D1*
X1616148Y1336194D1*
X1614247D1*
X1611373Y1335244D1*
X1609449Y1332370D1*
X1608499Y1327594D1*
Y1322819D1*
X1609449Y1318995D1*
X1611373Y1317071D1*
X1614247Y1316120D1*
X1615197D1*
X1618049Y1317071D1*
X1619973Y1318995D1*
X1620923Y1321869D1*
Y1322819D1*
X1619973Y1325693D1*
X1618049Y1327594D1*
X1615197Y1328545D1*
X1614247D1*
X1611373Y1327594D1*
X1609449Y1325693D1*
X1608499Y1322819D1*
X1631874Y1336194D2*
X1629022Y1335244D1*
X1628050Y1333342D1*
Y1331419D1*
X1629022Y1329518D1*
X1630924Y1328545D1*
X1634748Y1327594D1*
X1637622Y1326644D1*
X1639524Y1324720D1*
X1640474Y1322819D1*
Y1319945D1*
X1639524Y1318044D1*
X1638573Y1317071D1*
X1635699Y1316120D1*
X1631874D1*
X1629022Y1317071D1*
X1628050Y1318044D1*
X1627099Y1319945D1*
Y1322819D1*
X1628050Y1324720D1*
X1629973Y1326644D1*
X1632825Y1327594D1*
X1636650Y1328545D1*
X1638573Y1329518D1*
X1639524Y1331419D1*
Y1333342D1*
X1638573Y1335244D1*
X1635699Y1336194D1*
X1631874D1*
X1646650Y1336216D2*
Y1316120D1*
X1660047Y1336216D2*
X1646650Y1322819D1*
X1651425Y1327617D2*
X1660047Y1316120D1*
X1666223Y1336216D2*
Y1316120D1*
X1679620Y1336216D2*
Y1316120D1*
X1666223Y1326644D2*
X1679620D1*
X1685796Y1329518D2*
X1696319D1*
X1685796Y1316120D1*
X1696319D1*
X1742252Y1757537D2*
Y1766137D1*
X1741279Y1769011D1*
X1740329Y1769983D1*
X1738427Y1770934D1*
X1736504D1*
X1734603Y1769983D1*
X1733630Y1769011D1*
X1732679Y1766137D1*
Y1757537D1*
X1752775D1*
X1742252Y1764235D2*
X1752775Y1770934D1*
X1736526Y1777110D2*
X1735553Y1779033D1*
X1732701Y1781907D1*
X1752775D1*
X1817252Y1754860D2*
Y1763460D1*
X1816279Y1766334D1*
X1815329Y1767307D1*
X1813427Y1768257D1*
X1811504D1*
X1809603Y1767307D1*
X1808630Y1766334D1*
X1807679Y1763460D1*
Y1754860D1*
X1827775D1*
X1817252Y1761559D2*
X1827775Y1768257D1*
X1812477Y1775406D2*
X1811526D1*
X1809603Y1776356D1*
X1808652Y1777307D1*
X1807701Y1779230D1*
Y1783055D1*
X1808652Y1784956D1*
X1809603Y1785907D1*
X1811526Y1786880D1*
X1813427D1*
X1815351Y1785907D1*
X1818203Y1784006D1*
X1827775Y1774433D1*
Y1787830D1*
X1356657Y2183575D2*
X1365256D1*
X1368131Y2184548D1*
X1369103Y2185498D1*
X1370054Y2187399D1*
Y2189323D1*
X1369103Y2191224D1*
X1368131Y2192197D1*
X1365256Y2193147D1*
X1356657D1*
Y2173051D1*
X1363355Y2183575D2*
X1370054Y2173051D1*
X1378153Y2193125D2*
X1388654D1*
X1382928Y2185476D1*
X1385802D1*
X1387704Y2184525D1*
X1388654Y2183575D1*
X1389627Y2180701D1*
Y2178800D1*
X1388654Y2175926D1*
X1386753Y2174002D1*
X1383879Y2173051D1*
X1381005D1*
X1378153Y2174002D1*
X1377202Y2174975D1*
X1376230Y2176876D1*
X1592098Y1862326D2*
Y1870926D1*
X1591126Y1873800D1*
X1590175Y1874772D1*
X1588274Y1875723D1*
X1586350D1*
X1584449Y1874772D1*
X1583476Y1873800D1*
X1582526Y1870926D1*
Y1862326D1*
X1602622D1*
X1592098Y1869024D2*
X1602622Y1875723D1*
Y1891471D2*
X1582548D1*
X1595923Y1881899D1*
Y1896247D1*
X1967268Y2048641D2*
Y2057241D1*
X1966295Y2060115D1*
X1965344Y2061088D1*
X1963443Y2062038D1*
X1961520D1*
X1959618Y2061088D1*
X1958646Y2060115D1*
X1957695Y2057241D1*
Y2048641D1*
X1977791D1*
X1967268Y2055340D2*
X1977791Y2062038D1*
X1957717Y2079688D2*
Y2070137D1*
X1966317Y2069187D1*
X1965366Y2070137D1*
X1964394Y2073011D1*
Y2075863D1*
X1965366Y2078737D1*
X1967268Y2080661D1*
X1970142Y2081611D1*
X1972043D1*
X1974917Y2080661D1*
X1976840Y2078737D1*
X1977791Y2075863D1*
Y2073011D1*
X1976840Y2070137D1*
X1975868Y2069187D1*
X1973966Y2068214D1*
X929598Y1830217D2*
Y1838816D1*
X928626Y1841690D1*
X927675Y1842663D1*
X925774Y1843614D1*
X923850D1*
X921949Y1842663D1*
X920976Y1841690D1*
X920026Y1838816D1*
Y1830217D1*
X940122D1*
X929598Y1836915D2*
X940122Y1843614D1*
X922900Y1861263D2*
X920999Y1860313D1*
X920048Y1857439D1*
Y1855538D1*
X920999Y1852664D1*
X923873Y1850740D1*
X928648Y1849790D1*
X933423Y1849789D1*
X937248Y1850740D1*
X939171Y1852663D1*
X940122Y1855537D1*
Y1856488D1*
X939171Y1859340D1*
X937248Y1861263D1*
X934374Y1862214D1*
X933423D1*
X930549Y1861263D1*
X928648Y1859340D1*
X927697Y1856488D1*
Y1855538D1*
X928648Y1852664D1*
X930549Y1850740D1*
X933423Y1849789D1*
X829598Y1832855D2*
Y1841455D1*
X828626Y1844329D1*
X827675Y1845302D1*
X825774Y1846252D1*
X823850D1*
X821949Y1845302D1*
X820976Y1844329D1*
X820026Y1841455D1*
Y1832855D1*
X840122D1*
X829598Y1839553D2*
X840122Y1846252D1*
Y1856252D2*
X820048Y1865825D1*
Y1852428D1*
X729598Y1831561D2*
Y1840161D1*
X728626Y1843035D1*
X727675Y1844008D1*
X725774Y1844959D1*
X723850D1*
X721949Y1844008D1*
X720976Y1843035D1*
X720026Y1840161D1*
Y1831561D1*
X740122D1*
X729598Y1838260D2*
X740122Y1844959D1*
X720048Y1855910D2*
X720999Y1853058D1*
X722900Y1852085D1*
X724823D1*
X726724Y1853058D1*
X727697Y1854959D1*
X728648Y1858784D1*
X729598Y1861658D1*
X731522Y1863559D1*
X733423Y1864510D1*
X736297D1*
X738198Y1863559D1*
X739171Y1862608D1*
X740122Y1859734D1*
Y1855910D1*
X739171Y1853058D1*
X738198Y1852085D1*
X736297Y1851134D1*
X733423D1*
X731522Y1852085D1*
X729598Y1854008D1*
X728648Y1856860D1*
X727697Y1860685D1*
X726724Y1862608D1*
X724823Y1863559D1*
X722900D1*
X720999Y1862608D1*
X720048Y1859734D1*
Y1855910D1*
X629598Y1833330D2*
Y1841930D1*
X628626Y1844804D1*
X627675Y1845777D1*
X625774Y1846727D1*
X623850D1*
X621949Y1845777D1*
X620976Y1844804D1*
X620026Y1841930D1*
Y1833330D1*
X640122D1*
X629598Y1840029D2*
X640122Y1846727D1*
X626724Y1865350D2*
X629598Y1864377D1*
X631522Y1862476D1*
X632472Y1859602D1*
Y1858651D1*
X631522Y1855777D1*
X629598Y1853876D1*
X626724Y1852903D1*
X625774D1*
X622900Y1853876D1*
X620999Y1855777D1*
X620048Y1858651D1*
Y1859602D1*
X620999Y1862476D1*
X622900Y1864377D1*
X626724Y1865350D1*
X631522D1*
X636297Y1864377D1*
X639171Y1862476D1*
X640122Y1859602D1*
Y1857700D1*
X639171Y1854826D1*
X637248Y1853876D1*
X2501703Y1085514D2*
Y1094114D1*
X2500731Y1096988D1*
X2499780Y1097961D1*
X2497879Y1098911D1*
X2495955D1*
X2494054Y1097961D1*
X2493081Y1096988D1*
X2492131Y1094114D1*
Y1085514D1*
X2512227D1*
X2501703Y1092213D2*
X2512227Y1098911D1*
X2495978Y1105087D2*
X2495005Y1107010D1*
X2492153Y1109884D1*
X2512227D1*
X2492153Y1121808D2*
X2493104Y1118934D1*
X2495978Y1117011D1*
X2500753Y1116060D1*
X2503627D1*
X2508402Y1117011D1*
X2511276Y1118934D1*
X2512227Y1121808D1*
Y1123709D1*
X2511276Y1126583D1*
X2508402Y1128485D1*
X2503627Y1129457D1*
X2500753D1*
X2495978Y1128485D1*
X2493104Y1126583D1*
X2492153Y1123709D1*
Y1121808D1*
X2495978Y1128485D2*
X2508402Y1117011D1*
X529598Y1833488D2*
Y1842088D1*
X528626Y1844962D1*
X527675Y1845935D1*
X525774Y1846886D1*
X523850D1*
X521949Y1845935D1*
X520976Y1844962D1*
X520026Y1842088D1*
Y1833488D1*
X540122D1*
X529598Y1840187D2*
X540122Y1846886D1*
X523873Y1853061D2*
X522900Y1854985D1*
X520048Y1857859D1*
X540122D1*
X523873Y1864035D2*
X522900Y1865958D1*
X520048Y1868832D1*
X540122D1*
X855230Y2077152D2*
X863830D1*
X866704Y2078125D1*
X867677Y2079076D1*
X868628Y2080977D1*
Y2082900D1*
X867677Y2084802D1*
X866704Y2085774D1*
X863830Y2086725D1*
X855230D1*
Y2066629D1*
X861929Y2077152D2*
X868628Y2066629D1*
X874803Y2082878D2*
X876727Y2083851D1*
X879601Y2086703D1*
Y2066629D1*
X886749Y2081928D2*
Y2082878D1*
X887700Y2084802D1*
X888651Y2085752D1*
X890574Y2086703D1*
X894399D1*
X896300Y2085752D1*
X897250Y2084802D1*
X898223Y2082878D1*
Y2080977D1*
X897250Y2079054D1*
X895349Y2076202D1*
X885776Y2066629D1*
X899174D1*
X719813Y2077152D2*
X728413D1*
X731287Y2078125D1*
X732260Y2079076D1*
X733210Y2080977D1*
Y2082900D1*
X732260Y2084802D1*
X731287Y2085774D1*
X728413Y2086725D1*
X719813D1*
Y2066629D1*
X726512Y2077152D2*
X733210Y2066629D1*
X739386Y2082878D2*
X741309Y2083851D1*
X744183Y2086703D1*
Y2066629D1*
X752283Y2086703D2*
X762784D1*
X757058Y2079054D1*
X759932D1*
X761833Y2078103D1*
X762784Y2077152D1*
X763757Y2074278D1*
Y2072377D1*
X762784Y2069503D1*
X760882Y2067580D1*
X758008Y2066629D1*
X755134D1*
X752283Y2067580D1*
X751332Y2068552D1*
X750359Y2070454D1*
X1523349Y1856839D2*
Y1865439D1*
X1522376Y1868313D1*
X1521426Y1869286D1*
X1519524Y1870236D1*
X1517601D1*
X1515700Y1869286D1*
X1514727Y1868313D1*
X1513776Y1865439D1*
Y1856839D1*
X1533872D1*
X1523349Y1863538D2*
X1533872Y1870236D1*
X1517623Y1876412D2*
X1516650Y1878336D1*
X1513799Y1881210D1*
X1533872Y1881209D1*
Y1896958D2*
X1513799D1*
X1527174Y1887385D1*
Y1901733D1*
X1121118Y2077152D2*
X1129717D1*
X1132591Y2078125D1*
X1133564Y2079076D1*
X1134515Y2080977D1*
Y2082900D1*
X1133564Y2084802D1*
X1132591Y2085774D1*
X1129717Y2086725D1*
X1121118D1*
Y2066629D1*
X1127816Y2077152D2*
X1134515Y2066629D1*
X1140691Y2082878D2*
X1142614Y2083851D1*
X1145488Y2086703D1*
Y2066629D1*
X1163138Y2086703D2*
X1153587D1*
X1152636Y2078103D1*
X1153587Y2079054D1*
X1156461Y2080026D1*
X1159313D1*
X1162187Y2079054D1*
X1164110Y2077152D1*
X1165061Y2074278D1*
Y2072377D1*
X1164110Y2069503D1*
X1162187Y2067580D1*
X1159313Y2066629D1*
X1156461D1*
X1153587Y2067580D1*
X1152636Y2068552D1*
X1151664Y2070454D1*
X987230Y2077152D2*
X995830D1*
X998704Y2078125D1*
X999677Y2079076D1*
X1000627Y2080977D1*
Y2082900D1*
X999677Y2084802D1*
X998704Y2085774D1*
X995830Y2086725D1*
X987230D1*
Y2066629D1*
X993929Y2077152D2*
X1000627Y2066629D1*
X1006803Y2082878D2*
X1008726Y2083851D1*
X1011600Y2086703D1*
Y2066629D1*
X1029250Y2083851D2*
X1028299Y2085752D1*
X1025425Y2086703D1*
X1023524D1*
X1020650Y2085752D1*
X1018727Y2082878D1*
X1017776Y2078103D1*
Y2073328D1*
X1018727Y2069503D1*
X1020650Y2067580D1*
X1023524Y2066629D1*
X1024475D1*
X1027327Y2067580D1*
X1029250Y2069503D1*
X1030201Y2072377D1*
Y2073328D1*
X1029250Y2076202D1*
X1027327Y2078103D1*
X1024475Y2079054D1*
X1023524D1*
X1020650Y2078103D1*
X1018727Y2076202D1*
X1017776Y2073328D1*
X2619822Y902155D2*
X2628422D1*
X2631296Y903128D1*
X2632269Y904078D1*
X2633220Y905980D1*
Y907903D1*
X2632269Y909804D1*
X2631296Y910777D1*
X2628422Y911728D1*
X2619822D1*
Y891632D1*
X2626521Y902155D2*
X2633220Y891632D1*
X2639395Y907881D2*
X2641319Y908854D1*
X2644193Y911705D1*
Y891632D1*
X2654193D2*
X2663766Y911705D1*
X2650368D1*
X2288585Y895906D2*
X2297185D1*
X2300059Y896878D1*
X2301032Y897829D1*
X2301983Y899730D1*
Y901654D1*
X2301032Y903555D1*
X2300059Y904528D1*
X2297185Y905478D1*
X2288585D1*
Y885382D1*
X2295284Y895906D2*
X2301983Y885382D1*
X2308158Y901631D2*
X2310082Y902604D1*
X2312956Y905456D1*
Y885382D1*
X2323907Y905456D2*
X2321055Y904505D1*
X2320082Y902604D1*
Y900681D1*
X2321055Y898780D1*
X2322956Y897807D1*
X2326781Y896856D1*
X2329655Y895906D1*
X2331556Y893982D1*
X2332507Y892081D1*
Y889207D1*
X2331556Y887306D1*
X2330605Y886333D1*
X2327731Y885382D1*
X2323907D1*
X2321055Y886333D1*
X2320082Y887306D1*
X2319131Y889207D1*
Y892081D1*
X2320082Y893982D1*
X2322005Y895906D1*
X2324857Y896856D1*
X2328682Y897807D1*
X2330605Y898780D1*
X2331556Y900681D1*
Y902604D1*
X2330605Y904505D1*
X2327731Y905456D1*
X2323907D1*
X1957799Y895906D2*
X1966399D1*
X1969273Y896878D1*
X1970246Y897829D1*
X1971196Y899730D1*
Y901654D1*
X1970246Y903555D1*
X1969273Y904528D1*
X1966399Y905478D1*
X1957799D1*
Y885382D1*
X1964498Y895906D2*
X1971196Y885382D1*
X1977372Y901631D2*
X1979295Y902604D1*
X1982169Y905456D1*
Y885382D1*
X2000792Y898780D2*
X1999819Y895906D1*
X1997918Y893982D1*
X1995044Y893032D1*
X1994093D1*
X1991219Y893982D1*
X1989318Y895906D1*
X1988345Y898780D1*
Y899730D1*
X1989318Y902604D1*
X1991219Y904505D1*
X1994093Y905456D1*
X1995044D1*
X1997918Y904505D1*
X1999819Y902604D1*
X2000792Y898780D1*
Y893982D1*
X1999819Y889207D1*
X1997918Y886333D1*
X1995044Y885382D1*
X1993142D1*
X1990268Y886333D1*
X1989318Y888256D1*
X1528013Y864651D2*
X1536613D1*
X1539487Y865624D1*
X1540460Y866574D1*
X1541410Y868476D1*
Y870399D1*
X1540460Y872300D1*
X1539487Y873273D1*
X1536613Y874224D1*
X1528013D1*
Y854128D1*
X1534712Y864651D2*
X1541410Y854128D1*
X1548559Y869426D2*
Y870377D1*
X1549509Y872300D1*
X1550460Y873251D1*
X1552384Y874202D1*
X1556208D1*
X1558109Y873251D1*
X1559060Y872300D1*
X1560033Y870377D1*
Y868476D1*
X1559060Y866552D1*
X1557159Y863700D1*
X1547586Y854128D1*
X1560983D1*
X1572907Y874202D2*
X1570033Y873251D1*
X1568110Y870377D1*
X1567159Y865602D1*
Y862728D1*
X1568110Y857952D1*
X1570033Y855078D1*
X1572907Y854128D1*
X1574808D1*
X1577682Y855078D1*
X1579584Y857952D1*
X1580556Y862728D1*
Y865602D1*
X1579584Y870377D1*
X1577682Y873251D1*
X1574808Y874202D1*
X1572907D1*
X1579584Y870377D2*
X1568110Y857952D1*
X1910844Y2049233D2*
Y2057833D1*
X1909871Y2060707D1*
X1908920Y2061680D1*
X1907019Y2062630D1*
X1905096D1*
X1903195Y2061680D1*
X1902222Y2060707D1*
X1901271Y2057833D1*
Y2049233D1*
X1921367D1*
X1910844Y2055932D2*
X1921367Y2062630D1*
X1906069Y2069779D2*
X1905118D1*
X1903195Y2070729D1*
X1902244Y2071680D1*
X1901293Y2073603D1*
Y2077428D1*
X1902244Y2079329D1*
X1903195Y2080280D1*
X1905118Y2081253D1*
X1907019D1*
X1908943Y2080280D1*
X1911795Y2078379D1*
X1921367Y2068806D1*
Y2082203D1*
X1905118Y2088379D2*
X1904145Y2090302D1*
X1901293Y2093176D1*
X1921367D1*
X1790504Y2233402D2*
X1799104D1*
X1801978Y2234374D1*
X1802951Y2235325D1*
X1803901Y2237226D1*
Y2239150D1*
X1802951Y2241051D1*
X1801978Y2242024D1*
X1799104Y2242974D1*
X1790504D1*
Y2222878D1*
X1797203Y2233402D2*
X1803901Y2222878D1*
X1811050Y2238177D2*
Y2239128D1*
X1812000Y2241051D1*
X1812951Y2242002D1*
X1814874Y2242952D1*
X1818699D1*
X1820600Y2242002D1*
X1821551Y2241051D1*
X1822524Y2239128D1*
Y2237226D1*
X1821551Y2235303D1*
X1819650Y2232451D1*
X1810077Y2222878D1*
X1823474D1*
X1830623Y2238177D2*
Y2239128D1*
X1831573Y2241051D1*
X1832524Y2242002D1*
X1834447Y2242952D1*
X1838272D1*
X1840173Y2242002D1*
X1841124Y2241051D1*
X1842097Y2239128D1*
Y2237226D1*
X1841124Y2235303D1*
X1839223Y2232451D1*
X1829650Y2222878D1*
X1843047D1*
X1717093Y2038682D2*
Y2047282D1*
X1716120Y2050156D1*
X1715170Y2051129D1*
X1713269Y2052080D1*
X1711345D1*
X1709444Y2051129D1*
X1708471Y2050156D1*
X1707521Y2047282D1*
X1707520Y2038682D1*
X1727616D1*
X1717093Y2045381D2*
X1727617Y2052080D1*
X1712318Y2059228D2*
X1711367D1*
X1709444Y2060179D1*
X1708493Y2061129D1*
X1707543Y2063053D1*
Y2066878D1*
X1708493Y2068779D1*
X1709444Y2069729D1*
X1711367Y2070702D1*
X1713269D1*
X1715192Y2069729D1*
X1718044Y2067828D1*
X1727617Y2058255D1*
Y2071653D1*
X1707543Y2079752D2*
Y2090253D1*
X1715192Y2084527D1*
Y2087401D1*
X1716143Y2089302D1*
X1717093Y2090253D1*
X1719967Y2091226D1*
X1721868D1*
X1724742Y2090253D1*
X1726666Y2088352D1*
X1727617Y2085478D1*
Y2082604D1*
X1726666Y2079752D1*
X1725693Y2078801D1*
X1723792Y2077828D1*
X1594456Y2233402D2*
X1603056D1*
X1605930Y2234374D1*
X1606903Y2235325D1*
X1607854Y2237226D1*
Y2239150D1*
X1606903Y2241051D1*
X1605930Y2242024D1*
X1603056Y2242974D1*
X1594456D1*
Y2222878D1*
X1601155Y2233402D2*
X1607854Y2222878D1*
X1615002Y2238177D2*
Y2239128D1*
X1615953Y2241051D1*
X1616903Y2242002D1*
X1618827Y2242952D1*
X1622651D1*
X1624553Y2242002D1*
X1625503Y2241051D1*
X1626476Y2239128D1*
Y2237226D1*
X1625503Y2235303D1*
X1623602Y2232451D1*
X1614029Y2222878D1*
X1627427D1*
X1643175D2*
Y2242952D1*
X1633602Y2229577D1*
X1647950D1*
X2248547Y2132614D2*
Y2141214D1*
X2247575Y2144088D1*
X2246624Y2145061D1*
X2244723Y2146012D1*
X2242799D1*
X2240898Y2145061D1*
X2239925Y2144088D1*
X2238975Y2141214D1*
Y2132614D1*
X2259071D1*
X2248547Y2139313D2*
X2259071Y2146011D1*
X2243772Y2153160D2*
X2242821D1*
X2240898Y2154111D1*
X2239947Y2155061D1*
X2238997Y2156985D1*
Y2160809D1*
X2239947Y2162711D1*
X2240898Y2163661D1*
X2242821Y2164634D1*
X2244723D1*
X2246646Y2163661D1*
X2249498Y2161760D1*
X2259071Y2152187D1*
Y2165585D1*
X2238997Y2183234D2*
Y2173684D1*
X2247597Y2172733D1*
X2246646Y2173684D1*
X2245673Y2176558D1*
Y2179410D1*
X2246646Y2182284D1*
X2248547Y2184207D1*
X2251421Y2185158D1*
X2253323D1*
X2256197Y2184207D1*
X2258120Y2182284D1*
X2259071Y2179409D1*
Y2176558D1*
X2258120Y2173684D1*
X2257147Y2172733D1*
X2255246Y2171760D1*
X2083106Y2227329D2*
X2091706D1*
X2094580Y2228302D1*
X2095552Y2229253D1*
X2096503Y2231154D1*
Y2233077D1*
X2095552Y2234979D1*
X2094580Y2235951D1*
X2091706Y2236902D1*
X2083106D1*
Y2216806D1*
X2089804Y2227329D2*
X2096503Y2216806D1*
X2103652Y2232105D2*
Y2233055D1*
X2104602Y2234979D1*
X2105553Y2235929D1*
X2107476Y2236880D1*
X2111301D1*
X2113202Y2235929D1*
X2114153Y2234979D1*
X2115125Y2233055D1*
Y2231154D1*
X2114153Y2229231D1*
X2112251Y2226379D1*
X2102679Y2216806D1*
X2116076D1*
X2133726Y2234028D2*
X2132775Y2235929D1*
X2129901Y2236880D1*
X2128000D1*
X2125126Y2235929D1*
X2123202Y2233055D1*
X2122252Y2228280D1*
Y2223505D1*
X2123202Y2219680D1*
X2125126Y2217757D1*
X2128000Y2216806D1*
X2128950D1*
X2131802Y2217757D1*
X2133726Y2219680D1*
X2134676Y2222554D1*
Y2223505D1*
X2133726Y2226379D1*
X2131802Y2228280D1*
X2128950Y2229231D1*
X2128000D1*
X2125126Y2228280D1*
X2123202Y2226379D1*
X2122252Y2223505D1*
X1437867Y763747D2*
X1446467D1*
X1449341Y764719D1*
X1450314Y765670D1*
X1451265Y767571D1*
Y769495D1*
X1450314Y771396D1*
X1449341Y772369D1*
X1446467Y773319D1*
X1437867D1*
Y753223D1*
X1444566Y763747D2*
X1451265Y753223D1*
X1458413Y768522D2*
Y769473D1*
X1459364Y771396D1*
X1460314Y772347D1*
X1462238Y773297D1*
X1466062D1*
X1467964Y772347D1*
X1468914Y771396D1*
X1469887Y769473D1*
Y767571D1*
X1468914Y765648D1*
X1467013Y762796D1*
X1457440Y753223D1*
X1470838D1*
X1480838D2*
X1490411Y773297D1*
X1477013D1*
X1781663Y757497D2*
X1790263D1*
X1793137Y758470D1*
X1794110Y759421D1*
X1795061Y761322D1*
Y763245D1*
X1794110Y765147D1*
X1793137Y766119D1*
X1790263Y767070D1*
X1781663D1*
Y746974D1*
X1788362Y757497D2*
X1795061Y746974D1*
X1802209Y762273D2*
Y763223D1*
X1803160Y765147D1*
X1804110Y766097D1*
X1806034Y767048D1*
X1809858D1*
X1811760Y766097D1*
X1812710Y765147D1*
X1813683Y763223D1*
Y761322D1*
X1812710Y759399D1*
X1810809Y756547D1*
X1801236Y746974D1*
X1814634D1*
X1825585Y767048D2*
X1822733Y766097D1*
X1821760Y764196D1*
Y762273D1*
X1822733Y760371D1*
X1824634Y759399D1*
X1828459Y758448D1*
X1831333Y757497D1*
X1833234Y755574D1*
X1834185Y753673D1*
Y750799D1*
X1833234Y748897D1*
X1832283Y747925D1*
X1829409Y746974D1*
X1825585D1*
X1822733Y747925D1*
X1821760Y748897D1*
X1820809Y750799D1*
Y753673D1*
X1821760Y755574D1*
X1823683Y757497D1*
X1826535Y758448D1*
X1830360Y759399D1*
X1832283Y760371D1*
X1833234Y762273D1*
Y764196D1*
X1832283Y766097D1*
X1829409Y767048D1*
X1825585D1*
X2115242Y738745D2*
X2123842D1*
X2126716Y739718D1*
X2127688Y740669D1*
X2128639Y742570D1*
Y744493D1*
X2127688Y746395D1*
X2126716Y747367D1*
X2123842Y748318D1*
X2115242D1*
Y728222D1*
X2121940Y738745D2*
X2128639Y728222D1*
X2135787Y743521D2*
Y744471D1*
X2136738Y746395D1*
X2137689Y747345D1*
X2139612Y748296D1*
X2143437D1*
X2145338Y747345D1*
X2146289Y746395D1*
X2147261Y744471D1*
Y742570D1*
X2146289Y740647D1*
X2144387Y737795D1*
X2134815Y728222D1*
X2148212D1*
X2166834Y741619D2*
X2165862Y738745D1*
X2163960Y736822D1*
X2161086Y735871D1*
X2160136D1*
X2157262Y736822D1*
X2155360Y738745D1*
X2154388Y741619D1*
Y742570D1*
X2155360Y745444D1*
X2157262Y747345D1*
X2160136Y748296D1*
X2161086D1*
X2163960Y747345D1*
X2165862Y745444D1*
X2166834Y741619D1*
Y736822D1*
X2165862Y732047D1*
X2163960Y729173D1*
X2161086Y728222D1*
X2159185D1*
X2156311Y729173D1*
X2155360Y731096D1*
X2448261Y736534D2*
X2456861D1*
X2459735Y737507D1*
X2460708Y738458D1*
X2461658Y740359D1*
Y742282D1*
X2460708Y744183D1*
X2459735Y745156D1*
X2456861Y746107D1*
X2448261D1*
Y726011D1*
X2454960Y736534D2*
X2461658Y726011D1*
X2469758Y746085D2*
X2480259D1*
X2474533Y738435D1*
X2477407D1*
X2479308Y737485D1*
X2480259Y736534D1*
X2481231Y733660D1*
Y731759D1*
X2480259Y728885D1*
X2478357Y726961D1*
X2475483Y726011D1*
X2472609D1*
X2469758Y726961D1*
X2468807Y727934D1*
X2467834Y729835D1*
X2493155Y746085D2*
X2490281Y745134D1*
X2488358Y742260D1*
X2487407Y737485D1*
Y734611D1*
X2488358Y729835D1*
X2490281Y726961D1*
X2493155Y726011D1*
X2495056D1*
X2497930Y726961D1*
X2499832Y729835D1*
X2500805Y734611D1*
Y737485D1*
X2499832Y742260D1*
X2497930Y745134D1*
X2495056Y746085D1*
X2493155D1*
X2499832Y742260D2*
X2488358Y729835D1*
X2117237Y580268D2*
X2125837D1*
X2128711Y581240D1*
X2129684Y582191D1*
X2130634Y584092D1*
Y586016D1*
X2129684Y587917D1*
X2128711Y588890D1*
X2125837Y589840D1*
X2117237D1*
Y569744D1*
X2123936Y580268D2*
X2130634Y569744D1*
X2138733Y589818D2*
X2149235D1*
X2143509Y582169D1*
X2146383D1*
X2148284Y581218D1*
X2149235Y580268D1*
X2150207Y577394D1*
Y575492D1*
X2149235Y572618D1*
X2147333Y570695D1*
X2144459Y569744D1*
X2141585D1*
X2138733Y570695D1*
X2137783Y571668D1*
X2136810Y573569D1*
X2156383Y585994D2*
X2158306Y586966D1*
X2161180Y589818D1*
Y569744D1*
X1775402Y580268D2*
X1784001D1*
X1786875Y581240D1*
X1787848Y582191D1*
X1788799Y584092D1*
Y586016D1*
X1787848Y587917D1*
X1786875Y588890D1*
X1784001Y589840D1*
X1775402D1*
Y569744D1*
X1782100Y580268D2*
X1788799Y569744D1*
X1796898Y589818D2*
X1807399D1*
X1801673Y582169D1*
X1804547D1*
X1806449Y581218D1*
X1807399Y580268D1*
X1808372Y577394D1*
Y575492D1*
X1807399Y572618D1*
X1805498Y570695D1*
X1802624Y569744D1*
X1799750D1*
X1796898Y570695D1*
X1795947Y571668D1*
X1794975Y573569D1*
X1815520Y585043D2*
Y585994D1*
X1816471Y587917D1*
X1817422Y588868D1*
X1819345Y589818D1*
X1823170D1*
X1825071Y588868D1*
X1826022Y587917D1*
X1826994Y585994D1*
Y584092D1*
X1826022Y582169D1*
X1824120Y579317D1*
X1814548Y569744D1*
X1827945D1*
X2448262Y580268D2*
X2456862D1*
X2459736Y581240D1*
X2460709Y582191D1*
X2461660Y584092D1*
Y586016D1*
X2460709Y587917D1*
X2459736Y588890D1*
X2456862Y589840D1*
X2448262D1*
Y569744D1*
X2454961Y580268D2*
X2461660Y569744D1*
X2469759Y589818D2*
X2480260D1*
X2474534Y582169D1*
X2477408D1*
X2479309Y581218D1*
X2480260Y580268D1*
X2481233Y577394D1*
Y575492D1*
X2480260Y572618D1*
X2478359Y570695D1*
X2475485Y569744D1*
X2472611D1*
X2469759Y570695D1*
X2468808Y571668D1*
X2467835Y573569D1*
X2489332Y589818D2*
X2499833D1*
X2494107Y582169D1*
X2496981D1*
X2498882Y581218D1*
X2499833Y580268D1*
X2500806Y577394D1*
Y575492D1*
X2499833Y572618D1*
X2497932Y570695D1*
X2495058Y569744D1*
X2492184D1*
X2489332Y570695D1*
X2488381Y571668D1*
X2487408Y573569D1*
X1437391Y580268D2*
X1445991D1*
X1448865Y581240D1*
X1449837Y582191D1*
X1450788Y584092D1*
Y586016D1*
X1449837Y587917D1*
X1448865Y588890D1*
X1445991Y589840D1*
X1437391D1*
Y569744D1*
X1444089Y580268D2*
X1450788Y569744D1*
X1458887Y589818D2*
X1469388D1*
X1463662Y582169D1*
X1466536D1*
X1468438Y581218D1*
X1469388Y580268D1*
X1470361Y577394D1*
Y575492D1*
X1469388Y572618D1*
X1467487Y570695D1*
X1464613Y569744D1*
X1461739D1*
X1458887Y570695D1*
X1457937Y571668D1*
X1456964Y573569D1*
X1486110Y569744D2*
Y589818D1*
X1476537Y576443D1*
X1490885D1*
X460572Y842801D2*
X469172D1*
X472046Y843773D1*
X473019Y844724D1*
X473969Y846625D1*
Y848549D1*
X473019Y850450D1*
X472046Y851423D1*
X469172Y852373D1*
X460572D1*
Y832277D1*
X467271Y842801D2*
X473969Y832277D1*
X482069Y852351D2*
X492570D1*
X486844Y844702D1*
X489718D1*
X491619Y843751D1*
X492570Y842801D1*
X493542Y839927D1*
Y838025D1*
X492570Y835151D1*
X490668Y833228D1*
X487794Y832277D1*
X484920D1*
X482069Y833228D1*
X481118Y834201D1*
X480145Y836102D1*
X511192Y852351D2*
X501642D1*
X500691Y843751D1*
X501642Y844702D1*
X504516Y845675D1*
X507368D1*
X510242Y844702D1*
X512165Y842801D1*
X513116Y839927D1*
Y838025D1*
X512165Y835151D1*
X510242Y833228D1*
X507368Y832277D1*
X504516D1*
X501642Y833228D1*
X500691Y834201D1*
X499718Y836102D1*
X964033Y797279D2*
Y805879D1*
X963060Y808753D1*
X962109Y809726D1*
X960208Y810676D1*
X958285D1*
X956384Y809726D1*
X955411Y808753D1*
X954460Y805879D1*
Y797279D1*
X974556D1*
X964033Y803978D2*
X974556Y810676D1*
X954482Y818775D2*
Y829277D1*
X962132Y823551D1*
Y826425D1*
X963082Y828326D1*
X964033Y829277D1*
X966907Y830249D1*
X968808D1*
X971682Y829277D1*
X973606Y827375D1*
X974556Y824501D1*
Y821627D1*
X973606Y818775D1*
X972633Y817825D1*
X970732Y816852D1*
X957334Y847899D2*
X955433Y846948D1*
X954482Y844074D1*
Y842173D1*
X955433Y839299D1*
X958307Y837376D1*
X963082Y836425D1*
X967857D1*
X971682Y837376D1*
X973606Y839299D1*
X974556Y842173D1*
Y843124D1*
X973606Y845976D1*
X971682Y847899D1*
X968808Y848850D1*
X967857D1*
X964983Y847899D1*
X963082Y845976D1*
X962132Y843124D1*
Y842173D1*
X963082Y839299D1*
X964983Y837376D1*
X967857Y836425D1*
X898398Y796793D2*
Y805393D1*
X897425Y808267D1*
X896474Y809239D1*
X894573Y810190D1*
X892650D1*
X890748Y809239D1*
X889776Y808267D1*
X888825Y805393D1*
Y796793D1*
X908921D1*
X898398Y803491D2*
X908921Y810190D1*
X888847Y818289D2*
Y828790D1*
X896496Y823064D1*
Y825938D1*
X897447Y827840D1*
X898398Y828790D1*
X901272Y829763D1*
X903173D1*
X906047Y828790D1*
X907970Y826889D1*
X908921Y824015D1*
Y821141D1*
X907970Y818289D1*
X906998Y817338D1*
X905096Y816366D1*
X908921Y839763D2*
X888847Y849336D1*
Y835939D1*
X2569944Y1205273D2*
X2578544D1*
X2581418Y1206246D1*
X2582391Y1207196D1*
X2583341Y1209098D1*
Y1211021D1*
X2582391Y1212922D1*
X2581418Y1213895D1*
X2578544Y1214846D1*
X2569944D1*
Y1194750D1*
X2576643Y1205273D2*
X2583341Y1194750D1*
X2591440Y1214824D2*
X2601942D1*
X2596216Y1207174D1*
X2599090D1*
X2600991Y1206224D1*
X2601942Y1205273D1*
X2602914Y1202399D1*
Y1200498D1*
X2601942Y1197624D1*
X2600040Y1195700D1*
X2597166Y1194750D1*
X2594292D1*
X2591440Y1195700D1*
X2590490Y1196673D1*
X2589517Y1198574D1*
X2613865Y1214824D2*
X2611014Y1213873D1*
X2610041Y1211972D1*
Y1210048D1*
X2611014Y1208147D1*
X2612915Y1207174D1*
X2616739Y1206224D1*
X2619613Y1205273D1*
X2621515Y1203350D1*
X2622465Y1201448D1*
Y1198574D1*
X2621515Y1196673D1*
X2620564Y1195700D1*
X2617690Y1194750D1*
X2613865D1*
X2611014Y1195700D1*
X2610041Y1196673D1*
X2609090Y1198574D1*
Y1201448D1*
X2610041Y1203350D1*
X2611964Y1205273D1*
X2614816Y1206224D1*
X2618641Y1207174D1*
X2620564Y1208147D1*
X2621515Y1210048D1*
Y1211972D1*
X2620564Y1213873D1*
X2617690Y1214824D1*
X2613865D1*
X2570410Y1149022D2*
X2579010D1*
X2581884Y1149995D1*
X2582856Y1150946D1*
X2583807Y1152847D1*
Y1154770D1*
X2582856Y1156672D1*
X2581884Y1157644D1*
X2579010Y1158595D1*
X2570410D1*
Y1138499D1*
X2577108Y1149022D2*
X2583807Y1138499D1*
X2591906Y1158573D2*
X2602407D1*
X2596681Y1150924D1*
X2599555D1*
X2601457Y1149973D1*
X2602407Y1149022D1*
X2603380Y1146148D1*
Y1144247D1*
X2602407Y1141373D1*
X2600506Y1139450D1*
X2597632Y1138499D1*
X2594758D1*
X2591906Y1139450D1*
X2590955Y1140422D1*
X2589983Y1142324D1*
X2622002Y1151896D2*
X2621030Y1149022D1*
X2619128Y1147099D1*
X2616254Y1146148D1*
X2615304D1*
X2612430Y1147099D1*
X2610528Y1149022D1*
X2609556Y1151896D1*
Y1152847D1*
X2610528Y1155721D1*
X2612430Y1157622D1*
X2615304Y1158573D1*
X2616254D1*
X2619128Y1157622D1*
X2621030Y1155721D1*
X2622002Y1151896D1*
Y1147099D1*
X2621030Y1142324D1*
X2619128Y1139450D1*
X2616254Y1138499D1*
X2614353D1*
X2611479Y1139450D1*
X2610528Y1141373D1*
X2569458Y1092773D2*
X2578058D1*
X2580932Y1093746D1*
X2581904Y1094696D1*
X2582855Y1096598D1*
Y1098521D1*
X2581904Y1100422D1*
X2580932Y1101395D1*
X2578058Y1102346D1*
X2569458D1*
Y1082250D1*
X2576156Y1092773D2*
X2582855Y1082250D1*
X2598603D2*
Y1102324D1*
X2589031Y1088948D1*
X2603379D1*
X2615302Y1102324D2*
X2612428Y1101373D1*
X2610505Y1098499D1*
X2609554Y1093724D1*
Y1090850D1*
X2610505Y1086074D1*
X2612428Y1083200D1*
X2615302Y1082250D1*
X2617204D1*
X2620078Y1083200D1*
X2621979Y1086074D1*
X2622952Y1090850D1*
Y1093724D1*
X2621979Y1098499D1*
X2620078Y1101373D1*
X2617204Y1102324D1*
X2615302D1*
X2621979Y1098499D2*
X2610505Y1086074D1*
X2542508Y2133398D2*
X2551108D1*
X2553982Y2134370D1*
X2554955Y2135321D1*
X2555906Y2137222D1*
Y2139146D1*
X2554955Y2141047D1*
X2553982Y2142020D1*
X2551108Y2142970D1*
X2542508D1*
Y2122874D1*
X2549207Y2133398D2*
X2555906Y2122874D1*
X2571654D2*
Y2142948D1*
X2562081Y2129573D1*
X2576429D1*
X2582605Y2139124D2*
X2584528Y2140096D1*
X2587402Y2142948D1*
Y2122874D1*
X2538210Y2077148D2*
X2546810D1*
X2549684Y2078121D1*
X2550656Y2079072D1*
X2551607Y2080973D1*
Y2082896D1*
X2550656Y2084798D1*
X2549684Y2085770D1*
X2546810Y2086721D1*
X2538210D1*
Y2066625D1*
X2544908Y2077148D2*
X2551607Y2066625D1*
X2567355D2*
Y2086699D1*
X2557783Y2073324D1*
X2572131D1*
X2579279Y2081924D2*
Y2082874D1*
X2580230Y2084798D1*
X2581180Y2085748D1*
X2583104Y2086699D1*
X2586928D1*
X2588830Y2085748D1*
X2589780Y2084798D1*
X2590753Y2082874D1*
Y2080973D1*
X2589780Y2079050D1*
X2587879Y2076198D1*
X2578306Y2066625D1*
X2591704D1*
X2538446Y2017932D2*
X2547046D1*
X2549920Y2018905D1*
X2550893Y2019855D1*
X2551843Y2021756D1*
Y2023680D1*
X2550893Y2025581D1*
X2549920Y2026554D1*
X2547046Y2027504D1*
X2538446D1*
Y2007408D1*
X2545145Y2017932D2*
X2551843Y2007408D1*
X2567592D2*
Y2027482D1*
X2558019Y2014107D1*
X2572367D1*
X2580466Y2027482D2*
X2590967D1*
X2585241Y2019833D1*
X2588115D1*
X2590017Y2018882D1*
X2590967Y2017932D1*
X2591940Y2015058D1*
Y2013156D1*
X2590967Y2010282D1*
X2589066Y2008359D1*
X2586192Y2007408D1*
X2583318D1*
X2580466Y2008359D1*
X2579515Y2009332D1*
X2578543Y2011233D1*
X880756Y936955D2*
Y945555D1*
X879783Y948429D1*
X878833Y949402D1*
X876931Y950352D1*
X875008D1*
X873107Y949402D1*
X872134Y948429D1*
X871183Y945555D1*
Y936955D1*
X891279D1*
X880756Y943654D2*
X891279Y950352D1*
Y966101D2*
X871205D1*
X884581Y956528D1*
Y970876D1*
X891279Y986624D2*
X871205D1*
X884581Y977052D1*
Y991400D1*
X2674786Y2663706D2*
X2683386D1*
X2686260Y2664679D1*
X2687232Y2665629D1*
X2688183Y2667531D1*
Y2669454D1*
X2687232Y2671355D1*
X2686260Y2672328D1*
X2683386Y2673279D1*
X2674786D1*
Y2653183D1*
X2681484Y2663706D2*
X2688183Y2653183D1*
X2703932D2*
Y2673257D1*
X2694359Y2659881D1*
X2708707D1*
X2726356Y2673257D2*
X2716806D1*
X2715855Y2664657D1*
X2716806Y2665607D1*
X2719680Y2666580D1*
X2722532D1*
X2725406Y2665607D1*
X2727329Y2663706D1*
X2728280Y2660832D1*
Y2658931D1*
X2727329Y2656057D1*
X2725406Y2654133D1*
X2722532Y2653183D1*
X2719680D1*
X2716806Y2654133D1*
X2715855Y2655106D1*
X2714882Y2657007D1*
X2623587Y1353121D2*
Y1361721D1*
X2622614Y1364595D1*
X2621663Y1365568D1*
X2619762Y1366519D1*
X2617839D1*
X2615937Y1365568D1*
X2614965Y1364595D1*
X2614014Y1361721D1*
Y1353121D1*
X2634110D1*
X2623587Y1359820D2*
X2634110Y1366519D1*
Y1382267D2*
X2614036D1*
X2627411Y1372694D1*
Y1387042D1*
X2616888Y1404692D2*
X2614987Y1403741D1*
X2614036Y1400867D1*
Y1398966D1*
X2614987Y1396092D1*
X2617861Y1394169D1*
X2622636Y1393218D1*
X2627411D1*
X2631236Y1394169D1*
X2633159Y1396092D1*
X2634110Y1398966D1*
Y1399917D1*
X2633159Y1402769D1*
X2631236Y1404692D1*
X2628362Y1405643D1*
X2627411D1*
X2624537Y1404692D1*
X2622636Y1402769D1*
X2621685Y1399917D1*
Y1398966D1*
X2622636Y1396092D1*
X2624537Y1394169D1*
X2627411Y1393218D1*
X2162283Y2663717D2*
X2170883D1*
X2173757Y2664689D1*
X2174730Y2665640D1*
X2175680Y2667541D1*
Y2669465D1*
X2174730Y2671366D1*
X2173757Y2672339D1*
X2170883Y2673289D1*
X2162283D1*
Y2653193D1*
X2168982Y2663717D2*
X2175680Y2653193D1*
X2191429D2*
Y2673267D1*
X2181856Y2659892D1*
X2196204D1*
X2206205Y2653193D2*
X2215777Y2673267D1*
X2202380D1*
X1478828Y1601070D2*
X1487428D1*
X1490302Y1602042D1*
X1491275Y1602993D1*
X1492226Y1604894D1*
Y1606818D1*
X1491275Y1608719D1*
X1490302Y1609692D1*
X1487428Y1610642D1*
X1478828D1*
Y1590546D1*
X1485527Y1601070D2*
X1492226Y1590546D1*
X1507974D2*
Y1610620D1*
X1498401Y1597245D1*
X1512749D1*
X1523700Y1610620D2*
X1520848Y1609670D1*
X1519876Y1607768D1*
Y1605845D1*
X1520848Y1603944D1*
X1522750Y1602971D1*
X1526574Y1602020D1*
X1529448Y1601070D1*
X1531350Y1599146D1*
X1532300Y1597245D1*
Y1594371D1*
X1531350Y1592470D1*
X1530399Y1591497D1*
X1527525Y1590546D1*
X1523700D1*
X1520848Y1591497D1*
X1519876Y1592470D1*
X1518925Y1594371D1*
Y1597245D1*
X1519876Y1599146D1*
X1521799Y1601070D1*
X1524651Y1602020D1*
X1528476Y1602971D1*
X1530399Y1603944D1*
X1531350Y1605845D1*
Y1607768D1*
X1530399Y1609670D1*
X1527525Y1610620D1*
X1523700D1*
X1326391Y1881717D2*
X1334991D1*
X1337865Y1882689D1*
X1338838Y1883640D1*
X1339788Y1885541D1*
Y1887465D1*
X1338838Y1889366D1*
X1337865Y1890339D1*
X1334991Y1891289D1*
X1326391D1*
Y1871193D1*
X1333089Y1881717D2*
X1339788Y1871193D1*
X1358388Y1891289D2*
X1345964D1*
Y1871193D1*
X1358388D1*
X1345964Y1881717D2*
X1353613D1*
X1377961Y1888415D2*
X1376060Y1890339D1*
X1373186Y1891289D1*
X1369362D1*
X1366488Y1890339D1*
X1364564Y1888415D1*
Y1886514D1*
X1365537Y1884591D1*
X1366488Y1883640D1*
X1368389Y1882689D1*
X1374137Y1880766D1*
X1376060Y1879815D1*
X1377011Y1878843D1*
X1377961Y1876941D1*
Y1874067D1*
X1376060Y1872166D1*
X1373186Y1871193D1*
X1369362D1*
X1366488Y1872166D1*
X1364564Y1874067D1*
X1396562Y1891289D2*
X1384137D1*
Y1871193D1*
X1396562D1*
X1384137Y1881717D2*
X1391786D1*
X1409436Y1891289D2*
Y1871193D1*
X1402737Y1891289D2*
X1416135D1*
X1422310Y1887442D2*
X1424234Y1888415D1*
X1427108Y1891267D1*
Y1871193D1*
X1626730Y441377D2*
X1624829Y443301D1*
X1621955Y444251D1*
X1618130D1*
X1615256Y443301D1*
X1613333Y441377D1*
Y439476D1*
X1614305Y437553D1*
X1615256Y436602D1*
X1617157Y435651D1*
X1622905Y433728D1*
X1624829Y432777D1*
X1625779Y431804D1*
X1626730Y429903D1*
Y427029D1*
X1624829Y425128D1*
X1621955Y424155D1*
X1618130D1*
X1615256Y425128D1*
X1613333Y427029D1*
X1632906Y444251D2*
X1637703Y424155D1*
X1642478Y444251D1*
X1647254Y424155D1*
X1652051Y444251D1*
X1658227Y440404D2*
X1660150Y441377D1*
X1663024Y444229D1*
Y424155D1*
X1956777Y437092D2*
X1954875Y439016D1*
X1952001Y439966D1*
X1948177D1*
X1945303Y439016D1*
X1943379Y437092D1*
Y435191D1*
X1944352Y433268D1*
X1945303Y432317D1*
X1947204Y431366D1*
X1952952Y429443D1*
X1954875Y428492D1*
X1955826Y427520D1*
X1956777Y425618D1*
Y422744D1*
X1954875Y420843D1*
X1952001Y419870D1*
X1948177D1*
X1945303Y420843D1*
X1943379Y422744D1*
X1962952Y439966D2*
X1967750Y419870D1*
X1972525Y439966D1*
X1977300Y419870D1*
X1982098Y439966D1*
X1989246Y435169D2*
Y436120D1*
X1990197Y438043D1*
X1991147Y438994D1*
X1993071Y439944D1*
X1996895D1*
X1998797Y438994D1*
X1999747Y438043D1*
X2000720Y436120D1*
Y434218D1*
X1999747Y432295D1*
X1997846Y429443D1*
X1988273Y419870D1*
X2001671D1*
X2297548Y434951D2*
X2295647Y436874D1*
X2292773Y437825D1*
X2288948D1*
X2286074Y436874D1*
X2284151Y434951D1*
Y433049D1*
X2285124Y431126D1*
X2286074Y430175D1*
X2287976Y429225D1*
X2293724Y427301D1*
X2295647Y426351D1*
X2296598Y425378D1*
X2297548Y423477D1*
Y420603D1*
X2295647Y418701D1*
X2292773Y417729D1*
X2288948D1*
X2286074Y418701D1*
X2284151Y420603D1*
X2303724Y437825D2*
X2308521Y417729D1*
X2313297Y437825D1*
X2318072Y417729D1*
X2322869Y437825D1*
X2330968Y437803D2*
X2341470D1*
X2335744Y430153D1*
X2338618D1*
X2340519Y429203D1*
X2341470Y428252D1*
X2342442Y425378D1*
Y423477D1*
X2341470Y420603D1*
X2339568Y418679D1*
X2336694Y417729D1*
X2333820D1*
X2330968Y418679D1*
X2330018Y419652D1*
X2329045Y421553D1*
X2634632Y436022D2*
X2632731Y437945D1*
X2629857Y438896D1*
X2626032D1*
X2623158Y437945D1*
X2621235Y436022D1*
Y434120D1*
X2622207Y432197D1*
X2623158Y431246D1*
X2625059Y430296D1*
X2630807Y428372D1*
X2632731Y427422D1*
X2633681Y426449D1*
X2634632Y424548D1*
Y421674D1*
X2632731Y419772D1*
X2629857Y418800D1*
X2626032D1*
X2623158Y419772D1*
X2621235Y421674D1*
X2640808Y438896D2*
X2645605Y418800D1*
X2650380Y438896D1*
X2655156Y418800D1*
X2659953Y438896D1*
X2675701Y418800D2*
Y438873D1*
X2666129Y425498D1*
X2680477D1*
X2146579Y1700306D2*
Y1685958D1*
X2147529Y1683084D1*
X2149453Y1681183D1*
X2152327Y1680210D1*
X2154228D1*
X2157102Y1681183D1*
X2159025Y1683084D1*
X2159976Y1685958D1*
Y1700306D1*
X2166152Y1696460D2*
X2168075Y1697432D1*
X2170949Y1700284D1*
Y1680210D1*
X2093368Y1073682D2*
Y1053586D1*
X2104842D1*
X2111018Y1063159D2*
X2119640D1*
X2122492Y1064110D1*
X2123464Y1065082D1*
X2124415Y1066984D1*
Y1069858D1*
X2123464Y1071759D1*
X2122492Y1072732D1*
X2119640Y1073682D1*
X2111018D1*
Y1053586D1*
X2144939Y1068907D2*
X2143988Y1070808D1*
X2142065Y1072732D1*
X2140163Y1073682D1*
X2136339D1*
X2134415Y1072732D1*
X2132514Y1070808D1*
X2131541Y1068907D1*
X2130591Y1066033D1*
Y1061236D1*
X2131541Y1058384D1*
X2132514Y1056460D1*
X2134415Y1054559D1*
X2136339Y1053586D1*
X2140163D1*
X2142065Y1054559D1*
X2143988Y1056460D1*
X2144939Y1058384D1*
X2160687Y1053586D2*
Y1073660D1*
X2151114Y1060285D1*
X2165462D1*
X2177386Y1073660D2*
X2174512Y1072710D1*
X2172589Y1069836D1*
X2171638Y1065060D1*
Y1062186D1*
X2172589Y1057411D1*
X2174512Y1054537D1*
X2177386Y1053586D1*
X2179287D1*
X2182161Y1054537D1*
X2184063Y1057411D1*
X2185035Y1062186D1*
Y1065060D1*
X2184063Y1069836D1*
X2182161Y1072710D1*
X2179287Y1073660D1*
X2177386D1*
X2184063Y1069836D2*
X2172589Y1057411D1*
X2195036Y1053586D2*
X2204609Y1073660D1*
X2191211D1*
X2215560D2*
X2212708Y1072710D1*
X2211735Y1070808D1*
Y1068885D1*
X2212708Y1066984D1*
X2214609Y1066011D1*
X2218434Y1065060D1*
X2221308Y1064110D1*
X2223209Y1062186D1*
X2224159Y1060285D1*
Y1057411D1*
X2223209Y1055510D1*
X2222258Y1054537D1*
X2219384Y1053586D1*
X2215560D1*
X2212708Y1054537D1*
X2211735Y1055510D1*
X2210784Y1057411D1*
Y1060285D1*
X2211735Y1062186D1*
X2213658Y1064110D1*
X2216510Y1065060D1*
X2220335Y1066011D1*
X2222258Y1066984D1*
X2223209Y1068885D1*
Y1070808D1*
X2222258Y1072710D1*
X2219384Y1073660D1*
X2215560D1*
X801636Y2349384D2*
Y2335036D1*
X802586Y2332162D1*
X804510Y2330260D1*
X807384Y2329288D1*
X809285D1*
X812159Y2330260D1*
X814082Y2332162D1*
X815033Y2335036D1*
Y2349384D1*
X822181Y2344586D2*
Y2345537D1*
X823132Y2347460D1*
X824083Y2348411D1*
X826006Y2349362D1*
X829831D1*
X831732Y2348411D1*
X832683Y2347460D1*
X833655Y2345537D1*
Y2343636D1*
X832683Y2341712D1*
X830781Y2338860D1*
X821209Y2329288D1*
X834606D1*
X764663Y2144033D2*
X752217D1*
Y2123937D1*
Y2134460D2*
X759866D1*
X777538Y2144033D2*
Y2123937D1*
X770839Y2144033D2*
X784236D1*
X791385Y2139235D2*
Y2140186D1*
X792335Y2142109D1*
X793286Y2143060D1*
X795209Y2144011D1*
X799034D1*
X800935Y2143060D1*
X801886Y2142109D1*
X802859Y2140186D1*
Y2138285D1*
X801886Y2136361D1*
X799985Y2133509D1*
X790412Y2123937D1*
X803809D1*
X811908Y2144011D2*
X822410D1*
X816684Y2136361D1*
X819558D1*
X821459Y2135411D1*
X822410Y2134460D1*
X823382Y2131586D1*
Y2129685D1*
X822410Y2126811D1*
X820508Y2124887D1*
X817634Y2123937D1*
X814760D1*
X811908Y2124887D1*
X810958Y2125860D1*
X809985Y2127761D1*
X835306Y2144011D2*
X832432Y2143060D1*
X830509Y2140186D1*
X829558Y2135411D1*
Y2132537D1*
X830509Y2127761D1*
X832432Y2124887D1*
X835306Y2123937D1*
X837207D1*
X840081Y2124887D1*
X841983Y2127761D1*
X842955Y2132537D1*
Y2135411D1*
X841983Y2140186D1*
X840081Y2143060D1*
X837207Y2144011D1*
X835306D1*
X841983Y2140186D2*
X830509Y2127761D1*
X849131Y2144033D2*
X862528Y2123937D1*
Y2144033D2*
X849131Y2123937D1*
X874452Y2144033D2*
X872551Y2143104D1*
X870628Y2141181D1*
X869677Y2139258D1*
X868704Y2136383D1*
Y2131608D1*
X869677Y2128734D1*
X870628Y2126833D1*
X872551Y2124910D1*
X874452Y2123959D1*
X878277D1*
X880200Y2124910D1*
X882101Y2126833D1*
X883052Y2128734D1*
X884025Y2131608D1*
Y2136383D1*
X883052Y2139258D1*
X882101Y2141181D1*
X880200Y2143104D1*
X878277Y2144033D1*
X874452D1*
X877326Y2127784D2*
X883052Y2122036D1*
X780928Y2556287D2*
Y2541939D1*
X781879Y2539065D1*
X783802Y2537163D1*
X786676Y2536191D1*
X788578D1*
X791452Y2537163D1*
X793375Y2539065D1*
X794326Y2541939D1*
Y2556287D1*
X802425Y2556264D2*
X812926D1*
X807200Y2548615D1*
X810074D1*
X811975Y2547665D1*
X812926Y2546714D1*
X813899Y2543840D1*
Y2541939D1*
X812926Y2539065D1*
X811025Y2537141D1*
X808151Y2536191D1*
X805277D1*
X802425Y2537141D1*
X801474Y2538114D1*
X800501Y2540015D1*
X774326Y2461211D2*
X784827D1*
X779101Y2453562D1*
X781975D1*
X783877Y2452612D1*
X784827Y2451661D1*
X785800Y2448787D1*
Y2446886D1*
X784827Y2444012D1*
X782926Y2442088D1*
X780052Y2441138D1*
X777178D1*
X774326Y2442088D1*
X773375Y2443061D1*
X772403Y2444962D1*
X792926Y2443061D2*
X791976Y2442088D1*
X792926Y2441138D1*
X793899Y2442088D1*
X792926Y2443061D1*
X801998Y2461211D2*
X812499D1*
X806773Y2453562D1*
X809647D1*
X811549Y2452612D1*
X812499Y2451661D1*
X813472Y2448787D1*
Y2446886D1*
X812499Y2444012D1*
X810598Y2442088D1*
X807724Y2441138D1*
X804850D1*
X801998Y2442088D1*
X801048Y2443061D1*
X800075Y2444962D1*
X819648Y2461234D2*
X827297Y2441138D1*
X834946Y2461234D1*
X2155214Y2056092D2*
Y2041744D1*
X2156165Y2038870D1*
X2158088Y2036968D1*
X2160962Y2035996D1*
X2162863D1*
X2165737Y2036968D1*
X2167661Y2038870D1*
X2168611Y2041744D1*
Y2056092D1*
X2184360Y2035996D2*
Y2056070D1*
X2174787Y2042694D1*
X2189135D1*
X2109174Y1808992D2*
Y1809943D1*
X2110124Y1811866D1*
X2111075Y1812817D1*
X2112998Y1813767D1*
X2116823D1*
X2118724Y1812817D1*
X2119675Y1811866D1*
X2120648Y1809943D1*
Y1808041D1*
X2119675Y1806118D1*
X2117774Y1803266D1*
X2108201Y1793693D1*
X2121598D1*
X2139248Y1813767D2*
X2129697D1*
X2128747Y1805167D1*
X2129697Y1806118D1*
X2132571Y1807091D1*
X2135423D1*
X2138297Y1806118D1*
X2140221Y1804217D1*
X2141171Y1801343D1*
Y1799441D1*
X2140221Y1796567D1*
X2138297Y1794644D1*
X2135423Y1793693D1*
X2132571D1*
X2129697Y1794644D1*
X2128747Y1795617D1*
X2127774Y1797518D1*
X2158821Y1810915D2*
X2157870Y1812817D1*
X2154996Y1813767D1*
X2153095D1*
X2150221Y1812817D1*
X2148298Y1809943D1*
X2147347Y1805167D1*
Y1800392D1*
X2148298Y1796567D1*
X2150221Y1794644D1*
X2153095Y1793693D1*
X2154046D1*
X2156898Y1794644D1*
X2158821Y1796567D1*
X2159772Y1799441D1*
Y1800392D1*
X2158821Y1803266D1*
X2156898Y1805167D1*
X2154046Y1806118D1*
X2153095D1*
X2150221Y1805167D1*
X2148298Y1803266D1*
X2147347Y1800392D1*
X2165947Y1803730D2*
X2177001D1*
X2183177Y1813789D2*
Y1793693D1*
X2196574Y1813789D2*
X2183177Y1800392D1*
X2187952Y1805189D2*
X2196574Y1793693D1*
X2202750Y1813789D2*
Y1793693D1*
Y1804217D2*
X2204673Y1806140D1*
X2206575Y1807091D1*
X2209449D1*
X2211350Y1806140D1*
X2213273Y1804217D1*
X2214224Y1801343D1*
Y1799441D1*
X2213273Y1796567D1*
X2211350Y1794666D1*
X2209449Y1793693D1*
X2206575D1*
X2204673Y1794666D1*
X2202750Y1796567D1*
X2220400Y1813789D2*
X2221350Y1812839D1*
X2222323Y1813789D1*
X2221350Y1814762D1*
X2220400Y1813789D1*
X2221350Y1807091D2*
Y1793693D1*
X2231373Y1813789D2*
Y1797518D1*
X2232323Y1794666D1*
X2234247Y1793693D1*
X2236148D1*
X2228499Y1807091D2*
X2235197D1*
X1225738Y879616D2*
Y865268D1*
X1226689Y862394D1*
X1228612Y860493D1*
X1231486Y859520D1*
X1233387D1*
X1236261Y860493D1*
X1238185Y862394D1*
X1239135Y865268D1*
Y879616D1*
X1256785Y879594D2*
X1247234D1*
X1246284Y870994D1*
X1247234Y871945D1*
X1250108Y872917D1*
X1252960D1*
X1255834Y871945D1*
X1257758Y870043D1*
X1258708Y867169D1*
Y865268D1*
X1257758Y862394D1*
X1255834Y860471D1*
X1252960Y859520D1*
X1250108D1*
X1247234Y860471D1*
X1246284Y861443D1*
X1245311Y863345D1*
X1088926Y912094D2*
Y897746D1*
X1089877Y894872D1*
X1091800Y892970D1*
X1094674Y891998D1*
X1096576D1*
X1099450Y892970D1*
X1101373Y894872D1*
X1102324Y897746D1*
Y912094D1*
X1119973Y909220D2*
X1119023Y911121D1*
X1116149Y912072D1*
X1114247D1*
X1111373Y911121D1*
X1109450Y908247D1*
X1108499Y903472D1*
Y898696D1*
X1109450Y894872D1*
X1111373Y892948D1*
X1114247Y891998D1*
X1115198D1*
X1118050Y892948D1*
X1119973Y894872D1*
X1120924Y897746D1*
Y898696D1*
X1119973Y901570D1*
X1118050Y903472D1*
X1115198Y904422D1*
X1114247D1*
X1111373Y903472D1*
X1109450Y901570D1*
X1108499Y898696D1*
X1064766Y1026372D2*
X1074339Y1046446D1*
X1060942D1*
X1085290D2*
X1082438Y1045496D1*
X1081465Y1043594D1*
Y1041671D1*
X1082438Y1039770D1*
X1084339Y1038797D1*
X1088164Y1037846D1*
X1091038Y1036896D1*
X1092939Y1034972D1*
X1093890Y1033071D1*
Y1030197D1*
X1092939Y1028296D1*
X1091989Y1027323D1*
X1089115Y1026372D1*
X1085290D1*
X1082438Y1027323D1*
X1081465Y1028296D1*
X1080515Y1030197D1*
Y1033071D1*
X1081465Y1034972D1*
X1083389Y1036896D1*
X1086241Y1037846D1*
X1090065Y1038797D1*
X1091989Y1039770D1*
X1092939Y1041671D1*
Y1043594D1*
X1091989Y1045496D1*
X1089115Y1046446D1*
X1085290D1*
X1100066Y1036409D2*
X1111119D1*
X1123994Y1046468D2*
Y1026372D1*
X1117295Y1046468D2*
X1130692D1*
X1149293D2*
X1136868D1*
Y1026372D1*
X1149293D1*
X1136868Y1036896D2*
X1144517D1*
X1170767Y1026372D2*
Y1046468D1*
X1163118Y1026372D1*
X1155468Y1046468D1*
Y1026372D1*
X1183641Y1046468D2*
Y1026372D1*
X1176943Y1046468D2*
X1190340D1*
X1207990Y1043594D2*
X1207039Y1045496D1*
X1204165Y1046446D1*
X1202264D1*
X1199390Y1045496D1*
X1197466Y1042622D1*
X1196516Y1037846D1*
Y1033071D1*
X1197466Y1029247D1*
X1199390Y1027323D1*
X1202264Y1026372D1*
X1203214D1*
X1206066Y1027323D1*
X1207990Y1029247D1*
X1208940Y1032121D1*
Y1033071D1*
X1207990Y1035945D1*
X1206066Y1037846D1*
X1203214Y1038797D1*
X1202264D1*
X1199390Y1037846D1*
X1197466Y1035945D1*
X1196516Y1033071D1*
X1220864Y1046446D2*
X1217990Y1045496D1*
X1216067Y1042622D1*
X1215116Y1037846D1*
Y1034972D1*
X1216067Y1030197D1*
X1217990Y1027323D1*
X1220864Y1026372D1*
X1222765D1*
X1225639Y1027323D1*
X1227541Y1030197D1*
X1228513Y1034972D1*
Y1037846D1*
X1227541Y1042622D1*
X1225639Y1045496D1*
X1222765Y1046446D1*
X1220864D1*
X1227541Y1042622D2*
X1216067Y1030197D1*
X1240437Y1046446D2*
X1237563Y1045496D1*
X1235640Y1042622D1*
X1234689Y1037846D1*
Y1034972D1*
X1235640Y1030197D1*
X1237563Y1027323D1*
X1240437Y1026372D1*
X1242338D1*
X1245212Y1027323D1*
X1247114Y1030197D1*
X1248086Y1034972D1*
Y1037846D1*
X1247114Y1042622D1*
X1245212Y1045496D1*
X1242338Y1046446D1*
X1240437D1*
X1247114Y1042622D2*
X1235640Y1030197D1*
X1260010Y1046446D2*
X1257136Y1045496D1*
X1255213Y1042622D1*
X1254262Y1037846D1*
Y1034972D1*
X1255213Y1030197D1*
X1257136Y1027323D1*
X1260010Y1026372D1*
X1261911D1*
X1264785Y1027323D1*
X1266687Y1030197D1*
X1267659Y1034972D1*
Y1037846D1*
X1266687Y1042622D1*
X1264785Y1045496D1*
X1261911Y1046446D1*
X1260010D1*
X1266687Y1042622D2*
X1255213Y1030197D1*
X682416Y844675D2*
Y830327D1*
X683367Y827453D1*
X685290Y825552D1*
X688164Y824579D1*
X690066D1*
X692940Y825552D1*
X694863Y827453D1*
X695814Y830327D1*
Y844675D1*
X705814Y824579D2*
X715387Y844653D1*
X701989D1*
X775874Y573878D2*
X795970D1*
X775873Y567179D2*
X775874Y580576D1*
X778748Y600149D2*
X776824Y598248D1*
X775874Y595374D1*
Y591550D1*
X776824Y588675D1*
X778748Y586752D1*
X780649D1*
X782572Y587725D1*
X783523Y588675D1*
X784474Y590577D1*
X786397Y596325D1*
X787348Y598248D1*
X788320Y599199D1*
X790222Y600149D1*
X793096D1*
X794997Y598248D1*
X795970Y595374D1*
Y591549D1*
X794997Y588675D1*
X793096Y586752D1*
X775874Y612073D2*
X776824Y610150D1*
X778748Y608248D1*
X780649Y607276D1*
X783523Y606325D1*
X788320D1*
X791172Y607276D1*
X793096Y608248D1*
X794997Y610150D1*
X795970Y612073D1*
Y615898D1*
X794997Y617799D1*
X793096Y619722D1*
X791172Y620673D1*
X788320Y621624D1*
X783523D1*
X780649Y620673D1*
X778748Y619722D1*
X776824Y617799D1*
X775874Y615898D1*
Y612073D1*
X786397Y627799D2*
Y636421D1*
X785446Y639273D1*
X784473Y640246D1*
X782572Y641197D1*
X779698D1*
X777797Y640246D1*
X776824Y639273D1*
X775874Y636421D1*
Y627799D1*
X795970D1*
Y651197D2*
X775896Y660770D1*
Y647372D1*
Y678419D2*
Y668869D1*
X784496Y667918D1*
X783545Y668869D1*
X782572Y671743D1*
Y674595D1*
X783545Y677469D1*
X785446Y679392D1*
X788320Y680343D1*
X790221D1*
X793095Y679392D1*
X795019Y677469D1*
X795970Y674595D1*
Y671743D1*
X795019Y668869D1*
X794046Y667918D1*
X792145Y666945D1*
X780671Y687491D2*
X779720D1*
X777797Y688442D1*
X776846Y689392D1*
X775896Y691316D1*
Y695141D1*
X776846Y697042D1*
X777797Y697992D1*
X779720Y698965D1*
X781622D1*
X783545Y697992D1*
X786397Y696091D1*
X795970Y686518D1*
Y699916D1*
X775896Y708015D2*
Y718516D1*
X783545Y712790D1*
Y715664D1*
X784496Y717565D1*
X785446Y718516D1*
X788320Y719489D1*
X790221D1*
X793095Y718516D1*
X795019Y716615D1*
X795970Y713741D1*
Y710867D1*
X795019Y708015D1*
X794046Y707064D1*
X792145Y706092D1*
X775896Y730440D2*
X776846Y727588D1*
X778748Y726615D1*
X780671D1*
X782572Y727588D1*
X783545Y729489D1*
X784496Y733314D1*
X785446Y736188D1*
X787370Y738089D1*
X789271Y739040D1*
X792145D1*
X794046Y738089D1*
X795019Y737138D1*
X795970Y734264D1*
Y730440D1*
X795019Y727588D1*
X794046Y726615D1*
X792145Y725665D1*
X789271D1*
X787370Y726615D1*
X785446Y728539D1*
X784496Y731390D1*
X783545Y735215D1*
X782572Y737138D1*
X780671Y738089D1*
X778748D1*
X776846Y737138D1*
X775896Y734264D1*
Y730440D1*
X775874Y751914D2*
X795970D1*
X775874Y745215D2*
Y758613D1*
X785446Y764788D2*
Y773388D1*
X784473Y776262D1*
X783523Y777235D1*
X781622Y778186D1*
X779698D1*
X777797Y777235D1*
X776824Y776262D1*
X775874Y773388D1*
Y764788D1*
X795970D1*
X785446Y771487D2*
X795970Y778186D1*
X685917Y1027596D2*
Y1013248D1*
X686868Y1010374D1*
X688791Y1008473D1*
X691665Y1007500D1*
X693566D1*
X696440Y1008473D1*
X698364Y1010374D1*
X699314Y1013248D1*
Y1027596D1*
X710265Y1027574D2*
X707413Y1026624D1*
X706441Y1024722D1*
Y1022799D1*
X707413Y1020898D1*
X709315Y1019925D1*
X713139Y1018974D1*
X716013Y1018024D1*
X717915Y1016100D1*
X718865Y1014199D1*
Y1011325D1*
X717915Y1009424D1*
X716964Y1008451D1*
X714090Y1007500D1*
X710265D1*
X707413Y1008451D1*
X706441Y1009424D1*
X705490Y1011325D1*
Y1014199D1*
X706441Y1016100D1*
X708364Y1018024D1*
X711216Y1018974D1*
X715041Y1019925D1*
X716964Y1020898D1*
X717915Y1022799D1*
Y1024722D1*
X716964Y1026624D1*
X714090Y1027574D1*
X710265D1*
X656808Y919156D2*
Y899060D1*
X650109Y919156D2*
X663506D1*
X684981Y899060D2*
Y919156D1*
X677331Y899060D1*
X669682Y919156D1*
Y899060D1*
X691156Y908633D2*
X699779D1*
X702630Y909583D1*
X703603Y910556D1*
X704554Y912457D1*
Y915332D1*
X703603Y917233D1*
X702630Y918206D1*
X699779Y919156D1*
X691156D1*
Y899060D1*
X710730Y915309D2*
X712653Y916282D1*
X715527Y919134D1*
Y899060D1*
X727451Y919134D2*
X724577Y918183D1*
X722653Y915309D1*
X721703Y910534D1*
Y907660D1*
X722653Y902885D1*
X724577Y900011D1*
X727451Y899060D1*
X729352D1*
X732226Y900011D1*
X734127Y902885D1*
X735100Y907660D1*
Y910534D1*
X734127Y915309D1*
X732226Y918183D1*
X729352Y919134D1*
X727451D1*
X734127Y915309D2*
X722653Y902885D1*
X742248Y914359D2*
Y915309D1*
X743199Y917233D1*
X744150Y918183D1*
X746073Y919134D1*
X749898D1*
X751799Y918183D1*
X752750Y917233D1*
X753722Y915309D1*
Y913408D1*
X752750Y911485D1*
X750848Y908633D1*
X741276Y899060D1*
X754673D1*
X2424865Y2857665D2*
Y2843317D1*
X2425816Y2840443D1*
X2427739Y2838541D1*
X2430613Y2837569D1*
X2432515D1*
X2435389Y2838541D1*
X2437312Y2840443D1*
X2438263Y2843317D1*
Y2857665D1*
X2456885Y2850966D2*
X2455912Y2848092D1*
X2454011Y2846168D1*
X2451137Y2845218D1*
X2450187D1*
X2447313Y2846168D1*
X2445411Y2848092D1*
X2444438Y2850966D1*
Y2851917D1*
X2445411Y2854791D1*
X2447313Y2856692D1*
X2450187Y2857642D1*
X2451137D1*
X2454011Y2856692D1*
X2455912Y2854791D1*
X2456885Y2850966D1*
Y2846168D1*
X2455912Y2841393D1*
X2454011Y2838519D1*
X2451137Y2837569D1*
X2449236D1*
X2446362Y2838519D1*
X2445411Y2840443D1*
X2282666Y2599635D2*
X2287463Y2579539D1*
X2292239Y2599635D1*
X2297014Y2579539D1*
X2301811Y2599635D1*
X2307987D2*
Y2579539D1*
X2314163Y2590062D2*
X2322763D1*
X2325637Y2591035D1*
X2326610Y2591986D1*
X2327560Y2593887D1*
Y2595811D1*
X2326610Y2597712D1*
X2325637Y2598685D1*
X2322763Y2599635D1*
X2314163D1*
Y2579539D1*
X2320861Y2590062D2*
X2327560Y2579539D1*
X2346160Y2599635D2*
X2333736D1*
Y2579539D1*
X2346160D1*
X2333736Y2590062D2*
X2341385D1*
X2352336Y2599635D2*
Y2579539D1*
X2363810D1*
X2382410Y2599635D2*
X2369986D1*
Y2579539D1*
X2382410D1*
X2369986Y2590062D2*
X2377635D1*
X2401983Y2596761D2*
X2400082Y2598685D1*
X2397208Y2599635D1*
X2393383D1*
X2390509Y2598685D1*
X2388586Y2596761D1*
Y2594860D1*
X2389559Y2592936D1*
X2390509Y2591986D1*
X2392411Y2591035D1*
X2398159Y2589112D1*
X2400082Y2588161D1*
X2401033Y2587188D1*
X2401983Y2585287D1*
Y2582413D1*
X2400082Y2580512D1*
X2397208Y2579539D1*
X2393383D1*
X2390509Y2580512D1*
X2388586Y2582413D1*
X2421556Y2596761D2*
X2419655Y2598685D1*
X2416781Y2599635D1*
X2412957D1*
X2410083Y2598685D1*
X2408159Y2596761D1*
Y2594860D1*
X2409132Y2592936D1*
X2410083Y2591986D1*
X2411984Y2591035D1*
X2417732Y2589112D1*
X2419655Y2588161D1*
X2420606Y2587188D1*
X2421556Y2585287D1*
Y2582413D1*
X2419655Y2580512D1*
X2416781Y2579539D1*
X2412957D1*
X2410083Y2580512D1*
X2408159Y2582413D1*
X2427732Y2589576D2*
X2438786D1*
X2444962Y2599635D2*
X2449759Y2579539D1*
X2454534Y2599635D1*
X2459310Y2579539D1*
X2464107Y2599635D1*
X2470283D2*
Y2579539D1*
X2488905Y2599635D2*
X2476459D1*
Y2579539D1*
Y2590062D2*
X2484108D1*
X2495081Y2599635D2*
Y2579539D1*
X2501257Y2589576D2*
X2512311D1*
X2530911Y2599635D2*
X2518486D1*
Y2579539D1*
X2530911D1*
X2518486Y2590062D2*
X2526136D1*
X2550484Y2596761D2*
X2548583Y2598685D1*
X2545709Y2599635D1*
X2541884D1*
X2539010Y2598685D1*
X2537087Y2596761D1*
Y2594860D1*
X2538059Y2592936D1*
X2539010Y2591986D1*
X2540911Y2591035D1*
X2546659Y2589112D1*
X2548583Y2588161D1*
X2549533Y2587188D1*
X2550484Y2585287D1*
Y2582413D1*
X2548583Y2580512D1*
X2545709Y2579539D1*
X2541884D1*
X2539010Y2580512D1*
X2537087Y2582413D1*
X2556660Y2589112D2*
X2565282D1*
X2568134Y2590062D1*
X2569106Y2591035D1*
X2570057Y2592936D1*
Y2595811D1*
X2569106Y2597712D1*
X2568134Y2598685D1*
X2565282Y2599635D1*
X2556660D1*
Y2579539D1*
X2576233Y2589576D2*
X2587286D1*
X2599210Y2599613D2*
X2596336Y2598662D1*
X2594413Y2595788D1*
X2593462Y2591013D1*
Y2588139D1*
X2594413Y2583364D1*
X2596336Y2580490D1*
X2599210Y2579539D1*
X2601111D1*
X2603986Y2580490D1*
X2605887Y2583364D1*
X2606860Y2588139D1*
Y2591013D1*
X2605887Y2595788D1*
X2603986Y2598662D1*
X2601111Y2599613D1*
X2599210D1*
X2605887Y2595788D2*
X2594413Y2583364D1*
X2613035Y2595788D2*
X2614959Y2596761D1*
X2617833Y2599613D1*
Y2579539D1*
X1359947Y1549792D2*
Y1535444D1*
X1360898Y1532570D1*
X1362821Y1530669D1*
X1365695Y1529696D1*
X1367596D1*
X1370470Y1530669D1*
X1372394Y1532570D1*
X1373344Y1535444D1*
Y1549792D1*
X1379520Y1545945D2*
X1381443Y1546918D1*
X1384317Y1549770D1*
Y1529696D1*
X1396241Y1549770D2*
X1393367Y1548819D1*
X1391444Y1545945D1*
X1390493Y1541170D1*
Y1538296D1*
X1391444Y1533521D1*
X1393367Y1530646D1*
X1396241Y1529696D1*
X1398142D1*
X1401016Y1530646D1*
X1402918Y1533521D1*
X1403890Y1538296D1*
Y1541170D1*
X1402918Y1545945D1*
X1401016Y1548819D1*
X1398142Y1549770D1*
X1396241D1*
X1402918Y1545945D2*
X1391444Y1533521D1*
X2831815Y2667039D2*
X2845212Y2646943D1*
Y2667039D2*
X2831815Y2646943D1*
X2851388Y2663192D2*
X2853311Y2664165D1*
X2856185Y2667016D1*
Y2646943D1*
X2836376Y610870D2*
Y630966D1*
X2828727Y610870D1*
X2821078Y630966D1*
Y610870D1*
X2842552Y627119D2*
X2844475Y628092D1*
X2847349Y630944D1*
Y610870D1*
X2857350D2*
X2866922Y630944D1*
X2853525D1*
X2927515Y2667039D2*
X2940912Y2646943D1*
Y2667039D2*
X2927515Y2646943D1*
X2948061Y2662241D2*
Y2663192D1*
X2949011Y2665115D1*
X2949962Y2666066D1*
X2951885Y2667016D1*
X2955710D1*
X2957611Y2666066D1*
X2958562Y2665115D1*
X2959535Y2663192D1*
Y2661291D1*
X2958562Y2659367D1*
X2956661Y2656515D1*
X2947088Y2646943D1*
X2960485D1*
X2936376Y610870D2*
Y630966D1*
X2928727Y610870D1*
X2921078Y630966D1*
Y610870D1*
X2942552Y627119D2*
X2944475Y628092D1*
X2947349Y630944D1*
Y610870D1*
X2957350D2*
X2966922Y630944D1*
X2953525D1*
X1090111Y565536D2*
X1103508Y545440D1*
Y565536D2*
X1090111Y545440D1*
X1111607Y565514D2*
X1122108D1*
X1116382Y557865D1*
X1119256D1*
X1121158Y556914D1*
X1122108Y555963D1*
X1123081Y553089D1*
Y551188D1*
X1122108Y548314D1*
X1120207Y546391D1*
X1117333Y545440D1*
X1114459D1*
X1111607Y546391D1*
X1110656Y547363D1*
X1109684Y549265D1*
X1384692Y818541D2*
D98*
X1405738Y791746D1*
Y818541D2*
X1384692Y791746D1*
X1385379Y775277D2*
D99*
X1393968Y755181D1*
X1391116Y749444D1*
X1388231Y746559D1*
X1385379Y745133D1*
X1383920D1*
X1402590Y775277D2*
X1393968Y755181D1*
X1383920Y725272D2*
X1399705D1*
X1383920Y705176D1*
X1399705D1*
M02*
