%TF.GenerationSoftware,Novarm,DipTrace,3.2.0.1*%
%TF.CreationDate,2018-06-28T18:28:36-08:00*%
%FSLAX26Y26*%
%MOIN*%
%TF.FileFunction,Copper,L3,Inr*%
%TF.Part,Single*%
%AMOUTLINE1*
4,1,4,
0.026163,0.026163,
0.026205,-0.026121,
-0.026121,-0.026205,
-0.026163,0.026163,
0.026163,0.026163,
0*%
%TA.AperFunction,Conductor*%
%ADD15C,0.007*%
%ADD17C,0.006*%
%TA.AperFunction,ComponentPad*%
%ADD33R,0.059055X0.059055*%
%ADD34C,0.059055*%
%ADD38O,0.070866X0.043307*%
%ADD45C,0.074*%
%ADD60R,0.05937X0.05937*%
%ADD61C,0.05937*%
%ADD65C,0.048*%
%TA.AperFunction,ViaPad*%
%ADD66C,0.024*%
%TA.AperFunction,ComponentPad*%
%ADD143OUTLINE1*%
G75*
G01*
%LPD*%
X970858Y2375912D2*
D15*
Y2303138D1*
Y2074130D1*
X971765Y2075037D1*
X712452Y2378164D2*
Y2315603D1*
X724916Y2303138D1*
X970858D1*
X740540Y2356257D2*
Y2431250D1*
X762412Y2453122D1*
X1274858D1*
X1387347Y2340634D1*
Y1921928D1*
X1462339Y1846936D1*
X1562452D1*
X2162265Y1953076D2*
D17*
X2024681D1*
X1943538Y1871933D1*
X1768557D1*
X1709188Y1812565D1*
X1418593D1*
X1359225Y1753196D1*
Y1721949D1*
X2324748Y1350316D2*
D15*
X2312046D1*
X2296626Y1365736D1*
Y1406357D1*
X2474952Y1584683D1*
Y1653425D1*
X2496605Y1675079D1*
X2630966Y1809440D2*
Y2374715D1*
X2843701Y2587450D1*
X1984159Y1412607D2*
X2024780D1*
X2124769Y1512596D1*
X2274753D1*
X2396616Y1634458D1*
Y1734448D1*
X2443486Y1781318D1*
X2643465D1*
X2849597Y1987450D1*
X2843701D1*
X2012281Y1384484D2*
X2027904D1*
X2137268Y1493848D1*
X2287252D1*
X2415364Y1621960D1*
Y1725074D1*
X2452860Y1762570D1*
X2715332D1*
X2840213Y1887450D1*
X2843701D1*
X874410Y1096524D2*
X962391Y1184505D1*
X2006381D1*
X2059326Y1237450D1*
X2087450D1*
X2052902Y1168882D2*
X2056026Y1165757D1*
X1006137D1*
X931145Y1090765D1*
X2843701Y1087450D2*
X2728278Y972028D1*
X2643499D1*
X2584130Y1031397D1*
X2274753D1*
X2265379Y1022023D1*
X2093523D1*
X2081023Y1184507D2*
X2090398Y1175131D1*
Y1131385D1*
X2134332Y1087450D1*
X2480792D1*
X2640340Y1246999D1*
X2696584D1*
X2756133Y1187450D1*
X2843701D1*
Y1287450D2*
X2646826D1*
X2465576Y1106201D1*
X2162453D1*
X2121826Y1146828D1*
Y1231201D1*
X2149950Y1199950D2*
Y1162449D1*
X2174764Y1137635D1*
X2340372D1*
X2387242Y1184505D1*
X2453256D1*
X2584492Y1315742D1*
X2774701D1*
X2849693Y1390734D1*
X2843701D1*
Y1387450D1*
X2237450Y1165576D2*
X2281201D1*
X2449735Y1334110D1*
Y1346988D1*
X2471608Y1368861D1*
X2643861D1*
X2656201Y1381201D1*
X2739596D1*
X2836620Y1478225D1*
X2846568D1*
X2837343Y1487450D1*
X2843701D1*
X2299950Y1240576D2*
Y1237450D1*
X2331201Y1268701D1*
X2353076D1*
X2402865Y1318490D1*
Y1343864D1*
X2446610Y1387609D1*
X2637215D1*
X2843701Y1594095D1*
Y1587450D1*
Y1687450D2*
X2809200D1*
X2787200Y1709450D1*
X2480982D1*
X2455984Y1684453D1*
Y1603211D1*
X2290377Y1437604D1*
X2187263D1*
X2140393Y1390734D1*
X2106021D1*
X2031029Y1315742D1*
Y1262622D1*
X2843701Y1787450D2*
X2837078D1*
X2790324Y1740697D1*
X2465358D1*
X2437236Y1712575D1*
Y1612586D1*
X2290377Y1465726D1*
X2187263D1*
X2146642Y1425105D1*
X2109146D1*
X2002907Y1318866D1*
Y1274781D1*
X1974952Y1246826D1*
X1634196Y1287620D2*
X1556079Y1365736D1*
Y1465726D1*
X2465575Y924952D2*
X2440785Y900160D1*
X1568578D1*
X1518583Y850166D1*
X2943701Y1387450D2*
X2962023D1*
X3030924Y1456352D1*
Y2634353D1*
X2993428Y2671849D1*
X2843444D1*
X2693471Y2821822D1*
X2590576D1*
X2190576Y1709326D2*
Y1806504D1*
X2462452Y2078379D1*
Y2297107D1*
X2549725Y2384379D1*
X2552849D1*
X2403076Y1893701D2*
X2356201Y1846826D1*
Y1743701D1*
X2324827Y1712327D1*
X1268609Y1693827D2*
D17*
X1271734Y1690702D1*
X1896668D1*
X1912292Y1706326D1*
X1996658D1*
X2037278Y1665705D1*
X2278205D1*
X2324827Y1712327D1*
X2362450Y953076D2*
D15*
X2531201D1*
X2671827Y812450D1*
X2749952D1*
X2818927Y743475D1*
X2906465D1*
X2943701Y780711D1*
Y787450D1*
X703076Y509326D2*
X831439Y637688D1*
X1193617D1*
X1540456Y984526D1*
X1602949D1*
X1671898Y931201D2*
X1871826D1*
Y922033D1*
X2331407D1*
X2362450Y953076D1*
X1246736Y556446D2*
Y615815D1*
X1562122Y931201D1*
X1671898D1*
X1002314Y532604D2*
X1222894D1*
X1246736Y556446D1*
X2171639Y2711462D2*
Y2609356D1*
X1970516Y2408232D1*
Y2193701D1*
X2843701Y787450D2*
Y781236D1*
X2334326Y981201D2*
X2546826D1*
X2606201Y921826D1*
X2709326D1*
X2843701Y787450D1*
X749950Y512450D2*
X774950D1*
X872066Y609566D1*
X1165495D1*
X1206116D1*
X1546705Y950155D1*
X1612323D1*
X1643570Y981402D1*
X1815427D1*
Y1022534D1*
Y981402D2*
Y968902D1*
X1821878Y962450D1*
X1881201D1*
X1902870Y940781D1*
X2293906D1*
X2334326Y981201D1*
X1165495Y564173D2*
Y609566D1*
X1057432Y572368D2*
X1157301D1*
X1165495Y564173D1*
X1981201Y1484326D2*
X1890567D1*
X1840424Y1534469D1*
X1762307D1*
X1731061Y1565715D1*
X730436D1*
X568701Y1727450D1*
X1946826Y1587452D2*
X1906201D1*
X1853076Y1640576D1*
X965575D1*
X868701Y1737450D1*
X1928076Y1618701D2*
X1887452Y1659326D1*
X1036826D1*
X968701Y1727450D1*
X1974950Y1568700D2*
X1965576Y1559326D1*
X1884310D1*
X1831050Y1612586D1*
X883566D1*
X768701Y1727450D1*
X668701Y1737450D2*
X667185Y1735935D1*
X815532Y1587588D1*
X1740435D1*
X1774806Y1553217D1*
X1849798D1*
X1899939Y1503076D1*
X1956201D1*
X1967138Y1514013D1*
X1968701Y1512450D1*
X2943701Y1487450D2*
X2980781D1*
X3005927Y1512596D1*
Y2631229D1*
X2987179Y2649977D1*
X2362421D1*
X2290576Y2721822D1*
X2552849Y2346883D2*
X2496826Y2290860D1*
Y2065576D1*
X2306402Y1875152D1*
Y1787651D1*
X2843701Y987450D2*
X2846368D1*
X2805948Y947030D1*
X2624717D1*
X2562421Y1009326D1*
X2283929D1*
X2234133Y959529D1*
X2099772D1*
X2059151Y1000150D1*
X1971524Y1365600D2*
X1968672D1*
X1856047Y1478225D1*
X1746684D1*
X1693565Y1531344D1*
X653049D1*
X512439Y1671954D1*
Y1806315D1*
X562433Y1856310D1*
X1271734D1*
X1346726Y1931302D1*
Y2075037D1*
X1337352Y2084411D1*
D66*
X1277983Y531449D3*
X1399845Y678309D3*
X970858Y2375912D3*
X971765Y2075037D3*
X712452Y2378164D3*
X674921Y2149952D3*
Y2206273D3*
X740540Y2356257D3*
X1562452Y1846936D3*
X548502Y2275936D3*
X837404Y2193774D3*
X1252987Y2240645D3*
X1352978D3*
X787550Y2524949D3*
X681171Y1921928D3*
X481192Y1834437D3*
X824906Y1921928D3*
X681171D3*
X1983196Y1768832D3*
X2252881Y1768819D3*
X1983196Y1768832D3*
X2065576Y1853076D3*
X1877166Y1947736D3*
X2065576Y1853076D3*
X1578181Y2350046D3*
X1747473Y2318550D3*
X1578181Y2350046D3*
X2053772Y2318550D3*
X1747473D3*
X2125032Y2357133D3*
X2053772Y2318550D3*
X2140780Y2796109D3*
X2206011Y2584358D3*
X2125032Y2357133D3*
X1578181Y2793941D3*
X1961646Y2820899D3*
X1578181Y2793941D3*
Y2350046D3*
X1128742Y2709324D3*
X2477857Y500202D3*
X1464774Y494642D3*
X1802310Y495537D3*
X2139845D3*
X512450Y887450D3*
X1257591Y445436D3*
D3*
D3*
X1196826Y684326D3*
X1074879D3*
X971826Y887452D3*
X1149950D3*
X1796824Y1214272D3*
X1728075Y1059658D3*
X737452Y887452D3*
X971826D3*
X737452D3*
X1196826Y684326D3*
X1315576Y887450D3*
D3*
X1331299Y846844D3*
X1196826Y684326D3*
X2562223Y1681328D3*
X2023294Y1020170D3*
X2529378Y1210628D3*
X927484Y524360D3*
X640576Y440576D3*
X749696Y680526D3*
D3*
X1331299Y846844D3*
X1002314Y492840D3*
X2023294Y1020170D3*
X787683Y2250181D3*
X887452Y2249950D3*
X887310Y2143841D3*
X548502Y2275936D3*
X545377Y2020030D3*
X787683Y2143780D3*
X1831050Y1393858D3*
X1728075Y1290883D3*
X1796824Y1214272D3*
X1928076Y1665576D3*
X1062451Y2243701D3*
X1156201D3*
X1062451D3*
X1156201D3*
X1252987Y2240645D3*
X2656201Y1118704D3*
X2509326Y1284326D3*
X2656201Y1118704D3*
X2356407Y1706076D3*
X2162265Y1953076D3*
X2662450Y2078076D3*
X2002907Y2578109D3*
X1359225Y1721949D3*
X1162370Y1428230D3*
X1040508Y1084516D3*
X2162265Y1953076D3*
X2651257Y1028272D3*
X2487231Y1256420D3*
X2651257Y1028272D3*
X2368494Y1650082D3*
X2662452Y1996987D3*
D3*
X2274753Y2059414D3*
X1831050Y2721844D3*
X2477582Y1871331D3*
X2502855Y878288D3*
X2543475Y853290D3*
X2324748Y1350316D3*
X2496605Y1675079D3*
X2630966Y1809440D3*
X1984159Y1412607D3*
X2012281Y1384484D3*
X874410Y1096524D3*
X2087450Y1237450D3*
X2052902Y1168882D3*
X931145Y1090765D3*
X2093523Y1022023D3*
X2081023Y1184507D3*
X2121826Y1231201D3*
X2149950Y1199950D3*
X2115395Y993900D3*
X2243507Y1381360D3*
X2121645Y1718824D3*
X1968536Y2125032D3*
X2237450Y1165576D3*
X2299950Y1240576D3*
X2031029Y1262622D3*
X1974952Y1246826D3*
X2503076Y1643701D3*
X2502855Y1612586D3*
X2505979Y1581339D3*
X2618701Y1496826D3*
X2509326Y1453076D3*
X2568701Y1437450D3*
X2603076Y1415576D3*
X2359120Y1403232D3*
X1634196Y1287620D3*
X1556079Y1465726D3*
X2465575Y924952D3*
X1518583Y850166D3*
X868701Y2340576D3*
X799950Y2365576D3*
X1781355Y1735958D3*
X2371618Y1325116D3*
X2481201Y1337450D3*
X2662213Y1343864D3*
X2537226Y2521865D3*
X2190576Y1709326D3*
X2552849Y2384379D3*
X2540575Y1312450D3*
X2659327Y1212450D3*
X2662449Y2146824D3*
X2403076Y1893701D3*
X2324827Y1712327D3*
X2403076Y1893701D3*
X1918541Y2718719D3*
X1012205Y1115763D3*
X1121750Y1453227D3*
X1268609Y1693827D3*
X2362450Y953076D3*
X703076Y509326D3*
X1602949Y984526D3*
X1671898Y931201D3*
X2362450Y953076D3*
X1871826Y931201D3*
X1246736Y556446D3*
X1671898Y931201D3*
X1002314Y532604D3*
X1246736Y556446D3*
X1970516Y2193701D3*
X1849952D3*
X1912544D3*
X2171639Y2711462D3*
X1970516Y2193701D3*
X2334326Y981201D3*
X749950Y512450D3*
X1815427Y1022534D3*
X2334326Y981201D3*
X1165495Y564173D3*
X1057432Y572368D3*
X1165495Y564173D3*
X2002907Y1546967D3*
X1465463Y737677D3*
X2062450Y1534326D3*
X1802928Y740802D3*
X2134285Y1543701D3*
X2143517Y718929D3*
X2174764Y1578214D3*
X2331201Y1174952D3*
X2374743Y1134511D3*
X2474952Y725201D3*
X1981201Y1484326D3*
X1946826Y1587452D3*
X1928076Y1618701D3*
X1974950Y1568700D3*
X1968701Y1512450D3*
X834280Y2362507D3*
X1856057Y1737582D3*
X2330998Y1387609D3*
X2390576Y2521826D3*
X2552849Y2346883D3*
X2306402Y1787651D3*
X1837299Y1231376D3*
X1453076Y2543701D3*
X676013Y2368756D3*
X821781Y2003170D3*
X678046D3*
X718667Y2521865D3*
X2107681Y2184400D3*
X2168511D3*
X2065576Y2027798D3*
X2318499Y1743822D3*
X2065576Y2027798D3*
X2107681Y2184400D3*
X2059151Y1000150D3*
X1678076Y868701D3*
X2037450Y1484326D3*
X2009326Y865576D3*
X2093523Y1527898D3*
X2146642Y1465726D3*
X1931040Y1074789D3*
X2315576Y718701D3*
X2659328Y887449D3*
X2405990Y1147037D3*
X2359326Y1193701D3*
X2206201Y1556201D3*
X1796824Y1281201D3*
X1971524Y1365600D3*
X1337352Y2084411D3*
X1718692Y2191879D3*
X1656201Y2193701D3*
X1787305Y2721844D3*
X1718692Y2191879D3*
X2218701Y1353076D3*
X2077950Y1693827D3*
X1718692Y2191879D3*
D33*
X484316Y2471870D3*
D34*
Y2571870D3*
D38*
X448999Y2279873D3*
Y2020030D3*
D143*
X468701Y1737450D3*
D45*
X568701Y1727450D3*
X668701Y1737450D3*
X768701Y1727450D3*
X868701Y1737450D3*
X968701Y1727450D3*
X1068701Y1737450D3*
X1168701Y1727450D3*
D33*
X2843701Y687450D3*
D34*
Y787450D3*
Y887450D3*
Y987450D3*
Y1087450D3*
Y1187450D3*
Y1287450D3*
Y1387450D3*
Y1487450D3*
Y1587450D3*
Y1687450D3*
Y1787450D3*
Y1887450D3*
Y1987450D3*
Y2087450D3*
Y2187450D3*
Y2287450D3*
Y2387450D3*
Y2487450D3*
Y2587450D3*
D33*
X2943701Y687450D3*
D34*
Y787450D3*
Y887450D3*
Y987450D3*
Y1087450D3*
Y1187450D3*
Y1287450D3*
Y1387450D3*
Y1487450D3*
Y1587450D3*
Y1687450D3*
Y1787450D3*
Y1887450D3*
Y1987450D3*
Y2087450D3*
Y2187450D3*
Y2287450D3*
Y2387450D3*
Y2487450D3*
Y2587450D3*
D45*
X1287450Y1756201D3*
Y2012201D3*
X1465450Y1756201D3*
Y2012201D3*
X1549950Y493701D3*
Y749701D3*
X1727950Y493701D3*
Y749701D3*
X1885368Y493701D3*
Y749701D3*
X2063368Y493701D3*
Y749701D3*
X2220784Y493701D3*
Y749701D3*
X2398784Y493701D3*
Y749701D3*
X2556201Y493701D3*
Y749701D3*
X2734201Y493701D3*
Y749701D3*
D60*
X2590576Y2721822D3*
D61*
Y2821822D3*
X2490576Y2721822D3*
Y2821822D3*
X2390576Y2721822D3*
Y2821822D3*
D60*
X2290576Y2721822D3*
D61*
Y2821822D3*
D65*
X1584326Y1049954D3*
Y1239954D3*
M02*
