%TF.GenerationSoftware,Novarm,DipTrace,3.2.0.1*%
%TF.CreationDate,2018-06-28T18:28:35-08:00*%
%FSLAX26Y26*%
%MOIN*%
%TF.FileFunction,Copper,L2,Inr*%
%TF.Part,Single*%
%AMOUTLINE1*
4,1,4,
0.026163,0.026163,
0.026205,-0.026121,
-0.026121,-0.026205,
-0.026163,0.026163,
0.026163,0.026163,
0*%
%TA.AperFunction,Conductor*%
%ADD15C,0.007*%
%ADD16C,0.015748*%
%ADD17C,0.006*%
%TA.AperFunction,ComponentPad*%
%ADD33R,0.059055X0.059055*%
%ADD34C,0.059055*%
%ADD38O,0.070866X0.043307*%
%ADD45C,0.074*%
%ADD60R,0.05937X0.05937*%
%ADD61C,0.05937*%
%ADD65C,0.048*%
%TA.AperFunction,ViaPad*%
%ADD66C,0.024*%
%TA.AperFunction,ComponentPad*%
%ADD143OUTLINE1*%
G75*
G01*
%LPD*%
X1277983Y531449D2*
D15*
Y525200D1*
X1299856Y503327D1*
X1356100D1*
X1399845Y547072D1*
Y678309D1*
X674921Y2149952D2*
Y2206273D1*
X2656201Y1118704D2*
Y1115763D1*
X2703263D1*
X2821826Y1234326D1*
X2896826D1*
X2943701Y1187450D1*
X2509326Y1284326D2*
Y1281149D1*
X2671771Y1118704D1*
X2656201D1*
X2356407Y1706076D2*
Y1821526D1*
X2224857Y1953076D1*
X2162265D1*
X2662450Y2078076D2*
X2630881D1*
X2374331Y1821526D1*
X2356407D1*
Y2321474D1*
X2215385Y2462496D1*
X2118520D1*
X2002907Y2578109D1*
X1162370Y1428230D2*
D17*
Y1206378D1*
X1040508Y1084516D1*
X2651257Y1028272D2*
D15*
X2715772D1*
X2821826Y1134326D1*
X2896826D1*
X2943701Y1087450D1*
X2651257Y1028272D2*
X2646630D1*
X2487231Y1187671D1*
Y1256420D1*
X2368494Y1650082D2*
X2390576Y1672164D1*
Y1784326D1*
X2477582Y1871331D1*
X2603238Y1996987D1*
X2662452D1*
X2274753Y2059414D2*
Y2343759D1*
X2196637Y2421876D1*
X2093523D1*
X1831050Y2684348D1*
Y2721844D1*
X2502855Y878288D2*
Y697057D1*
X2540351Y659561D1*
X2762202D1*
X2790324Y687683D1*
Y812670D1*
X2805948Y828293D1*
X2884544D1*
X2943701Y887450D1*
X2543475Y853290D2*
Y843927D1*
X2593701Y793701D1*
X2687452D1*
X2740792Y847041D1*
X2877815D1*
X2896563Y865789D1*
Y940313D1*
X2943701Y987450D1*
X2496605Y1675079D2*
X2630966Y1809440D1*
X2115395Y993900D2*
Y706431D1*
X2140393Y681433D1*
X2231433D1*
X2303076Y753076D1*
X2334326D1*
X2346826Y740576D1*
Y624952D1*
X2412452Y559326D1*
X2899950D1*
X3018425Y677801D1*
Y2312726D1*
X2943701Y2387450D1*
X2121645Y1718824D2*
X2118520D1*
X1968536Y1868809D1*
Y2125032D1*
X2503076Y1643701D2*
X2653075D1*
X2662450Y1653076D1*
Y1759326D1*
X2718701Y1815576D1*
Y1906200D1*
X2774952Y1962450D1*
Y2093701D1*
X2818701Y2137450D1*
X2856200D1*
X2896826Y2178076D1*
Y2240575D1*
X2943701Y2287450D1*
X2502855Y1612586D2*
X2668835D1*
X2687450Y1631201D1*
Y1740575D1*
X2740576Y1793701D1*
Y1893701D1*
X2793701Y1946826D1*
Y2012450D1*
X2818701Y2037450D1*
X2856200D1*
X2893701Y2074952D1*
Y2137450D1*
X2943701Y2187450D1*
X2505979Y1581339D2*
X2678213D1*
X2709326Y1612452D1*
Y1724950D1*
X2765576Y1781201D1*
Y1881202D1*
X2824950Y1940576D1*
X2856202D1*
X2890576Y1974950D1*
Y2034326D1*
X2943701Y2087450D1*
X2618701Y1496826D2*
X2643701D1*
X2737452Y1590576D1*
Y1703076D1*
X2793701Y1759326D1*
Y1809327D1*
X2824950Y1840576D1*
X2862452D1*
X2893701Y1871826D1*
Y1937450D1*
X2943701Y1987450D1*
X2509326Y1453076D2*
X2510702Y1451701D1*
X2527702Y1468701D1*
X2649952D1*
X2765576Y1584326D1*
Y1687450D1*
X2812452Y1734326D1*
X2856200D1*
X2896826Y1774952D1*
Y1840575D1*
X2943701Y1887450D1*
X2568701Y1437450D2*
Y1443701D1*
X2662452D1*
X2793701Y1574950D1*
Y1606201D1*
X2824950Y1637450D1*
X2856200D1*
X2896826Y1678076D1*
Y1740575D1*
X2943701Y1787450D1*
X2603076Y1415576D2*
X2696827D1*
X2818701Y1537450D1*
X2853076D1*
X2890576Y1574950D1*
Y1634326D1*
X2943701Y1687450D1*
X2359120Y1403232D2*
X2378026Y1384326D1*
X2627683D1*
X2637215Y1393858D1*
X2687210D1*
X2696743Y1384326D1*
X2771826D1*
X2821826Y1434326D1*
X2859326D1*
X2893701Y1468701D1*
Y1537450D1*
X2943701Y1587450D1*
X1518583Y850166D2*
Y1325116D1*
X1187368Y1656331D1*
X1059256D1*
X1021760Y1693827D1*
Y2234395D1*
X915579Y2340576D1*
X868701D1*
X799950Y2365576D2*
X796777Y2368750D1*
X853028Y2425000D1*
X1012386D1*
X1181118Y2256268D1*
Y1953175D1*
X1206116Y1928177D1*
X1418593D1*
X1552954Y1793816D1*
X1723496D1*
X1781355Y1735958D1*
X2371618Y1325116D2*
X2430987D1*
X2455984Y1300118D1*
Y1156383D1*
X2721792Y890576D1*
X2840575D1*
X2843701Y887450D1*
X2481201Y1337450D2*
X2487614Y1343864D1*
X2662213D1*
X2590576Y2821822D2*
X2562211D1*
X2537226Y2796836D1*
Y2521865D1*
X2552849Y2384379D2*
X2740630D1*
X2843701Y2487450D1*
X2540575Y1312450D2*
X2559327D1*
X2659327Y1212450D1*
X2943701Y1287450D2*
X2903075Y1328076D1*
X2777662D1*
X2662036Y1212450D1*
X2659327D1*
X2662449Y2146824D2*
X2634326Y2118701D1*
X2628076D1*
X2403076Y1893701D1*
Y2337298D1*
X2227883Y2512491D1*
X2124769D1*
X1918541Y2718719D1*
X1012205Y1115763D2*
D17*
X1021760D1*
X1124874Y1218877D1*
Y1450103D1*
X1121750Y1453227D1*
X1602949Y984526D2*
D15*
X1618572D1*
X1671898Y931201D1*
X1970516Y2193701D2*
X1912544D1*
X1849952D1*
X2002907Y1546967D2*
Y1521995D1*
X2009326Y1515576D1*
Y1456521D1*
X1996658Y1443853D1*
X1971660D1*
X1943538Y1415731D1*
Y1334163D1*
X1918541Y1309166D1*
Y1178256D1*
X1777931Y1037646D1*
Y953280D1*
X1727727Y903076D1*
X1612114D1*
X1465463Y756425D1*
Y737677D1*
X2062450Y1534326D2*
X2065576D1*
Y1340915D1*
X2002907Y1278246D1*
Y1222002D1*
X1968536Y1187630D1*
Y1153259D1*
X1902918Y1087641D1*
Y881412D1*
X1802928Y781423D1*
Y740802D1*
X2134285Y1543701D2*
X2137268D1*
Y1496973D1*
X2115395Y1475100D1*
Y1278246D1*
X2177889Y1215752D1*
Y1002889D1*
X2140393Y965393D1*
Y722054D1*
X2143517Y718929D1*
X2174764Y1578214D2*
X2168307D1*
Y1509679D1*
X2271826Y1406160D1*
Y1331201D1*
X2331201Y1271826D1*
Y1174952D1*
X2374743Y1134511D2*
Y1015773D1*
X2406201Y984315D1*
Y918697D1*
X2474952Y849946D1*
Y725201D1*
X834280Y2362507D2*
X878025Y2406252D1*
X984264D1*
X1103002Y2287515D1*
Y1943801D1*
X1174869Y1871933D1*
X1424843D1*
X1526288Y1770488D1*
X1698145D1*
X1768557Y1700076D1*
X1818551D1*
X1856057Y1737582D1*
X2330998Y1387609D2*
X2334122D1*
X2356131Y1365600D1*
X2633954D1*
X2640340Y1371986D1*
X2676344D1*
X2682730Y1365600D1*
X2796802D1*
X2815576Y1346826D1*
X2871826D1*
X2896826Y1371826D1*
Y1440575D1*
X2943701Y1487450D1*
X2290576Y2721822D2*
Y2621826D1*
X2390576Y2521826D1*
X2843701Y2387450D2*
X2803134Y2346883D1*
X2552849D1*
X1837299Y1231376D2*
Y1243874D1*
X1862297Y1268872D1*
X1884170D1*
X1887294Y1271996D1*
Y1831313D1*
X1659326Y2059281D1*
Y2106201D1*
X1453076Y2312450D1*
Y2543701D1*
X676013Y2368756D2*
D16*
Y2258301D1*
X712418Y2221897D1*
Y2137530D1*
X749914Y2100034D1*
X806158D1*
X821781Y2084411D1*
Y2003170D1*
X678046D2*
D17*
X634301D1*
X518688Y2118782D1*
Y2368756D1*
X671797Y2521865D1*
X718667D1*
X2107681Y2184400D2*
D15*
X2168511D1*
X2065576Y2027798D2*
Y1896755D1*
X2246631Y1715700D1*
X2290377D1*
X2318499Y1743822D1*
X2065576Y2027798D2*
Y2142295D1*
X2107681Y2184400D1*
X1678076Y868701D2*
X1765576D1*
X1859172Y962297D1*
Y1078267D1*
X1946663Y1165757D1*
Y1274788D1*
X2046826Y1374950D1*
Y1396826D1*
X2037450Y1406201D1*
Y1484326D1*
X2009326Y865576D2*
Y903075D1*
X1993701Y918700D1*
Y1156551D1*
X2049777Y1212628D1*
Y1240403D1*
X2062450Y1253076D1*
Y1271826D1*
X2093523Y1302898D1*
Y1527898D1*
X1931040Y1074789D2*
Y950113D1*
X1981201Y899952D1*
Y718700D1*
X2037450Y662450D1*
X2259326D1*
X2315576Y718701D1*
X2659328Y887449D2*
X2643492Y903285D1*
X2552868D1*
X2405990Y1050163D1*
Y1147037D1*
X2359326Y1193701D2*
Y1271827D1*
X2293701Y1337452D1*
Y1409282D1*
X2206201Y1496782D1*
Y1556201D1*
X1068701Y1737450D2*
Y1743701D1*
X1137450Y1812450D1*
X1409201D1*
X1465450Y1756201D1*
X1796824Y1281201D2*
X1784349D1*
X1696689Y1368861D1*
X1534206D1*
X1456089Y1446978D1*
Y1496973D1*
X1468701Y1509584D1*
Y1752950D1*
X1465450Y1756201D1*
X1718692Y2191879D2*
X1658023D1*
X1656201Y2193701D1*
X1787305Y2721844D2*
Y2262517D1*
X1718692Y2193904D1*
Y2191879D1*
X2077950Y1693827D2*
X2018701Y1753076D1*
Y1781201D1*
X1993701Y1806201D1*
X1959326D1*
X1718692Y2046835D1*
Y2191879D1*
D66*
X1277983Y531449D3*
X1399845Y678309D3*
X970858Y2375912D3*
X971765Y2075037D3*
X712452Y2378164D3*
X674921Y2149952D3*
Y2206273D3*
X740540Y2356257D3*
X1562452Y1846936D3*
X548502Y2275936D3*
X837404Y2193774D3*
X1252987Y2240645D3*
X1352978D3*
X787550Y2524949D3*
X681171Y1921928D3*
X481192Y1834437D3*
X824906Y1921928D3*
X681171D3*
X1983196Y1768832D3*
X2252881Y1768819D3*
X1983196Y1768832D3*
X2065576Y1853076D3*
X1877166Y1947736D3*
X2065576Y1853076D3*
X1578181Y2350046D3*
X1747473Y2318550D3*
X1578181Y2350046D3*
X2053772Y2318550D3*
X1747473D3*
X2125032Y2357133D3*
X2053772Y2318550D3*
X2140780Y2796109D3*
X2206011Y2584358D3*
X2125032Y2357133D3*
X1578181Y2793941D3*
X1961646Y2820899D3*
X1578181Y2793941D3*
Y2350046D3*
X1128742Y2709324D3*
X2477857Y500202D3*
X1464774Y494642D3*
X1802310Y495537D3*
X2139845D3*
X512450Y887450D3*
X1257591Y445436D3*
D3*
D3*
X1196826Y684326D3*
X1074879D3*
X971826Y887452D3*
X1149950D3*
X1796824Y1214272D3*
X1728075Y1059658D3*
X737452Y887452D3*
X971826D3*
X737452D3*
X1196826Y684326D3*
X1315576Y887450D3*
D3*
X1331299Y846844D3*
X1196826Y684326D3*
X2562223Y1681328D3*
X2023294Y1020170D3*
X2529378Y1210628D3*
X927484Y524360D3*
X640576Y440576D3*
X749696Y680526D3*
D3*
X1331299Y846844D3*
X1002314Y492840D3*
X2023294Y1020170D3*
X787683Y2250181D3*
X887452Y2249950D3*
X887310Y2143841D3*
X548502Y2275936D3*
X545377Y2020030D3*
X787683Y2143780D3*
X1831050Y1393858D3*
X1728075Y1290883D3*
X1796824Y1214272D3*
X1928076Y1665576D3*
X1062451Y2243701D3*
X1156201D3*
X1062451D3*
X1156201D3*
X1252987Y2240645D3*
X2656201Y1118704D3*
X2509326Y1284326D3*
X2656201Y1118704D3*
X2356407Y1706076D3*
X2162265Y1953076D3*
X2662450Y2078076D3*
X2002907Y2578109D3*
X1359225Y1721949D3*
X1162370Y1428230D3*
X1040508Y1084516D3*
X2162265Y1953076D3*
X2651257Y1028272D3*
X2487231Y1256420D3*
X2651257Y1028272D3*
X2368494Y1650082D3*
X2662452Y1996987D3*
D3*
X2274753Y2059414D3*
X1831050Y2721844D3*
X2477582Y1871331D3*
X2502855Y878288D3*
X2543475Y853290D3*
X2324748Y1350316D3*
X2496605Y1675079D3*
X2630966Y1809440D3*
X1984159Y1412607D3*
X2012281Y1384484D3*
X874410Y1096524D3*
X2087450Y1237450D3*
X2052902Y1168882D3*
X931145Y1090765D3*
X2093523Y1022023D3*
X2081023Y1184507D3*
X2121826Y1231201D3*
X2149950Y1199950D3*
X2115395Y993900D3*
X2243507Y1381360D3*
X2121645Y1718824D3*
X1968536Y2125032D3*
X2237450Y1165576D3*
X2299950Y1240576D3*
X2031029Y1262622D3*
X1974952Y1246826D3*
X2503076Y1643701D3*
X2502855Y1612586D3*
X2505979Y1581339D3*
X2618701Y1496826D3*
X2509326Y1453076D3*
X2568701Y1437450D3*
X2603076Y1415576D3*
X2359120Y1403232D3*
X1634196Y1287620D3*
X1556079Y1465726D3*
X2465575Y924952D3*
X1518583Y850166D3*
X868701Y2340576D3*
X799950Y2365576D3*
X1781355Y1735958D3*
X2371618Y1325116D3*
X2481201Y1337450D3*
X2662213Y1343864D3*
X2537226Y2521865D3*
X2190576Y1709326D3*
X2552849Y2384379D3*
X2540575Y1312450D3*
X2659327Y1212450D3*
X2662449Y2146824D3*
X2403076Y1893701D3*
X2324827Y1712327D3*
X2403076Y1893701D3*
X1918541Y2718719D3*
X1012205Y1115763D3*
X1121750Y1453227D3*
X1268609Y1693827D3*
X2362450Y953076D3*
X703076Y509326D3*
X1602949Y984526D3*
X1671898Y931201D3*
X2362450Y953076D3*
X1871826Y931201D3*
X1246736Y556446D3*
X1671898Y931201D3*
X1002314Y532604D3*
X1246736Y556446D3*
X1970516Y2193701D3*
X1849952D3*
X1912544D3*
X2171639Y2711462D3*
X1970516Y2193701D3*
X2334326Y981201D3*
X749950Y512450D3*
X1815427Y1022534D3*
X2334326Y981201D3*
X1165495Y564173D3*
X1057432Y572368D3*
X1165495Y564173D3*
X2002907Y1546967D3*
X1465463Y737677D3*
X2062450Y1534326D3*
X1802928Y740802D3*
X2134285Y1543701D3*
X2143517Y718929D3*
X2174764Y1578214D3*
X2331201Y1174952D3*
X2374743Y1134511D3*
X2474952Y725201D3*
X1981201Y1484326D3*
X1946826Y1587452D3*
X1928076Y1618701D3*
X1974950Y1568700D3*
X1968701Y1512450D3*
X834280Y2362507D3*
X1856057Y1737582D3*
X2330998Y1387609D3*
X2390576Y2521826D3*
X2552849Y2346883D3*
X2306402Y1787651D3*
X1837299Y1231376D3*
X1453076Y2543701D3*
X676013Y2368756D3*
X821781Y2003170D3*
X678046D3*
X718667Y2521865D3*
X2107681Y2184400D3*
X2168511D3*
X2065576Y2027798D3*
X2318499Y1743822D3*
X2065576Y2027798D3*
X2107681Y2184400D3*
X2059151Y1000150D3*
X1678076Y868701D3*
X2037450Y1484326D3*
X2009326Y865576D3*
X2093523Y1527898D3*
X2146642Y1465726D3*
X1931040Y1074789D3*
X2315576Y718701D3*
X2659328Y887449D3*
X2405990Y1147037D3*
X2359326Y1193701D3*
X2206201Y1556201D3*
X1796824Y1281201D3*
X1971524Y1365600D3*
X1337352Y2084411D3*
X1718692Y2191879D3*
X1656201Y2193701D3*
X1787305Y2721844D3*
X1718692Y2191879D3*
X2218701Y1353076D3*
X2077950Y1693827D3*
X1718692Y2191879D3*
D33*
X484316Y2471870D3*
D34*
Y2571870D3*
D38*
X448999Y2279873D3*
Y2020030D3*
D143*
X468701Y1737450D3*
D45*
X568701Y1727450D3*
X668701Y1737450D3*
X768701Y1727450D3*
X868701Y1737450D3*
X968701Y1727450D3*
X1068701Y1737450D3*
X1168701Y1727450D3*
D33*
X2843701Y687450D3*
D34*
Y787450D3*
Y887450D3*
Y987450D3*
Y1087450D3*
Y1187450D3*
Y1287450D3*
Y1387450D3*
Y1487450D3*
Y1587450D3*
Y1687450D3*
Y1787450D3*
Y1887450D3*
Y1987450D3*
Y2087450D3*
Y2187450D3*
Y2287450D3*
Y2387450D3*
Y2487450D3*
Y2587450D3*
D33*
X2943701Y687450D3*
D34*
Y787450D3*
Y887450D3*
Y987450D3*
Y1087450D3*
Y1187450D3*
Y1287450D3*
Y1387450D3*
Y1487450D3*
Y1587450D3*
Y1687450D3*
Y1787450D3*
Y1887450D3*
Y1987450D3*
Y2087450D3*
Y2187450D3*
Y2287450D3*
Y2387450D3*
Y2487450D3*
Y2587450D3*
D45*
X1287450Y1756201D3*
Y2012201D3*
X1465450Y1756201D3*
Y2012201D3*
X1549950Y493701D3*
Y749701D3*
X1727950Y493701D3*
Y749701D3*
X1885368Y493701D3*
Y749701D3*
X2063368Y493701D3*
Y749701D3*
X2220784Y493701D3*
Y749701D3*
X2398784Y493701D3*
Y749701D3*
X2556201Y493701D3*
Y749701D3*
X2734201Y493701D3*
Y749701D3*
D60*
X2590576Y2721822D3*
D61*
Y2821822D3*
X2490576Y2721822D3*
Y2821822D3*
X2390576Y2721822D3*
Y2821822D3*
D60*
X2290576Y2721822D3*
D61*
Y2821822D3*
D65*
X1584326Y1049954D3*
Y1239954D3*
M02*
