%TF.GenerationSoftware,Novarm,DipTrace,3.2.0.1*%
%TF.CreationDate,2018-06-28T18:28:32-08:00*%
%FSLAX26Y26*%
%MOIN*%
%TF.FileFunction,Legend,Top*%
%TF.Part,Single*%
%ADD10C,0.009843*%
%ADD17C,0.006*%
%ADD18C,0.008*%
%ADD25C,0.003937*%
%ADD29C,0.009433*%
%ADD31C,0.005*%
%ADD35C,0.009994*%
%ADD47C,0.000013*%
%ADD48C,0.015768*%
%ADD51C,0.011774*%
%ADD57C,0.015697*%
%ADD63C,0.015422*%
%ADD138C,0.003088*%
%ADD139C,0.006176*%
%ADD140C,0.004632*%
%ADD141C,0.00772*%
G75*
G01*
%LPD*%
X1384962Y2546825D2*
D10*
X866222D1*
Y2903075D1*
X1384962D1*
Y2546825D1*
X1272521Y2434324D1*
X866222Y2546825D2*
X978742Y2434324D1*
X1272521D2*
X978742D1*
X1808636Y1253986D2*
X1785013D1*
X1824383Y1316978D2*
D25*
X1769265D1*
Y1190994D1*
X1824383D1*
Y1316978D1*
X1737997Y1577307D2*
D10*
X1761620D1*
X1722250Y1514315D2*
D25*
X1777368D1*
Y1640299D1*
X1722250D1*
Y1514315D1*
X1485805Y1575089D2*
D10*
X1509429D1*
X1470058Y1512097D2*
D25*
X1525176D1*
Y1638082D1*
X1470058D1*
Y1512097D1*
X1716263Y1255292D2*
D10*
X1739887D1*
X1700516Y1192299D2*
D25*
X1755634D1*
Y1318284D1*
X1700516D1*
Y1192299D1*
X1803615Y1577307D2*
D10*
X1827239D1*
X1787868Y1514315D2*
D25*
X1842986D1*
Y1640299D1*
X1787868D1*
Y1514315D1*
X1739887Y1103986D2*
D10*
X1716263D1*
X1755634Y1166978D2*
D25*
X1700516D1*
Y1040994D1*
X1755634D1*
Y1166978D1*
X2016660Y1757020D2*
D10*
Y1780644D1*
X2079652Y1741273D2*
D25*
X1953668D1*
Y1796391D1*
X2079652D1*
Y1741273D1*
X1989830Y1043069D2*
D10*
Y1019446D1*
X1926837Y1058816D2*
D25*
X2052822D1*
Y1003698D1*
X1926837D1*
Y1058816D1*
X2519388Y1177163D2*
D10*
X2543011D1*
X2503641Y1114171D2*
D25*
X2558759D1*
Y1240155D1*
X2503641D1*
Y1114171D1*
X2194419Y1013337D2*
D10*
Y1036960D1*
X2257411Y997589D2*
D25*
X2131427D1*
Y1052708D1*
X2257411D1*
Y997589D1*
X2547514Y1552166D2*
D10*
X2571137D1*
X2531767Y1489173D2*
D25*
X2586885D1*
Y1615158D1*
X2531767D1*
Y1489173D1*
X1175888Y2281299D2*
D10*
X1136514D1*
X1191634Y2352166D2*
D25*
X1120768D1*
Y2210433D1*
X1191634D1*
Y2352166D1*
X2220727Y1777505D2*
D10*
Y1753881D1*
X2157735Y1793252D2*
D25*
X2283719D1*
Y1738134D1*
X2157735D1*
Y1793252D1*
X1272674Y2278046D2*
D10*
X1233300D1*
X1288420Y2348912D2*
D25*
X1217554D1*
Y2207180D1*
X1288420D1*
Y2348912D1*
X1372665Y2278046D2*
D10*
X1333291D1*
X1388411Y2348912D2*
D25*
X1317545D1*
Y2207180D1*
X1388411D1*
Y2348912D1*
X782781Y749036D2*
D10*
Y725413D1*
X719789Y764784D2*
D25*
X845773D1*
Y709666D1*
X719789D1*
Y764784D1*
X911545Y749036D2*
D10*
Y725413D1*
X848553Y764784D2*
D25*
X974537D1*
Y709666D1*
X848553D1*
Y764784D1*
X1169071Y749036D2*
D10*
Y725413D1*
X1106079Y764784D2*
D25*
X1232063D1*
Y709666D1*
X1106079D1*
Y764784D1*
X1297835Y749036D2*
D10*
Y725413D1*
X1234843Y764784D2*
D25*
X1360827D1*
Y709666D1*
X1234843D1*
Y764784D1*
X2194199Y2549080D2*
D10*
X2217823D1*
X2178452Y2486088D2*
D25*
X2233570D1*
Y2612072D1*
X2178452D1*
Y2486088D1*
X783160Y668715D2*
D10*
Y692338D1*
X846152Y652967D2*
D25*
X720168D1*
Y708086D1*
X846152D1*
Y652967D1*
X1388139Y710236D2*
D10*
X1411762D1*
X1372391Y647244D2*
D25*
X1427509D1*
Y773229D1*
X1372391D1*
Y647244D1*
X1297835Y669157D2*
D10*
Y692781D1*
X1360827Y653410D2*
D25*
X1234843D1*
Y708528D1*
X1360827D1*
Y653410D1*
X1888977Y1981201D2*
D10*
X1865354D1*
X1904725Y2044193D2*
D25*
X1849607D1*
Y1918209D1*
X1904725D1*
Y2044193D1*
X1169156Y693013D2*
D10*
Y669389D1*
X1106164Y708760D2*
D25*
X1232149D1*
Y653642D1*
X1106164D1*
Y708760D1*
X1040575Y693013D2*
D10*
Y669389D1*
X977583Y708760D2*
D25*
X1103567D1*
Y653642D1*
X977583D1*
Y708760D1*
X664207Y2445124D2*
D10*
X601216D1*
X664207Y2492367D2*
X601216D1*
D29*
X701215Y2468746D3*
X664207Y2345135D2*
D10*
X601216D1*
X664207Y2392378D2*
X601216D1*
D29*
X701215Y2368756D3*
X667425Y2648852D2*
D18*
Y2598854D1*
X607425D2*
Y2648852D1*
X534316Y2621870D2*
D10*
X434316D1*
X534316Y2421870D2*
Y2621870D1*
Y2421870D2*
X434316D1*
Y2621870D1*
D35*
X586718Y2228694D3*
X391834Y2317274D2*
D31*
Y1982629D1*
X1578035Y2415472D2*
D10*
Y2730513D1*
Y2866214D2*
Y2893713D1*
X2133024D2*
Y2862030D1*
Y2667146D2*
Y2505740D1*
Y2321019D2*
Y2305476D1*
X2089865D1*
X2014488Y2328790D2*
X1786536D1*
X1703865Y2305476D2*
X1613292D1*
X1705688Y2893115D2*
X1713591Y2873986D1*
Y2759806D1*
X2080139Y2893115D2*
Y2759806D1*
X1713591D2*
G03X2080139Y2755621I190683J646859D01*
G01*
X1705688Y2893115D2*
X1578035Y2893713D1*
X2080139D2*
X2133024D1*
X1043661Y1782450D2*
D18*
X1093741D1*
X1118701Y1757450D1*
Y1707450D2*
X1093741Y1682450D1*
X918701Y1757450D2*
X943741Y1782450D1*
X993741D1*
X1018701Y1757450D1*
Y1707450D2*
X993741Y1682450D1*
X943741D1*
X918701Y1707450D1*
X1043661Y1782450D2*
X1018701Y1757450D1*
Y1707450D2*
X1043661Y1682450D1*
X1093741D2*
X1043661D1*
X743661Y1782450D2*
X793741D1*
X818701Y1757450D1*
Y1707450D2*
X793741Y1682450D1*
X818701Y1757450D2*
X843741Y1782450D1*
X893741D1*
X918701Y1757450D1*
Y1707450D2*
X893741Y1682450D1*
X843741D1*
X818701Y1707450D1*
X618701Y1757450D2*
X643741Y1782450D1*
X693741D1*
X718701Y1757450D1*
Y1707450D2*
X693741Y1682450D1*
X643741D1*
X618701Y1707450D1*
X743661Y1782450D2*
X718701Y1757450D1*
Y1707450D2*
X743661Y1682450D1*
X793741D2*
X743661D1*
X443661Y1782450D2*
X493741D1*
X518701Y1757450D1*
Y1707450D2*
X493741Y1682450D1*
X518701Y1757450D2*
X543741Y1782450D1*
X593741D1*
X618701Y1757450D1*
Y1707450D2*
X593741Y1682450D1*
X543741D1*
X518701Y1707450D1*
X418701Y1757450D2*
Y1707450D1*
X443661Y1782450D2*
X418701Y1757450D1*
Y1707450D2*
X443661Y1682450D1*
X493741D2*
X443661D1*
X1143741Y1782450D2*
X1193741D1*
X1218701Y1757450D1*
Y1707450D1*
X1193741Y1682450D1*
X1143741Y1782450D2*
X1118701Y1757450D1*
Y1707450D2*
X1143741Y1682450D1*
X1193741D2*
X1143741D1*
X2793701Y713450D2*
D10*
Y2637450D1*
Y637450D2*
Y713450D1*
X2893701Y637450D2*
X2793701D1*
X2893701D2*
Y2637450D1*
X2793701D1*
X2893701Y713450D2*
Y2637450D1*
Y637450D2*
Y713450D1*
X2993701Y637450D2*
X2893701D1*
X2993701D2*
Y2637450D1*
X2893701D1*
X1748352Y1373663D2*
D17*
Y1397288D1*
X1795596Y1373663D2*
Y1397288D1*
X2182389Y2354881D2*
Y2378506D1*
X2229633Y2354881D2*
Y2378506D1*
X1304244Y2067704D2*
D10*
Y2099200D1*
X791441Y1906180D2*
Y1937676D1*
X647706Y1906180D2*
Y1937676D1*
X1072662Y1906180D2*
Y1937676D1*
X932051Y1906180D2*
Y1937676D1*
X2572244Y815453D2*
Y846949D1*
X2245160Y802953D2*
Y834449D1*
X1911828Y802953D2*
Y834449D1*
X1578495Y802953D2*
Y834449D1*
X1753647Y2121876D2*
Y2153372D1*
X1559877Y2121876D2*
Y2153372D1*
X2006802Y2112499D2*
Y2143995D1*
X2734743Y2693586D2*
Y2725082D1*
Y2768586D2*
Y2800082D1*
X1753795Y1706431D2*
D25*
X1808914D1*
Y1832415D1*
X1753795D1*
Y1706431D1*
X1769543Y1769423D2*
D10*
X1793166D1*
X1828795Y1708054D2*
D25*
X1883914D1*
Y1834038D1*
X1828795D1*
Y1708054D1*
X1844543Y1771046D2*
D10*
X1868166D1*
X1658760Y1941979D2*
D25*
X1603642D1*
Y1815995D1*
X1658760D1*
Y1941979D1*
X1643013Y1878987D2*
D10*
X1619389D1*
X1309851Y2171433D2*
D25*
X1435835D1*
Y2116315D1*
X1309851D1*
Y2171433D1*
X1372843Y2155686D2*
D10*
Y2132062D1*
X708104Y1806878D2*
D25*
X582120D1*
Y1861996D1*
X708104D1*
Y1806878D1*
X645112Y1822625D2*
D10*
Y1846249D1*
X836780Y1861996D2*
D25*
X962764D1*
Y1806878D1*
X836780D1*
Y1861996D1*
X899772Y1846249D2*
D10*
Y1822625D1*
X964110Y1861996D2*
D25*
X1090095D1*
Y1806878D1*
X964110D1*
Y1861996D1*
X1027103Y1846249D2*
D10*
Y1822625D1*
X835435Y1806878D2*
D25*
X709450D1*
Y1861996D1*
X835435D1*
Y1806878D1*
X772442Y1822625D2*
D10*
Y1846249D1*
X454789Y1861996D2*
D25*
X580773D1*
Y1806878D1*
X454789D1*
Y1861996D1*
X517781Y1846249D2*
D10*
Y1822625D1*
X1941307Y2095595D2*
D25*
X1996425D1*
Y2221579D1*
X1941307D1*
Y2095595D1*
X1957055Y2158587D2*
D10*
X1980678D1*
X2496042Y1123604D2*
D25*
X2440924D1*
Y997620D1*
X2496042D1*
Y1123604D1*
X2480295Y1060612D2*
D10*
X2456671D1*
X792253Y2030729D2*
D25*
X918238D1*
Y1975610D1*
X792253D1*
Y2030729D1*
X855246Y2014981D2*
D10*
Y1991358D1*
X648519Y2030729D2*
D25*
X774503D1*
Y1975610D1*
X648519D1*
Y2030729D1*
X711511Y2014981D2*
D10*
Y1991358D1*
X874402Y2403471D2*
D25*
X1000386D1*
Y2348353D1*
X874402D1*
Y2403471D1*
X937394Y2387724D2*
D10*
Y2364100D1*
X1070349Y2030729D2*
D25*
X1196334D1*
Y1975610D1*
X1070349D1*
Y2030729D1*
X1133341Y2014981D2*
D10*
Y1991358D1*
X2439798Y1123418D2*
D25*
X2384680D1*
Y997433D1*
X2439798D1*
Y1123418D1*
X2424051Y1060425D2*
D10*
X2400427D1*
X1590011Y1941979D2*
D25*
X1534893D1*
Y1815995D1*
X1590011D1*
Y1941979D1*
X1574263Y1878987D2*
D10*
X1550640D1*
X932864Y2030729D2*
D25*
X1058848D1*
Y1975610D1*
X932864D1*
Y2030729D1*
X995856Y2014981D2*
D10*
Y1991358D1*
X2691979Y859890D2*
D25*
X2565995D1*
Y915008D1*
X2691979D1*
Y859890D1*
X2628987Y875637D2*
D10*
Y899261D1*
X2369016Y847390D2*
D25*
X2243032D1*
Y902508D1*
X2369016D1*
Y847390D1*
X2306024Y863137D2*
D10*
Y886761D1*
X2041978Y847391D2*
D25*
X1915994D1*
Y902509D1*
X2041978D1*
Y847391D1*
X1978986Y863139D2*
D10*
Y886762D1*
X1710593Y847390D2*
D25*
X1584609D1*
Y902508D1*
X1710593D1*
Y847390D1*
X1647601Y863137D2*
D10*
Y886761D1*
X1884883Y2095423D2*
D25*
X1940002D1*
Y2221407D1*
X1884883D1*
Y2095423D1*
X1900631Y2158415D2*
D10*
X1924254D1*
X1753484Y2221260D2*
D25*
X1879469D1*
Y2166142D1*
X1753484D1*
Y2221260D1*
X1816477Y2205513D2*
D10*
Y2181889D1*
X1691133Y2095423D2*
D25*
X1746251D1*
Y2221407D1*
X1691133D1*
Y2095423D1*
X1706880Y2158415D2*
D10*
X1730504D1*
X1557912Y2221260D2*
D25*
X1683897D1*
Y2166142D1*
X1557912D1*
Y2221260D1*
X1620904Y2205513D2*
D10*
Y2181889D1*
X2144457Y2092469D2*
D25*
X2199575D1*
Y2218453D1*
X2144457D1*
Y2092469D1*
X2160204Y2155461D2*
D10*
X2183828D1*
X2011225Y2218313D2*
D25*
X2137209D1*
Y2163194D1*
X2011225D1*
Y2218313D1*
X2074217Y2202565D2*
D10*
Y2178942D1*
X1492334Y769223D2*
D25*
X1437215D1*
Y643239D1*
X1492334D1*
Y769223D1*
X1476586Y706231D2*
D10*
X1452963D1*
X1492334Y591994D2*
D25*
X1437215D1*
Y466009D1*
X1492334D1*
Y591994D1*
X1476586Y529002D2*
D10*
X1452963D1*
X1103299Y709666D2*
D25*
X977315D1*
Y764784D1*
X1103299D1*
Y709666D1*
X1040307Y725413D2*
D10*
Y749036D1*
X1829869Y769223D2*
D25*
X1774751D1*
Y643239D1*
X1829869D1*
Y769223D1*
X1814122Y706231D2*
D10*
X1790498D1*
X1829869Y591994D2*
D25*
X1774751D1*
Y466009D1*
X1829869D1*
Y591994D1*
X1814122Y529002D2*
D10*
X1790498D1*
X2169232Y750471D2*
D25*
X2114114D1*
Y624487D1*
X2169232D1*
Y750471D1*
X2153485Y687479D2*
D10*
X2129862D1*
X2167404Y591994D2*
D25*
X2112286D1*
Y466009D1*
X2167404D1*
Y591994D1*
X2151657Y529002D2*
D10*
X2128034D1*
X2502729Y754511D2*
D25*
X2447610D1*
Y628526D1*
X2502729D1*
Y754511D1*
X2486981Y691519D2*
D10*
X2463358D1*
X2502729Y598244D2*
D25*
X2447610D1*
Y472260D1*
X2502729D1*
Y598244D1*
X2486981Y535252D2*
D10*
X2463358D1*
X1898626Y1118991D2*
D25*
X1843508D1*
Y993007D1*
X1898626D1*
Y1118991D1*
X1882879Y1055999D2*
D10*
X1859255D1*
X1842370Y1118991D2*
D25*
X1787252D1*
Y993007D1*
X1842370D1*
Y1118991D1*
X1826623Y1055999D2*
D10*
X1802999D1*
X2561050Y1240009D2*
D25*
X2687034D1*
Y1184891D1*
X2561050D1*
Y1240009D1*
X2624042Y1224262D2*
D10*
Y1200639D1*
X2561051Y1146263D2*
D25*
X2687036D1*
Y1091145D1*
X2561051D1*
Y1146263D1*
X2624044Y1130515D2*
D10*
Y1106892D1*
X2554801Y1052517D2*
D25*
X2680785D1*
Y997399D1*
X2554801D1*
Y1052517D1*
X2617793Y1036770D2*
D10*
Y1013146D1*
X2511049Y2174383D2*
D25*
X2637033D1*
Y2119265D1*
X2511049D1*
Y2174383D1*
X2574041Y2158636D2*
D10*
Y2135013D1*
X2511050Y2102511D2*
D25*
X2637034D1*
Y2047393D1*
X2511050D1*
Y2102511D1*
X2574042Y2086763D2*
D10*
Y2063140D1*
X2511286Y2024546D2*
D25*
X2637271D1*
Y1969428D1*
X2511286D1*
Y2024546D1*
X2574278Y2008799D2*
D10*
Y1985175D1*
X2508605Y2550331D2*
D25*
X2634589D1*
Y2495213D1*
X2508605D1*
Y2550331D1*
X2571597Y2534584D2*
D10*
Y2510960D1*
X2690248Y1442075D2*
D25*
X2635130D1*
Y1316091D1*
X2690248D1*
Y1442075D1*
X2674501Y1379083D2*
D10*
X2650877D1*
X2364173Y2549385D2*
D25*
X2490158D1*
Y2494267D1*
X2364173D1*
Y2549385D1*
X2427166Y2533637D2*
D10*
Y2510014D1*
X849003Y708760D2*
D25*
X974987D1*
Y653642D1*
X849003D1*
Y708760D1*
X911995Y693013D2*
D10*
Y669389D1*
X1306445Y1884201D2*
D47*
G02X1306445Y1884201I70006J0D01*
G01*
X1256448Y1969209D2*
D18*
Y1799193D1*
X1496453D2*
Y1969209D1*
X1337164Y2004189D2*
X1416443D1*
X1335979Y1764213D2*
X1416443D1*
X1568945Y621701D2*
D47*
G02X1568945Y621701I70006J0D01*
G01*
X1518948Y706709D2*
D18*
Y536693D1*
X1758953D2*
Y706709D1*
X1599664Y741689D2*
X1678943D1*
X1598479Y501713D2*
X1678943D1*
X1904362Y621701D2*
D47*
G02X1904362Y621701I70006J0D01*
G01*
X1854365Y706709D2*
D18*
Y536693D1*
X2094370D2*
Y706709D1*
X1935081Y741689D2*
X2014360D1*
X1933896Y501713D2*
X2014360D1*
X2239778Y621701D2*
D47*
G02X2239778Y621701I70006J0D01*
G01*
X2189781Y706709D2*
D18*
Y536693D1*
X2429786D2*
Y706709D1*
X2270497Y741689D2*
X2349776D1*
X2269312Y501713D2*
X2349776D1*
X2575195Y621701D2*
D47*
G02X2575195Y621701I70006J0D01*
G01*
X2525199Y706709D2*
D18*
Y536693D1*
X2765203D2*
Y706709D1*
X2605914Y741689D2*
X2685193D1*
X2604730Y501713D2*
X2685193D1*
X1941910Y1591998D2*
D10*
X2375020D1*
Y1158887D1*
X1941910D1*
Y1591998D1*
G36*
D2*
Y1552608D1*
X1981299Y1591998D1*
X1941910D1*
G37*
D48*
X1894695D3*
X845553Y2513763D2*
D47*
G02X845553Y2513763I4999J0D01*
G01*
X737554Y2456858D2*
D18*
Y2490670D1*
X837550D2*
Y2456858D1*
X798115Y2445861D2*
X776988D1*
X919022Y2293689D2*
D10*
X938686D1*
Y2273997D1*
X919022Y2096816D2*
X938686D1*
Y2116507D2*
Y2096816D1*
X741866D2*
X761556D1*
X741866Y2116507D2*
Y2096816D1*
D51*
X712382Y2254316D3*
X761556Y2293689D2*
D10*
X741866Y2273997D1*
X510110Y939264D2*
Y1033052D1*
X1376494Y932940D2*
Y1032970D1*
X400788Y804331D2*
X1451969D1*
Y1625591D1*
X400788D1*
Y804331D1*
X401839Y867157D2*
X1451864D1*
X691765Y570620D2*
Y452509D1*
X817734Y570620D2*
Y452509D1*
X691765D2*
X817734D1*
X691765Y570620D2*
X735061D1*
X774438D2*
X817734D1*
X735061D2*
G03X774438Y570620I19688J-13D01*
G01*
D57*
X1299964Y623378D3*
X2730576Y2871822D2*
D31*
Y2121822D1*
Y1871822D1*
X2150576D1*
Y2121822D1*
Y2871822D1*
X2265590D1*
X2315586D1*
X2365582D1*
X2415578D1*
X2465574D1*
X2515570D1*
X2565566D1*
X2615562D1*
X2730576D1*
Y2121822D2*
X2150576D1*
X2615562Y2871822D2*
X2640560Y2846822D1*
Y2796822D1*
X2615562Y2771822D1*
X2640560Y2746822D1*
Y2696822D1*
X2615562Y2671822D1*
X2565566D1*
X2540568Y2696822D1*
X2515570Y2671822D1*
X2465574D1*
X2440576Y2696822D1*
X2415578Y2671822D1*
X2365582D1*
X2340584Y2696822D1*
X2315586Y2671822D1*
X2265590D1*
X2240592Y2696822D1*
Y2746822D1*
X2265590Y2771822D1*
X2240592Y2796822D1*
Y2846822D1*
X2265590Y2871822D1*
X2315586D2*
X2340584Y2846822D1*
X2365582Y2871822D1*
X2415578D2*
X2440576Y2846822D1*
X2465574Y2871822D1*
X2515570D2*
X2540568Y2846822D1*
X2565566Y2871822D1*
X2120687Y2026503D2*
D10*
Y1829649D1*
X2223064Y2026503D2*
Y1829649D1*
X2120687D2*
X2223064D1*
X2152181Y2026503D2*
X2120687D1*
X2191570D2*
X2223064D1*
X2152181D2*
G03X2191570Y2026503I19694J9D01*
G01*
X982629Y590650D2*
D25*
X1077117D1*
Y436017D1*
X982629D1*
Y590650D1*
D63*
X1711300Y1414945D3*
X1685086Y1731553D2*
D10*
Y1745253D1*
X1551121Y1731553D2*
Y1745253D1*
X1685086D2*
X1551121D1*
X1685086Y1515080D2*
Y1632907D1*
X1551121Y1515080D2*
Y1632907D1*
Y1402734D2*
Y1416435D1*
X1685086Y1402734D2*
Y1416435D1*
Y1402734D2*
X1551121D1*
X1677200Y1005290D2*
Y1284619D1*
X1491452Y1005290D2*
Y1284619D1*
Y1005290D2*
G03X1677200Y1005290I92874J8216D01*
G01*
Y1284619D2*
G03X1491452Y1284619I-92874J-8216D01*
G01*
X1074263Y2277166D2*
X1050639D1*
X1090010Y2340158D2*
D25*
X1034892D1*
Y2214173D1*
X1090010D1*
Y2340158D1*
X1340390Y531440D2*
D18*
X1371668Y531486D1*
X1340390Y531440D2*
X1352890Y543940D1*
X1340390Y531440D2*
X1352890Y518941D1*
X1356015Y562689D2*
Y597065D1*
X1343513Y581440D1*
X1356015Y597065D2*
X1368515Y581440D1*
X1340487Y484593D2*
G02X1340487Y484593I15627J0D01*
G01*
X1352990Y484594D2*
G02X1352990Y484594I3125J0D01*
G01*
X1083523Y2416793D2*
D138*
Y2396697D1*
X1092145D1*
X1095019Y2397670D1*
X1095970Y2398621D1*
X1096920Y2400522D1*
Y2403396D1*
X1095970Y2405319D1*
X1095019Y2406270D1*
X1092145Y2407221D1*
X1095019Y2408193D1*
X1095970Y2409144D1*
X1096920Y2411045D1*
Y2412969D1*
X1095970Y2414870D1*
X1095019Y2415843D1*
X1092145Y2416793D1*
X1083523D1*
Y2407221D2*
X1092145D1*
X1118417Y2396697D2*
X1110745Y2416793D1*
X1103096Y2396697D1*
X1105970Y2403396D2*
X1115543D1*
X1131291Y2416793D2*
Y2396697D1*
X1124593Y2416793D2*
X1137990D1*
X1144166Y2412947D2*
X1146089Y2413919D1*
X1148963Y2416771D1*
Y2396697D1*
X1841061Y1249898D2*
X1839160Y1248947D1*
X1837236Y1247024D1*
X1836286Y1245122D1*
Y1241298D1*
X1837236Y1239374D1*
X1839160Y1237473D1*
X1841061Y1236500D1*
X1843935Y1235550D1*
X1848732D1*
X1851584Y1236500D1*
X1853508Y1237473D1*
X1855409Y1239374D1*
X1856382Y1241298D1*
Y1245122D1*
X1855409Y1247024D1*
X1853508Y1248947D1*
X1851584Y1249898D1*
X1840133Y1256073D2*
X1839160Y1257997D1*
X1836308Y1260871D1*
X1856382D1*
X1746262Y1669054D2*
X1745311Y1670955D1*
X1743388Y1672878D1*
X1741486Y1673829D1*
X1737662D1*
X1735738Y1672878D1*
X1733837Y1670955D1*
X1732864Y1669054D1*
X1731914Y1666180D1*
Y1661382D1*
X1732864Y1658530D1*
X1733837Y1656607D1*
X1735738Y1654706D1*
X1737662Y1653733D1*
X1741486D1*
X1743388Y1654706D1*
X1745311Y1656607D1*
X1746262Y1658530D1*
X1753410Y1669031D2*
Y1669982D1*
X1754361Y1671905D1*
X1755311Y1672856D1*
X1757235Y1673807D1*
X1761059D1*
X1762961Y1672856D1*
X1763911Y1671905D1*
X1764884Y1669982D1*
Y1668081D1*
X1763911Y1666157D1*
X1762010Y1663305D1*
X1752437Y1653733D1*
X1765835D1*
X1490945Y1663712D2*
X1489995Y1665614D1*
X1488071Y1667537D1*
X1486170Y1668488D1*
X1482345D1*
X1480422Y1667537D1*
X1478521Y1665614D1*
X1477548Y1663712D1*
X1476597Y1660838D1*
Y1656041D1*
X1477548Y1653189D1*
X1478521Y1651266D1*
X1480422Y1649364D1*
X1482345Y1648392D1*
X1486170D1*
X1488071Y1649364D1*
X1489995Y1651266D1*
X1490945Y1653189D1*
X1499045Y1668465D2*
X1509546D1*
X1503820Y1660816D1*
X1506694D1*
X1508595Y1659866D1*
X1509546Y1658915D1*
X1510518Y1656041D1*
Y1654140D1*
X1509546Y1651266D1*
X1507644Y1649342D1*
X1504770Y1648392D1*
X1501896D1*
X1499045Y1649342D1*
X1498094Y1650315D1*
X1497121Y1652216D1*
X1716181Y1348561D2*
X1715231Y1350463D1*
X1713307Y1352386D1*
X1711406Y1353337D1*
X1707581D1*
X1705658Y1352386D1*
X1703757Y1350463D1*
X1702784Y1348561D1*
X1701833Y1345687D1*
Y1340890D1*
X1702784Y1338038D1*
X1703757Y1336115D1*
X1705658Y1334213D1*
X1707581Y1333241D1*
X1711406D1*
X1713307Y1334213D1*
X1715231Y1336115D1*
X1716181Y1338038D1*
X1731930Y1333241D2*
Y1353315D1*
X1722357Y1339939D1*
X1736705D1*
X1811880Y1669071D2*
X1810929Y1670972D1*
X1809006Y1672895D1*
X1807105Y1673846D1*
X1803280D1*
X1801356Y1672895D1*
X1799455Y1670972D1*
X1798482Y1669071D1*
X1797532Y1666197D1*
Y1661399D1*
X1798482Y1658547D1*
X1799455Y1656624D1*
X1801356Y1654723D1*
X1803280Y1653750D1*
X1807105D1*
X1809006Y1654723D1*
X1810929Y1656624D1*
X1811880Y1658547D1*
X1829529Y1673824D2*
X1819979D1*
X1819028Y1665224D1*
X1819979Y1666174D1*
X1822853Y1667147D1*
X1825705D1*
X1828579Y1666174D1*
X1830502Y1664273D1*
X1831453Y1661399D1*
Y1659498D1*
X1830502Y1656624D1*
X1828579Y1654701D1*
X1825705Y1653750D1*
X1822853D1*
X1819979Y1654701D1*
X1819028Y1655673D1*
X1818056Y1657575D1*
X1723394Y1025400D2*
X1722443Y1027301D1*
X1720520Y1029225D1*
X1718618Y1030175D1*
X1714794D1*
X1712870Y1029225D1*
X1710969Y1027301D1*
X1709996Y1025400D1*
X1709046Y1022526D1*
Y1017729D1*
X1709996Y1014877D1*
X1710969Y1012953D1*
X1712870Y1011052D1*
X1714794Y1010079D1*
X1718618D1*
X1720520Y1011052D1*
X1722443Y1012953D1*
X1723394Y1014877D1*
X1741043Y1027301D2*
X1740093Y1029203D1*
X1737219Y1030153D1*
X1735317D1*
X1732443Y1029203D1*
X1730520Y1026329D1*
X1729569Y1021553D1*
Y1016778D1*
X1730520Y1012953D1*
X1732443Y1011030D1*
X1735317Y1010079D1*
X1736268D1*
X1739120Y1011030D1*
X1741043Y1012953D1*
X1741994Y1015827D1*
Y1016778D1*
X1741043Y1019652D1*
X1739120Y1021553D1*
X1736268Y1022504D1*
X1735317D1*
X1732443Y1021553D1*
X1730520Y1019652D1*
X1729569Y1016778D1*
X2014065Y1820897D2*
X2013114Y1822799D1*
X2011191Y1824722D1*
X2009290Y1825673D1*
X2005465D1*
X2003542Y1824722D1*
X2001640Y1822799D1*
X2000668Y1820897D1*
X1999717Y1818023D1*
Y1813226D1*
X2000668Y1810374D1*
X2001640Y1808451D1*
X2003542Y1806549D1*
X2005465Y1805577D1*
X2009290D1*
X2011191Y1806549D1*
X2013114Y1808451D1*
X2014065Y1810374D1*
X2024065Y1805577D2*
X2033638Y1825651D1*
X2020241D1*
X2077861Y1033328D2*
X2076910Y1035229D1*
X2074987Y1037152D1*
X2073085Y1038103D1*
X2069261D1*
X2067337Y1037152D1*
X2065436Y1035229D1*
X2064463Y1033328D1*
X2063513Y1030454D1*
Y1025656D1*
X2064463Y1022804D1*
X2065436Y1020881D1*
X2067337Y1018980D1*
X2069261Y1018007D1*
X2073085D1*
X2074987Y1018980D1*
X2076910Y1020881D1*
X2077861Y1022804D1*
X2088812Y1038081D2*
X2085960Y1037130D1*
X2084987Y1035229D1*
Y1033306D1*
X2085960Y1031404D1*
X2087861Y1030432D1*
X2091686Y1029481D1*
X2094560Y1028530D1*
X2096461Y1026607D1*
X2097412Y1024706D1*
Y1021832D1*
X2096461Y1019930D1*
X2095510Y1018958D1*
X2092636Y1018007D1*
X2088812D1*
X2085960Y1018958D1*
X2084987Y1019930D1*
X2084036Y1021832D1*
Y1024706D1*
X2084987Y1026607D1*
X2086910Y1028530D1*
X2089762Y1029481D1*
X2093587Y1030432D1*
X2095510Y1031404D1*
X2096461Y1033306D1*
Y1035229D1*
X2095510Y1037130D1*
X2092636Y1038081D1*
X2088812D1*
X2529080Y1267786D2*
X2528129Y1269687D1*
X2526206Y1271610D1*
X2524304Y1272561D1*
X2520480D1*
X2518556Y1271610D1*
X2516655Y1269687D1*
X2515682Y1267786D1*
X2514732Y1264912D1*
Y1260114D1*
X2515682Y1257262D1*
X2516655Y1255339D1*
X2518556Y1253438D1*
X2520480Y1252465D1*
X2524304D1*
X2526206Y1253438D1*
X2528129Y1255339D1*
X2529080Y1257262D1*
X2547702Y1265862D2*
X2546729Y1262988D1*
X2544828Y1261065D1*
X2541954Y1260114D1*
X2541003D1*
X2538129Y1261065D1*
X2536228Y1262988D1*
X2535255Y1265862D1*
Y1266813D1*
X2536228Y1269687D1*
X2538129Y1271588D1*
X2541003Y1272539D1*
X2541954D1*
X2544828Y1271588D1*
X2546729Y1269687D1*
X2547702Y1265862D1*
Y1261065D1*
X2546729Y1256290D1*
X2544828Y1253416D1*
X2541954Y1252465D1*
X2540053D1*
X2537179Y1253416D1*
X2536228Y1255339D1*
X2273828Y1030344D2*
X2272877Y1032245D1*
X2270954Y1034168D1*
X2269052Y1035119D1*
X2265228D1*
X2263304Y1034168D1*
X2261403Y1032245D1*
X2260430Y1030344D1*
X2259480Y1027470D1*
Y1022672D1*
X2260430Y1019820D1*
X2261403Y1017897D1*
X2263304Y1015996D1*
X2265228Y1015023D1*
X2269052D1*
X2270954Y1015996D1*
X2272877Y1017897D1*
X2273828Y1019820D1*
X2280003Y1031272D2*
X2281927Y1032245D1*
X2284801Y1035097D1*
Y1015023D1*
X2296724Y1035097D2*
X2293850Y1034146D1*
X2291927Y1031272D1*
X2290976Y1026497D1*
Y1023623D1*
X2291927Y1018847D1*
X2293850Y1015973D1*
X2296724Y1015023D1*
X2298626D1*
X2301500Y1015973D1*
X2303401Y1018847D1*
X2304374Y1023623D1*
Y1026497D1*
X2303401Y1031272D1*
X2301500Y1034146D1*
X2298626Y1035097D1*
X2296724D1*
X2303401Y1031272D2*
X2291927Y1018847D1*
X2556090Y1639198D2*
X2555139Y1641099D1*
X2553216Y1643023D1*
X2551314Y1643973D1*
X2547490D1*
X2545566Y1643023D1*
X2543665Y1641099D1*
X2542692Y1639198D1*
X2541742Y1636324D1*
Y1631526D1*
X2542692Y1628675D1*
X2543665Y1626751D1*
X2545566Y1624850D1*
X2547490Y1623877D1*
X2551314D1*
X2553216Y1624850D1*
X2555139Y1626751D1*
X2556090Y1628675D1*
X2562265Y1640126D2*
X2564189Y1641099D1*
X2567063Y1643951D1*
Y1623877D1*
X2573238Y1640126D2*
X2575162Y1641099D1*
X2578036Y1643951D1*
Y1623877D1*
X1148086Y2376634D2*
X1147136Y2378535D1*
X1145212Y2380458D1*
X1143311Y2381409D1*
X1139486D1*
X1137563Y2380458D1*
X1135662Y2378535D1*
X1134689Y2376634D1*
X1133738Y2373760D1*
Y2368962D1*
X1134689Y2366110D1*
X1135662Y2364187D1*
X1137563Y2362286D1*
X1139486Y2361313D1*
X1143311D1*
X1145212Y2362286D1*
X1147136Y2364187D1*
X1148086Y2366110D1*
X1154262Y2377562D2*
X1156185Y2378535D1*
X1159059Y2381387D1*
Y2361313D1*
X1166208Y2376611D2*
Y2377562D1*
X1167158Y2379485D1*
X1168109Y2380436D1*
X1170032Y2381387D1*
X1173857D1*
X1175758Y2380436D1*
X1176709Y2379485D1*
X1177682Y2377562D1*
Y2375661D1*
X1176709Y2373737D1*
X1174808Y2370886D1*
X1165235Y2361313D1*
X1178632D1*
X2212636Y1814638D2*
X2211685Y1816539D1*
X2209762Y1818462D1*
X2207861Y1819413D1*
X2204036D1*
X2202113Y1818462D1*
X2200211Y1816539D1*
X2199239Y1814638D1*
X2198288Y1811763D1*
Y1806966D1*
X2199239Y1804114D1*
X2200211Y1802191D1*
X2202113Y1800290D1*
X2204036Y1799317D1*
X2207861D1*
X2209762Y1800290D1*
X2211685Y1802191D1*
X2212636Y1804114D1*
X2218812Y1815566D2*
X2220735Y1816539D1*
X2223609Y1819391D1*
Y1799317D1*
X2231708Y1819391D2*
X2242209D1*
X2236484Y1811741D1*
X2239358D1*
X2241259Y1810791D1*
X2242209Y1809840D1*
X2243182Y1806966D1*
Y1805065D1*
X2242209Y1802191D1*
X2240308Y1800267D1*
X2237434Y1799317D1*
X2234560D1*
X2231708Y1800267D1*
X2230758Y1801240D1*
X2229785Y1803141D1*
X1244888Y2373426D2*
X1243937Y2375328D1*
X1242014Y2377251D1*
X1240113Y2378202D1*
X1236288D1*
X1234365Y2377251D1*
X1232463Y2375328D1*
X1231491Y2373426D1*
X1230540Y2370552D1*
Y2365755D1*
X1231491Y2362903D1*
X1232463Y2360980D1*
X1234365Y2359078D1*
X1236288Y2358106D1*
X1240113D1*
X1242014Y2359078D1*
X1243937Y2360980D1*
X1244888Y2362903D1*
X1251064Y2374355D2*
X1252987Y2375328D1*
X1255861Y2378179D1*
Y2358106D1*
X1273511Y2378179D2*
X1263960D1*
X1263010Y2369579D1*
X1263960Y2370530D1*
X1266834Y2371503D1*
X1269686D1*
X1272560Y2370530D1*
X1274484Y2368629D1*
X1275434Y2365755D1*
Y2363854D1*
X1274484Y2360980D1*
X1272560Y2359056D1*
X1269686Y2358106D1*
X1266834D1*
X1263960Y2359056D1*
X1263010Y2360029D1*
X1262037Y2361930D1*
X1345365Y2373426D2*
X1344415Y2375328D1*
X1342491Y2377251D1*
X1340590Y2378202D1*
X1336765D1*
X1334842Y2377251D1*
X1332941Y2375328D1*
X1331968Y2373426D1*
X1331017Y2370552D1*
Y2365755D1*
X1331968Y2362903D1*
X1332941Y2360980D1*
X1334842Y2359078D1*
X1336765Y2358106D1*
X1340590D1*
X1342491Y2359078D1*
X1344415Y2360980D1*
X1345365Y2362903D1*
X1351541Y2374355D2*
X1353464Y2375328D1*
X1356338Y2378179D1*
Y2358106D1*
X1373988Y2375328D2*
X1373037Y2377229D1*
X1370163Y2378179D1*
X1368262D1*
X1365388Y2377229D1*
X1363465Y2374355D1*
X1362514Y2369579D1*
Y2364804D1*
X1363465Y2360980D1*
X1365388Y2359056D1*
X1368262Y2358106D1*
X1369213D1*
X1372065Y2359056D1*
X1373988Y2360980D1*
X1374939Y2363854D1*
Y2364804D1*
X1373988Y2367678D1*
X1372065Y2369579D1*
X1369213Y2370530D1*
X1368262D1*
X1365388Y2369579D1*
X1363465Y2367678D1*
X1362514Y2364804D1*
X774682Y789298D2*
X773731Y791199D1*
X771808Y793122D1*
X769907Y794073D1*
X766082D1*
X764159Y793122D1*
X762257Y791199D1*
X761285Y789298D1*
X760334Y786424D1*
Y781626D1*
X761285Y778774D1*
X762257Y776851D1*
X764159Y774950D1*
X766082Y773977D1*
X769907D1*
X771808Y774950D1*
X773731Y776851D1*
X774682Y778774D1*
X780858Y790226D2*
X782781Y791199D1*
X785655Y794051D1*
Y773977D1*
X795655D2*
X805228Y794051D1*
X791831D1*
X903457Y789298D2*
X902506Y791199D1*
X900583Y793122D1*
X898682Y794073D1*
X894857D1*
X892933Y793122D1*
X891032Y791199D1*
X890059Y789298D1*
X889109Y786424D1*
Y781626D1*
X890059Y778774D1*
X891032Y776851D1*
X892933Y774950D1*
X894857Y773977D1*
X898682D1*
X900583Y774950D1*
X902506Y776851D1*
X903457Y778774D1*
X909633Y790226D2*
X911556Y791199D1*
X914430Y794051D1*
Y773977D1*
X925381Y794051D2*
X922529Y793100D1*
X921556Y791199D1*
Y789276D1*
X922529Y787374D1*
X924430Y786401D1*
X928255Y785451D1*
X931129Y784500D1*
X933030Y782577D1*
X933981Y780676D1*
Y777802D1*
X933030Y775900D1*
X932080Y774928D1*
X929206Y773977D1*
X925381D1*
X922529Y774928D1*
X921556Y775900D1*
X920606Y777802D1*
Y780676D1*
X921556Y782577D1*
X923480Y784500D1*
X926332Y785451D1*
X930156Y786401D1*
X932080Y787374D1*
X933030Y789276D1*
Y791199D1*
X932080Y793100D1*
X929206Y794051D1*
X925381D1*
X1161447Y789298D2*
X1160497Y791199D1*
X1158573Y793122D1*
X1156672Y794073D1*
X1152847D1*
X1150924Y793122D1*
X1149023Y791199D1*
X1148050Y789298D1*
X1147099Y786424D1*
Y781626D1*
X1148050Y778774D1*
X1149023Y776851D1*
X1150924Y774950D1*
X1152847Y773977D1*
X1156672D1*
X1158573Y774950D1*
X1160497Y776851D1*
X1161447Y778774D1*
X1167623Y790226D2*
X1169546Y791199D1*
X1172420Y794051D1*
Y773977D1*
X1191043Y787374D2*
X1190070Y784500D1*
X1188169Y782577D1*
X1185295Y781626D1*
X1184344D1*
X1181470Y782577D1*
X1179569Y784500D1*
X1178596Y787374D1*
Y788325D1*
X1179569Y791199D1*
X1181470Y793100D1*
X1184344Y794051D1*
X1185295D1*
X1188169Y793100D1*
X1190070Y791199D1*
X1191043Y787374D1*
Y782577D1*
X1190070Y777802D1*
X1188169Y774928D1*
X1185295Y773977D1*
X1183394D1*
X1180519Y774928D1*
X1179569Y776851D1*
X1285436Y789298D2*
X1284485Y791199D1*
X1282562Y793122D1*
X1280661Y794073D1*
X1276836D1*
X1274912Y793122D1*
X1273011Y791199D1*
X1272038Y789298D1*
X1271088Y786424D1*
Y781626D1*
X1272038Y778774D1*
X1273011Y776851D1*
X1274912Y774950D1*
X1276836Y773977D1*
X1280661D1*
X1282562Y774950D1*
X1284485Y776851D1*
X1285436Y778774D1*
X1292584Y789276D2*
Y790226D1*
X1293535Y792150D1*
X1294486Y793100D1*
X1296409Y794051D1*
X1300234D1*
X1302135Y793100D1*
X1303085Y792150D1*
X1304058Y790226D1*
Y788325D1*
X1303085Y786401D1*
X1301184Y783550D1*
X1291612Y773977D1*
X1305009D1*
X1316933Y794051D2*
X1314059Y793100D1*
X1312135Y790226D1*
X1311185Y785451D1*
Y782577D1*
X1312135Y777802D1*
X1314059Y774928D1*
X1316933Y773977D1*
X1318834D1*
X1321708Y774928D1*
X1323609Y777802D1*
X1324582Y782577D1*
Y785451D1*
X1323609Y790226D1*
X1321708Y793100D1*
X1318834Y794051D1*
X1316933D1*
X1323609Y790226D2*
X1312135Y777802D1*
X2153938Y2540981D2*
X2152036Y2540031D1*
X2150113Y2538107D1*
X2149162Y2536206D1*
Y2532381D1*
X2150113Y2530458D1*
X2152036Y2528557D1*
X2153938Y2527584D1*
X2156812Y2526633D1*
X2161609D1*
X2164461Y2527584D1*
X2166384Y2528557D1*
X2168286Y2530458D1*
X2169258Y2532381D1*
Y2536206D1*
X2168286Y2538107D1*
X2166384Y2540031D1*
X2164461Y2540981D1*
X2153960Y2548130D2*
X2153009D1*
X2151086Y2549080D1*
X2150135Y2550031D1*
X2149185Y2551954D1*
Y2555779D1*
X2150135Y2557680D1*
X2151086Y2558631D1*
X2153009Y2559604D1*
X2154911D1*
X2156834Y2558631D1*
X2159686Y2556730D1*
X2169258Y2547157D1*
Y2560554D1*
X2153009Y2566730D2*
X2152036Y2568653D1*
X2149185Y2571527D1*
X2169258D1*
X773886Y638859D2*
X772935Y640761D1*
X771012Y642684D1*
X769111Y643635D1*
X765286D1*
X763363Y642684D1*
X761461Y640761D1*
X760489Y638859D1*
X759538Y635985D1*
Y631188D1*
X760489Y628336D1*
X761461Y626413D1*
X763363Y624511D1*
X765286Y623539D1*
X769111D1*
X771012Y624511D1*
X772935Y626413D1*
X773886Y628336D1*
X781034Y638837D2*
Y639788D1*
X781985Y641711D1*
X782936Y642662D1*
X784859Y643612D1*
X788684D1*
X790585Y642662D1*
X791536Y641711D1*
X792508Y639788D1*
Y637887D1*
X791536Y635963D1*
X789634Y633111D1*
X780062Y623539D1*
X793459D1*
X800607Y638837D2*
Y639788D1*
X801558Y641711D1*
X802509Y642662D1*
X804432Y643612D1*
X808257D1*
X810158Y642662D1*
X811109Y641711D1*
X812081Y639788D1*
Y637887D1*
X811109Y635963D1*
X809207Y633111D1*
X799635Y623539D1*
X813032D1*
X1387003Y632563D2*
X1386052Y634464D1*
X1384129Y636387D1*
X1382227Y637338D1*
X1378403D1*
X1376479Y636387D1*
X1374578Y634464D1*
X1373605Y632563D1*
X1372655Y629689D1*
Y624891D1*
X1373605Y622039D1*
X1374578Y620116D1*
X1376479Y618215D1*
X1378403Y617242D1*
X1382227D1*
X1384129Y618215D1*
X1386052Y620116D1*
X1387003Y622039D1*
X1394151Y632541D2*
Y633491D1*
X1395102Y635415D1*
X1396052Y636365D1*
X1397976Y637316D1*
X1401800D1*
X1403702Y636365D1*
X1404652Y635415D1*
X1405625Y633491D1*
Y631590D1*
X1404652Y629667D1*
X1402751Y626815D1*
X1393178Y617242D1*
X1406576D1*
X1414675Y637316D2*
X1425176D1*
X1419450Y629667D1*
X1422324D1*
X1424225Y628716D1*
X1425176Y627765D1*
X1426149Y624891D1*
Y622990D1*
X1425176Y620116D1*
X1423275Y618193D1*
X1420401Y617242D1*
X1417527D1*
X1414675Y618193D1*
X1413724Y619165D1*
X1412751Y621067D1*
X1252105Y637669D2*
X1251154Y639570D1*
X1249231Y641494D1*
X1247330Y642444D1*
X1243505D1*
X1241582Y641494D1*
X1239680Y639570D1*
X1238708Y637669D1*
X1237757Y634795D1*
Y629998D1*
X1238708Y627146D1*
X1239680Y625222D1*
X1241582Y623321D1*
X1243505Y622348D1*
X1247330D1*
X1249231Y623321D1*
X1251154Y625222D1*
X1252105Y627146D1*
X1259253Y637647D2*
Y638598D1*
X1260204Y640521D1*
X1261155Y641472D1*
X1263078Y642422D1*
X1266903D1*
X1268804Y641472D1*
X1269755Y640521D1*
X1270727Y638598D1*
Y636696D1*
X1269755Y634773D1*
X1267853Y631921D1*
X1258281Y622348D1*
X1271678D1*
X1287426D2*
Y642422D1*
X1277854Y629047D1*
X1292202D1*
X1825093Y1968802D2*
X1823191Y1967851D1*
X1821268Y1965928D1*
X1820317Y1964027D1*
Y1960202D1*
X1821268Y1958279D1*
X1823191Y1956377D1*
X1825093Y1955405D1*
X1827967Y1954454D1*
X1832764D1*
X1835616Y1955405D1*
X1837539Y1956377D1*
X1839441Y1958279D1*
X1840413Y1960202D1*
Y1964027D1*
X1839441Y1965928D1*
X1837539Y1967851D1*
X1835616Y1968802D1*
X1825115Y1975950D2*
X1824164D1*
X1822241Y1976901D1*
X1821290Y1977852D1*
X1820339Y1979775D1*
Y1983600D1*
X1821290Y1985501D1*
X1822241Y1986452D1*
X1824164Y1987424D1*
X1826065D1*
X1827989Y1986452D1*
X1830841Y1984550D1*
X1840413Y1974978D1*
Y1988375D1*
X1820339Y2006025D2*
Y1996474D1*
X1828939Y1995523D1*
X1827989Y1996474D1*
X1827016Y1999348D1*
Y2002200D1*
X1827989Y2005074D1*
X1829890Y2006997D1*
X1832764Y2007948D1*
X1834665D1*
X1837539Y2006997D1*
X1839463Y2005074D1*
X1840413Y2002200D1*
Y1999348D1*
X1839463Y1996474D1*
X1838490Y1995523D1*
X1836589Y1994551D1*
X1157244Y639514D2*
X1156293Y641415D1*
X1154370Y643339D1*
X1152468Y644289D1*
X1148644D1*
X1146720Y643339D1*
X1144819Y641415D1*
X1143846Y639514D1*
X1142896Y636640D1*
Y631843D1*
X1143846Y628991D1*
X1144819Y627067D1*
X1146720Y625166D1*
X1148644Y624193D1*
X1152468D1*
X1154370Y625166D1*
X1156293Y627067D1*
X1157244Y628991D1*
X1164392Y639492D2*
Y640443D1*
X1165343Y642366D1*
X1166293Y643317D1*
X1168217Y644267D1*
X1172041D1*
X1173943Y643317D1*
X1174893Y642366D1*
X1175866Y640443D1*
Y638541D1*
X1174893Y636618D1*
X1172992Y633766D1*
X1163419Y624193D1*
X1176817D1*
X1194466Y641415D2*
X1193516Y643317D1*
X1190642Y644267D1*
X1188740D1*
X1185866Y643317D1*
X1183943Y640443D1*
X1182992Y635667D1*
Y630892D1*
X1183943Y627067D1*
X1185866Y625144D1*
X1188740Y624193D1*
X1189691D1*
X1192543Y625144D1*
X1194466Y627067D1*
X1195417Y629941D1*
Y630892D1*
X1194466Y633766D1*
X1192543Y635667D1*
X1189691Y636618D1*
X1188740D1*
X1185866Y635667D1*
X1183943Y633766D1*
X1182992Y630892D1*
X1028176Y639514D2*
X1027225Y641415D1*
X1025302Y643339D1*
X1023401Y644289D1*
X1019576D1*
X1017653Y643339D1*
X1015751Y641415D1*
X1014779Y639514D1*
X1013828Y636640D1*
Y631843D1*
X1014779Y628991D1*
X1015751Y627067D1*
X1017653Y625166D1*
X1019576Y624193D1*
X1023401D1*
X1025302Y625166D1*
X1027225Y627067D1*
X1028176Y628991D1*
X1035324Y639492D2*
Y640443D1*
X1036275Y642366D1*
X1037226Y643317D1*
X1039149Y644267D1*
X1042974D1*
X1044875Y643317D1*
X1045826Y642366D1*
X1046798Y640443D1*
Y638541D1*
X1045826Y636618D1*
X1043924Y633766D1*
X1034352Y624193D1*
X1047749D1*
X1057749D2*
X1067322Y644267D1*
X1053925D1*
X604575Y2521656D2*
Y2501560D1*
X611274D1*
X614148Y2502533D1*
X616071Y2504434D1*
X617022Y2506358D1*
X617972Y2509210D1*
Y2514007D1*
X617022Y2516881D1*
X616071Y2518782D1*
X614148Y2520706D1*
X611274Y2521656D1*
X604575D1*
X624148Y2517809D2*
X626071Y2518782D1*
X628945Y2521634D1*
Y2501560D1*
X600275Y2421667D2*
Y2401571D1*
X606974D1*
X609848Y2402543D1*
X611771Y2404445D1*
X612722Y2406368D1*
X613672Y2409220D1*
Y2414017D1*
X612722Y2416891D1*
X611771Y2418793D1*
X609848Y2420716D1*
X606974Y2421667D1*
X600275D1*
X620821Y2416869D2*
Y2417820D1*
X621771Y2419743D1*
X622722Y2420694D1*
X624645Y2421645D1*
X628470D1*
X630371Y2420694D1*
X631322Y2419743D1*
X632295Y2417820D1*
Y2415919D1*
X631322Y2413995D1*
X629421Y2411143D1*
X619848Y2401571D1*
X633245D1*
X638162Y2727946D2*
X625716D1*
Y2707850D1*
Y2718373D2*
X633365D1*
X644338Y2724099D2*
X646261Y2725072D1*
X649135Y2727924D1*
Y2707850D1*
X483616Y2663660D2*
Y2648361D1*
X482666Y2645487D1*
X481693Y2644536D1*
X479792Y2643564D1*
X477868D1*
X475967Y2644536D1*
X475016Y2645487D1*
X474044Y2648361D1*
Y2650262D1*
X489792Y2659813D2*
X491715Y2660786D1*
X494589Y2663637D1*
Y2643564D1*
X613810Y2156140D2*
Y2140841D1*
X612859Y2137967D1*
X611886Y2137017D1*
X609985Y2136044D1*
X608062D1*
X606160Y2137017D1*
X605210Y2137967D1*
X604237Y2140841D1*
Y2142743D1*
X620958Y2151342D2*
Y2152293D1*
X621909Y2154216D1*
X622859Y2155167D1*
X624783Y2156118D1*
X628607D1*
X630509Y2155167D1*
X631459Y2154216D1*
X632432Y2152293D1*
Y2150392D1*
X631459Y2148468D1*
X629558Y2145617D1*
X619985Y2136044D1*
X633383D1*
X494454Y2022872D2*
X493481Y2024796D1*
X490629Y2027670D1*
X510703D1*
X490629Y2039593D2*
X491580Y2036719D1*
X494454Y2034796D1*
X499229Y2033845D1*
X502103D1*
X506879Y2034796D1*
X509753Y2036719D1*
X510703Y2039593D1*
Y2041495D1*
X509753Y2044369D1*
X506879Y2046270D1*
X502103Y2047243D1*
X499229D1*
X494454Y2046270D1*
X491580Y2044369D1*
X490629Y2041495D1*
Y2039593D1*
X494454Y2046270D2*
X506879Y2034796D1*
X494454Y2053418D2*
X493481Y2055342D1*
X490629Y2058216D1*
X510703D1*
X494454Y2064391D2*
X493481Y2066315D1*
X490629Y2069189D1*
X510703D1*
X490629Y2080140D2*
X491580Y2077288D1*
X493481Y2076315D1*
X495405D1*
X497306Y2077288D1*
X498279Y2079189D1*
X499229Y2083014D1*
X500180Y2085888D1*
X502103Y2087789D1*
X504005Y2088740D1*
X506879D1*
X508780Y2087789D1*
X509753Y2086838D1*
X510703Y2083964D1*
Y2080140D1*
X509753Y2077288D1*
X508780Y2076315D1*
X506879Y2075364D1*
X504005D1*
X502103Y2076315D1*
X500180Y2078238D1*
X499229Y2081090D1*
X498279Y2084915D1*
X497306Y2086838D1*
X495405Y2087789D1*
X493481D1*
X491580Y2086838D1*
X490629Y2083964D1*
Y2080140D1*
X494454Y2094915D2*
X493481Y2096839D1*
X490629Y2099713D1*
X510703D1*
X497306Y2118335D2*
X500180Y2117362D1*
X502103Y2115461D1*
X503054Y2112587D1*
Y2111637D1*
X502103Y2108762D1*
X500180Y2106861D1*
X497306Y2105888D1*
X496355D1*
X493481Y2106861D1*
X491580Y2108762D1*
X490629Y2111637D1*
Y2112587D1*
X491580Y2115461D1*
X493481Y2117362D1*
X497306Y2118335D1*
X502103D1*
X506879Y2117362D1*
X509753Y2115461D1*
X510703Y2112587D1*
Y2110686D1*
X509753Y2107812D1*
X507829Y2106861D1*
X490629Y2126434D2*
Y2136935D1*
X498279Y2131210D1*
Y2134084D1*
X499229Y2135985D1*
X500180Y2136935D1*
X503054Y2137908D1*
X504955D1*
X507829Y2136935D1*
X509753Y2135034D1*
X510703Y2132160D1*
Y2129286D1*
X509753Y2126434D1*
X508780Y2125484D1*
X506879Y2124511D1*
X500666Y2144084D2*
Y2155138D1*
X490629Y2167062D2*
X491580Y2164188D1*
X494454Y2162264D1*
X499229Y2161314D1*
X502103D1*
X506879Y2162264D1*
X509753Y2164188D1*
X510703Y2167062D1*
Y2168963D1*
X509753Y2171837D1*
X506879Y2173738D1*
X502103Y2174711D1*
X499229D1*
X494454Y2173738D1*
X491580Y2171837D1*
X490629Y2168963D1*
Y2167062D1*
X494454Y2173738D2*
X506879Y2162264D1*
X490629Y2186635D2*
X491580Y2183761D1*
X494454Y2181837D1*
X499229Y2180887D1*
X502103D1*
X506879Y2181837D1*
X509753Y2183761D1*
X510703Y2186635D1*
Y2188536D1*
X509753Y2191410D1*
X506879Y2193311D1*
X502103Y2194284D1*
X499229D1*
X494454Y2193311D1*
X491580Y2191410D1*
X490629Y2188536D1*
Y2186635D1*
X494454Y2193311D2*
X506879Y2181837D1*
X490629Y2206208D2*
X491580Y2203334D1*
X494454Y2201410D1*
X499229Y2200460D1*
X502103D1*
X506879Y2201410D1*
X509753Y2203334D1*
X510703Y2206208D1*
Y2208109D1*
X509753Y2210983D1*
X506879Y2212884D1*
X502103Y2213857D1*
X499229D1*
X494454Y2212884D1*
X491580Y2210983D1*
X490629Y2208109D1*
Y2206208D1*
X494454Y2212884D2*
X506879Y2201410D1*
X494454Y2220033D2*
X493481Y2221956D1*
X490629Y2224830D1*
X510703D1*
X490607Y2231006D2*
X510703D1*
Y2242480D1*
X490607Y2261102D2*
Y2248655D1*
X510703D1*
X500180D2*
Y2256305D1*
X1848231Y2882382D2*
Y2867083D1*
X1847280Y2864209D1*
X1846308Y2863258D1*
X1844406Y2862286D1*
X1842483D1*
X1840582Y2863258D1*
X1839631Y2864209D1*
X1838658Y2867083D1*
Y2868984D1*
X1856330Y2882360D2*
X1866831D1*
X1861105Y2874710D1*
X1863979D1*
X1865881Y2873760D1*
X1866831Y2872809D1*
X1867804Y2869935D1*
Y2868034D1*
X1866831Y2865160D1*
X1864930Y2863236D1*
X1862056Y2862286D1*
X1859182D1*
X1856330Y2863236D1*
X1855379Y2864209D1*
X1854407Y2866110D1*
X1725343Y2269032D2*
Y2289128D1*
X1717694Y2269032D1*
X1710044Y2289128D1*
Y2269032D1*
X1731519Y2289128D2*
X1732469Y2288178D1*
X1733442Y2289128D1*
X1732469Y2290101D1*
X1731519Y2289128D1*
X1732469Y2282430D2*
Y2269032D1*
X1739618Y2282430D2*
Y2269032D1*
Y2276682D2*
X1740590Y2279556D1*
X1742492Y2281479D1*
X1744415Y2282430D1*
X1747289D1*
X1764961Y2279556D2*
X1763038Y2281479D1*
X1761114Y2282430D1*
X1758262D1*
X1756339Y2281479D1*
X1754438Y2279556D1*
X1753465Y2276682D1*
Y2274781D1*
X1754438Y2271906D1*
X1756339Y2270005D1*
X1758262Y2269032D1*
X1761114D1*
X1763038Y2270005D1*
X1764961Y2271906D1*
X1775912Y2282430D2*
X1774011Y2281479D1*
X1772087Y2279556D1*
X1771137Y2276682D1*
Y2274781D1*
X1772087Y2271906D1*
X1774011Y2270005D1*
X1775912Y2269032D1*
X1778786D1*
X1780709Y2270005D1*
X1782611Y2271906D1*
X1783583Y2274781D1*
Y2276682D1*
X1782611Y2279556D1*
X1780709Y2281479D1*
X1778786Y2282430D1*
X1775912D1*
X1822597Y2286254D2*
X1820695Y2288178D1*
X1817821Y2289128D1*
X1813997D1*
X1811123Y2288178D1*
X1809199Y2286254D1*
Y2284353D1*
X1810172Y2282430D1*
X1811123Y2281479D1*
X1813024Y2280529D1*
X1818772Y2278605D1*
X1820695Y2277655D1*
X1821646Y2276682D1*
X1822597Y2274781D1*
Y2271906D1*
X1820695Y2270005D1*
X1817821Y2269032D1*
X1813997D1*
X1811123Y2270005D1*
X1809199Y2271906D1*
X1828772Y2289128D2*
Y2269032D1*
X1835471D1*
X1838345Y2270005D1*
X1840268Y2271906D1*
X1841219Y2273830D1*
X1842170Y2276682D1*
Y2281479D1*
X1841219Y2284353D1*
X1840268Y2286254D1*
X1838345Y2288178D1*
X1835471Y2289128D1*
X1828772D1*
X1882134Y2284353D2*
X1881183Y2286254D1*
X1879260Y2288178D1*
X1877359Y2289128D1*
X1873534D1*
X1871610Y2288178D1*
X1869709Y2286254D1*
X1868736Y2284353D1*
X1867786Y2281479D1*
Y2276682D1*
X1868736Y2273830D1*
X1869709Y2271906D1*
X1871610Y2270005D1*
X1873534Y2269032D1*
X1877359D1*
X1879260Y2270005D1*
X1881183Y2271906D1*
X1882134Y2273830D1*
X1899783Y2282430D2*
Y2269032D1*
Y2279556D2*
X1897882Y2281479D1*
X1895959Y2282430D1*
X1893107D1*
X1891184Y2281479D1*
X1889282Y2279556D1*
X1888309Y2276682D1*
Y2274781D1*
X1889282Y2271906D1*
X1891184Y2270005D1*
X1893107Y2269032D1*
X1895959D1*
X1897882Y2270005D1*
X1899783Y2271906D1*
X1905959Y2282430D2*
Y2269032D1*
Y2276682D2*
X1906932Y2279556D1*
X1908833Y2281479D1*
X1910757Y2282430D1*
X1913631D1*
X1931280Y2289128D2*
Y2269032D1*
Y2279556D2*
X1929379Y2281479D1*
X1927456Y2282430D1*
X1924582D1*
X1922680Y2281479D1*
X1920757Y2279556D1*
X1919806Y2276682D1*
Y2274781D1*
X1920757Y2271906D1*
X1922680Y2270005D1*
X1924582Y2269032D1*
X1927456D1*
X1929379Y2270005D1*
X1931280Y2271906D1*
X1970294Y2286254D2*
X1968392Y2288178D1*
X1965518Y2289128D1*
X1961694D1*
X1958820Y2288178D1*
X1956896Y2286254D1*
Y2284353D1*
X1957869Y2282430D1*
X1958820Y2281479D1*
X1960721Y2280529D1*
X1966469Y2278605D1*
X1968392Y2277655D1*
X1969343Y2276682D1*
X1970294Y2274781D1*
Y2271906D1*
X1968392Y2270005D1*
X1965518Y2269032D1*
X1961694D1*
X1958820Y2270005D1*
X1956896Y2271906D1*
X1976469Y2289128D2*
Y2269032D1*
X1987420Y2282430D2*
X1985519Y2281479D1*
X1983596Y2279556D1*
X1982645Y2276682D1*
Y2274781D1*
X1983596Y2271906D1*
X1985519Y2270005D1*
X1987420Y2269032D1*
X1990294D1*
X1992218Y2270005D1*
X1994119Y2271906D1*
X1995092Y2274781D1*
Y2276682D1*
X1994119Y2279556D1*
X1992218Y2281479D1*
X1990294Y2282430D1*
X1987420D1*
X2004141Y2289128D2*
Y2272857D1*
X2005092Y2270005D1*
X2007015Y2269032D1*
X2008917D1*
X2001267Y2282430D2*
X2007966D1*
X1156976Y1817990D2*
Y1802692D1*
X1156026Y1799818D1*
X1155053Y1798867D1*
X1153152Y1797894D1*
X1151228D1*
X1149327Y1798867D1*
X1148376Y1799818D1*
X1147403Y1802692D1*
Y1804593D1*
X1172725Y1797894D2*
Y1817968D1*
X1163152Y1804593D1*
X1177500D1*
X2838701Y2666740D2*
Y2651441D1*
X2837750Y2648567D1*
X2836777Y2647616D1*
X2834876Y2646644D1*
X2832953D1*
X2831052Y2647616D1*
X2830101Y2648567D1*
X2829128Y2651441D1*
Y2653342D1*
X2856350Y2666717D2*
X2846800D1*
X2845849Y2658118D1*
X2846800Y2659068D1*
X2849674Y2660041D1*
X2852526D1*
X2855400Y2659068D1*
X2857323Y2657167D1*
X2858274Y2654293D1*
Y2652392D1*
X2857323Y2649518D1*
X2855400Y2647594D1*
X2852526Y2646644D1*
X2849674D1*
X2846800Y2647594D1*
X2845849Y2648567D1*
X2844877Y2650468D1*
X2939187Y2666740D2*
Y2651441D1*
X2938237Y2648567D1*
X2937264Y2647616D1*
X2935363Y2646644D1*
X2933439D1*
X2931538Y2647616D1*
X2930587Y2648567D1*
X2929615Y2651441D1*
Y2653342D1*
X2956837Y2663866D2*
X2955886Y2665767D1*
X2953012Y2666717D1*
X2951111D1*
X2948237Y2665767D1*
X2946314Y2662893D1*
X2945363Y2658118D1*
Y2653342D1*
X2946314Y2649518D1*
X2948237Y2647594D1*
X2951111Y2646644D1*
X2952062D1*
X2954913Y2647594D1*
X2956837Y2649518D1*
X2957787Y2652392D1*
Y2653342D1*
X2956837Y2656216D1*
X2954913Y2658118D1*
X2952062Y2659068D1*
X2951111D1*
X2948237Y2658118D1*
X2946314Y2656216D1*
X2945363Y2653342D1*
X1760750Y1465946D2*
Y1445850D1*
X1772224D1*
X1778400Y1462099D2*
X1780323Y1463072D1*
X1783197Y1465924D1*
Y1445850D1*
X2190487Y2447163D2*
Y2427067D1*
X2201961D1*
X2209110Y2442366D2*
Y2443317D1*
X2210060Y2445240D1*
X2211011Y2446191D1*
X2212934Y2447141D1*
X2216759D1*
X2218660Y2446191D1*
X2219611Y2445240D1*
X2220584Y2443317D1*
Y2441415D1*
X2219611Y2439492D1*
X2217710Y2436640D1*
X2208137Y2427067D1*
X2221534D1*
X1320396Y2047410D2*
X1328996D1*
X1331870Y2048383D1*
X1332843Y2049334D1*
X1333793Y2051235D1*
Y2053158D1*
X1332843Y2055060D1*
X1331870Y2056033D1*
X1328996Y2056983D1*
X1320396D1*
Y2036887D1*
X1327095Y2047410D2*
X1333793Y2036887D1*
X1352394Y2056983D2*
X1339969D1*
Y2036887D1*
X1352394D1*
X1339969Y2047410D2*
X1347618D1*
X1371967Y2054109D2*
X1370065Y2056033D1*
X1367191Y2056983D1*
X1363367D1*
X1360493Y2056033D1*
X1358569Y2054109D1*
Y2052208D1*
X1359542Y2050284D1*
X1360493Y2049334D1*
X1362394Y2048383D1*
X1368142Y2046460D1*
X1370065Y2045509D1*
X1371016Y2044536D1*
X1371967Y2042635D1*
Y2039761D1*
X1370065Y2037860D1*
X1367191Y2036887D1*
X1363367D1*
X1360493Y2037860D1*
X1358569Y2039761D1*
X1390567Y2056983D2*
X1378142D1*
Y2036887D1*
X1390567D1*
X1378142Y2047410D2*
X1385792D1*
X1403441Y2056983D2*
Y2036887D1*
X1396743Y2056983D2*
X1410140D1*
X803282Y1959936D2*
X811904D1*
X814756Y1960887D1*
X815728Y1961860D1*
X816679Y1963761D1*
Y1966635D1*
X815728Y1968536D1*
X814756Y1969509D1*
X811904Y1970460D1*
X803282D1*
Y1950364D1*
X828603Y1970460D2*
X826679Y1969509D1*
X824778Y1967586D1*
X823805Y1965684D1*
X822855Y1962810D1*
Y1958013D1*
X823805Y1955161D1*
X824778Y1953238D1*
X826679Y1951336D1*
X828603Y1950364D1*
X832427D1*
X834329Y1951336D1*
X836252Y1953238D1*
X837203Y1955161D1*
X838153Y1958013D1*
Y1962810D1*
X837203Y1965684D1*
X836252Y1967586D1*
X834329Y1969509D1*
X832427Y1970460D1*
X828603D1*
X844329D2*
X849126Y1950364D1*
X853902Y1970460D1*
X858677Y1950364D1*
X863474Y1970460D1*
X882075D2*
X869650D1*
Y1950364D1*
X882075D1*
X869650Y1960887D2*
X877299D1*
X888250D2*
X896850D1*
X899724Y1961860D1*
X900697Y1962810D1*
X901648Y1964711D1*
Y1966635D1*
X900697Y1968536D1*
X899724Y1969509D1*
X896850Y1970460D1*
X888250D1*
Y1950364D1*
X894949Y1960887D2*
X901648Y1950364D1*
X686080Y1970460D2*
X673633D1*
Y1950364D1*
Y1960887D2*
X681283D1*
X692256Y1970460D2*
Y1956112D1*
X693206Y1953238D1*
X695130Y1951336D1*
X698004Y1950364D1*
X699905D1*
X702779Y1951336D1*
X704702Y1953238D1*
X705653Y1956112D1*
Y1970460D1*
X725226Y1967586D2*
X723325Y1969509D1*
X720451Y1970460D1*
X716626D1*
X713752Y1969509D1*
X711829Y1967586D1*
Y1965684D1*
X712802Y1963761D1*
X713752Y1962810D1*
X715653Y1961860D1*
X721401Y1959936D1*
X723325Y1958986D1*
X724275Y1958013D1*
X725226Y1956112D1*
Y1953238D1*
X723325Y1951336D1*
X720451Y1950364D1*
X716626D1*
X713752Y1951336D1*
X711829Y1953238D1*
X743826Y1970460D2*
X731402D1*
Y1950364D1*
X743826D1*
X731402Y1960887D2*
X739051D1*
X1104326Y1970460D2*
Y1950364D1*
X1097627Y1970460D2*
X1111024D1*
X1117200D2*
X1130597Y1950364D1*
Y1970460D2*
X1117200Y1950364D1*
X1136773Y1970460D2*
Y1950364D1*
X1143472D1*
X1146346Y1951336D1*
X1148269Y1953238D1*
X1149220Y1955161D1*
X1150170Y1958013D1*
Y1962810D1*
X1149220Y1965684D1*
X1148269Y1967586D1*
X1146346Y1969509D1*
X1143472Y1970460D1*
X1136773D1*
X1162094Y1970437D2*
X1159220Y1969487D1*
X1157297Y1966613D1*
X1156346Y1961837D1*
Y1958963D1*
X1157297Y1954188D1*
X1159220Y1951314D1*
X1162094Y1950364D1*
X1163995D1*
X1166869Y1951314D1*
X1168771Y1954188D1*
X1169743Y1958963D1*
Y1961837D1*
X1168771Y1966613D1*
X1166869Y1969487D1*
X1163995Y1970437D1*
X1162094D1*
X1168771Y1966613D2*
X1157297Y1954188D1*
X966391Y1957762D2*
X974991D1*
X977865Y1958735D1*
X978838Y1959686D1*
X979788Y1961587D1*
Y1963510D1*
X978838Y1965411D1*
X977865Y1966384D1*
X974991Y1967335D1*
X966391D1*
Y1947239D1*
X973089Y1957762D2*
X979788Y1947239D1*
X985964Y1967335D2*
X999361Y1947239D1*
Y1967335D2*
X985964Y1947239D1*
X1005537Y1967335D2*
Y1947239D1*
X1012236D1*
X1015110Y1948212D1*
X1017033Y1950113D1*
X1017984Y1952036D1*
X1018934Y1954888D1*
Y1959686D1*
X1017984Y1962560D1*
X1017033Y1964461D1*
X1015110Y1966384D1*
X1012236Y1967335D1*
X1005537D1*
X1030858Y1967313D2*
X1027984Y1966362D1*
X1026061Y1963488D1*
X1025110Y1958713D1*
Y1955839D1*
X1026061Y1951063D1*
X1027984Y1948189D1*
X1030858Y1947239D1*
X1032759D1*
X1035633Y1948189D1*
X1037535Y1951063D1*
X1038507Y1955839D1*
Y1958713D1*
X1037535Y1963488D1*
X1035633Y1966362D1*
X1032759Y1967313D1*
X1030858D1*
X1037535Y1963488D2*
X1026061Y1951063D1*
X2598659Y798483D2*
Y778387D1*
X2610133D1*
X2628733Y798483D2*
X2616309D1*
Y778387D1*
X2628733D1*
X2616309Y788910D2*
X2623958D1*
X2634909Y798483D2*
Y778387D1*
X2641608D1*
X2644482Y779360D1*
X2646405Y781261D1*
X2647356Y783185D1*
X2648306Y786036D1*
Y790834D1*
X2647356Y793708D1*
X2646405Y795609D1*
X2644482Y797533D1*
X2641608Y798483D1*
X2634909D1*
X2656405Y798461D2*
X2666907D1*
X2661181Y790812D1*
X2664055D1*
X2665956Y789861D1*
X2666907Y788910D1*
X2667879Y786036D1*
Y784135D1*
X2666907Y781261D1*
X2665005Y779338D1*
X2662131Y778387D1*
X2659257D1*
X2656405Y779338D1*
X2655455Y780311D1*
X2654482Y782212D1*
X2274698Y785983D2*
Y765887D1*
X2286172D1*
X2304773Y785983D2*
X2292348D1*
Y765887D1*
X2304773D1*
X2292348Y776410D2*
X2299997D1*
X2310948Y785983D2*
Y765887D1*
X2317647D1*
X2320521Y766860D1*
X2322444Y768761D1*
X2323395Y770685D1*
X2324346Y773536D1*
Y778334D1*
X2323395Y781208D1*
X2322444Y783109D1*
X2320521Y785033D1*
X2317647Y785983D1*
X2310948D1*
X2331494Y781186D2*
Y782136D1*
X2332445Y784060D1*
X2333395Y785010D1*
X2335319Y785961D1*
X2339143D1*
X2341045Y785010D1*
X2341995Y784060D1*
X2342968Y782136D1*
Y780235D1*
X2341995Y778312D1*
X2340094Y775460D1*
X2330521Y765887D1*
X2343919D1*
X1942540Y785982D2*
Y765886D1*
X1954014D1*
X1972615Y785982D2*
X1960190D1*
Y765886D1*
X1972615D1*
X1960190Y776409D2*
X1967839D1*
X1978790Y785982D2*
Y765886D1*
X1985489D1*
X1988363Y766859D1*
X1990286Y768760D1*
X1991237Y770683D1*
X1992188Y773535D1*
Y778333D1*
X1991237Y781207D1*
X1990286Y783108D1*
X1988363Y785031D1*
X1985489Y785982D1*
X1978790D1*
X1998363Y782135D2*
X2000287Y783108D1*
X2003161Y785960D1*
Y765886D1*
X1604910Y785982D2*
Y765886D1*
X1616384D1*
X1634984Y785982D2*
X1622559D1*
Y765886D1*
X1634984D1*
X1622559Y776409D2*
X1630209D1*
X1641160Y785982D2*
Y765886D1*
X1647858D1*
X1650732Y766859D1*
X1652656Y768760D1*
X1653606Y770683D1*
X1654557Y773535D1*
Y778333D1*
X1653606Y781207D1*
X1652656Y783108D1*
X1650732Y785031D1*
X1647858Y785982D1*
X1641160D1*
X1666481Y785960D2*
X1663607Y785009D1*
X1661683Y782135D1*
X1660733Y777360D1*
Y774486D1*
X1661683Y769710D1*
X1663607Y766836D1*
X1666481Y765886D1*
X1668382D1*
X1671256Y766836D1*
X1673157Y769710D1*
X1674130Y774486D1*
Y777360D1*
X1673157Y782135D1*
X1671256Y785009D1*
X1668382Y785960D1*
X1666481D1*
X1673157Y782135D2*
X1661683Y769710D1*
X1779360Y2102032D2*
X1777459Y2103955D1*
X1774585Y2104906D1*
X1770761D1*
X1767886Y2103955D1*
X1765963Y2102032D1*
Y2100130D1*
X1766936Y2098207D1*
X1767886Y2097256D1*
X1769788Y2096306D1*
X1775536Y2094382D1*
X1777459Y2093432D1*
X1778410Y2092459D1*
X1779360Y2090558D1*
Y2087684D1*
X1777459Y2085782D1*
X1774585Y2084810D1*
X1770761D1*
X1767886Y2085782D1*
X1765963Y2087684D1*
X1785536Y2104906D2*
Y2084810D1*
X1792235D1*
X1795109Y2085782D1*
X1797032Y2087684D1*
X1797983Y2089607D1*
X1798933Y2092459D1*
Y2097256D1*
X1797983Y2100130D1*
X1797032Y2102032D1*
X1795109Y2103955D1*
X1792235Y2104906D1*
X1785536D1*
X1805109Y2081494D2*
X1823282D1*
X1843805Y2100130D2*
X1842855Y2102032D1*
X1840931Y2103955D1*
X1839030Y2104906D1*
X1835206D1*
X1833282Y2103955D1*
X1831381Y2102032D1*
X1830408Y2100130D1*
X1829458Y2097256D1*
Y2092459D1*
X1830408Y2089607D1*
X1831381Y2087684D1*
X1833282Y2085782D1*
X1835206Y2084810D1*
X1839030D1*
X1840931Y2085782D1*
X1842855Y2087684D1*
X1843805Y2089607D1*
X1849981Y2104906D2*
Y2084810D1*
X1856680D1*
X1859554Y2085782D1*
X1861477Y2087684D1*
X1862428Y2089607D1*
X1863379Y2092459D1*
Y2097256D1*
X1862428Y2100130D1*
X1861477Y2102032D1*
X1859554Y2103955D1*
X1856680Y2104906D1*
X1849981D1*
X1579341Y2102030D2*
X1577439Y2103954D1*
X1574565Y2104904D1*
X1570741D1*
X1567867Y2103954D1*
X1565943Y2102030D1*
Y2100129D1*
X1566916Y2098206D1*
X1567867Y2097255D1*
X1569768Y2096304D1*
X1575516Y2094381D1*
X1577439Y2093430D1*
X1578390Y2092458D1*
X1579341Y2090556D1*
Y2087682D1*
X1577439Y2085781D1*
X1574565Y2084808D1*
X1570741D1*
X1567867Y2085781D1*
X1565943Y2087682D1*
X1585516Y2104904D2*
Y2084808D1*
X1592215D1*
X1595089Y2085781D1*
X1597013Y2087682D1*
X1597963Y2089606D1*
X1598914Y2092458D1*
Y2097255D1*
X1597963Y2100129D1*
X1597013Y2102030D1*
X1595089Y2103954D1*
X1592215Y2104904D1*
X1585516D1*
X1605090Y2081492D2*
X1623262D1*
X1643786Y2100129D2*
X1642835Y2102030D1*
X1640912Y2103954D1*
X1639011Y2104904D1*
X1635186D1*
X1633262Y2103954D1*
X1631361Y2102030D1*
X1630388Y2100129D1*
X1629438Y2097255D1*
Y2092458D1*
X1630388Y2089606D1*
X1631361Y2087682D1*
X1633262Y2085781D1*
X1635186Y2084808D1*
X1639011D1*
X1640912Y2085781D1*
X1642835Y2087682D1*
X1643786Y2089606D1*
X1663359Y2102030D2*
X1661458Y2103954D1*
X1658584Y2104904D1*
X1654759D1*
X1651885Y2103954D1*
X1649961Y2102030D1*
Y2100129D1*
X1650934Y2098206D1*
X1651885Y2097255D1*
X1653786Y2096304D1*
X1659534Y2094381D1*
X1661458Y2093430D1*
X1662408Y2092458D1*
X1663359Y2090556D1*
Y2087682D1*
X1661458Y2085781D1*
X1658584Y2084808D1*
X1654759D1*
X1651885Y2085781D1*
X1649961Y2087682D1*
X1565943Y2110144D2*
X1669535D1*
X2021428Y2083021D2*
X2008982D1*
Y2062925D1*
Y2073449D2*
X2016631D1*
X2027604Y2083021D2*
Y2062925D1*
X2039078D1*
X2060575D2*
X2052903Y2083021D1*
X2045254Y2062925D1*
X2048128Y2069624D2*
X2057701D1*
X2080148Y2080147D2*
X2078246Y2082071D1*
X2075372Y2083021D1*
X2071548D1*
X2068674Y2082071D1*
X2066750Y2080147D1*
Y2078246D1*
X2067723Y2076323D1*
X2068674Y2075372D1*
X2070575Y2074421D1*
X2076323Y2072498D1*
X2078246Y2071547D1*
X2079197Y2070574D1*
X2080148Y2068673D1*
Y2065799D1*
X2078246Y2063898D1*
X2075372Y2062925D1*
X2071548D1*
X2068674Y2063898D1*
X2066750Y2065799D1*
X2086323Y2083021D2*
Y2062925D1*
X2099721Y2083021D2*
Y2062925D1*
X2086323Y2073449D2*
X2099721D1*
X2105896Y2059609D2*
X2124069D1*
X2144593Y2078246D2*
X2143642Y2080147D1*
X2141719Y2082071D1*
X2139817Y2083021D1*
X2135993D1*
X2134069Y2082071D1*
X2132168Y2080147D1*
X2131195Y2078246D1*
X2130245Y2075372D1*
Y2070574D1*
X2131195Y2067723D1*
X2132168Y2065799D1*
X2134069Y2063898D1*
X2135993Y2062925D1*
X2139817D1*
X2141719Y2063898D1*
X2143642Y2065799D1*
X2144593Y2067723D1*
X2164166Y2080147D2*
X2162264Y2082071D1*
X2159390Y2083021D1*
X2155566D1*
X2152692Y2082071D1*
X2150768Y2080147D1*
Y2078246D1*
X2151741Y2076323D1*
X2152692Y2075372D1*
X2154593Y2074421D1*
X2160341Y2072498D1*
X2162264Y2071547D1*
X2163215Y2070574D1*
X2164166Y2068673D1*
Y2065799D1*
X2162264Y2063898D1*
X2159390Y2062925D1*
X2155566D1*
X2152692Y2063898D1*
X2150768Y2065799D1*
X2008982Y2088261D2*
X2170341D1*
X2759708Y2748294D2*
X2768308D1*
X2771182Y2749266D1*
X2772155Y2750217D1*
X2773106Y2752118D1*
Y2754042D1*
X2772155Y2755943D1*
X2771182Y2756916D1*
X2768308Y2757866D1*
X2759708D1*
Y2737770D1*
X2766407Y2748294D2*
X2773106Y2737770D1*
X2779281Y2757866D2*
X2792679Y2737770D1*
Y2757866D2*
X2779281Y2737770D1*
X2798854Y2757866D2*
Y2737770D1*
X2805553D1*
X2808427Y2738743D1*
X2810351Y2740644D1*
X2811301Y2742568D1*
X2812252Y2745420D1*
Y2750217D1*
X2811301Y2753091D1*
X2810351Y2754992D1*
X2808427Y2756916D1*
X2805553Y2757866D1*
X2798854D1*
X2819400Y2753069D2*
Y2754020D1*
X2820351Y2755943D1*
X2821302Y2756894D1*
X2823225Y2757844D1*
X2827050D1*
X2828951Y2756894D1*
X2829901Y2755943D1*
X2830874Y2754020D1*
Y2752118D1*
X2829901Y2750195D1*
X2828000Y2747343D1*
X2818427Y2737770D1*
X2831825D1*
X2760158Y2839116D2*
Y2819020D1*
X2753459Y2839116D2*
X2766856D1*
X2773032D2*
X2786429Y2819020D1*
Y2839116D2*
X2773032Y2819020D1*
X2792605Y2839116D2*
Y2819020D1*
X2799304D1*
X2802178Y2819992D1*
X2804101Y2821894D1*
X2805052Y2823817D1*
X2806002Y2826669D1*
Y2831466D1*
X2805052Y2834340D1*
X2804101Y2836242D1*
X2802178Y2838165D1*
X2799304Y2839116D1*
X2792605D1*
X2813151Y2834318D2*
Y2835269D1*
X2814102Y2837192D1*
X2815052Y2838143D1*
X2816976Y2839094D1*
X2820800D1*
X2822701Y2838143D1*
X2823652Y2837192D1*
X2824625Y2835269D1*
Y2833368D1*
X2823652Y2831444D1*
X2821751Y2828592D1*
X2812178Y2819020D1*
X2825575D1*
X1769169Y1852131D2*
X1777769D1*
X1780643Y1853104D1*
X1781616Y1854055D1*
X1782567Y1855956D1*
Y1857879D1*
X1781616Y1859781D1*
X1780643Y1860754D1*
X1777769Y1861704D1*
X1769169D1*
Y1841608D1*
X1775868Y1852131D2*
X1782567Y1841608D1*
X1788742Y1857857D2*
X1790666Y1858830D1*
X1793540Y1861682D1*
Y1841608D1*
X1839869Y1853755D2*
X1848469D1*
X1851343Y1854728D1*
X1852316Y1855678D1*
X1853267Y1857579D1*
Y1859503D1*
X1852316Y1861404D1*
X1851343Y1862377D1*
X1848469Y1863328D1*
X1839869D1*
Y1843231D1*
X1846568Y1853755D2*
X1853267Y1843231D1*
X1860415Y1858530D2*
Y1859481D1*
X1861366Y1861404D1*
X1862316Y1862355D1*
X1864240Y1863305D1*
X1868064D1*
X1869966Y1862355D1*
X1870916Y1861404D1*
X1871889Y1859481D1*
Y1857579D1*
X1870916Y1855656D1*
X1869015Y1852804D1*
X1859442Y1843231D1*
X1872840D1*
X1614716Y1961696D2*
X1623316D1*
X1626190Y1962669D1*
X1627163Y1963619D1*
X1628113Y1965520D1*
Y1967444D1*
X1627163Y1969345D1*
X1626190Y1970318D1*
X1623316Y1971268D1*
X1614716D1*
Y1951172D1*
X1621414Y1961696D2*
X1628113Y1951172D1*
X1636212Y1971246D2*
X1646713D1*
X1640988Y1963597D1*
X1643862D1*
X1645763Y1962646D1*
X1646713Y1961696D1*
X1647686Y1958822D1*
Y1956920D1*
X1646713Y1954046D1*
X1644812Y1952123D1*
X1641938Y1951172D1*
X1639064D1*
X1636212Y1952123D1*
X1635262Y1953096D1*
X1634289Y1954997D1*
X1449622Y2144280D2*
X1458222D1*
X1461096Y2145252D1*
X1462069Y2146203D1*
X1463020Y2148104D1*
Y2150028D1*
X1462069Y2151929D1*
X1461096Y2152902D1*
X1458222Y2153852D1*
X1449622D1*
Y2133756D1*
X1456321Y2144280D2*
X1463020Y2133756D1*
X1478768D2*
Y2153830D1*
X1469195Y2140455D1*
X1483543D1*
X672372Y1878588D2*
X680972D1*
X683846Y1879561D1*
X684819Y1880512D1*
X685769Y1882413D1*
Y1884336D1*
X684819Y1886237D1*
X683846Y1887210D1*
X680972Y1888161D1*
X672372D1*
Y1868065D1*
X679071Y1878588D2*
X685769Y1868065D1*
X703419Y1888139D2*
X693868D1*
X692918Y1879539D1*
X693868Y1880489D1*
X696742Y1881462D1*
X699594D1*
X702468Y1880489D1*
X704392Y1878588D1*
X705342Y1875714D1*
Y1873813D1*
X704392Y1870939D1*
X702468Y1869015D1*
X699594Y1868065D1*
X696742D1*
X693868Y1869015D1*
X692918Y1869988D1*
X691945Y1871889D1*
X930643Y1881713D2*
X939243D1*
X942117Y1882686D1*
X943090Y1883636D1*
X944040Y1885537D1*
Y1887461D1*
X943090Y1889362D1*
X942117Y1890335D1*
X939243Y1891286D1*
X930643D1*
Y1871190D1*
X937342Y1881713D2*
X944040Y1871190D1*
X961690Y1888411D2*
X960739Y1890313D1*
X957865Y1891263D1*
X955964D1*
X953090Y1890313D1*
X951167Y1887439D1*
X950216Y1882663D1*
Y1877888D1*
X951167Y1874064D1*
X953090Y1872140D1*
X955964Y1871190D1*
X956915D1*
X959767Y1872140D1*
X961690Y1874064D1*
X962641Y1876938D1*
Y1877888D1*
X961690Y1880762D1*
X959767Y1882663D1*
X956915Y1883614D1*
X955964D1*
X953090Y1882663D1*
X951167Y1880762D1*
X950216Y1877888D1*
X1057487Y1881713D2*
X1066087D1*
X1068961Y1882686D1*
X1069934Y1883636D1*
X1070885Y1885537D1*
Y1887461D1*
X1069934Y1889362D1*
X1068961Y1890335D1*
X1066087Y1891286D1*
X1057487D1*
Y1871190D1*
X1064186Y1881713D2*
X1070885Y1871190D1*
X1080885D2*
X1090458Y1891263D1*
X1077061D1*
X799714Y1881713D2*
X808314D1*
X811188Y1882686D1*
X812160Y1883636D1*
X813111Y1885537D1*
Y1887461D1*
X812160Y1889362D1*
X811188Y1890335D1*
X808314Y1891286D1*
X799714D1*
Y1871190D1*
X806412Y1881713D2*
X813111Y1871190D1*
X824062Y1891263D2*
X821210Y1890313D1*
X820237Y1888411D1*
Y1886488D1*
X821210Y1884587D1*
X823111Y1883614D1*
X826936Y1882663D1*
X829810Y1881713D1*
X831711Y1879789D1*
X832662Y1877888D1*
Y1875014D1*
X831711Y1873113D1*
X830761Y1872140D1*
X827887Y1871190D1*
X824062D1*
X821210Y1872140D1*
X820237Y1873113D1*
X819287Y1875014D1*
Y1877888D1*
X820237Y1879789D1*
X822161Y1881713D1*
X825013Y1882663D1*
X828837Y1883614D1*
X830761Y1884587D1*
X831711Y1886488D1*
Y1888411D1*
X830761Y1890313D1*
X827887Y1891263D1*
X824062D1*
X536706Y1881214D2*
X545306D1*
X548180Y1882187D1*
X549152Y1883138D1*
X550103Y1885039D1*
Y1886962D1*
X549152Y1888863D1*
X548180Y1889836D1*
X545306Y1890787D1*
X536706D1*
Y1870691D1*
X543404Y1881214D2*
X550103Y1870691D1*
X568725Y1884088D2*
X567753Y1881214D1*
X565851Y1879291D1*
X562977Y1878340D1*
X562027D1*
X559153Y1879291D1*
X557251Y1881214D1*
X556279Y1884088D1*
Y1885039D1*
X557251Y1887913D1*
X559153Y1889814D1*
X562027Y1890765D1*
X562977D1*
X565851Y1889814D1*
X567753Y1887913D1*
X568725Y1884088D1*
Y1879291D1*
X567753Y1874515D1*
X565851Y1871641D1*
X562977Y1870691D1*
X561076D1*
X558202Y1871641D1*
X557251Y1873565D1*
X1950590Y2075170D2*
X1959190D1*
X1962064Y2076142D1*
X1963037Y2077093D1*
X1963987Y2078994D1*
Y2080918D1*
X1963037Y2082819D1*
X1962064Y2083792D1*
X1959190Y2084742D1*
X1950590D1*
Y2064646D1*
X1957289Y2075170D2*
X1963987Y2064646D1*
X1970163Y2080895D2*
X1972087Y2081868D1*
X1974961Y2084720D1*
Y2064646D1*
X1986884Y2084720D2*
X1984010Y2083769D1*
X1982087Y2080895D1*
X1981136Y2076120D1*
Y2073246D1*
X1982087Y2068471D1*
X1984010Y2065597D1*
X1986884Y2064646D1*
X1988786D1*
X1991660Y2065597D1*
X1993561Y2068471D1*
X1994534Y2073246D1*
Y2076120D1*
X1993561Y2080895D1*
X1991660Y2083769D1*
X1988786Y2084720D1*
X1986884D1*
X1993561Y2080895D2*
X1982087Y2068471D1*
X2454500Y1142822D2*
X2463100D1*
X2465974Y1143794D1*
X2466947Y1144745D1*
X2467898Y1146646D1*
Y1148570D1*
X2466947Y1150471D1*
X2465974Y1151444D1*
X2463100Y1152394D1*
X2454500D1*
Y1132298D1*
X2461199Y1142822D2*
X2467898Y1132298D1*
X2474073Y1148548D2*
X2475997Y1149520D1*
X2478871Y1152372D1*
Y1132298D1*
X2485046Y1148548D2*
X2486970Y1149520D1*
X2489844Y1152372D1*
Y1132298D1*
X870770Y2050445D2*
X879370D1*
X882244Y2051418D1*
X883217Y2052368D1*
X884167Y2054270D1*
Y2056193D1*
X883217Y2058094D1*
X882244Y2059067D1*
X879370Y2060018D1*
X870770D1*
Y2039922D1*
X877469Y2050445D2*
X884167Y2039922D1*
X890343Y2056171D2*
X892266Y2057144D1*
X895140Y2059996D1*
Y2039922D1*
X902289Y2055220D2*
Y2056171D1*
X903239Y2058094D1*
X904190Y2059045D1*
X906113Y2059996D1*
X909938D1*
X911839Y2059045D1*
X912790Y2058094D1*
X913763Y2056171D1*
Y2054270D1*
X912790Y2052346D1*
X910889Y2049494D1*
X901316Y2039922D1*
X914713D1*
X727035Y2050445D2*
X735635D1*
X738509Y2051418D1*
X739482Y2052368D1*
X740432Y2054270D1*
Y2056193D1*
X739482Y2058094D1*
X738509Y2059067D1*
X735635Y2060018D1*
X727035D1*
Y2039922D1*
X733734Y2050445D2*
X740432Y2039922D1*
X746608Y2056171D2*
X748531Y2057144D1*
X751405Y2059996D1*
Y2039922D1*
X759505Y2059996D2*
X770006D1*
X764280Y2052346D1*
X767154D1*
X769055Y2051396D1*
X770006Y2050445D1*
X770979Y2047571D1*
Y2045670D1*
X770006Y2042796D1*
X768104Y2040872D1*
X765230Y2039922D1*
X762356D1*
X759505Y2040872D1*
X758554Y2041845D1*
X757581Y2043746D1*
X914947Y2423188D2*
X923547D1*
X926421Y2424161D1*
X927394Y2425111D1*
X928344Y2427013D1*
Y2428936D1*
X927394Y2430837D1*
X926421Y2431810D1*
X923547Y2432761D1*
X914947D1*
Y2412665D1*
X921646Y2423188D2*
X928344Y2412665D1*
X934520Y2428914D2*
X936443Y2429887D1*
X939317Y2432738D1*
Y2412665D1*
X955066D2*
Y2432738D1*
X945493Y2419363D1*
X959841D1*
X1151990Y2050445D2*
X1160590D1*
X1163464Y2051418D1*
X1164437Y2052368D1*
X1165388Y2054270D1*
Y2056193D1*
X1164437Y2058094D1*
X1163464Y2059067D1*
X1160590Y2060018D1*
X1151990D1*
Y2039922D1*
X1158689Y2050445D2*
X1165388Y2039922D1*
X1171563Y2056171D2*
X1173487Y2057144D1*
X1176361Y2059996D1*
Y2039922D1*
X1194011Y2059996D2*
X1184460D1*
X1183509Y2051396D1*
X1184460Y2052346D1*
X1187334Y2053319D1*
X1190186D1*
X1193060Y2052346D1*
X1194983Y2050445D1*
X1195934Y2047571D1*
Y2045670D1*
X1194983Y2042796D1*
X1193060Y2040872D1*
X1190186Y2039922D1*
X1187334D1*
X1184460Y2040872D1*
X1183509Y2041845D1*
X1182537Y2043746D1*
X2391319Y1142642D2*
X2399919D1*
X2402793Y1143615D1*
X2403766Y1144565D1*
X2404717Y1146467D1*
Y1148390D1*
X2403766Y1150291D1*
X2402793Y1151264D1*
X2399919Y1152215D1*
X2391319D1*
Y1132119D1*
X2398018Y1142642D2*
X2404717Y1132119D1*
X2410892Y1148368D2*
X2412816Y1149341D1*
X2415690Y1152193D1*
Y1132119D1*
X2433339Y1149341D2*
X2432389Y1151242D1*
X2429515Y1152193D1*
X2427613D1*
X2424739Y1151242D1*
X2422816Y1148368D1*
X2421865Y1143593D1*
Y1138817D1*
X2422816Y1134993D1*
X2424739Y1133069D1*
X2427613Y1132119D1*
X2428564D1*
X2431416Y1133069D1*
X2433339Y1134993D1*
X2434290Y1137867D1*
Y1138817D1*
X2433339Y1141691D1*
X2431416Y1143593D1*
X2428564Y1144543D1*
X2427613D1*
X2424739Y1143593D1*
X2422816Y1141691D1*
X2421865Y1138817D1*
X1515176Y1857015D2*
Y1865615D1*
X1514203Y1868489D1*
X1513253Y1869462D1*
X1511351Y1870413D1*
X1509428D1*
X1507527Y1869462D1*
X1506554Y1868489D1*
X1505603Y1865615D1*
Y1857015D1*
X1525699D1*
X1515176Y1863714D2*
X1525699Y1870413D1*
X1509450Y1876588D2*
X1508477Y1878512D1*
X1505626Y1881386D1*
X1525699D1*
Y1891386D2*
X1505626Y1900959D1*
Y1887562D1*
X1017641Y2050445D2*
X1026241D1*
X1029115Y2051418D1*
X1030087Y2052368D1*
X1031038Y2054270D1*
Y2056193D1*
X1030087Y2058094D1*
X1029115Y2059067D1*
X1026241Y2060018D1*
X1017641D1*
Y2039922D1*
X1024339Y2050445D2*
X1031038Y2039922D1*
X1037214Y2056171D2*
X1039137Y2057144D1*
X1042011Y2059996D1*
Y2039922D1*
X1052962Y2059996D2*
X1050110Y2059045D1*
X1049137Y2057144D1*
Y2055220D1*
X1050110Y2053319D1*
X1052011Y2052346D1*
X1055836Y2051396D1*
X1058710Y2050445D1*
X1060611Y2048522D1*
X1061562Y2046620D1*
Y2043746D1*
X1060611Y2041845D1*
X1059661Y2040872D1*
X1056787Y2039922D1*
X1052962D1*
X1050110Y2040872D1*
X1049137Y2041845D1*
X1048187Y2043746D1*
Y2046620D1*
X1049137Y2048522D1*
X1051061Y2050445D1*
X1053913Y2051396D1*
X1057737Y2052346D1*
X1059661Y2053319D1*
X1060611Y2055220D1*
Y2057144D1*
X1059661Y2059045D1*
X1056787Y2059996D1*
X1052962D1*
X2513749Y884729D2*
X2522349D1*
X2525223Y885701D1*
X2526196Y886652D1*
X2527147Y888553D1*
Y890477D1*
X2526196Y892378D1*
X2525223Y893351D1*
X2522349Y894301D1*
X2513749D1*
Y874205D1*
X2520448Y884729D2*
X2527147Y874205D1*
X2533322Y890454D2*
X2535246Y891427D1*
X2538120Y894279D1*
Y874205D1*
X2556742Y887603D2*
X2555769Y884729D1*
X2553868Y882805D1*
X2550994Y881855D1*
X2550043D1*
X2547169Y882805D1*
X2545268Y884729D1*
X2544295Y887603D1*
Y888553D1*
X2545268Y891427D1*
X2547169Y893329D1*
X2550043Y894279D1*
X2550994D1*
X2553868Y893329D1*
X2555769Y891427D1*
X2556742Y887603D1*
Y882805D1*
X2555769Y878030D1*
X2553868Y875156D1*
X2550994Y874205D1*
X2549093D1*
X2546219Y875156D1*
X2545268Y877079D1*
X2179763Y872229D2*
X2188363D1*
X2191237Y873201D1*
X2192209Y874152D1*
X2193160Y876053D1*
Y877977D1*
X2192209Y879878D1*
X2191237Y880851D1*
X2188363Y881801D1*
X2179763D1*
Y861705D1*
X2186461Y872229D2*
X2193160Y861705D1*
X2200308Y877004D2*
Y877954D1*
X2201259Y879878D1*
X2202210Y880829D1*
X2204133Y881779D1*
X2207958D1*
X2209859Y880829D1*
X2210810Y879878D1*
X2211782Y877954D1*
Y876053D1*
X2210810Y874130D1*
X2208908Y871278D1*
X2199336Y861705D1*
X2212733D1*
X2224657Y881779D2*
X2221783Y880829D1*
X2219859Y877954D1*
X2218909Y873179D1*
Y870305D1*
X2219859Y865530D1*
X2221783Y862656D1*
X2224657Y861705D1*
X2226558D1*
X2229432Y862656D1*
X2231333Y865530D1*
X2232306Y870305D1*
Y873179D1*
X2231333Y877954D1*
X2229432Y880829D1*
X2226558Y881779D1*
X2224657D1*
X2231333Y877954D2*
X2219859Y865530D1*
X1857023Y872230D2*
X1865623D1*
X1868497Y873203D1*
X1869470Y874153D1*
X1870421Y876055D1*
Y877978D1*
X1869470Y879879D1*
X1868497Y880852D1*
X1865623Y881803D1*
X1857023D1*
Y861707D1*
X1863722Y872230D2*
X1870421Y861707D1*
X1877569Y877005D2*
Y877956D1*
X1878520Y879879D1*
X1879470Y880830D1*
X1881394Y881780D1*
X1885218D1*
X1887120Y880830D1*
X1888070Y879879D1*
X1889043Y877956D1*
Y876055D1*
X1888070Y874131D1*
X1886169Y871279D1*
X1876596Y861707D1*
X1889994D1*
X1896169Y877956D2*
X1898093Y878929D1*
X1900967Y881780D1*
Y861707D1*
X1521328Y878474D2*
X1529928D1*
X1532802Y879447D1*
X1533775Y880397D1*
X1534726Y882299D1*
Y884222D1*
X1533775Y886123D1*
X1532802Y887096D1*
X1529928Y888047D1*
X1521328D1*
Y867951D1*
X1528027Y878474D2*
X1534726Y867951D1*
X1541874Y883249D2*
Y884200D1*
X1542825Y886123D1*
X1543775Y887074D1*
X1545699Y888025D1*
X1549523D1*
X1551425Y887074D1*
X1552375Y886123D1*
X1553348Y884200D1*
Y882299D1*
X1552375Y880375D1*
X1550474Y877523D1*
X1540901Y867951D1*
X1554299D1*
X1561447Y883249D2*
Y884200D1*
X1562398Y886123D1*
X1563348Y887074D1*
X1565272Y888025D1*
X1569096D1*
X1570998Y887074D1*
X1571948Y886123D1*
X1572921Y884200D1*
Y882299D1*
X1571948Y880375D1*
X1570047Y877523D1*
X1560474Y867951D1*
X1573872D1*
X1886742Y2240607D2*
X1895342D1*
X1898216Y2241579D1*
X1899188Y2242530D1*
X1900139Y2244431D1*
Y2246355D1*
X1899188Y2248256D1*
X1898216Y2249229D1*
X1895342Y2250179D1*
X1886742D1*
Y2230083D1*
X1893440Y2240607D2*
X1900139Y2230083D1*
X1907287Y2245382D2*
Y2246332D1*
X1908238Y2248256D1*
X1909189Y2249206D1*
X1911112Y2250157D1*
X1914937D1*
X1916838Y2249206D1*
X1917789Y2248256D1*
X1918761Y2246332D1*
Y2244431D1*
X1917789Y2242508D1*
X1915887Y2239656D1*
X1906315Y2230083D1*
X1919712D1*
X1927811Y2250157D2*
X1938312D1*
X1932586Y2242508D1*
X1935460D1*
X1937362Y2241557D1*
X1938312Y2240607D1*
X1939285Y2237733D1*
Y2235831D1*
X1938312Y2232957D1*
X1936411Y2231034D1*
X1933537Y2230083D1*
X1930663D1*
X1927811Y2231034D1*
X1926860Y2232007D1*
X1925888Y2233908D1*
X1789730Y2240977D2*
X1798330D1*
X1801204Y2241949D1*
X1802176Y2242900D1*
X1803127Y2244801D1*
Y2246725D1*
X1802176Y2248626D1*
X1801204Y2249599D1*
X1798330Y2250549D1*
X1789730D1*
Y2230453D1*
X1796428Y2240977D2*
X1803127Y2230453D1*
X1810275Y2245752D2*
Y2246703D1*
X1811226Y2248626D1*
X1812177Y2249577D1*
X1814100Y2250527D1*
X1817925D1*
X1819826Y2249577D1*
X1820777Y2248626D1*
X1821749Y2246703D1*
Y2244801D1*
X1820777Y2242878D1*
X1818875Y2240026D1*
X1809303Y2230453D1*
X1822700D1*
X1838448D2*
Y2250527D1*
X1828876Y2237152D1*
X1843224D1*
X1696116Y2071873D2*
X1704716D1*
X1707590Y2072846D1*
X1708562Y2073796D1*
X1709513Y2075698D1*
Y2077621D1*
X1708562Y2079522D1*
X1707590Y2080495D1*
X1704716Y2081446D1*
X1696116D1*
Y2061350D1*
X1702814Y2071873D2*
X1709513Y2061350D1*
X1716661Y2076648D2*
Y2077599D1*
X1717612Y2079522D1*
X1718563Y2080473D1*
X1720486Y2081424D1*
X1724311D1*
X1726212Y2080473D1*
X1727163Y2079522D1*
X1728135Y2077599D1*
Y2075698D1*
X1727163Y2073774D1*
X1725261Y2070922D1*
X1715689Y2061350D1*
X1729086D1*
X1746736Y2081424D2*
X1737185D1*
X1736234Y2072824D1*
X1737185Y2073774D1*
X1740059Y2074747D1*
X1742911D1*
X1745785Y2073774D1*
X1747708Y2071873D1*
X1748659Y2068999D1*
Y2067098D1*
X1747708Y2064224D1*
X1745785Y2062300D1*
X1742911Y2061350D1*
X1740059D1*
X1737185Y2062300D1*
X1736234Y2063273D1*
X1735262Y2065174D1*
X1595119Y2240977D2*
X1603719D1*
X1606593Y2241949D1*
X1607566Y2242900D1*
X1608516Y2244801D1*
Y2246725D1*
X1607566Y2248626D1*
X1606593Y2249599D1*
X1603719Y2250549D1*
X1595119D1*
Y2230453D1*
X1601818Y2240977D2*
X1608516Y2230453D1*
X1615665Y2245752D2*
Y2246703D1*
X1616615Y2248626D1*
X1617566Y2249577D1*
X1619490Y2250527D1*
X1623314D1*
X1625215Y2249577D1*
X1626166Y2248626D1*
X1627139Y2246703D1*
Y2244801D1*
X1626166Y2242878D1*
X1624265Y2240026D1*
X1614692Y2230453D1*
X1628089D1*
X1645739Y2247675D2*
X1644788Y2249577D1*
X1641914Y2250527D1*
X1640013D1*
X1637139Y2249577D1*
X1635216Y2246703D1*
X1634265Y2241927D1*
Y2237152D1*
X1635216Y2233327D1*
X1637139Y2231404D1*
X1640013Y2230453D1*
X1640964D1*
X1643816Y2231404D1*
X1645739Y2233327D1*
X1646690Y2236201D1*
Y2237152D1*
X1645739Y2240026D1*
X1643816Y2241927D1*
X1640964Y2242878D1*
X1640013D1*
X1637139Y2241927D1*
X1635216Y2240026D1*
X1634265Y2237152D1*
X2221622Y2163562D2*
Y2172162D1*
X2220650Y2175036D1*
X2219699Y2176009D1*
X2217798Y2176959D1*
X2215874D1*
X2213973Y2176009D1*
X2213000Y2175036D1*
X2212050Y2172162D1*
Y2163562D1*
X2232146D1*
X2221622Y2170261D2*
X2232146Y2176959D1*
X2216847Y2184108D2*
X2215896D1*
X2213973Y2185058D1*
X2213022Y2186009D1*
X2212072Y2187932D1*
Y2191757D1*
X2213022Y2193658D1*
X2213973Y2194609D1*
X2215896Y2195582D1*
X2217798D1*
X2219721Y2194609D1*
X2222573Y2192708D1*
X2232146Y2183135D1*
Y2196532D1*
Y2206533D2*
X2212072Y2216105D1*
Y2202708D1*
X2047956Y2238029D2*
X2056556D1*
X2059430Y2239002D1*
X2060403Y2239952D1*
X2061353Y2241854D1*
Y2243777D1*
X2060403Y2245678D1*
X2059430Y2246651D1*
X2056556Y2247602D1*
X2047956D1*
Y2227506D1*
X2054655Y2238029D2*
X2061353Y2227506D1*
X2068502Y2242804D2*
Y2243755D1*
X2069453Y2245678D1*
X2070403Y2246629D1*
X2072327Y2247580D1*
X2076151D1*
X2078052Y2246629D1*
X2079003Y2245678D1*
X2079976Y2243755D1*
Y2241854D1*
X2079003Y2239930D1*
X2077102Y2237078D1*
X2067529Y2227506D1*
X2080926D1*
X2091877Y2247580D2*
X2089026Y2246629D1*
X2088053Y2244728D1*
Y2242804D1*
X2089026Y2240903D1*
X2090927Y2239930D1*
X2094751Y2238980D1*
X2097625Y2238029D1*
X2099527Y2236106D1*
X2100477Y2234204D1*
Y2231330D1*
X2099527Y2229429D1*
X2098576Y2228456D1*
X2095702Y2227506D1*
X2091877D1*
X2089026Y2228456D1*
X2088053Y2229429D1*
X2087102Y2231330D1*
Y2234204D1*
X2088053Y2236106D1*
X2089976Y2238029D1*
X2092828Y2238980D1*
X2096653Y2239930D1*
X2098576Y2240903D1*
X2099527Y2242804D1*
Y2244728D1*
X2098576Y2246629D1*
X2095702Y2247580D1*
X2091877D1*
X1441172Y786946D2*
X1449772D1*
X1452646Y787919D1*
X1453619Y788870D1*
X1454570Y790771D1*
Y792694D1*
X1453619Y794596D1*
X1452646Y795568D1*
X1449772Y796519D1*
X1441172D1*
Y776423D1*
X1447871Y786946D2*
X1454570Y776423D1*
X1461718Y791722D2*
Y792672D1*
X1462669Y794596D1*
X1463619Y795546D1*
X1465543Y796497D1*
X1469367D1*
X1471269Y795546D1*
X1472219Y794596D1*
X1473192Y792672D1*
Y790771D1*
X1472219Y788848D1*
X1470318Y785996D1*
X1460745Y776423D1*
X1474143D1*
X1492765Y789820D2*
X1491792Y786946D1*
X1489891Y785023D1*
X1487017Y784072D1*
X1486066D1*
X1483192Y785023D1*
X1481291Y786946D1*
X1480318Y789820D1*
Y790771D1*
X1481291Y793645D1*
X1483192Y795546D1*
X1486066Y796497D1*
X1487017D1*
X1489891Y795546D1*
X1491792Y793645D1*
X1492765Y789820D1*
Y785023D1*
X1491792Y780248D1*
X1489891Y777374D1*
X1487017Y776423D1*
X1485116D1*
X1482242Y777374D1*
X1481291Y779297D1*
X1437567Y612843D2*
X1446167D1*
X1449041Y613815D1*
X1450014Y614766D1*
X1450964Y616667D1*
Y618591D1*
X1450014Y620492D1*
X1449041Y621465D1*
X1446167Y622415D1*
X1437567D1*
Y602319D1*
X1444266Y612843D2*
X1450964Y602319D1*
X1459064Y622393D2*
X1469565D1*
X1463839Y614744D1*
X1466713D1*
X1468614Y613793D1*
X1469565Y612843D1*
X1470537Y609969D1*
Y608067D1*
X1469565Y605193D1*
X1467663Y603270D1*
X1464789Y602319D1*
X1461915D1*
X1459064Y603270D1*
X1458113Y604243D1*
X1457140Y606144D1*
X1482461Y622393D2*
X1479587Y621443D1*
X1477664Y618569D1*
X1476713Y613793D1*
Y610919D1*
X1477664Y606144D1*
X1479587Y603270D1*
X1482461Y602319D1*
X1484362D1*
X1487236Y603270D1*
X1489138Y606144D1*
X1490110Y610919D1*
Y613793D1*
X1489138Y618569D1*
X1487236Y621443D1*
X1484362Y622393D1*
X1482461D1*
X1489138Y618569D2*
X1477664Y606144D1*
X1018336Y784500D2*
X1026936D1*
X1029810Y785473D1*
X1030782Y786424D1*
X1031733Y788325D1*
Y790248D1*
X1030782Y792150D1*
X1029810Y793122D1*
X1026936Y794073D1*
X1018336D1*
Y773977D1*
X1025034Y784500D2*
X1031733Y773977D1*
X1039832Y794051D2*
X1050333D1*
X1044607Y786401D1*
X1047481D1*
X1049383Y785451D1*
X1050333Y784500D1*
X1051306Y781626D1*
Y779725D1*
X1050333Y776851D1*
X1048432Y774928D1*
X1045558Y773977D1*
X1042684D1*
X1039832Y774928D1*
X1038881Y775900D1*
X1037909Y777802D1*
X1057482Y790226D2*
X1059405Y791199D1*
X1062279Y794051D1*
Y773977D1*
X1775104Y790072D2*
X1783704D1*
X1786578Y791045D1*
X1787551Y791996D1*
X1788501Y793897D1*
Y795820D1*
X1787551Y797722D1*
X1786578Y798694D1*
X1783704Y799645D1*
X1775104D1*
Y779549D1*
X1781803Y790072D2*
X1788501Y779549D1*
X1796600Y799623D2*
X1807101D1*
X1801376Y791974D1*
X1804250D1*
X1806151Y791023D1*
X1807101Y790072D1*
X1808074Y787198D1*
Y785297D1*
X1807101Y782423D1*
X1805200Y780500D1*
X1802326Y779549D1*
X1799452D1*
X1796600Y780500D1*
X1795650Y781472D1*
X1794677Y783374D1*
X1815223Y794848D2*
Y795798D1*
X1816173Y797722D1*
X1817124Y798672D1*
X1819047Y799623D1*
X1822872D1*
X1824773Y798672D1*
X1825724Y797722D1*
X1826697Y795798D1*
Y793897D1*
X1825724Y791974D1*
X1823823Y789122D1*
X1814250Y779549D1*
X1827647D1*
X1775103Y612843D2*
X1783702D1*
X1786576Y613815D1*
X1787549Y614766D1*
X1788500Y616667D1*
Y618591D1*
X1787549Y620492D1*
X1786576Y621465D1*
X1783702Y622415D1*
X1775103D1*
Y602319D1*
X1781801Y612843D2*
X1788500Y602319D1*
X1796599Y622393D2*
X1807100D1*
X1801374Y614744D1*
X1804248D1*
X1806150Y613793D1*
X1807100Y612843D1*
X1808073Y609969D1*
Y608067D1*
X1807100Y605193D1*
X1805199Y603270D1*
X1802325Y602319D1*
X1799451D1*
X1796599Y603270D1*
X1795648Y604243D1*
X1794676Y606144D1*
X1816172Y622393D2*
X1826673D1*
X1820947Y614744D1*
X1823821D1*
X1825723Y613793D1*
X1826673Y612843D1*
X1827646Y609969D1*
Y608067D1*
X1826673Y605193D1*
X1824772Y603270D1*
X1821898Y602319D1*
X1819024D1*
X1816172Y603270D1*
X1815221Y604243D1*
X1814249Y606144D1*
X2113992Y774445D2*
X2122592D1*
X2125466Y775418D1*
X2126439Y776368D1*
X2127389Y778270D1*
Y780193D1*
X2126439Y782094D1*
X2125466Y783067D1*
X2122592Y784018D1*
X2113992D1*
Y763922D1*
X2120691Y774445D2*
X2127389Y763922D1*
X2135488Y783996D2*
X2145990D1*
X2140264Y776346D1*
X2143138D1*
X2145039Y775396D1*
X2145990Y774445D1*
X2146962Y771571D1*
Y769670D1*
X2145990Y766796D1*
X2144088Y764872D1*
X2141214Y763922D1*
X2138340D1*
X2135488Y764872D1*
X2134538Y765845D1*
X2133565Y767746D1*
X2162711Y763922D2*
Y783996D1*
X2153138Y770620D1*
X2167486D1*
X2112638Y609718D2*
X2121238D1*
X2124112Y610691D1*
X2125085Y611641D1*
X2126035Y613543D1*
Y615466D1*
X2125085Y617367D1*
X2124112Y618340D1*
X2121238Y619291D1*
X2112638D1*
Y599195D1*
X2119337Y609718D2*
X2126035Y599195D1*
X2134134Y619269D2*
X2144636D1*
X2138910Y611619D1*
X2141784D1*
X2143685Y610669D1*
X2144636Y609718D1*
X2145608Y606844D1*
Y604943D1*
X2144636Y602069D1*
X2142734Y600145D1*
X2139860Y599195D1*
X2136986D1*
X2134134Y600145D1*
X2133184Y601118D1*
X2132211Y603019D1*
X2163258Y619269D2*
X2153707D1*
X2152757Y610669D1*
X2153707Y611619D1*
X2156581Y612592D1*
X2159433D1*
X2162307Y611619D1*
X2164231Y609718D1*
X2165181Y606844D1*
Y604943D1*
X2164231Y602069D1*
X2162307Y600145D1*
X2159433Y599195D1*
X2156581D1*
X2153707Y600145D1*
X2152757Y601118D1*
X2151784Y603019D1*
X2448448Y775360D2*
X2457048D1*
X2459922Y776333D1*
X2460895Y777283D1*
X2461846Y779184D1*
Y781108D1*
X2460895Y783009D1*
X2459922Y783982D1*
X2457048Y784932D1*
X2448448D1*
Y764836D1*
X2455147Y775360D2*
X2461846Y764836D1*
X2469945Y784910D2*
X2480446D1*
X2474720Y777261D1*
X2477594D1*
X2479495Y776310D1*
X2480446Y775360D1*
X2481419Y772486D1*
Y770585D1*
X2480446Y767711D1*
X2478545Y765787D1*
X2475671Y764836D1*
X2472797D1*
X2469945Y765787D1*
X2468994Y766760D1*
X2468022Y768661D1*
X2499069Y782058D2*
X2498118Y783960D1*
X2495244Y784910D1*
X2493343D1*
X2490469Y783960D1*
X2488545Y781086D1*
X2487595Y776310D1*
Y771535D1*
X2488545Y767711D1*
X2490469Y765787D1*
X2493343Y764836D1*
X2494293D1*
X2497145Y765787D1*
X2499069Y767711D1*
X2500019Y770585D1*
Y771535D1*
X2499069Y774409D1*
X2497145Y776310D1*
X2494293Y777261D1*
X2493343D1*
X2490469Y776310D1*
X2488545Y774409D1*
X2487595Y771535D1*
X2447963Y619093D2*
X2456563D1*
X2459437Y620066D1*
X2460410Y621017D1*
X2461361Y622918D1*
Y624841D1*
X2460410Y626743D1*
X2459437Y627715D1*
X2456563Y628666D1*
X2447963D1*
Y608570D1*
X2454662Y619093D2*
X2461361Y608570D1*
X2469460Y628644D2*
X2479961D1*
X2474235Y620995D1*
X2477109D1*
X2479010Y620044D1*
X2479961Y619093D1*
X2480934Y616219D1*
Y614318D1*
X2479961Y611444D1*
X2478060Y609521D1*
X2475186Y608570D1*
X2472312D1*
X2469460Y609521D1*
X2468509Y610493D1*
X2467536Y612395D1*
X2490934Y608570D2*
X2500507Y628644D1*
X2487109D1*
X1851621Y1144466D2*
X1860221D1*
X1863095Y1145439D1*
X1864068Y1146389D1*
X1865019Y1148291D1*
Y1150214D1*
X1864068Y1152115D1*
X1863095Y1153088D1*
X1860221Y1154039D1*
X1851621D1*
Y1133943D1*
X1858320Y1144466D2*
X1865019Y1133943D1*
X1873118Y1154017D2*
X1883619D1*
X1877893Y1146367D1*
X1880767D1*
X1882668Y1145417D1*
X1883619Y1144466D1*
X1884592Y1141592D1*
Y1139691D1*
X1883619Y1136817D1*
X1881718Y1134893D1*
X1878844Y1133943D1*
X1875970D1*
X1873118Y1134893D1*
X1872167Y1135866D1*
X1871194Y1137767D1*
X1895543Y1154017D2*
X1892691Y1153066D1*
X1891718Y1151165D1*
Y1149241D1*
X1892691Y1147340D1*
X1894592Y1146367D1*
X1898417Y1145417D1*
X1901291Y1144466D1*
X1903192Y1142543D1*
X1904143Y1140641D1*
Y1137767D1*
X1903192Y1135866D1*
X1902241Y1134893D1*
X1899367Y1133943D1*
X1895543D1*
X1892691Y1134893D1*
X1891718Y1135866D1*
X1890768Y1137767D1*
Y1140641D1*
X1891718Y1142543D1*
X1893642Y1144466D1*
X1896493Y1145417D1*
X1900318Y1146367D1*
X1902241Y1147340D1*
X1903192Y1149241D1*
Y1151165D1*
X1902241Y1153066D1*
X1899367Y1154017D1*
X1895543D1*
X1789580Y1144466D2*
X1798180D1*
X1801054Y1145439D1*
X1802027Y1146389D1*
X1802978Y1148291D1*
Y1150214D1*
X1802027Y1152115D1*
X1801054Y1153088D1*
X1798180Y1154039D1*
X1789580D1*
Y1133943D1*
X1796279Y1144466D2*
X1802978Y1133943D1*
X1811077Y1154017D2*
X1821578D1*
X1815852Y1146367D1*
X1818726D1*
X1820627Y1145417D1*
X1821578Y1144466D1*
X1822551Y1141592D1*
Y1139691D1*
X1821578Y1136817D1*
X1819677Y1134893D1*
X1816803Y1133943D1*
X1813929D1*
X1811077Y1134893D1*
X1810126Y1135866D1*
X1809154Y1137767D1*
X1841173Y1147340D2*
X1840200Y1144466D1*
X1838299Y1142543D1*
X1835425Y1141592D1*
X1834475D1*
X1831601Y1142543D1*
X1829699Y1144466D1*
X1828727Y1147340D1*
Y1148291D1*
X1829699Y1151165D1*
X1831601Y1153066D1*
X1834475Y1154017D1*
X1835425D1*
X1838299Y1153066D1*
X1840200Y1151165D1*
X1841173Y1147340D1*
Y1142543D1*
X1840200Y1137767D1*
X1838299Y1134893D1*
X1835425Y1133943D1*
X1833524D1*
X1830650Y1134893D1*
X1829699Y1136817D1*
X2597277Y1262843D2*
X2605877D1*
X2608751Y1263815D1*
X2609724Y1264766D1*
X2610674Y1266667D1*
Y1268591D1*
X2609724Y1270492D1*
X2608751Y1271465D1*
X2605877Y1272415D1*
X2597277D1*
Y1252319D1*
X2603975Y1262843D2*
X2610674Y1252319D1*
X2626423D2*
Y1272393D1*
X2616850Y1259018D1*
X2631198D1*
X2643122Y1272393D2*
X2640248Y1271443D1*
X2638324Y1268569D1*
X2637374Y1263793D1*
Y1260919D1*
X2638324Y1256144D1*
X2640248Y1253270D1*
X2643122Y1252319D1*
X2645023D1*
X2647897Y1253270D1*
X2649798Y1256144D1*
X2650771Y1260919D1*
Y1263793D1*
X2649798Y1268569D1*
X2647897Y1271443D1*
X2645023Y1272393D1*
X2643122D1*
X2649798Y1268569D2*
X2638324Y1256144D1*
X2607827Y1165974D2*
X2616427D1*
X2619301Y1166947D1*
X2620274Y1167897D1*
X2621225Y1169799D1*
Y1171722D1*
X2620274Y1173623D1*
X2619301Y1174596D1*
X2616427Y1175547D1*
X2607827D1*
Y1155451D1*
X2614526Y1165974D2*
X2621225Y1155451D1*
X2636973D2*
Y1175525D1*
X2627400Y1162149D1*
X2641748D1*
X2647924Y1171700D2*
X2649848Y1172673D1*
X2652722Y1175525D1*
Y1155451D1*
X2597286Y1072221D2*
X2605886D1*
X2608760Y1073193D1*
X2609733Y1074144D1*
X2610683Y1076045D1*
Y1077969D1*
X2609733Y1079870D1*
X2608760Y1080843D1*
X2605886Y1081793D1*
X2597286D1*
Y1061697D1*
X2603985Y1072221D2*
X2610683Y1061697D1*
X2626432D2*
Y1081771D1*
X2616859Y1068396D1*
X2631207D1*
X2638355Y1076996D2*
Y1077947D1*
X2639306Y1079870D1*
X2640257Y1080821D1*
X2642180Y1081771D1*
X2646005D1*
X2647906Y1080821D1*
X2648857Y1079870D1*
X2649829Y1077947D1*
Y1076045D1*
X2648857Y1074122D1*
X2646955Y1071270D1*
X2637383Y1061697D1*
X2650780D1*
X2450409Y2165970D2*
X2459009D1*
X2461883Y2166943D1*
X2462856Y2167893D1*
X2463807Y2169795D1*
Y2171718D1*
X2462856Y2173619D1*
X2461883Y2174592D1*
X2459009Y2175543D1*
X2450409D1*
Y2155447D1*
X2457108Y2165970D2*
X2463807Y2155447D1*
X2479555D2*
Y2175521D1*
X2469982Y2162145D1*
X2484330D1*
X2492429Y2175521D2*
X2502931D1*
X2497205Y2167871D1*
X2500079D1*
X2501980Y2166921D1*
X2502931Y2165970D1*
X2503903Y2163096D1*
Y2161195D1*
X2502931Y2158321D1*
X2501029Y2156397D1*
X2498155Y2155447D1*
X2495281D1*
X2492429Y2156397D1*
X2491479Y2157370D1*
X2490506Y2159271D1*
X2446811Y2075349D2*
X2455411D1*
X2458285Y2076322D1*
X2459257Y2077273D1*
X2460208Y2079174D1*
Y2081097D1*
X2459257Y2082999D1*
X2458285Y2083971D1*
X2455411Y2084922D1*
X2446811D1*
Y2064826D1*
X2453509Y2075349D2*
X2460208Y2064826D1*
X2475956D2*
Y2084900D1*
X2466384Y2071525D1*
X2480732D1*
X2496480Y2064826D2*
Y2084900D1*
X2486907Y2071525D1*
X2501255D1*
X2450647Y1997385D2*
X2459247D1*
X2462121Y1998357D1*
X2463094Y1999308D1*
X2464044Y2001209D1*
Y2003133D1*
X2463094Y2005034D1*
X2462121Y2006007D1*
X2459247Y2006957D1*
X2450647D1*
Y1986861D1*
X2457346Y1997385D2*
X2464044Y1986861D1*
X2479793D2*
Y2006935D1*
X2470220Y1993560D1*
X2484568D1*
X2502218Y2006935D2*
X2492667D1*
X2491716Y1998335D1*
X2492667Y1999286D1*
X2495541Y2000259D1*
X2498393D1*
X2501267Y1999286D1*
X2503190Y1997385D1*
X2504141Y1994511D1*
Y1992609D1*
X2503190Y1989735D1*
X2501267Y1987812D1*
X2498393Y1986861D1*
X2495541D1*
X2492667Y1987812D1*
X2491716Y1988785D1*
X2490744Y1990686D1*
X2547528Y2474288D2*
X2556128D1*
X2559002Y2475260D1*
X2559975Y2476211D1*
X2560926Y2478112D1*
Y2480036D1*
X2559975Y2481937D1*
X2559002Y2482910D1*
X2556128Y2483860D1*
X2547528D1*
Y2463764D1*
X2554227Y2474288D2*
X2560926Y2463764D1*
X2576674D2*
Y2483838D1*
X2567101Y2470463D1*
X2581449D1*
X2599099Y2480986D2*
X2598148Y2482888D1*
X2595274Y2483838D1*
X2593373D1*
X2590499Y2482888D1*
X2588576Y2480014D1*
X2587625Y2475238D1*
Y2470463D1*
X2588576Y2466638D1*
X2590499Y2464715D1*
X2593373Y2463764D1*
X2594324D1*
X2597176Y2464715D1*
X2599099Y2466638D1*
X2600050Y2469512D1*
Y2470463D1*
X2599099Y2473337D1*
X2597176Y2475238D1*
X2594324Y2476189D1*
X2593373D1*
X2590499Y2475238D1*
X2588576Y2473337D1*
X2587625Y2470463D1*
X2633383Y1464424D2*
X2641983D1*
X2644857Y1465397D1*
X2645830Y1466347D1*
X2646780Y1468249D1*
Y1470172D1*
X2645830Y1472073D1*
X2644857Y1473046D1*
X2641983Y1473997D1*
X2633383D1*
Y1453901D1*
X2640082Y1464424D2*
X2646780Y1453901D1*
X2662529D2*
Y1473975D1*
X2652956Y1460599D1*
X2667304D1*
X2677304Y1453901D2*
X2686877Y1473975D1*
X2673480D1*
X2399497Y2473341D2*
X2408096D1*
X2410970Y2474314D1*
X2411943Y2475265D1*
X2412894Y2477166D1*
Y2479089D1*
X2411943Y2480991D1*
X2410970Y2481963D1*
X2408096Y2482914D1*
X2399497D1*
Y2462818D1*
X2406195Y2473341D2*
X2412894Y2462818D1*
X2428642D2*
Y2482892D1*
X2419070Y2469517D1*
X2433418D1*
X2444369Y2482892D2*
X2441517Y2481941D1*
X2440544Y2480040D1*
Y2478117D1*
X2441517Y2476215D1*
X2443418Y2475243D1*
X2447243Y2474292D1*
X2450117Y2473341D1*
X2452018Y2471418D1*
X2452968Y2469517D1*
Y2466643D1*
X2452018Y2464741D1*
X2451067Y2463769D1*
X2448193Y2462818D1*
X2444369D1*
X2441517Y2463769D1*
X2440544Y2464741D1*
X2439593Y2466643D1*
Y2469517D1*
X2440544Y2471418D1*
X2442467Y2473341D1*
X2445319Y2474292D1*
X2449144Y2475243D1*
X2451067Y2476215D1*
X2452018Y2478117D1*
Y2480040D1*
X2451067Y2481941D1*
X2448193Y2482892D1*
X2444369D1*
X885723Y634717D2*
X894323D1*
X897197Y635690D1*
X898170Y636640D1*
X899121Y638541D1*
Y640465D1*
X898170Y642366D1*
X897197Y643339D1*
X894323Y644289D1*
X885723D1*
Y624193D1*
X892422Y634717D2*
X899121Y624193D1*
X914869D2*
Y644267D1*
X905296Y630892D1*
X919644D1*
X938267Y637591D2*
X937294Y634717D1*
X935393Y632793D1*
X932519Y631843D1*
X931568D1*
X928694Y632793D1*
X926793Y634717D1*
X925820Y637591D1*
Y638541D1*
X926793Y641415D1*
X928694Y643317D1*
X931568Y644267D1*
X932519D1*
X935393Y643317D1*
X937294Y641415D1*
X938267Y637591D1*
Y632793D1*
X937294Y628018D1*
X935393Y625144D1*
X932519Y624193D1*
X930617D1*
X927743Y625144D1*
X926793Y627067D1*
X1331578Y1881418D2*
X1340178D1*
X1343052Y1882390D1*
X1344025Y1883341D1*
X1344976Y1885242D1*
Y1887166D1*
X1344025Y1889067D1*
X1343052Y1890040D1*
X1340178Y1890990D1*
X1331578D1*
Y1870894D1*
X1338277Y1881418D2*
X1344976Y1870894D1*
X1363576Y1890990D2*
X1351151D1*
Y1870894D1*
X1363576D1*
X1351151Y1881418D2*
X1358801D1*
X1383149Y1888116D2*
X1381248Y1890040D1*
X1378374Y1890990D1*
X1374549D1*
X1371675Y1890040D1*
X1369752Y1888116D1*
Y1886215D1*
X1370724Y1884292D1*
X1371675Y1883341D1*
X1373576Y1882390D1*
X1379324Y1880467D1*
X1381248Y1879516D1*
X1382198Y1878544D1*
X1383149Y1876642D1*
Y1873768D1*
X1381248Y1871867D1*
X1378374Y1870894D1*
X1374549D1*
X1371675Y1871867D1*
X1369752Y1873768D1*
X1401749Y1890990D2*
X1389325D1*
Y1870894D1*
X1401749D1*
X1389325Y1881418D2*
X1396974D1*
X1414624Y1890990D2*
Y1870894D1*
X1407925Y1890990D2*
X1421322D1*
X1622131Y466078D2*
X1620230Y468002D1*
X1617356Y468952D1*
X1613531D1*
X1610657Y468002D1*
X1608734Y466078D1*
Y464177D1*
X1609707Y462254D1*
X1610657Y461303D1*
X1612558Y460352D1*
X1618306Y458429D1*
X1620230Y457478D1*
X1621180Y456505D1*
X1622131Y454604D1*
Y451730D1*
X1620230Y449829D1*
X1617356Y448856D1*
X1613531D1*
X1610657Y449829D1*
X1608734Y451730D1*
X1628307Y468952D2*
X1633104Y448856D1*
X1637879Y468952D1*
X1642655Y448856D1*
X1647452Y468952D1*
X1659376Y468930D2*
X1656502Y467979D1*
X1654578Y465105D1*
X1653628Y460330D1*
Y457456D1*
X1654578Y452681D1*
X1656502Y449807D1*
X1659376Y448856D1*
X1661277D1*
X1664151Y449807D1*
X1666052Y452681D1*
X1667025Y457456D1*
Y460330D1*
X1666052Y465105D1*
X1664151Y467979D1*
X1661277Y468930D1*
X1659376D1*
X1666052Y465105D2*
X1654578Y452681D1*
X1960778Y461793D2*
X1958876Y463717D1*
X1956002Y464667D1*
X1952178D1*
X1949304Y463717D1*
X1947380Y461793D1*
Y459892D1*
X1948353Y457969D1*
X1949304Y457018D1*
X1951205Y456067D1*
X1956953Y454144D1*
X1958876Y453193D1*
X1959827Y452221D1*
X1960778Y450319D1*
Y447445D1*
X1958876Y445544D1*
X1956002Y444571D1*
X1952178D1*
X1949304Y445544D1*
X1947380Y447445D1*
X1966953Y464667D2*
X1971751Y444571D1*
X1976526Y464667D1*
X1981301Y444571D1*
X1986099Y464667D1*
X1992274Y460821D2*
X1994198Y461793D1*
X1997072Y464645D1*
Y444571D1*
X2297249Y459652D2*
X2295348Y461575D1*
X2292474Y462526D1*
X2288649D1*
X2285775Y461575D1*
X2283852Y459652D1*
Y457750D1*
X2284825Y455827D1*
X2285775Y454876D1*
X2287677Y453926D1*
X2293425Y452002D1*
X2295348Y451052D1*
X2296299Y450079D1*
X2297249Y448178D1*
Y445304D1*
X2295348Y443402D1*
X2292474Y442430D1*
X2288649D1*
X2285775Y443402D1*
X2283852Y445304D1*
X2303425Y462526D2*
X2308222Y442430D1*
X2312998Y462526D1*
X2317773Y442430D1*
X2322570Y462526D1*
X2329719Y457728D2*
Y458679D1*
X2330669Y460602D1*
X2331620Y461553D1*
X2333543Y462504D1*
X2337368D1*
X2339269Y461553D1*
X2340220Y460602D1*
X2341193Y458679D1*
Y456778D1*
X2340220Y454854D1*
X2338319Y452002D1*
X2328746Y442430D1*
X2342143D1*
X2634808Y460723D2*
X2632907Y462646D1*
X2630033Y463597D1*
X2626208D1*
X2623334Y462646D1*
X2621411Y460723D1*
Y458821D1*
X2622384Y456898D1*
X2623334Y455947D1*
X2625236Y454997D1*
X2630984Y453073D1*
X2632907Y452123D1*
X2633858Y451150D1*
X2634808Y449249D1*
Y446375D1*
X2632907Y444473D1*
X2630033Y443501D1*
X2626208D1*
X2623334Y444473D1*
X2621411Y446375D1*
X2640984Y463597D2*
X2645781Y443501D1*
X2650557Y463597D1*
X2655332Y443501D1*
X2660129Y463597D1*
X2668228Y463574D2*
X2678730D1*
X2673004Y455925D1*
X2675878D1*
X2677779Y454974D1*
X2678730Y454024D1*
X2679702Y451150D1*
Y449249D1*
X2678730Y446375D1*
X2676828Y444451D1*
X2673954Y443501D1*
X2671080D1*
X2668228Y444451D1*
X2667278Y445424D1*
X2666305Y447325D1*
X2146280Y1700007D2*
Y1685659D1*
X2147230Y1682785D1*
X2149154Y1680884D1*
X2152028Y1679911D1*
X2153929D1*
X2156803Y1680884D1*
X2158726Y1682785D1*
X2159677Y1685659D1*
Y1700007D1*
X2165853Y1696161D2*
X2167776Y1697133D1*
X2170650Y1699985D1*
Y1679911D1*
X2093069Y1373383D2*
Y1353287D1*
X2104543D1*
X2110719Y1362860D2*
X2119341D1*
X2122193Y1363811D1*
X2123165Y1364783D1*
X2124116Y1366685D1*
Y1369559D1*
X2123165Y1371460D1*
X2122193Y1372433D1*
X2119341Y1373383D1*
X2110719D1*
Y1353287D1*
X2144640Y1368608D2*
X2143689Y1370509D1*
X2141766Y1372433D1*
X2139864Y1373383D1*
X2136040D1*
X2134116Y1372433D1*
X2132215Y1370509D1*
X2131242Y1368608D1*
X2130292Y1365734D1*
Y1360937D1*
X2131242Y1358085D1*
X2132215Y1356161D1*
X2134116Y1354260D1*
X2136040Y1353287D1*
X2139864D1*
X2141766Y1354260D1*
X2143689Y1356161D1*
X2144640Y1358085D1*
X2160388Y1353287D2*
Y1373361D1*
X2150815Y1359986D1*
X2165163D1*
X2177087Y1373361D2*
X2174213Y1372411D1*
X2172290Y1369537D1*
X2171339Y1364761D1*
Y1361887D1*
X2172290Y1357112D1*
X2174213Y1354238D1*
X2177087Y1353287D1*
X2178988D1*
X2181862Y1354238D1*
X2183764Y1357112D1*
X2184736Y1361887D1*
Y1364761D1*
X2183764Y1369537D1*
X2181862Y1372411D1*
X2178988Y1373361D1*
X2177087D1*
X2183764Y1369537D2*
X2172290Y1357112D1*
X2194737Y1353287D2*
X2204310Y1373361D1*
X2190912D1*
X2215261D2*
X2212409Y1372411D1*
X2211436Y1370509D1*
Y1368586D1*
X2212409Y1366685D1*
X2214310Y1365712D1*
X2218135Y1364761D1*
X2221009Y1363811D1*
X2222910Y1361887D1*
X2223860Y1359986D1*
Y1357112D1*
X2222910Y1355211D1*
X2221959Y1354238D1*
X2219085Y1353287D1*
X2215261D1*
X2212409Y1354238D1*
X2211436Y1355211D1*
X2210485Y1357112D1*
Y1359986D1*
X2211436Y1361887D1*
X2213359Y1363811D1*
X2216211Y1364761D1*
X2220036Y1365712D1*
X2221959Y1366685D1*
X2222910Y1368586D1*
Y1370509D1*
X2221959Y1372411D1*
X2219085Y1373361D1*
X2215261D1*
X771255Y2577860D2*
Y2563512D1*
X772206Y2560638D1*
X774129Y2558737D1*
X777003Y2557764D1*
X778904D1*
X781779Y2558737D1*
X783702Y2560638D1*
X784653Y2563512D1*
Y2577860D1*
X791801Y2573063D2*
Y2574014D1*
X792752Y2575937D1*
X793702Y2576888D1*
X795626Y2577838D1*
X799450D1*
X801352Y2576888D1*
X802302Y2575937D1*
X803275Y2574014D1*
Y2572112D1*
X802302Y2570189D1*
X800401Y2567337D1*
X790828Y2557764D1*
X804226D1*
X764653Y2482785D2*
X775154D1*
X769428Y2475136D1*
X772302D1*
X774204Y2474185D1*
X775154Y2473235D1*
X776127Y2470361D1*
Y2468459D1*
X775154Y2465585D1*
X773253Y2463662D1*
X770379Y2462711D1*
X767505D1*
X764653Y2463662D1*
X763702Y2464635D1*
X762730Y2466536D1*
X783253Y2464635D2*
X782303Y2463662D1*
X783253Y2462711D1*
X784226Y2463662D1*
X783253Y2464635D1*
X792325Y2482785D2*
X802826D1*
X797100Y2475136D1*
X799974D1*
X801876Y2474185D1*
X802826Y2473235D1*
X803799Y2470361D1*
Y2468459D1*
X802826Y2465585D1*
X800925Y2463662D1*
X798051Y2462711D1*
X795177D1*
X792325Y2463662D1*
X791375Y2464635D1*
X790402Y2466536D1*
X809975Y2482807D2*
X817624Y2462711D1*
X825273Y2482807D1*
X814469Y2339699D2*
Y2325351D1*
X815420Y2322477D1*
X817343Y2320576D1*
X820217Y2319603D1*
X822118D1*
X824992Y2320576D1*
X826916Y2322477D1*
X827866Y2325351D1*
Y2339699D1*
X835966Y2339677D2*
X846467D1*
X840741Y2332027D1*
X843615D1*
X845516Y2331077D1*
X846467Y2330126D1*
X847439Y2327252D1*
Y2325351D1*
X846467Y2322477D1*
X844565Y2320554D1*
X841691Y2319603D1*
X838817D1*
X835966Y2320554D1*
X835015Y2321526D1*
X834042Y2323428D1*
X906293Y1323665D2*
Y1309317D1*
X907244Y1306443D1*
X909167Y1304542D1*
X912041Y1303569D1*
X913942D1*
X916816Y1304542D1*
X918740Y1306443D1*
X919690Y1309317D1*
Y1323665D1*
X935439Y1303569D2*
Y1323643D1*
X925866Y1310267D1*
X940214D1*
X738264Y609284D2*
Y594936D1*
X739215Y592062D1*
X741138Y590161D1*
X744012Y589188D1*
X745914D1*
X748788Y590161D1*
X750711Y592062D1*
X751662Y594936D1*
Y609284D1*
X769311Y609262D2*
X759761D1*
X758810Y600662D1*
X759761Y601613D1*
X762635Y602586D1*
X765487D1*
X768361Y601613D1*
X770284Y599712D1*
X771235Y596837D1*
Y594936D1*
X770284Y592062D1*
X768361Y590139D1*
X765487Y589188D1*
X762635D1*
X759761Y590139D1*
X758810Y591112D1*
X757837Y593013D1*
X664545Y436351D2*
Y416255D1*
X676019D1*
X697493D2*
Y436351D1*
X689844Y416255D1*
X682194Y436351D1*
Y416255D1*
X707493D2*
X717066Y436328D1*
X703669D1*
X734716D2*
X725165D1*
X724214Y427729D1*
X725165Y428679D1*
X728039Y429652D1*
X730891D1*
X733765Y428679D1*
X735688Y426778D1*
X736639Y423904D1*
Y422003D1*
X735688Y419129D1*
X733765Y417205D1*
X730891Y416255D1*
X728039D1*
X725165Y417205D1*
X724214Y418178D1*
X723242Y420079D1*
X742815Y436351D2*
Y416255D1*
X751437D1*
X754311Y417227D1*
X755261Y418178D1*
X756212Y420079D1*
Y422953D1*
X755261Y424877D1*
X754311Y425827D1*
X751437Y426778D1*
X754311Y427751D1*
X755261Y428701D1*
X756212Y430603D1*
Y432526D1*
X755261Y434427D1*
X754311Y435400D1*
X751437Y436351D1*
X742815D1*
Y426778D2*
X751437D1*
X762388Y436351D2*
Y416255D1*
X769086D1*
X771960Y417227D1*
X773884Y419129D1*
X774835Y421052D1*
X775785Y423904D1*
Y428701D1*
X774835Y431575D1*
X773884Y433477D1*
X771960Y435400D1*
X769086Y436351D1*
X762388D1*
X781961Y425827D2*
X790583D1*
X793435Y426778D1*
X794408Y427751D1*
X795358Y429652D1*
Y432526D1*
X794408Y434427D1*
X793435Y435400D1*
X790583Y436351D1*
X781961D1*
Y416255D1*
X803457Y417205D2*
X802485Y416255D1*
X801534Y417205D1*
X802485Y418178D1*
X803457Y417205D1*
Y415304D1*
X802485Y413381D1*
X801534Y412430D1*
X809633Y432504D2*
X811556Y433477D1*
X814430Y436328D1*
Y416255D1*
X820606Y432504D2*
X822529Y433477D1*
X825403Y436328D1*
Y416255D1*
X836354Y436328D2*
X833503Y435378D1*
X832530Y433477D1*
Y431553D1*
X833503Y429652D1*
X835404Y428679D1*
X839228Y427729D1*
X842102Y426778D1*
X844004Y424855D1*
X844954Y422953D1*
Y420079D1*
X844004Y418178D1*
X843053Y417205D1*
X840179Y416255D1*
X836354D1*
X833503Y417205D1*
X832530Y418178D1*
X831579Y420079D1*
Y422953D1*
X832530Y424855D1*
X834453Y426778D1*
X837305Y427729D1*
X841130Y428679D1*
X843053Y429652D1*
X844004Y431553D1*
Y433477D1*
X843053Y435378D1*
X840179Y436328D1*
X836354D1*
X1247697Y432398D2*
Y418050D1*
X1248648Y415176D1*
X1250571Y413275D1*
X1253445Y412302D1*
X1255346D1*
X1258220Y413275D1*
X1260144Y415176D1*
X1261094Y418050D1*
Y432398D1*
X1278744Y429524D2*
X1277793Y431426D1*
X1274919Y432376D1*
X1273018D1*
X1270144Y431426D1*
X1268221Y428552D1*
X1267270Y423776D1*
Y419001D1*
X1268221Y415176D1*
X1270144Y413253D1*
X1273018Y412302D1*
X1273969D1*
X1276821Y413253D1*
X1278744Y415176D1*
X1279695Y418050D1*
Y419001D1*
X1278744Y421875D1*
X1276821Y423776D1*
X1273969Y424727D1*
X1273018D1*
X1270144Y423776D1*
X1268221Y421875D1*
X1267270Y419001D1*
X1199512Y452304D2*
Y472400D1*
X1191862Y452304D1*
X1184213Y472400D1*
Y452304D1*
X1220986D2*
Y472400D1*
X1213337Y452304D1*
X1205687Y472400D1*
Y452304D1*
X1242482D2*
X1234811Y472400D1*
X1227162Y452304D1*
X1230036Y459003D2*
X1239608D1*
X1253433Y472378D2*
X1250581Y471428D1*
X1249609Y469526D1*
Y467603D1*
X1250581Y465702D1*
X1252483Y464729D1*
X1256307Y463778D1*
X1259181Y462828D1*
X1261083Y460904D1*
X1262033Y459003D1*
Y456129D1*
X1261083Y454228D1*
X1260132Y453255D1*
X1257258Y452304D1*
X1253433D1*
X1250581Y453255D1*
X1249609Y454228D1*
X1248658Y456129D1*
Y459003D1*
X1249609Y460904D1*
X1251532Y462828D1*
X1254384Y463778D1*
X1258209Y464729D1*
X1260132Y465702D1*
X1261083Y467603D1*
Y469526D1*
X1260132Y471428D1*
X1257258Y472378D1*
X1253433D1*
X1277782Y452304D2*
Y472378D1*
X1268209Y459003D1*
X1282557D1*
X1300207Y472378D2*
X1290656D1*
X1289705Y463778D1*
X1290656Y464729D1*
X1293530Y465702D1*
X1296382D1*
X1299256Y464729D1*
X1301179Y462828D1*
X1302130Y459954D1*
Y458052D1*
X1301179Y455178D1*
X1299256Y453255D1*
X1296382Y452304D1*
X1293530D1*
X1290656Y453255D1*
X1289705Y454228D1*
X1288733Y456129D1*
X1309278Y467603D2*
Y468554D1*
X1310229Y470477D1*
X1311180Y471428D1*
X1313103Y472378D1*
X1316928D1*
X1318829Y471428D1*
X1319780Y470477D1*
X1320752Y468554D1*
Y466652D1*
X1319780Y464729D1*
X1317878Y461877D1*
X1308306Y452304D1*
X1321703D1*
X1333627Y472400D2*
X1331725Y471472D1*
X1329802Y469549D1*
X1328851Y467625D1*
X1327879Y464751D1*
Y459976D1*
X1328851Y457102D1*
X1329802Y455201D1*
X1331725Y453277D1*
X1333627Y452327D1*
X1337451D1*
X1339375Y453277D1*
X1341276Y455201D1*
X1342227Y457102D1*
X1343199Y459976D1*
Y464751D1*
X1342227Y467625D1*
X1341276Y469549D1*
X1339375Y471472D1*
X1337451Y472400D1*
X1333627D1*
X1336501Y456151D2*
X1342227Y450403D1*
X2180367Y2857366D2*
Y2843018D1*
X2181317Y2840144D1*
X2183241Y2838242D1*
X2186115Y2837270D1*
X2188016D1*
X2190890Y2838242D1*
X2192813Y2840144D1*
X2193764Y2843018D1*
Y2857366D1*
X2203764Y2837270D2*
X2213337Y2857343D1*
X2199940D1*
X2340626Y2643082D2*
X2345423Y2622986D1*
X2350198Y2643082D1*
X2354974Y2622986D1*
X2359771Y2643082D1*
X2365947D2*
Y2622986D1*
X2384569Y2643082D2*
X2372122D1*
Y2622986D1*
Y2633509D2*
X2379772D1*
X2390745Y2643082D2*
Y2622986D1*
X2396921Y2633023D2*
X2407974D1*
X2426575Y2643082D2*
X2414150D1*
Y2622986D1*
X2426575D1*
X2414150Y2633509D2*
X2421799D1*
X2446148Y2640208D2*
X2444247Y2642131D1*
X2441373Y2643082D1*
X2437548D1*
X2434674Y2642131D1*
X2432750Y2640208D1*
Y2638306D1*
X2433723Y2636383D1*
X2434674Y2635432D1*
X2436575Y2634482D1*
X2442323Y2632558D1*
X2444247Y2631608D1*
X2445197Y2630635D1*
X2446148Y2628734D1*
Y2625860D1*
X2444247Y2623958D1*
X2441373Y2622986D1*
X2437548D1*
X2434674Y2623958D1*
X2432750Y2625860D1*
X2452323Y2632558D2*
X2460946D1*
X2463797Y2633509D1*
X2464770Y2634482D1*
X2465721Y2636383D1*
Y2639257D1*
X2464770Y2641158D1*
X2463797Y2642131D1*
X2460946Y2643082D1*
X2452323D1*
Y2622986D1*
X2471897Y2633023D2*
X2482950D1*
X2493901Y2643059D2*
X2491050Y2642109D1*
X2490077Y2640208D1*
Y2638284D1*
X2491050Y2636383D1*
X2492951Y2635410D1*
X2496775Y2634460D1*
X2499649Y2633509D1*
X2501551Y2631586D1*
X2502501Y2629684D1*
Y2626810D1*
X2501551Y2624909D1*
X2500600Y2623936D1*
X2497726Y2622986D1*
X2493901D1*
X2491050Y2623936D1*
X2490077Y2624909D1*
X2489126Y2626810D1*
Y2629684D1*
X2490077Y2631586D1*
X2492000Y2633509D1*
X2494852Y2634460D1*
X2498677Y2635410D1*
X2500600Y2636383D1*
X2501551Y2638284D1*
Y2640208D1*
X2500600Y2642109D1*
X2497726Y2643059D1*
X2493901D1*
X2509650Y2638284D2*
Y2639235D1*
X2510600Y2641158D1*
X2511551Y2642109D1*
X2513474Y2643059D1*
X2517299D1*
X2519200Y2642109D1*
X2520151Y2641158D1*
X2521124Y2639235D1*
Y2637334D1*
X2520151Y2635410D1*
X2518250Y2632558D1*
X2508677Y2622986D1*
X2522074D1*
X2539724Y2640208D2*
X2538773Y2642109D1*
X2535899Y2643059D1*
X2533998D1*
X2531124Y2642109D1*
X2529201Y2639235D1*
X2528250Y2634460D1*
Y2629684D1*
X2529201Y2625860D1*
X2531124Y2623936D1*
X2533998Y2622986D1*
X2534949D1*
X2537801Y2623936D1*
X2539724Y2625860D1*
X2540675Y2628734D1*
Y2629684D1*
X2539724Y2632558D1*
X2537801Y2634460D1*
X2534949Y2635410D1*
X2533998D1*
X2531124Y2634460D1*
X2529201Y2632558D1*
X2528250Y2629684D1*
X2558324Y2640208D2*
X2557374Y2642109D1*
X2554500Y2643059D1*
X2552598D1*
X2549724Y2642109D1*
X2547801Y2639235D1*
X2546850Y2634460D1*
Y2629684D1*
X2547801Y2625860D1*
X2549724Y2623936D1*
X2552598Y2622986D1*
X2553549D1*
X2556401Y2623936D1*
X2558324Y2625860D1*
X2559275Y2628734D1*
Y2629684D1*
X2558324Y2632558D1*
X2556401Y2634460D1*
X2553549Y2635410D1*
X2552598D1*
X2549724Y2634460D1*
X2547801Y2632558D1*
X2546850Y2629684D1*
X2155401Y2055793D2*
Y2041445D1*
X2156352Y2038571D1*
X2158275Y2036669D1*
X2161149Y2035697D1*
X2163051D1*
X2165925Y2036669D1*
X2167848Y2038571D1*
X2168799Y2041445D1*
Y2055793D1*
X2179750Y2055771D2*
X2176898Y2054820D1*
X2175925Y2052919D1*
Y2050995D1*
X2176898Y2049094D1*
X2178799Y2048121D1*
X2182624Y2047171D1*
X2185498Y2046220D1*
X2187399Y2044297D1*
X2188350Y2042395D1*
Y2039521D1*
X2187399Y2037620D1*
X2186448Y2036647D1*
X2183574Y2035697D1*
X2179750D1*
X2176898Y2036647D1*
X2175925Y2037620D1*
X2174974Y2039521D1*
Y2042395D1*
X2175925Y2044297D1*
X2177848Y2046220D1*
X2180700Y2047171D1*
X2184525Y2048121D1*
X2186448Y2049094D1*
X2187399Y2050995D1*
Y2052919D1*
X2186448Y2054820D1*
X2183574Y2055771D1*
X2179750D1*
X1016975Y426182D2*
Y411835D1*
X1017925Y408961D1*
X1019849Y407059D1*
X1022723Y406086D1*
X1024624D1*
X1027498Y407059D1*
X1029421Y408961D1*
X1030372Y411835D1*
Y426182D1*
X1048994Y419484D2*
X1048022Y416610D1*
X1046120Y414686D1*
X1043246Y413736D1*
X1042296D1*
X1039422Y414686D1*
X1037520Y416610D1*
X1036548Y419484D1*
Y420434D1*
X1037520Y423308D1*
X1039422Y425210D1*
X1042296Y426160D1*
X1043246D1*
X1046120Y425210D1*
X1048022Y423308D1*
X1048994Y419484D1*
Y414686D1*
X1048022Y409911D1*
X1046120Y407037D1*
X1043246Y406086D1*
X1041345D1*
X1038471Y407037D1*
X1037520Y408961D1*
X1107811Y445311D2*
X1087715Y437639D1*
X1107811Y429990D1*
X1101112Y432864D2*
Y442437D1*
X1098238Y451486D2*
Y460108D1*
X1097288Y462960D1*
X1096315Y463933D1*
X1094414Y464884D1*
X1091540D1*
X1089638Y463933D1*
X1088666Y462960D1*
X1087715Y460108D1*
Y451486D1*
X1107811D1*
X1087715Y471059D2*
X1107811D1*
Y477758D1*
X1106838Y480632D1*
X1104937Y482555D1*
X1103014Y483506D1*
X1100162Y484457D1*
X1095364D1*
X1092490Y483506D1*
X1090589Y482555D1*
X1088666Y480632D1*
X1087715Y477758D1*
Y471059D1*
X1090589Y504030D2*
X1088666Y502128D1*
X1087715Y499254D1*
Y495430D1*
X1088666Y492556D1*
X1090589Y490632D1*
X1092490D1*
X1094414Y491605D1*
X1095364Y492556D1*
X1096315Y494457D1*
X1098238Y500205D1*
X1099189Y502128D1*
X1100162Y503079D1*
X1102063Y504030D1*
X1104937D1*
X1106838Y502128D1*
X1107811Y499254D1*
Y495430D1*
X1106838Y492556D1*
X1104937Y490632D1*
X1097774Y510205D2*
Y521259D1*
X1094414Y539882D2*
X1097288Y538909D1*
X1099211Y537008D1*
X1100162Y534134D1*
Y533183D1*
X1099211Y530309D1*
X1097288Y528408D1*
X1094414Y527435D1*
X1093463D1*
X1090589Y528408D1*
X1088688Y530309D1*
X1087737Y533183D1*
Y534134D1*
X1088688Y537008D1*
X1090589Y538909D1*
X1094414Y539882D1*
X1099211D1*
X1103986Y538909D1*
X1106860Y537008D1*
X1107811Y534134D1*
Y532232D1*
X1106860Y529358D1*
X1104937Y528408D1*
X1094414Y558504D2*
X1097288Y557531D1*
X1099211Y555630D1*
X1100162Y552756D1*
Y551805D1*
X1099211Y548931D1*
X1097288Y547030D1*
X1094414Y546057D1*
X1093463D1*
X1090589Y547030D1*
X1088688Y548931D1*
X1087737Y551805D1*
Y552756D1*
X1088688Y555630D1*
X1090589Y557531D1*
X1094414Y558504D1*
X1099211D1*
X1103986Y557531D1*
X1106860Y555630D1*
X1107811Y552756D1*
Y550855D1*
X1106860Y547981D1*
X1104937Y547030D1*
X1090589Y576154D2*
X1088688Y575203D1*
X1087737Y572329D1*
Y570428D1*
X1088688Y567554D1*
X1091562Y565630D1*
X1096337Y564680D1*
X1101112D1*
X1104937Y565630D1*
X1106860Y567554D1*
X1107811Y570428D1*
Y571378D1*
X1106860Y574230D1*
X1104937Y576154D1*
X1102063Y577104D1*
X1101112D1*
X1098238Y576154D1*
X1096337Y574230D1*
X1095386Y571378D1*
Y570428D1*
X1096337Y567554D1*
X1098238Y565630D1*
X1101112Y564680D1*
X1087737Y589028D2*
X1088688Y586154D1*
X1091562Y584231D1*
X1096337Y583280D1*
X1099211D1*
X1103986Y584231D1*
X1106860Y586154D1*
X1107811Y589028D1*
Y590929D1*
X1106860Y593803D1*
X1103986Y595705D1*
X1099211Y596677D1*
X1096337D1*
X1091562Y595705D1*
X1088688Y593803D1*
X1087737Y590929D1*
Y589028D1*
X1091562Y595705D2*
X1103986Y584231D1*
X1605210Y1774543D2*
X1612859Y1764970D1*
Y1754447D1*
X1620508Y1774543D2*
X1612859Y1764970D1*
X1626684Y1770696D2*
X1628607Y1771669D1*
X1631481Y1774521D1*
Y1754447D1*
X1604702Y1496070D2*
Y1506571D1*
X1612351Y1500845D1*
Y1503719D1*
X1613302Y1505621D1*
X1614252Y1506571D1*
X1617126Y1507544D1*
X1619028D1*
X1621902Y1506571D1*
X1623825Y1504670D1*
X1624776Y1501796D1*
Y1498922D1*
X1623825Y1496070D1*
X1622852Y1495120D1*
X1620951Y1494147D1*
X1609477Y1514693D2*
X1608526D1*
X1606603Y1515643D1*
X1605652Y1516594D1*
X1604702Y1518517D1*
Y1522342D1*
X1605652Y1524243D1*
X1606603Y1525194D1*
X1608526Y1526166D1*
X1610428D1*
X1612351Y1525194D1*
X1615203Y1523292D1*
X1624776Y1513720D1*
Y1527117D1*
X1622852Y1534243D2*
X1623825Y1533293D1*
X1624776Y1534243D1*
X1623825Y1535216D1*
X1622852Y1534243D1*
X1624776Y1545217D2*
X1604702Y1554789D1*
Y1541392D1*
X1607554Y1572439D2*
X1605652Y1571488D1*
X1604702Y1568614D1*
Y1566713D1*
X1605652Y1563839D1*
X1608526Y1561916D1*
X1613302Y1560965D1*
X1618077D1*
X1621901Y1561916D1*
X1623825Y1563839D1*
X1624776Y1566713D1*
Y1567664D1*
X1623825Y1570515D1*
X1621901Y1572439D1*
X1619027Y1573389D1*
X1618077D1*
X1615203Y1572439D1*
X1613302Y1570515D1*
X1612351Y1567664D1*
Y1566713D1*
X1613302Y1563839D1*
X1615203Y1561916D1*
X1618077Y1560965D1*
X1604702Y1584340D2*
X1605652Y1581489D1*
X1607554Y1580516D1*
X1609477D1*
X1611378Y1581489D1*
X1612351Y1583390D1*
X1613302Y1587214D1*
X1614252Y1590088D1*
X1616176Y1591990D1*
X1618077Y1592940D1*
X1620951D1*
X1622852Y1591990D1*
X1623825Y1591039D1*
X1624775Y1588165D1*
Y1584340D1*
X1623825Y1581489D1*
X1622852Y1580516D1*
X1620951Y1579565D1*
X1618077D1*
X1616176Y1580516D1*
X1614252Y1582439D1*
X1613302Y1585291D1*
X1612351Y1589116D1*
X1611378Y1591039D1*
X1609477Y1591990D1*
X1607554D1*
X1605652Y1591039D1*
X1604702Y1588165D1*
Y1584340D1*
X1604680Y1599116D2*
X1624775D1*
X1604680Y1612513D2*
X1618077Y1599116D1*
X1613279Y1603891D2*
X1624775Y1612513D1*
X1604680Y1618689D2*
X1624775D1*
X1604680Y1632086D2*
X1624775D1*
X1614252Y1618689D2*
Y1632086D1*
X1611378Y1638262D2*
Y1648785D1*
X1624775Y1638262D1*
Y1648785D1*
X1560641Y1161429D2*
X1568290Y1151856D1*
Y1141333D1*
X1575939Y1161429D2*
X1568290Y1151856D1*
X1583088Y1156631D2*
Y1157582D1*
X1584038Y1159505D1*
X1584989Y1160456D1*
X1586912Y1161406D1*
X1590737D1*
X1592638Y1160456D1*
X1593589Y1159505D1*
X1594562Y1157582D1*
Y1155681D1*
X1593589Y1153757D1*
X1591687Y1150905D1*
X1582115Y1141333D1*
X1595512D1*
X1051318Y2364180D2*
X1050367Y2366081D1*
X1048444Y2368004D1*
X1046542Y2368955D1*
X1042718D1*
X1040794Y2368004D1*
X1038893Y2366081D1*
X1037920Y2364180D1*
X1036970Y2361305D1*
Y2356508D1*
X1037920Y2353656D1*
X1038893Y2351733D1*
X1040794Y2349832D1*
X1042718Y2348859D1*
X1046542D1*
X1048444Y2349832D1*
X1050367Y2351733D1*
X1051318Y2353656D1*
X1057493Y2365108D2*
X1059417Y2366081D1*
X1062291Y2368933D1*
Y2348859D1*
X1078039D2*
Y2368933D1*
X1068466Y2355557D1*
X1082814D1*
X1393580Y593486D2*
D139*
X1414627Y566691D1*
Y593486D2*
X1393580Y566691D1*
X1394267Y543973D2*
D140*
X1402856Y523877D1*
X1400004Y518140D1*
X1397119Y515254D1*
X1394267Y513829D1*
X1392808D1*
X1411478Y543973D2*
X1402856Y523877D1*
X1392808Y493967D2*
X1408593D1*
X1392808Y473871D1*
X1408593D1*
X437526Y1663386D2*
D138*
X445175Y1643290D1*
X452824Y1663386D1*
X473348Y1658611D2*
X472397Y1660512D1*
X470474Y1662435D1*
X468573Y1663386D1*
X464748D1*
X462825Y1662435D1*
X460923Y1660512D1*
X459951Y1658611D1*
X459000Y1655737D1*
Y1650939D1*
X459951Y1648087D1*
X460923Y1646164D1*
X462825Y1644263D1*
X464748Y1643290D1*
X468573D1*
X470474Y1644263D1*
X472397Y1646164D1*
X473348Y1648087D1*
X493872Y1658611D2*
X492921Y1660512D1*
X490998Y1662435D1*
X489096Y1663386D1*
X485272D1*
X483348Y1662435D1*
X481447Y1660512D1*
X480474Y1658611D1*
X479524Y1655737D1*
Y1650939D1*
X480474Y1648087D1*
X481447Y1646164D1*
X483348Y1644263D1*
X485272Y1643290D1*
X489096D1*
X490998Y1644263D1*
X492921Y1646164D1*
X493872Y1648087D1*
X544224Y1663386D2*
Y1643290D1*
X537526Y1663386D2*
X550923D1*
X571447Y1658611D2*
X570496Y1660512D1*
X568573Y1662435D1*
X566671Y1663386D1*
X562847D1*
X560923Y1662435D1*
X559022Y1660512D1*
X558049Y1658611D1*
X557099Y1655737D1*
Y1650939D1*
X558049Y1648087D1*
X559022Y1646164D1*
X560923Y1644263D1*
X562847Y1643290D1*
X566671D1*
X568573Y1644263D1*
X570496Y1646164D1*
X571447Y1648087D1*
X577622Y1663386D2*
Y1643290D1*
X591020Y1663386D2*
X577622Y1649989D1*
X582398Y1654786D2*
X591020Y1643290D1*
X639444Y1663386D2*
Y1643290D1*
X632745Y1663386D2*
X646142D1*
X652318Y1653813D2*
X660918D1*
X663792Y1654786D1*
X664765Y1655737D1*
X665715Y1657638D1*
Y1659561D1*
X664765Y1661463D1*
X663792Y1662435D1*
X660918Y1663386D1*
X652318D1*
Y1643290D1*
X659017Y1653813D2*
X665715Y1643290D1*
X685288Y1660512D2*
X683387Y1662435D1*
X680513Y1663386D1*
X676688D1*
X673814Y1662435D1*
X671891Y1660512D1*
Y1658611D1*
X672864Y1656687D1*
X673814Y1655737D1*
X675716Y1654786D1*
X681464Y1652863D1*
X683387Y1651912D1*
X684338Y1650939D1*
X685288Y1649038D1*
Y1646164D1*
X683387Y1644263D1*
X680513Y1643290D1*
X676688D1*
X673814Y1644263D1*
X671891Y1646164D1*
X698163Y1663386D2*
Y1643290D1*
X691464Y1663386D2*
X704861D1*
X745694D2*
Y1643290D1*
X738996Y1663386D2*
X752393D1*
X773867Y1643290D2*
Y1663386D1*
X766218Y1643290D1*
X758569Y1663386D1*
Y1643290D1*
X793440Y1660512D2*
X791539Y1662435D1*
X788665Y1663386D1*
X784840D1*
X781966Y1662435D1*
X780043Y1660512D1*
Y1658611D1*
X781016Y1656687D1*
X781966Y1655737D1*
X783868Y1654786D1*
X789616Y1652863D1*
X791539Y1651912D1*
X792490Y1650939D1*
X793440Y1649038D1*
Y1646164D1*
X791539Y1644263D1*
X788665Y1643290D1*
X784840D1*
X781966Y1644263D1*
X780043Y1646164D1*
X1159593Y1658611D2*
X1158642Y1660512D1*
X1156719Y1662435D1*
X1154818Y1663386D1*
X1150993D1*
X1149070Y1662435D1*
X1147168Y1660512D1*
X1146196Y1658611D1*
X1145245Y1655737D1*
Y1650939D1*
X1146196Y1648087D1*
X1147168Y1646164D1*
X1149070Y1644263D1*
X1150993Y1643290D1*
X1154818D1*
X1156719Y1644263D1*
X1158642Y1646164D1*
X1159593Y1648087D1*
Y1650939D1*
X1154818D1*
X1179166Y1663386D2*
Y1643290D1*
X1165769Y1663386D1*
Y1643290D1*
X1185342Y1663386D2*
Y1643290D1*
X1192040D1*
X1194914Y1644263D1*
X1196838Y1646164D1*
X1197788Y1648087D1*
X1198739Y1650939D1*
Y1655737D1*
X1197788Y1658611D1*
X1196838Y1660512D1*
X1194914Y1662435D1*
X1192040Y1663386D1*
X1185342D1*
X851944D2*
Y1643290D1*
X845245Y1663386D2*
X858642D1*
X864818D2*
Y1643290D1*
X871517D1*
X874391Y1644263D1*
X876314Y1646164D1*
X877265Y1648087D1*
X878215Y1650939D1*
Y1655737D1*
X877265Y1658611D1*
X876314Y1660512D1*
X874391Y1662435D1*
X871517Y1663386D1*
X864818D1*
X884391D2*
Y1643290D1*
X945694Y1663386D2*
Y1643290D1*
X938996Y1663386D2*
X952393D1*
X958569D2*
Y1643290D1*
X965267D1*
X968141Y1644263D1*
X970065Y1646164D1*
X971015Y1648087D1*
X971966Y1650939D1*
Y1655737D1*
X971015Y1658611D1*
X970065Y1660512D1*
X968141Y1662435D1*
X965267Y1663386D1*
X958569D1*
X983890D2*
X981966Y1662435D1*
X980065Y1660512D1*
X979092Y1658611D1*
X978142Y1655737D1*
Y1650939D1*
X979092Y1648087D1*
X980065Y1646164D1*
X981966Y1644263D1*
X983890Y1643290D1*
X987714D1*
X989616Y1644263D1*
X991539Y1646164D1*
X992490Y1648087D1*
X993440Y1650939D1*
Y1655737D1*
X992490Y1658611D1*
X991539Y1660512D1*
X989616Y1662435D1*
X987714Y1663386D1*
X983890D1*
X1045245Y1653813D2*
X1053845D1*
X1056719Y1654786D1*
X1057692Y1655737D1*
X1058642Y1657638D1*
Y1659561D1*
X1057692Y1661463D1*
X1056719Y1662435D1*
X1053845Y1663386D1*
X1045245D1*
Y1643290D1*
X1051944Y1653813D2*
X1058642Y1643290D1*
X1078215Y1660512D2*
X1076314Y1662435D1*
X1073440Y1663386D1*
X1069615D1*
X1066741Y1662435D1*
X1064818Y1660512D1*
Y1658611D1*
X1065791Y1656687D1*
X1066741Y1655737D1*
X1068643Y1654786D1*
X1074391Y1652863D1*
X1076314Y1651912D1*
X1077265Y1650939D1*
X1078215Y1649038D1*
Y1646164D1*
X1076314Y1644263D1*
X1073440Y1643290D1*
X1069615D1*
X1066741Y1644263D1*
X1064818Y1646164D1*
X1091090Y1663386D2*
Y1643290D1*
X1084391Y1663386D2*
X1097788D1*
X1045245Y1668626D2*
X1103964D1*
X3007485Y2604704D2*
X3015134Y2584608D1*
X3022784Y2604704D1*
X3028959D2*
Y2584608D1*
X3048532Y2604704D2*
Y2584608D1*
X3035135Y2604704D1*
Y2584608D1*
X3007485Y2199997D2*
X3016107D1*
X3018959Y2200947D1*
X3019932Y2201920D1*
X3020882Y2203821D1*
Y2206695D1*
X3019932Y2208597D1*
X3018959Y2209569D1*
X3016107Y2210520D1*
X3007485D1*
Y2190424D1*
X3028031Y2205722D2*
Y2206673D1*
X3028981Y2208597D1*
X3029932Y2209547D1*
X3031856Y2210498D1*
X3035680D1*
X3037581Y2209547D1*
X3038532Y2208597D1*
X3039505Y2206673D1*
Y2204772D1*
X3038532Y2202848D1*
X3036631Y2199997D1*
X3027058Y2190424D1*
X3040455D1*
X3047582Y2192347D2*
X3046631Y2191375D1*
X3047582Y2190424D1*
X3048555Y2191375D1*
X3047582Y2192347D1*
X3054730Y2206673D2*
X3056654Y2207646D1*
X3059528Y2210498D1*
Y2190424D1*
X3007485Y2162930D2*
X3016107D1*
X3018959Y2163880D1*
X3019932Y2164853D1*
X3020882Y2166754D1*
Y2169628D1*
X3019932Y2171530D1*
X3018959Y2172502D1*
X3016107Y2173453D1*
X3007485D1*
Y2153357D1*
X3027058Y2173453D2*
X3031856Y2153357D1*
X3036631Y2173453D1*
X3041406Y2153357D1*
X3046203Y2173453D1*
X3067678Y2153357D2*
Y2173453D1*
X3060028Y2153357D1*
X3052379Y2173453D1*
Y2153357D1*
X3074826Y2168656D2*
Y2169606D1*
X3075777Y2171530D1*
X3076728Y2172480D1*
X3078651Y2173431D1*
X3082476D1*
X3084377Y2172480D1*
X3085327Y2171530D1*
X3086300Y2169606D1*
Y2167705D1*
X3085327Y2165782D1*
X3083426Y2162930D1*
X3073853Y2153357D1*
X3087251D1*
X3007485Y2106247D2*
X3016107D1*
X3018959Y2107198D1*
X3019932Y2108171D1*
X3020882Y2110072D1*
Y2112946D1*
X3019932Y2114847D1*
X3018959Y2115820D1*
X3016107Y2116771D1*
X3007485D1*
Y2096675D1*
X3028031Y2111973D2*
Y2112924D1*
X3028981Y2114847D1*
X3029932Y2115798D1*
X3031856Y2116748D1*
X3035680D1*
X3037581Y2115798D1*
X3038532Y2114847D1*
X3039505Y2112924D1*
Y2111023D1*
X3038532Y2109099D1*
X3036631Y2106247D1*
X3027058Y2096675D1*
X3040455D1*
X3047582Y2098598D2*
X3046631Y2097625D1*
X3047582Y2096675D1*
X3048555Y2097625D1*
X3047582Y2098598D1*
X3055703Y2111973D2*
Y2112924D1*
X3056654Y2114847D1*
X3057604Y2115798D1*
X3059528Y2116748D1*
X3063352D1*
X3065254Y2115798D1*
X3066204Y2114847D1*
X3067177Y2112924D1*
Y2111023D1*
X3066204Y2109099D1*
X3064303Y2106247D1*
X3054730Y2096675D1*
X3068128D1*
X3007485Y2069180D2*
X3016107D1*
X3018959Y2070131D1*
X3019932Y2071104D1*
X3020882Y2073005D1*
Y2075879D1*
X3019932Y2077780D1*
X3018959Y2078753D1*
X3016107Y2079704D1*
X3007485D1*
Y2059608D1*
X3027058Y2079704D2*
X3031856Y2059608D1*
X3036631Y2079704D1*
X3041406Y2059608D1*
X3046203Y2079704D1*
X3067678Y2059608D2*
Y2079704D1*
X3060028Y2059608D1*
X3052379Y2079704D1*
Y2059608D1*
X3075777Y2079682D2*
X3086278D1*
X3080552Y2072032D1*
X3083426D1*
X3085327Y2071082D1*
X3086278Y2070131D1*
X3087251Y2067257D1*
Y2065356D1*
X3086278Y2062482D1*
X3084377Y2060558D1*
X3081503Y2059608D1*
X3078629D1*
X3075777Y2060558D1*
X3074826Y2061531D1*
X3073853Y2063432D1*
X3007485Y2406247D2*
X3016107D1*
X3018959Y2407198D1*
X3019932Y2408171D1*
X3020882Y2410072D1*
Y2412946D1*
X3019932Y2414847D1*
X3018959Y2415820D1*
X3016107Y2416771D1*
X3007485D1*
Y2396675D1*
X3027058Y2412924D2*
X3028981Y2413897D1*
X3031856Y2416748D1*
Y2396675D1*
X3038982Y2398598D2*
X3038031Y2397625D1*
X3038982Y2396675D1*
X3039955Y2397625D1*
X3038982Y2398598D1*
X3047103Y2411973D2*
Y2412924D1*
X3048054Y2414847D1*
X3049004Y2415798D1*
X3050928Y2416748D1*
X3054752D1*
X3056654Y2415798D1*
X3057604Y2414847D1*
X3058577Y2412924D1*
Y2411023D1*
X3057604Y2409099D1*
X3055703Y2406247D1*
X3046130Y2396675D1*
X3059528D1*
X3075276D2*
Y2416748D1*
X3065703Y2403373D1*
X3080051D1*
X3022784Y2565756D2*
X3007485Y2557134D1*
X3022784Y2548534D1*
X3040433Y2564330D2*
X3039483Y2566231D1*
X3036609Y2567182D1*
X3034707D1*
X3031833Y2566231D1*
X3029910Y2563357D1*
X3028959Y2558582D1*
Y2553806D1*
X3029910Y2549982D1*
X3031833Y2548058D1*
X3034707Y2547108D1*
X3035658D1*
X3038510Y2548058D1*
X3040433Y2549982D1*
X3041384Y2552856D1*
Y2553806D1*
X3040433Y2556680D1*
X3038510Y2558582D1*
X3035658Y2559532D1*
X3034707D1*
X3031833Y2558582D1*
X3029910Y2556680D1*
X3028959Y2553806D1*
X3047560Y2567204D2*
X3055209Y2547108D1*
X3062858Y2567204D1*
X3007485Y2523454D2*
X3015134Y2503358D1*
X3022784Y2523454D1*
X3043307Y2518679D2*
X3042357Y2520580D1*
X3040433Y2522504D1*
X3038532Y2523454D1*
X3034707D1*
X3032784Y2522504D1*
X3030883Y2520580D1*
X3029910Y2518679D1*
X3028959Y2515805D1*
Y2511008D1*
X3029910Y2508156D1*
X3030883Y2506232D1*
X3032784Y2504331D1*
X3034707Y2503358D1*
X3038532D1*
X3040433Y2504331D1*
X3042357Y2506232D1*
X3043307Y2508156D1*
X3063831Y2518679D2*
X3062880Y2520580D1*
X3060957Y2522504D1*
X3059056Y2523454D1*
X3055231D1*
X3053308Y2522504D1*
X3051406Y2520580D1*
X3050434Y2518679D1*
X3049483Y2515805D1*
Y2511008D1*
X3050434Y2508156D1*
X3051406Y2506232D1*
X3053308Y2504331D1*
X3055231Y2503358D1*
X3059056D1*
X3060957Y2504331D1*
X3062880Y2506232D1*
X3063831Y2508156D1*
X3009408Y2485932D2*
X3019910D1*
X3014184Y2478283D1*
X3017058D1*
X3018959Y2477332D1*
X3019910Y2476382D1*
X3020882Y2473508D1*
Y2471606D1*
X3019910Y2468732D1*
X3018008Y2466809D1*
X3015134Y2465858D1*
X3012260D1*
X3009408Y2466809D1*
X3008458Y2467782D1*
X3007485Y2469683D1*
X3028009Y2467782D2*
X3027058Y2466809D1*
X3028009Y2465858D1*
X3028981Y2466809D1*
X3028009Y2467782D1*
X3037081Y2485932D2*
X3047582D1*
X3041856Y2478283D1*
X3044730D1*
X3046631Y2477332D1*
X3047582Y2476382D1*
X3048555Y2473508D1*
Y2471606D1*
X3047582Y2468732D1*
X3045681Y2466809D1*
X3042806Y2465858D1*
X3039932D1*
X3037081Y2466809D1*
X3036130Y2467782D1*
X3035157Y2469683D1*
X3054730Y2485954D2*
X3062380Y2465858D1*
X3070029Y2485954D1*
X3013233Y2379704D2*
X3011332Y2378775D1*
X3009408Y2376852D1*
X3008458Y2374928D1*
X3007485Y2372054D1*
Y2367279D1*
X3008458Y2364405D1*
X3009408Y2362504D1*
X3011332Y2360580D1*
X3013233Y2359630D1*
X3017058D1*
X3018981Y2360580D1*
X3020882Y2362504D1*
X3021833Y2364405D1*
X3022806Y2367279D1*
Y2372054D1*
X3021833Y2374928D1*
X3020882Y2376852D1*
X3018981Y2378775D1*
X3017058Y2379704D1*
X3013233D1*
X3016107Y2363454D2*
X3021833Y2357706D1*
X3028981Y2379704D2*
Y2359608D1*
X3035157Y2379704D2*
Y2359608D1*
X3041856D1*
X3044730Y2360580D1*
X3046653Y2362482D1*
X3047604Y2364405D1*
X3048555Y2367257D1*
Y2372054D1*
X3047604Y2374928D1*
X3046653Y2376830D1*
X3044730Y2378753D1*
X3041856Y2379704D1*
X3035157D1*
X3054730D2*
X3068128Y2359608D1*
Y2379704D2*
X3054730Y2359608D1*
X3007485Y2306247D2*
X3016107D1*
X3018959Y2307198D1*
X3019932Y2308171D1*
X3020882Y2310072D1*
Y2312946D1*
X3019932Y2314847D1*
X3018959Y2315820D1*
X3016107Y2316771D1*
X3007485D1*
Y2296675D1*
X3028031Y2311973D2*
Y2312924D1*
X3028981Y2314847D1*
X3029932Y2315798D1*
X3031856Y2316748D1*
X3035680D1*
X3037581Y2315798D1*
X3038532Y2314847D1*
X3039505Y2312924D1*
Y2311023D1*
X3038532Y2309099D1*
X3036631Y2306247D1*
X3027058Y2296675D1*
X3040455D1*
X3047582Y2298598D2*
X3046631Y2297625D1*
X3047582Y2296675D1*
X3048555Y2297625D1*
X3047582Y2298598D1*
X3060478Y2316748D2*
X3057604Y2315798D1*
X3055681Y2312924D1*
X3054730Y2308148D1*
Y2305274D1*
X3055681Y2300499D1*
X3057604Y2297625D1*
X3060478Y2296675D1*
X3062380D1*
X3065254Y2297625D1*
X3067155Y2300499D1*
X3068128Y2305274D1*
Y2308148D1*
X3067155Y2312924D1*
X3065254Y2315798D1*
X3062380Y2316748D1*
X3060478D1*
X3067155Y2312924D2*
X3055681Y2300499D1*
X3007485Y2269180D2*
X3016107D1*
X3018959Y2270131D1*
X3019932Y2271104D1*
X3020882Y2273005D1*
Y2275879D1*
X3019932Y2277780D1*
X3018959Y2278753D1*
X3016107Y2279704D1*
X3007485D1*
Y2259608D1*
X3027058Y2279704D2*
X3031856Y2259608D1*
X3036631Y2279704D1*
X3041406Y2259608D1*
X3046203Y2279704D1*
X3067678Y2259608D2*
Y2279704D1*
X3060028Y2259608D1*
X3052379Y2279704D1*
Y2259608D1*
X3073853Y2275857D2*
X3075777Y2276830D1*
X3078651Y2279682D1*
Y2259608D1*
X3007485Y1999998D2*
X3016107D1*
X3018959Y2000949D1*
X3019932Y2001921D1*
X3020882Y2003823D1*
Y2006697D1*
X3019932Y2008598D1*
X3018959Y2009571D1*
X3016107Y2010521D1*
X3007485D1*
Y1990425D1*
X3028031Y2005724D2*
Y2006674D1*
X3028981Y2008598D1*
X3029932Y2009548D1*
X3031856Y2010499D1*
X3035680D1*
X3037581Y2009548D1*
X3038532Y2008598D1*
X3039505Y2006674D1*
Y2004773D1*
X3038532Y2002850D1*
X3036631Y1999998D1*
X3027058Y1990425D1*
X3040455D1*
X3047582Y1992349D2*
X3046631Y1991376D1*
X3047582Y1990425D1*
X3048555Y1991376D1*
X3047582Y1992349D1*
X3056654Y2010499D2*
X3067155D1*
X3061429Y2002850D1*
X3064303D1*
X3066204Y2001899D1*
X3067155Y2000949D1*
X3068128Y1998074D1*
Y1996173D1*
X3067155Y1993299D1*
X3065254Y1991376D1*
X3062380Y1990425D1*
X3059506D1*
X3056654Y1991376D1*
X3055703Y1992349D1*
X3054730Y1994250D1*
X3007485Y1962931D2*
X3016107D1*
X3018959Y1963882D1*
X3019932Y1964854D1*
X3020882Y1966756D1*
Y1969630D1*
X3019932Y1971531D1*
X3018959Y1972504D1*
X3016107Y1973454D1*
X3007485D1*
Y1953358D1*
X3027058Y1973454D2*
X3031856Y1953358D1*
X3036631Y1973454D1*
X3041406Y1953358D1*
X3046203Y1973454D1*
X3067678Y1953358D2*
Y1973454D1*
X3060028Y1953358D1*
X3052379Y1973454D1*
Y1953358D1*
X3083426D2*
Y1973432D1*
X3073853Y1960057D1*
X3088201D1*
X3007485Y1906249D2*
X3016107D1*
X3018959Y1907199D1*
X3019932Y1908172D1*
X3020882Y1910073D1*
Y1912947D1*
X3019932Y1914848D1*
X3018959Y1915821D1*
X3016107Y1916772D1*
X3007485D1*
Y1896676D1*
X3028031Y1911974D2*
Y1912925D1*
X3028981Y1914848D1*
X3029932Y1915799D1*
X3031856Y1916750D1*
X3035680D1*
X3037581Y1915799D1*
X3038532Y1914848D1*
X3039505Y1912925D1*
Y1911024D1*
X3038532Y1909100D1*
X3036631Y1906249D1*
X3027058Y1896676D1*
X3040455D1*
X3047582Y1898599D2*
X3046631Y1897626D1*
X3047582Y1896676D1*
X3048555Y1897626D1*
X3047582Y1898599D1*
X3064303Y1896676D2*
Y1916750D1*
X3054730Y1903375D1*
X3069078D1*
X3007485Y1869182D2*
X3016107D1*
X3018959Y1870132D1*
X3019932Y1871105D1*
X3020882Y1873006D1*
Y1875880D1*
X3019932Y1877782D1*
X3018959Y1878754D1*
X3016107Y1879705D1*
X3007485D1*
Y1859609D1*
X3027058Y1879705D2*
X3031856Y1859609D1*
X3036631Y1879705D1*
X3041406Y1859609D1*
X3046203Y1879705D1*
X3067678Y1859609D2*
Y1879705D1*
X3060028Y1859609D1*
X3052379Y1879705D1*
Y1859609D1*
X3085327Y1879683D2*
X3075777D1*
X3074826Y1871083D1*
X3075777Y1872034D1*
X3078651Y1873006D1*
X3081503D1*
X3084377Y1872034D1*
X3086300Y1870132D1*
X3087251Y1867258D1*
Y1865357D1*
X3086300Y1862483D1*
X3084377Y1860560D1*
X3081503Y1859609D1*
X3078651D1*
X3075777Y1860560D1*
X3074826Y1861532D1*
X3073853Y1863434D1*
X3007485Y1799998D2*
X3016107D1*
X3018959Y1800949D1*
X3019932Y1801921D1*
X3020882Y1803823D1*
Y1806697D1*
X3019932Y1808598D1*
X3018959Y1809571D1*
X3016107Y1810521D1*
X3007485D1*
Y1790425D1*
X3028031Y1805724D2*
Y1806674D1*
X3028981Y1808598D1*
X3029932Y1809548D1*
X3031856Y1810499D1*
X3035680D1*
X3037581Y1809548D1*
X3038532Y1808598D1*
X3039505Y1806674D1*
Y1804773D1*
X3038532Y1802850D1*
X3036631Y1799998D1*
X3027058Y1790425D1*
X3040455D1*
X3047582Y1792349D2*
X3046631Y1791376D1*
X3047582Y1790425D1*
X3048555Y1791376D1*
X3047582Y1792349D1*
X3066204Y1810499D2*
X3056654D1*
X3055703Y1801899D1*
X3056654Y1802850D1*
X3059528Y1803823D1*
X3062380D1*
X3065254Y1802850D1*
X3067177Y1800949D1*
X3068128Y1798074D1*
Y1796173D1*
X3067177Y1793299D1*
X3065254Y1791376D1*
X3062380Y1790425D1*
X3059528D1*
X3056654Y1791376D1*
X3055703Y1792349D1*
X3054730Y1794250D1*
X3007485Y1762931D2*
X3016107D1*
X3018959Y1763882D1*
X3019932Y1764854D1*
X3020882Y1766756D1*
Y1769630D1*
X3019932Y1771531D1*
X3018959Y1772504D1*
X3016107Y1773454D1*
X3007485D1*
Y1753358D1*
X3027058Y1773454D2*
X3031856Y1753358D1*
X3036631Y1773454D1*
X3041406Y1753358D1*
X3046203Y1773454D1*
X3067678Y1753358D2*
Y1773454D1*
X3060028Y1753358D1*
X3052379Y1773454D1*
Y1753358D1*
X3085327Y1770580D2*
X3084377Y1772482D1*
X3081503Y1773432D1*
X3079602D1*
X3076728Y1772482D1*
X3074804Y1769608D1*
X3073853Y1764832D1*
Y1760057D1*
X3074804Y1756232D1*
X3076728Y1754309D1*
X3079602Y1753358D1*
X3080552D1*
X3083404Y1754309D1*
X3085327Y1756232D1*
X3086278Y1759106D1*
Y1760057D1*
X3085327Y1762931D1*
X3083404Y1764832D1*
X3080552Y1765783D1*
X3079602D1*
X3076728Y1764832D1*
X3074804Y1762931D1*
X3073853Y1760057D1*
X3007485Y1706247D2*
X3016107D1*
X3018959Y1707198D1*
X3019932Y1708171D1*
X3020882Y1710072D1*
Y1712946D1*
X3019932Y1714847D1*
X3018959Y1715820D1*
X3016107Y1716771D1*
X3007485D1*
Y1696675D1*
X3028031Y1711973D2*
Y1712924D1*
X3028981Y1714847D1*
X3029932Y1715798D1*
X3031856Y1716748D1*
X3035680D1*
X3037581Y1715798D1*
X3038532Y1714847D1*
X3039505Y1712924D1*
Y1711023D1*
X3038532Y1709099D1*
X3036631Y1706247D1*
X3027058Y1696675D1*
X3040455D1*
X3047582Y1698598D2*
X3046631Y1697625D1*
X3047582Y1696675D1*
X3048555Y1697625D1*
X3047582Y1698598D1*
X3066204Y1713897D2*
X3065254Y1715798D1*
X3062380Y1716748D1*
X3060478D1*
X3057604Y1715798D1*
X3055681Y1712924D1*
X3054730Y1708148D1*
Y1703373D1*
X3055681Y1699549D1*
X3057604Y1697625D1*
X3060478Y1696675D1*
X3061429D1*
X3064281Y1697625D1*
X3066204Y1699549D1*
X3067155Y1702423D1*
Y1703373D1*
X3066204Y1706247D1*
X3064281Y1708148D1*
X3061429Y1709099D1*
X3060478D1*
X3057604Y1708148D1*
X3055681Y1706247D1*
X3054730Y1703373D1*
X3007485Y1669180D2*
X3016107D1*
X3018959Y1670131D1*
X3019932Y1671104D1*
X3020882Y1673005D1*
Y1675879D1*
X3019932Y1677780D1*
X3018959Y1678753D1*
X3016107Y1679704D1*
X3007485D1*
Y1659608D1*
X3041406Y1674928D2*
X3040455Y1676830D1*
X3038532Y1678753D1*
X3036631Y1679704D1*
X3032806D1*
X3030883Y1678753D1*
X3028981Y1676830D1*
X3028009Y1674928D1*
X3027058Y1672054D1*
Y1667257D1*
X3028009Y1664405D1*
X3028981Y1662482D1*
X3030883Y1660580D1*
X3032806Y1659608D1*
X3036631D1*
X3038532Y1660580D1*
X3040455Y1662482D1*
X3041406Y1664405D1*
X3062902Y1659608D2*
X3055231Y1679704D1*
X3047582Y1659608D1*
X3050456Y1666306D2*
X3060028D1*
X3069078Y1669180D2*
X3077700D1*
X3080552Y1670131D1*
X3081525Y1671104D1*
X3082476Y1673005D1*
Y1675879D1*
X3081525Y1677780D1*
X3080552Y1678753D1*
X3077700Y1679704D1*
X3069078D1*
Y1659608D1*
X3007485Y1606247D2*
X3016107D1*
X3018959Y1607198D1*
X3019932Y1608171D1*
X3020882Y1610072D1*
Y1612946D1*
X3019932Y1614847D1*
X3018959Y1615820D1*
X3016107Y1616771D1*
X3007485D1*
Y1596675D1*
X3028031Y1611973D2*
Y1612924D1*
X3028981Y1614847D1*
X3029932Y1615798D1*
X3031856Y1616748D1*
X3035680D1*
X3037581Y1615798D1*
X3038532Y1614847D1*
X3039505Y1612924D1*
Y1611023D1*
X3038532Y1609099D1*
X3036631Y1606247D1*
X3027058Y1596675D1*
X3040455D1*
X3047582Y1598598D2*
X3046631Y1597625D1*
X3047582Y1596675D1*
X3048555Y1597625D1*
X3047582Y1598598D1*
X3058555Y1596675D2*
X3068128Y1616748D1*
X3054730D1*
X3021833Y1574928D2*
X3020882Y1576830D1*
X3018959Y1578753D1*
X3017058Y1579704D1*
X3013233D1*
X3011310Y1578753D1*
X3009408Y1576830D1*
X3008436Y1574928D1*
X3007485Y1572054D1*
Y1567257D1*
X3008436Y1564405D1*
X3009408Y1562482D1*
X3011310Y1560580D1*
X3013233Y1559608D1*
X3017058D1*
X3018959Y1560580D1*
X3020882Y1562482D1*
X3021833Y1564405D1*
X3028009Y1570131D2*
X3036609D1*
X3039483Y1571104D1*
X3040455Y1572054D1*
X3041406Y1573956D1*
Y1575879D1*
X3040455Y1577780D1*
X3039483Y1578753D1*
X3036609Y1579704D1*
X3028009D1*
Y1559608D1*
X3034707Y1570131D2*
X3041406Y1559608D1*
X3047582Y1579704D2*
X3060979Y1559608D1*
Y1579704D2*
X3047582Y1559608D1*
X3068128Y1574906D2*
Y1575857D1*
X3069078Y1577780D1*
X3070029Y1578731D1*
X3071952Y1579682D1*
X3075777D1*
X3077678Y1578731D1*
X3078629Y1577780D1*
X3079602Y1575857D1*
Y1573956D1*
X3078629Y1572032D1*
X3076728Y1569180D1*
X3067155Y1559608D1*
X3080552D1*
X3007485Y1506247D2*
X3016107D1*
X3018959Y1507198D1*
X3019932Y1508171D1*
X3020882Y1510072D1*
Y1512946D1*
X3019932Y1514847D1*
X3018959Y1515820D1*
X3016107Y1516771D1*
X3007485D1*
Y1496675D1*
X3028031Y1511973D2*
Y1512924D1*
X3028981Y1514847D1*
X3029932Y1515798D1*
X3031856Y1516748D1*
X3035680D1*
X3037581Y1515798D1*
X3038532Y1514847D1*
X3039505Y1512924D1*
Y1511023D1*
X3038532Y1509099D1*
X3036631Y1506247D1*
X3027058Y1496675D1*
X3040455D1*
X3047582Y1498598D2*
X3046631Y1497625D1*
X3047582Y1496675D1*
X3048555Y1497625D1*
X3047582Y1498598D1*
X3059506Y1516748D2*
X3056654Y1515798D1*
X3055681Y1513897D1*
Y1511973D1*
X3056654Y1510072D1*
X3058555Y1509099D1*
X3062380Y1508148D1*
X3065254Y1507198D1*
X3067155Y1505274D1*
X3068105Y1503373D1*
Y1500499D1*
X3067155Y1498598D1*
X3066204Y1497625D1*
X3063330Y1496675D1*
X3059506D1*
X3056654Y1497625D1*
X3055681Y1498598D1*
X3054730Y1500499D1*
Y1503373D1*
X3055681Y1505274D1*
X3057604Y1507198D1*
X3060456Y1508148D1*
X3064281Y1509099D1*
X3066204Y1510072D1*
X3067155Y1511973D1*
Y1513897D1*
X3066204Y1515798D1*
X3063330Y1516748D1*
X3059506D1*
X3014184Y1479704D2*
Y1459608D1*
X3007485Y1479704D2*
X3020882D1*
X3027058D2*
X3040455Y1459608D1*
Y1479704D2*
X3027058Y1459608D1*
X3046631Y1479704D2*
Y1459608D1*
X3053330D1*
X3056204Y1460580D1*
X3058127Y1462482D1*
X3059078Y1464405D1*
X3060028Y1467257D1*
Y1472054D1*
X3059078Y1474928D1*
X3058127Y1476830D1*
X3056204Y1478753D1*
X3053330Y1479704D1*
X3046631D1*
X3067177Y1474906D2*
Y1475857D1*
X3068128Y1477780D1*
X3069078Y1478731D1*
X3071002Y1479682D1*
X3074826D1*
X3076728Y1478731D1*
X3077678Y1477780D1*
X3078651Y1475857D1*
Y1473956D1*
X3077678Y1472032D1*
X3075777Y1469180D1*
X3066204Y1459608D1*
X3079602D1*
X3007485Y1406247D2*
X3016107D1*
X3018959Y1407198D1*
X3019932Y1408171D1*
X3020882Y1410072D1*
Y1412946D1*
X3019932Y1414847D1*
X3018959Y1415820D1*
X3016107Y1416771D1*
X3007485D1*
Y1396675D1*
X3028031Y1411973D2*
Y1412924D1*
X3028981Y1414847D1*
X3029932Y1415798D1*
X3031856Y1416748D1*
X3035680D1*
X3037581Y1415798D1*
X3038532Y1414847D1*
X3039505Y1412924D1*
Y1411023D1*
X3038532Y1409099D1*
X3036631Y1406247D1*
X3027058Y1396675D1*
X3040455D1*
X3047582Y1398598D2*
X3046631Y1397625D1*
X3047582Y1396675D1*
X3048555Y1397625D1*
X3047582Y1398598D1*
X3067177Y1410072D2*
X3066204Y1407198D1*
X3064303Y1405274D1*
X3061429Y1404324D1*
X3060478D1*
X3057604Y1405274D1*
X3055703Y1407198D1*
X3054730Y1410072D1*
Y1411023D1*
X3055703Y1413897D1*
X3057604Y1415798D1*
X3060478Y1416748D1*
X3061429D1*
X3064303Y1415798D1*
X3066204Y1413897D1*
X3067177Y1410072D1*
Y1405274D1*
X3066204Y1400499D1*
X3064303Y1397625D1*
X3061429Y1396675D1*
X3059528D1*
X3056654Y1397625D1*
X3055703Y1399549D1*
X3007485Y1370131D2*
X3016085D1*
X3018959Y1371104D1*
X3019932Y1372054D1*
X3020882Y1373956D1*
Y1375879D1*
X3019932Y1377780D1*
X3018959Y1378753D1*
X3016085Y1379704D1*
X3007485D1*
Y1359608D1*
X3014184Y1370131D2*
X3020882Y1359608D1*
X3027058Y1379704D2*
X3040455Y1359608D1*
Y1379704D2*
X3027058Y1359608D1*
X3046631Y1379704D2*
Y1359608D1*
X3053330D1*
X3056204Y1360580D1*
X3058127Y1362482D1*
X3059078Y1364405D1*
X3060028Y1367257D1*
Y1372054D1*
X3059078Y1374928D1*
X3058127Y1376830D1*
X3056204Y1378753D1*
X3053330Y1379704D1*
X3046631D1*
X3067177Y1374906D2*
Y1375857D1*
X3068128Y1377780D1*
X3069078Y1378731D1*
X3071002Y1379682D1*
X3074826D1*
X3076728Y1378731D1*
X3077678Y1377780D1*
X3078651Y1375857D1*
Y1373956D1*
X3077678Y1372032D1*
X3075777Y1369180D1*
X3066204Y1359608D1*
X3079602D1*
X3007485Y1106247D2*
X3016107D1*
X3018959Y1107198D1*
X3019932Y1108171D1*
X3020882Y1110072D1*
Y1112946D1*
X3019932Y1114847D1*
X3018959Y1115820D1*
X3016107Y1116771D1*
X3007485D1*
Y1096675D1*
X3032806Y1116748D2*
X3029932Y1115798D1*
X3028009Y1112924D1*
X3027058Y1108148D1*
Y1105274D1*
X3028009Y1100499D1*
X3029932Y1097625D1*
X3032806Y1096675D1*
X3034707D1*
X3037581Y1097625D1*
X3039483Y1100499D1*
X3040455Y1105274D1*
Y1108148D1*
X3039483Y1112924D1*
X3037581Y1115798D1*
X3034707Y1116748D1*
X3032806D1*
X3039483Y1112924D2*
X3028009Y1100499D1*
X3047582Y1098598D2*
X3046631Y1097625D1*
X3047582Y1096675D1*
X3048555Y1097625D1*
X3047582Y1098598D1*
X3054730Y1112924D2*
X3056654Y1113897D1*
X3059528Y1116748D1*
Y1096675D1*
X3070479Y1116748D2*
X3067627Y1115798D1*
X3066654Y1113897D1*
Y1111973D1*
X3067627Y1110072D1*
X3069528Y1109099D1*
X3073353Y1108148D1*
X3076227Y1107198D1*
X3078128Y1105274D1*
X3079079Y1103373D1*
Y1100499D1*
X3078128Y1098598D1*
X3077177Y1097625D1*
X3074303Y1096675D1*
X3070479D1*
X3067627Y1097625D1*
X3066654Y1098598D1*
X3065703Y1100499D1*
Y1103373D1*
X3066654Y1105274D1*
X3068577Y1107198D1*
X3071429Y1108148D1*
X3075254Y1109099D1*
X3077177Y1110072D1*
X3078128Y1111973D1*
Y1113897D1*
X3077177Y1115798D1*
X3074303Y1116748D1*
X3070479D1*
X3022784Y1059608D2*
Y1079704D1*
X3015134Y1059608D1*
X3007485Y1079704D1*
Y1059608D1*
X3034707Y1079704D2*
X3032784Y1078753D1*
X3030883Y1076830D1*
X3029910Y1074928D1*
X3028959Y1072054D1*
Y1067257D1*
X3029910Y1064405D1*
X3030883Y1062482D1*
X3032784Y1060580D1*
X3034707Y1059608D1*
X3038532D1*
X3040433Y1060580D1*
X3042357Y1062482D1*
X3043307Y1064405D1*
X3044258Y1067257D1*
Y1072054D1*
X3043307Y1074928D1*
X3042357Y1076830D1*
X3040433Y1078753D1*
X3038532Y1079704D1*
X3034707D1*
X3063831Y1076830D2*
X3061930Y1078753D1*
X3059056Y1079704D1*
X3055231D1*
X3052357Y1078753D1*
X3050434Y1076830D1*
Y1074928D1*
X3051406Y1073005D1*
X3052357Y1072054D1*
X3054258Y1071104D1*
X3060006Y1069180D1*
X3061930Y1068230D1*
X3062880Y1067257D1*
X3063831Y1065356D1*
Y1062482D1*
X3061930Y1060580D1*
X3059056Y1059608D1*
X3055231D1*
X3052357Y1060580D1*
X3050434Y1062482D1*
X3070007Y1079704D2*
Y1059608D1*
X3081930Y1079682D2*
X3079056Y1078731D1*
X3077133Y1075857D1*
X3076182Y1071082D1*
Y1068208D1*
X3077133Y1063432D1*
X3079056Y1060558D1*
X3081930Y1059608D1*
X3083832D1*
X3086706Y1060558D1*
X3088607Y1063432D1*
X3089580Y1068208D1*
Y1071082D1*
X3088607Y1075857D1*
X3086706Y1078731D1*
X3083832Y1079682D1*
X3081930D1*
X3088607Y1075857D2*
X3077133Y1063432D1*
X3007485Y1206247D2*
X3016107D1*
X3018959Y1207198D1*
X3019932Y1208171D1*
X3020882Y1210072D1*
Y1212946D1*
X3019932Y1214847D1*
X3018959Y1215820D1*
X3016107Y1216771D1*
X3007485D1*
Y1196675D1*
X3032806Y1216748D2*
X3029932Y1215798D1*
X3028009Y1212924D1*
X3027058Y1208148D1*
Y1205274D1*
X3028009Y1200499D1*
X3029932Y1197625D1*
X3032806Y1196675D1*
X3034707D1*
X3037581Y1197625D1*
X3039483Y1200499D1*
X3040455Y1205274D1*
Y1208148D1*
X3039483Y1212924D1*
X3037581Y1215798D1*
X3034707Y1216748D1*
X3032806D1*
X3039483Y1212924D2*
X3028009Y1200499D1*
X3047582Y1198598D2*
X3046631Y1197625D1*
X3047582Y1196675D1*
X3048555Y1197625D1*
X3047582Y1198598D1*
X3054730Y1212924D2*
X3056654Y1213897D1*
X3059528Y1216748D1*
Y1196675D1*
X3069528D2*
X3079101Y1216748D1*
X3065703D1*
X3022784Y1159608D2*
Y1179704D1*
X3015134Y1159608D1*
X3007485Y1179704D1*
Y1159608D1*
X3028959Y1179704D2*
Y1159608D1*
X3048532Y1176830D2*
X3046631Y1178753D1*
X3043757Y1179704D1*
X3039932D1*
X3037058Y1178753D1*
X3035135Y1176830D1*
Y1174928D1*
X3036108Y1173005D1*
X3037058Y1172054D1*
X3038960Y1171104D1*
X3044708Y1169180D1*
X3046631Y1168230D1*
X3047582Y1167257D1*
X3048532Y1165356D1*
Y1162482D1*
X3046631Y1160580D1*
X3043757Y1159608D1*
X3039932D1*
X3037058Y1160580D1*
X3035135Y1162482D1*
X3060456Y1179704D2*
X3058533Y1178753D1*
X3056631Y1176830D1*
X3055659Y1174928D1*
X3054708Y1172054D1*
Y1167257D1*
X3055659Y1164405D1*
X3056631Y1162482D1*
X3058533Y1160580D1*
X3060456Y1159608D1*
X3064281D1*
X3066182Y1160580D1*
X3068105Y1162482D1*
X3069056Y1164405D1*
X3070007Y1167257D1*
Y1172054D1*
X3069056Y1174928D1*
X3068105Y1176830D1*
X3066182Y1178753D1*
X3064281Y1179704D1*
X3060456D1*
X3081930Y1179682D2*
X3079056Y1178731D1*
X3077133Y1175857D1*
X3076182Y1171082D1*
Y1168208D1*
X3077133Y1163432D1*
X3079056Y1160558D1*
X3081930Y1159608D1*
X3083832D1*
X3086706Y1160558D1*
X3088607Y1163432D1*
X3089580Y1168208D1*
Y1171082D1*
X3088607Y1175857D1*
X3086706Y1178731D1*
X3083832Y1179682D1*
X3081930D1*
X3088607Y1175857D2*
X3077133Y1163432D1*
X3007485Y1306247D2*
X3016107D1*
X3018959Y1307198D1*
X3019932Y1308171D1*
X3020882Y1310072D1*
Y1312946D1*
X3019932Y1314847D1*
X3018959Y1315820D1*
X3016107Y1316771D1*
X3007485D1*
Y1296675D1*
X3032806Y1316748D2*
X3029932Y1315798D1*
X3028009Y1312924D1*
X3027058Y1308148D1*
Y1305274D1*
X3028009Y1300499D1*
X3029932Y1297625D1*
X3032806Y1296675D1*
X3034707D1*
X3037581Y1297625D1*
X3039483Y1300499D1*
X3040455Y1305274D1*
Y1308148D1*
X3039483Y1312924D1*
X3037581Y1315798D1*
X3034707Y1316748D1*
X3032806D1*
X3039483Y1312924D2*
X3028009Y1300499D1*
X3047582Y1298598D2*
X3046631Y1297625D1*
X3047582Y1296675D1*
X3048555Y1297625D1*
X3047582Y1298598D1*
X3054730Y1312924D2*
X3056654Y1313897D1*
X3059528Y1316748D1*
Y1296675D1*
X3077177Y1316748D2*
X3067627D1*
X3066676Y1308148D1*
X3067627Y1309099D1*
X3070501Y1310072D1*
X3073353D1*
X3076227Y1309099D1*
X3078150Y1307198D1*
X3079101Y1304324D1*
Y1302423D1*
X3078150Y1299549D1*
X3076227Y1297625D1*
X3073353Y1296675D1*
X3070501D1*
X3067627Y1297625D1*
X3066676Y1298598D1*
X3065703Y1300499D1*
X3020882Y1276830D2*
X3018981Y1278753D1*
X3016107Y1279704D1*
X3012282D1*
X3009408Y1278753D1*
X3007485Y1276830D1*
Y1274928D1*
X3008458Y1273005D1*
X3009408Y1272054D1*
X3011310Y1271104D1*
X3017058Y1269180D1*
X3018981Y1268230D1*
X3019932Y1267257D1*
X3020882Y1265356D1*
Y1262482D1*
X3018981Y1260580D1*
X3016107Y1259608D1*
X3012282D1*
X3009408Y1260580D1*
X3007485Y1262482D1*
X3041406Y1274928D2*
X3040455Y1276830D1*
X3038532Y1278753D1*
X3036631Y1279704D1*
X3032806D1*
X3030883Y1278753D1*
X3028981Y1276830D1*
X3028009Y1274928D1*
X3027058Y1272054D1*
Y1267257D1*
X3028009Y1264405D1*
X3028981Y1262482D1*
X3030883Y1260580D1*
X3032806Y1259608D1*
X3036631D1*
X3038532Y1260580D1*
X3040455Y1262482D1*
X3041406Y1264405D1*
X3047582Y1279704D2*
Y1259608D1*
X3060979Y1279704D2*
X3047582Y1266306D1*
X3052357Y1271104D2*
X3060979Y1259608D1*
X3072903Y1279682D2*
X3070029Y1278731D1*
X3068105Y1275857D1*
X3067155Y1271082D1*
Y1268208D1*
X3068105Y1263432D1*
X3070029Y1260558D1*
X3072903Y1259608D1*
X3074804D1*
X3077678Y1260558D1*
X3079579Y1263432D1*
X3080552Y1268208D1*
Y1271082D1*
X3079579Y1275857D1*
X3077678Y1278731D1*
X3074804Y1279682D1*
X3072903D1*
X3079579Y1275857D2*
X3068105Y1263432D1*
X3007485Y1006247D2*
X3016107D1*
X3018959Y1007198D1*
X3019932Y1008171D1*
X3020882Y1010072D1*
Y1012946D1*
X3019932Y1014847D1*
X3018959Y1015820D1*
X3016107Y1016771D1*
X3007485D1*
Y996675D1*
X3032806Y1016748D2*
X3029932Y1015798D1*
X3028009Y1012924D1*
X3027058Y1008148D1*
Y1005274D1*
X3028009Y1000499D1*
X3029932Y997625D1*
X3032806Y996675D1*
X3034707D1*
X3037581Y997625D1*
X3039483Y1000499D1*
X3040455Y1005274D1*
Y1008148D1*
X3039483Y1012924D1*
X3037581Y1015798D1*
X3034707Y1016748D1*
X3032806D1*
X3039483Y1012924D2*
X3028009Y1000499D1*
X3047582Y998598D2*
X3046631Y997625D1*
X3047582Y996675D1*
X3048555Y997625D1*
X3047582Y998598D1*
X3054730Y1012924D2*
X3056654Y1013897D1*
X3059528Y1016748D1*
Y996675D1*
X3021833Y974928D2*
X3020882Y976830D1*
X3018959Y978753D1*
X3017058Y979704D1*
X3013233D1*
X3011310Y978753D1*
X3009408Y976830D1*
X3008436Y974928D1*
X3007485Y972054D1*
Y967257D1*
X3008436Y964405D1*
X3009408Y962482D1*
X3011310Y960580D1*
X3013233Y959608D1*
X3017058D1*
X3018959Y960580D1*
X3020882Y962482D1*
X3021833Y964405D1*
X3034707Y979704D2*
Y959608D1*
X3028009Y979704D2*
X3041406D1*
X3047582D2*
X3060979Y959608D1*
Y979704D2*
X3047582Y959608D1*
X3067155Y975857D2*
X3069078Y976830D1*
X3071952Y979682D1*
Y959608D1*
X3007485Y906247D2*
X3016107D1*
X3018959Y907198D1*
X3019932Y908171D1*
X3020882Y910072D1*
Y912946D1*
X3019932Y914847D1*
X3018959Y915820D1*
X3016107Y916771D1*
X3007485D1*
Y896675D1*
X3032806Y916748D2*
X3029932Y915798D1*
X3028009Y912924D1*
X3027058Y908148D1*
Y905274D1*
X3028009Y900499D1*
X3029932Y897625D1*
X3032806Y896675D1*
X3034707D1*
X3037581Y897625D1*
X3039483Y900499D1*
X3040455Y905274D1*
Y908148D1*
X3039483Y912924D1*
X3037581Y915798D1*
X3034707Y916748D1*
X3032806D1*
X3039483Y912924D2*
X3028009Y900499D1*
X3047582Y898598D2*
X3046631Y897625D1*
X3047582Y896675D1*
X3048555Y897625D1*
X3047582Y898598D1*
X3060478Y916748D2*
X3057604Y915798D1*
X3055681Y912924D1*
X3054730Y908148D1*
Y905274D1*
X3055681Y900499D1*
X3057604Y897625D1*
X3060478Y896675D1*
X3062380D1*
X3065254Y897625D1*
X3067155Y900499D1*
X3068128Y905274D1*
Y908148D1*
X3067155Y912924D1*
X3065254Y915798D1*
X3062380Y916748D1*
X3060478D1*
X3067155Y912924D2*
X3055681Y900499D1*
X3021833Y874928D2*
X3020882Y876830D1*
X3018959Y878753D1*
X3017058Y879704D1*
X3013233D1*
X3011310Y878753D1*
X3009408Y876830D1*
X3008436Y874928D1*
X3007485Y872054D1*
Y867257D1*
X3008436Y864405D1*
X3009408Y862482D1*
X3011310Y860580D1*
X3013233Y859608D1*
X3017058D1*
X3018959Y860580D1*
X3020882Y862482D1*
X3021833Y864405D1*
X3028009Y870131D2*
X3036609D1*
X3039483Y871104D1*
X3040455Y872054D1*
X3041406Y873956D1*
Y875879D1*
X3040455Y877780D1*
X3039483Y878753D1*
X3036609Y879704D1*
X3028009D1*
Y859608D1*
X3034707Y870131D2*
X3041406Y859608D1*
X3047582Y879704D2*
X3060979Y859608D1*
Y879704D2*
X3047582Y859608D1*
X3067155Y875857D2*
X3069078Y876830D1*
X3071952Y879682D1*
Y859608D1*
X3007485Y799998D2*
X3016107D1*
X3018959Y800949D1*
X3019932Y801921D1*
X3020882Y803823D1*
Y806697D1*
X3019932Y808598D1*
X3018959Y809571D1*
X3016107Y810521D1*
X3007485D1*
Y790425D1*
X3032806Y810499D2*
X3029932Y809548D1*
X3028009Y806674D1*
X3027058Y801899D1*
Y799025D1*
X3028009Y794250D1*
X3029932Y791376D1*
X3032806Y790425D1*
X3034707D1*
X3037581Y791376D1*
X3039483Y794250D1*
X3040455Y799025D1*
Y801899D1*
X3039483Y806674D1*
X3037581Y809548D1*
X3034707Y810499D1*
X3032806D1*
X3039483Y806674D2*
X3028009Y794250D1*
X3047582Y792349D2*
X3046631Y791376D1*
X3047582Y790425D1*
X3048555Y791376D1*
X3047582Y792349D1*
X3054730Y806674D2*
X3056654Y807647D1*
X3059528Y810499D1*
Y790425D1*
X3065703Y806674D2*
X3067627Y807647D1*
X3070501Y810499D1*
Y790425D1*
X3020882Y770580D2*
X3018981Y772504D1*
X3016107Y773454D1*
X3012282D1*
X3009408Y772504D1*
X3007485Y770580D1*
Y768679D1*
X3008458Y766756D1*
X3009408Y765805D1*
X3011310Y764854D1*
X3017058Y762931D1*
X3018981Y761980D1*
X3019932Y761008D1*
X3020882Y759106D1*
Y756232D1*
X3018981Y754331D1*
X3016107Y753358D1*
X3012282D1*
X3009408Y754331D1*
X3007485Y756232D1*
X3041406Y768679D2*
X3040455Y770580D1*
X3038532Y772504D1*
X3036631Y773454D1*
X3032806D1*
X3030883Y772504D1*
X3028981Y770580D1*
X3028009Y768679D1*
X3027058Y765805D1*
Y761008D1*
X3028009Y758156D1*
X3028981Y756232D1*
X3030883Y754331D1*
X3032806Y753358D1*
X3036631D1*
X3038532Y754331D1*
X3040455Y756232D1*
X3041406Y758156D1*
X3047582Y773454D2*
Y753358D1*
X3059056D1*
X3066204Y768657D2*
Y769608D1*
X3067155Y771531D1*
X3068105Y772482D1*
X3070029Y773432D1*
X3073853D1*
X3075755Y772482D1*
X3076705Y771531D1*
X3077678Y769608D1*
Y767706D1*
X3076705Y765783D1*
X3074804Y762931D1*
X3065231Y753358D1*
X3078629D1*
X2934333Y611997D2*
X2933382Y613898D1*
X2931459Y615821D1*
X2929558Y616772D1*
X2925733D1*
X2923810Y615821D1*
X2921908Y613898D1*
X2920936Y611997D1*
X2919985Y609123D1*
Y604325D1*
X2920936Y601473D1*
X2921908Y599550D1*
X2923810Y597649D1*
X2925733Y596676D1*
X2929558D1*
X2931459Y597649D1*
X2933382Y599550D1*
X2934333Y601473D1*
Y604325D1*
X2929558D1*
X2953906Y616772D2*
Y596676D1*
X2940509Y616772D1*
Y596676D1*
X2960082Y616772D2*
Y596676D1*
X2966780D1*
X2969654Y597649D1*
X2971578Y599550D1*
X2972528Y601473D1*
X2973479Y604325D1*
Y609123D1*
X2972528Y611997D1*
X2971578Y613898D1*
X2969654Y615821D1*
X2966780Y616772D1*
X2960082D1*
X2828084Y611997D2*
X2827133Y613898D1*
X2825210Y615821D1*
X2823308Y616772D1*
X2819484D1*
X2817560Y615821D1*
X2815659Y613898D1*
X2814686Y611997D1*
X2813736Y609123D1*
Y604325D1*
X2814686Y601473D1*
X2815659Y599550D1*
X2817560Y597649D1*
X2819484Y596676D1*
X2823308D1*
X2825210Y597649D1*
X2827133Y599550D1*
X2828084Y601473D1*
Y604325D1*
X2823308D1*
X2847657Y616772D2*
Y596676D1*
X2834259Y616772D1*
Y596676D1*
X2853832Y616772D2*
Y596676D1*
X2860531D1*
X2863405Y597649D1*
X2865329Y599550D1*
X2866279Y601473D1*
X2867230Y604325D1*
Y609123D1*
X2866279Y611997D1*
X2865329Y613898D1*
X2863405Y615821D1*
X2860531Y616772D1*
X2853832D1*
X2704611Y812499D2*
X2713233D1*
X2716085Y813450D1*
X2717058Y814423D1*
X2718008Y816324D1*
Y819198D1*
X2717058Y821099D1*
X2716085Y822072D1*
X2713233Y823023D1*
X2704611D1*
Y802927D1*
X2729932Y823000D2*
X2727058Y822050D1*
X2725135Y819176D1*
X2724184Y814400D1*
Y811526D1*
X2725135Y806751D1*
X2727058Y803877D1*
X2729932Y802927D1*
X2731833D1*
X2734707Y803877D1*
X2736609Y806751D1*
X2737581Y811526D1*
Y814400D1*
X2736609Y819176D1*
X2734707Y822050D1*
X2731833Y823000D1*
X2729932D1*
X2736609Y819176D2*
X2725135Y806751D1*
X2744708Y804850D2*
X2743757Y803877D1*
X2744708Y802927D1*
X2745681Y803877D1*
X2744708Y804850D1*
X2751856Y819176D2*
X2753780Y820148D1*
X2756654Y823000D1*
Y802927D1*
X2768577Y823000D2*
X2765703Y822050D1*
X2763780Y819176D1*
X2762829Y814400D1*
Y811526D1*
X2763780Y806751D1*
X2765703Y803877D1*
X2768577Y802927D1*
X2770479D1*
X2773353Y803877D1*
X2775254Y806751D1*
X2776227Y811526D1*
Y814400D1*
X2775254Y819176D1*
X2773353Y822050D1*
X2770479Y823000D1*
X2768577D1*
X2775254Y819176D2*
X2763780Y806751D1*
X2735157Y790293D2*
X2733255Y792216D1*
X2730381Y793167D1*
X2726557D1*
X2723683Y792216D1*
X2721759Y790293D1*
Y788392D1*
X2722732Y786468D1*
X2723683Y785518D1*
X2725584Y784567D1*
X2731332Y782644D1*
X2733255Y781693D1*
X2734206Y780720D1*
X2735157Y778819D1*
Y775945D1*
X2733255Y774044D1*
X2730381Y773071D1*
X2726557D1*
X2723683Y774044D1*
X2721759Y775945D1*
X2741332Y793167D2*
Y773071D1*
X2748031D1*
X2750905Y774044D1*
X2752828Y775945D1*
X2753779Y777868D1*
X2754730Y780720D1*
Y785518D1*
X2753779Y788392D1*
X2752828Y790293D1*
X2750905Y792216D1*
X2748031Y793167D1*
X2741332D1*
X2776226Y773071D2*
X2768555Y793167D1*
X2760905Y773071D1*
X2763779Y779770D2*
X2773352D1*
X2716536Y2106682D2*
X2725158D1*
X2728010Y2107632D1*
X2728983Y2108605D1*
X2729934Y2110506D1*
Y2113380D1*
X2728983Y2115282D1*
X2728010Y2116254D1*
X2725158Y2117205D1*
X2716536D1*
Y2097109D1*
X2741857Y2117183D2*
X2738983Y2116232D1*
X2737060Y2113358D1*
X2736109Y2108583D1*
Y2105709D1*
X2737060Y2100934D1*
X2738983Y2098060D1*
X2741857Y2097109D1*
X2743759D1*
X2746633Y2098060D1*
X2748534Y2100934D1*
X2749507Y2105709D1*
Y2108583D1*
X2748534Y2113358D1*
X2746633Y2116232D1*
X2743759Y2117183D1*
X2741857D1*
X2748534Y2113358D2*
X2737060Y2100934D1*
X2756633Y2099032D2*
X2755682Y2098060D1*
X2756633Y2097109D1*
X2757606Y2098060D1*
X2756633Y2099032D1*
X2776228Y2110506D2*
X2775255Y2107632D1*
X2773354Y2105709D1*
X2770480Y2104758D1*
X2769529D1*
X2766655Y2105709D1*
X2764754Y2107632D1*
X2763781Y2110506D1*
Y2111457D1*
X2764754Y2114331D1*
X2766655Y2116232D1*
X2769529Y2117183D1*
X2770480D1*
X2773354Y2116232D1*
X2775255Y2114331D1*
X2776228Y2110506D1*
Y2105709D1*
X2775255Y2100934D1*
X2773354Y2098060D1*
X2770480Y2097109D1*
X2768579D1*
X2765705Y2098060D1*
X2764754Y2099983D1*
X2718030Y2059608D2*
Y2079704D1*
X2710381Y2059608D1*
X2702732Y2079704D1*
Y2059608D1*
X2729954Y2079704D2*
X2728031Y2078753D1*
X2726129Y2076830D1*
X2725157Y2074928D1*
X2724206Y2072054D1*
Y2067257D1*
X2725157Y2064405D1*
X2726129Y2062482D1*
X2728031Y2060580D1*
X2729954Y2059608D1*
X2733779D1*
X2735680Y2060580D1*
X2737603Y2062482D1*
X2738554Y2064405D1*
X2739505Y2067257D1*
Y2072054D1*
X2738554Y2074928D1*
X2737603Y2076830D1*
X2735680Y2078753D1*
X2733779Y2079704D1*
X2729954D1*
X2759078Y2076830D2*
X2757176Y2078753D1*
X2754302Y2079704D1*
X2750478D1*
X2747604Y2078753D1*
X2745680Y2076830D1*
Y2074928D1*
X2746653Y2073005D1*
X2747604Y2072054D1*
X2749505Y2071104D1*
X2755253Y2069180D1*
X2757176Y2068230D1*
X2758127Y2067257D1*
X2759078Y2065356D1*
Y2062482D1*
X2757176Y2060580D1*
X2754302Y2059608D1*
X2750478D1*
X2747604Y2060580D1*
X2745680Y2062482D1*
X2765253Y2079704D2*
Y2059608D1*
X2771429Y2075857D2*
X2773353Y2076830D1*
X2776227Y2079682D1*
Y2059608D1*
X2696984Y2000432D2*
X2705606D1*
X2708458Y2001383D1*
X2709430Y2002356D1*
X2710381Y2004257D1*
Y2007131D1*
X2709430Y2009032D1*
X2708458Y2010005D1*
X2705606Y2010956D1*
X2696984D1*
Y1990860D1*
X2722305Y2010933D2*
X2719431Y2009983D1*
X2717507Y2007109D1*
X2716557Y2002334D1*
Y1999460D1*
X2717507Y1994684D1*
X2719431Y1991810D1*
X2722305Y1990860D1*
X2724206D1*
X2727080Y1991810D1*
X2728981Y1994684D1*
X2729954Y1999460D1*
Y2002334D1*
X2728981Y2007109D1*
X2727080Y2009983D1*
X2724206Y2010933D1*
X2722305D1*
X2728981Y2007109D2*
X2717507Y1994684D1*
X2737080Y1992783D2*
X2736130Y1991810D1*
X2737080Y1990860D1*
X2738053Y1991810D1*
X2737080Y1992783D1*
X2745202Y2006158D2*
Y2007109D1*
X2746152Y2009032D1*
X2747103Y2009983D1*
X2749026Y2010933D1*
X2752851D1*
X2754752Y2009983D1*
X2755703Y2009032D1*
X2756676Y2007109D1*
Y2005208D1*
X2755703Y2003284D1*
X2753802Y2000432D1*
X2744229Y1990860D1*
X2757626D1*
X2775276Y2008082D2*
X2774325Y2009983D1*
X2771451Y2010933D1*
X2769550D1*
X2766676Y2009983D1*
X2764753Y2007109D1*
X2763802Y2002334D1*
Y1997558D1*
X2764753Y1993734D1*
X2766676Y1991810D1*
X2769550Y1990860D1*
X2770501D1*
X2773353Y1991810D1*
X2775276Y1993734D1*
X2776227Y1996608D1*
Y1997558D1*
X2775276Y2000432D1*
X2773353Y2002334D1*
X2770501Y2003284D1*
X2769550D1*
X2766676Y2002334D1*
X2764753Y2000432D1*
X2763802Y1997558D1*
X2716558Y1953358D2*
X2708886Y1973454D1*
X2701237Y1953358D1*
X2704111Y1960057D2*
X2713684D1*
X2722733Y1973454D2*
Y1953358D1*
X2729432D1*
X2732306Y1954331D1*
X2734230Y1956232D1*
X2735180Y1958156D1*
X2736131Y1961008D1*
Y1965805D1*
X2735180Y1968679D1*
X2734230Y1970580D1*
X2732306Y1972504D1*
X2729432Y1973454D1*
X2722733D1*
X2756654Y1968679D2*
X2755704Y1970580D1*
X2753780Y1972504D1*
X2751879Y1973454D1*
X2748055D1*
X2746131Y1972504D1*
X2744230Y1970580D1*
X2743257Y1968679D1*
X2742306Y1965805D1*
Y1961008D1*
X2743257Y1958156D1*
X2744230Y1956232D1*
X2746131Y1954331D1*
X2748055Y1953358D1*
X2751879D1*
X2753780Y1954331D1*
X2755704Y1956232D1*
X2756654Y1958156D1*
X2764754Y1973432D2*
X2775255D1*
X2769529Y1965783D1*
X2772403D1*
X2774304Y1964832D1*
X2775255Y1963882D1*
X2776228Y1961008D1*
Y1959106D1*
X2775255Y1956232D1*
X2773353Y1954309D1*
X2770479Y1953358D1*
X2767605D1*
X2764754Y1954309D1*
X2763803Y1955282D1*
X2762830Y1957183D1*
X2704612Y1900432D2*
X2713234D1*
X2716086Y1901383D1*
X2717059Y1902356D1*
X2718010Y1904257D1*
Y1907131D1*
X2717059Y1909032D1*
X2716086Y1910005D1*
X2713234Y1910956D1*
X2704612D1*
Y1890860D1*
X2729933Y1910933D2*
X2727059Y1909983D1*
X2725136Y1907109D1*
X2724185Y1902334D1*
Y1899460D1*
X2725136Y1894684D1*
X2727059Y1891810D1*
X2729933Y1890860D1*
X2731835D1*
X2734709Y1891810D1*
X2736610Y1894684D1*
X2737583Y1899460D1*
Y1902334D1*
X2736610Y1907109D1*
X2734709Y1909983D1*
X2731835Y1910933D1*
X2729933D1*
X2736610Y1907109D2*
X2725136Y1894684D1*
X2744709Y1892783D2*
X2743758Y1891810D1*
X2744709Y1890860D1*
X2745682Y1891810D1*
X2744709Y1892783D1*
X2753781Y1910933D2*
X2764282D1*
X2758556Y1903284D1*
X2761430D1*
X2763331Y1902334D1*
X2764282Y1901383D1*
X2765255Y1898509D1*
Y1896608D1*
X2764282Y1893734D1*
X2762381Y1891810D1*
X2759507Y1890860D1*
X2756633D1*
X2753781Y1891810D1*
X2752830Y1892783D1*
X2751858Y1894684D1*
X2771431Y1907109D2*
X2773354Y1908082D1*
X2776228Y1910933D1*
Y1890860D1*
X2716558Y1853358D2*
X2708886Y1873454D1*
X2701237Y1853358D1*
X2704111Y1860057D2*
X2713684D1*
X2722733Y1873454D2*
Y1853358D1*
X2729432D1*
X2732306Y1854331D1*
X2734230Y1856232D1*
X2735180Y1858156D1*
X2736131Y1861008D1*
Y1865805D1*
X2735180Y1868679D1*
X2734230Y1870580D1*
X2732306Y1872504D1*
X2729432Y1873454D1*
X2722733D1*
X2756654Y1868679D2*
X2755704Y1870580D1*
X2753780Y1872504D1*
X2751879Y1873454D1*
X2748055D1*
X2746131Y1872504D1*
X2744230Y1870580D1*
X2743257Y1868679D1*
X2742306Y1865805D1*
Y1861008D1*
X2743257Y1858156D1*
X2744230Y1856232D1*
X2746131Y1854331D1*
X2748055Y1853358D1*
X2751879D1*
X2753780Y1854331D1*
X2755704Y1856232D1*
X2756654Y1858156D1*
X2774304Y1873432D2*
X2764754D1*
X2763803Y1864832D1*
X2764754Y1865783D1*
X2767628Y1866756D1*
X2770479D1*
X2773353Y1865783D1*
X2775277Y1863882D1*
X2776228Y1861008D1*
Y1859106D1*
X2775277Y1856232D1*
X2773353Y1854309D1*
X2770479Y1853358D1*
X2767628D1*
X2764754Y1854309D1*
X2763803Y1855282D1*
X2762830Y1857183D1*
X2715585Y2299997D2*
X2724207D1*
X2727059Y2300947D1*
X2728032Y2301920D1*
X2728982Y2303821D1*
Y2306695D1*
X2728032Y2308597D1*
X2727059Y2309569D1*
X2724207Y2310520D1*
X2715585D1*
Y2290424D1*
X2740906Y2310498D2*
X2738032Y2309547D1*
X2736108Y2306673D1*
X2735158Y2301898D1*
Y2299024D1*
X2736108Y2294249D1*
X2738032Y2291375D1*
X2740906Y2290424D1*
X2742807D1*
X2745681Y2291375D1*
X2747582Y2294249D1*
X2748555Y2299024D1*
Y2301898D1*
X2747582Y2306673D1*
X2745681Y2309547D1*
X2742807Y2310498D1*
X2740906D1*
X2747582Y2306673D2*
X2736108Y2294249D1*
X2755682Y2292347D2*
X2754731Y2291375D1*
X2755682Y2290424D1*
X2756654Y2291375D1*
X2755682Y2292347D1*
X2766655Y2290424D2*
X2776227Y2310498D1*
X2762830D1*
X2725158Y2270579D2*
X2723257Y2272502D1*
X2720383Y2273453D1*
X2716558D1*
X2713684Y2272502D1*
X2711761Y2270579D1*
Y2268678D1*
X2712733Y2266754D1*
X2713684Y2265804D1*
X2715585Y2264853D1*
X2721333Y2262930D1*
X2723257Y2261979D1*
X2724207Y2261006D1*
X2725158Y2259105D1*
Y2256231D1*
X2723257Y2254330D1*
X2720383Y2253357D1*
X2716558D1*
X2713684Y2254330D1*
X2711761Y2256231D1*
X2745682Y2268678D2*
X2744731Y2270579D1*
X2742808Y2272502D1*
X2740906Y2273453D1*
X2737082D1*
X2735158Y2272502D1*
X2733257Y2270579D1*
X2732284Y2268678D1*
X2731334Y2265804D1*
Y2261006D1*
X2732284Y2258154D1*
X2733257Y2256231D1*
X2735158Y2254330D1*
X2737082Y2253357D1*
X2740906D1*
X2742808Y2254330D1*
X2744731Y2256231D1*
X2745682Y2258154D1*
X2751857Y2273453D2*
Y2253357D1*
X2765255Y2273453D2*
X2751857Y2260056D1*
X2756633Y2264853D2*
X2765255Y2253357D1*
X2771430Y2269606D2*
X2773354Y2270579D1*
X2776228Y2273431D1*
Y2253357D1*
X2715606Y2206247D2*
X2724228D1*
X2727080Y2207198D1*
X2728053Y2208171D1*
X2729003Y2210072D1*
Y2212946D1*
X2728053Y2214847D1*
X2727080Y2215820D1*
X2724228Y2216771D1*
X2715606D1*
Y2196675D1*
X2740927Y2216748D2*
X2738053Y2215798D1*
X2736129Y2212924D1*
X2735179Y2208148D1*
Y2205274D1*
X2736129Y2200499D1*
X2738053Y2197625D1*
X2740927Y2196675D1*
X2742828D1*
X2745702Y2197625D1*
X2747603Y2200499D1*
X2748576Y2205274D1*
Y2208148D1*
X2747603Y2212924D1*
X2745702Y2215798D1*
X2742828Y2216748D1*
X2740927D1*
X2747603Y2212924D2*
X2736129Y2200499D1*
X2755703Y2198598D2*
X2754752Y2197625D1*
X2755703Y2196675D1*
X2756675Y2197625D1*
X2755703Y2198598D1*
X2767626Y2216748D2*
X2764774Y2215798D1*
X2763802Y2213897D1*
Y2211973D1*
X2764774Y2210072D1*
X2766676Y2209099D1*
X2770500Y2208148D1*
X2773374Y2207198D1*
X2775276Y2205274D1*
X2776226Y2203373D1*
Y2200499D1*
X2775276Y2198598D1*
X2774325Y2197625D1*
X2771451Y2196675D1*
X2767626D1*
X2764774Y2197625D1*
X2763802Y2198598D1*
X2762851Y2200499D1*
Y2203373D1*
X2763802Y2205274D1*
X2765725Y2207198D1*
X2768577Y2208148D1*
X2772402Y2209099D1*
X2774325Y2210072D1*
X2775276Y2211973D1*
Y2213897D1*
X2774325Y2215798D1*
X2771451Y2216748D1*
X2767626D1*
X2718030Y2159608D2*
Y2179704D1*
X2710381Y2159608D1*
X2702732Y2179704D1*
Y2159608D1*
X2724206Y2179704D2*
Y2159608D1*
X2743779Y2176830D2*
X2741878Y2178753D1*
X2739004Y2179704D1*
X2735179D1*
X2732305Y2178753D1*
X2730382Y2176830D1*
Y2174928D1*
X2731355Y2173005D1*
X2732305Y2172054D1*
X2734206Y2171104D1*
X2739954Y2169180D1*
X2741878Y2168230D1*
X2742829Y2167257D1*
X2743779Y2165356D1*
Y2162482D1*
X2741878Y2160580D1*
X2739004Y2159608D1*
X2735179D1*
X2732305Y2160580D1*
X2730382Y2162482D1*
X2755703Y2179704D2*
X2753779Y2178753D1*
X2751878Y2176830D1*
X2750905Y2174928D1*
X2749955Y2172054D1*
Y2167257D1*
X2750905Y2164405D1*
X2751878Y2162482D1*
X2753779Y2160580D1*
X2755703Y2159608D1*
X2759528D1*
X2761429Y2160580D1*
X2763352Y2162482D1*
X2764303Y2164405D1*
X2765253Y2167257D1*
Y2172054D1*
X2764303Y2174928D1*
X2763352Y2176830D1*
X2761429Y2178753D1*
X2759528Y2179704D1*
X2755703D1*
X2771429Y2175857D2*
X2773353Y2176830D1*
X2776227Y2179682D1*
Y2159608D1*
X2696011Y2506247D2*
X2704633D1*
X2707485Y2507198D1*
X2708458Y2508171D1*
X2709409Y2510072D1*
Y2512946D1*
X2708458Y2514847D1*
X2707485Y2515820D1*
X2704633Y2516771D1*
X2696011D1*
Y2496675D1*
X2725157D2*
Y2516748D1*
X2715584Y2503373D1*
X2729932D1*
X2737059Y2498598D2*
X2736108Y2497625D1*
X2737059Y2496675D1*
X2738031Y2497625D1*
X2737059Y2498598D1*
X2745180Y2511973D2*
Y2512924D1*
X2746130Y2514847D1*
X2747081Y2515798D1*
X2749005Y2516748D1*
X2752829D1*
X2754730Y2515798D1*
X2755681Y2514847D1*
X2756654Y2512924D1*
Y2511023D1*
X2755681Y2509099D1*
X2753780Y2506247D1*
X2744207Y2496675D1*
X2757604D1*
X2776227Y2510072D2*
X2775254Y2507198D1*
X2773353Y2505274D1*
X2770479Y2504324D1*
X2769528D1*
X2766654Y2505274D1*
X2764753Y2507198D1*
X2763780Y2510072D1*
Y2511023D1*
X2764753Y2513897D1*
X2766654Y2515798D1*
X2769528Y2516748D1*
X2770479D1*
X2773353Y2515798D1*
X2775254Y2513897D1*
X2776227Y2510072D1*
Y2505274D1*
X2775254Y2500499D1*
X2773353Y2497625D1*
X2770479Y2496675D1*
X2768578D1*
X2765704Y2497625D1*
X2764753Y2499549D1*
X2696013Y2606682D2*
X2704635D1*
X2707487Y2607632D1*
X2708459Y2608605D1*
X2709410Y2610506D1*
Y2613380D1*
X2708459Y2615282D1*
X2707487Y2616254D1*
X2704635Y2617205D1*
X2696013D1*
Y2597109D1*
X2721334Y2617183D2*
X2718460Y2616232D1*
X2716536Y2613358D1*
X2715586Y2608583D1*
Y2605709D1*
X2716536Y2600934D1*
X2718460Y2598060D1*
X2721334Y2597109D1*
X2723235D1*
X2726109Y2598060D1*
X2728010Y2600934D1*
X2728983Y2605709D1*
Y2608583D1*
X2728010Y2613358D1*
X2726109Y2616232D1*
X2723235Y2617183D1*
X2721334D1*
X2728010Y2613358D2*
X2716536Y2600934D1*
X2736109Y2599032D2*
X2735159Y2598060D1*
X2736109Y2597109D1*
X2737082Y2598060D1*
X2736109Y2599032D1*
X2744231Y2612408D2*
Y2613358D1*
X2745181Y2615282D1*
X2746132Y2616232D1*
X2748055Y2617183D1*
X2751880D1*
X2753781Y2616232D1*
X2754732Y2615282D1*
X2755704Y2613358D1*
Y2611457D1*
X2754732Y2609534D1*
X2752830Y2606682D1*
X2743258Y2597109D1*
X2756655D1*
X2763804Y2612408D2*
Y2613358D1*
X2764754Y2615282D1*
X2765705Y2616232D1*
X2767628Y2617183D1*
X2771453D1*
X2773354Y2616232D1*
X2774305Y2615282D1*
X2775278Y2613358D1*
Y2611457D1*
X2774305Y2609534D1*
X2772404Y2606682D1*
X2762831Y2597109D1*
X2776228D1*
X2709858Y2579704D2*
Y2559608D1*
X2703160Y2579704D2*
X2716557D1*
X2722733D2*
X2736130Y2559608D1*
Y2579704D2*
X2722733Y2559608D1*
X2742306Y2579704D2*
Y2559608D1*
X2749004D1*
X2751878Y2560580D1*
X2753802Y2562482D1*
X2754752Y2564405D1*
X2755703Y2567257D1*
Y2572054D1*
X2754752Y2574928D1*
X2753802Y2576830D1*
X2751878Y2578753D1*
X2749004Y2579704D1*
X2742306D1*
X2771451Y2559608D2*
Y2579682D1*
X2761879Y2566306D1*
X2776227D1*
X2704111Y2470131D2*
X2712711D1*
X2715585Y2471104D1*
X2716558Y2472054D1*
X2717508Y2473956D1*
Y2475879D1*
X2716558Y2477780D1*
X2715585Y2478753D1*
X2712711Y2479704D1*
X2704111D1*
Y2459608D1*
X2710810Y2470131D2*
X2717508Y2459608D1*
X2723684Y2479704D2*
X2737081Y2459608D1*
Y2479704D2*
X2723684Y2459608D1*
X2743257Y2479704D2*
Y2459608D1*
X2749956D1*
X2752830Y2460580D1*
X2754753Y2462482D1*
X2755704Y2464405D1*
X2756654Y2467257D1*
Y2472054D1*
X2755704Y2474928D1*
X2754753Y2476830D1*
X2752830Y2478753D1*
X2749956Y2479704D1*
X2743257D1*
X2764754Y2479682D2*
X2775255D1*
X2769529Y2472032D1*
X2772403D1*
X2774304Y2471082D1*
X2775255Y2470131D1*
X2776228Y2467257D1*
Y2465356D1*
X2775255Y2462482D1*
X2773353Y2460558D1*
X2770479Y2459608D1*
X2767605D1*
X2764754Y2460558D1*
X2763803Y2461531D1*
X2762830Y2463432D1*
X2695082Y2406247D2*
X2703704D1*
X2706556Y2407198D1*
X2707529Y2408171D1*
X2708480Y2410072D1*
Y2412946D1*
X2707529Y2414847D1*
X2706556Y2415820D1*
X2703704Y2416771D1*
X2695082D1*
Y2396675D1*
X2724228D2*
Y2416748D1*
X2714655Y2403373D1*
X2729003D1*
X2736130Y2398598D2*
X2735179Y2397625D1*
X2736130Y2396675D1*
X2737102Y2397625D1*
X2736130Y2398598D1*
X2744251Y2411973D2*
Y2412924D1*
X2745201Y2414847D1*
X2746152Y2415798D1*
X2748075Y2416748D1*
X2751900D1*
X2753801Y2415798D1*
X2754752Y2414847D1*
X2755725Y2412924D1*
Y2411023D1*
X2754752Y2409099D1*
X2752851Y2406247D1*
X2743278Y2396675D1*
X2756675D1*
X2767626Y2416748D2*
X2764774Y2415798D1*
X2763802Y2413897D1*
Y2411973D1*
X2764774Y2410072D1*
X2766676Y2409099D1*
X2770500Y2408148D1*
X2773374Y2407198D1*
X2775276Y2405274D1*
X2776226Y2403373D1*
Y2400499D1*
X2775276Y2398598D1*
X2774325Y2397625D1*
X2771451Y2396675D1*
X2767626D1*
X2764774Y2397625D1*
X2763802Y2398598D1*
X2762851Y2400499D1*
Y2403373D1*
X2763802Y2405274D1*
X2765725Y2407198D1*
X2768577Y2408148D1*
X2772402Y2409099D1*
X2774325Y2410072D1*
X2775276Y2411973D1*
Y2413897D1*
X2774325Y2415798D1*
X2771451Y2416748D1*
X2767626D1*
X2710810Y2379704D2*
Y2359608D1*
X2704111Y2379704D2*
X2717508D1*
X2723684D2*
X2737081Y2359608D1*
Y2379704D2*
X2723684Y2359608D1*
X2743257Y2379704D2*
Y2359608D1*
X2749956D1*
X2752830Y2360580D1*
X2754753Y2362482D1*
X2755704Y2364405D1*
X2756654Y2367257D1*
Y2372054D1*
X2755704Y2374928D1*
X2754753Y2376830D1*
X2752830Y2378753D1*
X2749956Y2379704D1*
X2743257D1*
X2764754Y2379682D2*
X2775255D1*
X2769529Y2372032D1*
X2772403D1*
X2774304Y2371082D1*
X2775255Y2370131D1*
X2776228Y2367257D1*
Y2365356D1*
X2775255Y2362482D1*
X2773353Y2360558D1*
X2770479Y2359608D1*
X2767605D1*
X2764754Y2360558D1*
X2763803Y2361531D1*
X2762830Y2363432D1*
X2704612Y1800432D2*
X2713234D1*
X2716086Y1801383D1*
X2717059Y1802356D1*
X2718010Y1804257D1*
Y1807131D1*
X2717059Y1809032D1*
X2716086Y1810005D1*
X2713234Y1810956D1*
X2704612D1*
Y1790860D1*
X2724185Y1807109D2*
X2726109Y1808082D1*
X2728983Y1810933D1*
Y1790860D1*
X2736109Y1792783D2*
X2735159Y1791810D1*
X2736109Y1790860D1*
X2737082Y1791810D1*
X2736109Y1792783D1*
X2745181Y1810933D2*
X2755682D1*
X2749956Y1803284D1*
X2752830D1*
X2754732Y1802334D1*
X2755682Y1801383D1*
X2756655Y1798509D1*
Y1796608D1*
X2755682Y1793734D1*
X2753781Y1791810D1*
X2750907Y1790860D1*
X2748033D1*
X2745181Y1791810D1*
X2744230Y1792783D1*
X2743258Y1794684D1*
X2768579Y1810933D2*
X2765705Y1809983D1*
X2763781Y1807109D1*
X2762831Y1802334D1*
Y1799460D1*
X2763781Y1794684D1*
X2765705Y1791810D1*
X2768579Y1790860D1*
X2770480D1*
X2773354Y1791810D1*
X2775255Y1794684D1*
X2776228Y1799460D1*
Y1802334D1*
X2775255Y1807109D1*
X2773354Y1809983D1*
X2770480Y1810933D1*
X2768579D1*
X2775255Y1807109D2*
X2763781Y1794684D1*
X2715606Y1753358D2*
X2707935Y1773454D1*
X2700286Y1753358D1*
X2703160Y1760057D2*
X2712732D1*
X2721782Y1773454D2*
Y1753358D1*
X2728481D1*
X2731355Y1754331D1*
X2733278Y1756232D1*
X2734229Y1758156D1*
X2735179Y1761008D1*
Y1765805D1*
X2734229Y1768679D1*
X2733278Y1770580D1*
X2731355Y1772504D1*
X2728481Y1773454D1*
X2721782D1*
X2755703Y1768679D2*
X2754752Y1770580D1*
X2752829Y1772504D1*
X2750928Y1773454D1*
X2747103D1*
X2745180Y1772504D1*
X2743278Y1770580D1*
X2742306Y1768679D1*
X2741355Y1765805D1*
Y1761008D1*
X2742306Y1758156D1*
X2743278Y1756232D1*
X2745180Y1754331D1*
X2747103Y1753358D1*
X2750928D1*
X2752829Y1754331D1*
X2754752Y1756232D1*
X2755703Y1758156D1*
X2771451Y1753358D2*
Y1773432D1*
X2761879Y1760057D1*
X2776227D1*
X2705561Y1700432D2*
X2714183D1*
X2717035Y1701383D1*
X2718008Y1702356D1*
X2718959Y1704257D1*
Y1707131D1*
X2718008Y1709032D1*
X2717035Y1710005D1*
X2714183Y1710956D1*
X2705561D1*
Y1690860D1*
X2725134Y1707109D2*
X2727058Y1708082D1*
X2729932Y1710933D1*
Y1690860D1*
X2737058Y1692783D2*
X2736107Y1691810D1*
X2737058Y1690860D1*
X2738031Y1691810D1*
X2737058Y1692783D1*
X2745179Y1706158D2*
Y1707109D1*
X2746130Y1709032D1*
X2747080Y1709983D1*
X2749004Y1710933D1*
X2752828D1*
X2754730Y1709983D1*
X2755680Y1709032D1*
X2756653Y1707109D1*
Y1705208D1*
X2755680Y1703284D1*
X2753779Y1700432D1*
X2744206Y1690860D1*
X2757604D1*
X2776226Y1704257D2*
X2775253Y1701383D1*
X2773352Y1699460D1*
X2770478Y1698509D1*
X2769527D1*
X2766653Y1699460D1*
X2764752Y1701383D1*
X2763779Y1704257D1*
Y1705208D1*
X2764752Y1708082D1*
X2766653Y1709983D1*
X2769527Y1710933D1*
X2770478D1*
X2773352Y1709983D1*
X2775253Y1708082D1*
X2776226Y1704257D1*
Y1699460D1*
X2775253Y1694684D1*
X2773352Y1691810D1*
X2770478Y1690860D1*
X2768577D1*
X2765703Y1691810D1*
X2764752Y1693734D1*
X2716557Y1653358D2*
Y1673454D1*
X2708907Y1653358D1*
X2701258Y1673454D1*
Y1653358D1*
X2737080Y1668679D2*
X2736130Y1670580D1*
X2734206Y1672504D1*
X2732305Y1673454D1*
X2728480D1*
X2726557Y1672504D1*
X2724656Y1670580D1*
X2723683Y1668679D1*
X2722732Y1665805D1*
Y1661008D1*
X2723683Y1658156D1*
X2724656Y1656232D1*
X2726557Y1654331D1*
X2728480Y1653358D1*
X2732305D1*
X2734206Y1654331D1*
X2736130Y1656232D1*
X2737080Y1658156D1*
X2744229Y1668657D2*
Y1669608D1*
X2745179Y1671531D1*
X2746130Y1672482D1*
X2748053Y1673432D1*
X2751878D1*
X2753779Y1672482D1*
X2754730Y1671531D1*
X2755703Y1669608D1*
Y1667706D1*
X2754730Y1665783D1*
X2752829Y1662931D1*
X2743256Y1653358D1*
X2756653D1*
X2762829Y1673454D2*
Y1653358D1*
X2771451D1*
X2774325Y1654331D1*
X2775276Y1655282D1*
X2776226Y1657183D1*
Y1660057D1*
X2775276Y1661980D1*
X2774325Y1662931D1*
X2771451Y1663882D1*
X2774325Y1664854D1*
X2775276Y1665805D1*
X2776226Y1667706D1*
Y1669630D1*
X2775276Y1671531D1*
X2774325Y1672504D1*
X2771451Y1673454D1*
X2762829D1*
Y1663882D2*
X2771451D1*
X2704633Y1600432D2*
X2713255D1*
X2716107Y1601383D1*
X2717080Y1602356D1*
X2718031Y1604257D1*
Y1607131D1*
X2717080Y1609032D1*
X2716107Y1610005D1*
X2713255Y1610956D1*
X2704633D1*
Y1590860D1*
X2724206Y1607109D2*
X2726130Y1608082D1*
X2729004Y1610933D1*
Y1590860D1*
X2736130Y1592783D2*
X2735180Y1591810D1*
X2736130Y1590860D1*
X2737103Y1591810D1*
X2736130Y1592783D1*
X2744251Y1606158D2*
Y1607109D1*
X2745202Y1609032D1*
X2746153Y1609983D1*
X2748076Y1610933D1*
X2751901D1*
X2753802Y1609983D1*
X2754753Y1609032D1*
X2755725Y1607109D1*
Y1605208D1*
X2754753Y1603284D1*
X2752851Y1600432D1*
X2743279Y1590860D1*
X2756676D1*
X2767627Y1610933D2*
X2764775Y1609983D1*
X2763802Y1608082D1*
Y1606158D1*
X2764775Y1604257D1*
X2766676Y1603284D1*
X2770501Y1602334D1*
X2773375Y1601383D1*
X2775276Y1599460D1*
X2776227Y1597558D1*
Y1594684D1*
X2775276Y1592783D1*
X2774326Y1591810D1*
X2771452Y1590860D1*
X2767627D1*
X2764775Y1591810D1*
X2763802Y1592783D1*
X2762852Y1594684D1*
Y1597558D1*
X2763802Y1599460D1*
X2765726Y1601383D1*
X2768578Y1602334D1*
X2772402Y1603284D1*
X2774326Y1604257D1*
X2775276Y1606158D1*
Y1608082D1*
X2774326Y1609983D1*
X2771452Y1610933D1*
X2767627D1*
X2714634Y1553358D2*
Y1573454D1*
X2706985Y1553358D1*
X2699335Y1573454D1*
Y1553358D1*
X2735158Y1568679D2*
X2734207Y1570580D1*
X2732284Y1572504D1*
X2730382Y1573454D1*
X2726558D1*
X2724634Y1572504D1*
X2722733Y1570580D1*
X2721760Y1568679D1*
X2720810Y1565805D1*
Y1561008D1*
X2721760Y1558156D1*
X2722733Y1556232D1*
X2724634Y1554331D1*
X2726558Y1553358D1*
X2730382D1*
X2732284Y1554331D1*
X2734207Y1556232D1*
X2735158Y1558156D1*
X2742306Y1568657D2*
Y1569608D1*
X2743257Y1571531D1*
X2744207Y1572482D1*
X2746131Y1573432D1*
X2749955D1*
X2751857Y1572482D1*
X2752807Y1571531D1*
X2753780Y1569608D1*
Y1567706D1*
X2752807Y1565783D1*
X2750906Y1562931D1*
X2741333Y1553358D1*
X2754731D1*
X2776227D2*
X2768556Y1573454D1*
X2760906Y1553358D1*
X2763781Y1560057D2*
X2773353D1*
X2704612Y1500432D2*
X2713234D1*
X2716086Y1501383D1*
X2717059Y1502356D1*
X2718010Y1504257D1*
Y1507131D1*
X2717059Y1509032D1*
X2716086Y1510005D1*
X2713234Y1510956D1*
X2704612D1*
Y1490860D1*
X2724185Y1507109D2*
X2726109Y1508082D1*
X2728983Y1510933D1*
Y1490860D1*
X2736109Y1492783D2*
X2735159Y1491810D1*
X2736109Y1490860D1*
X2737082Y1491810D1*
X2736109Y1492783D1*
X2744230Y1506158D2*
Y1507109D1*
X2745181Y1509032D1*
X2746132Y1509983D1*
X2748055Y1510933D1*
X2751880D1*
X2753781Y1509983D1*
X2754732Y1509032D1*
X2755704Y1507109D1*
Y1505208D1*
X2754732Y1503284D1*
X2752830Y1500432D1*
X2743258Y1490860D1*
X2756655D1*
X2764754Y1510933D2*
X2775255D1*
X2769529Y1503284D1*
X2772403D1*
X2774305Y1502334D1*
X2775255Y1501383D1*
X2776228Y1498509D1*
Y1496608D1*
X2775255Y1493734D1*
X2773354Y1491810D1*
X2770480Y1490860D1*
X2767606D1*
X2764754Y1491810D1*
X2763803Y1492783D1*
X2762831Y1494684D1*
X2707937Y1473454D2*
X2706035Y1472526D1*
X2704112Y1470602D1*
X2703161Y1468679D1*
X2702188Y1465805D1*
Y1461030D1*
X2703161Y1458156D1*
X2704112Y1456254D1*
X2706035Y1454331D1*
X2707937Y1453380D1*
X2711761D1*
X2713685Y1454331D1*
X2715586Y1456254D1*
X2716536Y1458156D1*
X2717509Y1461030D1*
Y1465805D1*
X2716536Y1468679D1*
X2715586Y1470602D1*
X2713685Y1472526D1*
X2711761Y1473454D1*
X2707937D1*
X2710811Y1457205D2*
X2716536Y1451457D1*
X2723685Y1462931D2*
X2732307D1*
X2735159Y1463882D1*
X2736132Y1464854D1*
X2737082Y1466756D1*
Y1469630D1*
X2736132Y1471531D1*
X2735159Y1472504D1*
X2732307Y1473454D1*
X2723685D1*
Y1453358D1*
X2743258Y1473454D2*
Y1453358D1*
X2756655Y1473454D2*
Y1453358D1*
X2743258Y1463882D2*
X2756655D1*
X2762831Y1473454D2*
Y1453358D1*
X2771453D1*
X2774327Y1454331D1*
X2775278Y1455282D1*
X2776228Y1457183D1*
Y1460057D1*
X2775278Y1461980D1*
X2774327Y1462931D1*
X2771453Y1463882D1*
X2774327Y1464854D1*
X2775278Y1465805D1*
X2776228Y1467706D1*
Y1469630D1*
X2775278Y1471531D1*
X2774327Y1472504D1*
X2771453Y1473454D1*
X2762831D1*
Y1463882D2*
X2771453D1*
X2704612Y1400432D2*
X2713234D1*
X2716086Y1401383D1*
X2717059Y1402356D1*
X2718010Y1404257D1*
Y1407131D1*
X2717059Y1409032D1*
X2716086Y1410005D1*
X2713234Y1410956D1*
X2704612D1*
Y1390860D1*
X2724185Y1407109D2*
X2726109Y1408082D1*
X2728983Y1410933D1*
Y1390860D1*
X2736109Y1392783D2*
X2735159Y1391810D1*
X2736109Y1390860D1*
X2737082Y1391810D1*
X2736109Y1392783D1*
X2744230Y1406158D2*
Y1407109D1*
X2745181Y1409032D1*
X2746132Y1409983D1*
X2748055Y1410933D1*
X2751880D1*
X2753781Y1409983D1*
X2754732Y1409032D1*
X2755704Y1407109D1*
Y1405208D1*
X2754732Y1403284D1*
X2752830Y1400432D1*
X2743258Y1390860D1*
X2756655D1*
X2763803Y1406158D2*
Y1407109D1*
X2764754Y1409032D1*
X2765705Y1409983D1*
X2767628Y1410933D1*
X2771453D1*
X2773354Y1409983D1*
X2774305Y1409032D1*
X2775277Y1407109D1*
Y1405208D1*
X2774305Y1403284D1*
X2772403Y1400432D1*
X2762831Y1390860D1*
X2776228D1*
X2716557Y1353358D2*
Y1373454D1*
X2708907Y1353358D1*
X2701258Y1373454D1*
Y1353358D1*
X2737080Y1368679D2*
X2736130Y1370580D1*
X2734206Y1372504D1*
X2732305Y1373454D1*
X2728480D1*
X2726557Y1372504D1*
X2724656Y1370580D1*
X2723683Y1368679D1*
X2722732Y1365805D1*
Y1361008D1*
X2723683Y1358156D1*
X2724656Y1356232D1*
X2726557Y1354331D1*
X2728480Y1353358D1*
X2732305D1*
X2734206Y1354331D1*
X2736130Y1356232D1*
X2737080Y1358156D1*
X2749004Y1373432D2*
X2746130Y1372482D1*
X2744207Y1369608D1*
X2743256Y1364832D1*
Y1361958D1*
X2744207Y1357183D1*
X2746130Y1354309D1*
X2749004Y1353358D1*
X2750905D1*
X2753779Y1354309D1*
X2755681Y1357183D1*
X2756653Y1361958D1*
Y1364832D1*
X2755681Y1369608D1*
X2753779Y1372482D1*
X2750905Y1373432D1*
X2749004D1*
X2755681Y1369608D2*
X2744207Y1357183D1*
X2762829Y1373454D2*
Y1353358D1*
X2771451D1*
X2774325Y1354331D1*
X2775276Y1355282D1*
X2776226Y1357183D1*
Y1360057D1*
X2775276Y1361980D1*
X2774325Y1362931D1*
X2771451Y1363882D1*
X2774325Y1364854D1*
X2775276Y1365805D1*
X2776226Y1367706D1*
Y1369630D1*
X2775276Y1371531D1*
X2774325Y1372504D1*
X2771451Y1373454D1*
X2762829D1*
Y1363882D2*
X2771451D1*
X2704612Y1300432D2*
X2713234D1*
X2716086Y1301383D1*
X2717059Y1302356D1*
X2718010Y1304257D1*
Y1307131D1*
X2717059Y1309032D1*
X2716086Y1310005D1*
X2713234Y1310956D1*
X2704612D1*
Y1290860D1*
X2724185Y1307109D2*
X2726109Y1308082D1*
X2728983Y1310933D1*
Y1290860D1*
X2736109Y1292783D2*
X2735159Y1291810D1*
X2736109Y1290860D1*
X2737082Y1291810D1*
X2736109Y1292783D1*
X2744230Y1306158D2*
Y1307109D1*
X2745181Y1309032D1*
X2746132Y1309983D1*
X2748055Y1310933D1*
X2751880D1*
X2753781Y1309983D1*
X2754732Y1309032D1*
X2755704Y1307109D1*
Y1305208D1*
X2754732Y1303284D1*
X2752830Y1300432D1*
X2743258Y1290860D1*
X2756655D1*
X2768579Y1310933D2*
X2765705Y1309983D1*
X2763781Y1307109D1*
X2762831Y1302334D1*
Y1299460D1*
X2763781Y1294684D1*
X2765705Y1291810D1*
X2768579Y1290860D1*
X2770480D1*
X2773354Y1291810D1*
X2775255Y1294684D1*
X2776228Y1299460D1*
Y1302334D1*
X2775255Y1307109D1*
X2773354Y1309983D1*
X2770480Y1310933D1*
X2768579D1*
X2775255Y1307109D2*
X2763781Y1294684D1*
X2706011Y1273454D2*
X2704110Y1272526D1*
X2702187Y1270602D1*
X2701236Y1268679D1*
X2700263Y1265805D1*
Y1261030D1*
X2701236Y1258156D1*
X2702187Y1256254D1*
X2704110Y1254331D1*
X2706011Y1253380D1*
X2709836D1*
X2711759Y1254331D1*
X2713661Y1256254D1*
X2714611Y1258156D1*
X2715584Y1261030D1*
Y1265805D1*
X2714611Y1268679D1*
X2713661Y1270602D1*
X2711759Y1272526D1*
X2709836Y1273454D1*
X2706011D1*
X2708885Y1257205D2*
X2714611Y1251457D1*
X2721760Y1262931D2*
X2730382D1*
X2733234Y1263882D1*
X2734206Y1264854D1*
X2735157Y1266756D1*
Y1269630D1*
X2734206Y1271531D1*
X2733234Y1272504D1*
X2730382Y1273454D1*
X2721760D1*
Y1253358D1*
X2741333Y1273454D2*
Y1253358D1*
X2754730Y1273454D2*
Y1253358D1*
X2741333Y1263882D2*
X2754730D1*
X2776226Y1253358D2*
X2768555Y1273454D1*
X2760906Y1253358D1*
X2763780Y1260057D2*
X2773352D1*
X2714164Y1200432D2*
X2722786D1*
X2725638Y1201383D1*
X2726610Y1202356D1*
X2727561Y1204257D1*
Y1207131D1*
X2726610Y1209032D1*
X2725638Y1210005D1*
X2722786Y1210956D1*
X2714164D1*
Y1190860D1*
X2733737Y1207109D2*
X2735660Y1208082D1*
X2738534Y1210933D1*
Y1190860D1*
X2745660Y1192783D2*
X2744710Y1191810D1*
X2745660Y1190860D1*
X2746633Y1191810D1*
X2745660Y1192783D1*
X2752809Y1207109D2*
X2754732Y1208082D1*
X2757606Y1210933D1*
Y1190860D1*
X2776229Y1204257D2*
X2775256Y1201383D1*
X2773355Y1199460D1*
X2770481Y1198509D1*
X2769530D1*
X2766656Y1199460D1*
X2764755Y1201383D1*
X2763782Y1204257D1*
Y1205208D1*
X2764755Y1208082D1*
X2766656Y1209983D1*
X2769530Y1210933D1*
X2770481D1*
X2773355Y1209983D1*
X2775256Y1208082D1*
X2776229Y1204257D1*
Y1199460D1*
X2775256Y1194684D1*
X2773355Y1191810D1*
X2770481Y1190860D1*
X2768579D1*
X2765705Y1191810D1*
X2764755Y1193734D1*
X2714634Y1153358D2*
Y1173454D1*
X2706985Y1153358D1*
X2699335Y1173454D1*
Y1153358D1*
X2735158Y1168679D2*
X2734207Y1170580D1*
X2732284Y1172504D1*
X2730382Y1173454D1*
X2726558D1*
X2724634Y1172504D1*
X2722733Y1170580D1*
X2721760Y1168679D1*
X2720810Y1165805D1*
Y1161008D1*
X2721760Y1158156D1*
X2722733Y1156232D1*
X2724634Y1154331D1*
X2726558Y1153358D1*
X2730382D1*
X2732284Y1154331D1*
X2734207Y1156232D1*
X2735158Y1158156D1*
X2747081Y1173432D2*
X2744207Y1172482D1*
X2742284Y1169608D1*
X2741333Y1164832D1*
Y1161958D1*
X2742284Y1157183D1*
X2744207Y1154309D1*
X2747081Y1153358D1*
X2748983D1*
X2751857Y1154309D1*
X2753758Y1157183D1*
X2754731Y1161958D1*
Y1164832D1*
X2753758Y1169608D1*
X2751857Y1172482D1*
X2748983Y1173432D1*
X2747081D1*
X2753758Y1169608D2*
X2742284Y1157183D1*
X2776227Y1153358D2*
X2768556Y1173454D1*
X2760906Y1153358D1*
X2763781Y1160057D2*
X2773353D1*
X2696013Y1100432D2*
X2704635D1*
X2707487Y1101383D1*
X2708459Y1102356D1*
X2709410Y1104257D1*
Y1107131D1*
X2708459Y1109032D1*
X2707487Y1110005D1*
X2704635Y1110956D1*
X2696013D1*
Y1090860D1*
X2721334Y1110933D2*
X2718460Y1109983D1*
X2716536Y1107109D1*
X2715586Y1102334D1*
Y1099460D1*
X2716536Y1094684D1*
X2718460Y1091810D1*
X2721334Y1090860D1*
X2723235D1*
X2726109Y1091810D1*
X2728010Y1094684D1*
X2728983Y1099460D1*
Y1102334D1*
X2728010Y1107109D1*
X2726109Y1109983D1*
X2723235Y1110933D1*
X2721334D1*
X2728010Y1107109D2*
X2716536Y1094684D1*
X2736109Y1092783D2*
X2735159Y1091810D1*
X2736109Y1090860D1*
X2737082Y1091810D1*
X2736109Y1092783D1*
X2745181Y1110933D2*
X2755682D1*
X2749956Y1103284D1*
X2752830D1*
X2754732Y1102334D1*
X2755682Y1101383D1*
X2756655Y1098509D1*
Y1096608D1*
X2755682Y1093734D1*
X2753781Y1091810D1*
X2750907Y1090860D1*
X2748033D1*
X2745181Y1091810D1*
X2744231Y1092783D1*
X2743258Y1094684D1*
X2768579Y1110933D2*
X2765705Y1109983D1*
X2763781Y1107109D1*
X2762831Y1102334D1*
Y1099460D1*
X2763781Y1094684D1*
X2765705Y1091810D1*
X2768579Y1090860D1*
X2770480D1*
X2773354Y1091810D1*
X2775255Y1094684D1*
X2776228Y1099460D1*
Y1102334D1*
X2775255Y1107109D1*
X2773354Y1109983D1*
X2770480Y1110933D1*
X2768579D1*
X2775255Y1107109D2*
X2763781Y1094684D1*
X2719932Y1073454D2*
X2707507D1*
Y1053358D1*
X2719932D1*
X2707507Y1063882D2*
X2715157D1*
X2726108Y1073454D2*
Y1053358D1*
X2745681Y1073454D2*
Y1053358D1*
X2732283Y1073454D1*
Y1053358D1*
X2758555Y1073454D2*
Y1053358D1*
X2751856Y1073454D2*
X2765254D1*
X2771429Y1069608D2*
X2773353Y1070580D1*
X2776227Y1073432D1*
Y1053358D1*
X2696961Y1000432D2*
X2705584D1*
X2708435Y1001383D1*
X2709408Y1002356D1*
X2710359Y1004257D1*
Y1007131D1*
X2709408Y1009032D1*
X2708435Y1010005D1*
X2705584Y1010956D1*
X2696961D1*
Y990860D1*
X2722283Y1010933D2*
X2719409Y1009983D1*
X2717485Y1007109D1*
X2716534Y1002334D1*
Y999460D1*
X2717485Y994684D1*
X2719409Y991810D1*
X2722283Y990860D1*
X2724184D1*
X2727058Y991810D1*
X2728959Y994684D1*
X2729932Y999460D1*
Y1002334D1*
X2728959Y1007109D1*
X2727058Y1009983D1*
X2724184Y1010933D1*
X2722283D1*
X2728959Y1007109D2*
X2717485Y994684D1*
X2737058Y992783D2*
X2736108Y991810D1*
X2737058Y990860D1*
X2738031Y991810D1*
X2737058Y992783D1*
X2745179Y1006158D2*
Y1007109D1*
X2746130Y1009032D1*
X2747081Y1009983D1*
X2749004Y1010933D1*
X2752829D1*
X2754730Y1009983D1*
X2755681Y1009032D1*
X2756653Y1007109D1*
Y1005208D1*
X2755681Y1003284D1*
X2753779Y1000432D1*
X2744207Y990860D1*
X2757604D1*
X2776226Y1004257D2*
X2775254Y1001383D1*
X2773352Y999460D1*
X2770478Y998509D1*
X2769528D1*
X2766654Y999460D1*
X2764752Y1001383D1*
X2763780Y1004257D1*
Y1005208D1*
X2764752Y1008082D1*
X2766654Y1009983D1*
X2769528Y1010933D1*
X2770478D1*
X2773352Y1009983D1*
X2775254Y1008082D1*
X2776226Y1004257D1*
Y999460D1*
X2775254Y994684D1*
X2773352Y991810D1*
X2770478Y990860D1*
X2768577D1*
X2765703Y991810D1*
X2764752Y993734D1*
X2648913Y973454D2*
Y953358D1*
X2655089Y963882D2*
X2663689D1*
X2666563Y964854D1*
X2667535Y965805D1*
X2668486Y967706D1*
Y969630D1*
X2667535Y971531D1*
X2666563Y972504D1*
X2663689Y973454D1*
X2655089D1*
Y953358D1*
X2661787Y963882D2*
X2668486Y953358D1*
X2674662Y950042D2*
X2692834D1*
X2699010Y973454D2*
Y953358D1*
X2705709D1*
X2708583Y954331D1*
X2710506Y956232D1*
X2711457Y958156D1*
X2712407Y961008D1*
Y965805D1*
X2711457Y968679D1*
X2710506Y970580D1*
X2708583Y972504D1*
X2705709Y973454D1*
X2699010D1*
X2733904Y953358D2*
X2726232Y973454D1*
X2718583Y953358D1*
X2721457Y960057D2*
X2731030D1*
X2746778Y973454D2*
Y953358D1*
X2740079Y973454D2*
X2753477D1*
X2774973Y953358D2*
X2767302Y973454D1*
X2759652Y953358D1*
X2762526Y960057D2*
X2772099D1*
X2648913Y978694D2*
X2781149D1*
X2705585Y900432D2*
X2714207D1*
X2717059Y901383D1*
X2718032Y902356D1*
X2718982Y904257D1*
Y907131D1*
X2718032Y909032D1*
X2717059Y910005D1*
X2714207Y910956D1*
X2705585D1*
Y890860D1*
X2730906Y910933D2*
X2728032Y909983D1*
X2726108Y907109D1*
X2725158Y902334D1*
Y899460D1*
X2726108Y894684D1*
X2728032Y891810D1*
X2730906Y890860D1*
X2732807D1*
X2735681Y891810D1*
X2737582Y894684D1*
X2738555Y899460D1*
Y902334D1*
X2737582Y907109D1*
X2735681Y909983D1*
X2732807Y910933D1*
X2730906D1*
X2737582Y907109D2*
X2726108Y894684D1*
X2745682Y892783D2*
X2744731Y891810D1*
X2745682Y890860D1*
X2746654Y891810D1*
X2745682Y892783D1*
X2752830Y907109D2*
X2754753Y908082D1*
X2757627Y910933D1*
Y890860D1*
X2775277Y908082D2*
X2774326Y909983D1*
X2771452Y910933D1*
X2769551D1*
X2766677Y909983D1*
X2764754Y907109D1*
X2763803Y902334D1*
Y897558D1*
X2764754Y893734D1*
X2766677Y891810D1*
X2769551Y890860D1*
X2770502D1*
X2773354Y891810D1*
X2775277Y893734D1*
X2776228Y896608D1*
Y897558D1*
X2775277Y900432D1*
X2773354Y902334D1*
X2770502Y903284D1*
X2769551D1*
X2766677Y902334D1*
X2764754Y900432D1*
X2763803Y897558D1*
X2712711Y863882D2*
X2721311D1*
X2724185Y864854D1*
X2725158Y865805D1*
X2726108Y867706D1*
Y869630D1*
X2725158Y871531D1*
X2724185Y872504D1*
X2721311Y873454D1*
X2712711D1*
Y853358D1*
X2719409Y863882D2*
X2726108Y853358D1*
X2732284Y873454D2*
X2745681Y853358D1*
Y873454D2*
X2732284Y853358D1*
X2751857Y873454D2*
Y853358D1*
X2758556D1*
X2761430Y854331D1*
X2763353Y856232D1*
X2764304Y858156D1*
X2765254Y861008D1*
Y865805D1*
X2764304Y868679D1*
X2763353Y870580D1*
X2761430Y872504D1*
X2758556Y873454D1*
X2751857D1*
X2771430Y869608D2*
X2773353Y870580D1*
X2776227Y873432D1*
Y853358D1*
X1693673Y973883D2*
D139*
Y933691D1*
X1716621D1*
X1728973Y952837D2*
X1746217D1*
X1751921Y954738D1*
X1753866Y956684D1*
X1755767Y960486D1*
Y966234D1*
X1753866Y970037D1*
X1751921Y971982D1*
X1746217Y973883D1*
X1728973D1*
Y933691D1*
X1796815Y964333D2*
X1794913Y968135D1*
X1791067Y971982D1*
X1787264Y973883D1*
X1779615D1*
X1775768Y971982D1*
X1771965Y968135D1*
X1770020Y964333D1*
X1768119Y958585D1*
Y948990D1*
X1770020Y943286D1*
X1771965Y939439D1*
X1775768Y935637D1*
X1779615Y933691D1*
X1787264D1*
X1791067Y935637D1*
X1794913Y939439D1*
X1796815Y943286D1*
X1828311Y933691D2*
Y973839D1*
X1809166Y947089D1*
X1837862D1*
X1861709Y973839D2*
X1855961Y971938D1*
X1852115Y966190D1*
X1850213Y956639D1*
Y950891D1*
X1852115Y941341D1*
X1855961Y935593D1*
X1861709Y933691D1*
X1865512D1*
X1871260Y935593D1*
X1875063Y941341D1*
X1877008Y950891D1*
Y956639D1*
X1875063Y966190D1*
X1871260Y971938D1*
X1865512Y973839D1*
X1861709D1*
X1875063Y966190D2*
X1852115Y941341D1*
X1897009Y933691D2*
X1916154Y973839D1*
X1889359D1*
X1938056D2*
X1932352Y971938D1*
X1930407Y968135D1*
Y964289D1*
X1932352Y960486D1*
X1936155Y958541D1*
X1943804Y956639D1*
X1949552Y954738D1*
X1953355Y950891D1*
X1955256Y947089D1*
Y941341D1*
X1953355Y937538D1*
X1951453Y935593D1*
X1945705Y933691D1*
X1938056D1*
X1932352Y935593D1*
X1930407Y937538D1*
X1928506Y941341D1*
Y947089D1*
X1930407Y950891D1*
X1934254Y954738D1*
X1939957Y956639D1*
X1947607Y958541D1*
X1951453Y960486D1*
X1953355Y964289D1*
Y968135D1*
X1951453Y971938D1*
X1945705Y973839D1*
X1938056D1*
X2033283Y968135D2*
X2029480Y971982D1*
X2023732Y973883D1*
X2016083D1*
X2010335Y971982D1*
X2006488Y968135D1*
Y964333D1*
X2008434Y960486D1*
X2010335Y958585D1*
X2014137Y956684D1*
X2025634Y952837D1*
X2029480Y950935D1*
X2031382Y948990D1*
X2033283Y945187D1*
Y939439D1*
X2029480Y935637D1*
X2023732Y933691D1*
X2016083D1*
X2010335Y935637D1*
X2006488Y939439D1*
X2064780Y973883D2*
Y943286D1*
X2062878Y937538D1*
X2060933Y935637D1*
X2057130Y933691D1*
X2053284D1*
X2049481Y935637D1*
X2047580Y937538D1*
X2045634Y943286D1*
Y947089D1*
X2103926Y968135D2*
X2100123Y971982D1*
X2094375Y973883D1*
X2086726D1*
X2080978Y971982D1*
X2077131Y968135D1*
Y964333D1*
X2079076Y960486D1*
X2080978Y958585D1*
X2084780Y956684D1*
X2096276Y952837D1*
X2100123Y950935D1*
X2102024Y948990D1*
X2103926Y945187D1*
Y939439D1*
X2100123Y935637D1*
X2094375Y933691D1*
X2086726D1*
X2080978Y935637D1*
X2077131Y939439D1*
X2116277Y973883D2*
Y945187D1*
X2118178Y939439D1*
X2122025Y935637D1*
X2127773Y933691D1*
X2131576D1*
X2137324Y935637D1*
X2141170Y939439D1*
X2143072Y945187D1*
Y973883D1*
X2223000Y964333D2*
X2221099Y968135D1*
X2217252Y971982D1*
X2213449Y973883D1*
X2205800D1*
X2201953Y971982D1*
X2198151Y968135D1*
X2196205Y964333D1*
X2194304Y958585D1*
Y948990D1*
X2196205Y943286D1*
X2198151Y939439D1*
X2201953Y935637D1*
X2205800Y933691D1*
X2213449D1*
X2217252Y935637D1*
X2221099Y939439D1*
X2223000Y943286D1*
X2235351Y960486D2*
Y933691D1*
Y952837D2*
X2241099Y958585D1*
X2244946Y960486D1*
X2250650D1*
X2254497Y958585D1*
X2256398Y952837D1*
Y933691D1*
Y952837D2*
X2262146Y958585D1*
X2265993Y960486D1*
X2271696D1*
X2275543Y958585D1*
X2277489Y952837D1*
Y933691D1*
X2289840Y960486D2*
Y920294D1*
Y954738D2*
X2293687Y958541D1*
X2297489Y960486D1*
X2303237D1*
X2307084Y958541D1*
X2310887Y954738D1*
X2312832Y948990D1*
Y945143D1*
X2310887Y939439D1*
X2307084Y935593D1*
X2303237Y933691D1*
X2297489D1*
X2293687Y935593D1*
X2289840Y939439D1*
X2350033Y973883D2*
X2325184D1*
Y933691D1*
X2350033D1*
X2325184Y954738D2*
X2340482D1*
X2401265Y973883D2*
Y933691D1*
X2418509D1*
X2424257Y935637D1*
X2426158Y937538D1*
X2428060Y941341D1*
Y947089D1*
X2426158Y950935D1*
X2424257Y952837D1*
X2418509Y954738D1*
X2424257Y956684D1*
X2426158Y958585D1*
X2428060Y962387D1*
Y966234D1*
X2426158Y970037D1*
X2424257Y971982D1*
X2418509Y973883D1*
X2401265D1*
Y954738D2*
X2418509D1*
X2451907Y973883D2*
X2448060Y971982D1*
X2444258Y968135D1*
X2442312Y964333D1*
X2440411Y958585D1*
Y948990D1*
X2442312Y943286D1*
X2444258Y939439D1*
X2448060Y935637D1*
X2451907Y933691D1*
X2459556D1*
X2463359Y935637D1*
X2467206Y939439D1*
X2469107Y943286D1*
X2471008Y948990D1*
Y958585D1*
X2469107Y964333D1*
X2467206Y968135D1*
X2463359Y971982D1*
X2459556Y973883D1*
X2451907D1*
X2514001Y933691D2*
X2498658Y973883D1*
X2483360Y933691D1*
X2489108Y947089D2*
X2508253D1*
X2526353Y954738D2*
X2543552D1*
X2549300Y956684D1*
X2551246Y958585D1*
X2553147Y962387D1*
Y966234D1*
X2551246Y970037D1*
X2549300Y971982D1*
X2543552Y973883D1*
X2526353D1*
Y933691D1*
X2539750Y954738D2*
X2553147Y933691D1*
X2565499Y973883D2*
Y933691D1*
X2578896D1*
X2584644Y935637D1*
X2588491Y939439D1*
X2590392Y943286D1*
X2592293Y948990D1*
Y958585D1*
X2590392Y964333D1*
X2588491Y968135D1*
X2584644Y971982D1*
X2578896Y973883D1*
X2565499D1*
X458517Y2396026D2*
D140*
X469991Y2365882D1*
X481465Y2396026D1*
X490728D2*
Y2365882D1*
X520088Y2396026D2*
Y2365882D1*
X499992Y2396026D1*
Y2365882D1*
X417591Y2424639D2*
D141*
Y2381584D1*
X396091Y2403084D2*
X439146D1*
M02*
