%TF.GenerationSoftware,Novarm,DipTrace,3.2.0.1*%
%TF.CreationDate,2018-09-17T07:16:26-08:00*%
%FSLAX26Y26*%
%MOIN*%
%TF.FileFunction,Copper,L2,Inr*%
%TF.Part,Single*%
%AMOUTLINE1*
4,1,4,
0.026163,0.026163,
0.026205,-0.026121,
-0.026121,-0.026205,
-0.026163,0.026163,
0.026163,0.026163,
0*%
%TA.AperFunction,Conductor*%
%ADD15C,0.007*%
%ADD16C,0.006*%
%ADD17C,0.015748*%
%TA.AperFunction,ComponentPad*%
%ADD33R,0.059055X0.059055*%
%ADD34C,0.059055*%
%ADD38O,0.070866X0.043307*%
%ADD45C,0.074*%
%ADD62R,0.05937X0.05937*%
%ADD63C,0.05937*%
%ADD67C,0.048*%
%TA.AperFunction,ViaPad*%
%ADD68C,0.024*%
%TA.AperFunction,ComponentPad*%
%ADD147OUTLINE1*%
G75*
G01*
%LPD*%
X1281108Y543948D2*
D15*
Y522075D1*
X1299856Y503327D1*
X1356100D1*
X1399845Y547072D1*
Y678309D1*
X2174950Y1456201D2*
D16*
X2199610D1*
X2680961Y1937551D1*
X2162452Y1499952D2*
X2193366D1*
X2674711Y1981297D1*
X2502855Y878288D2*
D15*
Y872047D1*
X2548201Y826701D1*
X2886452D1*
X2947201Y887450D1*
X2943701D1*
X2337247Y1293869D2*
D16*
Y1337614D1*
X2687210Y1687578D1*
X2337247Y1237625D2*
X2374743Y1275121D1*
Y1337614D1*
X2674711Y1637583D1*
X674921Y2149952D2*
D15*
Y2206273D1*
X2224759Y2481244D2*
D16*
X2262255D1*
X2399740Y2343759D1*
X2737205D1*
X2780897Y2387450D1*
X2843701D1*
Y2487450D2*
X2843400D1*
X2737205Y2381255D1*
X2574722D1*
X656173Y575194D2*
Y718929D1*
X643675Y731428D1*
X612428D1*
X1156121Y462706D2*
X968641D1*
X899898Y531449D1*
X637425D1*
X543685Y625189D1*
Y650187D1*
X1243612Y525200D2*
Y493953D1*
X1181118Y431460D1*
X956142D1*
X881150Y506452D1*
X637425D1*
X493691Y650187D1*
X474942D1*
X1057432Y532605D2*
X1042477D1*
X1012386Y562696D1*
X693670D1*
X681171Y550197D1*
X643675D1*
X612428Y581444D1*
Y650187D1*
X2162265Y1831313D2*
Y2100137D1*
X2143701Y2118701D1*
X1887453D1*
X806201Y2362452D2*
X862452Y2306201D1*
X906201D1*
X993701Y2218701D1*
Y2093701D1*
X999950Y2087452D1*
Y2037453D1*
X1031777Y2005626D1*
X1174952Y1862452D1*
X1537450D1*
X1549950Y1874952D1*
X1737450D1*
X1768701Y1843701D1*
X849903Y2375005D2*
X912397D1*
X1037383Y2250019D1*
Y2137519D1*
X1174950Y1999952D1*
X1168620Y2006282D1*
X1174950Y1999952D2*
X1274847Y1900055D1*
X1768557D1*
X2131019Y1237625D2*
X2674711Y1781318D1*
X2324748Y1381360D2*
X2330998Y1375110D1*
X2693460Y1737572D1*
X868701Y2340576D2*
D15*
X915579D1*
D16*
Y2334323D1*
X1018701Y2231201D1*
Y2099950D1*
X1224864Y1893788D1*
Y1781318D2*
X1231201D1*
Y1612498D1*
D15*
X1518583Y1325116D1*
Y850166D1*
X2943701Y2287450D2*
D16*
X2974616D1*
X3030924Y2343759D1*
Y2599982D1*
X2968431Y2662475D1*
X2924685D1*
X2762202Y2824958D1*
X2530987D1*
X2530977Y2824969D1*
X2193512Y1700076D2*
X2249756Y1756320D1*
Y1762570D1*
X2262255Y1775068D1*
X2287252D1*
X2293502Y1768819D1*
X2399740D1*
X2405990Y1775068D1*
X2843701Y2587450D2*
Y2568992D1*
X2705958Y2431250D1*
X2593470D1*
X2084149Y1328240D2*
X2087437Y1324952D1*
X2124952D1*
X2693806Y1893806D1*
X2124769Y1281370D2*
X2674711Y1831313D1*
X1962286Y1175131D2*
X1974785D1*
X1993533Y1156383D1*
Y1100139D1*
X1806053Y912659D1*
X1656068D1*
X1631071Y887662D1*
Y856415D1*
X1581076Y806420D1*
X1499835D1*
X1468588Y775173D1*
X1799803Y781423D2*
Y800171D1*
X1762307Y837667D1*
X1674816D1*
X1656068Y856415D1*
Y881412D1*
X1668567Y893911D1*
X1693565D1*
X1699814Y887662D1*
X1874795D1*
X1906042Y918908D1*
Y987651D1*
X1993533Y1075142D1*
Y1075752D1*
X2012281Y1094500D1*
Y1181381D1*
X2181013Y1543843D2*
X2143517D1*
X2043528Y1443853D1*
Y1237625D1*
X2074774Y1206378D1*
Y1000150D1*
X1974785Y900160D1*
Y843916D1*
X1987284Y831418D1*
X2093523D1*
X2143517Y781423D1*
X2087273Y1231376D2*
X2112271Y1206378D1*
X2143517D1*
X2162265Y1225126D1*
X2224759D1*
X2418488Y1031397D1*
Y825168D1*
X2474732Y768924D1*
Y725420D1*
X568701Y1727450D2*
Y1918785D1*
X556184Y1931302D1*
X2843701Y2287450D2*
X2855878D1*
X2905937Y2337509D1*
X2980929D1*
X3005927Y2362507D1*
Y2593732D1*
X2962181Y2637478D1*
X2318467D1*
X2230977Y2724969D1*
X1837299Y1231376D2*
D15*
Y1243874D1*
X1887294Y1293869D1*
Y1818814D1*
X1453076Y2253032D1*
Y2543701D1*
X676013Y2368756D2*
D17*
Y2258301D1*
X712418Y2221897D1*
Y2137530D1*
X749914Y2100034D1*
X806158D1*
X821781Y2084411D1*
Y2003170D1*
X678046D2*
D16*
X634301D1*
X518688Y2118782D1*
Y2368756D1*
X671797Y2521865D1*
X718667D1*
X2293502Y1818814D2*
Y2325011D1*
X2193512Y2425000D1*
Y2512491D1*
X2212260Y2531239D1*
X2224759D1*
X1681066Y868914D2*
X1912292D1*
X2056026Y1012649D1*
Y1100139D1*
X2037278Y1118887D1*
Y1206378D1*
X2012450Y868914D2*
X2118520D1*
X2212260Y962654D1*
Y975152D1*
X2193512Y993900D1*
Y1181381D1*
X2187263Y1187630D1*
X2174764D1*
X2218509D2*
Y993900D1*
X2337247Y875163D1*
Y868914D1*
X2655963Y1475100D2*
Y893911D1*
X2662213Y887662D1*
X1068701Y1737450D2*
D15*
Y1743701D1*
X1137450Y1812450D1*
X1409201D1*
X1465450Y1756201D1*
X1796824Y1281201D2*
X1784349D1*
X1696689Y1368861D1*
X1534206D1*
X1456089Y1446978D1*
Y1496973D1*
X1468701Y1509584D1*
Y1752950D1*
X1465450Y1756201D1*
X1637450Y2185630D2*
X1576781D1*
X1574960Y2187452D1*
X2124769Y1831313D2*
D16*
Y2050133D1*
X2099865Y2075037D1*
X1748044D1*
X1637450Y2185630D1*
X1889274Y2187452D2*
D15*
X1768710D1*
D68*
X1281108Y543948D3*
X1399845Y678309D3*
X2174950Y1456201D3*
X2680961Y1937551D3*
X2162452Y1499952D3*
X2674711Y1981297D3*
X2502855Y878288D3*
X2337247Y1293869D3*
X2687210Y1687578D3*
X2337247Y1237625D3*
X2674711Y1637583D3*
X970858Y2375912D3*
X971765Y2075037D3*
X712452Y2378164D3*
X674921Y2149952D3*
Y2206273D3*
X740540Y2356257D3*
X1562452Y1846936D3*
X548502Y2275936D3*
X837404Y2193774D3*
X1252987Y2240645D3*
X1352978D3*
X756299Y2524949D3*
X1091242Y2709324D3*
X1196826Y684326D3*
X1074879D3*
X1257591Y445436D3*
X1196826Y684326D3*
X1257591Y445436D3*
X1796824Y1214272D3*
X1728075Y1059658D3*
X1315576Y887450D3*
X1257591Y445436D3*
X681171Y1921928D3*
X1315576Y887450D3*
X824906Y1921928D3*
X1331299Y846844D3*
X1196826Y684326D3*
X749696D3*
X1331299Y846844D3*
X1002314Y492840D3*
X787683Y2250181D3*
X887452Y2249950D3*
X887310Y2143841D3*
X548502Y2275936D3*
X545377Y2020030D3*
X787683Y2143780D3*
X1831050Y1393858D3*
X1728075Y1290883D3*
X1796824Y1214272D3*
X1062452Y2243701D3*
X1156201D3*
X1062452D3*
X1156201D3*
X1252987Y2240645D3*
X731071Y456457D3*
X1002314Y492840D3*
X1531082Y2799961D3*
X1091242Y2709324D3*
X1912292Y2824958D3*
X2093523Y2793711D3*
X2162265Y2587483D3*
X1524832Y2343759D3*
X1693565Y2318761D3*
X2003772Y2318550D3*
X2074774Y2356257D3*
X2003772Y2318550D3*
X2293502Y2381255D3*
X2023294Y1029911D3*
X2530977Y1187630D3*
X2023294Y1029911D3*
X1939103Y1762570D3*
X1812302Y1712575D3*
X2274753Y1750071D3*
X1939103Y1762570D3*
X2637215Y1525095D3*
X2274753Y1750071D3*
X981201Y1431201D3*
X819292D3*
X1956201Y2749950D3*
X2097213Y1847213D3*
X2224759Y2481244D3*
X2156201Y1399952D3*
X1037452Y1249952D3*
X2574722Y2381255D3*
X1781201Y2718701D3*
X2093701Y1887452D3*
X656173Y575194D3*
X612428Y731428D3*
X1156121Y462706D3*
X543685Y650187D3*
X1243612Y525200D3*
X474942Y650187D3*
X1057432Y532605D3*
X612428Y650187D3*
X2131019Y1018898D3*
X931145Y1200129D3*
X474952Y731201D3*
X2162265Y1831313D3*
X1887453Y2118701D3*
X806201Y2362452D3*
X1031777Y2005626D3*
X1768701Y1843701D3*
X849903Y2375005D3*
X1168620Y2006282D3*
X1768557Y1900055D3*
X2131019Y1237625D3*
X2674711Y1781318D3*
X2324748Y1381360D3*
X2693460Y1737572D3*
X1634196Y1287620D3*
X1556079Y1465726D3*
X868701Y2340576D3*
X1224864Y1893788D3*
Y1781318D3*
X1518583Y850166D3*
X2465576Y924952D3*
X2193512Y1700076D3*
X2405990Y1775068D3*
X1018701Y1218701D3*
X2118701Y1368701D3*
X2593470Y2431250D3*
X1868546Y2762465D3*
X2050197Y1912452D3*
X2084149Y1328240D3*
X2693806Y1893806D3*
X2362450Y953076D3*
X1243612Y562696D3*
X2362450Y953076D3*
X1871826Y931201D3*
X806158Y456457D3*
X1002314Y532604D3*
X1243612Y562696D3*
X2124769Y1281370D3*
X2674711Y1831313D3*
X2334326Y981201D3*
X1160723Y564173D3*
X1815427Y1022534D3*
X2334326Y981201D3*
X1056131Y575194D3*
X1160723Y564173D3*
X656173Y456457D3*
X1056131Y575194D3*
X1962286Y1175131D3*
X1468588Y775173D3*
X1799803Y781423D3*
X2012281Y1181381D3*
X2181013Y1543843D3*
X2143517Y781423D3*
X2087273Y1231376D3*
X2474732Y725420D3*
X2031029Y1512596D3*
X556184Y1931302D3*
X1946826Y1587452D3*
X1928076Y1618701D3*
X1974950Y1568700D3*
X1968847Y1512596D3*
X1837299Y1231376D3*
X1453076Y2543701D3*
X2468483Y1027147D3*
X2249756Y1012649D3*
X2580971Y1493848D3*
X2468483Y1027147D3*
X2006032Y1762570D3*
X2206011Y1750071D3*
X676013Y2368756D3*
X821781Y2003170D3*
X678046D3*
X718667Y2521865D3*
X2293502Y1818814D3*
X2224759Y2531239D3*
D3*
X1681066Y868914D3*
X2037278Y1206378D3*
X2012450Y868914D3*
X2174764Y1187630D3*
X2218509D3*
X2337247Y868914D3*
X2655963Y1475100D3*
X2662213Y887662D3*
X2109252Y1050145D3*
X871826Y1249952D3*
X543701Y731201D3*
X1796824Y1281201D3*
X1965551Y1365600D3*
X1337352Y2084411D3*
X1637450Y2185630D3*
X1574960Y2187452D3*
X2124769Y1831313D3*
X1637450Y2185630D3*
X1889274Y2187452D3*
X1768710D3*
X2118520Y2668725D3*
X1889274Y2187452D3*
D33*
X484316Y2471870D3*
D34*
Y2571870D3*
D38*
X448999Y2279873D3*
Y2020030D3*
D147*
X468701Y1737450D3*
D45*
X568701Y1727450D3*
X668701Y1737450D3*
X768701Y1727450D3*
X868701Y1737450D3*
X968701Y1727450D3*
X1068701Y1737450D3*
X1168701Y1727450D3*
D33*
X2843701Y687450D3*
D34*
Y787450D3*
Y887450D3*
Y987450D3*
Y1087450D3*
Y1187450D3*
Y1287450D3*
Y1387450D3*
Y1487450D3*
Y1587450D3*
Y1687450D3*
Y1787450D3*
Y1887450D3*
Y1987450D3*
Y2087450D3*
Y2187450D3*
Y2287450D3*
Y2387450D3*
Y2487450D3*
Y2587450D3*
D33*
X2943701Y687450D3*
D34*
Y787450D3*
Y887450D3*
Y987450D3*
Y1087450D3*
Y1187450D3*
Y1287450D3*
Y1387450D3*
Y1487450D3*
Y1587450D3*
Y1687450D3*
Y1787450D3*
Y1887450D3*
Y1987450D3*
Y2087450D3*
Y2187450D3*
Y2287450D3*
Y2387450D3*
Y2487450D3*
Y2587450D3*
D45*
X1287450Y1756201D3*
Y2012201D3*
X1465450Y1756201D3*
Y2012201D3*
X1549950Y474950D3*
Y730950D3*
X1727950Y474950D3*
Y730950D3*
X1885368Y474950D3*
Y730950D3*
X2063368Y474950D3*
Y730950D3*
X2220784Y474950D3*
Y730950D3*
X2398784Y474950D3*
Y730950D3*
X2556201Y474950D3*
Y730950D3*
X2734201Y474950D3*
Y730950D3*
D62*
X2530977Y2724969D3*
D63*
Y2824969D3*
X2430977Y2724969D3*
Y2824969D3*
X2330977Y2724969D3*
Y2824969D3*
D62*
X2230977Y2724969D3*
D63*
Y2824969D3*
D67*
X1584326Y1049954D3*
Y1239954D3*
M02*
