%TF.GenerationSoftware,Novarm,DipTrace,3.2.0.1*%
%TF.CreationDate,2018-02-01T20:33:38-08:00*%
%FSLAX26Y26*%
%MOIN*%
%TF.FileFunction,Drawing,Top*%
%TF.Part,Single*%
%ADD13C,0.001378*%
%ADD29C,0.006176*%
G75*
G01*
%LPD*%
X394016Y537766D2*
D13*
Y744951D1*
X525265Y687766D2*
Y744951D1*
X394016Y725266D2*
X525265D1*
X334961D2*
X354646D1*
G36*
X394016D2*
X354646Y717392D1*
Y733140D1*
X394016Y725266D1*
G37*
X584320D2*
D13*
X564635D1*
G36*
X525265D2*
X564635Y733140D1*
Y717392D1*
X525265Y725266D1*
G37*
X1050265Y687766D2*
D13*
Y757451D1*
X1194016Y537766D2*
Y757451D1*
X1050265Y737766D2*
X1194016D1*
X991210D2*
X1010895D1*
G36*
X1050265D2*
X1010895Y729892D1*
Y745640D1*
X1050265Y737766D1*
G37*
X1253071D2*
D13*
X1233386D1*
G36*
X1194016D2*
X1233386Y745640D1*
Y729892D1*
X1194016Y737766D1*
G37*
X394016Y537766D2*
D13*
Y1119951D1*
X1194016Y537766D2*
Y1119951D1*
X794016Y1100266D2*
X433386D1*
G36*
X394016D2*
X433386Y1108140D1*
Y1092392D1*
X394016Y1100266D1*
G37*
X794016D2*
D13*
X1154646D1*
G36*
X1194016D2*
X1154646Y1092392D1*
Y1108140D1*
X1194016Y1100266D1*
G37*
X937765Y981516D2*
D13*
X1507450D1*
X1194016Y394016D2*
X1507450D1*
X1487765Y687766D2*
Y942146D1*
G36*
Y981516D2*
X1495639Y942146D1*
X1479891D1*
X1487765Y981516D1*
G37*
Y687766D2*
D13*
Y433386D1*
G36*
Y394016D2*
X1479891Y433386D1*
X1495639D1*
X1487765Y394016D1*
G37*
X405933Y777625D2*
D29*
X426935D1*
X415483Y762326D1*
X421231D1*
X425034Y760425D1*
X426935Y758524D1*
X428880Y752776D1*
Y748973D1*
X426935Y743225D1*
X423132Y739378D1*
X417384Y737477D1*
X411636D1*
X405933Y739378D1*
X404031Y741324D1*
X402086Y745126D1*
X443133Y741324D2*
X441232Y739378D1*
X443133Y737477D1*
X445079Y739378D1*
X443133Y741324D1*
X461277Y777625D2*
X482279D1*
X470827Y762326D1*
X476575D1*
X480378Y760425D1*
X482279Y758524D1*
X484225Y752776D1*
Y748973D1*
X482279Y743225D1*
X478477Y739378D1*
X472729Y737477D1*
X466981D1*
X461277Y739378D1*
X459376Y741324D1*
X457430Y745126D1*
X500423Y777625D2*
X521425D1*
X509973Y762326D1*
X515721D1*
X519524Y760425D1*
X521425Y758524D1*
X523371Y752776D1*
Y748973D1*
X521425Y743225D1*
X517623Y739378D1*
X511875Y737477D1*
X506127D1*
X500423Y739378D1*
X498522Y741324D1*
X496576Y745126D1*
X1069405Y790125D2*
X1090408D1*
X1078956Y774826D1*
X1084704D1*
X1088506Y772925D1*
X1090408Y771024D1*
X1092353Y765276D1*
Y761473D1*
X1090408Y755725D1*
X1086605Y751878D1*
X1080857Y749977D1*
X1075109D1*
X1069405Y751878D1*
X1067504Y753824D1*
X1065559Y757626D1*
X1106606Y753824D2*
X1104705Y751878D1*
X1106606Y749977D1*
X1108551Y751878D1*
X1106606Y753824D1*
X1143851Y784421D2*
X1141949Y788224D1*
X1136201Y790125D1*
X1132399D1*
X1126651Y788224D1*
X1122804Y782476D1*
X1120903Y772925D1*
Y763374D1*
X1122804Y755725D1*
X1126651Y751878D1*
X1132399Y749977D1*
X1134300D1*
X1140004Y751878D1*
X1143851Y755725D1*
X1145752Y761473D1*
Y763374D1*
X1143851Y769123D1*
X1140004Y772925D1*
X1134300Y774826D1*
X1132399D1*
X1126651Y772925D1*
X1122804Y769123D1*
X1120903Y763374D1*
X1181051Y790125D2*
X1161950D1*
X1160049Y772925D1*
X1161950Y774826D1*
X1167698Y776772D1*
X1173402D1*
X1179150Y774826D1*
X1182997Y771024D1*
X1184898Y765276D1*
Y761473D1*
X1182997Y755725D1*
X1179150Y751878D1*
X1173402Y749977D1*
X1167698D1*
X1161950Y751878D1*
X1160049Y753824D1*
X1158103Y757626D1*
X718834Y1143074D2*
Y1144976D1*
X720735Y1148822D1*
X722636Y1150724D1*
X726483Y1152625D1*
X734132D1*
X737935Y1150724D1*
X739836Y1148822D1*
X741781Y1144976D1*
Y1141173D1*
X739836Y1137326D1*
X736033Y1131623D1*
X716888Y1112477D1*
X743683D1*
X767530Y1152625D2*
X761782Y1150724D1*
X757935Y1144976D1*
X756034Y1135425D1*
Y1129677D1*
X757935Y1120126D1*
X761782Y1114378D1*
X767530Y1112477D1*
X771333D1*
X777081Y1114378D1*
X780883Y1120126D1*
X782829Y1129677D1*
Y1135425D1*
X780883Y1144976D1*
X777081Y1150724D1*
X771333Y1152625D1*
X767530D1*
X780883Y1144976D2*
X757935Y1120126D1*
X797081Y1116324D2*
X795180Y1114378D1*
X797081Y1112477D1*
X799027Y1114378D1*
X797081Y1116324D1*
X815225Y1152625D2*
X836228D1*
X824776Y1137326D1*
X830524D1*
X834326Y1135425D1*
X836228Y1133524D1*
X838173Y1127776D1*
Y1123973D1*
X836228Y1118225D1*
X832425Y1114378D1*
X826677Y1112477D1*
X820929D1*
X815225Y1114378D1*
X813324Y1116324D1*
X811378Y1120126D1*
X852470Y1143074D2*
Y1144976D1*
X854371Y1148822D1*
X856272Y1150724D1*
X860119Y1152625D1*
X867769D1*
X871571Y1150724D1*
X873472Y1148822D1*
X875418Y1144976D1*
Y1141173D1*
X873472Y1137326D1*
X869670Y1131623D1*
X850524Y1112477D1*
X877319D1*
X1532474Y756293D2*
X1534420Y752447D1*
X1540124Y746699D1*
X1499976D1*
Y715202D2*
X1540124D1*
X1513373Y734347D1*
Y705651D1*
X1503823Y691399D2*
X1501877Y693300D1*
X1499976Y691399D1*
X1501877Y689453D1*
X1503823Y691399D1*
X1526771Y652208D2*
X1521022Y654154D1*
X1517176Y657956D1*
X1515274Y663704D1*
Y665606D1*
X1517176Y671354D1*
X1521022Y675156D1*
X1526771Y677102D1*
X1528672D1*
X1534420Y675156D1*
X1538222Y671354D1*
X1540124Y665606D1*
Y663704D1*
X1538222Y657956D1*
X1534420Y654154D1*
X1526771Y652208D1*
X1517176D1*
X1507625Y654154D1*
X1501877Y657956D1*
X1499976Y663704D1*
Y667507D1*
X1501877Y673255D1*
X1505724Y675156D1*
X1530573Y637912D2*
X1532474D1*
X1536321Y636010D1*
X1538222Y634109D1*
X1540124Y630262D1*
Y622613D1*
X1538222Y618810D1*
X1536321Y616909D1*
X1532474Y614964D1*
X1528672D1*
X1524825Y616909D1*
X1519121Y620712D1*
X1499976Y639857D1*
Y613062D1*
M02*
