%TF.GenerationSoftware,Novarm,DipTrace,3.2.0.1*%
%TF.CreationDate,2018-03-15T12:04:57-08:00*%
%FSLAX26Y26*%
%MOIN*%
%TF.FileFunction,Copper,L1,Top*%
%TF.Part,Single*%
%AMOUTLINE0*
4,1,4,
-0.035433,0.019685,
-0.035433,-0.019685,
0.035433,-0.019685,
0.035433,0.019685,
-0.035433,0.019685,
0*%
%AMOUTLINE1*
4,1,4,
0.026163,0.026163,
0.026205,-0.026121,
-0.026121,-0.026205,
-0.026163,0.026163,
0.026163,0.026163,
0*%
%AMOUTLINE2*
4,1,4,
-0.023622,0.015748,
-0.023622,-0.015748,
0.023622,-0.015748,
0.023622,0.015748,
-0.023622,0.015748,
0*%
%AMOUTLINE3*
4,1,4,
-0.010827,-0.023622,
0.010827,-0.023622,
0.010827,0.023622,
-0.010827,0.023622,
-0.010827,-0.023622,
0*%
%TA.AperFunction,Conductor*%
%ADD15C,0.007*%
%ADD16C,0.015748*%
%ADD17C,0.006*%
%ADD18C,0.008*%
%ADD19C,0.012*%
%ADD20C,0.01*%
%ADD21C,0.011811*%
%ADD22C,0.015*%
%ADD23C,0.023622*%
%ADD24R,0.15748X0.141732*%
%ADD26R,0.03937X0.043307*%
%ADD27R,0.043307X0.03937*%
%ADD28R,0.059055X0.051181*%
%ADD30R,0.023622X0.023622*%
%TA.AperFunction,ComponentPad*%
%ADD33R,0.059055X0.059055*%
%ADD34C,0.059055*%
%ADD36R,0.05315X0.015748*%
%ADD37R,0.055118X0.062992*%
%TA.AperFunction,ComponentPad*%
%ADD38O,0.070866X0.043307*%
%ADD39R,0.031496X0.048819*%
%ADD40R,0.045276X0.098425*%
%ADD41R,0.045276X0.086614*%
%ADD42R,0.059055X0.045276*%
%ADD43R,0.045669X0.047244*%
%ADD44R,0.045669X0.049213*%
%TA.AperFunction,ComponentPad*%
%ADD45C,0.074*%
%ADD49R,0.062992X0.011811*%
%ADD50R,0.011811X0.062992*%
%ADD52O,0.033465X0.011811*%
%ADD53O,0.011811X0.033465*%
%ADD54R,0.137795X0.137795*%
%ADD55R,0.015748X0.07874*%
%ADD56R,0.070866X0.015748*%
%ADD58R,0.011811X0.019685*%
%ADD59R,0.019685X0.011811*%
%TA.AperFunction,ComponentPad*%
%ADD60R,0.05937X0.05937*%
%ADD61C,0.05937*%
%ADD62R,0.07874X0.023622*%
%ADD64R,0.074803X0.059055*%
%TA.AperFunction,ComponentPad*%
%ADD65C,0.048*%
%TA.AperFunction,ViaPad*%
%ADD66C,0.024*%
%ADD141OUTLINE0*%
%TA.AperFunction,ComponentPad*%
%ADD142OUTLINE1*%
%ADD143OUTLINE2*%
%ADD144OUTLINE3*%
%TA.AperFunction,CopperBalancing*%
%ADD145C,0.01*%
G75*
G01*
%LPD*%
X1280580Y594016D2*
D15*
Y534046D1*
X1278298Y531764D1*
X1400160Y678624D2*
Y677192D1*
X1400265Y677087D1*
X1007425Y681516D2*
X945775D1*
X1002629Y572684D2*
Y676719D1*
X1007425Y681516D1*
X938996Y2156197D2*
X972080D1*
Y2075352D1*
X959582Y2062853D1*
X803348D1*
X800223Y2065978D1*
Y2098120D1*
X801201Y2097142D1*
X971173Y2376227D2*
D3*
X801201Y2293992D2*
Y2321223D1*
X769016Y2353408D1*
Y2369032D1*
X753353Y2384694D1*
X718982D1*
X712767Y2378479D1*
Y2275331D1*
X721437D1*
X742146Y2254622D1*
X879941Y2293992D2*
Y2311303D1*
X897088Y2328450D1*
X922086D1*
X972080Y2378445D1*
Y2375320D1*
X554550Y2150267D2*
X675236D1*
Y2206588D2*
X684610Y2197214D1*
X743793D1*
X742146Y2195567D1*
X554550Y2175857D2*
X742146Y2175882D1*
X781516Y2293992D2*
Y2315911D1*
X740855Y2356572D1*
X1562767Y1847251D2*
Y1845838D1*
X2041067Y2191068D2*
D16*
Y2129047D1*
X2040582Y2128562D1*
X889025Y2003485D2*
D15*
Y1925368D1*
X892150Y1922243D1*
X742146Y2215252D2*
D17*
X820886D1*
X840571Y2195567D1*
X545692Y2276251D2*
D16*
X548817D1*
X837719Y2194089D2*
Y2197214D1*
X842218D1*
X840571Y2195567D1*
X1153311Y2240960D2*
D3*
X1240802D2*
D3*
X1328293D2*
D3*
X787865Y2525264D2*
D3*
X681486Y1922243D2*
D3*
X481507Y1834752D2*
X484631D1*
X825221Y1922243D2*
D3*
X1983511Y1769147D2*
D17*
Y1760723D1*
X2011142Y1733092D1*
Y1639537D1*
X2247362D2*
Y1758864D1*
X2254507Y1766008D1*
X1983511Y1769147D2*
D16*
D3*
X2253196Y1769134D2*
Y1767319D1*
X2254507Y1766008D1*
X2065891Y1853391D2*
D3*
X1877481Y1948051D2*
D3*
X1578496Y2350361D2*
D3*
X1747788Y2318865D2*
D3*
X2054087D2*
D3*
X2125347Y2357447D2*
Y2357448D1*
X2141095Y2796424D2*
D3*
X2206326Y2584673D2*
Y2582860D1*
X1578496Y2796424D2*
Y2794256D1*
X1961961Y2821214D2*
D3*
X1129057Y2709639D2*
D3*
X2478172Y500517D2*
X2477070D1*
X2475485Y502103D1*
X1465089Y494957D2*
Y495852D1*
X1802625D2*
D3*
X2140160D2*
D3*
X512765Y887765D2*
X544016D1*
Y994016D1*
X1257906Y445751D2*
D15*
X1241210Y462446D1*
Y495591D1*
X1280580D2*
Y468425D1*
X1257906Y445751D1*
X1211683Y544803D2*
X1188223D1*
X1168687Y525267D1*
X1134563D1*
Y445751D1*
X1257906D1*
X1221525Y594016D2*
X1153070D1*
X1134563Y575509D1*
Y525267D1*
X1074355Y681516D2*
D16*
Y737272D1*
X1074087Y737540D1*
X1202851D2*
Y681601D1*
X1202936Y681516D1*
X1264453D1*
X1264685Y681284D1*
X1400265Y744016D2*
X1338091D1*
X1331614Y737540D1*
X1202936Y681516D2*
X1197141D1*
Y684641D1*
X1075194D2*
Y681516D1*
X1074355D1*
X1197057Y994215D2*
D17*
X1205234D1*
X1205433Y994016D1*
D16*
X1177874D1*
X1150315D1*
X1122756D1*
X1095197D1*
X984961D2*
X972141D1*
X957402D1*
X847166D2*
X819607D1*
X792047D1*
X736929D2*
Y994215D1*
X972141Y994016D2*
Y887767D1*
X1150265D2*
Y994016D1*
X1797139Y1220836D2*
Y1214587D1*
X1728390Y1059973D2*
Y1070836D1*
X737767Y994016D2*
Y887767D1*
X1315670Y994016D2*
X1315891D1*
Y887765D1*
X1787620Y1216067D2*
X1792370D1*
X1797139Y1220836D1*
X1331614Y737540D2*
Y847159D1*
X2422559Y1503710D2*
D17*
X2469335D1*
X2551570Y1585945D1*
X2559641D1*
X2422559Y1228120D2*
X2478662D1*
X2495839Y1210943D1*
X2531515D1*
X2207992Y1111978D2*
Y1072187D1*
X2161269Y1025464D1*
X2030827Y1111978D2*
Y1038790D1*
X2023609Y1031572D1*
X2562538Y1681643D2*
D16*
Y1588843D1*
X2559641Y1585945D1*
X2023609Y1031572D2*
Y980078D1*
X2050092Y953595D1*
X2140708D1*
X2162580Y975467D1*
Y1024152D1*
X2161269Y1025464D1*
X2023609Y1031572D2*
Y1020485D1*
X2529693Y1210943D2*
X2531515D1*
X869238Y499084D2*
Y524675D1*
Y550265D1*
Y524675D2*
X927799D1*
X640891Y440891D2*
Y473494D1*
X750011Y680841D2*
D3*
X1002629Y493156D2*
Y493155D1*
X787998Y2250496D2*
Y2248141D1*
X840571Y2195567D1*
X1059571Y2240960D2*
D3*
X887767Y2250265D2*
Y2242763D1*
X840571Y2195567D1*
X554550Y2099086D2*
Y2033141D1*
X545692Y2024282D1*
X887625Y2144156D2*
Y2148513D1*
X840571Y2195567D1*
X545692Y2020345D2*
Y2024282D1*
X787998Y2144095D2*
X789099D1*
X840571Y2195567D1*
X1895000Y1405285D2*
D18*
X1842477D1*
X1831365Y1394173D1*
X1728390Y1291198D2*
Y1289071D1*
X1497932Y1608869D2*
D16*
X1747906D1*
X1750124Y1611087D1*
X1815742D1*
X1873587D1*
X1928391Y1665891D1*
X819607Y994016D2*
Y1135231D1*
X862767Y1178391D1*
X947141D1*
X972141Y1153391D1*
Y994016D1*
X1315670D2*
X1343229D1*
X1057747Y493156D2*
D15*
Y453393D1*
X1612275Y819016D2*
D16*
Y873087D1*
X1614452Y875264D1*
X1945608Y819016D2*
Y875037D1*
X1945836Y875265D1*
X2278940Y819016D2*
Y869198D1*
X2272874Y875264D1*
X2606024Y831516D2*
Y877578D1*
X2595838Y887764D1*
X2657823Y1119019D2*
D15*
X2656516D1*
X2422559Y1287175D2*
X2507107D1*
X2509641Y1284641D1*
X2326103Y1639537D2*
Y1675772D1*
X2356722Y1706391D1*
X2162580Y1953391D2*
X2065891D1*
X2607822Y2075267D2*
X2662765D1*
Y2078391D1*
X2772139Y2187765D1*
X2844016D1*
X2003222Y2578424D2*
Y2819168D1*
X2005268Y2821214D1*
X1359540Y1722264D2*
D17*
X1365789D1*
X1165810Y1522285D1*
Y1431670D1*
X1162685Y1428545D1*
X1040823Y1084831D2*
Y994760D1*
X1040079Y994016D1*
X2651572Y1025273D2*
D15*
Y1028587D1*
X2487546Y1256735D2*
X2476792Y1267490D1*
X2422559D1*
X2345788Y1639537D2*
X2357949D1*
X2368809Y1650397D1*
X2662767Y1997302D2*
X2608058D1*
X2662767D2*
X2753230Y2087765D1*
X2844016D1*
X2278490Y2003391D2*
Y2056307D1*
X2275068Y2059729D1*
X1831365Y2722159D2*
Y2820539D1*
X1832040Y2821214D1*
X2477897Y1871646D2*
Y1913260D1*
X2387765Y2003391D1*
X2278490D1*
X654252Y994016D2*
Y865029D1*
X669016Y850265D1*
X831517D1*
X944016Y737767D1*
Y738848D1*
X626693Y994016D2*
Y848839D1*
X644016Y831516D1*
X787767D1*
X875267Y744016D1*
Y740668D1*
X878395Y737540D1*
X819016Y744016D2*
Y739995D1*
X816561Y737540D1*
Y765221D1*
X769016Y812765D1*
X631517D1*
X599134Y845149D1*
Y994016D1*
X571575D2*
Y841457D1*
X619016Y794016D1*
X722141D1*
X750267Y765890D1*
Y738175D1*
X749631Y737540D1*
X1232992Y994016D2*
Y876742D1*
X1137767Y781516D1*
X1025267D1*
X1006516Y762765D1*
Y738181D1*
X1007158Y737540D1*
X1288110Y994016D2*
Y763109D1*
X1263613Y738612D1*
X1264685Y737540D1*
X1260551Y994016D2*
Y860551D1*
X1131516Y731516D1*
Y741945D1*
X1135922Y737540D1*
X2286733Y1111978D2*
Y948180D1*
X2328397Y906516D1*
X2369017D1*
X2400055Y875478D1*
X2500045D1*
X2503170Y878603D1*
X2306418Y1111978D2*
Y959740D1*
X2340893Y925265D1*
X2375265D1*
X2403180Y897351D1*
X2479691D1*
X2489065Y906725D1*
X2515668D1*
X2543790Y878603D1*
Y853605D1*
X2422559Y1247805D2*
X2390191D1*
X2375265Y1262730D1*
Y1281517D1*
X2325063Y1331719D1*
Y1350631D1*
X1895000Y1444655D2*
X1952740D1*
X1984474Y1412922D1*
X1895000Y1464340D2*
X1896424Y1462916D1*
X1959491D1*
X1975114Y1447293D1*
X1990739D1*
X2012596Y1425436D1*
Y1384799D1*
X1991457Y1111978D2*
Y1129310D1*
X874725Y994016D2*
Y1096839D1*
X2087765Y1237765D2*
X2059473D1*
X1991457Y1169750D1*
Y1111978D1*
X2011142D2*
Y1152120D1*
X2025095Y1166072D1*
X2050092D1*
X2053217Y1169197D1*
X931460Y1091080D2*
Y995633D1*
X929843Y994016D1*
X2093838Y1022338D2*
Y1047335D1*
X2068840Y1072332D1*
Y1110621D1*
X2070197Y1111978D1*
X2090713Y1112809D2*
X2089882Y1111978D1*
Y1176277D1*
X2081338Y1184822D1*
X2122141Y1231516D2*
X2109567Y1218943D1*
Y1111978D1*
X2131334Y1109897D2*
X2129252Y1111978D1*
Y1179252D1*
X2150265Y1200265D1*
X2148937Y1111978D2*
Y1074313D1*
X2121960Y1047335D1*
Y1000465D1*
X2115710Y994215D1*
X2188307Y1111978D2*
Y1154303D1*
X2271944Y1237940D1*
Y1303558D1*
X2250071Y1325431D1*
Y1375425D1*
X2243822Y1381675D1*
X1968851Y2125347D2*
X1969091D1*
X2247362Y1111978D2*
Y1150033D1*
X2237765Y1159630D1*
Y1165891D1*
X2267047Y1111978D2*
X2265694Y1113331D1*
Y1206320D1*
X2300265Y1240891D1*
X2031344Y1262937D2*
X2034469Y1259813D1*
X1990547Y1215891D1*
X1950278D1*
X1937604Y1228566D1*
X1895446D1*
X1895000Y1228120D1*
X1975267Y1247141D2*
X1895664D1*
X1895000Y1247805D1*
X2422559Y1562765D2*
Y1569435D1*
X2497141Y1644016D1*
X2503391D1*
X2422559Y1543080D2*
X2458705D1*
X2478172Y1562547D1*
Y1593798D1*
X2497275Y1612901D1*
X2503170D1*
X2422559Y1523395D2*
X2464020D1*
X2506294Y1565670D1*
Y1581654D1*
X2422559Y1464340D2*
X2483091D1*
X2500267Y1481516D1*
X2518941D1*
X2534416Y1466041D1*
X2587916D1*
X2619016Y1497141D1*
X2422559Y1444655D2*
X2500904D1*
X2509641Y1453392D1*
X2422559Y1424970D2*
X2556221D1*
X2569016Y1437765D1*
X2422559Y1405285D2*
X2592785D1*
X2603391Y1415891D1*
X2422559Y1385600D2*
Y1384641D1*
Y1385600D2*
X2377382D1*
X2359435Y1403547D1*
X745290Y2003485D2*
Y1925368D1*
X748415Y1922243D1*
X1406622Y2144189D2*
Y2085436D1*
X1404953Y2083767D1*
X1750124Y1544158D2*
Y1534784D1*
X1681381Y1466041D1*
X1895000Y1326545D2*
X1836500D1*
X1815742Y1347303D1*
Y1369176D1*
X1800118Y1384799D1*
X1718877D1*
X1681381Y1422296D1*
Y1466041D1*
X1497932Y1541940D2*
Y1523506D1*
X1555397Y1466041D1*
X1895000Y1287175D2*
X1852478D1*
X1818866Y1253563D1*
X1668882D1*
X1634511Y1287935D1*
X1556394Y1466041D2*
X1555397D1*
X2412554Y1027276D2*
Y978603D1*
X2465891Y925266D1*
X869016Y2340891D2*
Y2325376D1*
X859592Y2315952D1*
Y2294656D1*
X860256Y2293992D1*
X962706Y2003485D2*
Y1925368D1*
X965831Y1922243D1*
X1971772Y1639537D2*
Y1685011D1*
X1962767Y1694016D1*
X1823927D1*
X1781670Y1736273D1*
X820886Y2293992D2*
X822096Y2292782D1*
Y2331575D1*
X794023Y2359649D1*
X800265Y2365891D1*
X1781670Y1736273D2*
D3*
X2422559Y1326545D2*
Y1325431D1*
X2371933D1*
X2944016Y1387765D2*
X2940890D1*
X2897141Y1344016D1*
X2664922D1*
X2663004Y1345933D1*
Y1337929D2*
Y1345933D1*
X2422559Y1346230D2*
X2473051D1*
X2481516Y1337765D1*
X2662528Y1344179D2*
Y1345457D1*
X2537541Y2522180D2*
D3*
X2207992Y1639537D2*
Y1692540D1*
X2190891Y1709641D1*
X2768523Y2709649D2*
Y2686233D1*
X2605377Y2523087D1*
X1029635Y2003485D2*
Y2170906D1*
X1006452Y2194089D1*
X937519D1*
X938996Y2195567D1*
X1783327Y2194016D2*
D16*
Y2142038D1*
X1787427Y2137939D1*
X2422559Y1306860D2*
D15*
X2488109D1*
X2497141Y1315891D1*
X2537764D1*
X2540890Y1312765D1*
X2659642Y1212765D2*
X2657822D1*
X2607820Y2147139D2*
X2662764D1*
X2325142Y1712642D2*
X2306418Y1693918D1*
Y1639537D1*
X2278490Y1953391D2*
X2344016D1*
X2403391Y1894016D1*
X1918856Y2719034D2*
Y2821012D1*
X1918654Y2821214D1*
X2662764Y2147139D2*
X2803390Y2287765D1*
X2844016D1*
X1012520Y994016D2*
D17*
Y1116078D1*
X1122065Y1453542D2*
Y1547282D1*
X1268924Y1694142D1*
X2345788Y1111978D2*
D15*
Y1026610D1*
X2362765Y1009633D1*
Y953391D1*
X640891Y524675D2*
X688357D1*
X703391Y509641D1*
X1871382Y1022849D2*
Y932275D1*
X1872141Y931516D1*
X1241210Y594016D2*
Y556761D1*
X1247051D1*
X1002629Y532920D2*
Y532919D1*
X2206326Y2402441D2*
Y2462811D1*
Y2515931D1*
Y2462811D2*
X2050092D1*
X1875110Y2637793D1*
Y2820978D1*
X1875347Y2821214D1*
X1969181Y2192366D2*
X1970831Y2194016D1*
X1850267D2*
X1850256D1*
X1912859D2*
Y2192296D1*
X1912757Y2192194D1*
X2125347Y2711777D2*
X2171954D1*
X1587755Y2194016D2*
D16*
Y2143840D1*
X1593656Y2137939D1*
X2326103Y1111978D2*
D15*
X2328188Y1114063D1*
Y1009839D1*
X2334641Y1003386D1*
Y981516D1*
X640891Y550265D2*
X712765D1*
X750265Y512765D1*
X1815742Y1022849D2*
X1815126D1*
X1211683Y564488D2*
X1165810D1*
X1057747Y572684D2*
Y572683D1*
X2050512Y1639537D2*
Y1594572D1*
X2003222Y1547282D1*
X1465778Y737992D2*
Y739322D1*
X1465089Y740011D1*
X2089882Y1639537D2*
Y1571449D1*
X2062765Y1544332D1*
Y1534641D1*
X1803243Y741117D2*
Y740629D1*
X2129252Y1639537D2*
Y1549364D1*
X2134600Y1544016D1*
X2143832Y719244D2*
Y719415D1*
X2141988Y721259D1*
X2168622Y1639537D2*
Y1584986D1*
X2175079Y1578529D1*
X2331516Y1175267D2*
X2334617D1*
X2375058Y1134826D1*
X2475267Y725516D2*
X2475485Y725298D1*
X1465089Y562781D2*
X1533855Y494016D1*
X1550265D1*
X1465089Y673082D2*
X1542024Y750016D1*
X1550265D1*
X1465089Y562781D2*
Y673082D1*
X1885683Y750016D2*
X1879559D1*
X1802625Y673082D1*
Y562781D1*
X1871390Y494016D1*
X1885683D1*
X2221099Y750016D2*
Y733440D1*
X2141988Y654330D1*
X2140160Y652502D1*
Y562781D1*
X2221099Y494016D2*
X2152334Y562781D1*
X2140160D1*
X2475485Y658369D2*
Y569032D1*
X2550500Y494016D1*
X2556516D1*
X2475485Y658369D2*
X2556516Y739401D1*
Y750016D1*
X1895000Y1484025D2*
Y1484641D1*
X551561Y1834752D2*
X562748D1*
Y1727765D1*
X569016D1*
X1895000Y1484025D2*
X1897747D1*
X1895000D2*
X1980901D1*
X1981516Y1484641D1*
X1895000Y1543080D2*
X1908705D1*
X866622Y1834752D2*
X869016D1*
Y1737765D1*
X1895000Y1543080D2*
X1936830D1*
X1947141Y1553391D1*
Y1587767D1*
X1895000Y1562765D2*
X1872141D1*
X1928391Y1619016D1*
X993953Y1834752D2*
X987704D1*
Y1727765D1*
X969016D1*
X806222Y1834752D2*
Y1765759D1*
X768229Y1727765D1*
X769016D1*
X1895000Y1523395D2*
Y1522141D1*
X1940584D1*
X1975265Y1556822D1*
Y1569015D1*
X678891Y1834752D2*
X672112D1*
Y1737765D1*
X669016D1*
X1969016Y1512765D2*
X1959642Y1503391D1*
X1895319D1*
X1895000Y1503710D1*
X1991457Y1639537D2*
Y1696576D1*
X1975267Y1712767D1*
X1881799D1*
X1856670Y1737897D1*
X840571Y2293992D2*
Y2338097D1*
X834595Y2344074D1*
Y2362822D1*
X1856372Y1737897D2*
X1856670D1*
X2422559Y1365915D2*
X2356446D1*
X2337562Y1384799D1*
X2334437D1*
X2331313Y1387924D1*
X2390891Y2522141D2*
X2392453Y2523704D1*
X2394016Y2522141D1*
X2306717Y1787966D2*
X2290891Y1772141D1*
Y1740891D1*
X2284641Y1734641D1*
X2278391D1*
X2265694Y1721944D1*
Y1640890D1*
X2267047Y1639537D1*
X2768523Y2784649D2*
X2765638D1*
X2709398Y2728408D1*
Y2681538D1*
X2609408Y2581549D1*
X2520353D1*
X2460945Y2522141D1*
X938996Y2215252D2*
X939706Y2215962D1*
X1012701D1*
X1165810Y2062853D1*
Y2003485D1*
X1167121D1*
X1100192D2*
Y1928492D1*
X1106441Y1922243D1*
X814096Y2709639D2*
D16*
X825200D1*
X940834Y2825273D1*
X1328383D1*
X1444017Y2709639D1*
X1867164Y1267490D2*
D15*
X1895000D1*
X1860915D1*
X1837614Y1244189D1*
Y1231691D1*
X1453391Y2544016D2*
Y2700265D1*
X1444017Y2709639D1*
X2590893Y1212765D2*
D16*
X2590894Y1119019D1*
Y1119016D1*
X2584643D1*
Y1025273D1*
X2065891Y1903391D2*
X2200265D1*
X2201973D1*
X2278490D1*
Y1853391D1*
X2030827Y1639537D2*
D17*
Y1749534D1*
X2050440Y1769147D1*
X2227677Y1639537D2*
Y1725908D1*
X2187578Y1766008D1*
X2422559Y1484025D2*
X2477776D1*
X2512767Y1519016D1*
X2559641D1*
X2227677Y1025985D2*
X2228198Y1025464D1*
X1971772Y1111978D2*
D19*
Y1046664D1*
X1956680Y1031572D1*
X2290891Y2822137D2*
D16*
X2334625Y2778403D1*
X2490891D1*
Y2822137D1*
X1912757Y2125265D2*
Y2041131D1*
X1886607Y2014981D1*
X1877481D1*
X1719007Y2125265D2*
X1825164Y2019108D1*
X1873353D1*
X1877481Y2014981D1*
X1728265Y750016D2*
Y494016D1*
X2734516Y750016D2*
Y494016D1*
X2399099Y750016D2*
Y494016D1*
X2063683Y750016D2*
Y494016D1*
Y750016D2*
X2065715Y752049D1*
Y819016D1*
Y916099D1*
X2028184D1*
X1956352Y987931D1*
Y1031244D1*
X1956680Y1031572D1*
X2065715Y916099D2*
X2203201D1*
X2228198Y941096D1*
Y1025464D1*
X2559641Y1519016D2*
X2578390Y1537765D1*
X2663004D1*
Y1412862D1*
X1631516Y1845838D2*
X1638428D1*
X1677635Y1806630D1*
X1778242D1*
X1781670Y1803202D1*
X1855046D1*
X1856670Y1804826D1*
X2033149D1*
X2050440Y1787534D1*
Y1769147D1*
X2187578Y1766008D2*
X2181327D1*
X2178188Y1769147D1*
X2050440D1*
X2187578Y1766008D2*
Y1822254D1*
X2200265D1*
Y1903391D1*
X2663004Y1537765D2*
Y1674918D1*
X2596910Y1741012D1*
X2437551D1*
X2356310Y1822254D1*
X2200265D1*
X2540891Y2147139D2*
Y2075267D1*
X2540893D1*
Y1997538D1*
X2541129Y1997302D1*
X2540891Y2147139D2*
Y2181817D1*
X2793764Y2434689D1*
X2890940D1*
X2944016Y2487765D1*
X1728265Y628633D2*
Y750016D1*
X1956680Y1031572D2*
X1962461D1*
Y1025322D1*
X2206326Y2331575D2*
X2215700D1*
X2250071Y2365946D1*
Y2659666D1*
X2237572Y2672164D1*
Y2768818D1*
X2290891Y2822137D1*
X2663004Y1412862D2*
X2621907Y1371765D1*
Y1325499D1*
X2647141Y1300265D1*
Y1278390D1*
X2590893Y1222142D1*
Y1212765D1*
X2531515Y1144013D2*
X2584643D1*
Y1119016D1*
X2422559Y1208435D2*
D17*
X2460847D1*
X2475265Y1194016D1*
Y1165891D1*
X2497143Y1144013D1*
X2531515D1*
X1337166Y2146717D2*
D16*
X1339693Y2144189D1*
X2228198Y1025464D2*
D17*
Y1072087D1*
X2227677Y1072608D1*
Y1111978D1*
X681811Y994016D2*
D20*
Y1072141D1*
X723983D1*
X764488D1*
Y994016D1*
Y922348D1*
X902284D1*
Y994016D1*
X1136007Y681516D2*
D16*
Y638554D1*
X1288885D1*
X1300265Y649935D1*
X1331614Y681284D1*
X1310108Y525118D2*
D17*
X1331021D1*
X1340792Y534889D1*
Y578634D1*
X1325410Y594016D1*
X1300265D1*
D21*
Y611733D1*
D16*
Y649935D1*
X1728265Y494016D2*
Y434899D1*
X2063683D1*
X2399099D1*
X2734516D1*
Y494016D1*
X2399099D2*
Y434899D1*
X2063683Y494016D2*
Y434899D1*
X1815126Y1089778D2*
X1871382D1*
D19*
X1892557D1*
X1921981Y1119202D1*
X1950768D1*
X1957992Y1111978D1*
X1971772D1*
X2012537Y819016D2*
D16*
X2065715D1*
X1679204D2*
Y799078D1*
X1728265Y750016D1*
X2345869Y819016D2*
Y803246D1*
X2399099Y750016D1*
X2672953Y831516D2*
Y811579D1*
X2734516Y750016D1*
X2107511Y2128562D2*
X2166080D1*
X2172331Y2122311D1*
X1854356Y2137939D2*
X1900084D1*
X1912757Y2125265D1*
X1660586Y2137939D2*
X1706334D1*
X1719007Y2125265D1*
X1328293Y2315763D2*
X1240802D1*
X1153311D1*
X1059571D1*
X825267Y2422894D2*
Y2422191D1*
X904244D1*
Y2376227D1*
X1059571Y2315763D2*
Y2375320D1*
X1012701Y2422191D1*
X904244D1*
X1339693Y2144189D2*
Y2155495D1*
X1384537Y2200339D1*
Y2303453D1*
X1372038Y2315952D1*
X1328482D1*
X1328293Y2315763D1*
X1384537Y2200339D2*
X1387423Y2203225D1*
X1428521D1*
X1537646Y2094100D1*
X1612638D1*
X1662633Y2144095D1*
Y2135891D1*
X1660586Y2137939D1*
X742146Y2156197D2*
D21*
X744016D1*
Y2136512D1*
X742146D1*
X1173370Y1922243D2*
D16*
Y1878498D1*
X1060882D1*
X1032760D1*
X933551D1*
X739293D1*
X611962D1*
Y1834752D1*
X1032760Y1922243D2*
Y1878498D1*
X1060882Y1834752D2*
Y1878498D1*
X933551Y1834752D2*
Y1878498D1*
X739293Y1834752D2*
Y1878498D1*
X611962D2*
D20*
Y2037575D1*
X693403Y2119016D1*
X744016D1*
Y2134642D1*
X742146Y2136512D1*
X469016Y1737765D2*
D16*
Y1741004D1*
X440886Y1769134D1*
Y1856625D1*
X462759Y1878498D1*
X611962D1*
X2835452Y2784649D2*
Y2709649D1*
X2490891Y2778403D2*
X2675026D1*
X2734395Y2837772D1*
X2782328D1*
X2835452Y2784649D1*
Y2709649D2*
Y2686721D1*
X2893754Y2628419D1*
Y2538028D1*
X2944016Y2487765D1*
X816940Y680841D2*
D22*
Y612765D1*
Y480466D1*
X825265Y472141D1*
X867885D1*
X869238Y473494D1*
X878845Y681516D2*
D16*
X817614D1*
X816940Y680841D1*
X1002629Y453393D2*
X959641D1*
Y550267D1*
X878391Y631516D1*
Y681062D1*
X878845Y681516D1*
X1002629Y453393D2*
Y451028D1*
X1028391Y425265D1*
X1094016D1*
Y596563D1*
X1136007Y638554D1*
X2201973Y1903391D2*
Y1988229D1*
X2172331Y2017870D1*
Y2122311D1*
X1339693Y2144189D2*
X1300265D1*
X1275173Y2119097D1*
Y2087851D1*
X1225179Y2037856D1*
Y1937866D1*
X1209555Y1922243D1*
X1173370D1*
X469016Y1737765D2*
Y1350357D1*
Y809641D1*
X665891Y612765D1*
X816940D1*
X1384537Y2303453D2*
X1525147Y2444063D1*
X2009471D1*
X2025095Y2428440D1*
X2131334D1*
X2165705Y2394068D1*
Y2372196D1*
X2206326Y2331575D1*
X1781670Y1803202D2*
Y1850076D1*
X1537646Y2094100D1*
X1772289Y1350357D2*
X723983D1*
X469016D1*
X2468798Y1027462D2*
X2582454D1*
X2584643Y1025273D1*
X2734516Y750016D2*
Y919141D1*
X2694016Y959641D1*
X2606516D1*
X2584641Y981516D1*
Y1025271D1*
X2584643Y1025273D1*
X723983Y1072141D2*
Y1350357D1*
X744016Y2119016D2*
D20*
Y2103391D1*
X750265Y2097142D1*
X781516D1*
X1815742Y1544158D2*
D19*
X1818866D1*
Y1425420D1*
X1772289D1*
Y1421223D1*
X1895000Y1385600D2*
D18*
X1947778D1*
X1953227Y1391049D1*
Y1416046D1*
X1943853Y1425420D1*
X1895450D1*
X1895000Y1424970D1*
X1818866Y1425420D2*
D20*
X1895000Y1424970D1*
X676328Y2369071D2*
D16*
Y2469061D1*
Y2472185D1*
X659613D1*
X637740Y2494058D1*
Y2569050D1*
X676328Y2369071D2*
D3*
X822096Y2003485D2*
D3*
X825267Y2525264D2*
Y2569050D1*
X750464D1*
Y2525264D1*
X637740Y2679286D2*
Y2640918D1*
X650239Y2628419D1*
X659613D1*
X718982Y2569050D1*
X750464D1*
X678361Y2003485D2*
D17*
D3*
X718982Y2522180D2*
X747380D1*
X750464Y2525264D1*
X484631Y2472185D2*
D23*
Y2469061D1*
X550250D1*
X589714D1*
X2944016Y2587765D2*
D16*
Y2643775D1*
X2881255Y2706536D1*
Y2834647D1*
X2846883Y2869019D1*
X740855D1*
X550250Y2678414D1*
Y2469061D1*
X554550Y2201448D2*
X628366D1*
D22*
Y2294079D1*
X589714Y2332731D1*
Y2369071D1*
X1584641Y1240269D2*
D15*
Y1244065D1*
X1609513Y1219192D1*
X1728390D1*
Y1222142D1*
X1728425D1*
X1771996Y1178571D1*
X1825116D1*
X1856362Y1209818D1*
X1893617D1*
X1895000Y1208435D1*
X1584641Y1050269D2*
Y1047460D1*
X1674946Y1137765D1*
X1728390D1*
X1844016D1*
X1895000Y1188750D1*
X2107996Y2191068D2*
Y2184715D1*
X2168826D2*
Y2185735D1*
X2172331Y2189240D1*
X2287567Y1640372D2*
X2286733Y1639537D1*
X2065891Y2003391D2*
Y2028113D1*
X2318814Y1744137D2*
X2286733Y1712055D1*
Y1639537D1*
X2059466Y1000465D2*
Y1056709D1*
X2050512Y1065663D1*
Y1111978D1*
X2070197Y1639537D2*
Y1583011D1*
X2034469Y1547282D1*
Y1516036D1*
X2040718Y1509786D1*
Y1493684D1*
Y1487593D1*
X2037765Y1484641D1*
X1681381Y875264D2*
X1678391D1*
Y869016D1*
X2037765Y1484641D2*
Y1490731D1*
X2040718Y1493684D1*
X1993848Y875478D2*
X2012765D1*
Y875265D1*
X2019015D1*
X2009641Y865891D1*
X2093838Y1528213D2*
Y1546710D1*
X2109567Y1562440D1*
Y1639537D1*
X2339803Y875264D2*
X2344016D1*
X2148937Y1639537D2*
Y1567175D1*
X2165891Y1550221D1*
Y1491225D1*
X2146957Y1472290D1*
Y1466041D1*
X2315891Y719016D2*
Y781516D1*
X2312767Y784641D1*
Y848227D1*
X2339803Y875264D1*
X2188307Y1639537D2*
X2185939D1*
X2662767Y887764D2*
X2659643D1*
X2406305Y1147352D2*
X2359641Y1194016D1*
X2206516Y1556516D2*
Y1584588D1*
X2187578Y1603526D1*
Y1638807D1*
X2188307Y1639537D1*
X2468798Y1094391D2*
X2440650D1*
X2412740D1*
X2412554Y1094205D1*
X2440650Y1094391D2*
Y1170659D1*
X2422559Y1188750D1*
X1465765Y2012516D2*
Y2009768D1*
X1562767Y1912767D1*
X1631516D1*
X1465765Y1756516D2*
Y1815765D1*
X1562767Y1912767D1*
X1895000Y1306860D2*
X1816234D1*
X1797139Y1287765D1*
Y1281516D1*
X1895000Y1365915D2*
X1971839D1*
X1337667Y2084726D2*
Y2084124D1*
X1719007Y2192194D2*
D3*
X1656516Y2194016D2*
X1654684D1*
X1788733Y2821214D2*
X1787620Y2820101D1*
Y2722159D1*
X2168622Y1111978D2*
Y1165865D1*
X2253196Y1250439D1*
Y1294184D1*
X2231323Y1316057D1*
Y1341084D1*
X2219016Y1353391D1*
D66*
X1278298Y531764D3*
X1400160Y678624D3*
X971173Y2376227D3*
X972080Y2075352D3*
X712767Y2378479D3*
X675236Y2150267D3*
Y2206588D3*
X740855Y2356572D3*
X1562767Y1847251D3*
X548817Y2276251D3*
X837719Y2194089D3*
X1153311Y2240960D3*
X1240802D3*
X1328293D3*
X787865Y2525264D3*
X681486Y1922243D3*
X481507Y1834752D3*
X825221Y1922243D3*
X681486D3*
X1983511Y1769147D3*
X2253196Y1769134D3*
X1983511Y1769147D3*
X2065891Y1853391D3*
X1877481Y1948051D3*
X2065891Y1853391D3*
X1578496Y2350361D3*
X1747788Y2318865D3*
X1578496Y2350361D3*
X2054087Y2318865D3*
X1747788D3*
X2125347Y2357448D3*
X2054087Y2318865D3*
X2141095Y2796424D3*
X2206326Y2584673D3*
X2125347Y2357448D3*
X1578496Y2794256D3*
X1961961Y2821214D3*
X1578496Y2794256D3*
Y2350361D3*
X1129057Y2709639D3*
X2478172Y500517D3*
X1465089Y494957D3*
X1802625Y495852D3*
X2140160D3*
X512765Y887765D3*
X1257906Y445751D3*
D3*
D3*
X1197141Y684641D3*
X1075194D3*
X972141Y887767D3*
X1150265D3*
X1797139Y1214587D3*
X1728390Y1059973D3*
X737767Y887767D3*
X972141D3*
X737767D3*
X1197141Y684641D3*
X1315891Y887765D3*
D3*
X1331614Y847159D3*
X1197141Y684641D3*
X2562538Y1681643D3*
X2023609Y1020485D3*
X2529693Y1210943D3*
X927799Y524675D3*
X640891Y440891D3*
X750011Y680841D3*
D3*
X1331614Y847159D3*
X1002629Y493155D3*
X2023609Y1020485D3*
X787998Y2250496D3*
X1059571Y2240960D3*
X887767Y2250265D3*
X1153311Y2240960D3*
X887625Y2144156D3*
X548817Y2276251D3*
X545692Y2020345D3*
X787998Y2144095D3*
X1831365Y1394173D3*
X1728390Y1291198D3*
X1797139Y1214587D3*
X1928391Y1665891D3*
X2656516Y1119019D3*
X2509641Y1284641D3*
X2656516Y1119019D3*
X2356722Y1706391D3*
X2162580Y1953391D3*
X2662765Y2078391D3*
X2003222Y2578424D3*
X1359540Y1722264D3*
X1162685Y1428545D3*
X1040823Y1084831D3*
X2162580Y1953391D3*
X2651572Y1028587D3*
X2487546Y1256735D3*
X2651572Y1028587D3*
X2368809Y1650397D3*
X2662767Y1997302D3*
D3*
X2275068Y2059729D3*
X1831365Y2722159D3*
X2477897Y1871646D3*
X2503170Y878603D3*
X2543790Y853605D3*
X2325063Y1350631D3*
X2496920Y1675394D3*
X2631281Y1809755D3*
X1984474Y1412922D3*
X2012596Y1384799D3*
X874725Y1096839D3*
X2087765Y1237765D3*
X2053217Y1169197D3*
X931460Y1091080D3*
X2093838Y1022338D3*
X2081338Y1184822D3*
X2122141Y1231516D3*
X2150265Y1200265D3*
X2115710Y994215D3*
X2243822Y1381675D3*
X2121960Y1719139D3*
X1968851Y2125347D3*
X2237765Y1165891D3*
X2300265Y1240891D3*
X2031344Y1262937D3*
X1975267Y1247141D3*
X2503391Y1644016D3*
X2503170Y1612901D3*
X2506294Y1581654D3*
X2619016Y1497141D3*
X2509641Y1453392D3*
X2569016Y1437765D3*
X2603391Y1415891D3*
X2359435Y1403547D3*
X1634511Y1287935D3*
X1556394Y1466041D3*
X2465891Y925266D3*
X1518898Y850481D3*
X869016Y2340891D3*
X800265Y2365891D3*
X1781670Y1736273D3*
X2371933Y1325431D3*
X2481516Y1337765D3*
X2662528Y1344179D3*
X2537541Y2522180D3*
X2190891Y1709641D3*
X2553164Y2384694D3*
X2540890Y1312765D3*
X2659642Y1212765D3*
X2662764Y2147139D3*
X2403391Y1894016D3*
X2325142Y1712642D3*
X2403391Y1894016D3*
X1918856Y2719034D3*
X1012520Y1116078D3*
X1122065Y1453542D3*
X1268924Y1694142D3*
X2362765Y953391D3*
X703391Y509641D3*
X1603264Y984841D3*
X1672213Y931516D3*
X2362765Y953391D3*
X1872141Y931516D3*
X1247051Y556761D3*
X1672213Y931516D3*
X1002629Y532919D3*
X1247051Y556761D3*
X1970831Y2194016D3*
X1850267D3*
X1912859D3*
X2171954Y2711777D3*
X1970831Y2194016D3*
X2334641Y981516D3*
X750265Y512765D3*
X1815742Y1022849D3*
X2334641Y981516D3*
X1165810Y564488D3*
X1057747Y572683D3*
X1165810Y564488D3*
X2003222Y1547282D3*
X1465778Y737992D3*
X2062765Y1534641D3*
X1803243Y741117D3*
X2134600Y1544016D3*
X2143832Y719244D3*
X2175079Y1578529D3*
X2331516Y1175267D3*
X2375058Y1134826D3*
X2475267Y725516D3*
X1981516Y1484641D3*
X1947141Y1587767D3*
X1928391Y1619016D3*
X1975265Y1569015D3*
X1969016Y1512765D3*
X834595Y2362822D3*
X1856372Y1737897D3*
X2331313Y1387924D3*
X2390891Y2522141D3*
X2553164Y2347198D3*
X2306717Y1787966D3*
X1837614Y1231691D3*
X1453391Y2544016D3*
X676328Y2369071D3*
X822096Y2003485D3*
X678361D3*
X718982Y2522180D3*
X2107996Y2184715D3*
X2168826D3*
X2065891Y2028113D3*
X2318814Y1744137D3*
X2065891Y2028113D3*
X2107996Y2184715D3*
X2059466Y1000465D3*
X1678391Y869016D3*
X2037765Y1484641D3*
X2009641Y865891D3*
X2093838Y1528213D3*
X2146957Y1466041D3*
X1931355Y1075104D3*
X2315891Y719016D3*
X2659643Y887764D3*
X2406305Y1147352D3*
X2359641Y1194016D3*
X2206516Y1556516D3*
X1797139Y1281516D3*
X1971839Y1365915D3*
X1337667Y2084726D3*
X1719007Y2192194D3*
X1656516Y2194016D3*
X1787620Y2722159D3*
X1719007Y2192194D3*
X2219016Y1353391D3*
X2078265Y1694142D3*
X1719007Y2192194D3*
X1627526Y2835425D2*
D145*
X1703280D1*
X2190123D2*
X2336424D1*
X2645358D2*
X2832420D1*
X1627526Y2825557D2*
X1703280D1*
X2190123D2*
X2334920D1*
X2646862D2*
X2720467D1*
X2816569D2*
X2842284D1*
X1627526Y2815688D2*
X1703280D1*
X2190123D2*
X2335194D1*
X2646588D2*
X2720467D1*
X2816569D2*
X2846971D1*
X1627526Y2805819D2*
X1694217D1*
X2190123D2*
X2337284D1*
X2644498D2*
X2720467D1*
X2816569D2*
X2846971D1*
X1627526Y2795950D2*
X1687284D1*
X2190123D2*
X2341424D1*
X2640358D2*
X2720467D1*
X2816569D2*
X2846971D1*
X949694Y2786082D2*
X1023924D1*
X1234205D2*
X1319510D1*
X1627526D2*
X1684881D1*
X2190123D2*
X2348241D1*
X2633541D2*
X2720467D1*
X2816569D2*
X2846971D1*
X939830Y2776213D2*
X1023924D1*
X1234205D2*
X1329393D1*
X1627526D2*
X1684803D1*
X2190123D2*
X2234803D1*
X2346979D2*
X2359471D1*
X2646979D2*
X2715330D1*
X2816569D2*
X2846971D1*
X929967Y2766344D2*
X1023924D1*
X1234205D2*
X1338885D1*
X1627526D2*
X1684803D1*
X2190123D2*
X2234803D1*
X2346979D2*
X2357030D1*
X2646979D2*
X2705467D1*
X2816569D2*
X2846971D1*
X920084Y2756475D2*
X1023924D1*
X1234205D2*
X1338885D1*
X1627526D2*
X1684803D1*
X2190123D2*
X2234803D1*
X2646979D2*
X2695584D1*
X2816569D2*
X2846971D1*
X919245Y2746607D2*
X1023924D1*
X1234205D2*
X1338885D1*
X1627526D2*
X1684803D1*
X2190123D2*
X2234803D1*
X2646979D2*
X2685955D1*
X2816569D2*
X2846971D1*
X919245Y2736738D2*
X1023924D1*
X1234205D2*
X1338885D1*
X1627526D2*
X1684803D1*
X2200807D2*
X2234803D1*
X2646979D2*
X2680721D1*
X2816569D2*
X2846971D1*
X919245Y2726869D2*
X1023924D1*
X1234205D2*
X1338885D1*
X1627526D2*
X1684803D1*
X2207174D2*
X2234803D1*
X2646979D2*
X2679491D1*
X2816569D2*
X2846971D1*
X919245Y2717000D2*
X1023924D1*
X1234205D2*
X1338885D1*
X1549166D2*
X1684803D1*
X2209987D2*
X2234803D1*
X2646979D2*
X2679491D1*
X2816569D2*
X2846971D1*
X919245Y2707131D2*
X1023924D1*
X1234205D2*
X1338885D1*
X1549166D2*
X1684803D1*
X2210065D2*
X2234803D1*
X2646979D2*
X2679491D1*
X2816569D2*
X2846971D1*
X2928717D2*
X2936678D1*
X3051354D2*
X3063006D1*
X919245Y2697263D2*
X1023924D1*
X1234205D2*
X1338885D1*
X1549166D2*
X1684803D1*
X2207428D2*
X2234803D1*
X2646979D2*
X2679491D1*
X2816569D2*
X2848299D1*
X2938580D2*
X2956092D1*
X3031940D2*
X3063006D1*
X919245Y2687394D2*
X1023924D1*
X1234205D2*
X1338885D1*
X1549166D2*
X1684803D1*
X2201315D2*
X2234803D1*
X2434635D2*
X2447147D1*
X2646979D2*
X2673377D1*
X2816569D2*
X2853045D1*
X2948444D2*
X3063006D1*
X919245Y2677525D2*
X1023924D1*
X1234205D2*
X1338885D1*
X1549166D2*
X1684803D1*
X2187975D2*
X2234803D1*
X2346979D2*
X2357577D1*
X2424205D2*
X2457577D1*
X2524205D2*
X2534803D1*
X2646979D2*
X2663514D1*
X2816569D2*
X2862205D1*
X2958327D2*
X3063006D1*
X919245Y2667656D2*
X1023924D1*
X1234205D2*
X1338885D1*
X1549166D2*
X1684803D1*
X2174577D2*
X2234803D1*
X2346979D2*
X2381756D1*
X2400026D2*
X2481756D1*
X2500026D2*
X2534803D1*
X2646979D2*
X2653651D1*
X2816569D2*
X2872069D1*
X2968190D2*
X3063006D1*
X919245Y2657788D2*
X1023924D1*
X1234205D2*
X1338885D1*
X1549166D2*
X1684803D1*
X2108952D2*
X2643768D1*
X2781940D2*
X2881952D1*
X2975202D2*
X3063006D1*
X919245Y2647919D2*
X1023924D1*
X1234205D2*
X1338885D1*
X1549166D2*
X1684803D1*
X2108952D2*
X2633905D1*
X2772077D2*
X2891815D1*
X2978034D2*
X3063006D1*
X919245Y2638050D2*
X1023924D1*
X1234205D2*
X1338885D1*
X1549166D2*
X1684803D1*
X2108952D2*
X2624041D1*
X2762213D2*
X2820916D1*
X2867116D2*
X2901678D1*
X2978287D2*
X3063006D1*
X919245Y2628181D2*
X1023924D1*
X1234205D2*
X1338885D1*
X1549166D2*
X1684803D1*
X2108952D2*
X2160233D1*
X2252409D2*
X2614178D1*
X2752350D2*
X2805819D1*
X2882213D2*
X2905819D1*
X2982213D2*
X3063006D1*
X919245Y2618313D2*
X1023924D1*
X1234205D2*
X1338885D1*
X1549166D2*
X1684803D1*
X2108952D2*
X2160233D1*
X2252409D2*
X2604295D1*
X2742467D2*
X2797362D1*
X2890670D2*
X2897377D1*
X2990670D2*
X3063006D1*
X727643Y2608444D2*
X1423495D1*
X1483287D2*
X1684803D1*
X2108952D2*
X2160233D1*
X2252409D2*
X2508768D1*
X2732604D2*
X2792127D1*
X2995905D2*
X3063006D1*
X841608Y2598575D2*
X1423495D1*
X1483287D2*
X1684803D1*
X2108952D2*
X2160233D1*
X2252409D2*
X2495506D1*
X2722741D2*
X2789159D1*
X2998873D2*
X3063006D1*
X853112Y2588706D2*
X1423495D1*
X1483287D2*
X1684803D1*
X2108952D2*
X2160233D1*
X2252409D2*
X2485643D1*
X2712858D2*
X2788104D1*
X2999928D2*
X3063006D1*
X858073Y2578838D2*
X1423495D1*
X1483287D2*
X1684803D1*
X2108952D2*
X2160233D1*
X2252409D2*
X2475780D1*
X2702995D2*
X2788827D1*
X2999205D2*
X3063006D1*
X859537Y2568969D2*
X1423495D1*
X1483287D2*
X1684803D1*
X2108952D2*
X2160233D1*
X2252409D2*
X2465897D1*
X2693131D2*
X2791405D1*
X2996627D2*
X3063006D1*
X860358Y2559100D2*
X1418162D1*
X1488620D2*
X1684803D1*
X2108952D2*
X2160233D1*
X2252409D2*
X2345955D1*
X2683268D2*
X2796170D1*
X2991862D2*
X3063006D1*
X862487Y2549231D2*
X1415350D1*
X1491432D2*
X1684803D1*
X2108952D2*
X2160233D1*
X2252409D2*
X2345955D1*
X2673385D2*
X2803866D1*
X2884166D2*
X2903866D1*
X2984166D2*
X3063006D1*
X862487Y2539362D2*
X1415291D1*
X1491510D2*
X1684803D1*
X2108952D2*
X2160233D1*
X2252409D2*
X2345955D1*
X2663522D2*
X2817049D1*
X2870983D2*
X2917049D1*
X2970983D2*
X3063006D1*
X862487Y2529494D2*
X1417928D1*
X1488854D2*
X1684803D1*
X2108952D2*
X2160233D1*
X2252409D2*
X2345955D1*
X2653659D2*
X2807303D1*
X2880729D2*
X3063006D1*
X862487Y2519625D2*
X1424041D1*
X1482741D2*
X1684803D1*
X2108952D2*
X2160233D1*
X2252409D2*
X2345955D1*
X2653424D2*
X2798280D1*
X2889752D2*
X3063006D1*
X862487Y2509756D2*
X1437381D1*
X1469401D2*
X1684803D1*
X2108952D2*
X2117186D1*
X2252409D2*
X2345955D1*
X2653424D2*
X2792674D1*
X2895358D2*
X3063006D1*
X862428Y2499887D2*
X1684803D1*
X2252409D2*
X2345955D1*
X2653424D2*
X2789452D1*
X2898580D2*
X3063006D1*
X859674Y2490019D2*
X1684803D1*
X2252409D2*
X2345955D1*
X2653424D2*
X2788143D1*
X2899889D2*
X3063006D1*
X714537Y2480150D2*
X725096D1*
X850631D2*
X1684803D1*
X2252409D2*
X2345955D1*
X2653424D2*
X2788612D1*
X2899420D2*
X3063006D1*
X714537Y2470281D2*
X729666D1*
X771256D2*
X1684803D1*
X2252409D2*
X2790936D1*
X2897096D2*
X3063006D1*
X783561Y2460412D2*
X1685233D1*
X2236217D2*
X2795389D1*
X2892643D2*
X3063006D1*
X787370Y2450544D2*
X1688768D1*
X2236217D2*
X2802616D1*
X2885416D2*
X3063006D1*
X787682Y2440675D2*
X1697889D1*
X2242760D2*
X2814745D1*
X2873287D2*
X2928260D1*
X2959772D2*
X3063006D1*
X787682Y2430806D2*
X2107284D1*
X2252995D2*
X2808885D1*
X2879147D2*
X2908885D1*
X2979147D2*
X3063006D1*
X787682Y2420937D2*
X923123D1*
X1019225D2*
X2107284D1*
X2256198D2*
X2542928D1*
X2563405D2*
X2799237D1*
X2888795D2*
X2899237D1*
X2988795D2*
X3063006D1*
X787682Y2411068D2*
X923123D1*
X1019225D2*
X1529452D1*
X1627526D2*
X2107284D1*
X2256354D2*
X2525643D1*
X2580690D2*
X2793280D1*
X2994752D2*
X3063006D1*
X813600Y2401200D2*
X923123D1*
X1019225D2*
X1529452D1*
X1627526D2*
X2076112D1*
X2256354D2*
X2518612D1*
X2587721D2*
X2789764D1*
X2998268D2*
X3063006D1*
X859811Y2391331D2*
X923123D1*
X1019225D2*
X1529452D1*
X1627526D2*
X2076112D1*
X2256354D2*
X2515350D1*
X2590963D2*
X2788202D1*
X2999830D2*
X3063006D1*
X868014Y2381462D2*
X923123D1*
X1019225D2*
X1529452D1*
X1627526D2*
X2076112D1*
X2255807D2*
X2514901D1*
X2591432D2*
X2788455D1*
X2999577D2*
X3063006D1*
X891373Y2371593D2*
X923123D1*
X1019225D2*
X1529452D1*
X1627526D2*
X2076112D1*
X2251373D2*
X2517127D1*
X2589186D2*
X2790526D1*
X2997506D2*
X3063006D1*
X901080Y2361725D2*
X913495D1*
X1019225D2*
X1529452D1*
X1627526D2*
X1691854D1*
X1803717D2*
X1998162D1*
X2235612D2*
X2517694D1*
X2588620D2*
X2794647D1*
X2993385D2*
X3063006D1*
X1019225Y2351856D2*
X1529452D1*
X1627526D2*
X1691854D1*
X1803717D2*
X1998162D1*
X2174577D2*
X2515057D1*
X2591276D2*
X2801444D1*
X2986588D2*
X3063006D1*
X1019225Y2341987D2*
X1529452D1*
X1627526D2*
X1691854D1*
X1803717D2*
X1998162D1*
X2174577D2*
X2515135D1*
X2591198D2*
X2812655D1*
X2975377D2*
X3063006D1*
X1019225Y2332118D2*
X1529452D1*
X1627526D2*
X1691854D1*
X1803717D2*
X1998162D1*
X2174577D2*
X2517948D1*
X2588385D2*
X2810623D1*
X2977409D2*
X3063006D1*
X957760Y2322250D2*
X1529452D1*
X1627526D2*
X1691854D1*
X1803717D2*
X1998162D1*
X2174577D2*
X2524295D1*
X2582018D2*
X2800272D1*
X2987760D2*
X3063006D1*
X947877Y2312381D2*
X1529452D1*
X1627526D2*
X1691854D1*
X1803717D2*
X1998162D1*
X2174577D2*
X2538514D1*
X2567819D2*
X2787245D1*
X2994127D2*
X3063006D1*
X935827Y2302512D2*
X1529452D1*
X1627526D2*
X1691854D1*
X1803717D2*
X1998162D1*
X2110006D2*
X2776268D1*
X2997936D2*
X3063006D1*
X931940Y2292643D2*
X1529452D1*
X1627526D2*
X1691854D1*
X1803717D2*
X1998162D1*
X2110006D2*
X2766405D1*
X2999733D2*
X3063006D1*
X964518Y2282775D2*
X1003651D1*
X1384225D2*
X1529452D1*
X1627526D2*
X1691854D1*
X1803717D2*
X1998162D1*
X2110006D2*
X2756522D1*
X2999713D2*
X3063006D1*
X976237Y2272906D2*
X1003651D1*
X1384225D2*
X1691854D1*
X1803717D2*
X1998162D1*
X2110006D2*
X2746659D1*
X2997897D2*
X3063006D1*
X980983Y2263037D2*
X1003651D1*
X1384225D2*
X2736795D1*
X2994069D2*
X3063006D1*
X982096Y2253168D2*
X1003651D1*
X1384225D2*
X2726912D1*
X2987682D2*
X3063006D1*
X1384225Y2243299D2*
X2717049D1*
X2977272D2*
X3063006D1*
X1384225Y2233431D2*
X1539705D1*
X2218424D2*
X2707186D1*
X2975534D2*
X3063006D1*
X1384225Y2223562D2*
X1539705D1*
X2218424D2*
X2697323D1*
X2986686D2*
X3063006D1*
X1384225Y2213693D2*
X1539705D1*
X2218424D2*
X2687440D1*
X2993444D2*
X3063006D1*
X1384225Y2203824D2*
X1539705D1*
X2218424D2*
X2677577D1*
X2997545D2*
X3063006D1*
X1384225Y2193956D2*
X1539705D1*
X2218424D2*
X2667713D1*
X2999596D2*
X3063006D1*
X1086452Y2184087D2*
X1358573D1*
X1454674D2*
X1539705D1*
X2218424D2*
X2559764D1*
X2999811D2*
X3063006D1*
X1096315Y2174218D2*
X1358573D1*
X1454674D2*
X1539705D1*
X2218424D2*
X2559764D1*
X2998248D2*
X3063006D1*
X1106178Y2164349D2*
X1358573D1*
X1454674D2*
X1539705D1*
X2218424D2*
X2559764D1*
X2994694D2*
X3063006D1*
X1116061Y2154481D2*
X1358573D1*
X1454674D2*
X1539705D1*
X2218424D2*
X2559764D1*
X2988717D2*
X3063006D1*
X713209Y2144612D2*
X728827D1*
X1125924D2*
X1358573D1*
X1454674D2*
X1545604D1*
X1641705D2*
X1739373D1*
X1835475D2*
X1923104D1*
X2088639D2*
X2126248D1*
X2218424D2*
X2559764D1*
X2978991D2*
X3063006D1*
X710260Y2134743D2*
X745272D1*
X1135787D2*
X1358573D1*
X1454674D2*
X1545604D1*
X1641705D2*
X1739373D1*
X1835475D2*
X1923104D1*
X2088639D2*
X2559764D1*
X2973483D2*
X3063006D1*
X703698Y2124874D2*
X745272D1*
X1145651D2*
X1289979D1*
X1454674D2*
X1545604D1*
X1641705D2*
X1739373D1*
X1835475D2*
X1923104D1*
X2088639D2*
X2559764D1*
X2985514D2*
X3063006D1*
X607526Y2115006D2*
X661776D1*
X688698D2*
X745272D1*
X1155534D2*
X1289979D1*
X1454674D2*
X1545604D1*
X1641705D2*
X1739373D1*
X1835475D2*
X1923104D1*
X2088639D2*
X2559764D1*
X2992721D2*
X3063006D1*
X607526Y2105137D2*
X745272D1*
X1165397D2*
X1289979D1*
X1454674D2*
X1545604D1*
X1641705D2*
X1739373D1*
X1835475D2*
X1923104D1*
X2088639D2*
X2559764D1*
X2997116D2*
X3063006D1*
X607526Y2095268D2*
X768905D1*
X1175260D2*
X1289979D1*
X1453014D2*
X1545604D1*
X1641705D2*
X1739373D1*
X1835475D2*
X1923104D1*
X2088639D2*
X2262420D1*
X2287721D2*
X2559764D1*
X2999420D2*
X3063006D1*
X607526Y2085399D2*
X768905D1*
X1185143D2*
X1289979D1*
X1453014D2*
X1923104D1*
X2088639D2*
X2246873D1*
X2303268D2*
X2559764D1*
X2999889D2*
X3063006D1*
X607526Y2075530D2*
X770330D1*
X1192780D2*
X1289979D1*
X1453014D2*
X2240174D1*
X2309967D2*
X2559764D1*
X2998561D2*
X3063006D1*
X599655Y2065662D2*
X770330D1*
X1195573D2*
X1254061D1*
X1499459D2*
X2237147D1*
X2312995D2*
X2559764D1*
X2995299D2*
X3063006D1*
X599655Y2055793D2*
X772186D1*
X1195709D2*
X1241815D1*
X1511725D2*
X2039745D1*
X2092037D2*
X2236873D1*
X2313268D2*
X2559764D1*
X2763131D2*
X2798358D1*
X2989674D2*
X3063006D1*
X599655Y2045924D2*
X630311D1*
X1215182D2*
X1234061D1*
X1519459D2*
X2032010D1*
X2099772D2*
X2239315D1*
X2310827D2*
X2559764D1*
X2753268D2*
X2807440D1*
X2980592D2*
X3063006D1*
X599655Y2036055D2*
X630311D1*
X1215182D2*
X1228983D1*
X1346549D2*
X1406971D1*
X1524557D2*
X2000116D1*
X2131666D2*
X2212713D1*
X2344264D2*
X2559764D1*
X2743385D2*
X2816834D1*
X2971198D2*
X3063006D1*
X599655Y2026187D2*
X630311D1*
X1215182D2*
X1225877D1*
X1349655D2*
X1403885D1*
X1527643D2*
X2000116D1*
X2131666D2*
X2212713D1*
X2406530D2*
X2559998D1*
X2733522D2*
X2803768D1*
X2984264D2*
X3063006D1*
X599655Y2016318D2*
X630311D1*
X1215182D2*
X1224491D1*
X1351041D2*
X1402479D1*
X1529049D2*
X2000116D1*
X2131666D2*
X2212713D1*
X2416705D2*
X2559998D1*
X2723659D2*
X2796092D1*
X2991940D2*
X3063006D1*
X599655Y2006449D2*
X630311D1*
X1215182D2*
X1224666D1*
X1350866D2*
X1402655D1*
X1528873D2*
X2000116D1*
X2131666D2*
X2212713D1*
X2426569D2*
X2559998D1*
X2713776D2*
X2791366D1*
X2996666D2*
X3063006D1*
X599655Y1996580D2*
X630311D1*
X1215182D2*
X1226444D1*
X1349088D2*
X1404432D1*
X1527096D2*
X2000116D1*
X2131666D2*
X2212713D1*
X2436452D2*
X2559998D1*
X2703912D2*
X2788807D1*
X2999225D2*
X3063006D1*
X599655Y1986712D2*
X630311D1*
X1215182D2*
X1229959D1*
X1345573D2*
X1407948D1*
X1530690D2*
X1831405D1*
X1923561D2*
X2000116D1*
X2131666D2*
X2144588D1*
X2180573D2*
X2212713D1*
X2446315D2*
X2559998D1*
X2699635D2*
X2788104D1*
X2999928D2*
X3063006D1*
X482018Y1976843D2*
X491737D1*
X599655D2*
X630311D1*
X1215182D2*
X1235565D1*
X1339967D2*
X1413573D1*
X1540553D2*
X1831405D1*
X1923561D2*
X2000116D1*
X2192721D2*
X2212713D1*
X2456178D2*
X2559998D1*
X2695065D2*
X2789178D1*
X2998854D2*
X3063006D1*
X425026Y1966974D2*
X630311D1*
X1215182D2*
X1244100D1*
X1331432D2*
X1422108D1*
X1550436D2*
X1831405D1*
X1923561D2*
X2000116D1*
X2198424D2*
X2212713D1*
X2372311D2*
X2382303D1*
X2466061D2*
X2559998D1*
X2685651D2*
X2792166D1*
X2995866D2*
X3063006D1*
X425026Y1957105D2*
X633436D1*
X1013893D2*
X1058397D1*
X1154498D2*
X1258065D1*
X1317467D2*
X1436073D1*
X1677604D2*
X1831405D1*
X1923561D2*
X2000116D1*
X2200787D2*
X2212713D1*
X2382174D2*
X2392186D1*
X2475924D2*
X2559998D1*
X2656120D2*
X2797440D1*
X2990592D2*
X3063006D1*
X425026Y1947236D2*
X633436D1*
X1013893D2*
X1058397D1*
X1154498D2*
X1486424D1*
X1677604D2*
X1831405D1*
X1923561D2*
X2000116D1*
X2200475D2*
X2212713D1*
X2392037D2*
X2402049D1*
X2485787D2*
X2805936D1*
X2982096D2*
X3063006D1*
X425026Y1937368D2*
X633436D1*
X1013893D2*
X1058397D1*
X1154498D2*
X1496287D1*
X1677604D2*
X1831405D1*
X1923561D2*
X2000116D1*
X2197370D2*
X2212713D1*
X2401901D2*
X2411912D1*
X2495651D2*
X2819432D1*
X2968600D2*
X3063006D1*
X425026Y1927499D2*
X633436D1*
X1013893D2*
X1058397D1*
X1154498D2*
X1506170D1*
X1677604D2*
X1831405D1*
X1923561D2*
X2000116D1*
X2190573D2*
X2212713D1*
X2504049D2*
X2805096D1*
X2982936D2*
X3063006D1*
X425026Y1917630D2*
X633436D1*
X1013893D2*
X1058397D1*
X1154498D2*
X1516034D1*
X1677604D2*
X1831405D1*
X1923561D2*
X2000116D1*
X2131666D2*
X2150623D1*
X2174537D2*
X2212713D1*
X2507467D2*
X2796912D1*
X2991120D2*
X3063006D1*
X425026Y1907761D2*
X633436D1*
X1013893D2*
X1058397D1*
X1154498D2*
X1515897D1*
X1677604D2*
X1831405D1*
X1923561D2*
X2347772D1*
X2507799D2*
X2791854D1*
X2996178D2*
X3063006D1*
X425026Y1897893D2*
X633436D1*
X1013893D2*
X1058397D1*
X1154498D2*
X1506014D1*
X1677604D2*
X2357635D1*
X2441588D2*
X2448000D1*
X2507799D2*
X2789022D1*
X2999010D2*
X3063006D1*
X425026Y1888024D2*
X633436D1*
X1013893D2*
X1058397D1*
X1154498D2*
X1496151D1*
X1677604D2*
X2000116D1*
X2131666D2*
X2365467D1*
X2512526D2*
X2788084D1*
X2999948D2*
X3063006D1*
X425026Y1878155D2*
X436580D1*
X599616D2*
X630838D1*
X1041998D2*
X1058397D1*
X1154498D2*
X1486287D1*
X1677604D2*
X2000116D1*
X2131666D2*
X2368514D1*
X2515729D2*
X2788944D1*
X2999088D2*
X3063006D1*
X425026Y1868286D2*
X436580D1*
X599616D2*
X630838D1*
X1041998D2*
X1476424D1*
X1677604D2*
X2000116D1*
X2131666D2*
X2375252D1*
X2431530D2*
X2439647D1*
X2516139D2*
X2791659D1*
X2996373D2*
X3063006D1*
X425026Y1858418D2*
X436580D1*
X599616D2*
X630838D1*
X1041998D2*
X1466541D1*
X1608854D2*
X2000116D1*
X2131666D2*
X2390916D1*
X2415866D2*
X2441912D1*
X2513873D2*
X2796580D1*
X2991452D2*
X3063006D1*
X425026Y1848549D2*
X436580D1*
X599616D2*
X630838D1*
X1041998D2*
X1456678D1*
X1608854D2*
X2000116D1*
X2131666D2*
X2447479D1*
X2508307D2*
X2804549D1*
X2983483D2*
X3063006D1*
X425026Y1838680D2*
X436580D1*
X599616D2*
X630838D1*
X1041998D2*
X1446815D1*
X1608854D2*
X2000116D1*
X2131666D2*
X2459237D1*
X2496569D2*
X2606580D1*
X2655983D2*
X2818358D1*
X2969674D2*
X3063006D1*
X425026Y1828811D2*
X436580D1*
X599616D2*
X630838D1*
X1041998D2*
X1438983D1*
X1608854D2*
X2000116D1*
X2131666D2*
X2598104D1*
X2664459D2*
X2806522D1*
X2981510D2*
X3063006D1*
X425026Y1818943D2*
X436580D1*
X599616D2*
X630838D1*
X1041998D2*
X1436034D1*
X1510807D2*
X1516667D1*
X1608854D2*
X2000116D1*
X2131666D2*
X2284764D1*
X2328678D2*
X2594022D1*
X2668541D2*
X2797791D1*
X2990241D2*
X3063006D1*
X425026Y1809074D2*
X436580D1*
X599616D2*
X630838D1*
X1041998D2*
X1253123D1*
X1322409D2*
X1431131D1*
X1500944D2*
X1516678D1*
X1608854D2*
X1935467D1*
X2031569D2*
X2206444D1*
X2338600D2*
X2592889D1*
X2669674D2*
X2792381D1*
X2995651D2*
X3063006D1*
X425026Y1799205D2*
X436580D1*
X599616D2*
X630838D1*
X1041998D2*
X1057108D1*
X1080924D2*
X1241248D1*
X1334284D2*
X1419256D1*
X1608854D2*
X1935467D1*
X2031569D2*
X2206444D1*
X2343385D2*
X2594393D1*
X2668170D2*
X2789295D1*
X2998737D2*
X3063006D1*
X425026Y1789336D2*
X532850D1*
X592643D2*
X632889D1*
X1017604D2*
X1032889D1*
X1105143D2*
X1157870D1*
X1180162D2*
X1233690D1*
X1341842D2*
X1411698D1*
X1519830D2*
X1935467D1*
X2031569D2*
X2206444D1*
X2345084D2*
X2598944D1*
X2663620D2*
X2788104D1*
X2999928D2*
X3063006D1*
X425026Y1779467D2*
X532850D1*
X604948D2*
X621600D1*
X1116432D2*
X1133084D1*
X1204948D2*
X1228748D1*
X1346784D2*
X1406737D1*
X1524791D2*
X1735584D1*
X1902760D2*
X1935467D1*
X2031569D2*
X2206444D1*
X2344147D2*
X2608338D1*
X2654225D2*
X2788709D1*
X2999323D2*
X3063006D1*
X425026Y1769599D2*
X521717D1*
X1216315D2*
X1225760D1*
X1349772D2*
X1403748D1*
X1527780D2*
X1735584D1*
X1902760D2*
X1935467D1*
X2031569D2*
X2206444D1*
X2347213D2*
X2791170D1*
X2996862D2*
X3063006D1*
X425026Y1759730D2*
X514432D1*
X1351080D2*
X1402440D1*
X1529088D2*
X1735584D1*
X1902760D2*
X1935467D1*
X2031569D2*
X2206444D1*
X2353815D2*
X2795780D1*
X2992252D2*
X3063006D1*
X425026Y1749861D2*
X509666D1*
X1385787D2*
X1402713D1*
X1528815D2*
X1735584D1*
X1902760D2*
X1935467D1*
X2035065D2*
X2099627D1*
X2144284D2*
X2206444D1*
X2356764D2*
X2803260D1*
X2984772D2*
X3063006D1*
X425026Y1739992D2*
X506834D1*
X1393463D2*
X1404588D1*
X1526940D2*
X1735584D1*
X2039694D2*
X2089920D1*
X2154010D2*
X2168045D1*
X2374147D2*
X2815916D1*
X2972116D2*
X3063006D1*
X425026Y1730124D2*
X505662D1*
X1397096D2*
X1408221D1*
X2040534D2*
X2067069D1*
X2386627D2*
X2808045D1*
X2979987D2*
X3063006D1*
X425026Y1720255D2*
X506073D1*
X1397877D2*
X1413983D1*
X2040534D2*
X2050487D1*
X2392467D2*
X2798729D1*
X2989303D2*
X3063006D1*
X425026Y1710386D2*
X508084D1*
X1396002D2*
X1422752D1*
X2394909D2*
X2482713D1*
X2511120D2*
X2537616D1*
X2587467D2*
X2792967D1*
X2995065D2*
X3063006D1*
X425026Y1700517D2*
X511873D1*
X1390963D2*
X1437245D1*
X2394655D2*
X2468221D1*
X2595827D2*
X2789588D1*
X2998444D2*
X3063006D1*
X425026Y1690649D2*
X517850D1*
X620182D2*
X627113D1*
X710924D2*
X717856D1*
X820182D2*
X827113D1*
X910924D2*
X917856D1*
X1020182D2*
X1027113D1*
X1110924D2*
X1117856D1*
X1380514D2*
X1491600D1*
X2391647D2*
X2461776D1*
X2599830D2*
X2788162D1*
X2999870D2*
X3063006D1*
X425026Y1680780D2*
X526952D1*
X611080D2*
X642596D1*
X695436D2*
X726952D1*
X811080D2*
X842596D1*
X895436D2*
X926952D1*
X1011080D2*
X1042596D1*
X1095436D2*
X1126952D1*
X1365475D2*
X1491600D1*
X2391608D2*
X2458905D1*
X2600924D2*
X2788534D1*
X2999498D2*
X3063006D1*
X425026Y1670911D2*
X542303D1*
X595729D2*
X742303D1*
X795729D2*
X942303D1*
X995729D2*
X1142303D1*
X1195729D2*
X1204530D1*
X1355592D2*
X1491600D1*
X2401080D2*
X2458787D1*
X2599362D2*
X2790741D1*
X2997291D2*
X3063006D1*
X425026Y1661042D2*
X1194666D1*
X1345729D2*
X1491600D1*
X2405670D2*
X2461385D1*
X2596803D2*
X2795018D1*
X2993014D2*
X3063006D1*
X425026Y1651173D2*
X1184784D1*
X1335866D2*
X1451854D1*
X2407194D2*
X2462420D1*
X2596803D2*
X2802049D1*
X2985983D2*
X3063006D1*
X425026Y1641305D2*
X1174920D1*
X1326002D2*
X1451854D1*
X2406080D2*
X2452557D1*
X2596803D2*
X2813709D1*
X2974323D2*
X3063006D1*
X425026Y1631436D2*
X1165057D1*
X1316120D2*
X1451854D1*
X2402037D2*
X2442694D1*
X2605729D2*
X2809705D1*
X2978327D2*
X3063006D1*
X425026Y1621567D2*
X1155194D1*
X1306256D2*
X1451854D1*
X2393639D2*
X2432830D1*
X2605729D2*
X2799725D1*
X2988307D2*
X3063006D1*
X425026Y1611698D2*
X1145311D1*
X1296393D2*
X1451854D1*
X2378092D2*
X2422948D1*
X2605729D2*
X2793573D1*
X2994459D2*
X3063006D1*
X425026Y1601830D2*
X1135448D1*
X1286510D2*
X1451854D1*
X2378092D2*
X2413084D1*
X2605729D2*
X2789920D1*
X2998112D2*
X3063006D1*
X425026Y1591961D2*
X1125584D1*
X1276647D2*
X1451854D1*
X2605729D2*
X2788241D1*
X2999791D2*
X3063006D1*
X425026Y1582092D2*
X1115702D1*
X1266784D2*
X1451854D1*
X2605729D2*
X2788377D1*
X2999655D2*
X3063006D1*
X425026Y1572223D2*
X1105838D1*
X1256920D2*
X1451854D1*
X1544010D2*
X1704041D1*
X2605729D2*
X2790330D1*
X2997702D2*
X3063006D1*
X425026Y1562355D2*
X1096991D1*
X1247037D2*
X1451854D1*
X1544010D2*
X1704041D1*
X2605729D2*
X2794315D1*
X2993717D2*
X3063006D1*
X425026Y1552486D2*
X1093143D1*
X1237174D2*
X1451854D1*
X1544010D2*
X1704041D1*
X2605729D2*
X2800916D1*
X2987116D2*
X3063006D1*
X425026Y1542617D2*
X1092655D1*
X1227311D2*
X1451854D1*
X1544010D2*
X1704041D1*
X2605729D2*
X2811737D1*
X2976295D2*
X3063006D1*
X425026Y1532748D2*
X1092655D1*
X1217428D2*
X1451854D1*
X1544010D2*
X1704041D1*
X2539537D2*
X2606580D1*
X2631452D2*
X2811502D1*
X2976530D2*
X3063006D1*
X425026Y1522880D2*
X1092655D1*
X1207565D2*
X1451854D1*
X1544010D2*
X1696346D1*
X2529674D2*
X2590877D1*
X2647155D2*
X2800780D1*
X2987252D2*
X3063006D1*
X425026Y1513011D2*
X1092655D1*
X1197702D2*
X1451854D1*
X2519791D2*
X2584159D1*
X2653873D2*
X2794237D1*
X2993795D2*
X3063006D1*
X425026Y1503142D2*
X1092655D1*
X1195202D2*
X1451854D1*
X2539108D2*
X2581092D1*
X2656940D2*
X2790291D1*
X2997741D2*
X3063006D1*
X425026Y1493273D2*
X1092655D1*
X1195202D2*
X1486287D1*
X2657213D2*
X2788358D1*
X2999674D2*
X3063006D1*
X425026Y1483404D2*
X1092655D1*
X1195202D2*
X1491600D1*
X2654811D2*
X2788260D1*
X2999772D2*
X3063006D1*
X425026Y1473536D2*
X1089452D1*
X1195202D2*
X1491600D1*
X2649030D2*
X2789959D1*
X2998073D2*
X3063006D1*
X425026Y1463667D2*
X1085057D1*
X1195202D2*
X1491600D1*
X2636705D2*
X2793651D1*
X2994381D2*
X3063006D1*
X425026Y1453798D2*
X1083670D1*
X1195202D2*
X1491600D1*
X2617545D2*
X2799842D1*
X2988190D2*
X3063006D1*
X425026Y1443929D2*
X1084920D1*
X1197780D2*
X1491600D1*
X2629147D2*
X2809920D1*
X2978112D2*
X3063006D1*
X425026Y1434061D2*
X1089139D1*
X1200670D2*
X1491600D1*
X2637077D2*
X2813455D1*
X2974577D2*
X3063006D1*
X425026Y1424192D2*
X1097889D1*
X1200827D2*
X1491600D1*
X2640866D2*
X2801912D1*
X2986120D2*
X3063006D1*
X425026Y1414323D2*
X1127088D1*
X1198268D2*
X1491600D1*
X2641764D2*
X2794940D1*
X2993092D2*
X3063006D1*
X425026Y1404454D2*
X1133084D1*
X1192291D2*
X1657655D1*
X2640006D2*
X2790682D1*
X2997350D2*
X3063006D1*
X425026Y1394586D2*
X1146014D1*
X1179362D2*
X1667225D1*
X2635123D2*
X2788514D1*
X2999518D2*
X3063006D1*
X425026Y1384717D2*
X1677088D1*
X2709088D2*
X2788182D1*
X2999850D2*
X3063006D1*
X425026Y1374848D2*
X1686952D1*
X2487370D2*
X2616912D1*
X2709088D2*
X2789627D1*
X2998405D2*
X3063006D1*
X425026Y1364979D2*
X1696834D1*
X2508170D2*
X2616912D1*
X2994987D2*
X3063006D1*
X425026Y1355110D2*
X1785838D1*
X2515651D2*
X2616912D1*
X2989186D2*
X3063006D1*
X425026Y1345242D2*
X1785916D1*
X2560436D2*
X2616912D1*
X2979791D2*
X3063006D1*
X425026Y1335373D2*
X1682303D1*
X1774479D2*
X1788416D1*
X2571686D2*
X2616912D1*
X2972409D2*
X3063006D1*
X425026Y1325504D2*
X1682303D1*
X2577057D2*
X2616912D1*
X2984928D2*
X3063006D1*
X425026Y1315635D2*
X1608377D1*
X1660631D2*
X1682303D1*
X2579186D2*
X2616912D1*
X2992350D2*
X3063006D1*
X425026Y1305767D2*
X1600643D1*
X1668385D2*
X1682303D1*
X2578639D2*
X2616912D1*
X2709088D2*
X2791131D1*
X2996901D2*
X3063006D1*
X425026Y1295898D2*
X1596971D1*
X1672057D2*
X1682303D1*
X2575280D2*
X2788690D1*
X2999342D2*
X3063006D1*
X425026Y1286029D2*
X1565037D1*
X2568034D2*
X2788123D1*
X2999909D2*
X3063006D1*
X425026Y1276160D2*
X1549705D1*
X2549557D2*
X2789334D1*
X2998698D2*
X3063006D1*
X425026Y1266292D2*
X1541659D1*
X2543229D2*
X2792459D1*
X2995573D2*
X3063006D1*
X425026Y1256423D2*
X1536952D1*
X2577604D2*
X2609764D1*
X2705885D2*
X2797909D1*
X2990123D2*
X3063006D1*
X425026Y1246554D2*
X1534647D1*
X2577604D2*
X2609764D1*
X2705885D2*
X2806698D1*
X2981334D2*
X3063006D1*
X425026Y1236685D2*
X1534373D1*
X2577604D2*
X2609764D1*
X2705885D2*
X2818045D1*
X2969987D2*
X3063006D1*
X425026Y1226817D2*
X1536112D1*
X2577604D2*
X2609764D1*
X2705885D2*
X2804393D1*
X2983639D2*
X3063006D1*
X425026Y1216948D2*
X1540096D1*
X2577604D2*
X2609764D1*
X2705885D2*
X2796483D1*
X2991549D2*
X3063006D1*
X425026Y1207079D2*
X844901D1*
X965006D2*
X1547049D1*
X2577604D2*
X2609764D1*
X2705885D2*
X2791600D1*
X2996432D2*
X3063006D1*
X425026Y1197210D2*
X833534D1*
X976373D2*
X1559432D1*
X2577604D2*
X2609764D1*
X2705885D2*
X2788905D1*
X2999127D2*
X3063006D1*
X425026Y1187341D2*
X823651D1*
X986256D2*
X1682303D1*
X2577604D2*
X2609764D1*
X2705885D2*
X2788084D1*
X2999948D2*
X3063006D1*
X425026Y1177473D2*
X813787D1*
X996120D2*
X1682303D1*
X2577604D2*
X2609764D1*
X2705885D2*
X2789061D1*
X2998971D2*
X3063006D1*
X425026Y1167604D2*
X803924D1*
X1003229D2*
X1682303D1*
X2577604D2*
X2791932D1*
X2996100D2*
X3063006D1*
X425026Y1157735D2*
X794100D1*
X1006139D2*
X1653045D1*
X2480455D2*
X2609764D1*
X2705885D2*
X2797030D1*
X2991002D2*
X3063006D1*
X425026Y1147866D2*
X787830D1*
X1033229D2*
X1643182D1*
X2470553D2*
X2609764D1*
X2705885D2*
X2805272D1*
X2982760D2*
X3063006D1*
X425026Y1137998D2*
X785448D1*
X1043815D2*
X1633299D1*
X2514889D2*
X2609764D1*
X2705885D2*
X2819764D1*
X2968268D2*
X3063006D1*
X425026Y1128129D2*
X785330D1*
X1048932D2*
X1623436D1*
X2514889D2*
X2609764D1*
X2705885D2*
X2805760D1*
X2982272D2*
X3063006D1*
X425026Y1118260D2*
X785330D1*
X1058600D2*
X1613573D1*
X2514889D2*
X2609764D1*
X2705885D2*
X2797323D1*
X2990709D2*
X3063006D1*
X425026Y1108391D2*
X785330D1*
X1070866D2*
X1603709D1*
X2514889D2*
X2609764D1*
X2705885D2*
X2792108D1*
X2995924D2*
X3063006D1*
X425026Y1098523D2*
X785330D1*
X1076627D2*
X1573065D1*
X2514889D2*
X2609764D1*
X2705885D2*
X2789159D1*
X2998873D2*
X3063006D1*
X425026Y1088654D2*
X785330D1*
X1079030D2*
X1552537D1*
X1667702D2*
X1682303D1*
X2514889D2*
X2609764D1*
X2705885D2*
X2788104D1*
X2999928D2*
X3063006D1*
X425026Y1078785D2*
X785330D1*
X1078737D2*
X1543299D1*
X1657838D2*
X1682303D1*
X2514889D2*
X2609764D1*
X2705885D2*
X2788827D1*
X2999205D2*
X3063006D1*
X425026Y1068916D2*
X785330D1*
X1075670D2*
X1537889D1*
X1647975D2*
X1682303D1*
X2514889D2*
X2603514D1*
X2699635D2*
X2791424D1*
X2996608D2*
X3063006D1*
X425026Y1059047D2*
X785330D1*
X1070221D2*
X1535018D1*
X1638092D2*
X1682303D1*
X2514889D2*
X2603514D1*
X2699635D2*
X2796190D1*
X2991842D2*
X3063006D1*
X425026Y1049179D2*
X509745D1*
X1377506D2*
X1534256D1*
X1635026D2*
X1682303D1*
X2226139D2*
X2256834D1*
X2514889D2*
X2603514D1*
X2699635D2*
X2803924D1*
X2984108D2*
X3063006D1*
X425026Y1039310D2*
X509745D1*
X1377506D2*
X1535467D1*
X1633815D2*
X1682303D1*
X2216276D2*
X2256834D1*
X2458639D2*
X2603514D1*
X2699635D2*
X2817147D1*
X2970885D2*
X3063006D1*
X425026Y1029441D2*
X509745D1*
X1377506D2*
X1538846D1*
X1630436D2*
X1682303D1*
X2209323D2*
X2256834D1*
X2458639D2*
X2603514D1*
X2699635D2*
X2807245D1*
X2980787D2*
X3063006D1*
X425026Y1019572D2*
X509745D1*
X1377506D2*
X1544940D1*
X1624342D2*
X1769041D1*
X2209323D2*
X2256834D1*
X2458639D2*
X2603514D1*
X2699635D2*
X2798241D1*
X2989791D2*
X3063006D1*
X425026Y1009704D2*
X509745D1*
X1377506D2*
X1555448D1*
X1632213D2*
X1769041D1*
X2209323D2*
X2256834D1*
X2458639D2*
X2603514D1*
X2699635D2*
X2792655D1*
X2995377D2*
X3063006D1*
X425026Y999835D2*
X509745D1*
X1377506D2*
X1568006D1*
X1638522D2*
X1769041D1*
X2209323D2*
X2256834D1*
X2458639D2*
X2603514D1*
X2699635D2*
X2789432D1*
X2998600D2*
X3063006D1*
X425026Y989966D2*
X509745D1*
X1377506D2*
X1565213D1*
X1641315D2*
X1769041D1*
X2209323D2*
X2256834D1*
X2458639D2*
X2603514D1*
X2699635D2*
X2788123D1*
X2999909D2*
X3063006D1*
X425026Y980097D2*
X509745D1*
X1377506D2*
X1565174D1*
X1641354D2*
X1769041D1*
X2196862D2*
X2256834D1*
X2452936D2*
X2788631D1*
X2999401D2*
X3063006D1*
X425026Y970229D2*
X509745D1*
X1377506D2*
X1567830D1*
X1638698D2*
X1841483D1*
X2196432D2*
X2256834D1*
X2462799D2*
X2790955D1*
X2997077D2*
X3063006D1*
X425026Y960360D2*
X509745D1*
X1377506D2*
X1573983D1*
X1632545D2*
X1647401D1*
X1697018D2*
X1841483D1*
X2193229D2*
X2256834D1*
X2479811D2*
X2795409D1*
X2992623D2*
X3063006D1*
X425026Y950491D2*
X509745D1*
X1377506D2*
X1587479D1*
X1619049D2*
X1638983D1*
X1705436D2*
X1838905D1*
X2185670D2*
X2256834D1*
X2494498D2*
X2802674D1*
X2985358D2*
X3063006D1*
X425026Y940622D2*
X509745D1*
X1377506D2*
X1634940D1*
X1709479D2*
X1834862D1*
X2175787D2*
X2257830D1*
X2501002D2*
X2814823D1*
X2973209D2*
X3063006D1*
X425026Y930754D2*
X509745D1*
X1377506D2*
X1633827D1*
X1710612D2*
X1833748D1*
X2165924D2*
X2262674D1*
X2532721D2*
X2547791D1*
X2710827D2*
X2808827D1*
X2979205D2*
X3063006D1*
X425026Y920885D2*
X494393D1*
X1350162D2*
X1635350D1*
X1709069D2*
X1835291D1*
X2147819D2*
X2272166D1*
X2710827D2*
X2799198D1*
X2988834D2*
X3063006D1*
X425026Y911016D2*
X482479D1*
X1350162D2*
X1566405D1*
X1729440D2*
X1839862D1*
X2060827D2*
X2224823D1*
X2710827D2*
X2793260D1*
X2994772D2*
X3063006D1*
X425026Y901147D2*
X476834D1*
X1351823D2*
X1566405D1*
X1729440D2*
X1849315D1*
X2060827D2*
X2224823D1*
X2710827D2*
X2789745D1*
X2998287D2*
X3063006D1*
X425026Y891278D2*
X474530D1*
X1354127D2*
X1566405D1*
X1729440D2*
X1897791D1*
X2060827D2*
X2224823D1*
X2710827D2*
X2788202D1*
X2999830D2*
X3063006D1*
X425026Y881410D2*
X474901D1*
X1353756D2*
X1496873D1*
X1540924D2*
X1566405D1*
X1729440D2*
X1897791D1*
X2060827D2*
X2224823D1*
X2710827D2*
X2788455D1*
X2999577D2*
X3063006D1*
X425026Y871541D2*
X478065D1*
X1360983D2*
X1486991D1*
X1550807D2*
X1566405D1*
X1729440D2*
X1897791D1*
X2060827D2*
X2224823D1*
X2710827D2*
X2790545D1*
X2997487D2*
X3063006D1*
X425026Y861672D2*
X484979D1*
X1367077D2*
X1482205D1*
X1555592D2*
X1564217D1*
X1729440D2*
X1897557D1*
X2060827D2*
X2224823D1*
X2710827D2*
X2794686D1*
X2993346D2*
X3063006D1*
X425026Y851803D2*
X501502D1*
X524030D2*
X541678D1*
X1369733D2*
X1480526D1*
X1557272D2*
X1564217D1*
X1729440D2*
X1897557D1*
X2060827D2*
X2224823D1*
X2710827D2*
X2801502D1*
X2986530D2*
X3063006D1*
X425026Y841935D2*
X541678D1*
X1369655D2*
X1481483D1*
X1556315D2*
X1564217D1*
X1729440D2*
X1897557D1*
X2060827D2*
X2224823D1*
X2387858D2*
X2494803D1*
X2654069D2*
X2812733D1*
X2975299D2*
X3063006D1*
X425026Y832066D2*
X543241D1*
X1366842D2*
X1485350D1*
X1552448D2*
X1564217D1*
X1729440D2*
X1897557D1*
X2060827D2*
X2224823D1*
X2387858D2*
X2512225D1*
X2654069D2*
X2810545D1*
X2977487D2*
X3063006D1*
X425026Y822197D2*
X549022D1*
X1365885D2*
X1493436D1*
X1544362D2*
X1564217D1*
X1660319D2*
X1897557D1*
X1993659D2*
X2230877D1*
X2342662D2*
X2522479D1*
X2654069D2*
X2800213D1*
X2987819D2*
X3063006D1*
X425026Y812328D2*
X558827D1*
X1365885D2*
X1545955D1*
X1554561D2*
X1564217D1*
X1660319D2*
X1881385D1*
X1889977D2*
X1897557D1*
X1993659D2*
X2216795D1*
X2225397D2*
X2230893D1*
X2342662D2*
X2552205D1*
X2654069D2*
X2793885D1*
X2994147D2*
X3063006D1*
X425026Y802460D2*
X568709D1*
X1365885D2*
X1515448D1*
X1660319D2*
X1850877D1*
X1993659D2*
X2186287D1*
X2342662D2*
X2521698D1*
X2654069D2*
X2790096D1*
X2997936D2*
X3063006D1*
X425026Y792591D2*
X578573D1*
X1365885D2*
X1503651D1*
X1660319D2*
X1839061D1*
X1993659D2*
X2174471D1*
X2343580D2*
X2509901D1*
X2654069D2*
X2788299D1*
X2999733D2*
X3063006D1*
X425026Y782722D2*
X588436D1*
X1660319D2*
X1756541D1*
X1993659D2*
X2166952D1*
X2345768D2*
X2502381D1*
X2610651D2*
X2788319D1*
X2999713D2*
X3063006D1*
X425026Y772853D2*
X598338D1*
X1609342D2*
X1756541D1*
X1944752D2*
X2162030D1*
X2280162D2*
X2285379D1*
X2345787D2*
X2497440D1*
X2615592D2*
X2790155D1*
X2997877D2*
X3063006D1*
X425026Y762985D2*
X701580D1*
X1612311D2*
X1756541D1*
X1947721D2*
X2095897D1*
X2345787D2*
X2429393D1*
X2618561D2*
X2794002D1*
X2994030D2*
X3063006D1*
X425026Y753116D2*
X701580D1*
X1613580D2*
X1756541D1*
X1949010D2*
X2095897D1*
X2345787D2*
X2429393D1*
X2619830D2*
X2800389D1*
X2987643D2*
X3063006D1*
X425026Y743247D2*
X701580D1*
X1613287D2*
X1756541D1*
X1948717D2*
X2095897D1*
X2345787D2*
X2429393D1*
X2619557D2*
X2810838D1*
X2977194D2*
X3063006D1*
X425026Y733378D2*
X701580D1*
X1611412D2*
X1756541D1*
X1946823D2*
X2095897D1*
X2351432D2*
X2429393D1*
X2617662D2*
X2788084D1*
X2999948D2*
X3063006D1*
X425026Y723509D2*
X701580D1*
X1607760D2*
X1756541D1*
X1943170D2*
X2095897D1*
X2354030D2*
X2429393D1*
X2614010D2*
X2788084D1*
X2999948D2*
X3063006D1*
X425026Y713641D2*
X701580D1*
X1601959D2*
X1756541D1*
X1937389D2*
X2095897D1*
X2272799D2*
X2277889D1*
X2353912D2*
X2429393D1*
X2608209D2*
X2788084D1*
X2999948D2*
X3063006D1*
X425026Y703772D2*
X701580D1*
X1593170D2*
X1756541D1*
X1928580D2*
X2095897D1*
X2263991D2*
X2280741D1*
X2351041D2*
X2429393D1*
X2599420D2*
X2788084D1*
X2999948D2*
X3063006D1*
X425026Y693903D2*
X701580D1*
X1578561D2*
X1756541D1*
X1913971D2*
X2095897D1*
X2249401D2*
X2287186D1*
X2344616D2*
X2429393D1*
X2584811D2*
X2788084D1*
X2999948D2*
X3063006D1*
X425026Y684034D2*
X701952D1*
X1122409D2*
X1154881D1*
X1312741D2*
X1354178D1*
X1517916D2*
X1756541D1*
X1855455D2*
X2095897D1*
X2213561D2*
X2301659D1*
X2330123D2*
X2429393D1*
X2543014D2*
X2788084D1*
X2999948D2*
X3063006D1*
X425026Y674166D2*
X549276D1*
X1122409D2*
X1154881D1*
X1312741D2*
X1354178D1*
X1511178D2*
X1756541D1*
X1848717D2*
X2095897D1*
X2203698D2*
X2429393D1*
X2533151D2*
X2788084D1*
X2999948D2*
X3063006D1*
X425026Y664297D2*
X549276D1*
X1122409D2*
X1154881D1*
X1312741D2*
X1354178D1*
X1511178D2*
X1756541D1*
X1848717D2*
X2095897D1*
X2193834D2*
X2429393D1*
X2523287D2*
X2788084D1*
X2999948D2*
X3063006D1*
X425026Y654428D2*
X549276D1*
X1122409D2*
X1154881D1*
X1312741D2*
X1354178D1*
X1511178D2*
X1756541D1*
X1848717D2*
X2095897D1*
X2188073D2*
X2429393D1*
X2521569D2*
X2788084D1*
X2999948D2*
X3063006D1*
X425026Y644559D2*
X549276D1*
X1122409D2*
X1154881D1*
X1312741D2*
X1354178D1*
X1511178D2*
X1756541D1*
X1848717D2*
X2095897D1*
X2188073D2*
X2429393D1*
X2521569D2*
X2788084D1*
X2999948D2*
X3063006D1*
X425026Y634691D2*
X549276D1*
X951217D2*
X972733D1*
X1032526D2*
X1354178D1*
X1511178D2*
X1756541D1*
X1848717D2*
X2095897D1*
X2188073D2*
X2429393D1*
X2521569D2*
X2788084D1*
X2999948D2*
X3063006D1*
X425026Y624822D2*
X549276D1*
X951217D2*
X972733D1*
X1032526D2*
X1189217D1*
X1312877D2*
X1435194D1*
X1494987D2*
X1772733D1*
X1832526D2*
X2095897D1*
X2188073D2*
X2429393D1*
X2521569D2*
X3063006D1*
X425026Y614953D2*
X549276D1*
X951217D2*
X972733D1*
X1032526D2*
X1132147D1*
X1312877D2*
X1435194D1*
X1494987D2*
X1772733D1*
X1832526D2*
X2095897D1*
X2188073D2*
X2429393D1*
X2521569D2*
X3063006D1*
X425026Y605084D2*
X549276D1*
X951217D2*
X964412D1*
X1095963D2*
X1122264D1*
X1312877D2*
X1419002D1*
X1511178D2*
X1756541D1*
X1848717D2*
X2094080D1*
X2186237D2*
X2429393D1*
X2521569D2*
X3063006D1*
X425026Y595215D2*
X471053D1*
X516979D2*
X549276D1*
X951217D2*
X964412D1*
X1095963D2*
X1112420D1*
X1346354D2*
X1419002D1*
X1511178D2*
X1756541D1*
X1848717D2*
X2094080D1*
X2186237D2*
X2429393D1*
X2521569D2*
X2971053D1*
X3016979D2*
X3063006D1*
X425026Y585347D2*
X444198D1*
X543834D2*
X549276D1*
X951217D2*
X964412D1*
X1095963D2*
X1106385D1*
X1346354D2*
X1419002D1*
X1511178D2*
X1756541D1*
X1848717D2*
X2094080D1*
X2186237D2*
X2429393D1*
X2521569D2*
X2944198D1*
X3043834D2*
X3063006D1*
X951217Y575478D2*
X964412D1*
X1096041D2*
X1104666D1*
X1346354D2*
X1419002D1*
X1511178D2*
X1756541D1*
X1848717D2*
X2094080D1*
X2186237D2*
X2429393D1*
X2521569D2*
X2929080D1*
X951217Y565609D2*
X964412D1*
X1095963D2*
X1104666D1*
X1346354D2*
X1419002D1*
X1511178D2*
X1756541D1*
X1848717D2*
X2094080D1*
X2191373D2*
X2429393D1*
X2521569D2*
X2918202D1*
X951217Y555740D2*
X964412D1*
X1095963D2*
X1104666D1*
X1346354D2*
X1419002D1*
X1514010D2*
X1540116D1*
X1560416D2*
X1756541D1*
X1851530D2*
X1875526D1*
X1895846D2*
X2094080D1*
X2201237D2*
X2210936D1*
X2231256D2*
X2429393D1*
X2530651D2*
X2546366D1*
X2566666D2*
X2909862D1*
X1095963Y545872D2*
X1104666D1*
X1346354D2*
X1419002D1*
X1585983D2*
X1756541D1*
X1921393D2*
X2094080D1*
X2256803D2*
X2429393D1*
X2592233D2*
X2903377D1*
X1095963Y536003D2*
X1104666D1*
X1346354D2*
X1419002D1*
X1597428D2*
X1756541D1*
X1932838D2*
X2094080D1*
X2268268D2*
X2429393D1*
X2603678D2*
X2898358D1*
X1095963Y526134D2*
X1104666D1*
X1346354D2*
X1419002D1*
X1604772D2*
X1756541D1*
X1940182D2*
X2094080D1*
X2275592D2*
X2429393D1*
X2611022D2*
X2894569D1*
X1095963Y516265D2*
X1104666D1*
X1346354D2*
X1419002D1*
X1609557D2*
X1756541D1*
X1944987D2*
X2094080D1*
X2280397D2*
X2429393D1*
X2615807D2*
X2891873D1*
X1095963Y506397D2*
X1104666D1*
X1332565D2*
X1419002D1*
X1612428D2*
X1756541D1*
X1947838D2*
X2094080D1*
X2283248D2*
X2429393D1*
X2618678D2*
X2890194D1*
X953424Y496528D2*
X964373D1*
X1095963D2*
X1104666D1*
X1332565D2*
X1419002D1*
X1613620D2*
X1756541D1*
X1949030D2*
X2094080D1*
X2284440D2*
X2429393D1*
X2619870D2*
X2889491D1*
X951217Y486659D2*
X964412D1*
X1095963D2*
X1104666D1*
X1332565D2*
X1419002D1*
X1613229D2*
X1756541D1*
X1948639D2*
X2094080D1*
X2284069D2*
X2429393D1*
X2619479D2*
X2889725D1*
X951217Y476790D2*
X964412D1*
X1095963D2*
X1104666D1*
X1332565D2*
X1419002D1*
X1611237D2*
X1756541D1*
X1946666D2*
X2094080D1*
X2282077D2*
X2429393D1*
X2617487D2*
X2890897D1*
X951217Y466922D2*
X964412D1*
X1095963D2*
X1104666D1*
X1332565D2*
X1419002D1*
X1607467D2*
X1756541D1*
X1942897D2*
X2094080D1*
X2278307D2*
X2429393D1*
X2613717D2*
X2893065D1*
X951217Y457053D2*
X964412D1*
X1095963D2*
X1104666D1*
X1308151D2*
X1419002D1*
X1601530D2*
X1756541D1*
X1936959D2*
X2094080D1*
X2272370D2*
X2429393D1*
X2607799D2*
X2896287D1*
X951217Y447184D2*
X1019530D1*
X1095963D2*
X1104666D1*
X1301217D2*
X1508026D1*
X1592506D2*
X1843436D1*
X1927916D2*
X2178866D1*
X2263327D2*
X2514276D1*
X2598756D2*
X2900662D1*
X951217Y437315D2*
X1019530D1*
X1095963D2*
X1105916D1*
X1295338D2*
X1523221D1*
X1577311D2*
X1858631D1*
X1912741D2*
X2194041D1*
X2248151D2*
X2529471D1*
X2583561D2*
X2906366D1*
X951217Y427446D2*
X1019530D1*
X1095963D2*
X1111190D1*
X1291530D2*
X2913690D1*
X1837396Y1995105D2*
X1922566D1*
Y1900998D1*
X1832396D1*
Y1995105D1*
X1837396D1*
X1535459Y2419068D2*
X1626534D1*
Y2281654D1*
X1530459D1*
Y2419068D1*
X1535459D1*
X1697860Y2366903D2*
X1802715D1*
Y2270827D1*
X1692860D1*
Y2366903D1*
X1697860D1*
X1016609Y1771563D2*
X1018533Y1774443D1*
X1021567Y1778291D1*
X1024893Y1781889D1*
X1028490Y1785215D1*
X1032338Y1788248D1*
X1034455Y1789662D1*
X1016612Y1789667D1*
X1016604Y1771647D1*
X2255348Y2406386D2*
Y2406370D1*
Y2394575D2*
Y2394559D1*
X1834480Y2148941D2*
Y2092853D1*
X1740373D1*
Y2145139D1*
X1673922Y2145141D1*
Y2148949D1*
X1640703Y2148931D1*
X1640710Y2092853D1*
X1546603D1*
Y2148928D1*
X1540702Y2148931D1*
Y2239101D1*
X1673939D1*
X1673922Y2239248D1*
X1764092D1*
Y2239111D1*
X1867675Y2239101D1*
X1867673Y2239248D1*
X1924098D1*
X1924096Y2239420D1*
X2014267D1*
Y2236158D1*
X2127252Y2236153D1*
X2127246Y2236294D1*
X2217416D1*
Y2142187D1*
X2127246D1*
Y2145995D1*
X2087648Y2145983D1*
X2087635Y2083477D1*
X2014256D1*
X2014266Y2078384D1*
X1924096D1*
Y2145122D1*
X1867673Y2145141D1*
Y2148949D1*
X1834478Y2148931D1*
X2815576Y2739558D2*
Y2664563D1*
X2787705D1*
X2652439Y2529279D1*
X2652430Y2478002D1*
X2507982D1*
X2507999Y2477056D1*
X2346963D1*
Y2567226D1*
X2465161D1*
X2501584Y2603525D1*
X2505253Y2606190D1*
X2509294Y2608249D1*
X2513607Y2609650D1*
X2518086Y2610360D1*
X2535353Y2610449D1*
X2597443D1*
X2680496Y2693508D1*
X2680587Y2730676D1*
X2681296Y2735155D1*
X2682698Y2739468D1*
X2684756Y2743509D1*
X2687422Y2747178D1*
X2699569Y2759450D1*
X2721459Y2781340D1*
X2721469Y2829733D1*
X2815576D1*
X2815557Y2739563D1*
X2187074Y658551D2*
Y607276D1*
X2185257D1*
X2185246Y570752D1*
X2202421Y553565D1*
X2206532Y554692D1*
X2211337Y555648D1*
X2216203Y556224D1*
X2221099Y556416D1*
X2225995Y556224D1*
X2230860Y555648D1*
X2235666Y554692D1*
X2240381Y553362D1*
X2244978Y551666D1*
X2249428Y549615D1*
X2253703Y547221D1*
X2257776Y544499D1*
X2261624Y541465D1*
X2265222Y538139D1*
X2268548Y534542D1*
X2271581Y530694D1*
X2274303Y526620D1*
X2276697Y522345D1*
X2278749Y517895D1*
X2280445Y513299D1*
X2281775Y508583D1*
X2282730Y503778D1*
X2283306Y498912D1*
X2283499Y494016D1*
X2283306Y489120D1*
X2282730Y484254D1*
X2281775Y479449D1*
X2280445Y474733D1*
X2278749Y470137D1*
X2276697Y465687D1*
X2274303Y461412D1*
X2271581Y457338D1*
X2268548Y453490D1*
X2265222Y449893D1*
X2261624Y446567D1*
X2257776Y443533D1*
X2253703Y440811D1*
X2249428Y438417D1*
X2244978Y436366D1*
X2240381Y434670D1*
X2235666Y433340D1*
X2230860Y432384D1*
X2225995Y431808D1*
X2221099Y431616D1*
X2216203Y431808D1*
X2211337Y432384D1*
X2206532Y433340D1*
X2201816Y434670D1*
X2197219Y436366D1*
X2192770Y438417D1*
X2188495Y440811D1*
X2184421Y443533D1*
X2180573Y446567D1*
X2178170Y448788D1*
X2095075Y448798D1*
Y609834D1*
X2096892D1*
X2096904Y768312D1*
X2161454D1*
X2163449Y773895D1*
X2165500Y778345D1*
X2167894Y782620D1*
X2170616Y786694D1*
X2173649Y790542D1*
X2176975Y794139D1*
X2180573Y797465D1*
X2184421Y800499D1*
X2188495Y803221D1*
X2192770Y805615D1*
X2197219Y807666D1*
X2201816Y809362D1*
X2206532Y810692D1*
X2211337Y811648D1*
X2216203Y812224D1*
X2221099Y812416D1*
X2225995Y812224D1*
X2231886Y811489D1*
Y830161D1*
X2225821Y830179D1*
Y920349D1*
X2273692D1*
X2264757Y929411D1*
X2262091Y933080D1*
X2260032Y937120D1*
X2258631Y941433D1*
X2257922Y945913D1*
X2257832Y963180D1*
Y1055075D1*
X2230680Y1055082D1*
X2228074Y1052105D1*
X2208323Y1032365D1*
Y980378D1*
X2195843D1*
X2195752Y972857D1*
X2194935Y967700D1*
X2193322Y962734D1*
X2190951Y958082D1*
X2187882Y953858D1*
X2179038Y944868D1*
X2162317Y928293D1*
X2158093Y925224D1*
X2153441Y922853D1*
X2148475Y921240D1*
X2143318Y920423D1*
X2130708Y920321D1*
X2059829D1*
X2059819Y830180D1*
X2020737D1*
X2015491Y828952D1*
X2009641Y828491D1*
X2003790Y828952D1*
X1998580Y830182D1*
X1992675Y830180D1*
X1992662Y773931D1*
X1943333Y773895D1*
X1945029Y769299D1*
X1946359Y764583D1*
X1947314Y759778D1*
X1947890Y754912D1*
X1948083Y750016D1*
X1947890Y745120D1*
X1947314Y740254D1*
X1946359Y735449D1*
X1945029Y730733D1*
X1943333Y726137D1*
X1941281Y721687D1*
X1938887Y717412D1*
X1936165Y713338D1*
X1933132Y709490D1*
X1929806Y705893D1*
X1926208Y702567D1*
X1922360Y699533D1*
X1918287Y696811D1*
X1914012Y694417D1*
X1909562Y692366D1*
X1904965Y690670D1*
X1900250Y689340D1*
X1895444Y688384D1*
X1890579Y687808D1*
X1885683Y687616D1*
X1880787Y687808D1*
X1875921Y688384D1*
X1871116Y689340D1*
X1866400Y690670D1*
X1862504Y692108D1*
X1847721Y677307D1*
X1847710Y626028D1*
X1831519D1*
X1831525Y609820D1*
X1847710Y609835D1*
X1847809Y558468D1*
X1856910Y549367D1*
X1861803Y551666D1*
X1866400Y553362D1*
X1871116Y554692D1*
X1875921Y555648D1*
X1880787Y556224D1*
X1885683Y556416D1*
X1890579Y556224D1*
X1895444Y555648D1*
X1900250Y554692D1*
X1904965Y553362D1*
X1909562Y551666D1*
X1914012Y549615D1*
X1918287Y547221D1*
X1922360Y544499D1*
X1926208Y541465D1*
X1929806Y538139D1*
X1933132Y534542D1*
X1936165Y530694D1*
X1938887Y526620D1*
X1941281Y522345D1*
X1943333Y517895D1*
X1945029Y513299D1*
X1946359Y508583D1*
X1947314Y503778D1*
X1947890Y498912D1*
X1948083Y494016D1*
X1947890Y489120D1*
X1947314Y484254D1*
X1946359Y479449D1*
X1945029Y474733D1*
X1943333Y470137D1*
X1941281Y465687D1*
X1938887Y461412D1*
X1936165Y457338D1*
X1933132Y453490D1*
X1929806Y449893D1*
X1926208Y446567D1*
X1922360Y443533D1*
X1918287Y440811D1*
X1914012Y438417D1*
X1909562Y436366D1*
X1904965Y434670D1*
X1900250Y433340D1*
X1895444Y432384D1*
X1890579Y431808D1*
X1885683Y431616D1*
X1880787Y431808D1*
X1875921Y432384D1*
X1871116Y433340D1*
X1866400Y434670D1*
X1861803Y436366D1*
X1857354Y438417D1*
X1853079Y440811D1*
X1849005Y443533D1*
X1845157Y446567D1*
X1842754Y448788D1*
X1757540Y448798D1*
Y609835D1*
X1773731D1*
X1773725Y626043D1*
X1757540Y626028D1*
Y787064D1*
X1835489D1*
X1838233Y790542D1*
X1841559Y794139D1*
X1845157Y797465D1*
X1849005Y800499D1*
X1853079Y803221D1*
X1857354Y805615D1*
X1861803Y807666D1*
X1866400Y809362D1*
X1871116Y810692D1*
X1875921Y811648D1*
X1880787Y812224D1*
X1885683Y812416D1*
X1890579Y812224D1*
X1895444Y811648D1*
X1898541Y811032D1*
X1898554Y864101D1*
X1898769D1*
X1898783Y905278D1*
X1896430Y903077D1*
X1891682Y899627D1*
X1886453Y896963D1*
X1880872Y895149D1*
X1875075Y894231D1*
X1869206D1*
X1863410Y895149D1*
X1857828Y896963D1*
X1852599Y899627D1*
X1847851Y903077D1*
X1843701Y907227D1*
X1840252Y911975D1*
X1837588Y917204D1*
X1835774Y922785D1*
X1834856Y928582D1*
Y934450D1*
X1835774Y940247D1*
X1837588Y945828D1*
X1840252Y951057D1*
X1842487Y954265D1*
X1842482Y975810D1*
X1770041Y975796D1*
X1770057Y1023782D1*
X1737831D1*
X1734241Y1023033D1*
X1728390Y1022573D1*
X1722539Y1023033D1*
X1719030Y1023784D1*
X1683305Y1023782D1*
Y1105262D1*
X1633745Y1055693D1*
X1634041Y1050269D1*
X1633888Y1046393D1*
X1633432Y1042541D1*
X1632676Y1038737D1*
X1631623Y1035004D1*
X1630280Y1031365D1*
X1628656Y1027842D1*
X1626761Y1024458D1*
X1624606Y1021233D1*
X1621536Y1017463D1*
X1625247Y1015099D1*
X1629710Y1011287D1*
X1633521Y1006825D1*
X1636588Y1001821D1*
X1638834Y996399D1*
X1640204Y990692D1*
X1640664Y984841D1*
X1640204Y978991D1*
X1638834Y973284D1*
X1636588Y967862D1*
X1633521Y962858D1*
X1629710Y958396D1*
X1625247Y954584D1*
X1620243Y951518D1*
X1614821Y949272D1*
X1609115Y947902D1*
X1603264Y947441D1*
X1597413Y947902D1*
X1591707Y949272D1*
X1586285Y951518D1*
X1581281Y954584D1*
X1576818Y958396D1*
X1573007Y962858D1*
X1569940Y967862D1*
X1567695Y973284D1*
X1566324Y978991D1*
X1565864Y984841D1*
X1566324Y990692D1*
X1567695Y996399D1*
X1569940Y1001821D1*
X1570551Y1002912D1*
X1565736Y1004630D1*
X1562214Y1006254D1*
X1558829Y1008149D1*
X1555604Y1010304D1*
X1552558Y1012705D1*
X1549710Y1015338D1*
X1547077Y1018187D1*
X1544675Y1021233D1*
X1542520Y1024458D1*
X1540625Y1027842D1*
X1539001Y1031365D1*
X1537658Y1035004D1*
X1536606Y1038737D1*
X1535849Y1042541D1*
X1535393Y1046393D1*
X1535241Y1050269D1*
X1535393Y1054145D1*
X1535849Y1057997D1*
X1536606Y1061801D1*
X1537658Y1065535D1*
X1539001Y1069174D1*
X1540625Y1072696D1*
X1542520Y1076081D1*
X1544675Y1079306D1*
X1547077Y1082352D1*
X1549710Y1085200D1*
X1552558Y1087833D1*
X1555604Y1090235D1*
X1558829Y1092390D1*
X1562214Y1094285D1*
X1565736Y1095909D1*
X1569375Y1097251D1*
X1573108Y1098304D1*
X1576913Y1099061D1*
X1580765Y1099517D1*
X1584641Y1099669D1*
X1588517Y1099517D1*
X1594880Y1098562D1*
X1656177Y1159741D1*
X1659846Y1162407D1*
X1663887Y1164465D1*
X1668200Y1165867D1*
X1672679Y1166576D1*
X1683286Y1166665D1*
X1683305Y1190303D1*
X1607246Y1190381D1*
X1602767Y1191090D1*
X1598446Y1192495D1*
X1592369Y1191477D1*
X1588517Y1191022D1*
X1584641Y1190869D1*
X1580765Y1191022D1*
X1576913Y1191477D1*
X1573108Y1192234D1*
X1569375Y1193287D1*
X1565736Y1194630D1*
X1562214Y1196254D1*
X1558829Y1198149D1*
X1555604Y1200304D1*
X1552558Y1202705D1*
X1549710Y1205338D1*
X1547077Y1208187D1*
X1544675Y1211233D1*
X1542520Y1214458D1*
X1540625Y1217842D1*
X1539001Y1221365D1*
X1537658Y1225004D1*
X1536606Y1228737D1*
X1535849Y1232541D1*
X1535393Y1236393D1*
X1535241Y1240269D1*
X1535393Y1244145D1*
X1535849Y1247997D1*
X1536606Y1251801D1*
X1537658Y1255535D1*
X1539001Y1259174D1*
X1540625Y1262696D1*
X1542520Y1266081D1*
X1544675Y1269306D1*
X1547077Y1272352D1*
X1549710Y1275200D1*
X1552558Y1277833D1*
X1555604Y1280235D1*
X1558829Y1282390D1*
X1562214Y1284285D1*
X1565736Y1285909D1*
X1569375Y1287251D1*
X1573108Y1288304D1*
X1576913Y1289061D1*
X1580765Y1289517D1*
X1584641Y1289669D1*
X1588517Y1289517D1*
X1592369Y1289061D1*
X1597121Y1288037D1*
X1597571Y1293785D1*
X1598941Y1299492D1*
X1601187Y1304914D1*
X1604254Y1309918D1*
X1608065Y1314380D1*
X1612528Y1318192D1*
X1617532Y1321258D1*
X1622954Y1323504D1*
X1628660Y1324874D1*
X1634511Y1325335D1*
X1640361Y1324874D1*
X1646068Y1323504D1*
X1651490Y1321258D1*
X1656494Y1318192D1*
X1660957Y1314380D1*
X1664768Y1309918D1*
X1667834Y1304914D1*
X1670080Y1299492D1*
X1671450Y1293785D1*
X1671708Y1291609D1*
X1680841Y1282475D1*
X1683305Y1287017D1*
Y1336124D1*
X1773475D1*
X1773480Y1334819D1*
X1789691D1*
X1788256Y1338373D1*
X1787197Y1342782D1*
X1786842Y1347303D1*
Y1355917D1*
X1718877Y1355899D1*
X1714356Y1356255D1*
X1709946Y1357314D1*
X1705757Y1359049D1*
X1701890Y1361419D1*
X1698441Y1364364D1*
X1659405Y1403526D1*
X1656739Y1407195D1*
X1655627Y1409183D1*
X1654183Y1411113D1*
X1618579D1*
Y1520968D1*
X1695435D1*
X1705043Y1530574D1*
X1705039Y1575600D1*
X1543003Y1575595D1*
X1543017Y1520966D1*
X1618198Y1520968D1*
Y1411113D1*
X1492595D1*
X1492535Y1488032D1*
X1485671Y1494896D1*
X1452847Y1494886D1*
Y1655922D1*
X1492593D1*
X1492595Y1700168D1*
X1485048Y1697170D1*
X1480332Y1695840D1*
X1475527Y1694884D1*
X1470661Y1694308D1*
X1465765Y1694116D1*
X1460869Y1694308D1*
X1456004Y1694884D1*
X1451198Y1695840D1*
X1446483Y1697170D1*
X1441886Y1698866D1*
X1437436Y1700917D1*
X1433161Y1703311D1*
X1429088Y1706033D1*
X1425240Y1709067D1*
X1421642Y1712393D1*
X1418316Y1715990D1*
X1415283Y1719838D1*
X1412561Y1723912D1*
X1410167Y1728187D1*
X1408115Y1732637D1*
X1406419Y1737233D1*
X1405089Y1741949D1*
X1404134Y1746754D1*
X1403558Y1751620D1*
X1403365Y1756516D1*
X1403558Y1761412D1*
X1404134Y1766278D1*
X1405089Y1771083D1*
X1406419Y1775799D1*
X1408115Y1780395D1*
X1410167Y1784845D1*
X1412561Y1789120D1*
X1415283Y1793194D1*
X1418316Y1797042D1*
X1421642Y1800639D1*
X1425240Y1803965D1*
X1429088Y1806999D1*
X1433161Y1809721D1*
X1436852Y1811787D1*
X1436954Y1818033D1*
X1437664Y1822512D1*
X1439065Y1826825D1*
X1441124Y1830866D1*
X1443790Y1834534D1*
X1455936Y1846807D1*
X1517684Y1908555D1*
X1517582Y1917080D1*
X1482324Y1952339D1*
X1475527Y1950884D1*
X1470661Y1950308D1*
X1465765Y1950116D1*
X1460869Y1950308D1*
X1456004Y1950884D1*
X1451198Y1951840D1*
X1446483Y1953170D1*
X1441886Y1954866D1*
X1437436Y1956917D1*
X1433161Y1959311D1*
X1429088Y1962033D1*
X1425240Y1965067D1*
X1421642Y1968393D1*
X1418316Y1971990D1*
X1415283Y1975838D1*
X1412561Y1979912D1*
X1410167Y1984187D1*
X1408115Y1988637D1*
X1406419Y1993233D1*
X1405089Y1997949D1*
X1404134Y2002754D1*
X1403558Y2007620D1*
X1403365Y2012516D1*
X1403558Y2017412D1*
X1404134Y2022278D1*
X1405089Y2027083D1*
X1406419Y2031799D1*
X1408115Y2036395D1*
X1409165Y2038672D1*
X1344433Y2038682D1*
X1347111Y2031799D1*
X1348441Y2027083D1*
X1349397Y2022278D1*
X1349973Y2017412D1*
X1350165Y2012516D1*
X1349973Y2007620D1*
X1349397Y2002754D1*
X1348441Y1997949D1*
X1347111Y1993233D1*
X1345415Y1988637D1*
X1343364Y1984187D1*
X1340970Y1979912D1*
X1338248Y1975838D1*
X1335215Y1971990D1*
X1331889Y1968393D1*
X1328291Y1965067D1*
X1324443Y1962033D1*
X1320369Y1959311D1*
X1316094Y1956917D1*
X1311645Y1954866D1*
X1307048Y1953170D1*
X1302332Y1951840D1*
X1297527Y1950884D1*
X1292661Y1950308D1*
X1287765Y1950116D1*
X1282869Y1950308D1*
X1278004Y1950884D1*
X1273198Y1951840D1*
X1268483Y1953170D1*
X1263886Y1954866D1*
X1259436Y1956917D1*
X1255161Y1959311D1*
X1251088Y1962033D1*
X1247240Y1965067D1*
X1243642Y1968393D1*
X1240316Y1971990D1*
X1237283Y1975838D1*
X1234561Y1979912D1*
X1232167Y1984187D1*
X1230115Y1988637D1*
X1228419Y1993233D1*
X1227089Y1997949D1*
X1226134Y2002754D1*
X1225558Y2007620D1*
X1225365Y2012516D1*
X1225558Y2017412D1*
X1226134Y2022278D1*
X1227089Y2027083D1*
X1228419Y2031799D1*
X1230115Y2036395D1*
X1232167Y2040845D1*
X1234561Y2045120D1*
X1237283Y2049194D1*
X1240316Y2053042D1*
X1243642Y2056639D1*
X1247240Y2059965D1*
X1251088Y2062999D1*
X1255161Y2065721D1*
X1259436Y2068115D1*
X1263886Y2070166D1*
X1268483Y2071862D1*
X1273198Y2073192D1*
X1278004Y2074148D1*
X1282869Y2074724D1*
X1287765Y2074916D1*
X1290959Y2074791D1*
X1290970Y2128852D1*
X1359584D1*
X1359569Y2189274D1*
X1453676D1*
Y2099104D1*
X1452016D1*
X1452007Y2073363D1*
X1456004Y2074148D1*
X1460869Y2074724D1*
X1465765Y2074916D1*
X1470661Y2074724D1*
X1475527Y2074148D1*
X1480332Y2073192D1*
X1485048Y2071862D1*
X1489645Y2070166D1*
X1494094Y2068115D1*
X1498369Y2065721D1*
X1502443Y2062999D1*
X1506291Y2059965D1*
X1509889Y2056639D1*
X1513215Y2053042D1*
X1516248Y2049194D1*
X1518970Y2045120D1*
X1521364Y2040845D1*
X1523415Y2036395D1*
X1525111Y2031799D1*
X1526441Y2027083D1*
X1527397Y2022278D1*
X1527973Y2017412D1*
X1528165Y2012516D1*
X1527973Y2007620D1*
X1527397Y2002754D1*
X1526441Y1997949D1*
X1524588Y1991815D1*
X1556594Y1959810D1*
X1676601Y1959820D1*
Y1865713D1*
X1607871D1*
X1607852Y1798784D1*
X1517682D1*
Y1826811D1*
X1499744Y1808873D1*
X1506291Y1803965D1*
X1509889Y1800639D1*
X1513215Y1797042D1*
X1516248Y1793194D1*
X1518970Y1789120D1*
X1521364Y1784845D1*
X1523415Y1780395D1*
X1525111Y1775799D1*
X1526441Y1771083D1*
X1527397Y1766278D1*
X1527973Y1761412D1*
X1528165Y1756516D1*
X1527973Y1751620D1*
X1527397Y1746754D1*
X1526441Y1741949D1*
X1525189Y1737510D1*
X1618198Y1737504D1*
Y1642133D1*
X1618579Y1642649D1*
Y1737504D1*
X1736568D1*
X1736585Y1783326D1*
X1811604D1*
X1811585Y1784950D1*
X1901755D1*
X1901799Y1741667D1*
X1936467D1*
X1936457Y1814232D1*
X2030565D1*
Y1753822D1*
X2032738Y1751536D1*
X2035357Y1747931D1*
X2037380Y1743960D1*
X2038757Y1739722D1*
X2039455Y1735320D1*
X2039542Y1718092D1*
Y1696432D1*
X2040981Y1697076D1*
X2041899Y1702873D1*
X2043712Y1708454D1*
X2046377Y1713683D1*
X2049826Y1718431D1*
X2053976Y1722581D1*
X2058724Y1726031D1*
X2063953Y1728695D1*
X2069534Y1730509D1*
X2075331Y1731427D1*
X2081200D1*
X2086377Y1730632D1*
X2087406Y1733452D1*
X2090071Y1738681D1*
X2093520Y1743429D1*
X2097670Y1747579D1*
X2102418Y1751028D1*
X2107647Y1753692D1*
X2113229Y1755506D1*
X2119025Y1756424D1*
X2124894D1*
X2130690Y1755506D1*
X2136272Y1753692D1*
X2141501Y1751028D1*
X2146249Y1747579D1*
X2150399Y1743429D1*
X2153848Y1738681D1*
X2156513Y1733452D1*
X2158298Y1727970D1*
X2160634Y1731624D1*
X2164446Y1736086D1*
X2168908Y1739898D1*
X2173912Y1742964D1*
X2179334Y1745210D1*
X2185041Y1746580D1*
X2190891Y1747041D1*
X2196742Y1746580D1*
X2202449Y1745210D1*
X2207443Y1743161D1*
X2207453Y1811093D1*
X2277317D1*
X2280271Y1814412D1*
X2284734Y1818223D1*
X2289738Y1821290D1*
X2295160Y1823536D1*
X2300866Y1824906D1*
X2306717Y1825366D1*
X2312567Y1824906D1*
X2318274Y1823536D1*
X2323696Y1821290D1*
X2328700Y1818223D1*
X2333163Y1814412D1*
X2336974Y1809949D1*
X2340040Y1804945D1*
X2342286Y1799523D1*
X2343656Y1793817D1*
X2344117Y1787966D1*
X2343656Y1782115D1*
X2342286Y1776409D1*
X2341385Y1773966D1*
X2345260Y1770583D1*
X2349071Y1766120D1*
X2352138Y1761116D1*
X2354383Y1755694D1*
X2355753Y1749987D1*
X2356214Y1744137D1*
X2356200Y1743781D1*
X2359656Y1743676D1*
X2365453Y1742758D1*
X2371034Y1740944D1*
X2376263Y1738280D1*
X2381011Y1734831D1*
X2385161Y1730681D1*
X2388611Y1725933D1*
X2391275Y1720704D1*
X2393089Y1715122D1*
X2394007Y1709326D1*
Y1703457D1*
X2393089Y1697660D1*
X2391275Y1692079D1*
X2388611Y1686850D1*
X2386248Y1683480D1*
X2390792Y1680654D1*
X2395254Y1676842D1*
X2399066Y1672380D1*
X2402132Y1667376D1*
X2404378Y1661954D1*
X2405748Y1656247D1*
X2406209Y1650397D1*
X2405748Y1644546D1*
X2404378Y1638839D1*
X2402132Y1633417D1*
X2399066Y1628413D1*
X2395254Y1623951D1*
X2390792Y1620139D1*
X2385788Y1617073D1*
X2380366Y1614827D1*
X2377101Y1613943D1*
X2377093Y1594070D1*
X2406308Y1594071D1*
X2466247Y1653993D1*
X2463597Y1658415D1*
X2461351Y1663837D1*
X2459981Y1669543D1*
X2459520Y1675394D1*
X2459981Y1681245D1*
X2461351Y1686951D1*
X2463597Y1692373D1*
X2466663Y1697377D1*
X2470474Y1701840D1*
X2474937Y1705651D1*
X2479941Y1708718D1*
X2485363Y1710963D1*
X2491070Y1712333D1*
X2496920Y1712794D1*
X2502771Y1712333D1*
X2508477Y1710963D1*
X2513899Y1708718D1*
X2518903Y1705651D1*
X2523366Y1701840D1*
X2527177Y1697377D1*
X2528038Y1696089D1*
X2530650Y1701185D1*
X2534099Y1705933D1*
X2538249Y1710082D1*
X2542997Y1713532D1*
X2548226Y1716196D1*
X2553807Y1718010D1*
X2559604Y1718928D1*
X2565473D1*
X2571269Y1718010D1*
X2576851Y1716196D1*
X2582080Y1713532D1*
X2586828Y1710082D1*
X2590977Y1705933D1*
X2594427Y1701185D1*
X2597091Y1695956D1*
X2598905Y1690374D1*
X2599823Y1684578D1*
Y1678709D1*
X2598905Y1672912D1*
X2597091Y1667331D1*
X2595812Y1664574D1*
Y1632991D1*
X2604726Y1632998D1*
Y1538891D1*
X2544667D1*
X2516202Y1510413D1*
X2521209Y1510327D1*
X2525688Y1509618D1*
X2530001Y1508216D1*
X2534041Y1506157D1*
X2537710Y1503492D1*
X2546379Y1494949D1*
X2575959Y1494941D1*
X2581802Y1500798D1*
X2582649Y1505872D1*
X2584463Y1511453D1*
X2587127Y1516682D1*
X2590577Y1521430D1*
X2594727Y1525580D1*
X2599475Y1529029D1*
X2604704Y1531694D1*
X2610285Y1533507D1*
X2616082Y1534425D1*
X2621950D1*
X2627747Y1533507D1*
X2633328Y1531694D1*
X2638557Y1529029D1*
X2643305Y1525580D1*
X2647455Y1521430D1*
X2650905Y1516682D1*
X2653569Y1511453D1*
X2655383Y1505872D1*
X2656301Y1500075D1*
Y1494206D1*
X2655383Y1488410D1*
X2653569Y1482828D1*
X2650905Y1477599D1*
X2647455Y1472851D1*
X2643305Y1468701D1*
X2638557Y1465252D1*
X2633328Y1462588D1*
X2627747Y1460774D1*
X2622691Y1459944D1*
X2614385Y1451639D1*
X2617704Y1450444D1*
X2622933Y1447780D1*
X2627681Y1444331D1*
X2631831Y1440181D1*
X2635280Y1435433D1*
X2637944Y1430204D1*
X2639758Y1424622D1*
X2640676Y1418826D1*
Y1412957D1*
X2639758Y1407160D1*
X2637944Y1401579D1*
X2635280Y1396350D1*
X2632917Y1392980D1*
X2708089Y1392987D1*
Y1372928D1*
X2791152Y1372916D1*
X2789765Y1379173D1*
X2789258Y1383456D1*
X2789088Y1387765D1*
X2789258Y1392075D1*
X2789765Y1396358D1*
X2790606Y1400588D1*
X2791777Y1404739D1*
X2793270Y1408785D1*
X2795075Y1412702D1*
X2797183Y1416465D1*
X2799579Y1420051D1*
X2802249Y1423438D1*
X2805176Y1426605D1*
X2808343Y1429533D1*
X2811730Y1432203D1*
X2815316Y1434599D1*
X2821328Y1437743D1*
X2815316Y1440932D1*
X2811730Y1443328D1*
X2808343Y1445998D1*
X2805176Y1448926D1*
X2802249Y1452093D1*
X2799579Y1455480D1*
X2797183Y1459066D1*
X2795075Y1462829D1*
X2793270Y1466745D1*
X2791777Y1470792D1*
X2790606Y1474943D1*
X2789765Y1479173D1*
X2789258Y1483456D1*
X2789088Y1487765D1*
X2789258Y1492075D1*
X2789765Y1496358D1*
X2790606Y1500588D1*
X2791777Y1504739D1*
X2793270Y1508785D1*
X2795075Y1512702D1*
X2797183Y1516465D1*
X2799579Y1520051D1*
X2802249Y1523438D1*
X2805176Y1526605D1*
X2808343Y1529533D1*
X2811730Y1532203D1*
X2815316Y1534599D1*
X2821328Y1537743D1*
X2815316Y1540932D1*
X2811730Y1543328D1*
X2808343Y1545998D1*
X2805176Y1548926D1*
X2802249Y1552093D1*
X2799579Y1555480D1*
X2797183Y1559066D1*
X2795075Y1562829D1*
X2793270Y1566745D1*
X2791777Y1570792D1*
X2790606Y1574943D1*
X2789765Y1579173D1*
X2789258Y1583456D1*
X2789088Y1587765D1*
X2789258Y1592075D1*
X2789765Y1596358D1*
X2790606Y1600588D1*
X2791777Y1604739D1*
X2793270Y1608785D1*
X2795075Y1612702D1*
X2797183Y1616465D1*
X2799579Y1620051D1*
X2802249Y1623438D1*
X2805176Y1626605D1*
X2808343Y1629533D1*
X2811730Y1632203D1*
X2815316Y1634599D1*
X2821328Y1637743D1*
X2815316Y1640932D1*
X2811730Y1643328D1*
X2808343Y1645998D1*
X2805176Y1648926D1*
X2802249Y1652093D1*
X2799579Y1655480D1*
X2797183Y1659066D1*
X2795075Y1662829D1*
X2793270Y1666745D1*
X2791777Y1670792D1*
X2790606Y1674943D1*
X2789765Y1679173D1*
X2789258Y1683456D1*
X2789088Y1687765D1*
X2789258Y1692075D1*
X2789765Y1696358D1*
X2790606Y1700588D1*
X2791777Y1704739D1*
X2793270Y1708785D1*
X2795075Y1712702D1*
X2797183Y1716465D1*
X2799579Y1720051D1*
X2802249Y1723438D1*
X2805176Y1726605D1*
X2808343Y1729533D1*
X2811730Y1732203D1*
X2815316Y1734599D1*
X2821328Y1737743D1*
X2815316Y1740932D1*
X2811730Y1743328D1*
X2808343Y1745998D1*
X2805176Y1748926D1*
X2802249Y1752093D1*
X2799579Y1755480D1*
X2797183Y1759066D1*
X2795075Y1762829D1*
X2793270Y1766745D1*
X2791777Y1770792D1*
X2790606Y1774943D1*
X2789765Y1779173D1*
X2789258Y1783456D1*
X2789088Y1787765D1*
X2789258Y1792075D1*
X2789765Y1796358D1*
X2790606Y1800588D1*
X2791777Y1804739D1*
X2793270Y1808785D1*
X2795075Y1812702D1*
X2797183Y1816465D1*
X2799579Y1820051D1*
X2802249Y1823438D1*
X2805176Y1826605D1*
X2808343Y1829533D1*
X2811730Y1832203D1*
X2815316Y1834599D1*
X2821328Y1837743D1*
X2815316Y1840932D1*
X2811730Y1843328D1*
X2808343Y1845998D1*
X2805176Y1848926D1*
X2802249Y1852093D1*
X2799579Y1855480D1*
X2797183Y1859066D1*
X2795075Y1862829D1*
X2793270Y1866745D1*
X2791777Y1870792D1*
X2790606Y1874943D1*
X2789765Y1879173D1*
X2789258Y1883456D1*
X2789088Y1887765D1*
X2789258Y1892075D1*
X2789765Y1896358D1*
X2790606Y1900588D1*
X2791777Y1904739D1*
X2793270Y1908785D1*
X2795075Y1912702D1*
X2797183Y1916465D1*
X2799579Y1920051D1*
X2802249Y1923438D1*
X2805176Y1926605D1*
X2808343Y1929533D1*
X2811730Y1932203D1*
X2815316Y1934599D1*
X2821328Y1937743D1*
X2815316Y1940932D1*
X2811730Y1943328D1*
X2808343Y1945998D1*
X2805176Y1948926D1*
X2802249Y1952093D1*
X2799579Y1955480D1*
X2797183Y1959066D1*
X2795075Y1962829D1*
X2793270Y1966745D1*
X2791777Y1970792D1*
X2790606Y1974943D1*
X2789765Y1979173D1*
X2789258Y1983456D1*
X2789088Y1987765D1*
X2789258Y1992075D1*
X2789765Y1996358D1*
X2790606Y2000588D1*
X2791777Y2004739D1*
X2793270Y2008785D1*
X2795075Y2012702D1*
X2797183Y2016465D1*
X2799579Y2020051D1*
X2802249Y2023438D1*
X2805176Y2026605D1*
X2808343Y2029533D1*
X2811730Y2032203D1*
X2815316Y2034599D1*
X2821328Y2037743D1*
X2815316Y2040932D1*
X2811730Y2043328D1*
X2808343Y2045998D1*
X2805176Y2048926D1*
X2802249Y2052093D1*
X2799579Y2055480D1*
X2797323Y2058856D1*
X2765207Y2058865D1*
X2699985Y1993650D1*
X2699133Y1988571D1*
X2697320Y1982990D1*
X2694655Y1977761D1*
X2691206Y1973013D1*
X2687056Y1968863D1*
X2682308Y1965413D1*
X2677079Y1962749D1*
X2671498Y1960935D1*
X2665701Y1960017D1*
X2659832D1*
X2655105Y1960723D1*
X2655112Y1952217D1*
X2561004D1*
Y2030166D1*
X2560768Y2030182D1*
X2560767Y2192224D1*
X2654874D1*
Y2183689D1*
X2659089Y2184336D1*
X2784621Y2309741D1*
X2788290Y2312407D1*
X2792330Y2314466D1*
X2796652Y2315869D1*
X2799579Y2320051D1*
X2802249Y2323438D1*
X2805176Y2326605D1*
X2808343Y2329533D1*
X2811730Y2332203D1*
X2815316Y2334599D1*
X2821328Y2337743D1*
X2815316Y2340932D1*
X2811730Y2343328D1*
X2808343Y2345998D1*
X2805176Y2348926D1*
X2802249Y2352093D1*
X2799579Y2355480D1*
X2797183Y2359066D1*
X2795075Y2362829D1*
X2793270Y2366745D1*
X2791777Y2370792D1*
X2790606Y2374943D1*
X2789765Y2379173D1*
X2789258Y2383456D1*
X2789088Y2387765D1*
X2789258Y2392075D1*
X2789765Y2396358D1*
X2790606Y2400588D1*
X2791777Y2404739D1*
X2793270Y2408785D1*
X2795075Y2412702D1*
X2797183Y2416465D1*
X2799579Y2420051D1*
X2802249Y2423438D1*
X2805176Y2426605D1*
X2808343Y2429533D1*
X2811730Y2432203D1*
X2815316Y2434599D1*
X2821328Y2437743D1*
X2815316Y2440932D1*
X2811730Y2443328D1*
X2808343Y2445998D1*
X2805176Y2448926D1*
X2802249Y2452093D1*
X2799579Y2455480D1*
X2797183Y2459066D1*
X2795075Y2462829D1*
X2793270Y2466745D1*
X2791777Y2470792D1*
X2790606Y2474943D1*
X2789765Y2479173D1*
X2789258Y2483456D1*
X2789088Y2487765D1*
X2789258Y2492075D1*
X2789765Y2496358D1*
X2790606Y2500588D1*
X2791777Y2504739D1*
X2793270Y2508785D1*
X2795075Y2512702D1*
X2797183Y2516465D1*
X2799579Y2520051D1*
X2802249Y2523438D1*
X2805176Y2526605D1*
X2808343Y2529533D1*
X2811730Y2532203D1*
X2815316Y2534599D1*
X2821328Y2537743D1*
X2815316Y2540932D1*
X2811730Y2543328D1*
X2808343Y2545998D1*
X2805176Y2548926D1*
X2802249Y2552093D1*
X2799579Y2555480D1*
X2797183Y2559066D1*
X2795075Y2562829D1*
X2793270Y2566745D1*
X2791777Y2570792D1*
X2790606Y2574943D1*
X2789765Y2579173D1*
X2789258Y2583456D1*
X2789088Y2587765D1*
X2789258Y2592075D1*
X2789765Y2596358D1*
X2790606Y2600588D1*
X2791777Y2604739D1*
X2793270Y2608785D1*
X2795075Y2612702D1*
X2797183Y2616465D1*
X2799579Y2620051D1*
X2802249Y2623438D1*
X2805176Y2626605D1*
X2808343Y2629533D1*
X2811730Y2632203D1*
X2815316Y2634599D1*
X2819079Y2636706D1*
X2822996Y2638512D1*
X2827042Y2640005D1*
X2831193Y2641175D1*
X2835423Y2642017D1*
X2839706Y2642524D1*
X2844016Y2642693D1*
X2848326Y2642524D1*
X2852609Y2642017D1*
X2856839Y2641175D1*
X2860990Y2640005D1*
X2865036Y2638512D1*
X2868953Y2636706D1*
X2872716Y2634599D1*
X2876302Y2632203D1*
X2879689Y2629533D1*
X2882856Y2626605D1*
X2885783Y2623438D1*
X2888453Y2620051D1*
X2890849Y2616465D1*
X2893994Y2610453D1*
X2897183Y2616465D1*
X2899579Y2620051D1*
X2902249Y2623438D1*
X2905176Y2626605D1*
X2909944Y2630795D1*
X2855953Y2684926D1*
X2852884Y2689150D1*
X2850514Y2693802D1*
X2848900Y2698768D1*
X2848083Y2703925D1*
X2847981Y2716536D1*
Y2820852D1*
X2833102Y2835743D1*
X2644286Y2835745D1*
X2645298Y2830754D1*
X2645807Y2826459D1*
X2645976Y2822137D1*
X2645807Y2817815D1*
X2645298Y2813520D1*
X2644454Y2809277D1*
X2643280Y2805115D1*
X2641783Y2801057D1*
X2639972Y2797129D1*
X2637859Y2793355D1*
X2635456Y2789759D1*
X2632778Y2786362D1*
X2629842Y2783186D1*
X2626666Y2780250D1*
X2622750Y2777225D1*
X2645977Y2777222D1*
Y2667051D1*
X2535807D1*
Y2690235D1*
X2532778Y2686362D1*
X2529842Y2683186D1*
X2526666Y2680250D1*
X2523270Y2677572D1*
X2519673Y2675169D1*
X2515899Y2673056D1*
X2511971Y2671245D1*
X2507914Y2669748D1*
X2503751Y2668574D1*
X2499509Y2667730D1*
X2495213Y2667222D1*
X2490891Y2667052D1*
X2486569Y2667222D1*
X2482274Y2667730D1*
X2478032Y2668574D1*
X2473869Y2669748D1*
X2469811Y2671245D1*
X2465883Y2673056D1*
X2462109Y2675169D1*
X2458513Y2677572D1*
X2455116Y2680250D1*
X2451940Y2683186D1*
X2449004Y2686362D1*
X2446327Y2689759D1*
X2443924Y2693355D1*
X2440912Y2699077D1*
X2437859Y2693355D1*
X2435456Y2689759D1*
X2432778Y2686362D1*
X2429842Y2683186D1*
X2426666Y2680250D1*
X2423270Y2677572D1*
X2419673Y2675169D1*
X2415899Y2673056D1*
X2411971Y2671245D1*
X2407914Y2669748D1*
X2403751Y2668574D1*
X2399509Y2667730D1*
X2395213Y2667222D1*
X2390891Y2667052D1*
X2386569Y2667222D1*
X2382274Y2667730D1*
X2378032Y2668574D1*
X2373869Y2669748D1*
X2369811Y2671245D1*
X2365883Y2673056D1*
X2362109Y2675169D1*
X2358513Y2677572D1*
X2355116Y2680250D1*
X2351940Y2683186D1*
X2349004Y2686362D1*
X2345979Y2690278D1*
X2345977Y2667051D1*
X2235807D1*
Y2777222D1*
X2345977D1*
Y2754038D1*
X2349004Y2757912D1*
X2351940Y2761088D1*
X2355116Y2764024D1*
X2358513Y2766701D1*
X2362109Y2769104D1*
X2367832Y2772116D1*
X2362109Y2775169D1*
X2358513Y2777572D1*
X2355116Y2780250D1*
X2351940Y2783186D1*
X2349004Y2786362D1*
X2346327Y2789759D1*
X2343924Y2793355D1*
X2341810Y2797129D1*
X2339999Y2801057D1*
X2338502Y2805115D1*
X2337328Y2809277D1*
X2336484Y2813520D1*
X2335976Y2817815D1*
X2335806Y2822137D1*
X2335976Y2826459D1*
X2336484Y2830754D1*
X2337544Y2835760D1*
X2189130Y2835745D1*
X2189133Y2744994D1*
X2193937Y2742034D1*
X2198400Y2738223D1*
X2202212Y2733760D1*
X2205278Y2728756D1*
X2207524Y2723334D1*
X2208894Y2717627D1*
X2209354Y2711777D1*
X2208894Y2705926D1*
X2207524Y2700220D1*
X2205278Y2694798D1*
X2202212Y2689794D1*
X2198400Y2685331D1*
X2193937Y2681520D1*
X2188934Y2678453D1*
X2183512Y2676207D1*
X2177805Y2674837D1*
X2173571Y2674440D1*
X2173581Y2661770D1*
X2107937D1*
X2107944Y2491708D1*
X2108649Y2492204D1*
X2109745Y2496769D1*
X2111542Y2501107D1*
X2113995Y2505110D1*
X2117044Y2508681D1*
X2120614Y2511730D1*
X2124618Y2514183D1*
X2128956Y2515980D1*
X2133521Y2517076D1*
X2138202Y2517444D1*
X2155746Y2517352D1*
X2160393Y2516615D1*
X2161241Y2518877D1*
Y2629913D1*
X2251411D1*
Y2468877D1*
X2235220D1*
X2235226Y2443026D1*
X2237797Y2442346D1*
X2241479Y2440821D1*
X2244878Y2438738D1*
X2247908Y2436150D1*
X2250497Y2433119D1*
X2252579Y2429721D1*
X2254105Y2426038D1*
X2255035Y2422163D1*
X2255348Y2418181D1*
X2255270Y2384700D1*
X2254646Y2380764D1*
X2253414Y2376973D1*
X2251605Y2373422D1*
X2249262Y2370197D1*
X2246444Y2367379D1*
X2243219Y2365036D1*
X2239668Y2363227D1*
X2235877Y2361995D1*
X2231941Y2361371D1*
X2214948Y2361293D1*
X2180711Y2361371D1*
X2176774Y2361995D1*
X2174847Y2362539D1*
X2173581Y2361469D1*
Y2308425D1*
X2109031D1*
X2109014Y2270827D1*
X1999159D1*
Y2366903D1*
X2077109D1*
X2077112Y2406469D1*
X2108264D1*
X2108280Y2433910D1*
X2047825Y2434000D1*
X2043346Y2434710D1*
X2041153Y2435329D1*
X2033022Y2435483D1*
X1713382Y2435575D1*
X1708744Y2436310D1*
X1704279Y2437760D1*
X1700095Y2439892D1*
X1696297Y2442652D1*
X1692977Y2445972D1*
X1690217Y2449770D1*
X1688086Y2453954D1*
X1686635Y2458419D1*
X1685900Y2463057D1*
X1685808Y2475404D1*
X1685900Y2786380D1*
X1686635Y2791018D1*
X1688086Y2795483D1*
X1690217Y2799666D1*
X1692977Y2803465D1*
X1696297Y2806785D1*
X1700095Y2809545D1*
X1702154Y2810697D1*
X1704278Y2816404D1*
Y2835760D1*
X1626551Y2835745D1*
X1626534Y2721811D1*
X1548157Y2721823D1*
Y2613373D1*
X1482279D1*
X1482291Y2567746D1*
X1485280Y2563557D1*
X1487944Y2558328D1*
X1489758Y2552747D1*
X1490676Y2546950D1*
Y2541082D1*
X1489758Y2535285D1*
X1487944Y2529704D1*
X1485280Y2524475D1*
X1481831Y2519727D1*
X1477681Y2515577D1*
X1472933Y2512127D1*
X1467704Y2509463D1*
X1462122Y2507649D1*
X1456326Y2506731D1*
X1450457D1*
X1444660Y2507649D1*
X1439079Y2509463D1*
X1433850Y2512127D1*
X1429102Y2515577D1*
X1424952Y2519727D1*
X1421503Y2524475D1*
X1418838Y2529704D1*
X1417025Y2535285D1*
X1416107Y2541082D1*
Y2546950D1*
X1417025Y2552747D1*
X1418838Y2558328D1*
X1421503Y2563557D1*
X1424491Y2567720D1*
Y2613371D1*
X1339877Y2613373D1*
Y2766713D1*
X1314603Y2791998D1*
X1233208Y2791999D1*
X1233197Y2613373D1*
X1024917D1*
Y2791986D1*
X954614Y2791999D1*
X918248Y2755631D1*
X918236Y2613373D1*
X721732D1*
X732763Y2602325D1*
X827877Y2602222D1*
X833034Y2601405D1*
X838000Y2599791D1*
X842652Y2597421D1*
X846876Y2594352D1*
X850568Y2590660D1*
X853637Y2586436D1*
X856008Y2581784D1*
X857621Y2576818D1*
X858438Y2571661D1*
X858541Y2560788D1*
X860250Y2556735D1*
X861181Y2552860D1*
X861494Y2548886D1*
X861415Y2499649D1*
X860792Y2495712D1*
X859560Y2491922D1*
X857751Y2488370D1*
X855408Y2485146D1*
X852590Y2482328D1*
X849365Y2479985D1*
X845814Y2478175D1*
X842023Y2476944D1*
X838086Y2476320D1*
X821093Y2476242D1*
X812447Y2476320D1*
X808510Y2476944D1*
X806541Y2477485D1*
X802665Y2476555D1*
X798684Y2476242D1*
X775045Y2476320D1*
X771109Y2476944D1*
X769139Y2477485D1*
X765264Y2476555D1*
X761282Y2476242D1*
X737644Y2476320D1*
X733707Y2476944D1*
X729917Y2478175D1*
X726365Y2479985D1*
X723141Y2482328D1*
X721671Y2483687D1*
X718982Y2484780D1*
X713530Y2485193D1*
X713539Y2431850D1*
X709614D1*
X709602Y2415760D1*
X714245Y2415821D1*
X714315Y2448509D1*
X714939Y2452446D1*
X716170Y2456236D1*
X717980Y2459787D1*
X720322Y2463012D1*
X723141Y2465830D1*
X726365Y2468173D1*
X729917Y2469983D1*
X733707Y2471214D1*
X737644Y2471838D1*
X754637Y2471916D1*
X763283Y2471838D1*
X767220Y2471214D1*
X771010Y2469983D1*
X774562Y2468173D1*
X777786Y2465830D1*
X780605Y2463012D1*
X782947Y2459788D1*
X784757Y2456236D1*
X785989Y2452446D1*
X786612Y2448509D1*
X786690Y2431516D1*
Y2400736D1*
X791534Y2402258D1*
X797331Y2403176D1*
X803200D1*
X808996Y2402258D1*
X814578Y2400444D1*
X819807Y2397780D1*
X820370Y2397404D1*
X825864Y2399188D1*
X831660Y2400106D1*
X837529D1*
X843326Y2399188D1*
X848907Y2397375D1*
X854136Y2394711D1*
X858884Y2391261D1*
X863034Y2387111D1*
X866483Y2382363D1*
X868615Y2378290D1*
X871950Y2378176D1*
X877747Y2377258D1*
X883328Y2375444D1*
X888557Y2372780D1*
X893305Y2369331D1*
X897455Y2365181D1*
X900905Y2360433D1*
X902575Y2357360D1*
X910116Y2357350D1*
X924120Y2371356D1*
Y2421312D1*
X1018227D1*
Y2331142D1*
X965630D1*
X940855Y2306475D1*
X937186Y2303809D1*
X933145Y2301750D1*
X931008Y2300962D1*
X930932Y2289878D1*
X934869Y2289865D1*
Y2285939D1*
X952279Y2285831D1*
X957131Y2285063D1*
X961803Y2283545D1*
X966180Y2281315D1*
X970154Y2278427D1*
X973628Y2274954D1*
X976515Y2270979D1*
X978746Y2266602D1*
X980264Y2261930D1*
X981032Y2257079D1*
Y2252166D1*
X980264Y2247314D1*
X979566Y2244867D1*
X1004644Y2244969D1*
Y2291950D1*
X1383221D1*
Y2189969D1*
X1079557D1*
X1187786Y2081622D1*
X1190451Y2077954D1*
X1192510Y2073913D1*
X1193912Y2069600D1*
X1194621Y2065121D1*
X1194710Y2048576D1*
X1214175Y2048569D1*
Y1958399D1*
X1153491D1*
X1153495Y1877158D1*
X1059388D1*
Y1958388D1*
X1012880Y1958399D1*
X1012885Y1879847D1*
X1041007Y1879837D1*
Y1793529D1*
X1045137Y1795415D1*
X1049733Y1797111D1*
X1054449Y1798441D1*
X1059254Y1799397D1*
X1064120Y1799973D1*
X1069016Y1800165D1*
X1073912Y1799973D1*
X1078778Y1799397D1*
X1083583Y1798441D1*
X1088299Y1797111D1*
X1092895Y1795415D1*
X1097345Y1793364D1*
X1101620Y1790970D1*
X1105694Y1788248D1*
X1109542Y1785215D1*
X1113139Y1781889D1*
X1116465Y1778291D1*
X1119499Y1774443D1*
X1122679Y1769551D1*
X1124893Y1771889D1*
X1128490Y1775215D1*
X1132338Y1778248D1*
X1136412Y1780970D1*
X1140687Y1783364D1*
X1145137Y1785415D1*
X1149733Y1787111D1*
X1154449Y1788441D1*
X1159254Y1789397D1*
X1164120Y1789973D1*
X1169016Y1790165D1*
X1173912Y1789973D1*
X1178778Y1789397D1*
X1183583Y1788441D1*
X1188299Y1787111D1*
X1192895Y1785415D1*
X1197345Y1783364D1*
X1201620Y1780970D1*
X1205694Y1778248D1*
X1209542Y1775215D1*
X1213139Y1771889D1*
X1216465Y1768291D1*
X1219499Y1764443D1*
X1222221Y1760369D1*
X1225408Y1754374D1*
X1225558Y1761412D1*
X1226134Y1766278D1*
X1227089Y1771083D1*
X1228419Y1775799D1*
X1230115Y1780395D1*
X1232167Y1784845D1*
X1234561Y1789120D1*
X1237283Y1793194D1*
X1240316Y1797042D1*
X1243642Y1800639D1*
X1247240Y1803965D1*
X1251088Y1806999D1*
X1255161Y1809721D1*
X1259436Y1812115D1*
X1263886Y1814166D1*
X1268483Y1815862D1*
X1273198Y1817192D1*
X1278004Y1818148D1*
X1282869Y1818724D1*
X1287765Y1818916D1*
X1292661Y1818724D1*
X1297527Y1818148D1*
X1302332Y1817192D1*
X1307048Y1815862D1*
X1311645Y1814166D1*
X1316094Y1812115D1*
X1320369Y1809721D1*
X1324443Y1806999D1*
X1328291Y1803965D1*
X1331889Y1800639D1*
X1335215Y1797042D1*
X1338248Y1793194D1*
X1340970Y1789120D1*
X1343364Y1784845D1*
X1345415Y1780395D1*
X1347111Y1775799D1*
X1348441Y1771083D1*
X1349397Y1766278D1*
X1349973Y1761412D1*
X1350089Y1758448D1*
X1353689Y1759204D1*
X1359540Y1759664D1*
X1365390Y1759204D1*
X1371097Y1757834D1*
X1376519Y1755588D1*
X1381523Y1752521D1*
X1385985Y1748710D1*
X1389797Y1744247D1*
X1392863Y1739243D1*
X1395109Y1733821D1*
X1396479Y1728115D1*
X1396940Y1722264D1*
X1396479Y1716413D1*
X1395109Y1710707D1*
X1392863Y1705285D1*
X1389797Y1700281D1*
X1385985Y1695818D1*
X1381523Y1692007D1*
X1376519Y1688940D1*
X1371097Y1686695D1*
X1370092Y1686411D1*
X1194220Y1510531D1*
X1194210Y1448672D1*
X1196009Y1445524D1*
X1198255Y1440102D1*
X1199625Y1434396D1*
X1200085Y1428545D1*
X1199625Y1422694D1*
X1198255Y1416988D1*
X1196009Y1411566D1*
X1192943Y1406562D1*
X1189131Y1402099D1*
X1184668Y1398288D1*
X1179665Y1395221D1*
X1174243Y1392975D1*
X1168536Y1391605D1*
X1162685Y1391145D1*
X1156835Y1391605D1*
X1151128Y1392975D1*
X1145706Y1395221D1*
X1140702Y1398288D1*
X1136239Y1402099D1*
X1132428Y1406562D1*
X1129362Y1411566D1*
X1127294Y1416503D1*
X1122065Y1416142D1*
X1116214Y1416603D1*
X1110507Y1417973D1*
X1105085Y1420219D1*
X1100081Y1423285D1*
X1095619Y1427096D1*
X1091807Y1431559D1*
X1088741Y1436563D1*
X1086495Y1441985D1*
X1085125Y1447692D1*
X1084665Y1453542D1*
X1085125Y1459393D1*
X1086495Y1465099D1*
X1088741Y1470521D1*
X1091807Y1475525D1*
X1093664Y1477874D1*
X1093752Y1549511D1*
X1094449Y1553912D1*
X1095826Y1558151D1*
X1097849Y1562121D1*
X1100469Y1565727D1*
X1112589Y1577971D1*
X1231639Y1697076D1*
X1232558Y1702873D1*
X1234371Y1708454D1*
X1237035Y1713683D1*
X1239413Y1717071D1*
X1237283Y1719838D1*
X1234561Y1723912D1*
X1231373Y1729908D1*
X1231224Y1722869D1*
X1230648Y1718004D1*
X1229692Y1713198D1*
X1228362Y1708483D1*
X1226666Y1703886D1*
X1224615Y1699436D1*
X1222221Y1695161D1*
X1219499Y1691088D1*
X1216465Y1687240D1*
X1213139Y1683642D1*
X1209542Y1680316D1*
X1205694Y1677283D1*
X1201620Y1674561D1*
X1197345Y1672167D1*
X1192895Y1670115D1*
X1188299Y1668419D1*
X1183583Y1667089D1*
X1178778Y1666134D1*
X1173912Y1665558D1*
X1169016Y1665365D1*
X1164120Y1665558D1*
X1159254Y1666134D1*
X1154449Y1667089D1*
X1149733Y1668419D1*
X1145137Y1670115D1*
X1140687Y1672167D1*
X1136412Y1674561D1*
X1132338Y1677283D1*
X1128490Y1680316D1*
X1124893Y1683642D1*
X1121567Y1687240D1*
X1118533Y1691088D1*
X1115353Y1695980D1*
X1113139Y1693642D1*
X1109542Y1690316D1*
X1105694Y1687283D1*
X1101620Y1684561D1*
X1097345Y1682167D1*
X1092895Y1680115D1*
X1088299Y1678419D1*
X1083583Y1677089D1*
X1078778Y1676134D1*
X1073912Y1675558D1*
X1069016Y1675365D1*
X1064120Y1675558D1*
X1059254Y1676134D1*
X1054449Y1677089D1*
X1049733Y1678419D1*
X1045137Y1680115D1*
X1040687Y1682167D1*
X1036412Y1684561D1*
X1032338Y1687283D1*
X1028490Y1690316D1*
X1024893Y1693642D1*
X1022723Y1695989D1*
X1019499Y1691088D1*
X1016465Y1687240D1*
X1013139Y1683642D1*
X1009542Y1680316D1*
X1005694Y1677283D1*
X1001620Y1674561D1*
X997345Y1672167D1*
X992895Y1670115D1*
X988299Y1668419D1*
X983583Y1667089D1*
X978778Y1666134D1*
X973912Y1665558D1*
X969016Y1665365D1*
X964120Y1665558D1*
X959254Y1666134D1*
X954449Y1667089D1*
X949733Y1668419D1*
X945137Y1670115D1*
X940687Y1672167D1*
X936412Y1674561D1*
X932338Y1677283D1*
X928490Y1680316D1*
X924893Y1683642D1*
X921567Y1687240D1*
X918533Y1691088D1*
X915353Y1695980D1*
X913139Y1693642D1*
X909542Y1690316D1*
X905694Y1687283D1*
X901620Y1684561D1*
X897345Y1682167D1*
X892895Y1680115D1*
X888299Y1678419D1*
X883583Y1677089D1*
X878778Y1676134D1*
X873912Y1675558D1*
X869016Y1675365D1*
X864120Y1675558D1*
X859254Y1676134D1*
X854449Y1677089D1*
X849733Y1678419D1*
X845137Y1680115D1*
X840687Y1682167D1*
X836412Y1684561D1*
X832338Y1687283D1*
X828490Y1690316D1*
X824893Y1693642D1*
X822723Y1695989D1*
X819499Y1691088D1*
X816465Y1687240D1*
X813139Y1683642D1*
X809542Y1680316D1*
X805694Y1677283D1*
X801620Y1674561D1*
X797345Y1672167D1*
X792895Y1670115D1*
X788299Y1668419D1*
X783583Y1667089D1*
X778778Y1666134D1*
X773912Y1665558D1*
X769016Y1665365D1*
X764120Y1665558D1*
X759254Y1666134D1*
X754449Y1667089D1*
X749733Y1668419D1*
X745137Y1670115D1*
X740687Y1672167D1*
X736412Y1674561D1*
X732338Y1677283D1*
X728490Y1680316D1*
X724893Y1683642D1*
X721567Y1687240D1*
X718533Y1691088D1*
X715353Y1695980D1*
X713139Y1693642D1*
X709542Y1690316D1*
X705694Y1687283D1*
X701620Y1684561D1*
X697345Y1682167D1*
X692895Y1680115D1*
X688299Y1678419D1*
X683583Y1677089D1*
X678778Y1676134D1*
X673912Y1675558D1*
X669016Y1675365D1*
X664120Y1675558D1*
X659254Y1676134D1*
X654449Y1677089D1*
X649733Y1678419D1*
X645137Y1680115D1*
X640687Y1682167D1*
X636412Y1684561D1*
X632338Y1687283D1*
X628490Y1690316D1*
X624893Y1693642D1*
X622723Y1695989D1*
X619499Y1691088D1*
X616465Y1687240D1*
X613139Y1683642D1*
X609542Y1680316D1*
X605694Y1677283D1*
X601620Y1674561D1*
X597345Y1672167D1*
X592895Y1670115D1*
X588299Y1668419D1*
X583583Y1667089D1*
X578778Y1666134D1*
X573912Y1665558D1*
X569016Y1665365D1*
X564120Y1665558D1*
X559254Y1666134D1*
X554449Y1667089D1*
X549733Y1668419D1*
X545137Y1670115D1*
X540687Y1672167D1*
X536412Y1674561D1*
X532338Y1677283D1*
X528490Y1680316D1*
X524893Y1683642D1*
X521567Y1687240D1*
X518533Y1691088D1*
X515811Y1695161D1*
X513417Y1699436D1*
X511366Y1703886D1*
X509670Y1708483D1*
X508340Y1713198D1*
X507384Y1718004D1*
X506808Y1722869D1*
X506616Y1727765D1*
X506808Y1732661D1*
X507384Y1737527D1*
X508340Y1742332D1*
X509670Y1747048D1*
X511366Y1751645D1*
X513417Y1756094D1*
X515811Y1760369D1*
X518533Y1764443D1*
X521567Y1768291D1*
X524893Y1771889D1*
X528490Y1775215D1*
X533850Y1779258D1*
X533848Y1789660D1*
X437578Y1789667D1*
Y1879837D1*
X598614D1*
Y1789667D1*
X591642D1*
X592895Y1785415D1*
X597345Y1783364D1*
X601620Y1780970D1*
X605694Y1778248D1*
X609542Y1775215D1*
X613139Y1771889D1*
X615309Y1769542D1*
X618533Y1774443D1*
X621567Y1778291D1*
X624893Y1781889D1*
X628490Y1785215D1*
X632338Y1788248D1*
X634455Y1789662D1*
X631838Y1789667D1*
Y1879837D1*
X634435D1*
X634432Y1958388D1*
X631308Y1958399D1*
Y2048569D1*
X777172D1*
X775582Y2050878D1*
X773523Y2054918D1*
X772122Y2059231D1*
X771412Y2063710D1*
X771323Y2076974D1*
X770281Y2081418D1*
X769896Y2086325D1*
X769869Y2101269D1*
X746274D1*
Y2144570D1*
X731319Y2144577D1*
X726422Y2144962D1*
X721645Y2146109D1*
X719295Y2146980D1*
X712482Y2146978D1*
X711603Y2141536D1*
X709790Y2135954D1*
X707125Y2130725D1*
X703676Y2125977D1*
X699526Y2121827D1*
X694778Y2118378D1*
X689549Y2115714D1*
X683967Y2113900D1*
X678171Y2112982D1*
X672302D1*
X666506Y2113900D1*
X660924Y2115714D1*
X655695Y2118378D1*
X651533Y2121366D1*
X606506Y2121367D1*
X606525Y2065811D1*
X598654D1*
X598651Y1967386D1*
X492733D1*
Y1983812D1*
X487679Y1980226D1*
X484455Y1978420D1*
X481100Y1976874D1*
X477634Y1975595D1*
X474078Y1974592D1*
X470454Y1973871D1*
X466785Y1973437D1*
X458094Y1973292D1*
X435534D1*
X431843Y1973437D1*
X428174Y1973871D1*
X424008Y1974745D1*
X424016Y570325D1*
X430800Y576038D1*
X439003Y581751D1*
X447718Y586647D1*
X456865Y590679D1*
X466358Y593811D1*
X476108Y596012D1*
X486026Y597264D1*
X496018Y597553D1*
X505991Y596878D1*
X515853Y595244D1*
X525511Y592667D1*
X534876Y589171D1*
X543860Y584788D1*
X550265Y580928D1*
X550267Y675265D1*
X702943D1*
X702957Y692455D1*
X702578D1*
Y765130D1*
X619016Y765116D1*
X614495Y765472D1*
X610085Y766530D1*
X605896Y768266D1*
X602029Y770635D1*
X598575Y773587D1*
X549599Y822688D1*
X546934Y826357D1*
X544875Y830397D1*
X543473Y834710D1*
X542764Y839189D1*
X542675Y854484D1*
X529745Y854442D1*
X524323Y852196D1*
X518616Y850826D1*
X512765Y850365D1*
X506915Y850826D1*
X501208Y852196D1*
X495786Y854442D1*
X490782Y857508D1*
X486320Y861320D1*
X482508Y865782D1*
X479442Y870786D1*
X477196Y876208D1*
X475826Y881915D1*
X475365Y887765D1*
X475826Y893616D1*
X477196Y899323D1*
X479442Y904745D1*
X482508Y909749D1*
X486320Y914211D1*
X490782Y918023D1*
X495786Y921089D1*
X501208Y923335D1*
X506915Y924705D1*
X510737Y925086D1*
X510742Y1058786D1*
X659967D1*
X770204Y1058766D1*
X786332Y1058786D1*
X786435Y1137842D1*
X787252Y1142999D1*
X788865Y1147965D1*
X791236Y1152617D1*
X794305Y1156841D1*
X803149Y1165831D1*
X841157Y1203693D1*
X845381Y1206762D1*
X850033Y1209133D1*
X854999Y1210746D1*
X860156Y1211563D1*
X872767Y1211665D1*
X949751Y1211563D1*
X954908Y1210746D1*
X959874Y1209133D1*
X964526Y1206762D1*
X968750Y1203693D1*
X977740Y1194849D1*
X997442Y1175001D1*
X1000512Y1170777D1*
X1002882Y1166125D1*
X1004495Y1161159D1*
X1005312Y1156002D1*
X1005415Y1152786D1*
X1009586Y1153362D1*
X1015454D1*
X1021251Y1152444D1*
X1026832Y1150631D1*
X1032061Y1147966D1*
X1036809Y1144517D1*
X1040959Y1140367D1*
X1044409Y1135619D1*
X1047073Y1130390D1*
X1048887Y1124809D1*
X1049544Y1121211D1*
X1055135Y1119384D1*
X1060365Y1116720D1*
X1065112Y1113270D1*
X1069262Y1109120D1*
X1072712Y1104372D1*
X1075376Y1099143D1*
X1077190Y1093562D1*
X1078108Y1087765D1*
Y1081897D1*
X1077190Y1076100D1*
X1075376Y1070519D1*
X1072712Y1065290D1*
X1069223Y1060499D1*
Y1058796D1*
X1128471Y1058766D1*
X1183589D1*
X1238707D1*
X1293826D1*
X1348944D1*
X1376503Y1058786D1*
Y929246D1*
X1349179D1*
X1349215Y904745D1*
X1351461Y899323D1*
X1352831Y893616D1*
X1353291Y887765D1*
X1352831Y881915D1*
X1352093Y878449D1*
X1355904Y875598D1*
X1360054Y871448D1*
X1363503Y866700D1*
X1366168Y861471D1*
X1367981Y855890D1*
X1368899Y850093D1*
Y844225D1*
X1367981Y838428D1*
X1366168Y832847D1*
X1364888Y830090D1*
Y791085D1*
X1445351Y791069D1*
Y787065D1*
X1500063Y787064D1*
X1502816Y790542D1*
X1506142Y794139D1*
X1509740Y797465D1*
X1513588Y800499D1*
X1517661Y803221D1*
X1521936Y805615D1*
X1526386Y807666D1*
X1530983Y809362D1*
X1535698Y810692D1*
X1540504Y811648D1*
X1545369Y812224D1*
X1550265Y812416D1*
X1555161Y812224D1*
X1560027Y811648D1*
X1565219Y810583D1*
X1565221Y864101D1*
X1567389D1*
X1567398Y920349D1*
X1636534D1*
X1635273Y925665D1*
X1634813Y931516D1*
X1635273Y937367D1*
X1636643Y943073D1*
X1638889Y948495D1*
X1641956Y953499D1*
X1645767Y957962D1*
X1650230Y961773D1*
X1655234Y964840D1*
X1660656Y967086D1*
X1666362Y968456D1*
X1672213Y968916D1*
X1678063Y968456D1*
X1683770Y967086D1*
X1689192Y964840D1*
X1694196Y961773D1*
X1698659Y957962D1*
X1702470Y953499D1*
X1705536Y948495D1*
X1707782Y943073D1*
X1709152Y937367D1*
X1709613Y931516D1*
X1709152Y925665D1*
X1707891Y920345D1*
X1728434Y920349D1*
Y830179D1*
X1659337D1*
X1659328Y773931D1*
X1607915Y773895D1*
X1609611Y769299D1*
X1610941Y764583D1*
X1611897Y759778D1*
X1612473Y754912D1*
X1612665Y750016D1*
X1612473Y745120D1*
X1611897Y740254D1*
X1610941Y735449D1*
X1609611Y730733D1*
X1607915Y726137D1*
X1605864Y721687D1*
X1603470Y717412D1*
X1600748Y713338D1*
X1597715Y709490D1*
X1594389Y705893D1*
X1590791Y702567D1*
X1586943Y699533D1*
X1582869Y696811D1*
X1578594Y694417D1*
X1574145Y692366D1*
X1569548Y690670D1*
X1564832Y689340D1*
X1560027Y688384D1*
X1555161Y687808D1*
X1550265Y687616D1*
X1545369Y687808D1*
X1540504Y688384D1*
X1535698Y689340D1*
X1530983Y690670D1*
X1525604Y692726D1*
X1510186Y677307D1*
X1510175Y626028D1*
X1493983D1*
X1493990Y609820D1*
X1510175Y609834D1*
X1510274Y558468D1*
X1520093Y548648D1*
X1526386Y551666D1*
X1530983Y553362D1*
X1535698Y554692D1*
X1540504Y555648D1*
X1545369Y556224D1*
X1550265Y556416D1*
X1555161Y556224D1*
X1560027Y555648D1*
X1564832Y554692D1*
X1569548Y553362D1*
X1574145Y551666D1*
X1578594Y549615D1*
X1582869Y547221D1*
X1586943Y544499D1*
X1590791Y541465D1*
X1594389Y538139D1*
X1597715Y534542D1*
X1600748Y530694D1*
X1603470Y526620D1*
X1605864Y522345D1*
X1607915Y517895D1*
X1609611Y513299D1*
X1610941Y508583D1*
X1611897Y503778D1*
X1612473Y498912D1*
X1612665Y494016D1*
X1612473Y489120D1*
X1611897Y484254D1*
X1610941Y479449D1*
X1609611Y474733D1*
X1607915Y470137D1*
X1605864Y465687D1*
X1603470Y461412D1*
X1600748Y457338D1*
X1597715Y453490D1*
X1594389Y449893D1*
X1590791Y446567D1*
X1586943Y443533D1*
X1582869Y440811D1*
X1578594Y438417D1*
X1574145Y436366D1*
X1569548Y434670D1*
X1564832Y433340D1*
X1560027Y432384D1*
X1555161Y431808D1*
X1550265Y431616D1*
X1545369Y431808D1*
X1540504Y432384D1*
X1535698Y433340D1*
X1530983Y434670D1*
X1526386Y436366D1*
X1521936Y438417D1*
X1517661Y440811D1*
X1513588Y443533D1*
X1509740Y446567D1*
X1507336Y448788D1*
X1420004Y448798D1*
X1420005Y609834D1*
X1436196D1*
X1436189Y626043D1*
X1420005Y626028D1*
Y630032D1*
X1355181Y630033D1*
Y692435D1*
X1311735Y692454D1*
X1311739Y636198D1*
X1217632D1*
Y636413D1*
X1155883Y636431D1*
X1155797Y692474D1*
X1121393Y692454D1*
X1121408Y636431D1*
X1031545D1*
X1031529Y609903D1*
X1054813Y609967D1*
X1060681D1*
X1075536Y609895D1*
X1094958D1*
X1095032Y575617D1*
Y569748D1*
X1094958Y559895D1*
Y424022D1*
X1115520Y424016D1*
X1112587Y426982D1*
X1109922Y430651D1*
X1107863Y434691D1*
X1106462Y439004D1*
X1105752Y443483D1*
X1105663Y460751D1*
X1105752Y577777D1*
X1106462Y582256D1*
X1107863Y586569D1*
X1109922Y590610D1*
X1112587Y594279D1*
X1124734Y606551D1*
X1134301Y615992D1*
X1137970Y618657D1*
X1142010Y620716D1*
X1146323Y622118D1*
X1150802Y622827D1*
X1168070Y622916D1*
X1190238D1*
X1190220Y629258D1*
X1311886D1*
Y595801D1*
X1345351Y595794D1*
Y513498D1*
X1331581D1*
X1331571Y460348D1*
X1308309D1*
X1307280Y457366D1*
X1305222Y453325D1*
X1302556Y449656D1*
X1295119Y442093D1*
X1294272Y437020D1*
X1292459Y431439D1*
X1289795Y426209D1*
X1288335Y424025D1*
X2917707Y424016D1*
X2913439Y428968D1*
X2907543Y437039D1*
X2902452Y445642D1*
X2898215Y454696D1*
X2894870Y464116D1*
X2892449Y473814D1*
X2890975Y483701D1*
X2890460Y493684D1*
X2890911Y503670D1*
X2892322Y513566D1*
X2894680Y523280D1*
X2897965Y532721D1*
X2902144Y541801D1*
X2907179Y550437D1*
X2913024Y558546D1*
X2919623Y566055D1*
X2926915Y572892D1*
X2934832Y578994D1*
X2943301Y584304D1*
X2952243Y588773D1*
X2961573Y592359D1*
X2971206Y595029D1*
X2981052Y596758D1*
X2991018Y597529D1*
X3001012Y597336D1*
X3010942Y596180D1*
X3020713Y594072D1*
X3030235Y591032D1*
X3039421Y587088D1*
X3048183Y582276D1*
X3056440Y576643D1*
X3064013Y570329D1*
X3064016Y2717707D1*
X3056969Y2711791D1*
X3048748Y2706105D1*
X3040017Y2701237D1*
X3030857Y2697234D1*
X3021354Y2694133D1*
X3011596Y2691963D1*
X3001675Y2690743D1*
X2991682Y2690486D1*
X2981711Y2691193D1*
X2971855Y2692859D1*
X2962205Y2695467D1*
X2952851Y2698993D1*
X2943881Y2703404D1*
X2935379Y2708660D1*
X2927422Y2714712D1*
X2920086Y2721502D1*
X2914538Y2727672D1*
X2914529Y2720331D1*
X2967544Y2667303D1*
X2970935Y2663333D1*
X2973663Y2658881D1*
X2975661Y2654057D1*
X2976880Y2648980D1*
X2977290Y2643764D1*
Y2631450D1*
X2979689Y2629533D1*
X2982856Y2626605D1*
X2985783Y2623438D1*
X2988453Y2620051D1*
X2990849Y2616465D1*
X2992957Y2612702D1*
X2994762Y2608785D1*
X2996255Y2604739D1*
X2997426Y2600588D1*
X2998267Y2596358D1*
X2998774Y2592075D1*
X2998944Y2587765D1*
X2998774Y2583456D1*
X2998267Y2579173D1*
X2997426Y2574943D1*
X2996255Y2570792D1*
X2994762Y2566745D1*
X2992957Y2562829D1*
X2990849Y2559066D1*
X2988453Y2555480D1*
X2985783Y2552093D1*
X2982856Y2548926D1*
X2979689Y2545998D1*
X2976302Y2543328D1*
X2972716Y2540932D1*
X2968953Y2538825D1*
X2965036Y2537019D1*
X2960990Y2535526D1*
X2956839Y2534355D1*
X2952609Y2533514D1*
X2948326Y2533007D1*
X2944016Y2532838D1*
X2939706Y2533007D1*
X2935423Y2533514D1*
X2931193Y2534355D1*
X2927042Y2535526D1*
X2922996Y2537019D1*
X2919079Y2538825D1*
X2915316Y2540932D1*
X2911730Y2543328D1*
X2908343Y2545998D1*
X2905176Y2548926D1*
X2902249Y2552093D1*
X2899579Y2555480D1*
X2897183Y2559066D1*
X2894038Y2565078D1*
X2890849Y2559066D1*
X2888453Y2555480D1*
X2885783Y2552093D1*
X2882856Y2548926D1*
X2879689Y2545998D1*
X2876302Y2543328D1*
X2872716Y2540932D1*
X2866704Y2537788D1*
X2872716Y2534599D1*
X2876302Y2532203D1*
X2879689Y2529533D1*
X2882856Y2526605D1*
X2885783Y2523438D1*
X2888453Y2520051D1*
X2890849Y2516465D1*
X2892957Y2512702D1*
X2894762Y2508785D1*
X2896255Y2504739D1*
X2897426Y2500588D1*
X2898267Y2496358D1*
X2898774Y2492075D1*
X2898944Y2487765D1*
X2898774Y2483456D1*
X2898267Y2479173D1*
X2897426Y2474943D1*
X2896255Y2470792D1*
X2894762Y2466745D1*
X2892957Y2462829D1*
X2890849Y2459066D1*
X2888453Y2455480D1*
X2885783Y2452093D1*
X2882856Y2448926D1*
X2879689Y2445998D1*
X2876302Y2443328D1*
X2872716Y2440932D1*
X2866704Y2437788D1*
X2872716Y2434599D1*
X2876302Y2432203D1*
X2879689Y2429533D1*
X2882856Y2426605D1*
X2885783Y2423438D1*
X2888453Y2420051D1*
X2890849Y2416465D1*
X2893994Y2410453D1*
X2897183Y2416465D1*
X2899579Y2420051D1*
X2902249Y2423438D1*
X2905176Y2426605D1*
X2908343Y2429533D1*
X2911730Y2432203D1*
X2915316Y2434599D1*
X2919079Y2436706D1*
X2922996Y2438512D1*
X2927042Y2440005D1*
X2931193Y2441175D1*
X2935423Y2442017D1*
X2939706Y2442524D1*
X2944016Y2442693D1*
X2948326Y2442524D1*
X2952609Y2442017D1*
X2956839Y2441175D1*
X2960990Y2440005D1*
X2965036Y2438512D1*
X2968953Y2436706D1*
X2972716Y2434599D1*
X2976302Y2432203D1*
X2979689Y2429533D1*
X2982856Y2426605D1*
X2985783Y2423438D1*
X2988453Y2420051D1*
X2990849Y2416465D1*
X2992957Y2412702D1*
X2994762Y2408785D1*
X2996255Y2404739D1*
X2997426Y2400588D1*
X2998267Y2396358D1*
X2998774Y2392075D1*
X2998944Y2387765D1*
X2998774Y2383456D1*
X2998267Y2379173D1*
X2997426Y2374943D1*
X2996255Y2370792D1*
X2994762Y2366745D1*
X2992957Y2362829D1*
X2990849Y2359066D1*
X2988453Y2355480D1*
X2985783Y2352093D1*
X2982856Y2348926D1*
X2979689Y2345998D1*
X2976302Y2343328D1*
X2972716Y2340932D1*
X2966704Y2337788D1*
X2972716Y2334599D1*
X2976302Y2332203D1*
X2979689Y2329533D1*
X2982856Y2326605D1*
X2985783Y2323438D1*
X2988453Y2320051D1*
X2990849Y2316465D1*
X2992957Y2312702D1*
X2994762Y2308785D1*
X2996255Y2304739D1*
X2997426Y2300588D1*
X2998267Y2296358D1*
X2998774Y2292075D1*
X2998944Y2287765D1*
X2998774Y2283456D1*
X2998267Y2279173D1*
X2997426Y2274943D1*
X2996255Y2270792D1*
X2994762Y2266745D1*
X2992957Y2262829D1*
X2990849Y2259066D1*
X2988453Y2255480D1*
X2985783Y2252093D1*
X2982856Y2248926D1*
X2979689Y2245998D1*
X2976302Y2243328D1*
X2972716Y2240932D1*
X2966704Y2237788D1*
X2972716Y2234599D1*
X2976302Y2232203D1*
X2979689Y2229533D1*
X2982856Y2226605D1*
X2985783Y2223438D1*
X2988453Y2220051D1*
X2990849Y2216465D1*
X2992957Y2212702D1*
X2994762Y2208785D1*
X2996255Y2204739D1*
X2997426Y2200588D1*
X2998267Y2196358D1*
X2998774Y2192075D1*
X2998944Y2187765D1*
X2998774Y2183456D1*
X2998267Y2179173D1*
X2997426Y2174943D1*
X2996255Y2170792D1*
X2994762Y2166745D1*
X2992957Y2162829D1*
X2990849Y2159066D1*
X2988453Y2155480D1*
X2985783Y2152093D1*
X2982856Y2148926D1*
X2979689Y2145998D1*
X2976302Y2143328D1*
X2972716Y2140932D1*
X2966704Y2137788D1*
X2972716Y2134599D1*
X2976302Y2132203D1*
X2979689Y2129533D1*
X2982856Y2126605D1*
X2985783Y2123438D1*
X2988453Y2120051D1*
X2990849Y2116465D1*
X2992957Y2112702D1*
X2994762Y2108785D1*
X2996255Y2104739D1*
X2997426Y2100588D1*
X2998267Y2096358D1*
X2998774Y2092075D1*
X2998944Y2087765D1*
X2998774Y2083456D1*
X2998267Y2079173D1*
X2997426Y2074943D1*
X2996255Y2070792D1*
X2994762Y2066745D1*
X2992957Y2062829D1*
X2990849Y2059066D1*
X2988453Y2055480D1*
X2985783Y2052093D1*
X2982856Y2048926D1*
X2979689Y2045998D1*
X2976302Y2043328D1*
X2972716Y2040932D1*
X2966704Y2037788D1*
X2972716Y2034599D1*
X2976302Y2032203D1*
X2979689Y2029533D1*
X2982856Y2026605D1*
X2985783Y2023438D1*
X2988453Y2020051D1*
X2990849Y2016465D1*
X2992957Y2012702D1*
X2994762Y2008785D1*
X2996255Y2004739D1*
X2997426Y2000588D1*
X2998267Y1996358D1*
X2998774Y1992075D1*
X2998944Y1987765D1*
X2998774Y1983456D1*
X2998267Y1979173D1*
X2997426Y1974943D1*
X2996255Y1970792D1*
X2994762Y1966745D1*
X2992957Y1962829D1*
X2990849Y1959066D1*
X2988453Y1955480D1*
X2985783Y1952093D1*
X2982856Y1948926D1*
X2979689Y1945998D1*
X2976302Y1943328D1*
X2972716Y1940932D1*
X2966704Y1937788D1*
X2972716Y1934599D1*
X2976302Y1932203D1*
X2979689Y1929533D1*
X2982856Y1926605D1*
X2985783Y1923438D1*
X2988453Y1920051D1*
X2990849Y1916465D1*
X2992957Y1912702D1*
X2994762Y1908785D1*
X2996255Y1904739D1*
X2997426Y1900588D1*
X2998267Y1896358D1*
X2998774Y1892075D1*
X2998944Y1887765D1*
X2998774Y1883456D1*
X2998267Y1879173D1*
X2997426Y1874943D1*
X2996255Y1870792D1*
X2994762Y1866745D1*
X2992957Y1862829D1*
X2990849Y1859066D1*
X2988453Y1855480D1*
X2985783Y1852093D1*
X2982856Y1848926D1*
X2979689Y1845998D1*
X2976302Y1843328D1*
X2972716Y1840932D1*
X2966704Y1837788D1*
X2972716Y1834599D1*
X2976302Y1832203D1*
X2979689Y1829533D1*
X2982856Y1826605D1*
X2985783Y1823438D1*
X2988453Y1820051D1*
X2990849Y1816465D1*
X2992957Y1812702D1*
X2994762Y1808785D1*
X2996255Y1804739D1*
X2997426Y1800588D1*
X2998267Y1796358D1*
X2998774Y1792075D1*
X2998944Y1787765D1*
X2998774Y1783456D1*
X2998267Y1779173D1*
X2997426Y1774943D1*
X2996255Y1770792D1*
X2994762Y1766745D1*
X2992957Y1762829D1*
X2990849Y1759066D1*
X2988453Y1755480D1*
X2985783Y1752093D1*
X2982856Y1748926D1*
X2979689Y1745998D1*
X2976302Y1743328D1*
X2972716Y1740932D1*
X2966704Y1737788D1*
X2972716Y1734599D1*
X2976302Y1732203D1*
X2979689Y1729533D1*
X2982856Y1726605D1*
X2985783Y1723438D1*
X2988453Y1720051D1*
X2990849Y1716465D1*
X2992957Y1712702D1*
X2994762Y1708785D1*
X2996255Y1704739D1*
X2997426Y1700588D1*
X2998267Y1696358D1*
X2998774Y1692075D1*
X2998944Y1687765D1*
X2998774Y1683456D1*
X2998267Y1679173D1*
X2997426Y1674943D1*
X2996255Y1670792D1*
X2994762Y1666745D1*
X2992957Y1662829D1*
X2990849Y1659066D1*
X2988453Y1655480D1*
X2985783Y1652093D1*
X2982856Y1648926D1*
X2979689Y1645998D1*
X2976302Y1643328D1*
X2972716Y1640932D1*
X2966704Y1637788D1*
X2972716Y1634599D1*
X2976302Y1632203D1*
X2979689Y1629533D1*
X2982856Y1626605D1*
X2985783Y1623438D1*
X2988453Y1620051D1*
X2990849Y1616465D1*
X2992957Y1612702D1*
X2994762Y1608785D1*
X2996255Y1604739D1*
X2997426Y1600588D1*
X2998267Y1596358D1*
X2998774Y1592075D1*
X2998944Y1587765D1*
X2998774Y1583456D1*
X2998267Y1579173D1*
X2997426Y1574943D1*
X2996255Y1570792D1*
X2994762Y1566745D1*
X2992957Y1562829D1*
X2990849Y1559066D1*
X2988453Y1555480D1*
X2985783Y1552093D1*
X2982856Y1548926D1*
X2979689Y1545998D1*
X2976302Y1543328D1*
X2972716Y1540932D1*
X2966704Y1537788D1*
X2972716Y1534599D1*
X2976302Y1532203D1*
X2979689Y1529533D1*
X2982856Y1526605D1*
X2985783Y1523438D1*
X2988453Y1520051D1*
X2990849Y1516465D1*
X2992957Y1512702D1*
X2994762Y1508785D1*
X2996255Y1504739D1*
X2997426Y1500588D1*
X2998267Y1496358D1*
X2998774Y1492075D1*
X2998944Y1487765D1*
X2998774Y1483456D1*
X2998267Y1479173D1*
X2997426Y1474943D1*
X2996255Y1470792D1*
X2994762Y1466745D1*
X2992957Y1462829D1*
X2990849Y1459066D1*
X2988453Y1455480D1*
X2985783Y1452093D1*
X2982856Y1448926D1*
X2979689Y1445998D1*
X2976302Y1443328D1*
X2972716Y1440932D1*
X2966704Y1437788D1*
X2972716Y1434599D1*
X2976302Y1432203D1*
X2979689Y1429533D1*
X2982856Y1426605D1*
X2985783Y1423438D1*
X2988453Y1420051D1*
X2990849Y1416465D1*
X2992957Y1412702D1*
X2994762Y1408785D1*
X2996255Y1404739D1*
X2997426Y1400588D1*
X2998267Y1396358D1*
X2998774Y1392075D1*
X2998944Y1387765D1*
X2998774Y1383456D1*
X2998267Y1379173D1*
X2997426Y1374943D1*
X2996255Y1370792D1*
X2994762Y1366745D1*
X2992957Y1362829D1*
X2990849Y1359066D1*
X2988453Y1355480D1*
X2985783Y1352093D1*
X2982856Y1348926D1*
X2979689Y1345998D1*
X2976302Y1343328D1*
X2972716Y1340932D1*
X2966704Y1337788D1*
X2972716Y1334599D1*
X2976302Y1332203D1*
X2979689Y1329533D1*
X2982856Y1326605D1*
X2985783Y1323438D1*
X2988453Y1320051D1*
X2990849Y1316465D1*
X2992957Y1312702D1*
X2994762Y1308785D1*
X2996255Y1304739D1*
X2997426Y1300588D1*
X2998267Y1296358D1*
X2998774Y1292075D1*
X2998944Y1287765D1*
X2998774Y1283456D1*
X2998267Y1279173D1*
X2997426Y1274943D1*
X2996255Y1270792D1*
X2994762Y1266745D1*
X2992957Y1262829D1*
X2990849Y1259066D1*
X2988453Y1255480D1*
X2985783Y1252093D1*
X2982856Y1248926D1*
X2979689Y1245998D1*
X2976302Y1243328D1*
X2972716Y1240932D1*
X2966704Y1237788D1*
X2972716Y1234599D1*
X2976302Y1232203D1*
X2979689Y1229533D1*
X2982856Y1226605D1*
X2985783Y1223438D1*
X2988453Y1220051D1*
X2990849Y1216465D1*
X2992957Y1212702D1*
X2994762Y1208785D1*
X2996255Y1204739D1*
X2997426Y1200588D1*
X2998267Y1196358D1*
X2998774Y1192075D1*
X2998944Y1187765D1*
X2998774Y1183456D1*
X2998267Y1179173D1*
X2997426Y1174943D1*
X2996255Y1170792D1*
X2994762Y1166745D1*
X2992957Y1162829D1*
X2990849Y1159066D1*
X2988453Y1155480D1*
X2985783Y1152093D1*
X2982856Y1148926D1*
X2979689Y1145998D1*
X2976302Y1143328D1*
X2972716Y1140932D1*
X2966704Y1137788D1*
X2972716Y1134599D1*
X2976302Y1132203D1*
X2979689Y1129533D1*
X2982856Y1126605D1*
X2985783Y1123438D1*
X2988453Y1120051D1*
X2990849Y1116465D1*
X2992957Y1112702D1*
X2994762Y1108785D1*
X2996255Y1104739D1*
X2997426Y1100588D1*
X2998267Y1096358D1*
X2998774Y1092075D1*
X2998944Y1087765D1*
X2998774Y1083456D1*
X2998267Y1079173D1*
X2997426Y1074943D1*
X2996255Y1070792D1*
X2994762Y1066745D1*
X2992957Y1062829D1*
X2990849Y1059066D1*
X2988453Y1055480D1*
X2985783Y1052093D1*
X2982856Y1048926D1*
X2979689Y1045998D1*
X2976302Y1043328D1*
X2972716Y1040932D1*
X2966704Y1037788D1*
X2972716Y1034599D1*
X2976302Y1032203D1*
X2979689Y1029533D1*
X2982856Y1026605D1*
X2985783Y1023438D1*
X2988453Y1020051D1*
X2990849Y1016465D1*
X2992957Y1012702D1*
X2994762Y1008785D1*
X2996255Y1004739D1*
X2997426Y1000588D1*
X2998267Y996358D1*
X2998774Y992075D1*
X2998944Y987765D1*
X2998774Y983456D1*
X2998267Y979173D1*
X2997426Y974943D1*
X2996255Y970792D1*
X2994762Y966745D1*
X2992957Y962829D1*
X2990849Y959066D1*
X2988453Y955480D1*
X2985783Y952093D1*
X2982856Y948926D1*
X2979689Y945998D1*
X2976302Y943328D1*
X2972716Y940932D1*
X2966704Y937788D1*
X2972716Y934599D1*
X2976302Y932203D1*
X2979689Y929533D1*
X2982856Y926605D1*
X2985783Y923438D1*
X2988453Y920051D1*
X2990849Y916465D1*
X2992957Y912702D1*
X2994762Y908785D1*
X2996255Y904739D1*
X2997426Y900588D1*
X2998267Y896358D1*
X2998774Y892075D1*
X2998944Y887765D1*
X2998774Y883456D1*
X2998267Y879173D1*
X2997426Y874943D1*
X2996255Y870792D1*
X2994762Y866745D1*
X2992957Y862829D1*
X2990849Y859066D1*
X2988453Y855480D1*
X2985783Y852093D1*
X2982856Y848926D1*
X2979689Y845998D1*
X2976302Y843328D1*
X2972716Y840932D1*
X2966704Y837788D1*
X2972716Y834599D1*
X2976302Y832203D1*
X2979689Y829533D1*
X2982856Y826605D1*
X2985783Y823438D1*
X2988453Y820051D1*
X2990849Y816465D1*
X2992957Y812702D1*
X2994762Y808785D1*
X2996255Y804739D1*
X2997426Y800588D1*
X2998267Y796358D1*
X2998774Y792075D1*
X2998944Y787765D1*
X2998774Y783456D1*
X2998267Y779173D1*
X2997426Y774943D1*
X2996255Y770792D1*
X2994762Y766745D1*
X2992957Y762829D1*
X2990849Y759066D1*
X2988453Y755480D1*
X2985783Y752093D1*
X2982856Y748926D1*
X2979689Y745998D1*
X2975363Y742701D1*
X2998944Y742693D1*
Y632838D1*
X2789089D1*
Y742693D1*
X2812624D1*
X2808343Y745998D1*
X2805176Y748926D1*
X2802249Y752093D1*
X2799579Y755480D1*
X2797183Y759066D1*
X2795075Y762829D1*
X2793270Y766745D1*
X2791777Y770792D1*
X2790606Y774943D1*
X2789765Y779173D1*
X2789258Y783456D1*
X2789088Y787765D1*
X2789258Y792075D1*
X2789765Y796358D1*
X2790606Y800588D1*
X2791777Y804739D1*
X2793270Y808785D1*
X2795075Y812702D1*
X2797183Y816465D1*
X2799579Y820051D1*
X2802249Y823438D1*
X2805176Y826605D1*
X2808343Y829533D1*
X2811730Y832203D1*
X2815316Y834599D1*
X2821328Y837743D1*
X2815316Y840932D1*
X2811730Y843328D1*
X2808343Y845998D1*
X2805176Y848926D1*
X2802249Y852093D1*
X2799579Y855480D1*
X2797183Y859066D1*
X2795075Y862829D1*
X2793270Y866745D1*
X2791777Y870792D1*
X2790606Y874943D1*
X2789765Y879173D1*
X2789258Y883456D1*
X2789088Y887765D1*
X2789258Y892075D1*
X2789765Y896358D1*
X2790606Y900588D1*
X2791777Y904739D1*
X2793270Y908785D1*
X2795075Y912702D1*
X2797183Y916465D1*
X2799579Y920051D1*
X2802249Y923438D1*
X2805176Y926605D1*
X2808343Y929533D1*
X2811730Y932203D1*
X2815316Y934599D1*
X2821328Y937743D1*
X2815316Y940932D1*
X2811730Y943328D1*
X2808343Y945998D1*
X2805176Y948926D1*
X2802249Y952093D1*
X2799579Y955480D1*
X2797183Y959066D1*
X2795075Y962829D1*
X2793270Y966745D1*
X2791777Y970792D1*
X2790606Y974943D1*
X2789765Y979173D1*
X2789258Y983456D1*
X2789088Y987765D1*
X2789258Y992075D1*
X2789765Y996358D1*
X2790606Y1000588D1*
X2791777Y1004739D1*
X2793270Y1008785D1*
X2795075Y1012702D1*
X2797183Y1016465D1*
X2799579Y1020051D1*
X2802249Y1023438D1*
X2805176Y1026605D1*
X2808343Y1029533D1*
X2811730Y1032203D1*
X2815316Y1034599D1*
X2821328Y1037743D1*
X2815316Y1040932D1*
X2811730Y1043328D1*
X2808343Y1045998D1*
X2805176Y1048926D1*
X2802249Y1052093D1*
X2799579Y1055480D1*
X2797183Y1059066D1*
X2795075Y1062829D1*
X2793270Y1066745D1*
X2791777Y1070792D1*
X2790606Y1074943D1*
X2789765Y1079173D1*
X2789258Y1083456D1*
X2789088Y1087765D1*
X2789258Y1092075D1*
X2789765Y1096358D1*
X2790606Y1100588D1*
X2791777Y1104739D1*
X2793270Y1108785D1*
X2795075Y1112702D1*
X2797183Y1116465D1*
X2799579Y1120051D1*
X2802249Y1123438D1*
X2805176Y1126605D1*
X2808343Y1129533D1*
X2811730Y1132203D1*
X2815316Y1134599D1*
X2821328Y1137743D1*
X2815316Y1140932D1*
X2811730Y1143328D1*
X2808343Y1145998D1*
X2805176Y1148926D1*
X2802249Y1152093D1*
X2799579Y1155480D1*
X2797183Y1159066D1*
X2795075Y1162829D1*
X2793270Y1166745D1*
X2791777Y1170792D1*
X2790606Y1174943D1*
X2789765Y1179173D1*
X2789258Y1183456D1*
X2789088Y1187765D1*
X2789258Y1192075D1*
X2789765Y1196358D1*
X2790606Y1200588D1*
X2791777Y1204739D1*
X2793270Y1208785D1*
X2795075Y1212702D1*
X2797183Y1216465D1*
X2799579Y1220051D1*
X2802249Y1223438D1*
X2805176Y1226605D1*
X2808343Y1229533D1*
X2811730Y1232203D1*
X2815316Y1234599D1*
X2821328Y1237743D1*
X2815316Y1240932D1*
X2811730Y1243328D1*
X2808343Y1245998D1*
X2805176Y1248926D1*
X2802249Y1252093D1*
X2799579Y1255480D1*
X2797183Y1259066D1*
X2795075Y1262829D1*
X2793270Y1266745D1*
X2791777Y1270792D1*
X2790606Y1274943D1*
X2789765Y1279173D1*
X2789258Y1283456D1*
X2789088Y1287765D1*
X2789258Y1292075D1*
X2789765Y1296358D1*
X2790606Y1300588D1*
X2791777Y1304739D1*
X2793270Y1308785D1*
X2795075Y1312702D1*
X2796433Y1315127D1*
X2708098Y1315116D1*
X2708089Y1298880D1*
X2617919D1*
Y1381438D1*
X2614949Y1380322D1*
X2609242Y1378952D1*
X2603632Y1378501D1*
X2599532Y1377184D1*
X2595052Y1376474D1*
X2577785Y1376385D1*
X2479445D1*
X2481516Y1375165D1*
X2487367Y1374705D1*
X2493073Y1373335D1*
X2498495Y1371089D1*
X2503499Y1368023D1*
X2507962Y1364211D1*
X2511773Y1359749D1*
X2514840Y1354745D1*
X2517086Y1349323D1*
X2518221Y1344797D1*
X2526578Y1347318D1*
X2532159Y1349132D1*
X2537956Y1350050D1*
X2543824D1*
X2549621Y1349132D1*
X2555202Y1347318D1*
X2560431Y1344654D1*
X2565179Y1341205D1*
X2569329Y1337055D1*
X2572779Y1332307D1*
X2575443Y1327078D1*
X2577257Y1321496D1*
X2578175Y1315700D1*
Y1309831D1*
X2577257Y1304034D1*
X2575443Y1298453D1*
X2572779Y1293224D1*
X2569329Y1288476D1*
X2565179Y1284326D1*
X2560431Y1280877D1*
X2555202Y1278212D1*
X2549621Y1276399D1*
X2545955Y1275733D1*
X2544194Y1270328D1*
X2541529Y1265099D1*
X2538080Y1260351D1*
X2535876Y1258000D1*
X2576600Y1257996D1*
Y1163889D1*
X2486430D1*
Y1184143D1*
X2482945Y1185638D1*
X2480993Y1186732D1*
X2479455Y1185055D1*
Y1157444D1*
X2469553D1*
X2469550Y1141460D1*
X2513883Y1141445D1*
Y1047338D1*
X2457653D1*
X2457639Y980222D1*
X2451800D1*
X2469546Y962481D1*
X2474622Y961633D1*
X2480203Y959819D1*
X2485432Y957155D1*
X2490180Y953705D1*
X2494330Y949555D1*
X2497779Y944807D1*
X2500444Y939578D1*
X2501800Y935620D1*
X2517936Y935536D1*
X2522415Y934826D1*
X2526728Y933425D1*
X2530769Y931366D1*
X2534437Y928701D1*
X2546710Y916553D1*
X2548796Y914468D1*
X2548784Y932849D1*
X2709820D1*
Y842679D1*
X2653082D1*
X2653078Y786431D1*
X2607199D1*
X2609721Y782620D1*
X2612115Y778345D1*
X2614166Y773895D1*
X2615862Y769299D1*
X2617192Y764583D1*
X2618148Y759778D1*
X2618724Y754912D1*
X2618916Y750016D1*
X2618724Y745120D1*
X2618148Y740254D1*
X2617192Y735449D1*
X2615862Y730733D1*
X2614166Y726137D1*
X2612115Y721687D1*
X2609721Y717412D1*
X2606999Y713338D1*
X2603965Y709490D1*
X2600639Y705893D1*
X2597042Y702567D1*
X2593194Y699533D1*
X2589120Y696811D1*
X2584845Y694417D1*
X2580395Y692366D1*
X2575799Y690670D1*
X2571083Y689340D1*
X2566278Y688384D1*
X2561412Y687808D1*
X2556516Y687616D1*
X2551620Y687808D1*
X2546435Y688448D1*
X2520562Y662576D1*
X2520669Y564719D1*
X2533416Y551971D1*
X2537233Y553362D1*
X2541949Y554692D1*
X2546754Y555648D1*
X2551620Y556224D1*
X2556516Y556416D1*
X2561412Y556224D1*
X2566278Y555648D1*
X2571083Y554692D1*
X2575799Y553362D1*
X2580395Y551666D1*
X2584845Y549615D1*
X2589120Y547221D1*
X2593194Y544499D1*
X2597042Y541465D1*
X2600639Y538139D1*
X2603965Y534542D1*
X2606999Y530694D1*
X2609721Y526620D1*
X2612115Y522345D1*
X2614166Y517895D1*
X2615862Y513299D1*
X2617192Y508583D1*
X2618148Y503778D1*
X2618724Y498912D1*
X2618916Y494016D1*
X2618724Y489120D1*
X2618148Y484254D1*
X2617192Y479449D1*
X2615862Y474733D1*
X2614166Y470137D1*
X2612115Y465687D1*
X2609721Y461412D1*
X2606999Y457338D1*
X2603965Y453490D1*
X2600639Y449893D1*
X2597042Y446567D1*
X2593194Y443533D1*
X2589120Y440811D1*
X2584845Y438417D1*
X2580395Y436366D1*
X2575799Y434670D1*
X2571083Y433340D1*
X2566278Y432384D1*
X2561412Y431808D1*
X2556516Y431616D1*
X2551620Y431808D1*
X2546754Y432384D1*
X2541949Y433340D1*
X2537233Y434670D1*
X2532637Y436366D1*
X2528187Y438417D1*
X2523912Y440811D1*
X2519838Y443533D1*
X2515990Y446567D1*
X2512393Y449893D1*
X2507846Y455039D1*
X2430400Y455049D1*
Y772352D1*
X2498232D1*
X2500917Y778345D1*
X2503311Y782620D1*
X2506033Y786694D1*
X2509067Y790542D1*
X2512393Y794139D1*
X2515990Y797465D1*
X2519838Y800499D1*
X2523912Y803221D1*
X2528187Y805615D1*
X2532637Y807666D1*
X2537233Y809362D1*
X2541949Y810692D1*
X2546754Y811648D1*
X2551620Y812224D1*
X2556516Y812416D1*
X2558983Y812319D1*
X2558970Y819419D1*
X2555348Y818036D1*
X2549641Y816666D1*
X2543790Y816205D1*
X2537940Y816666D1*
X2532233Y818036D1*
X2526811Y820282D1*
X2521807Y823348D1*
X2517344Y827159D1*
X2513533Y831622D1*
X2510467Y836626D1*
X2508399Y841564D1*
X2503170Y841203D1*
X2497319Y841663D1*
X2491612Y843033D1*
X2486190Y845279D1*
X2483878Y846574D1*
X2397788Y846667D1*
X2393309Y847376D1*
X2388996Y848778D1*
X2386927Y849732D1*
X2386857Y830179D1*
X2341681D1*
X2341667Y794575D1*
X2343377Y790447D1*
X2344436Y786037D1*
X2344791Y781507D1*
Y742746D1*
X2347780Y738557D1*
X2350444Y733328D1*
X2352258Y727747D1*
X2353176Y721950D1*
Y716082D1*
X2352258Y710285D1*
X2350444Y704704D1*
X2347780Y699475D1*
X2344331Y694727D1*
X2340181Y690577D1*
X2335433Y687127D1*
X2330204Y684463D1*
X2324622Y682649D1*
X2318826Y681731D1*
X2312957D1*
X2307160Y682649D1*
X2301579Y684463D1*
X2296350Y687127D1*
X2291602Y690577D1*
X2287452Y694727D1*
X2284003Y699475D1*
X2281338Y704704D1*
X2279525Y710285D1*
X2278607Y716082D1*
Y721950D1*
X2279525Y727747D1*
X2280751Y731820D1*
X2282568Y735995D1*
X2285634Y740999D1*
X2286991Y742720D1*
Y771575D1*
X2286063Y773589D1*
X2278747Y773931D1*
X2280445Y769299D1*
X2281775Y764583D1*
X2282730Y759778D1*
X2283306Y754912D1*
X2283499Y750016D1*
X2283306Y745120D1*
X2282730Y740254D1*
X2281775Y735449D1*
X2280001Y729530D1*
X2278749Y726137D1*
X2276697Y721687D1*
X2274303Y717412D1*
X2271581Y713338D1*
X2268548Y709490D1*
X2265222Y705893D1*
X2261624Y702567D1*
X2257776Y699533D1*
X2253703Y696811D1*
X2249428Y694417D1*
X2244978Y692366D1*
X2240381Y690670D1*
X2235666Y689340D1*
X2230860Y688384D1*
X2225995Y687808D1*
X2221099Y687616D1*
X2216337Y687803D1*
X2187079Y658549D1*
X2615768Y1257850D2*
X2704876D1*
Y1167680D1*
X2610768D1*
Y1257850D1*
X2615768D1*
X2615770Y1164103D2*
X2704877D1*
Y1073933D1*
X2610770D1*
Y1164103D1*
X2615770D1*
X2609519Y1070358D2*
X2698626D1*
Y980188D1*
X2604519D1*
Y1070358D1*
X2609519D1*
X973746Y636431D2*
X950191D1*
X950210Y554621D1*
X954245Y551121D1*
X958057Y546658D1*
X961123Y541654D1*
X963369Y536232D1*
X964739Y530525D1*
X965199Y524675D1*
X964739Y518824D1*
X963369Y513118D1*
X961123Y507696D1*
X958057Y502692D1*
X954245Y498229D1*
X950206Y494751D1*
X950210Y424035D1*
X1020520Y424016D1*
X1020536Y455928D1*
X1005563Y455870D1*
X999694D1*
X989840Y455945D1*
X965418D1*
X965344Y490221D1*
Y496089D1*
X965418Y505945D1*
X965344Y529985D1*
Y535853D1*
X965418Y545709D1*
Y609895D1*
X973719D1*
X973729Y636414D1*
X2006122Y2040602D2*
X2030633D1*
X2032568Y2045092D1*
X2035634Y2050096D1*
X2039446Y2054559D1*
X2043908Y2058370D1*
X2048912Y2061437D1*
X2054334Y2063683D1*
X2060041Y2065053D1*
X2065891Y2065513D1*
X2071742Y2065053D1*
X2077449Y2063683D1*
X2082871Y2061437D1*
X2087874Y2058370D1*
X2092337Y2054559D1*
X2096149Y2050096D1*
X2099215Y2045092D1*
X2101115Y2040607D1*
X2130662Y2040602D1*
Y1982301D1*
X2138841Y1982291D1*
X2143039Y1985280D1*
X2148268Y1987944D1*
X2153849Y1989758D1*
X2159646Y1990676D1*
X2165515D1*
X2171311Y1989758D1*
X2176893Y1987944D1*
X2182122Y1985280D1*
X2186870Y1981831D1*
X2191019Y1977681D1*
X2194469Y1972933D1*
X2197133Y1967704D1*
X2198947Y1962122D1*
X2199865Y1956326D1*
Y1950457D1*
X2198947Y1944660D1*
X2197133Y1939079D1*
X2194469Y1933850D1*
X2191019Y1929102D1*
X2186870Y1924952D1*
X2182122Y1921503D1*
X2176893Y1918838D1*
X2171311Y1917025D1*
X2165515Y1916107D1*
X2159646D1*
X2153849Y1917025D1*
X2148268Y1918838D1*
X2143039Y1921503D1*
X2138877Y1924491D1*
X2130647D1*
X2130662Y1916180D1*
X2001122D1*
Y2040602D1*
X2006122D1*
Y1890602D2*
X2062957Y1890676D1*
X2068826D1*
X2076122Y1890602D1*
X2130662D1*
Y1816180D1*
X2068826Y1816107D1*
X2062957D1*
X2055662Y1816180D1*
X2001122D1*
Y1890602D1*
X2006122D1*
X2069452Y1816181D2*
X2065891Y1815991D1*
X2062330Y1816181D1*
Y1890602D2*
X2065891Y1890791D1*
X2069452Y1890602D1*
X1295103Y442076D2*
X1294272Y437020D1*
X1292459Y431439D1*
X1289795Y426209D1*
X1288335Y424025D1*
X1291229Y428772D1*
X1293475Y434194D1*
X1294845Y439900D1*
X1295103Y442076D1*
X1349165Y904835D2*
X1350444Y902078D1*
X1352258Y896496D1*
X1353176Y890700D1*
Y884831D1*
X1352258Y879034D1*
X1352093Y878449D1*
X1355904Y875598D1*
X1360054Y871448D1*
X1363503Y866700D1*
X1366168Y861471D1*
X1367981Y855890D1*
X1368899Y850093D1*
Y844225D1*
X1367981Y838428D1*
X1366168Y832847D1*
X1364888Y830090D1*
X2138877Y1982292D2*
X2143039Y1985280D1*
X2148268Y1987944D1*
X2153849Y1989758D1*
X2159646Y1990676D1*
X2165515D1*
X2171311Y1989758D1*
X2176893Y1987944D1*
X2182122Y1985280D1*
X2186870Y1981831D1*
X2191019Y1977681D1*
X2194469Y1972933D1*
X2197133Y1967704D1*
X2198947Y1962122D1*
X2199865Y1956326D1*
Y1950457D1*
X2198947Y1944660D1*
X2197133Y1939079D1*
X2194469Y1933850D1*
X2191019Y1929102D1*
X2186870Y1924952D1*
X2182122Y1921503D1*
X2176893Y1918838D1*
X2171311Y1917025D1*
X2165515Y1916107D1*
X2159646D1*
X2153849Y1917025D1*
X2148268Y1918838D1*
X2143039Y1921503D1*
X2138877Y1924491D1*
X2699964Y1993627D2*
X2699133Y1988571D1*
X2697320Y1982990D1*
X2694655Y1977761D1*
X2691206Y1973013D1*
X2687056Y1968863D1*
X2682308Y1965413D1*
X2677079Y1962749D1*
X2671498Y1960935D1*
X2665701Y1960017D1*
X2659832D1*
X2655105Y1960723D1*
X2668566Y1806820D2*
X2667648Y1801024D1*
X2665834Y1795442D1*
X2663170Y1790213D1*
X2659720Y1785465D1*
X2655570Y1781316D1*
X2650823Y1777866D1*
X2645593Y1775202D1*
X2640012Y1773388D1*
X2634215Y1772470D1*
X2628347D1*
X2622550Y1773388D1*
X2616969Y1775202D1*
X2611740Y1777866D1*
X2606992Y1781316D1*
X2602842Y1785465D1*
X2599392Y1790213D1*
X2596728Y1795442D1*
X2594914Y1801024D1*
X2593996Y1806820D1*
Y1812689D1*
X2594914Y1818486D1*
X2596728Y1824067D1*
X2599392Y1829296D1*
X2602842Y1834044D1*
X2606992Y1838194D1*
X2611740Y1841644D1*
X2616969Y1844308D1*
X2622550Y1846121D1*
X2628347Y1847040D1*
X2634215D1*
X2640012Y1846121D1*
X2645593Y1844308D1*
X2650823Y1841644D1*
X2655570Y1838194D1*
X2659720Y1834044D1*
X2663170Y1829296D1*
X2665834Y1824067D1*
X2667648Y1818486D1*
X2668566Y1812689D1*
Y1806820D1*
X1556183Y847546D2*
X1555265Y841750D1*
X1553451Y836168D1*
X1550787Y830939D1*
X1547337Y826191D1*
X1543187Y822041D1*
X1538439Y818592D1*
X1533210Y815927D1*
X1527629Y814114D1*
X1521832Y813196D1*
X1515964D1*
X1510167Y814114D1*
X1504586Y815927D1*
X1499356Y818592D1*
X1494609Y822041D1*
X1490459Y826191D1*
X1487009Y830939D1*
X1484345Y836168D1*
X1482531Y841750D1*
X1481613Y847546D1*
Y853415D1*
X1482531Y859211D1*
X1484345Y864793D1*
X1487009Y870022D1*
X1490459Y874770D1*
X1494609Y878920D1*
X1499356Y882369D1*
X1504586Y885034D1*
X1510167Y886847D1*
X1515964Y887765D1*
X1521832D1*
X1527629Y886847D1*
X1533210Y885034D1*
X1538439Y882369D1*
X1543187Y878920D1*
X1547337Y874770D1*
X1550787Y870022D1*
X1553451Y864793D1*
X1555265Y859211D1*
X1556183Y853415D1*
Y847546D1*
X2590449Y2381760D2*
X2589531Y2375964D1*
X2587717Y2370382D1*
X2585507Y2365964D1*
X2587717Y2361511D1*
X2589531Y2355929D1*
X2590449Y2350133D1*
Y2344264D1*
X2589531Y2338468D1*
X2587717Y2332886D1*
X2585053Y2327657D1*
X2581603Y2322909D1*
X2577454Y2318759D1*
X2572706Y2315310D1*
X2567477Y2312645D1*
X2561895Y2310832D1*
X2556099Y2309914D1*
X2550230D1*
X2544433Y2310832D1*
X2538852Y2312645D1*
X2533623Y2315310D1*
X2528875Y2318759D1*
X2524725Y2322909D1*
X2521276Y2327657D1*
X2518611Y2332886D1*
X2516798Y2338468D1*
X2515880Y2344264D1*
Y2350133D1*
X2516798Y2355929D1*
X2518611Y2361511D1*
X2520822Y2365929D1*
X2518611Y2370382D1*
X2516798Y2375964D1*
X2515880Y2381760D1*
Y2387629D1*
X2516798Y2393425D1*
X2518611Y2399007D1*
X2521276Y2404236D1*
X2524725Y2408984D1*
X2528875Y2413134D1*
X2533623Y2416583D1*
X2538852Y2419248D1*
X2544433Y2421061D1*
X2550230Y2421979D1*
X2556099D1*
X2561895Y2421061D1*
X2567477Y2419248D1*
X2572706Y2416583D1*
X2577454Y2413134D1*
X2581603Y2408984D1*
X2585053Y2404236D1*
X2587717Y2399007D1*
X2589531Y2393425D1*
X2590449Y2387629D1*
Y2381760D1*
X2521599Y1344794D2*
X2526578Y1347318D1*
X2430001Y1920285D2*
X2433649Y1915999D1*
X2436715Y1910995D1*
X2438961Y1905573D1*
X2440331Y1899867D1*
X2440791Y1894016D1*
X2440331Y1888165D1*
X2438961Y1882459D1*
X2436715Y1877037D1*
X2433649Y1872033D1*
X2429837Y1867570D1*
X2425374Y1863759D1*
X2420371Y1860692D1*
X2414949Y1858446D1*
X2409242Y1857076D1*
X2403391Y1856616D1*
X2397541Y1857076D1*
X2391834Y1858446D1*
X2386412Y1860692D1*
X2381408Y1863759D1*
X2376946Y1867570D1*
X2373134Y1872033D1*
X2370068Y1877037D1*
X2367822Y1882459D1*
X2366452Y1888165D1*
X2366194Y1890341D1*
X2340350Y1916180D1*
X2213720D1*
Y2040602D1*
X2242919D1*
X2240515Y2045416D1*
X2238702Y2050998D1*
X2237784Y2056794D1*
Y2062663D1*
X2238702Y2068459D1*
X2240515Y2074041D1*
X2243180Y2079270D1*
X2246629Y2084018D1*
X2250779Y2088168D1*
X2255527Y2091617D1*
X2260756Y2094282D1*
X2266338Y2096095D1*
X2272134Y2097013D1*
X2278003D1*
X2283799Y2096095D1*
X2289381Y2094282D1*
X2294610Y2091617D1*
X2299358Y2088168D1*
X2303508Y2084018D1*
X2306957Y2079270D1*
X2309622Y2074041D1*
X2311435Y2068459D1*
X2312353Y2062663D1*
Y2056794D1*
X2311435Y2050998D1*
X2309622Y2045416D1*
X2307389Y2040958D1*
X2308720Y2040602D1*
X2343260D1*
Y2032302D1*
X2390033Y2032202D1*
X2394512Y2031493D1*
X2398825Y2030092D1*
X2402866Y2028033D1*
X2406534Y2025367D1*
X2418807Y2013220D1*
X2499872Y1932029D1*
X2502538Y1928360D1*
X2504597Y1924320D1*
X2505998Y1920007D1*
X2506708Y1915528D1*
X2506797Y1898260D1*
Y1895389D1*
X2509785Y1891187D1*
X2512450Y1885958D1*
X2514263Y1880377D1*
X2515181Y1874580D1*
Y1868712D1*
X2514263Y1862915D1*
X2512450Y1857334D1*
X2509785Y1852104D1*
X2506336Y1847357D1*
X2502186Y1843207D1*
X2497438Y1839757D1*
X2492209Y1837093D1*
X2486627Y1835279D1*
X2480831Y1834361D1*
X2474962D1*
X2469166Y1835279D1*
X2463584Y1837093D1*
X2458355Y1839757D1*
X2453607Y1843207D1*
X2449457Y1847357D1*
X2446008Y1852104D1*
X2443343Y1857334D1*
X2441530Y1862915D1*
X2440612Y1868712D1*
Y1874580D1*
X2441530Y1880377D1*
X2443343Y1885958D1*
X2446008Y1891187D1*
X2448996Y1895350D1*
X2448997Y1901275D1*
X2375799Y1974487D1*
X2363761Y1974491D1*
X2407030Y1931248D1*
X2412122Y1930383D1*
X2417704Y1928569D1*
X2422933Y1925905D1*
X2427681Y1922455D1*
X2429660Y1920625D1*
X2425374Y1924273D1*
X2420371Y1927340D1*
X2414949Y1929586D1*
X2409242Y1930956D1*
X2407066Y1931213D1*
X2430001Y1920285D2*
X2433649Y1915999D1*
X2436715Y1910995D1*
X2438961Y1905573D1*
X2440331Y1899867D1*
X2440791Y1894016D1*
X2440331Y1888165D1*
X2438961Y1882459D1*
X2436715Y1877037D1*
X2433649Y1872033D1*
X2429837Y1867570D1*
X2425374Y1863759D1*
X2420371Y1860692D1*
X2414949Y1858446D1*
X2409242Y1857076D1*
X2403391Y1856616D1*
X2397541Y1857076D1*
X2391834Y1858446D1*
X2386412Y1860692D1*
X2381408Y1863759D1*
X2376946Y1867570D1*
X2373134Y1872033D1*
X2370068Y1877037D1*
X2367822Y1882459D1*
X2366452Y1888165D1*
X2366194Y1890341D1*
X1709498Y928582D2*
X1708579Y922785D1*
X1707891Y920345D1*
X1709498Y928582D1*
Y934450D1*
X1708579Y940247D1*
X1706766Y945828D1*
X1704102Y951057D1*
X1700652Y955805D1*
X1696502Y959955D1*
X1691754Y963405D1*
X1686525Y966069D1*
X1680944Y967883D1*
X1675147Y968801D1*
X1669278D1*
X1663482Y967883D1*
X1657900Y966069D1*
X1652671Y963405D1*
X1647923Y959955D1*
X1643774Y955805D1*
X1640324Y951057D1*
X1637660Y945828D1*
X1635846Y940247D1*
X1634928Y934450D1*
Y928582D1*
X1635846Y922785D1*
X1636534Y920345D1*
X2030667Y2040607D2*
X2032568Y2045092D1*
X2035634Y2050096D1*
X2039446Y2054559D1*
X2043908Y2058370D1*
X2048912Y2061437D1*
X2054334Y2063683D1*
X2060041Y2065053D1*
X2065891Y2065513D1*
X2071742Y2065053D1*
X2077449Y2063683D1*
X2082871Y2061437D1*
X2087874Y2058370D1*
X2092337Y2054559D1*
X2096149Y2050096D1*
X2099215Y2045092D1*
X2101115Y2040607D1*
D24*
X1444017Y2709639D3*
X1129057D3*
X814096D3*
D26*
X1797139Y1287765D3*
Y1220836D3*
X1750124Y1544158D3*
Y1611087D3*
X1497932Y1541940D3*
Y1608869D3*
X1728390Y1222142D3*
Y1289071D3*
X1815742Y1544158D3*
Y1611087D3*
X1728390Y1137765D3*
Y1070836D3*
D27*
X2050440Y1769147D3*
X1983511D3*
X1956680Y1031572D3*
X2023609D3*
D26*
X2531515Y1144013D3*
Y1210943D3*
D27*
X2228198Y1025464D3*
X2161269D3*
D26*
X2559641Y1519016D3*
Y1585945D3*
D28*
X1059571Y2315763D3*
Y2240960D3*
D27*
X2187578Y1766008D3*
X2254507D3*
D28*
X1153311Y2315763D3*
Y2240960D3*
X1240802Y2315763D3*
Y2240960D3*
X1328293Y2315763D3*
Y2240960D3*
D27*
X749631Y737540D3*
X816561D3*
X878395D3*
X945324D3*
X1135922D3*
X1202851D3*
X1264685D3*
X1331614D3*
D26*
X2206326Y2515931D3*
Y2582860D3*
D27*
X816940Y680841D3*
X750011D3*
D26*
X1400265Y677087D3*
Y744016D3*
D27*
X1331614Y681284D3*
X1264685D3*
D26*
X1877481Y2014981D3*
Y1948051D3*
D27*
X1136007Y681516D3*
X1202936D3*
X1007425D3*
X1074355D3*
D30*
X676328Y2469061D3*
X589714D3*
X676328Y2369071D3*
X589714D3*
D141*
X637740Y2569050D3*
Y2679286D3*
D33*
X484631Y2472185D3*
D34*
Y2572185D3*
D36*
X554550Y2201448D3*
Y2175857D3*
Y2150267D3*
Y2124676D3*
Y2099086D3*
D37*
X545692Y2276251D3*
Y2024282D3*
D38*
X449314Y2280188D3*
Y2020345D3*
D39*
X1745425Y2821214D3*
X1788733D3*
X1832040D3*
X1875347D3*
X1918654D3*
X1961961D3*
X2005268D3*
X2048575D3*
D40*
X1578496Y2796424D3*
D41*
Y2350361D3*
D42*
X1747788Y2318865D3*
X2054087D3*
D43*
X2125347Y2357447D3*
D44*
Y2711777D3*
D41*
X2141095Y2796424D3*
D142*
X469016Y1737765D3*
D45*
X569016Y1727765D3*
X669016Y1737765D3*
X769016Y1727765D3*
X869016Y1737765D3*
X969016Y1727765D3*
X1069016Y1737765D3*
X1169016Y1727765D3*
D33*
X2844016Y687765D3*
D34*
Y787765D3*
Y887765D3*
Y987765D3*
Y1087765D3*
Y1187765D3*
Y1287765D3*
Y1387765D3*
Y1487765D3*
Y1587765D3*
Y1687765D3*
Y1787765D3*
Y1887765D3*
Y1987765D3*
Y2087765D3*
Y2187765D3*
Y2287765D3*
Y2387765D3*
Y2487765D3*
Y2587765D3*
D33*
X2944016Y687765D3*
D34*
Y787765D3*
Y887765D3*
Y987765D3*
Y1087765D3*
Y1187765D3*
Y1287765D3*
Y1387765D3*
Y1487765D3*
Y1587765D3*
Y1687765D3*
Y1787765D3*
Y1887765D3*
Y1987765D3*
Y2087765D3*
Y2187765D3*
Y2287765D3*
Y2387765D3*
Y2487765D3*
Y2587765D3*
D143*
X1772289Y1350357D3*
Y1421223D3*
X2206326Y2331575D3*
Y2402441D3*
D27*
X1338024Y2083767D3*
X1404953D3*
X825221Y1922243D3*
X892150D3*
X681486D3*
X748415D3*
X1106441D3*
X1173370D3*
X965831D3*
X1032760D3*
X2606024Y831516D3*
X2672953D3*
X2278940Y819016D3*
X2345869D3*
X1945608D3*
X2012537D3*
X1612275D3*
X1679204D3*
X1787427Y2137939D3*
X1854356D3*
X1593656D3*
X1660586D3*
X2040582Y2128562D3*
X2107511D3*
X2768523Y2709649D3*
X2835452D3*
X2768523Y2784649D3*
X2835452D3*
D26*
X1781670Y1736273D3*
Y1803202D3*
X1856670Y1737897D3*
Y1804826D3*
X1631516Y1912767D3*
Y1845838D3*
D27*
X1339693Y2144189D3*
X1406622D3*
X678891Y1834752D3*
X611962D3*
X866622D3*
X933551D3*
X993953D3*
X1060882D3*
X806222D3*
X739293D3*
X484631D3*
X551561D3*
D26*
X1969181Y2125437D3*
Y2192366D3*
X2468798Y1094391D3*
Y1027462D3*
D27*
X822096Y2003485D3*
X889025D3*
X678361D3*
X745290D3*
X904244Y2376227D3*
X971173D3*
X1100192Y2003485D3*
X1167121D3*
D26*
X2412554Y1094205D3*
Y1027276D3*
X1562767Y1912767D3*
Y1845838D3*
D27*
X962706Y2003485D3*
X1029635D3*
X2662767Y887764D3*
X2595838D3*
X2339803Y875264D3*
X2272874D3*
X2012765Y875265D3*
X1945836D3*
X1681381Y875264D3*
X1614452D3*
D26*
X1912757Y2125265D3*
Y2192194D3*
D27*
X1783327Y2194016D3*
X1850256D3*
D26*
X1719007Y2125265D3*
Y2192194D3*
D27*
X1587755Y2194016D3*
X1654684D3*
D26*
X2172331Y2122311D3*
Y2189240D3*
D27*
X2041067Y2191068D3*
X2107996D3*
D26*
X1465089Y740011D3*
Y673082D3*
Y562781D3*
Y495852D3*
D27*
X1074087Y737540D3*
X1007158D3*
D26*
X1802625Y740011D3*
Y673082D3*
Y562781D3*
Y495852D3*
X2141988Y721259D3*
Y654330D3*
X2140160Y562781D3*
Y495852D3*
X2475485Y725298D3*
Y658369D3*
Y569032D3*
Y502103D3*
X1871382Y1089778D3*
Y1022849D3*
X1815126Y1089778D3*
Y1022849D3*
D27*
X2590893Y1212765D3*
X2657822D3*
X2590894Y1119019D3*
X2657823D3*
X2584643Y1025273D3*
X2651572D3*
X2540891Y2147139D3*
X2607820D3*
X2540893Y2075267D3*
X2607822D3*
X2541129Y1997302D3*
X2608058D3*
X2538448Y2523087D3*
X2605377D3*
D26*
X2663004Y1412862D3*
Y1345933D3*
D27*
X2394016Y2522141D3*
X2460945D3*
X878845Y681516D3*
X945775D3*
D45*
X1287765Y1756516D3*
Y2012516D3*
X1465765Y1756516D3*
Y2012516D3*
X1550265Y494016D3*
Y750016D3*
X1728265Y494016D3*
Y750016D3*
X1885683Y494016D3*
Y750016D3*
X2063683Y494016D3*
Y750016D3*
X2221099Y494016D3*
Y750016D3*
X2399099Y494016D3*
Y750016D3*
X2556516Y494016D3*
Y750016D3*
X2734516Y494016D3*
Y750016D3*
D49*
X1895000Y1562765D3*
Y1543080D3*
Y1523395D3*
Y1503710D3*
Y1484025D3*
Y1464340D3*
Y1444655D3*
Y1424970D3*
Y1405285D3*
Y1385600D3*
Y1365915D3*
Y1346230D3*
Y1326545D3*
Y1306860D3*
Y1287175D3*
Y1267490D3*
Y1247805D3*
Y1228120D3*
Y1208435D3*
Y1188750D3*
D50*
X1971772Y1111978D3*
X1991457D3*
X2011142D3*
X2030827D3*
X2050512D3*
X2070197D3*
X2089882D3*
X2109567D3*
X2129252D3*
X2148937D3*
X2168622D3*
X2188307D3*
X2207992D3*
X2227677D3*
X2247362D3*
X2267047D3*
X2286733D3*
X2306418D3*
X2326103D3*
X2345788D3*
D49*
X2422559Y1188750D3*
Y1208435D3*
Y1228120D3*
Y1247805D3*
Y1267490D3*
Y1287175D3*
Y1306860D3*
Y1326545D3*
Y1346230D3*
Y1365915D3*
Y1385600D3*
Y1405285D3*
Y1424970D3*
Y1444655D3*
Y1464340D3*
Y1484025D3*
Y1503710D3*
Y1523395D3*
Y1543080D3*
Y1562765D3*
D50*
X2345788Y1639537D3*
X2326103D3*
X2306418D3*
X2286733D3*
X2267047D3*
X2247362D3*
X2227677D3*
X2207992D3*
X2188307D3*
X2168622D3*
X2148937D3*
X2129252D3*
X2109567D3*
X2089882D3*
X2070197D3*
X2050512D3*
X2030827D3*
X2011142D3*
X1991457D3*
X1971772D3*
D144*
X825267Y2525264D3*
X787865D3*
X750464D3*
Y2422894D3*
X825267D3*
D52*
X742146Y2254622D3*
Y2234937D3*
Y2215252D3*
Y2195567D3*
Y2175882D3*
Y2156197D3*
Y2136512D3*
D53*
X781516Y2097142D3*
X801201D3*
X820886D3*
X840571D3*
X860256D3*
X879941D3*
X899626D3*
D52*
X938996Y2136512D3*
Y2156197D3*
Y2175882D3*
Y2195567D3*
Y2215252D3*
Y2234937D3*
Y2254622D3*
D53*
X899626Y2293992D3*
X879941D3*
X860256D3*
X840571D3*
X820886D3*
X801201D3*
X781516D3*
D54*
X840571Y2195567D3*
D55*
X544016Y994016D3*
X571575D3*
X599134D3*
X626693D3*
X654252D3*
X681811D3*
X709370D3*
X736929D3*
X764488D3*
X792047D3*
X819607D3*
X847166D3*
X874725D3*
X902284D3*
X929843D3*
X957402D3*
X984961D3*
X1012520D3*
X1040079D3*
X1067638D3*
X1095197D3*
X1122756D3*
X1150315D3*
X1177874D3*
X1205433D3*
X1232992D3*
X1260551D3*
X1288110D3*
X1315670D3*
X1343229D3*
D56*
X640891Y550265D3*
Y524675D3*
Y499084D3*
Y473494D3*
X869238D3*
Y499084D3*
Y524675D3*
Y550265D3*
D58*
X1300265Y594016D3*
X1280580D3*
X1260895D3*
X1241210D3*
X1221525D3*
D59*
X1211683Y564488D3*
Y544803D3*
Y525118D3*
D58*
X1241210Y495591D3*
X1260895D3*
X1280580D3*
X1300265D3*
D59*
X1310108Y525118D3*
Y544803D3*
Y564488D3*
D58*
X1221525Y495591D3*
D60*
X2590891Y2722137D3*
D61*
Y2822137D3*
X2490891Y2722137D3*
Y2822137D3*
X2390891Y2722137D3*
Y2822137D3*
D60*
X2290891Y2722137D3*
D61*
Y2822137D3*
D62*
X2065891Y2003391D3*
Y1953391D3*
Y1903391D3*
Y1853391D3*
X2278490D3*
Y1903391D3*
Y1953391D3*
Y2003391D3*
D30*
X1002629Y453393D3*
X1057747D3*
Y493156D3*
X1002629D3*
Y532920D3*
X1057747D3*
Y572684D3*
X1002629D3*
D64*
X1681381Y1466041D3*
Y1682576D3*
X1555397D3*
Y1466041D3*
D65*
X1584641Y1050269D3*
Y1240269D3*
M02*
