%TF.GenerationSoftware,Novarm,DipTrace,3.2.0.1*%
%TF.CreationDate,2018-11-25T16:17:48-08:00*%
%FSLAX26Y26*%
%MOIN*%
%TF.FileFunction,Soldermask,Bot*%
%TF.Part,Single*%
%AMOUTLINE1*
4,1,4,
0.026163,0.026163,
0.026205,-0.026121,
-0.026121,-0.026205,
-0.026163,0.026163,
0.026163,0.026163,
0*%
%ADD33R,0.059055X0.059055*%
%ADD34C,0.059055*%
%ADD45C,0.074*%
%ADD62R,0.05937X0.05937*%
%ADD63C,0.05937*%
%ADD72C,0.137795*%
%ADD80C,0.056*%
%ADD124O,0.078866X0.051307*%
%ADD130C,0.067055*%
%ADD132R,0.067055X0.067055*%
%ADD150OUTLINE1*%
G75*
G01*
%LPD*%
D72*
X493701Y493701D3*
X2993701D3*
Y2793701D3*
X493701D3*
D132*
X484316Y2471870D3*
D130*
Y2571870D3*
D124*
X448999Y2279873D3*
Y2020030D3*
D150*
X468701Y1737450D3*
D45*
X568701Y1727450D3*
X668701Y1737450D3*
X768701Y1727450D3*
X868701Y1737450D3*
X968701Y1727450D3*
X1068701Y1737450D3*
X1168701Y1727450D3*
D33*
X2843701Y687450D3*
D34*
Y787450D3*
Y887450D3*
Y987450D3*
Y1087450D3*
Y1187450D3*
Y1287450D3*
Y1387450D3*
Y1487450D3*
Y1587450D3*
Y1687450D3*
Y1787450D3*
Y1887450D3*
Y1987450D3*
Y2087450D3*
Y2187450D3*
Y2287450D3*
D130*
Y2387450D3*
Y2487450D3*
Y2587450D3*
D33*
X2943701Y687450D3*
D34*
Y787450D3*
Y887450D3*
Y987450D3*
Y1087450D3*
Y1187450D3*
Y1287450D3*
Y1387450D3*
Y1487450D3*
Y1587450D3*
Y1687450D3*
Y1787450D3*
Y1887450D3*
Y1987450D3*
Y2087450D3*
Y2187450D3*
Y2287450D3*
D130*
Y2387450D3*
Y2487450D3*
Y2587450D3*
D45*
X1287450Y1756201D3*
Y2012201D3*
X1465450Y1756201D3*
Y2012201D3*
X2556201Y474950D3*
Y730950D3*
X2734201Y474950D3*
Y730950D3*
X2220784Y474950D3*
Y730950D3*
X2398784Y474950D3*
Y730950D3*
X1885368Y474950D3*
Y730950D3*
X2063368Y474950D3*
Y730950D3*
X1549950Y474950D3*
Y730950D3*
X1727950Y474950D3*
Y730950D3*
D62*
X2530977Y2724969D3*
D63*
Y2824969D3*
X2430977Y2724969D3*
Y2824969D3*
X2330977Y2724969D3*
Y2824969D3*
D62*
X2230977Y2724969D3*
D63*
Y2824969D3*
D80*
X1584326Y1049954D3*
Y1239954D3*
M02*
