%TF.GenerationSoftware,Novarm,DipTrace,3.2.0.1*%
%TF.CreationDate,2018-03-15T12:04:57-08:00*%
%FSLAX26Y26*%
%MOIN*%
%TF.FileFunction,Copper,L2,Inr*%
%TF.Part,Single*%
%AMOUTLINE1*
4,1,4,
0.026163,0.026163,
0.026205,-0.026121,
-0.026121,-0.026205,
-0.026163,0.026163,
0.026163,0.026163,
0*%
%TA.AperFunction,Conductor*%
%ADD15C,0.007*%
%ADD16C,0.015748*%
%ADD17C,0.006*%
%TA.AperFunction,ComponentPad*%
%ADD33R,0.059055X0.059055*%
%ADD34C,0.059055*%
%ADD38O,0.070866X0.043307*%
%ADD45C,0.074*%
%ADD60R,0.05937X0.05937*%
%ADD61C,0.05937*%
%ADD65C,0.048*%
%TA.AperFunction,ViaPad*%
%ADD66C,0.024*%
%TA.AperFunction,ComponentPad*%
%ADD142OUTLINE1*%
G75*
G01*
%LPD*%
X1278298Y531764D2*
D15*
Y525515D1*
X1300171Y503642D1*
X1356415D1*
X1400160Y547387D1*
Y678624D1*
X675236Y2150267D2*
Y2206588D1*
X2656516Y1119019D2*
Y1116078D1*
X2703578D1*
X2822141Y1234641D1*
X2897141D1*
X2944016Y1187765D1*
X2509641Y1284641D2*
Y1281464D1*
X2672086Y1119019D1*
X2656516D1*
X2356722Y1706391D2*
Y1821841D1*
X2225172Y1953391D1*
X2162580D1*
X2662765Y2078391D2*
X2631196D1*
X2374646Y1821841D1*
X2356722D1*
Y2321789D1*
X2215700Y2462811D1*
X2118835D1*
X2003222Y2578424D1*
X1162685Y1428545D2*
D17*
Y1206693D1*
X1040823Y1084831D1*
X2651572Y1028587D2*
D15*
X2716087D1*
X2822141Y1134641D1*
X2897141D1*
X2944016Y1087765D1*
X2651572Y1028587D2*
X2646945D1*
X2487546Y1187986D1*
Y1256735D1*
X2368809Y1650397D2*
X2390891Y1672479D1*
Y1784641D1*
X2477897Y1871646D1*
X2603553Y1997302D1*
X2662767D1*
X2275068Y2059729D2*
Y2344074D1*
X2196952Y2422191D1*
X2093838D1*
X1831365Y2684663D1*
Y2722159D1*
X2503170Y878603D2*
Y697372D1*
X2540666Y659876D1*
X2762517D1*
X2790639Y687998D1*
Y812985D1*
X2806263Y828608D1*
X2884859D1*
X2944016Y887765D1*
X2543790Y853605D2*
Y844242D1*
X2594016Y794016D1*
X2687767D1*
X2741107Y847356D1*
X2878130D1*
X2896878Y866104D1*
Y940628D1*
X2944016Y987765D1*
X2496920Y1675394D2*
X2631281Y1809755D1*
X2115710Y994215D2*
Y706746D1*
X2140708Y681748D1*
X2231748D1*
X2303391Y753391D1*
X2334641D1*
X2347141Y740891D1*
Y625267D1*
X2412767Y559641D1*
X2900265D1*
X3018740Y678116D1*
Y2313041D1*
X2944016Y2387765D1*
X2121960Y1719139D2*
X2118835D1*
X1968851Y1869124D1*
Y2125347D1*
X2503391Y1644016D2*
X2653390D1*
X2662765Y1653391D1*
Y1759641D1*
X2719016Y1815891D1*
Y1906515D1*
X2775267Y1962765D1*
Y2094016D1*
X2819016Y2137765D1*
X2856515D1*
X2897141Y2178391D1*
Y2240890D1*
X2944016Y2287765D1*
X2503170Y1612901D2*
X2669150D1*
X2687765Y1631516D1*
Y1740890D1*
X2740891Y1794016D1*
Y1894016D1*
X2794016Y1947141D1*
Y2012765D1*
X2819016Y2037765D1*
X2856515D1*
X2894016Y2075267D1*
Y2137765D1*
X2944016Y2187765D1*
X2506294Y1581654D2*
X2678528D1*
X2709641Y1612767D1*
Y1725265D1*
X2765891Y1781516D1*
Y1881517D1*
X2825265Y1940891D1*
X2856517D1*
X2890891Y1975265D1*
Y2034641D1*
X2944016Y2087765D1*
X2619016Y1497141D2*
X2644016D1*
X2737767Y1590891D1*
Y1703391D1*
X2794016Y1759641D1*
Y1809642D1*
X2825265Y1840891D1*
X2862767D1*
X2894016Y1872141D1*
Y1937765D1*
X2944016Y1987765D1*
X2509641Y1453392D2*
X2511017Y1452016D1*
X2528017Y1469016D1*
X2650267D1*
X2765891Y1584641D1*
Y1687765D1*
X2812767Y1734641D1*
X2856515D1*
X2897141Y1775267D1*
Y1840890D1*
X2944016Y1887765D1*
X2569016Y1437765D2*
Y1444016D1*
X2662767D1*
X2794016Y1575265D1*
Y1606516D1*
X2825265Y1637765D1*
X2856515D1*
X2897141Y1678391D1*
Y1740890D1*
X2944016Y1787765D1*
X2603391Y1415891D2*
X2697142D1*
X2819016Y1537765D1*
X2853391D1*
X2890891Y1575265D1*
Y1634641D1*
X2944016Y1687765D1*
X2359435Y1403547D2*
X2378341Y1384641D1*
X2627998D1*
X2637530Y1394173D1*
X2687525D1*
X2697058Y1384641D1*
X2772141D1*
X2822141Y1434641D1*
X2859641D1*
X2894016Y1469016D1*
Y1537765D1*
X2944016Y1587765D1*
X1518898Y850481D2*
Y1325431D1*
X1187683Y1656646D1*
X1059571D1*
X1022075Y1694142D1*
Y2234710D1*
X915894Y2340891D1*
X869016D1*
X800265Y2365891D2*
X797092Y2369065D1*
X853343Y2425315D1*
X1012701D1*
X1181433Y2256583D1*
Y1953490D1*
X1206431Y1928492D1*
X1418908D1*
X1553269Y1794131D1*
X1723811D1*
X1781670Y1736273D1*
X2371933Y1325431D2*
X2431302D1*
X2456299Y1300433D1*
Y1156698D1*
X2722107Y890891D1*
X2840890D1*
X2844016Y887765D1*
X2481516Y1337765D2*
X2487929Y1344179D1*
X2662528D1*
X2590891Y2822137D2*
X2562526D1*
X2537541Y2797151D1*
Y2522180D1*
X2553164Y2384694D2*
X2740945D1*
X2844016Y2487765D1*
X2540890Y1312765D2*
X2559642D1*
X2659642Y1212765D1*
X2944016Y1287765D2*
X2903390Y1328391D1*
X2777977D1*
X2662351Y1212765D1*
X2659642D1*
X2662764Y2147139D2*
X2634641Y2119016D1*
X2628391D1*
X2403391Y1894016D1*
Y2337613D1*
X2228198Y2512806D1*
X2125084D1*
X1918856Y2719034D1*
X1012520Y1116078D2*
D17*
X1022075D1*
X1125189Y1219192D1*
Y1450418D1*
X1122065Y1453542D1*
X1603264Y984841D2*
D15*
X1618887D1*
X1672213Y931516D1*
X1970831Y2194016D2*
X1912859D1*
X1850267D1*
X2003222Y1547282D2*
Y1522310D1*
X2009641Y1515891D1*
Y1456836D1*
X1996973Y1444168D1*
X1971975D1*
X1943853Y1416046D1*
Y1334478D1*
X1918856Y1309481D1*
Y1178571D1*
X1778246Y1037961D1*
Y953595D1*
X1728042Y903391D1*
X1612429D1*
X1465778Y756740D1*
Y737992D1*
X2062765Y1534641D2*
X2065891D1*
Y1341230D1*
X2003222Y1278561D1*
Y1222317D1*
X1968851Y1187945D1*
Y1153574D1*
X1903233Y1087956D1*
Y881727D1*
X1803243Y781738D1*
Y741117D1*
X2134600Y1544016D2*
X2137583D1*
Y1497288D1*
X2115710Y1475415D1*
Y1278561D1*
X2178204Y1216067D1*
Y1003204D1*
X2140708Y965708D1*
Y722369D1*
X2143832Y719244D1*
X2175079Y1578529D2*
X2168622D1*
Y1509994D1*
X2272141Y1406475D1*
Y1331516D1*
X2331516Y1272141D1*
Y1175267D1*
X2375058Y1134826D2*
Y1016088D1*
X2406516Y984630D1*
Y919012D1*
X2475267Y850261D1*
Y725516D1*
X834595Y2362822D2*
X878340Y2406567D1*
X984579D1*
X1103317Y2287830D1*
Y1944116D1*
X1175184Y1872248D1*
X1425158D1*
X1526603Y1770803D1*
X1698460D1*
X1768872Y1700391D1*
X1818866D1*
X1856372Y1737897D1*
X2331313Y1387924D2*
X2334437D1*
X2356446Y1365915D1*
X2634269D1*
X2640655Y1372301D1*
X2676659D1*
X2683045Y1365915D1*
X2797117D1*
X2815891Y1347141D1*
X2872141D1*
X2897141Y1372141D1*
Y1440890D1*
X2944016Y1487765D1*
X2290891Y2722137D2*
Y2622141D1*
X2390891Y2522141D1*
X2844016Y2387765D2*
X2803449Y2347198D1*
X2553164D1*
X1837614Y1231691D2*
Y1244189D1*
X1862612Y1269187D1*
X1884485D1*
X1887609Y1272311D1*
Y1831628D1*
X1659641Y2059596D1*
Y2106516D1*
X1453391Y2312765D1*
Y2544016D1*
X676328Y2369071D2*
D16*
Y2258616D1*
X712733Y2222212D1*
Y2137845D1*
X750229Y2100349D1*
X806473D1*
X822096Y2084726D1*
Y2003485D1*
X678361D2*
D17*
X634616D1*
X519003Y2119097D1*
Y2369071D1*
X672112Y2522180D1*
X718982D1*
X2107996Y2184715D2*
D15*
X2168826D1*
X2065891Y2028113D2*
Y1897070D1*
X2246946Y1716015D1*
X2290692D1*
X2318814Y1744137D1*
X2065891Y2028113D2*
Y2142610D1*
X2107996Y2184715D1*
X1678391Y869016D2*
X1765891D1*
X1859487Y962612D1*
Y1078582D1*
X1946978Y1166072D1*
Y1275103D1*
X2047141Y1375265D1*
Y1397141D1*
X2037765Y1406516D1*
Y1484641D1*
X2009641Y865891D2*
Y903390D1*
X1994016Y919015D1*
Y1156866D1*
X2050092Y1212943D1*
Y1240718D1*
X2062765Y1253391D1*
Y1272141D1*
X2093838Y1303213D1*
Y1528213D1*
X1931355Y1075104D2*
Y950428D1*
X1981516Y900267D1*
Y719015D1*
X2037765Y662765D1*
X2259641D1*
X2315891Y719016D1*
X2659643Y887764D2*
X2643807Y903600D1*
X2553183D1*
X2406305Y1050478D1*
Y1147352D1*
X2359641Y1194016D2*
Y1272142D1*
X2294016Y1337767D1*
Y1409597D1*
X2206516Y1497097D1*
Y1556516D1*
X1069016Y1737765D2*
Y1744016D1*
X1137765Y1812765D1*
X1409516D1*
X1465765Y1756516D1*
X1797139Y1281516D2*
X1784664D1*
X1697004Y1369176D1*
X1534521D1*
X1456404Y1447293D1*
Y1497288D1*
X1469016Y1509899D1*
Y1753265D1*
X1465765Y1756516D1*
X1719007Y2192194D2*
X1658338D1*
X1656516Y2194016D1*
X1787620Y2722159D2*
Y2262832D1*
X1719007Y2194219D1*
Y2192194D1*
X2078265Y1694142D2*
X2019016Y1753391D1*
Y1781516D1*
X1994016Y1806516D1*
X1959641D1*
X1719007Y2047150D1*
Y2192194D1*
D66*
X1278298Y531764D3*
X1400160Y678624D3*
X971173Y2376227D3*
X972080Y2075352D3*
X712767Y2378479D3*
X675236Y2150267D3*
Y2206588D3*
X740855Y2356572D3*
X1562767Y1847251D3*
X548817Y2276251D3*
X837719Y2194089D3*
X1153311Y2240960D3*
X1240802D3*
X1328293D3*
X787865Y2525264D3*
X681486Y1922243D3*
X481507Y1834752D3*
X825221Y1922243D3*
X681486D3*
X1983511Y1769147D3*
X2253196Y1769134D3*
X1983511Y1769147D3*
X2065891Y1853391D3*
X1877481Y1948051D3*
X2065891Y1853391D3*
X1578496Y2350361D3*
X1747788Y2318865D3*
X1578496Y2350361D3*
X2054087Y2318865D3*
X1747788D3*
X2125347Y2357448D3*
X2054087Y2318865D3*
X2141095Y2796424D3*
X2206326Y2584673D3*
X2125347Y2357448D3*
X1578496Y2794256D3*
X1961961Y2821214D3*
X1578496Y2794256D3*
Y2350361D3*
X1129057Y2709639D3*
X2478172Y500517D3*
X1465089Y494957D3*
X1802625Y495852D3*
X2140160D3*
X512765Y887765D3*
X1257906Y445751D3*
D3*
D3*
X1197141Y684641D3*
X1075194D3*
X972141Y887767D3*
X1150265D3*
X1797139Y1214587D3*
X1728390Y1059973D3*
X737767Y887767D3*
X972141D3*
X737767D3*
X1197141Y684641D3*
X1315891Y887765D3*
D3*
X1331614Y847159D3*
X1197141Y684641D3*
X2562538Y1681643D3*
X2023609Y1020485D3*
X2529693Y1210943D3*
X927799Y524675D3*
X640891Y440891D3*
X750011Y680841D3*
D3*
X1331614Y847159D3*
X1002629Y493155D3*
X2023609Y1020485D3*
X787998Y2250496D3*
X1059571Y2240960D3*
X887767Y2250265D3*
X1153311Y2240960D3*
X887625Y2144156D3*
X548817Y2276251D3*
X545692Y2020345D3*
X787998Y2144095D3*
X1831365Y1394173D3*
X1728390Y1291198D3*
X1797139Y1214587D3*
X1928391Y1665891D3*
X2656516Y1119019D3*
X2509641Y1284641D3*
X2656516Y1119019D3*
X2356722Y1706391D3*
X2162580Y1953391D3*
X2662765Y2078391D3*
X2003222Y2578424D3*
X1359540Y1722264D3*
X1162685Y1428545D3*
X1040823Y1084831D3*
X2162580Y1953391D3*
X2651572Y1028587D3*
X2487546Y1256735D3*
X2651572Y1028587D3*
X2368809Y1650397D3*
X2662767Y1997302D3*
D3*
X2275068Y2059729D3*
X1831365Y2722159D3*
X2477897Y1871646D3*
X2503170Y878603D3*
X2543790Y853605D3*
X2325063Y1350631D3*
X2496920Y1675394D3*
X2631281Y1809755D3*
X1984474Y1412922D3*
X2012596Y1384799D3*
X874725Y1096839D3*
X2087765Y1237765D3*
X2053217Y1169197D3*
X931460Y1091080D3*
X2093838Y1022338D3*
X2081338Y1184822D3*
X2122141Y1231516D3*
X2150265Y1200265D3*
X2115710Y994215D3*
X2243822Y1381675D3*
X2121960Y1719139D3*
X1968851Y2125347D3*
X2237765Y1165891D3*
X2300265Y1240891D3*
X2031344Y1262937D3*
X1975267Y1247141D3*
X2503391Y1644016D3*
X2503170Y1612901D3*
X2506294Y1581654D3*
X2619016Y1497141D3*
X2509641Y1453392D3*
X2569016Y1437765D3*
X2603391Y1415891D3*
X2359435Y1403547D3*
X1634511Y1287935D3*
X1556394Y1466041D3*
X2465891Y925266D3*
X1518898Y850481D3*
X869016Y2340891D3*
X800265Y2365891D3*
X1781670Y1736273D3*
X2371933Y1325431D3*
X2481516Y1337765D3*
X2662528Y1344179D3*
X2537541Y2522180D3*
X2190891Y1709641D3*
X2553164Y2384694D3*
X2540890Y1312765D3*
X2659642Y1212765D3*
X2662764Y2147139D3*
X2403391Y1894016D3*
X2325142Y1712642D3*
X2403391Y1894016D3*
X1918856Y2719034D3*
X1012520Y1116078D3*
X1122065Y1453542D3*
X1268924Y1694142D3*
X2362765Y953391D3*
X703391Y509641D3*
X1603264Y984841D3*
X1672213Y931516D3*
X2362765Y953391D3*
X1872141Y931516D3*
X1247051Y556761D3*
X1672213Y931516D3*
X1002629Y532919D3*
X1247051Y556761D3*
X1970831Y2194016D3*
X1850267D3*
X1912859D3*
X2171954Y2711777D3*
X1970831Y2194016D3*
X2334641Y981516D3*
X750265Y512765D3*
X1815742Y1022849D3*
X2334641Y981516D3*
X1165810Y564488D3*
X1057747Y572683D3*
X1165810Y564488D3*
X2003222Y1547282D3*
X1465778Y737992D3*
X2062765Y1534641D3*
X1803243Y741117D3*
X2134600Y1544016D3*
X2143832Y719244D3*
X2175079Y1578529D3*
X2331516Y1175267D3*
X2375058Y1134826D3*
X2475267Y725516D3*
X1981516Y1484641D3*
X1947141Y1587767D3*
X1928391Y1619016D3*
X1975265Y1569015D3*
X1969016Y1512765D3*
X834595Y2362822D3*
X1856372Y1737897D3*
X2331313Y1387924D3*
X2390891Y2522141D3*
X2553164Y2347198D3*
X2306717Y1787966D3*
X1837614Y1231691D3*
X1453391Y2544016D3*
X676328Y2369071D3*
X822096Y2003485D3*
X678361D3*
X718982Y2522180D3*
X2107996Y2184715D3*
X2168826D3*
X2065891Y2028113D3*
X2318814Y1744137D3*
X2065891Y2028113D3*
X2107996Y2184715D3*
X2059466Y1000465D3*
X1678391Y869016D3*
X2037765Y1484641D3*
X2009641Y865891D3*
X2093838Y1528213D3*
X2146957Y1466041D3*
X1931355Y1075104D3*
X2315891Y719016D3*
X2659643Y887764D3*
X2406305Y1147352D3*
X2359641Y1194016D3*
X2206516Y1556516D3*
X1797139Y1281516D3*
X1971839Y1365915D3*
X1337667Y2084726D3*
X1719007Y2192194D3*
X1656516Y2194016D3*
X1787620Y2722159D3*
X1719007Y2192194D3*
X2219016Y1353391D3*
X2078265Y1694142D3*
X1719007Y2192194D3*
D33*
X484631Y2472185D3*
D34*
Y2572185D3*
D38*
X449314Y2280188D3*
Y2020345D3*
D142*
X469016Y1737765D3*
D45*
X569016Y1727765D3*
X669016Y1737765D3*
X769016Y1727765D3*
X869016Y1737765D3*
X969016Y1727765D3*
X1069016Y1737765D3*
X1169016Y1727765D3*
D33*
X2844016Y687765D3*
D34*
Y787765D3*
Y887765D3*
Y987765D3*
Y1087765D3*
Y1187765D3*
Y1287765D3*
Y1387765D3*
Y1487765D3*
Y1587765D3*
Y1687765D3*
Y1787765D3*
Y1887765D3*
Y1987765D3*
Y2087765D3*
Y2187765D3*
Y2287765D3*
Y2387765D3*
Y2487765D3*
Y2587765D3*
D33*
X2944016Y687765D3*
D34*
Y787765D3*
Y887765D3*
Y987765D3*
Y1087765D3*
Y1187765D3*
Y1287765D3*
Y1387765D3*
Y1487765D3*
Y1587765D3*
Y1687765D3*
Y1787765D3*
Y1887765D3*
Y1987765D3*
Y2087765D3*
Y2187765D3*
Y2287765D3*
Y2387765D3*
Y2487765D3*
Y2587765D3*
D45*
X1287765Y1756516D3*
Y2012516D3*
X1465765Y1756516D3*
Y2012516D3*
X1550265Y494016D3*
Y750016D3*
X1728265Y494016D3*
Y750016D3*
X1885683Y494016D3*
Y750016D3*
X2063683Y494016D3*
Y750016D3*
X2221099Y494016D3*
Y750016D3*
X2399099Y494016D3*
Y750016D3*
X2556516Y494016D3*
Y750016D3*
X2734516Y494016D3*
Y750016D3*
D60*
X2590891Y2722137D3*
D61*
Y2822137D3*
X2490891Y2722137D3*
Y2822137D3*
X2390891Y2722137D3*
Y2822137D3*
D60*
X2290891Y2722137D3*
D61*
Y2822137D3*
D65*
X1584641Y1050269D3*
Y1240269D3*
M02*
