%TF.GenerationSoftware,Novarm,DipTrace,3.2.0.1*%
%TF.CreationDate,2018-03-15T12:04:57-08:00*%
%FSLAX26Y26*%
%MOIN*%
%TF.FileFunction,Copper,L3,Inr*%
%TF.Part,Single*%
%AMOUTLINE1*
4,1,4,
0.026163,0.026163,
0.026205,-0.026121,
-0.026121,-0.026205,
-0.026163,0.026163,
0.026163,0.026163,
0*%
%TA.AperFunction,Conductor*%
%ADD15C,0.007*%
%ADD17C,0.006*%
%TA.AperFunction,ComponentPad*%
%ADD33R,0.059055X0.059055*%
%ADD34C,0.059055*%
%ADD38O,0.070866X0.043307*%
%ADD45C,0.074*%
%ADD60R,0.05937X0.05937*%
%ADD61C,0.05937*%
%ADD65C,0.048*%
%TA.AperFunction,ViaPad*%
%ADD66C,0.024*%
%TA.AperFunction,ComponentPad*%
%ADD142OUTLINE1*%
G75*
G01*
%LPD*%
X971173Y2376227D2*
D15*
Y2303453D1*
Y2074445D1*
X972080Y2075352D1*
X712767Y2378479D2*
Y2315918D1*
X725231Y2303453D1*
X971173D1*
X740855Y2356572D2*
Y2431565D1*
X762727Y2453437D1*
X1275173D1*
X1387662Y2340949D1*
Y1922243D1*
X1462654Y1847251D1*
X1562767D1*
X2162580Y1953391D2*
D17*
X2024996D1*
X1943853Y1872248D1*
X1768872D1*
X1709503Y1812880D1*
X1418908D1*
X1359540Y1753511D1*
Y1722264D1*
X2325063Y1350631D2*
D15*
X2312361D1*
X2296941Y1366051D1*
Y1406672D1*
X2475267Y1584998D1*
Y1653740D1*
X2496920Y1675394D1*
X2631281Y1809755D2*
Y2375030D1*
X2844016Y2587765D1*
X1984474Y1412922D2*
X2025095D1*
X2125084Y1512911D1*
X2275068D1*
X2396931Y1634773D1*
Y1734763D1*
X2443801Y1781633D1*
X2643780D1*
X2849912Y1987765D1*
X2844016D1*
X2012596Y1384799D2*
X2028219D1*
X2137583Y1494163D1*
X2287567D1*
X2415679Y1622275D1*
Y1725389D1*
X2453175Y1762885D1*
X2715647D1*
X2840528Y1887765D1*
X2844016D1*
X874725Y1096839D2*
X962706Y1184820D1*
X2006696D1*
X2059641Y1237765D1*
X2087765D1*
X2053217Y1169197D2*
X2056341Y1166072D1*
X1006452D1*
X931460Y1091080D1*
X2844016Y1087765D2*
X2728593Y972343D1*
X2643814D1*
X2584445Y1031712D1*
X2275068D1*
X2265694Y1022338D1*
X2093838D1*
X2081338Y1184822D2*
X2090713Y1175446D1*
Y1131700D1*
X2134647Y1087765D1*
X2481107D1*
X2640655Y1247314D1*
X2696899D1*
X2756448Y1187765D1*
X2844016D1*
Y1287765D2*
X2647141D1*
X2465891Y1106516D1*
X2162768D1*
X2122141Y1147143D1*
Y1231516D1*
X2150265Y1200265D2*
Y1162764D1*
X2175079Y1137950D1*
X2340687D1*
X2387557Y1184820D1*
X2453571D1*
X2584807Y1316057D1*
X2775016D1*
X2850008Y1391049D1*
X2844016D1*
Y1387765D1*
X2237765Y1165891D2*
X2281516D1*
X2450050Y1334425D1*
Y1347303D1*
X2471923Y1369176D1*
X2644176D1*
X2656516Y1381516D1*
X2739911D1*
X2836935Y1478540D1*
X2846883D1*
X2837658Y1487765D1*
X2844016D1*
X2300265Y1240891D2*
Y1237765D1*
X2331516Y1269016D1*
X2353391D1*
X2403180Y1318805D1*
Y1344179D1*
X2446925Y1387924D1*
X2637530D1*
X2844016Y1594410D1*
Y1587765D1*
Y1687765D2*
X2809515D1*
X2787515Y1709765D1*
X2481297D1*
X2456299Y1684768D1*
Y1603526D1*
X2290692Y1437919D1*
X2187578D1*
X2140708Y1391049D1*
X2106336D1*
X2031344Y1316057D1*
Y1262937D1*
X2844016Y1787765D2*
X2837393D1*
X2790639Y1741012D1*
X2465673D1*
X2437551Y1712890D1*
Y1612901D1*
X2290692Y1466041D1*
X2187578D1*
X2146957Y1425420D1*
X2109461D1*
X2003222Y1319181D1*
Y1275096D1*
X1975267Y1247141D1*
X1634511Y1287935D2*
X1556394Y1366051D1*
Y1466041D1*
X2465891Y925266D2*
X2441100Y900475D1*
X1568893D1*
X1518898Y850481D1*
X2944016Y1387765D2*
X2962338D1*
X3031239Y1456667D1*
Y2634668D1*
X2993743Y2672164D1*
X2843759D1*
X2693786Y2822137D1*
X2590891D1*
X2190891Y1709641D2*
Y1806819D1*
X2462767Y2078694D1*
Y2297422D1*
X2550040Y2384694D1*
X2553164D1*
X2403391Y1894016D2*
X2356516Y1847141D1*
Y1744016D1*
X2325142Y1712642D1*
X1268924Y1694142D2*
D17*
X1272049Y1691017D1*
X1896983D1*
X1912607Y1706641D1*
X1996973D1*
X2037593Y1666020D1*
X2278520D1*
X2325142Y1712642D1*
X2362765Y953391D2*
D15*
X2531516D1*
X2672142Y812765D1*
X2750267D1*
X2819242Y743790D1*
X2906780D1*
X2944016Y781026D1*
Y787765D1*
X703391Y509641D2*
X831754Y638003D1*
X1193932D1*
X1540771Y984841D1*
X1603264D1*
X1672213Y931516D2*
X1872141D1*
Y922348D1*
X2331722D1*
X2362765Y953391D1*
X1247051Y556761D2*
Y616130D1*
X1562437Y931516D1*
X1672213D1*
X1002629Y532919D2*
X1223209D1*
X1247051Y556761D1*
X2171954Y2711777D2*
Y2609671D1*
X1970831Y2408547D1*
Y2194016D1*
X2844016Y787765D2*
Y781551D1*
X2334641Y981516D2*
X2547141D1*
X2606516Y922141D1*
X2709641D1*
X2844016Y787765D1*
X750265Y512765D2*
X775265D1*
X872381Y609881D1*
X1165810D1*
X1206431D1*
X1547020Y950470D1*
X1612638D1*
X1643885Y981717D1*
X1815742D1*
Y1022849D1*
Y981717D2*
Y969217D1*
X1822193Y962765D1*
X1881516D1*
X1903185Y941096D1*
X2294221D1*
X2334641Y981516D1*
X1165810Y564488D2*
Y609881D1*
X1057747Y572683D2*
X1157616D1*
X1165810Y564488D1*
X1981516Y1484641D2*
X1890882D1*
X1840739Y1534784D1*
X1762622D1*
X1731376Y1566030D1*
X730751D1*
X569016Y1727765D1*
X1947141Y1587767D2*
X1906516D1*
X1853391Y1640891D1*
X965890D1*
X869016Y1737765D1*
X1928391Y1619016D2*
X1887767Y1659641D1*
X1037141D1*
X969016Y1727765D1*
X1975265Y1569015D2*
X1965891Y1559641D1*
X1884625D1*
X1831365Y1612901D1*
X883881D1*
X769016Y1727765D1*
X669016Y1737765D2*
X667500Y1736250D1*
X815847Y1587903D1*
X1740750D1*
X1775121Y1553532D1*
X1850113D1*
X1900254Y1503391D1*
X1956516D1*
X1967453Y1514328D1*
X1969016Y1512765D1*
X2944016Y1487765D2*
X2981096D1*
X3006242Y1512911D1*
Y2631544D1*
X2987494Y2650292D1*
X2362736D1*
X2290891Y2722137D1*
X2553164Y2347198D2*
X2497141Y2291175D1*
Y2065891D1*
X2306717Y1875467D1*
Y1787966D1*
X2844016Y987765D2*
X2846683D1*
X2806263Y947345D1*
X2625032D1*
X2562736Y1009641D1*
X2284244D1*
X2234448Y959844D1*
X2100087D1*
X2059466Y1000465D1*
X1971839Y1365915D2*
X1968987D1*
X1856362Y1478540D1*
X1746999D1*
X1693880Y1531659D1*
X653364D1*
X512754Y1672269D1*
Y1806630D1*
X562748Y1856625D1*
X1272049D1*
X1347041Y1931617D1*
Y2075352D1*
X1337667Y2084726D1*
D66*
X1278298Y531764D3*
X1400160Y678624D3*
X971173Y2376227D3*
X972080Y2075352D3*
X712767Y2378479D3*
X675236Y2150267D3*
Y2206588D3*
X740855Y2356572D3*
X1562767Y1847251D3*
X548817Y2276251D3*
X837719Y2194089D3*
X1153311Y2240960D3*
X1240802D3*
X1328293D3*
X787865Y2525264D3*
X681486Y1922243D3*
X481507Y1834752D3*
X825221Y1922243D3*
X681486D3*
X1983511Y1769147D3*
X2253196Y1769134D3*
X1983511Y1769147D3*
X2065891Y1853391D3*
X1877481Y1948051D3*
X2065891Y1853391D3*
X1578496Y2350361D3*
X1747788Y2318865D3*
X1578496Y2350361D3*
X2054087Y2318865D3*
X1747788D3*
X2125347Y2357448D3*
X2054087Y2318865D3*
X2141095Y2796424D3*
X2206326Y2584673D3*
X2125347Y2357448D3*
X1578496Y2794256D3*
X1961961Y2821214D3*
X1578496Y2794256D3*
Y2350361D3*
X1129057Y2709639D3*
X2478172Y500517D3*
X1465089Y494957D3*
X1802625Y495852D3*
X2140160D3*
X512765Y887765D3*
X1257906Y445751D3*
D3*
D3*
X1197141Y684641D3*
X1075194D3*
X972141Y887767D3*
X1150265D3*
X1797139Y1214587D3*
X1728390Y1059973D3*
X737767Y887767D3*
X972141D3*
X737767D3*
X1197141Y684641D3*
X1315891Y887765D3*
D3*
X1331614Y847159D3*
X1197141Y684641D3*
X2562538Y1681643D3*
X2023609Y1020485D3*
X2529693Y1210943D3*
X927799Y524675D3*
X640891Y440891D3*
X750011Y680841D3*
D3*
X1331614Y847159D3*
X1002629Y493155D3*
X2023609Y1020485D3*
X787998Y2250496D3*
X1059571Y2240960D3*
X887767Y2250265D3*
X1153311Y2240960D3*
X887625Y2144156D3*
X548817Y2276251D3*
X545692Y2020345D3*
X787998Y2144095D3*
X1831365Y1394173D3*
X1728390Y1291198D3*
X1797139Y1214587D3*
X1928391Y1665891D3*
X2656516Y1119019D3*
X2509641Y1284641D3*
X2656516Y1119019D3*
X2356722Y1706391D3*
X2162580Y1953391D3*
X2662765Y2078391D3*
X2003222Y2578424D3*
X1359540Y1722264D3*
X1162685Y1428545D3*
X1040823Y1084831D3*
X2162580Y1953391D3*
X2651572Y1028587D3*
X2487546Y1256735D3*
X2651572Y1028587D3*
X2368809Y1650397D3*
X2662767Y1997302D3*
D3*
X2275068Y2059729D3*
X1831365Y2722159D3*
X2477897Y1871646D3*
X2503170Y878603D3*
X2543790Y853605D3*
X2325063Y1350631D3*
X2496920Y1675394D3*
X2631281Y1809755D3*
X1984474Y1412922D3*
X2012596Y1384799D3*
X874725Y1096839D3*
X2087765Y1237765D3*
X2053217Y1169197D3*
X931460Y1091080D3*
X2093838Y1022338D3*
X2081338Y1184822D3*
X2122141Y1231516D3*
X2150265Y1200265D3*
X2115710Y994215D3*
X2243822Y1381675D3*
X2121960Y1719139D3*
X1968851Y2125347D3*
X2237765Y1165891D3*
X2300265Y1240891D3*
X2031344Y1262937D3*
X1975267Y1247141D3*
X2503391Y1644016D3*
X2503170Y1612901D3*
X2506294Y1581654D3*
X2619016Y1497141D3*
X2509641Y1453392D3*
X2569016Y1437765D3*
X2603391Y1415891D3*
X2359435Y1403547D3*
X1634511Y1287935D3*
X1556394Y1466041D3*
X2465891Y925266D3*
X1518898Y850481D3*
X869016Y2340891D3*
X800265Y2365891D3*
X1781670Y1736273D3*
X2371933Y1325431D3*
X2481516Y1337765D3*
X2662528Y1344179D3*
X2537541Y2522180D3*
X2190891Y1709641D3*
X2553164Y2384694D3*
X2540890Y1312765D3*
X2659642Y1212765D3*
X2662764Y2147139D3*
X2403391Y1894016D3*
X2325142Y1712642D3*
X2403391Y1894016D3*
X1918856Y2719034D3*
X1012520Y1116078D3*
X1122065Y1453542D3*
X1268924Y1694142D3*
X2362765Y953391D3*
X703391Y509641D3*
X1603264Y984841D3*
X1672213Y931516D3*
X2362765Y953391D3*
X1872141Y931516D3*
X1247051Y556761D3*
X1672213Y931516D3*
X1002629Y532919D3*
X1247051Y556761D3*
X1970831Y2194016D3*
X1850267D3*
X1912859D3*
X2171954Y2711777D3*
X1970831Y2194016D3*
X2334641Y981516D3*
X750265Y512765D3*
X1815742Y1022849D3*
X2334641Y981516D3*
X1165810Y564488D3*
X1057747Y572683D3*
X1165810Y564488D3*
X2003222Y1547282D3*
X1465778Y737992D3*
X2062765Y1534641D3*
X1803243Y741117D3*
X2134600Y1544016D3*
X2143832Y719244D3*
X2175079Y1578529D3*
X2331516Y1175267D3*
X2375058Y1134826D3*
X2475267Y725516D3*
X1981516Y1484641D3*
X1947141Y1587767D3*
X1928391Y1619016D3*
X1975265Y1569015D3*
X1969016Y1512765D3*
X834595Y2362822D3*
X1856372Y1737897D3*
X2331313Y1387924D3*
X2390891Y2522141D3*
X2553164Y2347198D3*
X2306717Y1787966D3*
X1837614Y1231691D3*
X1453391Y2544016D3*
X676328Y2369071D3*
X822096Y2003485D3*
X678361D3*
X718982Y2522180D3*
X2107996Y2184715D3*
X2168826D3*
X2065891Y2028113D3*
X2318814Y1744137D3*
X2065891Y2028113D3*
X2107996Y2184715D3*
X2059466Y1000465D3*
X1678391Y869016D3*
X2037765Y1484641D3*
X2009641Y865891D3*
X2093838Y1528213D3*
X2146957Y1466041D3*
X1931355Y1075104D3*
X2315891Y719016D3*
X2659643Y887764D3*
X2406305Y1147352D3*
X2359641Y1194016D3*
X2206516Y1556516D3*
X1797139Y1281516D3*
X1971839Y1365915D3*
X1337667Y2084726D3*
X1719007Y2192194D3*
X1656516Y2194016D3*
X1787620Y2722159D3*
X1719007Y2192194D3*
X2219016Y1353391D3*
X2078265Y1694142D3*
X1719007Y2192194D3*
D33*
X484631Y2472185D3*
D34*
Y2572185D3*
D38*
X449314Y2280188D3*
Y2020345D3*
D142*
X469016Y1737765D3*
D45*
X569016Y1727765D3*
X669016Y1737765D3*
X769016Y1727765D3*
X869016Y1737765D3*
X969016Y1727765D3*
X1069016Y1737765D3*
X1169016Y1727765D3*
D33*
X2844016Y687765D3*
D34*
Y787765D3*
Y887765D3*
Y987765D3*
Y1087765D3*
Y1187765D3*
Y1287765D3*
Y1387765D3*
Y1487765D3*
Y1587765D3*
Y1687765D3*
Y1787765D3*
Y1887765D3*
Y1987765D3*
Y2087765D3*
Y2187765D3*
Y2287765D3*
Y2387765D3*
Y2487765D3*
Y2587765D3*
D33*
X2944016Y687765D3*
D34*
Y787765D3*
Y887765D3*
Y987765D3*
Y1087765D3*
Y1187765D3*
Y1287765D3*
Y1387765D3*
Y1487765D3*
Y1587765D3*
Y1687765D3*
Y1787765D3*
Y1887765D3*
Y1987765D3*
Y2087765D3*
Y2187765D3*
Y2287765D3*
Y2387765D3*
Y2487765D3*
Y2587765D3*
D45*
X1287765Y1756516D3*
Y2012516D3*
X1465765Y1756516D3*
Y2012516D3*
X1550265Y494016D3*
Y750016D3*
X1728265Y494016D3*
Y750016D3*
X1885683Y494016D3*
Y750016D3*
X2063683Y494016D3*
Y750016D3*
X2221099Y494016D3*
Y750016D3*
X2399099Y494016D3*
Y750016D3*
X2556516Y494016D3*
Y750016D3*
X2734516Y494016D3*
Y750016D3*
D60*
X2590891Y2722137D3*
D61*
Y2822137D3*
X2490891Y2722137D3*
Y2822137D3*
X2390891Y2722137D3*
Y2822137D3*
D60*
X2290891Y2722137D3*
D61*
Y2822137D3*
D65*
X1584641Y1050269D3*
Y1240269D3*
M02*
