%TF.GenerationSoftware,Novarm,DipTrace,3.2.0.1*%
%TF.CreationDate,2018-03-15T12:04:59-08:00*%
%FSLAX26Y26*%
%MOIN*%
%TF.FileFunction,Drawing,Top*%
%TF.Part,Single*%
%ADD14C,0.001378*%
%ADD139C,0.006176*%
G75*
G01*
%LPD*%
X2994016Y2794016D2*
D14*
X3326201D1*
X2994016Y494016D2*
X3326201D1*
X3306516Y1644016D2*
Y2754646D1*
G36*
Y2794016D2*
X3314390Y2754646D1*
X3298642D1*
X3306516Y2794016D1*
G37*
Y1644016D2*
D14*
Y533386D1*
G36*
Y494016D2*
X3298642Y533386D1*
X3314390D1*
X3306516Y494016D1*
G37*
X494016Y2794016D2*
D14*
Y3038702D1*
X2994016Y2794016D2*
Y3038702D1*
X1744016Y3019017D2*
X533386D1*
G36*
X494016D2*
X533386Y3026891D1*
Y3011143D1*
X494016Y3019017D1*
G37*
X1744016D2*
D14*
X2954646D1*
G36*
X2994016D2*
X2954646Y3011143D1*
Y3026891D1*
X2994016Y3019017D1*
G37*
X394016Y2844016D2*
D14*
Y3151176D1*
X3094016Y2844016D2*
Y3151176D1*
X1744016Y3131491D2*
X433386D1*
G36*
X394016D2*
X433386Y3139365D1*
Y3123617D1*
X394016Y3131491D1*
G37*
X1744016D2*
D14*
X3054646D1*
G36*
X3094016D2*
X3054646Y3123617D1*
Y3139365D1*
X3094016Y3131491D1*
G37*
X3044016Y2894016D2*
D14*
X3547747D1*
X3044016Y394016D2*
X3547747D1*
X3528062Y1644016D2*
Y2854646D1*
G36*
Y2894016D2*
X3535936Y2854646D1*
X3520188D1*
X3528062Y2894016D1*
G37*
Y1644016D2*
D14*
Y433386D1*
G36*
Y394016D2*
X3520188Y433386D1*
X3535936D1*
X3528062Y394016D1*
G37*
X3349324Y1711099D2*
D139*
X3351225D1*
X3355072Y1709198D1*
X3356973Y1707297D1*
X3358875Y1703450D1*
Y1695800D1*
X3356973Y1691998D1*
X3355072Y1690097D1*
X3351225Y1688151D1*
X3347423D1*
X3343576Y1690097D1*
X3337872Y1693899D1*
X3318727Y1713045D1*
Y1686250D1*
X3358875Y1670052D2*
Y1649049D1*
X3343576Y1660501D1*
Y1654753D1*
X3341675Y1650951D1*
X3339773Y1649049D1*
X3334025Y1647104D1*
X3330223D1*
X3324475Y1649049D1*
X3320628Y1652852D1*
X3318727Y1658600D1*
Y1664348D1*
X3320628Y1670052D1*
X3322574Y1671953D1*
X3326376Y1673899D1*
X3358875Y1623256D2*
X3356973Y1629004D1*
X3351225Y1632851D1*
X3341675Y1634752D1*
X3335927D1*
X3326376Y1632851D1*
X3320628Y1629004D1*
X3318727Y1623256D1*
Y1619454D1*
X3320628Y1613706D1*
X3326376Y1609903D1*
X3335927Y1607958D1*
X3341675D1*
X3351225Y1609903D1*
X3356973Y1613706D1*
X3358875Y1619454D1*
Y1623256D1*
X3351225Y1609903D2*
X3326376Y1632851D1*
X3358875Y1584110D2*
X3356973Y1589858D1*
X3351225Y1593705D1*
X3341675Y1595606D1*
X3335927D1*
X3326376Y1593705D1*
X3320628Y1589858D1*
X3318727Y1584110D1*
Y1580308D1*
X3320628Y1574560D1*
X3326376Y1570757D1*
X3335927Y1568812D1*
X3341675D1*
X3351225Y1570757D1*
X3356973Y1574560D1*
X3358875Y1580308D1*
Y1584110D1*
X3351225Y1570757D2*
X3326376Y1593705D1*
X1676933Y3061825D2*
Y3063727D1*
X1678834Y3067573D1*
X1680735Y3069475D1*
X1684582Y3071376D1*
X1692232D1*
X1696034Y3069475D1*
X1697935Y3067573D1*
X1699881Y3063727D1*
Y3059924D1*
X1697935Y3056077D1*
X1694133Y3050373D1*
X1674987Y3031228D1*
X1701782D1*
X1737081Y3071376D2*
X1717980D1*
X1716079Y3054176D1*
X1717980Y3056077D1*
X1723728Y3058023D1*
X1729432D1*
X1735180Y3056077D1*
X1739027Y3052275D1*
X1740928Y3046527D1*
Y3042724D1*
X1739027Y3036976D1*
X1735180Y3033129D1*
X1729432Y3031228D1*
X1723728D1*
X1717980Y3033129D1*
X1716079Y3035075D1*
X1714133Y3038877D1*
X1764776Y3071376D2*
X1759028Y3069475D1*
X1755181Y3063727D1*
X1753280Y3054176D1*
Y3048428D1*
X1755181Y3038877D1*
X1759028Y3033129D1*
X1764776Y3031228D1*
X1768578D1*
X1774326Y3033129D1*
X1778129Y3038877D1*
X1780074Y3048428D1*
Y3054176D1*
X1778129Y3063727D1*
X1774326Y3069475D1*
X1768578Y3071376D1*
X1764776D1*
X1778129Y3063727D2*
X1755181Y3038877D1*
X1803922Y3071376D2*
X1798174Y3069475D1*
X1794327Y3063727D1*
X1792426Y3054176D1*
Y3048428D1*
X1794327Y3038877D1*
X1798174Y3033129D1*
X1803922Y3031228D1*
X1807724D1*
X1813472Y3033129D1*
X1817275Y3038877D1*
X1819220Y3048428D1*
Y3054176D1*
X1817275Y3063727D1*
X1813472Y3069475D1*
X1807724Y3071376D1*
X1803922D1*
X1817275Y3063727D2*
X1794327Y3038877D1*
X1676933Y3174299D2*
Y3176200D1*
X1678834Y3180047D1*
X1680735Y3181948D1*
X1684582Y3183850D1*
X1692232D1*
X1696034Y3181948D1*
X1697935Y3180047D1*
X1699881Y3176200D1*
Y3172398D1*
X1697935Y3168551D1*
X1694133Y3162847D1*
X1674987Y3143702D1*
X1701782D1*
X1721783D2*
X1740928Y3183850D1*
X1714133D1*
X1764776D2*
X1759028Y3181948D1*
X1755181Y3176200D1*
X1753280Y3166650D1*
Y3160902D1*
X1755181Y3151351D1*
X1759028Y3145603D1*
X1764776Y3143702D1*
X1768578D1*
X1774326Y3145603D1*
X1778129Y3151351D1*
X1780074Y3160902D1*
Y3166650D1*
X1778129Y3176200D1*
X1774326Y3181948D1*
X1768578Y3183850D1*
X1764776D1*
X1778129Y3176200D2*
X1755181Y3151351D1*
X1803922Y3183850D2*
X1798174Y3181948D1*
X1794327Y3176200D1*
X1792426Y3166650D1*
Y3160902D1*
X1794327Y3151351D1*
X1798174Y3145603D1*
X1803922Y3143702D1*
X1807724D1*
X1813472Y3145603D1*
X1817275Y3151351D1*
X1819220Y3160902D1*
Y3166650D1*
X1817275Y3176200D1*
X1813472Y3181948D1*
X1807724Y3183850D1*
X1803922D1*
X1817275Y3176200D2*
X1794327Y3151351D1*
X3570870Y1711099D2*
X3572771D1*
X3576618Y1709198D1*
X3578519Y1707297D1*
X3580420Y1703450D1*
Y1695800D1*
X3578519Y1691998D1*
X3576618Y1690097D1*
X3572771Y1688151D1*
X3568969D1*
X3565122Y1690097D1*
X3559418Y1693899D1*
X3540273Y1713045D1*
Y1686250D1*
X3580420Y1650951D2*
Y1670052D1*
X3563221Y1671953D1*
X3565122Y1670052D1*
X3567067Y1664304D1*
Y1658600D1*
X3565122Y1652852D1*
X3561319Y1649005D1*
X3555571Y1647104D1*
X3551769D1*
X3546021Y1649005D1*
X3542174Y1652852D1*
X3540273Y1658600D1*
Y1664304D1*
X3542174Y1670052D1*
X3544119Y1671953D1*
X3547922Y1673899D1*
X3580420Y1623256D2*
X3578519Y1629004D1*
X3572771Y1632851D1*
X3563221Y1634752D1*
X3557473D1*
X3547922Y1632851D1*
X3542174Y1629004D1*
X3540273Y1623256D1*
Y1619454D1*
X3542174Y1613706D1*
X3547922Y1609903D1*
X3557473Y1607958D1*
X3563221D1*
X3572771Y1609903D1*
X3578519Y1613706D1*
X3580420Y1619454D1*
Y1623256D1*
X3572771Y1609903D2*
X3547922Y1632851D1*
X3580420Y1584110D2*
X3578519Y1589858D1*
X3572771Y1593705D1*
X3563221Y1595606D1*
X3557473D1*
X3547922Y1593705D1*
X3542174Y1589858D1*
X3540273Y1584110D1*
Y1580308D1*
X3542174Y1574560D1*
X3547922Y1570757D1*
X3557473Y1568812D1*
X3563221D1*
X3572771Y1570757D1*
X3578519Y1574560D1*
X3580420Y1580308D1*
Y1584110D1*
X3572771Y1570757D2*
X3547922Y1593705D1*
M02*
